<svg viewBox="0 0 1000 772" version="1.1" xmlns="http://www.w3.org/2000/svg" xmlns:xlink="http://www.w3.org/1999/xlink" xml:space="preserve" style="fill-rule:evenodd;clip-rule:evenodd;stroke-miterlimit:1.41421;">
  <path d="M898.515,465.283L900.246,463.571L904.898,458.699L906.9,456.399L909.886,452.307L912.978,445.787L913.72,443.188L914.516,439.843L916.038,432.992L917.641,425.948L919.051,419.428L920.028,414.952L920.594,412.364L921.732,407.113L923.318,399.809L924.925,393.054L926.036,386.475L925.112,379.885L923.531,373.157L922.154,366.855L920.882,360.975L920.316,358.334L919.28,353.623L917.838,346.927L916.332,340.321L914.97,334.131L913.988,329.927L913.304,327.115L910.35,320.461L907.413,316.268L905.405,313.888L900.716,308.904L898.985,307.181L894.125,302.325L892.374,300.597L887.524,295.757L885.762,294.007L880.923,289.194L879.134,287.423L874.322,283.053L871.438,280.822L867.998,278.656L861.381,276.276L854.823,275.316L848.227,274.542L845.012,274.259L842.571,273.955L835.041,273.544L828.434,273.384L821.726,272.712L815.494,270.524L811.232,267.947L808.599,266.549L802.04,263.919L796.171,261.304L793.693,260.499L789.025,259.074L782.253,256.785L775.657,255.328L770.071,254.32L767.016,253.898L763.56,253.407L761.039,253.151L756.339,252.789L749.696,252.66L743.356,253.215L739.628,253.68L736.461,254.096L733.818,254.491L729.641,255.184L722.88,256.353L716.284,257.121L709.688,257.495L703.092,257.687L696.491,257.591L683.3,257.185L676.704,257.943L670.252,259.88L667.389,261.208L663.469,263.273L657.498,266.917L650.406,269.761L643.831,270.103L637.236,269.969L630.576,269.217L626.196,267.798L623.451,266.832L618.057,264.938L610.644,262.334L607.231,261.128L604.694,260.232L598.019,257.879L590.899,255.366L588.336,254.459L584.827,253.231L578.044,250.836L571.139,248.397L568.879,247.592L564.927,246.204L557.904,243.718L551.485,241.429L545.626,239.262L538.154,236.408L533.353,234.7L531.094,233.921L524.941,231.52L518.372,229.151L515.461,227.988L511.84,226.579L505.175,224.034L498.622,221.596L491.983,219.035L485.388,216.554L481.035,214.846L478.765,213.96L472.201,211.41L465.6,208.742L458.753,205.743L452.403,202.611L450.085,201.454L445.53,199.202L439.212,196.129L436.92,195.008L432.322,192.804L426.015,189.731L423.307,188.429L419.104,186.428L412.823,183.403L409.191,181.797L406.013,180.442L399.631,177.891L393.003,175.373L386.44,171.952L382.279,168.804L379.726,166.558L374.06,163.111L371.683,162.06L368.885,161.911L366.289,161.788L359.72,161.761L353.124,161.761L346.544,161.74L341.252,160.491L342.272,157.679L342.186,155.321L344.349,149.654L343.003,142.841L342.128,136.102L341.433,129.464L340.648,122.768L340.232,119.476L339.836,115.853L338.677,112.198L337.518,109.183L336.285,106.686L334.784,104.055L333.182,101.334L330.367,102.593L326.586,104.28L323.317,105.795L319.99,107.337L316.011,109.183L313.389,110.405L310.606,111.702L306.793,113.473L301.848,115.778L297.58,117.763L293.602,119.614L287.684,122.368L285.59,123.344L283.337,124.395L280.405,125.761L278.279,126.791L274.257,128.632L269.953,130.691L267.213,132.004L264.847,133.156L261.974,134.49L259.752,135.547L256.067,137.884L254.016,139.234L252.424,142.136L256.099,144.452L260.617,146.245L263.448,147.488L266.155,148.731L270.289,150.108L273.809,151.293L278.375,152.813L283.262,154.451L285.815,155.321L285.494,160.406L281.911,160.406L274.257,161.462L267.48,161.644L260.815,161.713L254.181,161.751L247.57,161.761L168.404,161.761L161.803,161.767L157.765,162.401L155.063,162.786L149.412,166.35L147.11,168.143L142.063,172.038L137.865,174.764L135.387,176.168L129.149,179.454L125.363,181.578L122.372,183.269L115.92,187.287L113.934,188.573L109.431,191.534L104.481,194.715L102.526,195.979L96.1116,200.173L94.1461,201.454L89.6065,204.458L85.4248,207.883L82.7757,210.492L79.6994,214.425L76.7621,220.753L77.7821,227.342L82.0974,233.825L88.4102,240.073L95.1502,246.082L97.3026,247.976L101.906,252.031L104.181,254.032L108.454,257.735L111.819,260.632L115.173,263.481L119.419,267.131L121.907,269.212L127.323,273.635L134.752,279.094L136.829,280.385L141.385,283.421L147.03,286.606L149.786,288.058L153.744,290.01L155.901,291.014L160.062,293.014L163.757,294.685L166.161,295.688L169.792,297.176L173.467,299.022L175.576,300.319L172.201,304.054L168.254,306.701L167.33,312.084L167.672,314.651L169.456,318.893L171.373,323.359L172.81,326.683L174.855,331.41L176.399,334.82L177.494,337.226L178.69,339.862L180.533,345.449L181.451,350.4L182.263,353.047L183.577,357.513L185.078,362.603L186.151,366.226L188.047,372.618L189.772,377.687L191.444,382.606L192.597,386L191.545,389.1L190.354,392.59L188.154,399.078L186.584,404.307L185.355,408.458L184.207,412.364L182.6,417.801L181.451,421.6L180.96,424.785L179.197,430.473L177.494,434.774L176.404,437.175L175.438,439.309L173.627,443.428L171.72,447.836L169.958,451.907L168.254,455.951L167.191,458.496L167.629,464.131L170.978,467.162L174.855,470.16L174.033,472.657L169.798,474.824L166.155,476.312L163.763,477.315L161.568,478.212L155.901,480.986L153.738,481.99L149.786,483.942L147.036,485.394L142.405,487.998L137.604,491.124L135.649,492.373L129.133,496.972L122.634,502.265L119.894,504.506L115.787,508.044L112.294,510.984L109.052,513.769L104.625,517.584L102.456,519.489L97.3079,524.019L95.1556,525.918L90.0017,530.459L83.1923,536.915L78.3055,543.5L76.5698,550.292L79.2829,556.887L82.3271,561.033L84.944,563.69L88.8962,567.035L93.7296,570.264L95.6896,571.55L101.767,575.519L104,576.976L108.652,579.953L113.928,583.427L115.92,584.713L121.544,588.208L124.887,590.134L128.492,592.135L134.795,595.464L137.385,596.835L141.508,599.487L146.592,603.35L148.467,605.047L154.117,608.414L157.76,609.599L160.815,610.084L168.11,610.233L174.701,610.239L253.866,610.239L260.452,610.249L267.01,610.287L273.536,610.362L279.951,610.543L285.478,611.61L284.976,614.651L283.262,617.549L280.405,618.52L275.838,620.035L272.201,621.241L267.827,622.719L263.448,624.512L260.617,625.755L257.653,626.945L254.016,628.375L253.145,630.728L256.067,634.116L259.747,636.448L261.979,637.515L264.462,638.662L267.213,639.996L269.953,641.309L273.547,643.043L278.007,645.081L280.405,646.244L283.337,647.605L285.601,648.661L291.706,651.484L296.737,653.848L300.197,655.459L305.223,657.791L309.341,659.712L313.389,661.595L316.006,662.812L318.724,664.076L322.89,666.013L326.586,667.726L330.362,669.401L333.182,670.666L334.784,667.939L336.285,665.309L337.518,662.812L338.677,659.797L339.778,656.66L340.232,652.53L340.563,650.193L341.364,643.438L342.031,636.955L342.795,630.413L344.381,623.973L342.336,617.602L342.272,614.315L341.257,611.509L345.551,610.74L352.804,610.255L359.421,610.239L366.017,610.239L368.927,610.084L371.694,609.94L374.06,608.889L378.065,606.637L381.58,603.831L385.558,600.709L391.871,597.305L398.531,594.605L405.421,591.815L408.684,590.427L411.947,589.019L418.468,585.881L422.837,583.8L425.229,582.658L431.665,579.516L436.45,577.221L438.736,576.106L444.857,573.129L449.888,570.637L452.403,569.389L458.048,566.593L463.752,564.053L471.245,560.974L477.82,558.408L480.068,557.533L484.405,555.83L491.038,553.333L497.399,550.879L503.995,548.414L510.847,545.81L514.495,544.391L517.464,543.196L524.023,540.832L530.469,538.335L533.358,537.3L537.118,535.982L543.869,533.399L549.546,531.286L556.777,528.693L563.544,526.303L568.041,524.702L570.263,523.928L576.912,521.575L583.096,519.388L586.589,518.15L590.002,516.954L596.63,514.617L602.702,512.478L605.212,511.587L609.741,509.991L616.337,507.67L622.249,505.589L624.968,504.634L629.652,502.991L636.119,502.111L642.656,501.902L649.247,502.025L655.661,504.111L661.974,507.825L667.389,510.792L669.633,511.875L675.796,513.812L682.349,514.687L688.945,514.607L695.546,514.436L702.142,514.329L708.737,514.5L715.333,514.842L721.929,515.567L728.53,516.682L733.807,517.509L736.419,517.899L739.634,518.32L742.197,518.662L747.634,519.217L754.492,519.265L761.039,518.849L763.555,518.593L767.021,518.102L770.081,517.68L774.557,516.821L781.302,515.396L787.903,513.203L793.698,511.501L796.171,510.696L800.374,508.775L807.76,505.787L810.318,504.634L813.849,502.388L820.637,499.699L827.5,498.898L834.079,498.61L840.51,498.333L845.028,497.735L847.752,497.495L853.872,496.759L860.468,495.916L867.074,493.797L870.599,491.733L873.702,489.438L878.659,485.026L880.442,483.281L885.286,478.457L887.049,476.718L891.904,471.873L893.65,470.144L898.515,465.283Z" stroke="currentColor" stroke-width="3" id="voyager-deck-13" />
  <path d="M554.062,294.003L675.869,294.003L675.869,375.531L719.164,375.531C724.108,348.009 748.196,327.124 777.167,327.124C809.713,327.124 836.098,353.484 836.098,386C836.098,418.516 809.713,444.876 777.167,444.876C748.196,444.876 724.108,423.991 719.164,396.469L675.869,396.469L675.869,446.544L675.687,446.544C674.788,441.678 670.518,437.992 665.387,437.992C660.255,437.992 655.985,441.678 655.086,446.544L556.659,446.544L530.156,473.023L444.802,473.023C443.454,468.799 439.495,465.74 434.82,465.74C429.035,465.74 424.344,470.426 424.344,476.206C424.344,477.596 424.616,478.923 425.108,480.137L424.344,480.9L424.344,452.085L439.996,435.652L454.815,450.458L453.187,452.085L521.475,452.085L550.953,422.634L550.987,422.668L552.34,421.316L560.746,425.606L654.911,425.606L654.911,314.941L563.16,314.941L563.16,318.459L554.671,324.238L524.408,294.003L424.344,294.003L424.344,273.065L507.743,273.065L532.94,272.901L554.062,294.003Z" stroke="currentColor" stroke-width="2" id="hallway"/>
  <path d="M455.056,294.003L424.344,324.686L424.344,419.668L456.791,452.085L521.543,452.085L552.34,421.316L560.746,425.606L654.911,425.606L654.704,314.941L563.16,314.941L563.16,318.459L554.671,324.238L524.408,294.003L455.056,294.003Z" id="room-169" stroke="currentColor" name="Bridge"/>
<path d="M182.988,587.611L182.988,438.102L183.002,438.072L183.946,435.987L185.01,433.642L186.674,429.441L188.396,423.885L188.876,420.774L189.997,417.063L191.568,411.752L192.689,407.937L193.889,403.882L195.423,398.774L197.572,392.437L198.735,389.028L199.763,386L198.636,382.685L197.004,377.88L195.318,372.929L193.467,366.685L192.418,363.146L190.952,358.174L189.669,353.812L188.876,351.226L187.978,346.39L186.179,340.933L185.01,338.358L183.941,336.008L182.988,333.904L182.988,302.473L183.137,302.308L182.988,302.216L182.988,184.389L406.164,184.389L408.225,185.213L411.329,186.537L414.877,188.106L421.012,191.061L424.344,192.647L424.344,579.358L420.391,581.242L414.021,584.306L410.834,585.682L407.646,587.037L406.23,587.611L182.988,587.611Z" id="room-170" stroke="currentColor" name="Upper Cargo Bay"/>
<path d="M746.029,336.004L746.029,260.75L750.068,260.397L756.326,260.517L760.753,260.859L763.128,261.1L766.383,261.563L769.26,261.96L774.523,262.91L780.736,264.282L787.115,266.438L791.512,267.78L793.846,268.539L799.375,271.002L805.553,273.48L808.033,274.797L812.048,277.224L817.919,279.285L824.238,279.918L830.461,280.069L837.555,280.456L839.854,280.743L842.882,281.009L849.095,281.738L855.273,282.642L861.507,284.884L864.747,286.925L867.463,289.026L871.996,293.142L873.681,294.811L878.239,299.344L879.9,300.993L884.468,305.552L886.118,307.18L890.696,311.754L892.326,313.377L896.743,318.072L898.635,320.313L901.402,324.264L904.184,330.531L904.828,333.18L905.753,337.141L907.036,342.971L908.455,349.194L909.813,355.501L910.789,359.939L911.322,362.427L912.52,367.966L913.818,373.902L915.307,380.24L916.177,386.447L915.131,392.645L913.617,399.008L912.122,405.888L911.051,410.834L910.517,413.272L909.597,417.489L908.269,423.631L906.759,430.265L905.326,436.719L904.576,439.87L903.877,442.318L900.964,448.46L898.152,452.315L896.265,454.481L891.883,459.07L890.253,460.683L885.67,465.262L884.025,466.891L879.452,471.454L877.792,473.093L873.229,477.637L871.548,479.28L866.88,483.437L863.957,485.598L860.636,487.543L854.413,489.539L848.2,490.333L842.435,491.026L839.869,491.252L835.613,491.815L829.556,492.077L823.358,492.348L816.893,493.102L810.499,495.635L807.173,497.751L804.763,498.837L797.806,501.652L793.846,503.461L791.517,504.22L786.059,505.823L779.84,507.889L773.486,509.231L769.271,510.04L766.388,510.437L763.123,510.9L760.753,511.141L754.585,511.533L748.126,511.488L746.029,511.274L746.029,435.996C755.064,441.624 765.735,444.876 777.167,444.876C809.713,444.876 836.098,418.516 836.098,386C836.098,353.484 809.713,327.124 777.167,327.124C765.735,327.124 755.064,330.376 746.029,336.004Z" id="room-172" stroke="currentColor" name="Briefing Room"/>
</svg>