<svg viewBox="0 0 1000 772" version="1.1" xmlns="http://www.w3.org/2000/svg" xmlns:xlink="http://www.w3.org/1999/xlink" xml:space="preserve" style="fill-rule:evenodd;clip-rule:evenodd;stroke-miterlimit:1.41421;">
  <path d="M854.723,466.19L859.252,462.824L861.319,461.292L864.87,458.496L867.92,456.111L870.259,454.297L873.442,451.907L876.417,450.066L878.425,448.86L881.111,447.377L884.342,445.317L886.265,443.77L889.373,440.366L891.627,436.535L893.272,433.386L894.308,431.162L895.814,427.032L897.449,422.699L898.875,418.953L899.58,416.739L900.904,413.036L901.737,406.591L902.389,400.663L902.768,397.317L902.987,394.671L903.409,390.087L903.703,386L903.489,383.412L903.211,379.41L902.768,374.678L902.389,371.332L901.972,367.298L901.112,359.78L899.58,355.261L898.875,353.047L897.657,349.813L896.418,346.452L894.308,340.839L893.267,338.613L891.627,335.46L890.458,333.272L887.707,329.447L884.337,326.683L882.409,325.386L878.425,323.14L876.422,321.934L873.976,320.461L870.366,317.778L867.92,315.883L864.87,313.498L862.883,311.935L859.252,309.176L856.197,306.909L851.63,303.553L848.127,300.997L844.565,297.795L841.531,295.143L837.803,290.859L836.094,288.292L832.975,282.402L830.721,278.16L829.199,274.82L827.127,273.059L824.329,271.597L821.738,269.97L819.725,268.401L816.382,266.411L813.813,265.514L810.907,264.73L808.547,264.095L805.743,263.343L801.946,262.339L799.553,261.528L796.973,260.776L794.212,260.221L791.659,259.73L788.754,259.181L783.953,258.263L780.465,257.596L776.962,256.934L773.223,256.267L768.961,255.563L766.013,254.992L763.204,254.411L758.216,253.279L755.769,252.671L750.968,251.796L747.374,251.236L744.372,250.596L740.778,250.035L737.771,249.182L734.182,248.781L731.175,248.344L726.887,248.066L724.291,247.794L721.669,247.709L718.694,247.592L716.189,247.463L710.891,247.501L708.563,247.533L706.149,247.592L703.43,247.656L697.384,247.762L691.061,247.837L688.476,247.864L684.69,247.896L681.651,247.928L678.297,247.96L674.542,247.997L670.008,248.04L665.206,248.018L661.612,247.842L658.611,247.874L655.096,247.72L652.565,247.746L650.215,247.522L644.874,247.33L641.659,247.031L639.053,246.903L635.229,246.386L632.222,246.092L628.628,245.569L625.626,245.324L622.053,244.844L618.464,244.326L615.03,243.531L612.835,242.811L607.58,241.754L604.039,241.167L598.976,240.41L595.643,239.908L590.842,239.166L586.041,238.345L582.452,237.678L579.445,236.787L575.867,236.157L572.288,235.597L568.261,235.005L564.453,234.46L561.548,234.055L557.858,233.537L553.056,232.849L549.467,232.385L546.46,231.878L542.866,231.291L539.865,230.613L536.27,230.037L533.269,229.584L529.674,229.135L526.668,228.682L523.111,228.266L519.842,227.817L515.639,227.278L511.682,226.74L506.736,226.083L503.286,225.731L500.279,225.315L496.69,224.952L493.683,224.547L490.094,224.2L487.087,223.81L483.493,223.421L480.492,223.047L476.368,222.306L473.597,221.895L471.188,221.228L467.375,220.257L463.706,218.33L460.699,216.233L458.872,214.761L457.126,212.845L454.381,209.841L452.746,208.049L450.797,205.914L448.239,203.113L446.444,201.144L444.356,198.86L442.065,196.347L440.265,194.378L437.915,191.807L435.886,189.587L434.091,187.623L432.516,185.905L429.696,182.827L427.901,180.884L425.92,178.729L423.484,176.088L421.69,173.708L420.184,171.419L418.315,168.911L421.119,167.204L424.12,165.928L427.714,165.117L430.721,164.141L434.187,163.191L437.376,161.911L442.588,158.693L445.707,156.698L446.877,154.056L446.946,150.076L446.743,147.493L445.766,142.211L443.785,138.343L442.594,135.547L441.696,132.698L440.639,128.957L439.111,122.666L437.306,118.206L436.377,115.778L435.346,112.923L434.07,109.183L432.516,104.365L431.437,101.372L430.15,97.7966L428.553,93.3733L427.127,89.4142L425.92,86.058L424.75,82.8193L423.047,78.5881L422.155,76.2297L419.319,73.8819L417.177,71.7744L415.073,69.6401L412.723,68.3488L408.317,66.0545L406.127,65.0033L402.607,63.0504L399.531,62.0206L394.73,60.3025L391.269,58.9206L388.316,57.2986L386.516,55.1909L385.79,52.2936L385.117,49.8659L383.84,45.3092L382.82,41.3554L381.704,39.0397L380.871,36.6867L377.063,33.1224L373.143,31.1002L368.416,31.0735L364.683,31.0575L344.89,31.0575L342.017,31.0628L322.229,31.0628L318.154,31.2976L313.77,31.8045L311.713,32.893L308.707,33.7841L305.833,35.5502L302.821,37.7271L300.573,39.2638L298.025,41.7823L296.134,43.9646L293.977,46.2002L291.654,48.7614L289.859,50.821L287.381,53.4035L282.58,55.3403L279.941,56.1834L276.742,56.5622L274.184,56.845L269.388,57.2345L265.794,57.5226L262.787,57.7627L259.198,58.0509L256.191,58.307L252.597,58.6218L249.595,58.9473L246.001,59.3688L242.999,59.9771L239.405,60.4679L236.398,61.0229L232.809,61.5031L229.802,62.0633L226.454,62.5115L223.228,63.0504L218.298,64.3043L214.811,65.4462L209.62,66.8388L206.052,67.6605L203.302,68.3275L200.637,69.0265L197.213,70.6378L195.024,71.8224L191.531,73.231L188.428,74.4422L183.263,76.2297L179.386,80.3808L176.828,82.8193L172.795,86.9758L170.435,89.4142L168.635,91.2657L166.301,93.6721L164.037,96.0038L162.039,98.0634L159.807,100.363L157.644,102.593L155.438,104.866L153.312,107.059L151.245,109.183L148.842,111.664L146.818,113.75L144.853,115.778L142.246,118.462L140.324,120.447L138.46,122.368L135.65,125.265L133.829,127.138L132.067,128.957L129.049,132.073L127.34,133.839L125.685,135.547L122.453,138.924L119.372,142.136L117.732,143.993L115.858,146.063L113.7,148.731L114.181,153.646L115.478,155.785L120.328,157.242L125.263,158.72L129.049,159.904L131.49,160.838L134.176,161.911L136.793,162.465L140.078,163.031L144.041,163.549L147.048,164.045L150.637,164.408L153.643,164.904L157.238,165.293L160.239,166.04L163.834,166.334L166.84,166.59L170.429,166.713L173.436,166.878L177.025,166.948L180.032,167.022L183.626,167.038L190.222,167.038L193.224,167.033L196.818,167.028L199.825,167.028L203.414,167.012L206.421,167.006L210.01,166.974L213.016,166.969L216.611,166.974L219.612,167.092L222.785,167.529L225.861,168.5L227.143,173.297L227.127,176.888L226.662,179.892L226,183.478L225.482,186.482L224.825,190.067L224.307,193.071L223.671,196.662L223.153,199.661L222.534,203.252L222.016,206.25L221.492,209.292L220.798,213.31L220.248,216.431L219.719,219.435L219.057,223.021L218.469,226.025L217.647,229.615L216.862,232.614L215.959,235.869L215.244,238.318L214.549,240.666L212.931,245.799L211.601,249.384L210.277,252.388L209.144,254.741L206.421,256.913L203.414,258.199L199.825,259.255L196.818,259.666L193.421,260.061L190.409,260.397L187.675,260.675L185.143,261.123L181.827,261.71L177.025,262.489L173.436,263.049L170.429,263.529L166.84,264.116L163.834,264.735L160.239,265.322L157.238,265.738L153.643,266.229L150.637,266.619L147.998,266.939L145.461,267.259L143.197,268.203L140.698,269.5L137.231,270.53L133.22,271.554L129.049,272.467L126.069,273.054L122.453,273.71L124.243,275.759L126.427,276.954L129.049,278.437L132.382,280.545L135.65,282.188L138.967,283.992L142.246,286.089L139.902,288.981L139.539,291.472L138.449,293.729L136.388,294.951L133.824,296.835L131.816,299.14L129.701,300.751L127.506,302.203L124.36,304.267L121.658,306.066L119.431,307.576L116.856,309.283L114.02,311.167L111.996,312.511L109.887,313.914L107.59,315.985L105.037,318.455L103.045,320.589L100.45,324.805L99.1785,328.476L98.5163,331.48L98.2973,335.065L98.2973,436.929L98.5163,440.52L99.1785,443.524L100.45,447.19L101.844,449.479L103.43,451.907L107.59,456.015L109.262,457.669L111.991,459.483L114.02,460.833L116.856,462.717L119.425,464.424L121.658,465.934L124.36,467.732L127.506,469.797L129.701,471.249L131.81,472.855L133.824,475.165L135.65,476.622L137.707,477.844L139.539,480.528L139.902,483.014L142.246,484.689L139.09,487.95L135.65,489.812L132.393,491.45L130.395,492.794L126.432,495.046L124.243,496.241L121.615,497.741L124.558,498.68L129.049,499.528L131.479,500.03L135.65,500.963L140.698,502.505L143.192,503.797L145.451,504.741L147.993,505.061L150.637,505.381L153.643,505.765L157.238,506.256L160.239,506.673L163.834,507.265L166.84,507.884L170.429,508.471L173.436,508.951L177.025,509.511L180.032,510.007L183.621,510.6L186.916,511.224L190.409,511.603L193.416,511.939L196.818,512.334L199.825,512.745L203.414,513.801L206.421,515.087L208.584,516.474L210.271,519.612L211.601,522.61L212.931,526.201L213.882,529.2L214.715,531.889L215.959,536.126L216.862,539.38L217.647,542.385L218.469,545.97L219.057,548.974L219.719,552.565L220.248,555.564L220.798,558.69L221.412,562.239L222.016,565.744L222.534,568.748L223.153,572.334L223.671,575.338L224.307,578.929L224.825,581.927L225.482,585.518L226,588.517L226.662,592.108L227.127,595.112L227.143,598.698L226.176,601.702L224.488,603.911L221.412,604.882L216.611,605.026L213.016,605.031L210.01,605.026L206.421,604.994L203.414,604.988L199.825,604.972L196.818,604.972L193.224,604.967L190.222,604.962L183.626,604.962L180.032,604.978L177.025,605.052L173.436,605.122L170.429,605.287L166.84,605.41L163.834,605.666L160.239,605.96L157.238,606.707L153.643,607.096L150.637,607.592L147.048,607.955L144.041,608.451L140.484,608.884L136.793,609.534L134.182,610.084L131.49,611.157L129.049,612.096L126.245,612.944L122.453,614.161L117.321,615.66L114.384,616.679L113.951,621.364L114.763,624.362L117.732,628.007L119.367,629.858L122.453,633.076L124.109,634.804L127.34,638.161L129.049,639.932L132.061,643.043L133.829,644.862L135.65,646.74L138.454,649.632L140.318,651.553L142.246,653.538L144.847,656.222L146.813,658.25L148.842,660.336L151.245,662.812L153.312,664.941L155.438,667.139L157.638,669.401L159.807,671.637L162.039,673.937L164.037,675.996L166.301,678.328L168.635,680.734L170.429,682.586L172.795,685.019L175.231,687.532L179.386,691.619L181.827,694.292L187.109,697.115L191.467,698.742L195.024,700.178L197.213,701.357L200.637,702.974L203.302,703.673L206.052,704.339L209.62,705.161L212.974,706.127L217.93,707.562L221.412,708.571L226.267,709.451L229.802,709.937L232.809,710.497L236.398,710.977L239.405,711.532L242.999,712.023L246.001,712.631L249.595,713.053L252.597,713.378L256.191,713.693L259.198,713.949L262.787,714.237L265.794,714.477L269.388,714.765L272.39,715.011L275.135,715.262L277.677,715.539L280.785,715.923L285.586,717.86L288.268,719.552L290.746,722.129L293.069,724.695L294.591,726.493L296.743,728.724L299.75,731.813L302.1,733.782L304.343,735.313L307.174,737.613L311.713,739.107L313.77,740.195L316.445,740.446L320.365,740.942L364.688,740.942L368.411,740.926L371.252,740.916L375.797,739.475L379.738,737.293L381.298,733.974L382.82,730.639L383.845,726.691L384.748,724.162L385.661,720.16L386.334,717.732L388.321,714.696L391.269,713.079L394.73,711.697L397.731,710.518L400.947,709.574L404.37,707.973L408.317,705.94L410.806,704.526L413.909,703.011L417.177,700.226L419.319,698.118L422.16,695.765L423.047,693.412L423.992,691.128L425.22,687.884L426.806,683.471L427.81,680.697L429.503,675.996L431.437,670.623L432.516,667.64L433.669,663.964L435.304,659.194L436.377,656.222L437.306,653.794L438.882,649.937L440.329,644.163L441.445,640.236L442.594,636.448L443.785,633.652L445.707,629.997L446.743,624.501L446.952,621.924L446.877,617.944L445.707,615.302L443.042,613.606L439.111,611.135L434.908,609.134L432.516,608.217L427.714,606.883L424.12,606.066L421.119,604.796L418.309,603.713L420.184,600.581L421.69,598.292L423.484,595.907L425.92,593.271L427.901,591.11L429.696,589.173L431.458,587.237L433.114,585.444L434.689,583.726L437.915,580.193L439.555,578.401L442.065,575.653L444.356,573.14L445.996,571.347L448.239,568.887L450.797,566.086L452.431,564.293L454.386,562.159L457.126,559.155L458.765,557.362L460.699,555.766L463.706,553.67L467.375,551.743L469.735,551.188L472.096,550.457L474.627,549.919L478.692,549.172L483.493,548.579L487.087,548.19L490.094,547.8L493.683,547.453L496.69,547.048L500.279,546.685L503.286,546.269L506.736,545.917L510.245,545.41L514.309,544.914L518.277,544.412L521.92,543.916L524.873,543.537L529.674,542.865L533.269,542.417L536.27,541.963L539.865,541.381L542.866,540.709L546.46,540.117L549.467,539.615L553.056,539.146L556.063,538.692L559.887,538.196L564.133,537.588L567.252,537.15L571.055,536.574L575.867,535.843L579.445,535.213L582.452,534.322L586.041,533.655L589.047,533.122L593.528,532.423L597.438,531.814L603.04,530.998L606.058,530.497L610.635,529.739L615.03,528.469L618.47,527.674L622.053,527.156L625.626,526.676L628.628,526.431L632.222,525.908L635.229,525.614L639.058,525.097L641.659,524.969L644.88,524.67L649.638,524.526L652.57,524.254L655.096,524.28L658.611,524.126L661.612,524.158L665.206,523.982L668.213,524.008L672.336,523.982L676.604,524.024L681.656,524.072L684.684,524.104L688.487,524.136L691.056,524.163L695.344,524.206L702.506,524.323L706.079,524.408L708.547,524.462L710.913,524.499L714.4,524.526L717.567,524.462L721.679,524.286L724.286,524.206L726.892,523.928L729.381,523.774L734.182,523.219L737.771,522.813L740.778,521.965L744.372,521.404L747.374,520.764L750.968,520.204L753.975,519.622L757.543,518.881L762.125,517.814L766.013,517.008L768.961,516.437L771.3,516.058L775.562,515.348L780.465,514.404L783.953,513.732L786.959,513.145L790.709,512.467L794.212,511.779L796.979,511.224L799.553,510.472L801.946,509.661L804.755,508.94L808.547,507.905L810.907,507.27L813.813,506.486L816.382,505.589L819.725,503.599L821.738,502.03L824.168,500.504L827.122,498.941L829.205,497.175L830.721,493.835L832.051,491.45L834.935,485.639L837.803,481.141L839.721,478.271L844.148,474.589L847.203,471.681L850.007,469.632L854.723,466.19Z" stroke="currentColor" stroke-width="3" id="voyager-deck-3" />
  <path d="M592.383,279.287C464.341,275.666 301.666,274.376 250.404,273.999L250.404,375.531L515.269,375.531L515.269,396.469L250.404,396.469L250.404,435.728L250.489,435.728L250.489,435.771L250.502,435.771L250.502,460.935L250.489,460.935L250.489,497.732C301.816,497.354 464.399,496.064 592.383,492.445C592.383,492.445 634.798,418.895 634.798,383.368C634.798,348.674 592.383,279.287 592.383,279.287ZM613.341,279.911C613.538,278.455 656.158,345.912 655.756,383.383C655.377,418.699 613.341,491.821 613.341,491.821C675.101,489.883 726.219,487.345 748.541,484.031C750.195,483.785 753.062,483.45 753.262,482.786C756.279,472.813 760.133,455.927 765.164,443.037C742.077,438.212 724.006,419.749 719.778,396.469C718.745,388.017 718.745,381.037 719.778,375.531C724.012,352.218 742.127,333.736 765.261,328.943C760.182,316.021 756.298,298.983 753.262,288.946C753.062,288.282 750.195,287.947 748.541,287.701C726.218,284.387 675.101,281.849 613.341,279.911ZM780.512,425.467C800.841,423.77 816.81,406.748 816.81,386C816.81,364.126 799.061,346.394 777.167,346.394C755.272,346.394 737.523,364.126 737.523,386C737.523,407.874 755.272,425.606 777.167,425.606C777.273,425.606 777.379,425.606 777.485,425.605C778.465,425.31 779.474,425.253 780.512,425.467ZM325.967,517.688L325.967,659.42L305.009,659.42L305.009,517.96C281.726,518.252 262.87,518.459 250.489,518.595L250.489,518.806L229.531,518.806L229.531,460.935L229.446,435.771L229.446,260.734L229.531,260.734L229.531,252.927C229.531,252.927 259.412,253.141 305.009,253.678L305.009,112.58L325.967,112.58L325.967,253.935C459.766,255.635 691.714,259.774 748.541,268.449C752.953,269.122 766.356,269.738 767.427,272.6C773.602,289.101 777.233,327.803 781.067,327.223L781.067,327.856C811.461,329.861 835.494,355.126 835.494,386C835.494,416.874 811.461,442.139 781.067,444.144L781.067,444.509C777.233,443.929 773.602,482.631 767.427,499.132C766.356,501.994 752.953,502.61 748.541,503.283C692.893,511.778 458.275,515.923 325.967,517.688Z" stroke="currentColor" stroke-width="2" id="hallway"/>
  <path d="M229.361,518.806L229.196,518.285L227.941,514.897L226.686,512.068L225.094,509.108L223.053,507.799L220.216,506.585L216.829,505.588L213.992,505.201L210.782,504.828L207.945,504.511L204.65,504.154L201.54,503.565L198.154,503.006L195.317,502.538L191.931,502.009L189.094,501.556L185.707,501.002L182.87,500.418L179.479,499.859L176.647,499.467L162.502,479.117L160.29,477.536L159.947,475.19L158.219,472.658L156.278,471.505L154.555,470.131L152.655,467.951L150.665,466.436L148.594,465.066L145.626,463.118L143.076,461.421L140.969,459.996L138.545,458.385L135.87,456.608L133.955,455.335L131.38,453.623L129.802,452.062L125.877,448.186L124.38,445.895L123.065,443.735L121.866,440.276L121.241,437.442L121.034,434.054L121.034,337.941L121.241,334.558L121.866,331.724L123.065,328.26L125.514,324.283L127.394,322.269L129.802,319.938L131.969,317.984L133.96,316.66L135.87,315.392L138.545,313.615L140.974,312.004L143.076,310.579L145.626,308.882L148.594,306.934L150.665,305.564L152.66,304.044L154.555,301.869L156.974,300.092L158.919,298.939L159.947,296.81L160.29,294.458L176.647,272.528L179.479,272.136L182.87,271.582L185.707,270.998L189.094,270.444L191.931,269.991L195.317,269.462L199.847,268.727L202.977,268.174L205.365,267.751L207.945,267.489L210.787,267.172L213.992,266.799L216.829,266.411L220.216,265.415L223.053,264.201L225.623,262.152L226.691,259.932L227.941,257.098L229.196,253.715L229.444,252.927L229.361,518.806Z" id="room-27" stroke="currentColor" name="Shuttle Hangar"/>
<path d="M783.121,327.998C771.546,323.29 821.241,325.641 818.429,313.395L821.069,314.831L822.935,315.845L826.287,317.665L829.97,319.669L831.98,320.764L834.813,322.311L837.77,323.925L840.751,325.559L842.843,326.697L846.695,328.869L849.897,330.661L853.432,332.635L856.702,334.706L860.231,336.911L862.958,338.568L864.511,340.802L867.064,344.501L868.392,346.538L870.45,349.709L871.806,351.789L873.08,353.745L874.787,356.368L876.393,358.842L878.644,362.306L880.082,364.549L882.731,368.638L884.698,371.808L886.809,375.632L889.165,379.212L889.925,381.758L889.723,384.592L889.723,387.494L889.737,391.976L888.271,394.402L886.227,397.909L884.698,400.273L882.332,404.078L880.082,407.532L877.759,411.14L876.393,413.244L874.787,415.714L873.08,418.337L871.811,420.287L870.45,422.377L868.392,425.543L865.978,429.045L864.511,431.279L862.958,433.513L858.572,436.203L856.707,437.38L852.634,439.898L849.142,441.843L844.896,444.231L841.492,446.124L840.751,446.528L837.212,448.459L834.813,449.77L831.985,451.317L828.874,453.013L824.844,455.199L822.935,456.242L821.069,457.25L816.992,459.47C819.9,446.748 772.387,449.93 783.695,444.491C784.187,444.255 784.674,444.014 785.157,443.77C813.737,440.011 835.797,415.579 835.797,386C835.797,355.722 812.682,330.837 783.121,327.998Z" id="room-28" stroke="currentColor" name="Upper Bow Sensors"/>
<path d="M326.363,518.806L414.409,518.806L414.409,659.42L229.446,702.87L229.446,518.806L305.406,518.806L305.406,659.42L326.363,659.42L326.363,518.806ZM305.406,252.927L229.446,252.927L229.446,68.8622L414.409,112.58L414.409,252.927L326.363,252.927L326.363,112.58L305.406,112.58L305.406,252.927Z" id="room-29" stroke="currentColor" name="Weapons Locker"/>
<path d="M613.456,491.817C613.456,491.817 656.344,416.218 656.344,380.901C656.344,347.239 613.456,279.914 613.456,279.914C675.164,281.852 726.232,284.389 748.541,287.701C750.195,287.947 753.062,288.282 753.262,288.946C756.298,298.983 760.182,316.021 765.261,328.943C742.127,333.736 724.012,352.218 719.778,375.531C718.745,381.037 718.745,388.017 719.778,396.469C724.006,419.749 742.077,438.212 765.164,443.037C760.133,455.927 756.279,472.813 753.262,482.786C753.062,483.45 750.195,483.785 748.541,484.031C726.233,487.343 675.165,489.88 613.456,491.817Z" id="room-30" stroke="currentColor" name="Power Distribution Center"/>
<path d="M515.269,494.294L515.269,277.438C541.565,277.974 567.622,278.587 592.383,279.287C592.383,279.287 623.272,329.819 632.33,366.198C633.171,377.078 633.355,387.882 632.899,398.612C624.655,436.485 592.383,492.445 592.383,492.445C567.622,493.145 541.565,493.758 515.269,494.294Z" id="room-31" stroke="currentColor" name="Damage Control Resource Center"/>
<path d="M250.799,396.475L376.644,396.475L376.644,496.53L250.799,497.64L250.799,396.475Z" id="room-32" stroke="currentColor" name="Auxiliary Computer Core"/>
<path d="M376.644,396.475L515.269,396.475L515.269,494.294L376.644,496.361L376.644,396.475Z" id="room-33" stroke="currentColor" name="Upper Shield Control"/>
<path d="M250.799,375.272L376.644,375.272L376.644,275.218L250.799,274.107L250.799,375.272Z" id="room-34" stroke="currentColor" name="Communications Control Center"/>
<path d="M376.644,375.272L515.269,375.272L515.269,277.453L376.644,275.387L376.644,375.272Z" id="room-35" stroke="currentColor" name="Vehicle Maintenance Center"/>
</svg>