<svg viewBox="0 0 381 294.1" version="1.1" xmlns="http://www.w3.org/2000/svg" xmlns:xlink="http://www.w3.org/1999/xlink" xml:space="preserve" style="fill-rule:evenodd;clip-rule:evenodd;stroke-miterlimit:1.41421;">
  <path d="M 342.3342 177.2535 L 342.9937 176.6013 L 344.7661 174.7453 L 345.5289 173.8691 L 346.6666 172.3102 L 347.8446 169.8264 L 348.1273 168.8363 L 348.4306 167.562 L 349.0105 164.952 L 349.6212 162.2685 L 350.1584 159.7847 L 350.5307 158.0795 L 350.7463 157.0936 L 351.1799 155.0932 L 351.7842 152.3107 L 352.3964 149.7373 L 352.8197 147.231 L 352.4677 144.7204 L 351.8653 142.1573 L 351.3407 139.7565 L 350.856 137.5165 L 350.6404 136.5104 L 350.2457 134.7157 L 349.6963 132.1648 L 349.1225 129.6482 L 348.6036 127.2901 L 348.2294 125.6885 L 347.9688 124.6173 L 346.8433 122.0824 L 345.7244 120.485 L 344.9593 119.5783 L 343.1728 117.6796 L 342.5133 117.0232 L 340.6616 115.1733 L 339.9945 114.515 L 338.1466 112.6712 L 337.4753 112.0045 L 335.6317 110.1709 L 334.9501 109.4962 L 333.1167 107.8315 L 332.0179 106.9815 L 330.7072 106.1564 L 328.1862 105.2497 L 325.6876 104.884 L 323.1745 104.5891 L 321.9496 104.4813 L 321.0196 104.3655 L 318.1506 104.2089 L 315.6334 104.148 L 313.0776 103.892 L 310.7032 103.0584 L 309.0794 102.0767 L 308.0762 101.5441 L 305.5772 100.5422 L 303.3412 99.546 L 302.397 99.2393 L 300.6185 98.6965 L 298.0384 97.8244 L 295.5253 97.2694 L 293.3971 96.8854 L 292.2331 96.7246 L 290.9164 96.5376 L 289.9559 96.44 L 288.1652 96.3021 L 285.6342 96.253 L 283.2186 96.4644 L 281.7983 96.6416 L 280.5916 96.8 L 279.5847 96.9505 L 277.9932 97.2145 L 275.4173 97.6599 L 272.9042 97.9524 L 270.3911 98.0949 L 267.8781 98.1681 L 265.3631 98.1315 L 260.3373 97.9768 L 257.8242 98.2656 L 255.366 99.0035 L 254.2752 99.5094 L 252.7817 100.2961 L 250.5067 101.6843 L 247.8047 102.7678 L 245.2996 102.898 L 242.7869 102.847 L 240.2495 102.5605 L 238.5807 102.0199 L 237.5348 101.6519 L 235.4797 100.9304 L 232.6554 99.9384 L 231.355 99.4789 L 230.3884 99.1376 L 227.8452 98.2412 L 225.1325 97.2839 L 224.156 96.9383 L 222.8191 96.4705 L 220.2348 95.5581 L 217.604 94.629 L 216.7429 94.3223 L 215.2372 93.7935 L 212.5614 92.8465 L 210.1158 91.9744 L 207.8835 91.1489 L 205.0367 90.0616 L 203.2075 89.411 L 202.3468 89.1142 L 200.0025 88.1995 L 197.4997 87.297 L 196.3906 86.854 L 195.011 86.3172 L 192.4717 85.3477 L 189.975 84.4189 L 187.4455 83.4433 L 184.9328 82.4981 L 183.2743 81.8474 L 182.4095 81.5099 L 179.9086 80.5384 L 177.3936 79.522 L 174.7849 78.3796 L 172.3655 77.1864 L 171.4824 76.7456 L 169.7469 75.8877 L 167.3398 74.717 L 166.4665 74.29 L 164.7147 73.4503 L 162.3117 72.2796 L 161.28 71.7836 L 159.6786 71.0213 L 157.2856 69.8689 L 155.9018 69.2571 L 154.691 68.7409 L 152.2594 67.7691 L 149.7341 66.8098 L 147.2336 65.5066 L 145.6483 64.3073 L 144.6756 63.4517 L 142.5169 62.1385 L 141.6112 61.7381 L 140.5452 61.6814 L 139.5561 61.6345 L 137.0533 61.6242 L 134.5402 61.6242 L 132.0333 61.6162 L 130.017 61.1404 L 130.4056 60.0692 L 130.3729 59.1709 L 131.197 57.012 L 130.6841 54.4165 L 130.3508 51.8492 L 130.086 49.3204 L 129.7869 46.7695 L 129.6284 45.5154 L 129.4775 44.1352 L 129.0359 42.7428 L 128.5944 41.5942 L 128.1246 40.6429 L 127.5527 39.6406 L 126.9423 38.6041 L 125.8698 39.0837 L 124.4293 39.7264 L 123.1838 40.3035 L 121.9162 40.8909 L 120.4002 41.5942 L 119.4012 42.0597 L 118.3409 42.5538 L 116.8881 43.2285 L 115.0041 44.1066 L 113.378 44.8628 L 111.8624 45.568 L 109.6076 46.6171 L 108.8098 46.989 L 107.9514 47.3893 L 106.8343 47.9097 L 106.0243 48.3021 L 104.4919 49.0035 L 102.8521 49.7879 L 101.8082 50.2881 L 100.9067 50.7269 L 99.8121 51.2351 L 98.9655 51.6378 L 97.5615 52.5281 L 96.7801 53.0424 L 96.1735 54.1479 L 97.5737 55.0302 L 99.2951 55.7133 L 100.3737 56.1868 L 101.4051 56.6603 L 102.9801 57.1849 L 104.3212 57.6364 L 106.0609 58.2154 L 107.9228 58.8394 L 108.8955 59.1709 L 108.7732 61.108 L 107.4081 61.108 L 104.4919 61.5103 L 101.9099 61.5797 L 99.3705 61.6059 L 96.843 61.6204 L 94.3242 61.6242 L 64.1619 61.6242 L 61.6469 61.6265 L 60.1085 61.868 L 59.079 62.0147 L 56.926 63.3725 L 56.0489 64.0555 L 54.126 65.5393 L 52.5266 66.5778 L 51.5824 67.1127 L 49.2058 68.3645 L 47.7633 69.1737 L 46.6237 69.8179 L 44.1655 71.3486 L 43.4089 71.8385 L 41.6932 72.9665 L 39.8073 74.1783 L 39.0624 74.6599 L 36.6185 76.2576 L 35.8697 76.7456 L 34.1401 77.89 L 32.5468 79.1948 L 31.5375 80.1887 L 30.3655 81.687 L 29.2464 84.0977 L 29.635 86.6079 L 31.2791 89.0776 L 33.6843 91.4579 L 36.2522 93.747 L 37.0723 94.4686 L 38.8262 96.0134 L 39.693 96.7757 L 41.321 98.1864 L 42.603 99.29 L 43.8809 100.3753 L 45.4986 101.7658 L 46.4466 102.5586 L 48.5101 104.2436 L 51.3405 106.3232 L 52.1318 106.8151 L 53.8677 107.9717 L 56.0184 109.185 L 57.0685 109.7382 L 58.5765 110.4818 L 59.3983 110.8643 L 60.9836 111.6262 L 62.3914 112.2628 L 63.3073 112.6449 L 64.6908 113.2117 L 66.0909 113.915 L 66.8945 114.4091 L 65.6086 115.832 L 64.1048 116.8404 L 63.7527 118.8911 L 63.883 119.869 L 64.5627 121.485 L 65.2931 123.1864 L 65.8406 124.4527 L 66.6198 126.2535 L 67.208 127.5525 L 67.6252 128.4691 L 68.0809 129.4733 L 68.7831 131.6017 L 69.1328 133.4879 L 69.4422 134.4963 L 69.9428 136.1976 L 70.5147 138.1367 L 70.9235 139.5169 L 71.6459 141.952 L 72.3031 143.8831 L 72.9402 145.757 L 73.3795 147.05 L 72.9786 148.231 L 72.5249 149.5605 L 71.6867 152.0322 L 71.0885 154.0242 L 70.6203 155.6056 L 70.1829 157.0936 L 69.5706 159.1649 L 69.1328 160.6121 L 68.9458 161.8255 L 68.2741 163.9924 L 67.6252 165.6309 L 67.2099 166.5456 L 66.8419 167.3585 L 66.1519 168.9277 L 65.4253 170.607 L 64.754 172.1578 L 64.1048 173.6984 L 63.6998 174.668 L 63.8666 176.8147 L 65.1426 177.9694 L 66.6198 179.1115 L 66.3066 180.0627 L 64.693 180.8883 L 63.3051 181.4551 L 62.3937 181.8372 L 61.5574 182.1789 L 59.3983 183.2357 L 58.5742 183.6182 L 57.0685 184.3618 L 56.0207 184.915 L 54.2563 185.907 L 52.4271 187.0979 L 51.6823 187.5737 L 49.1997 189.3257 L 46.7236 191.3421 L 45.6796 192.1959 L 44.1148 193.5437 L 42.784 194.6637 L 41.5488 195.7247 L 39.8621 197.178 L 39.0357 197.9038 L 37.0743 199.6295 L 36.2543 200.353 L 34.2906 202.0829 L 31.6963 204.5424 L 29.8344 207.051 L 29.1731 209.6384 L 30.2068 212.1509 L 31.3666 213.7303 L 32.3637 214.7425 L 33.8695 216.0168 L 35.711 217.2469 L 36.4577 217.7369 L 38.7732 219.2489 L 39.624 219.8039 L 41.3964 220.9381 L 43.4066 222.2615 L 44.1655 222.7514 L 46.3083 224.0829 L 47.5819 224.8166 L 48.9555 225.5789 L 51.3569 226.8471 L 52.3437 227.3694 L 53.9145 228.3797 L 55.8516 229.8513 L 56.5659 230.4978 L 58.7186 231.7805 L 60.1066 232.232 L 61.2705 232.4167 L 64.0499 232.4735 L 66.5611 232.4758 L 96.7229 232.4758 L 99.2322 232.4796 L 101.7308 232.4941 L 104.2172 232.5226 L 106.6613 232.5916 L 108.7671 232.9981 L 108.5759 234.1566 L 107.9228 235.2606 L 106.8343 235.6305 L 105.0943 236.2076 L 103.7086 236.6671 L 102.0421 237.2301 L 100.3737 237.9132 L 99.2951 238.3867 L 98.1658 238.8401 L 96.7801 239.3848 L 96.4482 240.2812 L 97.5615 241.5719 L 98.9636 242.4603 L 99.814 242.8668 L 100.76 243.3037 L 101.8082 243.8119 L 102.8521 244.3121 L 104.2214 244.9727 L 105.9207 245.7491 L 106.8343 246.1922 L 107.9514 246.7107 L 108.814 247.113 L 111.14 248.1884 L 113.0568 249.089 L 114.3751 249.7027 L 116.29 250.5911 L 117.8589 251.3229 L 119.4012 252.0403 L 120.3983 252.5039 L 121.4338 252.9854 L 123.0211 253.7233 L 124.4293 254.3759 L 125.8679 255.014 L 126.9423 255.4959 L 127.5527 254.4571 L 128.1246 253.4552 L 128.5944 252.5039 L 129.0359 251.3553 L 129.4554 250.1602 L 129.6284 248.5869 L 129.7545 247.6966 L 130.0597 245.1232 L 130.3138 242.6535 L 130.6049 240.1612 L 131.2092 237.7078 L 130.43 235.2808 L 130.4056 234.0286 L 130.0189 232.9596 L 131.6549 232.6666 L 134.4183 232.4819 L 136.9394 232.4758 L 139.4525 232.4758 L 140.5612 232.4167 L 141.6154 232.3619 L 142.5169 231.9615 L 144.0428 231.1036 L 145.382 230.0346 L 146.8976 228.8452 L 149.3029 227.5484 L 151.8403 226.5199 L 154.4654 225.457 L 155.7086 224.9282 L 156.9518 224.3918 L 159.4363 223.1964 L 161.1009 222.4036 L 162.0122 221.9685 L 164.4644 220.7716 L 166.2875 219.8973 L 167.1584 219.4725 L 169.4905 218.3384 L 171.4073 217.389 L 172.3655 216.9136 L 174.5163 215.8484 L 176.6895 214.8808 L 179.5443 213.7078 L 182.0494 212.7303 L 182.9059 212.397 L 184.5583 211.7482 L 187.0855 210.7969 L 189.509 209.8621 L 192.0221 208.923 L 194.6327 207.931 L 196.0226 207.3904 L 197.1538 206.9352 L 199.6528 206.0346 L 202.1087 205.0833 L 203.2094 204.689 L 204.642 204.1869 L 207.2141 203.2029 L 209.377 202.3979 L 212.132 201.4101 L 214.7103 200.4996 L 216.4236 199.8897 L 217.2702 199.5949 L 219.8035 198.6985 L 222.1596 197.8653 L 223.4904 197.3937 L 224.7908 196.938 L 227.316 196.0477 L 229.6295 195.2329 L 230.5858 194.8934 L 232.3113 194.2854 L 234.8244 193.4012 L 237.0769 192.6085 L 238.1128 192.2446 L 239.8974 191.6187 L 242.3613 191.2835 L 244.8519 191.2039 L 247.3631 191.2507 L 249.8068 192.0454 L 252.2121 193.4603 L 254.2752 194.5906 L 255.1302 195.0032 L 257.4783 195.7411 L 259.975 196.0744 L 262.488 196.0439 L 265.003 195.9788 L 267.5161 195.938 L 270.0288 196.0032 L 272.5419 196.1335 L 275.0549 196.4097 L 277.5699 196.8344 L 279.5805 197.1495 L 280.5756 197.2981 L 281.8006 197.4584 L 282.7771 197.5887 L 284.8486 197.8002 L 287.4615 197.8184 L 289.9559 197.66 L 290.9145 197.5624 L 292.235 197.3754 L 293.4009 197.2146 L 295.1062 196.8874 L 297.6761 196.3445 L 300.191 195.5091 L 302.3989 194.8607 L 303.3412 194.554 L 304.9425 193.8222 L 307.7566 192.6839 L 308.7312 192.2446 L 310.0765 191.389 L 312.6627 190.3646 L 315.2775 190.0595 L 317.7841 189.9497 L 320.2343 189.8442 L 321.9557 189.6164 L 322.9935 189.525 L 325.3252 189.2446 L 327.8383 188.9234 L 330.3552 188.1162 L 331.6982 187.3299 L 332.8805 186.4556 L 334.7691 184.7748 L 335.4484 184.11 L 337.294 182.2723 L 337.9657 181.6098 L 339.8154 179.7641 L 340.4806 179.1054 L 342.3342 177.2535 Z" stroke="currentColor" id="voyager-deck-13" />
  <path d="M 211.0976 112.003 L 257.5061 112.003 L 257.5061 143.0617 L 274.0015 143.0617 C 275.8851 132.577 285.0627 124.6207 296.1006 124.6207 C 308.5007 124.6207 318.5533 134.6628 318.5533 147.05 C 318.5533 159.4372 308.5007 169.4793 296.1006 169.4793 C 285.0627 169.4793 275.8851 161.523 274.0015 151.0383 L 257.5061 151.0383 L 257.5061 170.1148 L 257.4367 170.1148 C 257.0942 168.261 255.4674 166.8568 253.5124 166.8568 C 251.5572 166.8568 249.9303 168.261 249.5878 170.1148 L 212.0871 170.1148 L 201.9894 180.2022 L 169.4696 180.2022 C 168.956 178.593 167.4476 177.4276 165.6664 177.4276 C 163.4623 177.4276 161.6751 179.2128 161.6751 181.4147 C 161.6751 181.9443 161.7787 182.4498 161.9661 182.9123 L 161.6751 183.203 L 161.6751 172.2256 L 167.6385 165.9654 L 173.2845 171.6058 L 172.6642 172.2256 L 198.682 172.2256 L 209.9131 161.006 L 209.926 161.019 L 210.4415 160.5039 L 213.6442 162.1382 L 249.5211 162.1382 L 249.5211 119.9795 L 214.564 119.9795 L 214.564 121.3197 L 211.3297 123.5212 L 199.7994 112.003 L 161.6751 112.003 L 161.6751 104.0264 L 193.4501 104.0264 L 203.0501 103.964 L 211.0976 112.003 Z" stroke="currentColor" id="hallway"/>
  <path d="M 173.3763 112.003 L 161.6751 123.6919 L 161.6751 159.8761 L 174.0374 172.2256 L 198.7079 172.2256 L 210.4415 160.5039 L 213.6442 162.1382 L 249.5211 162.1382 L 249.4422 119.9795 L 214.564 119.9795 L 214.564 121.3197 L 211.3297 123.5212 L 199.7994 112.003 L 173.3763 112.003 Z" id="room-169" stroke="currentColor" name="Bridge"/>
<path d="M 69.7184 223.8554 L 69.7184 166.8987 L 69.7238 166.8873 L 70.0834 166.093 L 70.4888 165.1996 L 71.1228 163.5992 L 71.7789 161.4826 L 71.9618 160.2975 L 72.3889 158.8837 L 72.9874 156.8604 L 73.4145 155.4071 L 73.8717 153.8623 L 74.4562 151.9164 L 75.2749 149.5022 L 75.718 148.2035 L 76.1097 147.05 L 75.6803 145.7871 L 75.0585 143.9566 L 74.4162 142.0705 L 73.7109 139.6918 L 73.3113 138.3436 L 72.7527 136.4494 L 72.2639 134.7877 L 71.9618 133.8025 L 71.6196 131.9602 L 70.9342 129.8813 L 70.4888 128.9004 L 70.0815 128.0051 L 69.7184 127.2036 L 69.7184 115.2297 L 69.7752 115.1668 L 69.7184 115.1318 L 69.7184 70.2446 L 154.7485 70.2446 L 155.5337 70.5585 L 156.7163 71.0629 L 158.0681 71.6606 L 160.4056 72.7863 L 161.6751 73.3905 L 161.6751 220.7114 L 160.169 221.4291 L 157.742 222.5964 L 156.5278 223.1206 L 155.3131 223.6368 L 154.7736 223.8554 L 69.7184 223.8554 Z" id="room-170" stroke="currentColor" name="Upper Cargo Bay"/>
<path d="M 284.237 128.0036 L 284.237 99.3349 L 285.7759 99.2005 L 288.1602 99.2462 L 289.8469 99.3765 L 290.7518 99.4683 L 291.9919 99.6447 L 293.0881 99.7959 L 295.0933 100.1578 L 297.4604 100.6805 L 299.8908 101.5018 L 301.5661 102.0131 L 302.4553 102.3022 L 304.5619 103.2405 L 306.9157 104.1845 L 307.8606 104.6863 L 309.3903 105.6109 L 311.6271 106.396 L 314.0347 106.6372 L 316.4056 106.6947 L 319.1085 106.8421 L 319.9844 106.9514 L 321.138 107.0528 L 323.5052 107.3305 L 325.859 107.6749 L 328.2342 108.529 L 329.4686 109.3065 L 330.5034 110.1069 L 332.2305 111.675 L 332.8725 112.3108 L 334.6091 114.0377 L 335.2419 114.6659 L 336.9823 116.4026 L 337.611 117.0228 L 339.3552 118.7654 L 339.9762 119.3836 L 341.6591 121.1722 L 342.3799 122.026 L 343.4342 123.5311 L 344.4941 125.9186 L 344.7395 126.9278 L 345.0919 128.4367 L 345.5807 130.6577 L 346.1214 133.0284 L 346.6388 135.4311 L 347.0106 137.1218 L 347.2137 138.0697 L 347.6701 140.1798 L 348.1647 142.4412 L 348.732 144.8557 L 349.0634 147.2203 L 348.6649 149.5815 L 348.0881 152.0055 L 347.5185 154.6265 L 347.1104 156.5107 L 346.907 157.4395 L 346.5565 159.046 L 346.0505 161.3859 L 345.4752 163.9131 L 344.9292 166.3718 L 344.6435 167.5722 L 344.3771 168.5048 L 343.2673 170.8447 L 342.1959 172.3133 L 341.477 173.1384 L 339.8074 174.8866 L 339.1864 175.5011 L 337.4403 177.2455 L 336.8135 177.8661 L 335.0712 179.6044 L 334.4388 180.2288 L 332.7002 181.9599 L 332.0598 182.5858 L 330.2813 184.1695 L 329.1676 184.9927 L 327.9023 185.7337 L 325.5314 186.4941 L 323.1642 186.7965 L 320.9677 187.0606 L 319.9901 187.1466 L 318.3686 187.3611 L 316.0608 187.4609 L 313.6994 187.5642 L 311.2362 187.8514 L 308.8001 188.8164 L 307.5329 189.6225 L 306.6147 190.0362 L 303.9641 191.1086 L 302.4553 191.7978 L 301.568 192.0869 L 299.4885 192.6976 L 297.119 193.4847 L 294.6982 193.9959 L 293.0923 194.3041 L 291.9938 194.4553 L 290.7499 194.6317 L 289.8469 194.7235 L 287.4969 194.8729 L 285.036 194.8557 L 284.237 194.7742 L 284.237 166.0964 C 287.6794 168.2404 291.745 169.4793 296.1006 169.4793 C 308.5007 169.4793 318.5533 159.4372 318.5533 147.05 C 318.5533 134.6628 308.5007 124.6207 296.1006 124.6207 C 291.745 124.6207 287.6794 125.8596 284.237 128.0036 Z" id="room-172" stroke="currentColor" name="Briefing Room"/>
</svg>