<svg viewBox="0 0 1000 772" version="1.1" xmlns="http://www.w3.org/2000/svg" xmlns:xlink="http://www.w3.org/1999/xlink" xml:space="preserve" style="fill-rule:evenodd;clip-rule:evenodd;stroke-miterlimit:1.41421;">
  <path d="M860.851,501.118L863.431,499.789L866.673,498.039L870.438,494.454L873.541,492.17L876.462,487.272L877.605,484.86L880.644,478.911L883.581,474.616L885.477,471.681L887.24,470.155L889.9,467.743L892.452,465.086L896.955,461.671L899.112,460.188L901.062,458.79L904.672,456.138L907.033,453.684L909.847,449.506L912.453,445.317L913.628,443.172L914.883,440.782L915.952,438.722L917.351,435.766L919.065,432.133L920.224,429.23L921.682,425.543L922.542,422.854L923.765,418.953L924.23,416.312L924.844,412.364L925.544,407.081L925.869,404.595L926.532,399.537L927.295,393.614L927.578,391.298L927.958,387.942L927.958,384.058L927.578,380.696L927.295,378.381L926.825,374.715L925.869,367.405L925.538,364.913L925.015,360.922L924.251,355.848L923.765,353.047L922.847,350.005L921.682,346.452L920.224,342.77L919.343,340.556L917.388,336.303L915.952,333.272L914.883,331.213L913.628,328.822L912.453,326.683L910.477,323.428L908.277,320.088L904.672,315.857L901.457,313.498L899.112,311.812L896.955,310.324L893.836,307.997L889.9,304.251L887.24,301.84L885.477,300.319L883.581,297.384L881.728,294.807L878.641,289.141L876.462,284.723L874.897,281.399L870.438,277.541L867.452,274.857L863.431,272.211L860.851,270.877L858.491,269.857L855.179,268.246L850.255,266.085L847.66,265.071L845.304,264.292L841.064,262.974L838.794,262.137L834.836,260.771L831.002,259.592L827.867,258.738L823.738,257.863L821.271,257.351L818.777,256.945L814.675,256.294L811.3,255.755L808.079,255.243L801.564,254.181L797.387,253.509L794.882,253.103L792.367,252.554L788.287,251.561L785.792,251.236L781.691,250.734L779.197,250.398L775.09,249.961L772.601,249.598L768.494,249.208L766.005,249.075L761.898,248.979L759.404,248.893L755.302,248.835L752.808,248.813L748.701,248.824L746.212,248.872L742.105,248.963L739.616,249.021L735.509,249.118L733.015,249.171L728.914,249.262L726.419,249.32L722.318,249.422L719.824,249.486L715.717,249.587L713.228,249.651L709.121,249.758L706.627,249.779L702.525,249.811L700.031,249.683L695.929,249.363L693.435,249.208L689.328,248.824L686.839,248.669L682.732,248.285L680.42,248.082L676.27,247.592L672.579,247.085L669.54,246.684L665.396,246.167L662.945,245.825L660.451,245.495L656.343,244.982L653.855,244.588L649.748,243.963L647.254,243.526L643.152,242.907L640.658,242.587L636.556,242.096L634.03,241.765L631.712,241.541L628.16,241.162L625.292,240.853L620.87,240.287L616.763,239.86L614.269,239.583L610.167,239.182L607.673,238.91L603.572,238.526L601.077,238.275L596.97,237.929L594.482,237.683L590.375,237.347L587.907,237.069L585.483,236.867L580.825,236.093L577.183,235.383L574.534,235.186L570.582,234.828L565.06,234.407L558.506,233.975L554.944,233.452L550.794,232.726L548.3,232.358L544.193,231.675L541.704,231.275L537.597,230.512L535.109,229.973L531.002,228.89L528.507,228.559L524.406,227.935L521.297,227.545L517.81,226.996L515.316,226.681L511.209,226.062L508.72,225.688L504.613,224.931L502.124,224.648L498.017,224.109L495.523,223.762L491.421,223.165L488.58,222.428L484.82,221.575L482.289,220.79L478.224,219.712L475.736,217.813L471.629,214.921L468.328,211.442L466.224,209.249L462.907,205.786L458.725,201.454L455.457,198.092L452.3,194.864L448.957,191.454L445.806,188.274L442.719,185.254L438.949,181.685L437.042,179.908L435.023,178.153L432.048,175.207L429.218,171.654L426.617,168.5L429.544,167.887L432.048,167.486L434.537,167.385L438.644,167.289L441.138,167.198L445.24,167.124L447.734,166.75L451.836,166.387L454.33,165.699L458.437,164.706L460.733,162.791L463.431,159.856L465.033,157.701L466.395,155.321L466.496,152.402L466.63,148.731L466.09,145.599L465.497,142.136L465.033,139.821L464.338,137.169L463.233,132.938L462.352,128.957L461.871,126.658L461.412,124.331L460.13,119.118L459.249,115.773L458.437,111.958L457.684,109.183L457.08,106.771L456.06,102.593L455.158,98.2182L453.668,92.9038L452.535,89.4142L451.836,86.3249L451.109,83.8811L450.239,81.0158L449.368,78.3853L446.997,74.3675L445.24,72.5054L441.069,69.6401L438.644,68.5142L436.257,67.335L432.048,65.4302L429.111,64.3524L425.447,63.2105L422.665,62.4902L418.851,61.7432L416.363,61.2203L412.256,60.4306L409.761,59.9131L405.66,59.0593L403.518,58.0776L400.015,56.4555L399.833,53.9691L399.571,49.8659L399.865,47.3794L400.501,43.2763L400.655,38.965L400.057,33.8641L399.288,30.7427L397.045,25.4017L394.316,21.784L392.463,19.7191L390.033,19.3456L385.867,18.8921L341.667,18.8921L335.936,19.479L333.09,19.7938L330.088,21.4639L326.494,23.166L323.135,25.7911L319.898,28.3896L316.843,31.6551L313.302,35.5502L310.648,39.1731L307.796,43.2763L305.398,46.8139L303.278,49.8659L301.291,52.4057L297.558,54.9989L294.321,56.4555L291.176,56.9251L286.914,57.2399L284.42,57.3892L280.312,57.5973L277.824,57.7574L273.717,57.9975L271.228,58.1736L267.121,58.4511L264.627,58.6432L260.525,58.9473L258.031,59.1447L253.929,59.4702L251.435,59.6676L247.328,59.9931L244.839,60.1905L240.732,60.516L238.238,60.7507L234.136,61.1136L231.642,61.3857L227.541,61.7859L225.057,62.1007L220.939,62.5115L218.226,62.757L215.663,63.0505L212.111,63.6694L207.748,64.4964L205.254,64.95L201.152,65.5903L198.722,66.0705L196.313,66.412L191.352,67.6498L187.955,68.6263L183.415,69.6401L180.467,70.6005L176.606,71.769L172.339,72.9856L168.168,74.1061L165.983,75.0025L163.083,76.2297L159.313,80.653L157.246,82.8193L154.971,85.1883L153.609,87.2586L152.103,89.4142L150.799,91.8367L148.375,94.6966L145.891,98.3675L142.409,102.593L139.312,106.947L137.619,109.183L135.183,112.112L132.716,115.773L131.402,118.227L128.582,122.037L125.757,126.412L123.893,128.957L121.986,131.369L119.273,135.547L118.045,137.686L115.39,141.56L113.617,145.183L111.801,148.731L111.865,153.005L111.919,155.321L114.114,158.085L116.555,160.646L119.529,162.77L121.986,164.2L124.405,164.557L128.582,165.005L131.076,165.272L135.183,165.619L137.672,165.843L141.779,166.094L144.268,166.398L148.375,166.702L150.869,166.798L154.971,166.9L157.465,166.964L161.566,167.028L164.061,167.049L168.168,167.07L170.656,167.06L174.763,167.033L177.258,167.001L181.359,166.937L183.853,166.889L187.955,166.787L190.449,166.729L194.556,166.595L197.045,166.526L201.152,166.366L203.641,166.11L207.748,165.518L210.242,165.389L214.344,165.096L216.838,164.968L220.939,164.691L223.434,164.541L227.541,164.232L230.029,164.093L234.136,163.778L236.625,164.141L240.732,163.912L244.017,166.281L244.78,168.5L244.412,171.029L243.59,175.09L242.425,178.345L241.341,181.685L240.732,184.15L240.209,186.636L239.338,190.814L238.457,194.864L237.928,197.356L236.983,201.454L236.337,203.945L235.124,208.049L234.457,211.154L233.965,213.646L233.261,217.125L232.342,221.228L231.819,223.72L230.932,227.817L230.254,230.309L229.127,234.407L228.139,237.752L227.391,240.244L226.286,243.488L224.828,247.592L223.268,250.275L220.939,253.685L216.127,255.27L211.273,256.39L207.748,256.737L203.491,257.025L201.152,257.19L198.412,257.372L194.556,257.628L191.581,257.831L187.955,258.076L184.703,258.306L181.359,258.535L178.331,258.748L174.763,258.999L172.408,259.565L168.889,260.403L166.047,260.771L162.159,261.326L156.13,261.966L153.534,262.206L150.159,262.553L146.222,262.926L141.779,263.359L138.922,263.625L135.183,263.978L132.748,264.196L128.582,264.554L125.714,264.863L121.986,265.242L119.663,265.722L116.822,266.352L114.317,266.763L108.821,267.344L103.416,268.582L100.356,269.201L97.9635,269.729L95.5976,270.188L92.4411,270.797L89.0017,271.426L84.0989,272.264L81.2203,272.771L76.2266,273.539L74.0424,278.784L75.0143,281.34L77.3215,282.06L80.3177,282.631L85.4127,283.549L89.0017,284.184L91.5386,284.6L95.5976,285.294L101.366,286.307L106.049,287.135L108.485,287.305L114.344,287.78L116.709,288.116L119.818,288.746L124.518,289.311L128.582,289.568L131.423,289.749L135.183,289.989L137.944,290.197L141.779,290.496L144.124,291.382L146.505,293.724L143.67,294.701L140.054,297.166L137.763,300.319L135.183,302.032L132.523,303.787L128.582,306.391L125.714,308.312L121.986,310.793L120.031,312.597L117.537,315.142L115.39,317.537L113.676,320.088L112.634,322.58L111.091,326.683L111.054,329.169L111.022,333.272L111.022,438.722L111.054,441.214L111.091,445.317L112.127,447.804L113.671,451.907L115.39,454.457L117.537,456.858L120.031,459.398L121.986,461.207L124.56,462.92L127.818,465.086L130.772,467.06L135.183,469.963L137.763,471.681L139.669,474.354L141.779,476.328L146.5,478.271L144.124,480.613L141.779,481.504L139.285,481.712L135.183,482.011L132.283,482.192L128.582,482.427L125.944,482.592L121.986,482.849L116.709,483.878L114.344,484.215L109.142,484.647L106.076,484.86L102.786,485.447L97.1784,486.44L93.3758,487.08L89.0017,487.816L85.9094,488.36L82.4059,488.979L77.3215,489.94L75.0143,490.66L74.0424,493.216L74.8327,497.068L81.2203,499.224L84.0989,499.736L86.8654,500.179L92.11,501.145L95.5976,501.812L97.9635,502.271L100.361,502.799L103.411,503.418L108.613,504.634L114.312,505.232L116.827,505.648L119.663,506.278L121.986,506.758L124.763,507.051L128.582,507.446L131.445,507.692L135.183,508.017L138.115,508.289L141.779,508.641L144.14,508.86L148.375,509.276L153.539,509.789L156.124,510.034L161.096,510.557L166.031,511.224L168.894,511.597L172.403,512.435L174.763,513.001L177.733,513.209L181.359,513.465L184.612,513.689L187.955,513.918L190.93,514.121L194.556,514.367L197.291,514.553L201.152,514.81L203.491,514.97L205.857,515.124L210.648,515.551L214.344,515.93L219.011,517.814L222.355,520.583L224.828,524.403L225.682,526.895L227.14,530.998L228.139,534.242L229.121,537.588L229.8,540.074L230.932,544.177L231.455,546.669L232.342,550.767L232.865,553.259L233.789,557.357L234.457,560.841L235.124,563.951L235.776,566.438L236.983,570.541L237.517,573.033L238.457,577.131L239.173,580.444L239.872,583.72L240.732,587.845L241.341,590.315L242.388,593.565L243.59,596.905L243.958,599.429L244.78,603.494L244.017,605.714L240.732,608.089L236.844,607.886L234.136,608.217L231.642,608.078L227.541,607.763L225.046,607.614L220.939,607.304L218.451,607.176L214.344,606.904L211.855,606.776L207.748,606.482L205.254,606.221L201.152,605.634L198.658,605.565L194.556,605.399L192.062,605.341L187.955,605.213L185.466,605.165L181.359,605.063L178.865,605.036L174.763,604.967L172.269,604.956L168.168,604.924L165.673,604.951L161.566,604.972L159.078,605.036L154.971,605.101L152.482,605.202L148.375,605.298L145.881,605.602L141.779,605.906L139.285,606.13L135.183,606.381L132.689,606.648L128.582,606.995L124.405,607.438L121.986,607.8L119.529,609.23L116.555,611.354L114.114,613.91L111.919,616.679L111.865,618.989L111.839,621.396L112.837,625.323L115.059,629.858L117.585,633.535L119.268,636.448L120.897,638.929L123.145,642.029L125.757,645.588L127.594,648.459L131.001,653.101L132.716,656.222L134.211,658.426L136.7,661.371L139.312,665.053L141.779,668.702L145.144,672.491L147.558,675.996L150.794,680.158L152.097,682.586L153.609,684.736L154.971,686.806L157.24,689.175L159.313,691.347L161.566,694.404L165.978,696.998L168.168,697.894L171.313,698.726L174.763,699.66L180.473,701.4L183.405,702.355L186.107,702.974L191.159,704.297L194.556,705.263L198.722,705.93L201.152,706.404L203.641,706.858L207.748,707.498L210.205,708.08L214.344,708.736L218.221,709.243L220.939,709.488L225.057,709.894L227.541,710.209L230.029,710.486L234.136,710.886L236.631,711.121L240.732,711.484L243.226,711.681L247.328,712.007L249.822,712.204L253.929,712.53L256.418,712.727L260.525,713.047L263.014,713.239L267.121,713.549L269.615,713.725L273.717,713.997L276.211,714.157L280.312,714.397L282.807,714.547L286.914,714.76L289.306,714.963L293.509,715.294L296.26,716.372L300.105,718.122L302.092,720.661L304.581,723.986L306.701,727.038L309.601,731.21L312.453,735.313L315.556,738.691L318.36,741.903L321.954,745.115L326.104,748.493L328.326,749.736L333.09,752.201L335.76,752.484L339.691,753.108L383.891,753.108L388.153,752.798L392.463,752.281L394.316,750.216L397.045,746.598L399.064,742.218L400.057,738.136L400.527,735.313L400.436,730.853L400.207,726.232L399.571,722.129L399.753,719.637L400.015,715.539L402.156,714.552L405.66,712.935L408.148,712.418L412.256,711.569L414.75,711.046L418.851,710.251L421.527,709.697L424.977,708.95L428.337,707.813L432.048,706.57L434.42,705.423L438.644,703.486L441.074,702.355L443.526,700.642L446.997,697.627L448.749,695.765L449.529,693.049L450.821,689.175L451.836,685.68L452.535,682.586L453.395,679.945L454.704,675.996L455.612,671.514L456.642,666.995L457.684,662.812L458.437,660.042L459.254,656.222L460.087,653.058L461.011,649.632L461.871,645.337L462.352,643.037L463.067,639.841L463.836,636.448L465.033,632.179L465.497,629.858L465.978,627.068L466.63,623.269L466.528,620.35L466.395,616.679L465.033,614.299L463.431,612.144L461.791,610.084L459.494,608.174L455.943,606.6L451.836,605.613L449.347,605.239L445.24,604.876L442.746,604.786L438.644,604.706L436.15,604.61L432.048,604.514L429.544,604.108L426.617,603.494L428.31,601.462L431.925,596.905L435.023,593.842L437.037,592.097L438.799,590.475L441.218,588.144L445.24,584.334L448.738,580.764L451.836,577.638L455.302,574.057L458.437,570.861L461.438,567.718L465.033,564.01L467.206,561.705L471.356,557.357L474.123,555.185L478.224,552.288L480.697,551.626L483.816,550.767L487.053,549.871L491.421,548.83L493.91,548.489L498.017,547.891L500.511,547.614L504.613,547.069L507.107,546.696L511.209,545.938L513.703,545.618L517.81,544.999L521.308,544.455L523.802,544.129L526.895,543.734L531.002,543.11L533.496,542.571L537.597,541.488L540.092,541.088L544.193,540.325L546.687,539.951L550.794,539.274L553.256,538.842L557.39,538.116L563.724,537.689L569.209,537.252L572.558,537.006L577.183,536.611L580.136,536.067L583.779,535.315L587.913,534.931L590.375,534.653L592.869,534.408L596.97,534.071L599.465,533.821L603.572,533.469L606.06,533.202L610.167,532.818L612.656,532.54L616.763,532.135L619.257,531.846L623.359,531.425L626.382,530.998L629.955,530.678L634.03,530.235L636.556,529.899L639.045,529.579L643.152,529.093L645.646,528.65L649.748,528.031L652.242,527.637L656.343,527.012L658.838,526.681L662.945,526.169L665.396,525.833L667.751,525.556L672.585,524.915L675.506,524.51L680.131,523.955L682.732,523.71L685.226,523.549L689.328,523.171L691.822,523.016L695.929,522.632L698.418,522.504L702.525,522.183L705.019,522.21L709.121,522.242L711.615,522.306L715.717,522.408L718.211,522.472L722.318,522.578L724.806,522.637L728.914,522.738L731.402,522.792L735.509,522.877L738.003,522.936L742.105,523.032L744.599,523.085L748.701,523.176L751.195,523.155L755.302,523.165L757.791,523.075L761.898,523.021L764.392,522.888L768.494,522.792L770.988,522.429L775.09,522.039L777.584,521.703L781.691,521.266L784.179,520.94L788.287,520.439L792.367,519.446L794.882,518.897L797.392,518.491L801.345,517.851L806.194,517.061L810.691,516.341L814.675,515.701L817.164,515.3L821.271,514.649L823.738,514.137L826.152,513.62L831.002,512.408L834.463,511.325L838.799,509.863L841.064,509.026L845.304,507.702L847.66,506.929L850.255,505.915L853.486,504.634L858.181,502.265L860.851,501.118Z" stroke="currentColor" stroke-width="3" id="voyager-deck-5" />
  <path d="M315.57,435.728L315.654,435.728L315.654,435.771L315.668,435.771L315.668,460.935L315.654,460.935L315.654,497.732C362.093,497.39 477.64,496.301 579.835,493.417C561.123,422.73 559.952,351.092 579.798,278.314C477.551,275.429 361.948,274.34 315.57,273.999L315.57,435.728ZM613.827,492.369C673.244,490.369 724.352,487.667 748.844,484.031C750.498,483.785 753.365,483.45 753.565,482.786C756.582,472.813 760.436,455.927 765.467,443.037C742.38,438.212 724.309,419.749 720.081,396.469L720.081,375.531C724.315,352.218 742.431,333.736 765.564,328.943C760.485,316.021 756.601,298.983 753.565,288.946C753.365,288.282 750.498,287.947 748.844,287.701C724.342,284.063 673.202,281.361 613.753,279.36C591.129,350.313 592.089,421.321 613.827,492.369ZM345.853,518.232L345.853,688.946L324.895,688.946L324.895,518.49C321.57,518.529 318.484,518.564 315.654,518.595L315.654,518.806L294.696,518.806L294.696,460.935L294.612,435.771L294.612,396.469L161.276,396.469L161.276,375.531L294.612,375.531L294.612,260.734L294.696,260.734L294.696,252.927C294.696,252.927 305.919,253.021 324.895,253.242L324.895,82.7855L345.853,82.7855L345.853,253.5C450.919,254.861 686.397,258.916 748.844,268.449C753.256,269.122 766.659,269.738 767.73,272.6C773.905,289.101 777.536,327.803 781.37,327.223L781.37,327.856C811.764,329.861 835.797,355.126 835.797,386C835.797,416.874 811.764,442.139 781.37,444.144L781.37,444.509C777.536,443.929 773.905,482.631 767.73,499.132C766.659,501.994 753.256,502.61 748.844,503.283C686.396,512.817 450.918,516.871 345.853,518.232Z" stroke="currentColor" stroke-width="2" id="hallway"/>
  <path d="M152.13,473.932L152.518,473.549L148.039,471.706L146.037,469.833L144.228,467.297L141.78,465.667L137.595,462.912L134.792,461.039L131.701,458.984L129.259,457.359L127.404,455.642L125.038,453.233L123,450.954L121.369,448.534L119.904,444.641L118.921,442.282L118.886,438.389L118.855,436.024L118.855,335.97L118.886,332.077L118.921,329.718L120.386,325.825L121.374,323.461L123,321.041L125.038,318.767L127.404,316.353L129.259,314.641L132.796,312.287L135.517,310.465L139.257,307.994L141.78,306.328L144.228,304.703L146.402,301.711L149.833,299.372L152.523,298.446L152.14,298.068L161.276,298.068L161.276,473.932L152.13,473.932Z" id="room-44" stroke="currentColor" name="Upper Aft Sensors"/>
<path d="M768.52,274.868L791.584,257.076L794.014,257.607L796.434,257.999L800.469,258.648L806.764,259.674L809.875,260.169L813.136,260.69L817.099,261.319L819.508,261.71L821.892,262.205L825.881,263.051L828.909,263.875L832.614,265.015L836.437,266.334L838.63,267.144L842.727,268.417L845.003,269.169L847.51,270.149L852.268,272.237L855.467,273.793L857.747,274.778L860.239,276.067L864.125,278.624L867.009,281.216L871.317,284.943L872.829,288.155L874.934,292.423L877.917,297.898L879.707,300.388L881.539,303.223L883.242,304.692L885.811,307.022L889.614,310.641L892.627,312.888L894.712,314.326L896.977,315.955L900.083,318.234L903.566,322.322L905.692,325.549L907.601,328.693L908.736,330.76L909.948,333.07L910.98,335.059L912.368,337.987L914.257,342.096L915.108,344.235L916.517,347.792L917.642,351.225L918.529,354.163L918.999,356.87L919.736,361.772L920.242,365.628L920.562,368.035L921.486,375.097L921.94,378.639L922.213,380.876L922.579,384.124L922.579,387.876L922.213,391.119L921.94,393.356L921.202,399.078L920.562,403.965L920.247,406.367L919.571,411.47L918.978,415.285L918.529,417.837L917.348,421.605L916.517,424.203L915.108,427.765L913.989,430.569L912.332,434.08L910.98,436.936L909.948,438.925L908.736,441.235L907.601,443.307L905.083,447.354L902.364,451.39L900.083,453.761L896.595,456.323L894.712,457.674L892.627,459.107L888.277,462.406L885.811,464.973L883.242,467.303L881.539,468.777L879.707,471.613L876.869,475.762L873.933,481.51L872.829,483.84L870.007,488.572L867.009,490.778L863.371,494.242L860.239,495.933L857.747,497.217L855.167,498.325L850.632,500.614L847.51,501.851L845.003,502.831L842.727,503.578L838.63,504.856L836.443,505.666L832.253,507.078L828.909,508.125L824.224,509.295L821.892,509.795L819.508,510.29L815.54,510.919L813.136,511.305L809.287,511.924L804.942,512.62L800.257,513.383L796.439,514.001L794.014,514.393L768.52,496.864C774.221,479.346 777.703,443.954 781.37,444.509L781.37,444.144C811.764,442.139 835.797,416.874 835.797,386C835.797,355.126 811.764,329.861 781.37,327.856L781.37,327.223C777.703,327.778 774.221,292.386 768.52,274.868Z" id="room-45" stroke="currentColor" name="Cultural Studies Center"/>
<path d="M613.456,491.817C591.662,420.407 591.662,349.773 613.456,279.914C675.164,281.852 726.232,284.389 748.541,287.701C750.195,287.947 753.062,288.282 753.262,288.946C756.298,298.983 760.182,316.021 765.261,328.943C742.127,333.736 724.012,352.218 719.778,375.531C718.745,381.037 718.745,388.017 719.778,396.469C724.006,419.749 742.077,438.212 765.164,443.037C760.133,455.927 756.279,472.813 753.262,482.786C753.062,483.45 750.195,483.785 748.541,484.031C726.233,487.343 675.165,489.88 613.456,491.817Z" id="room-46" stroke="currentColor" name="Sickbay"/>
<path d="M444.51,496.266C389.514,497.114 341.708,497.541 315.654,497.732L315.654,460.935L315.668,460.935L315.668,435.771L315.654,435.771L315.654,435.728L315.57,435.728L315.57,273.999C341.604,274.191 389.454,274.618 444.51,275.466L444.51,496.266Z" id="room-47" stroke="currentColor" name="Briefing Room"/>
<path d="M93.4603,494.542L161.276,480.7L161.276,508.384L93.4603,494.542Z" id="room-48" stroke="currentColor" name="Upper Aft Laser Battery"/>
<path d="M93.4603,277.492L161.276,263.651L161.276,291.334L93.4603,277.492Z" id="room-49" stroke="currentColor" name="Morgue"/>
<path d="M749.092,437.09C754.054,439.817 759.455,441.844 765.164,443.037C760.133,455.927 756.279,472.813 753.262,482.786C753.062,483.45 750.195,483.785 748.541,484.031C726.233,487.343 675.165,489.88 613.456,491.817C607.873,473.524 603.72,455.282 600.997,437.09L749.092,437.09Z" id="room-50" stroke="currentColor" name="Officer's Quarters"/>
<path d="M257.798,518.806h66.6082v98.4955h-66v-98Z" id="room-51" stroke="currentColor" name="Officer's Quarters"/>
<path d="M324.406,617.301L324.406,683.847L225.818,683.847L225.818,617.301L324.406,617.301Z" id="room-52" stroke="currentColor" name="Officer's Quarters"/>
<path d="M346.736,518.806h66.6082v98.4955h-66v-98Z" id="room-53" stroke="currentColor" name="Officer's Quarters"/>
<path d="M346.736,617.301L413.344,617.301L413.344,704.498L394.435,715.796L346.736,715.796L346.736,617.301Z" id="room-54" stroke="currentColor" name="Officer's Quarters"/>
<path d="M257.798,154.574h66.6082v98.4955h-66v-98Z" id="room-55" stroke="currentColor" name="Officer's Quarters"/>
<path d="M324.406,154.574L324.406,88.0287L225.818,88.0287L225.818,154.574L324.406,154.574Z" id="room-56" stroke="currentColor" name="Officer's Quarters"/>
<path d="M346.736,154.574h66.6082v98.4955h-66v-98Z" id="room-57" stroke="currentColor" name="Officer's Quarters"/>
<path d="M346.736,154.574L413.344,154.574L413.344,67.3774L394.435,56.0788L346.736,56.0788L346.736,154.574Z" id="room-58" stroke="currentColor" name="Officer's Quarters"/>
<path d="M227.884,396.558h66.6082v98.4955h-66v-98Z" id="room-59" stroke="currentColor" name="Officer's Quarters"/>
<path d="M161.276,396.558h66.6082v98.4955h-66v-98Z" id="room-60" stroke="currentColor" name="Officer's Quarters"/>
<path d="M512.173,495.054L512.173,398.947L565.598,398.947C566.703,430.634 571.55,462.119 579.835,493.417C557.629,494.044 534.793,494.586 512.173,495.054Z" id="room-61" stroke="currentColor" name="Refridgeration Units"/>
<path d="M512.173,495.054C489.095,495.531 466.241,495.931 444.51,496.266L444.51,275.466C487.529,276.129 534.949,277.048 579.798,278.314C568.79,318.683 564.248,358.701 565.579,398.401L565.598,398.947L512.173,398.947L512.173,495.054Z" id="room-62" stroke="currentColor" name="Kitchen"/>
<path d="M444.51,496.266C444.51,496.266 342.11,497.538 315.654,497.732L315.654,460.935L315.668,460.935L315.668,435.771L315.654,435.771L315.654,435.728L315.57,435.728L315.57,273.999C341.961,274.193 444.51,275.466 444.51,275.466L444.51,496.266Z" id="room-63" stroke="currentColor" name="Messroom"/>
<path d="M161.276,277.492h133.216v97.4597h-133v-97Z" id="room-64" stroke="currentColor" name="Officer's Messroom"/>
</svg>