<svg viewBox="0 0 381 294.1" version="1.1" xmlns="http://www.w3.org/2000/svg" xmlns:xlink="http://www.w3.org/1999/xlink" xml:space="preserve" style="fill-rule:evenodd;clip-rule:evenodd;stroke-miterlimit:1.41421;">
  <path d="M 339.7282 178.0871 L 340.6197 177.2231 L 341.4152 176.516 L 342.29 175.6539 L 343.2486 174.7129 L 343.9283 174.0036 L 344.4937 173.3182 L 345.4176 172.2024 L 345.9225 171.314 L 346.441 170.3609 L 347.0415 168.4888 L 347.3406 167.1798 L 347.5806 166.1208 L 347.9124 164.6693 L 348.2176 163.3459 L 348.4923 162.1588 L 348.9564 160.1161 L 349.18 159.0997 L 349.3854 158.1808 L 349.6155 157.1363 L 349.8171 156.2399 L 350.1771 154.6257 L 350.4152 153.5667 L 350.7429 152.1156 L 350.9627 151.1499 L 351.3228 149.6051 L 351.6565 147.7411 L 351.6565 146.4443 L 351.4691 145.3772 L 351.0968 143.6088 L 350.7429 142.072 L 350.5048 141.0129 L 350.1771 139.5615 L 349.9634 138.6 L 349.6155 137.0491 L 349.3835 136.0064 L 349.18 135.0856 L 348.9564 134.0711 L 348.6489 132.7298 L 348.2237 130.8676 L 347.9124 129.5179 L 347.6701 128.4592 L 347.3406 127.0078 L 347.0415 125.6988 L 346.7687 124.4953 L 345.9792 122.9768 L 345.4176 121.9848 L 344.4979 120.8732 L 343.9283 120.184 L 343.2463 119.4747 L 342.3575 118.5985 L 341.4152 117.6716 L 340.6197 116.9642 L 339.7731 116.1409 L 338.9022 115.2914 L 337.8929 114.4518 L 337.1298 113.7058 L 336.3872 112.9759 L 335.1764 111.9416 L 334.5089 111.2989 L 333.8741 110.6833 L 333.2108 110.0997 L 332.5859 109.4311 L 331.361 108.5019 L 330.5472 107.7621 L 329.4118 106.9206 L 328.1012 106.4939 L 326.3353 106.0973 L 325.2932 105.7274 L 323.8199 105.4611 L 322.7455 105.1259 L 321.5941 104.5994 L 319.7748 103.7579 L 318.7941 103.2881 L 317.8969 102.8718 L 316.2811 102.1236 L 314.7712 101.4794 L 313.7661 101.1072 L 312.7058 100.7719 L 311.253 100.2839 L 310.142 99.9243 L 308.7399 99.4405 L 307.6411 99.2412 L 306.2268 99.0035 L 305.1646 98.8732 L 303.7119 98.658 L 302.6519 98.5624 L 301.1988 98.4039 L 300.1388 98.3326 L 298.6861 98.2126 L 297.6258 98.1761 L 296.173 98.1109 L 295.1127 98.1071 L 293.6599 98.0888 L 292.5977 98.1231 L 291.145 98.1597 L 290.0846 98.2084 L 288.6319 98.2698 L 287.5716 98.3003 L 286.1188 98.349 L 285.0589 98.3326 L 283.6057 98.3734 L 282.5435 98.4443 L 281.0908 98.5685 L 280.0308 98.5867 L 278.5777 98.6275 L 277.5177 98.6252 L 276.065 98.6355 L 275.0047 98.6069 L 273.5519 98.5765 L 272.4916 98.5357 L 271.0388 98.485 L 269.9766 98.4405 L 268.5238 98.3814 L 267.4635 98.3345 L 266.0108 98.2717 L 264.9504 98.3307 L 263.4977 98.3734 L 262.4519 98.6458 L 260.9846 98.9365 L 260.1361 99.2248 L 259.1779 99.6294 L 257.436 100.5727 L 255.9566 101.3837 L 255.1123 101.898 L 254.3796 102.4039 L 253.4435 103.0504 L 252.4529 103.7354 L 251.4779 104.4105 L 249.8137 105.1788 L 248.4177 105.6585 L 247.3555 105.6688 L 245.9027 105.6829 L 244.8424 105.6501 L 243.3897 105.6055 L 242.3293 105.3903 L 240.8766 105.1217 L 240.0281 104.8006 L 238.9129 104.4105 L 237.2464 103.7803 L 235.8485 103.268 L 234.4243 102.7518 L 233.3354 102.3552 L 232.202 101.898 L 230.8224 101.3571 L 229.9964 101.0298 L 228.3097 100.3753 L 227.1762 99.9567 L 225.7943 99.469 L 224.9702 99.1353 L 223.2816 98.4648 L 222.2213 98.0663 L 220.7685 97.5277 L 219.9159 97.1924 L 218.683 96.7086 L 217.3662 96.1859 L 215.7424 95.5558 L 214.3834 95.0396 L 213.2274 94.6046 L 211.8905 94.0762 L 210.7143 93.6148 L 209.6544 93.2 L 208.2013 92.6331 L 207.2472 92.2567 L 206.2216 91.8544 L 204.7441 91.2689 L 203.1732 90.6594 L 201.7205 90.086 L 200.6605 89.6674 L 199.8402 89.3439 L 198.1474 88.6833 L 197.0871 88.2605 L 195.6344 87.6814 L 194.6209 87.281 L 193.4813 86.8338 L 192.1364 86.3012 L 190.6063 85.6993 L 189.1535 85.1263 L 188.0932 84.7054 L 187.1247 84.3233 L 185.5801 83.7156 L 184.5202 83.2947 L 183.0675 82.7194 L 182.0029 82.2966 L 180.7803 81.8131 L 179.5348 81.3068 L 178.0394 80.6992 L 176.5764 80.0546 L 175.5263 79.5933 L 174.1936 78.9304 L 173.0132 78.3453 L 171.5483 77.6154 L 170.5002 77.0931 L 169.1594 76.4283 L 167.9852 75.8469 L 166.5241 75.1235 L 165.4721 74.6008 L 164.1253 73.9322 L 162.959 73.3551 L 161.5002 72.6332 L 160.4463 72.1109 L 159.0888 71.4381 L 157.931 70.869 L 156.871 70.3505 L 155.4183 69.6434 L 153.9632 68.9196 L 152.9052 68.3931 L 151.5603 67.5619 L 150.3921 66.8342 L 149.6819 65.9195 L 148.345 64.2365 L 147.8791 63.3888 L 147.1689 62.3907 L 146.0823 60.7747 L 145.3641 59.7785 L 143.9418 58.364 L 142.851 57.1849 L 141.9598 56.703 L 140.9647 56.0527 L 139.1214 55.4085 L 137.8248 55.2398 L 136.8685 55.1483 L 135.3099 54.9712 L 134.781 54.1929 L 134.1154 53.0607 L 133.6335 51.6824 L 133.3991 50.6233 L 133.1408 49.1722 L 133.1043 47.9341 L 133.0635 46.6598 L 133.0593 45.7634 L 133.025 44.1493 L 132.9698 42.1919 L 132.9515 41.1572 L 132.8619 39.3317 L 132.62 37.1284 L 132.4367 35.9596 L 132.335 34.9473 L 131.6412 32.7032 L 131.1711 31.5954 L 130.2841 30.079 L 128.6641 29.0851 L 127.771 28.5058 L 125.4084 28.9326 L 123.0828 29.3818 L 120.926 29.8046 L 119.1677 30.1461 L 117.7168 30.4266 L 116.7361 30.6157 L 115.2037 30.9084 L 112.9311 31.3556 L 111.6795 31.5954 L 110.4119 31.878 L 108.3873 32.3191 L 106.5478 32.7093 L 105.1499 33.0041 L 104.2363 33.1931 L 102.6349 33.5204 L 100.2278 34.0022 L 98.5815 35.0774 L 97.6088 35.5653 L 97.1367 36.6162 L 96.6319 38.153 L 96.2802 39.1286 L 95.0957 41.139 L 94.5364 43.4297 L 94.168 45.2247 L 93.8544 46.6598 L 93.5576 47.8671 L 93.2421 49.1722 L 92.6154 51.6233 L 91.6446 53.2618 L 90.8369 54.1929 L 90.0676 55.0466 L 89.1521 55.1095 L 87.5546 55.2436 L 86.5007 55.2458 L 85.0419 55.2478 L 67.4465 55.2478 L 66.3641 55.274 L 64.9334 55.3167 L 63.9977 55.762 L 62.9599 55.9186 L 61.9811 56.4775 L 60.9128 57.3476 L 59.9077 57.9918 L 58.8557 59.2135 L 57.944 60.0916 L 57.0467 61.1507 L 55.5715 63.1549 L 54.8796 64.1203 L 54.0799 65.2384 L 52.9159 66.7466 L 51.1782 68.2529 L 49.8535 69.2529 L 48.8179 69.936 L 47.3404 70.9074 L 46.5369 71.4339 L 45.4765 72.1334 L 43.6576 73.3387 L 42.3123 74.2309 L 41.2585 74.9304 L 39.7996 75.898 L 38.9774 76.4428 L 37.9152 77.146 L 36.1246 78.335 L 34.7714 79.2337 L 33.7479 80.1015 L 32.2584 81.3964 L 31.1922 82.8718 L 30.2378 84.3233 L 30.1666 85.3823 L 30.1056 86.8338 L 30.6997 87.8929 L 31.534 89.3439 L 32.2584 90.2811 L 32.8689 90.9234 L 33.7601 91.8544 L 34.7714 92.8099 L 35.5345 93.4442 L 36.6251 94.3669 L 38.7374 96.0195 L 39.7996 96.8366 L 40.7944 97.5277 L 42.3123 98.6435 L 43.5517 99.3875 L 44.3431 99.9506 L 46.0138 100.9567 L 47.3404 101.778 L 48.179 102.2028 L 49.8535 103.1217 L 50.8932 103.5506 L 51.819 104.0344 L 53.9698 104.9491 L 54.8796 105.3739 L 55.9316 105.6402 L 57.3927 106.0608 L 59.6817 106.697 L 61.4176 106.9206 L 62.2924 107.0082 L 64.557 107.2581 L 66.936 107.508 L 68.1651 107.636 L 69.1416 107.74 L 70.9731 107.9309 L 72.4746 108.0875 L 73.6915 108.2155 L 74.9877 108.3518 L 75.9664 108.4532 L 77.5007 108.6139 L 79.3951 108.8132 L 80.5163 108.9309 L 82.203 109.1081 L 85.0114 109.4006 L 87.3065 109.6406 L 89.7423 109.8966 L 90.6273 109.99 L 91.8911 110.1222 L 93.4353 110.2829 L 95.0957 110.4574 L 96.2433 110.5774 L 97.6088 110.7199 L 98.7156 110.8357 L 100.1218 110.9839 L 101.8577 111.1648 L 103.2655 111.3134 L 104.6657 111.4597 L 105.5404 111.5511 L 107.4736 111.7523 L 109.2746 111.9416 L 110.1757 112.171 L 112.0052 112.6266 L 113.7917 113.043 L 115.2037 113.3683 L 116.0892 113.5676 L 117.031 113.7668 L 118.1546 114.0148 L 120.2177 114.4396 L 121.7562 115.4396 L 122.743 116.0781 L 124.1428 116.9642 L 125.256 118.2 L 125.8645 118.869 L 126.886 120.3589 L 127.7139 121.93 L 128.8839 123.3833 L 129.7324 124.4953 L 131.3421 125.9487 L 132.5099 127.0078 L 133.9954 128.3209 L 135.0496 129.2577 L 136.6449 130.6951 L 137.8248 131.7518 L 138.4638 133.8985 L 138.6958 135.411 L 138.9156 137.0491 L 139.2128 138.1733 L 139.5668 139.5615 L 140.3379 141.8404 L 141.034 143.8873 L 141.6707 145.7612 L 142.1225 147.0927 L 141.748 148.1944 L 141.2698 149.6051 L 140.456 151.9956 L 139.7622 154.0505 L 139.3005 155.6623 L 138.9176 157.1363 L 138.7876 158.0997 L 138.58 159.6464 L 138.2017 161.7809 L 136.6449 163.4926 L 135.3445 164.6693 L 133.9954 165.8667 L 132.7972 166.9277 L 131.344 168.2389 L 130.2841 169.194 L 128.8862 170.8039 L 127.771 172.17 L 126.886 173.8287 L 126.42 174.7129 L 125.256 175.9872 L 124.145 177.2231 L 123.2821 177.7617 L 121.7562 178.7496 L 120.2809 179.7336 L 118.1546 180.1728 L 117.0291 180.4204 L 116.0892 180.6197 L 115.2037 180.8212 L 114.0421 181.0852 L 112.6888 181.4026 L 110.4751 181.945 L 109.2826 182.246 L 107.8154 182.3984 L 105.5404 182.6361 L 104.6657 182.7279 L 103.2655 182.8742 L 101.8577 183.0224 L 100.1218 183.2033 L 99.0493 183.3173 L 97.6088 183.4677 L 96.4406 183.5896 L 95.0957 183.7298 L 94.1657 183.8274 L 92.5826 183.9942 L 90.6254 184.1996 L 89.7442 184.291 L 87.8255 184.4921 L 85.3063 184.7565 L 82.7913 185.0186 L 80.5163 185.2563 L 79.3951 185.3744 L 78.2414 185.4963 L 76.5871 185.6689 L 74.9877 185.8358 L 73.7791 185.9638 L 72.4746 186.0998 L 71.4165 186.2099 L 69.9615 186.3623 L 68.1628 186.5512 L 66.9379 186.6792 L 65.2756 186.8541 L 62.5629 187.1386 L 61.4256 187.2667 L 60.0624 187.4232 L 58.1212 187.9924 L 56.2508 188.5128 L 54.8796 188.8137 L 53.9698 189.2385 L 52.615 189.7772 L 51.8171 190.1551 L 50.993 190.5901 L 49.8535 191.066 L 48.9482 191.5821 L 47.5846 192.2873 L 46.6733 192.8077 L 44.8254 193.8972 L 44.036 194.4603 L 42.9757 195.1392 L 40.8984 196.5784 L 39.8728 197.3102 L 38.8369 198.0847 L 37.2865 199.3084 L 35.8641 200.457 L 34.7714 201.3796 L 33.7601 202.3309 L 33.1497 202.9755 L 32.2584 203.9062 L 31.5361 204.8433 L 30.9399 205.9024 L 30.1056 207.3538 L 30.1788 208.4129 L 30.2378 209.864 L 30.9521 210.923 L 31.9084 212.3745 L 33.4406 213.8054 L 34.688 214.885 L 35.7319 215.5921 L 37.2865 216.6229 L 38.4505 217.397 L 39.2723 217.9418 L 40.9758 219.0702 L 42.2373 219.9076 L 43.2831 220.6009 L 44.8254 221.623 L 46.024 222.4181 L 46.8279 222.9446 L 48.5573 224.0806 L 49.8432 224.9282 L 50.8486 225.6867 L 52.3665 226.8555 L 54.0654 228.9306 L 54.8145 229.9512 L 55.557 231.0163 L 56.6497 232.4613 L 57.3927 233.5531 L 58.304 234.4289 L 59.4863 235.7177 L 60.9128 236.84 L 61.7266 237.4823 L 62.4208 238.1124 L 63.9977 238.4252 L 64.9334 238.8705 L 66.0323 238.8968 L 67.4465 238.9395 L 85.0419 238.9395 L 86.0957 238.9418 L 87.5546 238.9437 L 88.5455 239.0046 L 90.0676 239.141 L 90.8369 239.9947 L 91.6446 240.9254 L 92.5826 242.4561 L 93.0265 244.2001 L 93.5248 246.1823 L 93.8544 247.5255 L 94.0518 248.42 L 94.3916 250.038 L 94.8454 252.2254 L 95.932 254.2967 L 96.6319 256.0346 L 97.1367 257.5691 L 97.6088 258.6221 L 98.5815 259.1101 L 99.9081 260.0796 L 102.1465 260.5696 L 103.3775 260.8214 L 105.1499 261.1852 L 106.3139 261.4271 L 107.663 261.714 L 109.7528 262.1673 L 111.6734 262.5921 L 112.6888 262.7852 L 114.628 263.165 L 116.0564 263.4435 L 117.7168 263.7608 L 118.8423 263.9784 L 120.2299 264.2485 L 122.4416 264.6816 L 124.5866 265.1022 L 127.2784 265.5944 L 128.6664 265.1022 L 129.7019 264.4439 L 130.7683 263.3033 L 131.5475 261.6934 L 132.2272 260.0796 L 132.4367 258.2259 L 132.62 257.059 L 132.7972 255.7196 L 132.9515 253.0304 L 132.9698 251.9957 L 133.0189 250.7435 L 133.0311 249.2391 L 133.0635 247.5255 L 133.1024 246.2878 L 133.1408 245.0154 L 133.3771 243.9563 L 133.6354 242.5049 L 134.0564 241.578 L 134.7829 239.9947 L 135.3099 239.218 L 136.8685 239.0393 L 137.8248 238.9479 L 139.0174 238.8016 L 140.3379 238.6572 L 141.9617 237.4823 L 142.851 237.0023 L 143.7505 235.9985 L 144.7476 234.9718 L 145.9074 233.624 L 146.7212 232.4613 L 147.4314 231.4636 L 148.0886 230.4045 L 149.397 228.5953 L 150.3087 227.4406 L 151.2284 226.8269 L 152.9052 225.7964 L 153.9632 225.2676 L 155.0232 224.7393 L 156.4782 224.0257 L 157.931 223.3183 L 159.0686 222.7594 L 160.1023 222.247 L 161.4369 221.5864 L 162.959 220.8325 L 164.1131 220.2611 L 165.1505 219.7472 L 166.4833 219.0843 L 167.9852 218.3403 L 169.1533 217.7612 L 170.195 217.2447 L 171.5277 216.5822 L 173.0132 215.8424 L 174.1894 215.2587 L 175.2333 214.7406 L 176.568 214.1368 L 178.0394 213.4903 L 179.1237 213.0473 L 180.5521 212.4659 L 181.7854 211.976 L 183.0675 211.4678 L 184.1274 211.0472 L 185.5801 210.472 L 186.5917 210.0754 L 187.6109 209.6731 L 189.064 209.0979 L 190.6063 208.4879 L 191.6807 208.0632 L 193.1213 207.4959 L 194.4136 206.9877 L 195.6344 206.5062 L 196.6947 206.0833 L 198.1474 205.5039 L 199.2055 205.0913 L 200.2513 204.6806 L 201.6919 204.1138 L 203.1732 203.5282 L 204.2415 203.1115 L 205.6886 202.5442 L 207.0621 202.0037 L 208.2013 201.5545 L 209.2616 201.1396 L 210.7143 200.5728 L 211.7747 200.1579 L 212.6231 199.8208 L 214.2733 199.1884 L 215.7424 198.6314 L 216.7985 198.2188 L 218.2555 197.6478 L 219.1101 197.3102 L 220.7685 196.6596 L 221.8285 196.2615 L 223.2816 195.7228 L 224.2989 195.3224 L 225.5909 194.7997 L 226.5392 194.4523 L 228.3097 193.8119 L 229.3574 193.4012 L 230.8224 192.8302 L 231.6773 192.4968 L 232.6782 192.1003 L 234.4038 191.4439 L 235.8485 190.9193 L 236.817 190.5597 L 238.3635 189.9722 L 240.014 189.3928 L 240.8766 189.0655 L 241.9369 188.8503 L 243.3897 188.5817 L 244.4496 188.5474 L 245.9027 188.5048 L 246.965 188.5147 L 248.4177 188.5291 L 249.5817 188.9272 L 250.9308 189.4012 L 252.2087 190.2831 L 253.4435 191.1368 L 254.2901 191.7204 L 255.1123 192.2873 L 255.9566 192.8039 L 257.2344 193.509 L 258.4696 194.1921 L 259.6702 194.7997 L 260.9846 195.2512 L 262.4519 195.5418 L 263.4977 195.8142 L 264.558 195.8733 L 266.0108 195.9159 L 267.0707 195.8691 L 268.5238 195.8058 L 269.5861 195.7613 L 271.0388 195.7022 L 272.0988 195.6637 L 273.5519 195.6108 L 274.6118 195.5826 L 276.065 195.5521 L 277.1249 195.5498 L 278.5777 195.5601 L 279.638 195.5765 L 281.0908 195.6192 L 282.153 195.69 L 283.6057 195.8142 L 284.6661 195.7978 L 286.1188 195.8386 L 287.1791 195.8691 L 288.6319 195.9178 L 289.6918 195.9685 L 291.145 196.0276 L 292.2072 196.0622 L 293.6599 196.0988 L 294.7199 196.0946 L 296.173 196.0763 L 297.233 196.0397 L 298.6861 195.9746 L 299.746 195.9037 L 301.1988 195.7837 L 302.261 195.69 L 303.7119 195.5296 L 304.7741 195.3994 L 306.2268 195.1841 L 307.334 195.0233 L 308.5346 194.7997 L 309.6943 194.4603 L 311.253 193.9033 L 312.3133 193.5681 L 313.7661 193.0801 L 314.6877 192.7448 L 315.8658 192.2873 L 317.4774 191.5212 L 318.7941 190.8991 L 319.7238 190.456 L 321.191 189.7772 L 322.7455 189.0617 L 323.8199 188.7261 L 325.2932 188.4598 L 326.3353 188.0899 L 327.4177 187.7097 L 328.848 187.4781 L 330.0854 186.6164 L 331.361 185.6853 L 332.1771 185.0674 L 333.2108 184.0876 L 333.8741 183.5043 L 334.5111 182.8883 L 335.1764 182.246 L 335.85 181.6525 L 337.1298 180.4795 L 337.8948 179.7336 L 338.9022 178.8962 L 339.7282 178.0871 Z" stroke="currentColor" id="voyager-deck-15" />
  <path d="M 298.1931 173.8066 L 298.1931 175.3442 L 269.7659 175.3442 L 269.7659 151.0383 L 169.6601 151.0383 L 169.6601 200.0916 L 72.4654 200.0916 L 82.9746 193.3898 L 161.6751 193.3898 L 161.6751 100.7102 L 83.615 100.7102 L 72.4654 94.0084 L 169.6601 94.0084 L 169.6601 143.0617 L 269.7659 143.0617 L 269.7659 118.7558 L 298.1931 118.7558 L 298.1931 119.2423 C 297.8026 121.6724 297.4627 124.1723 297.177 126.7323 L 277.7505 126.7323 L 277.7505 143.0617 L 281.5297 143.0617 C 281.1818 144.3322 280.9963 145.6694 280.9963 147.05 C 280.9963 148.4306 281.1818 149.7678 281.5297 151.0383 L 277.7505 151.0383 L 277.7505 167.3677 L 297.2977 167.3677 C 297.5568 169.562 297.8563 171.7102 298.1931 173.8066 Z" stroke="currentColor" id="hallway"/>
  <path d="M 296.1006 131.9618 C 304.4422 131.9618 311.2046 138.7169 311.2046 147.05 C 311.2046 155.3831 304.4422 162.1382 296.1006 162.1382 C 287.7586 162.1382 280.9963 155.3831 280.9963 147.05 C 280.9963 138.7169 287.7586 131.9618 296.1006 131.9618 Z" id="room-191" stroke="currentColor" name="Transporter Room"/>
<path d="M 241.8592 185.9977 L 178.9656 210.6689 L 177.7685 211.1436 L 176.6171 211.6008 L 175.2829 212.144 L 174.2702 212.5577 L 172.8963 213.1612 L 171.6496 213.725 L 170.6747 214.2092 L 169.5762 214.754 L 168.189 215.445 L 166.9443 216.0637 L 165.9716 216.546 L 164.8808 217.0869 L 163.4783 217.7818 L 162.2336 218.4005 L 161.2643 218.8809 L 160.1869 219.4142 L 158.7657 220.1186 L 157.5191 220.7354 L 156.5537 221.2139 L 155.4914 221.7358 L 154.1347 222.3964 L 152.776 223.063 L 151.7858 223.5564 L 150.7979 224.0501 L 149.232 225.0124 L 148.3728 225.5857 L 147.5217 226.6639 L 146.2998 228.3534 L 145.686 229.3424 L 145.0227 230.2746 L 144.2626 231.3603 L 143.1794 232.619 L 142.2483 233.5775 L 141.4085 234.5154 L 140.578 234.9634 L 139.0616 236.0606 L 137.8283 236.1954 L 136.7146 236.3318 L 135.8215 236.4175 L 134.3657 236.5844 L 133.8739 237.3097 L 133.1953 238.7882 L 132.8021 239.6538 L 132.5606 241.0092 L 132.3404 241.9982 L 132.3042 243.1868 L 132.268 244.3426 L 132.2375 245.943 L 132.2261 247.3476 L 132.1807 248.5172 L 132.1636 249.4833 L 132.0192 251.9949 L 131.8538 253.2456 L 131.6827 254.3355 L 131.4869 256.0666 L 130.8522 257.5737 L 130.1245 259.0773 L 129.1285 260.1421 L 128.1615 260.7574 L 126.8654 261.2168 L 124.3515 260.7574 L 122.3486 260.3642 L 120.2828 259.96 L 118.9867 259.7074 L 117.9359 259.5044 L 116.3852 259.2084 L 115.0513 258.9482 L 113.2404 258.5931 L 112.2921 258.4129 L 110.4984 258.016 L 108.5465 257.5927 L 107.2869 257.3253 L 106.1999 257.0994 L 104.5445 256.7596 L 103.395 256.5242 L 101.3045 256.0666 L 100.0655 255.1611 L 99.1572 254.7055 L 98.7163 253.7222 L 98.245 252.289 L 97.5916 250.6662 L 96.5766 248.7316 L 96.153 246.6889 L 95.8356 245.1781 L 95.6512 244.3426 L 95.3433 243.0881 L 94.8778 241.237 L 94.4636 239.6085 L 93.5877 238.1791 L 92.8333 237.3097 L 92.1148 236.5124 L 90.6932 236.3852 L 89.7678 236.328 L 88.4053 236.3261 L 87.4212 236.3242 L 72.4654 236.3242 L 72.4654 200.0916 L 169.7812 200.0916 L 169.7709 151.1838 L 242.1987 151.1 L 241.8592 185.9977 Z M 241.8592 108.1473 L 178.9656 83.476 L 177.7685 83.0017 L 176.6171 82.5442 L 175.2829 82.0013 L 174.2702 81.5872 L 172.8963 80.9838 L 171.6496 80.42 L 170.6747 79.9358 L 169.5762 79.391 L 168.189 78.6999 L 166.9443 78.0813 L 165.9716 77.599 L 164.8808 77.058 L 163.4783 76.3631 L 162.2336 75.7445 L 161.2643 75.2641 L 160.1869 74.7307 L 158.7657 74.0263 L 157.5191 73.4096 L 156.5537 72.9311 L 155.4914 72.4092 L 154.1347 71.7486 L 152.776 71.0823 L 151.7858 70.5886 L 150.7979 70.0952 L 149.232 69.1325 L 148.3728 68.5592 L 147.5217 67.4811 L 146.2998 65.7915 L 145.686 64.8026 L 145.0227 63.8704 L 144.2626 62.7846 L 143.1794 61.5263 L 142.2483 60.5675 L 141.4085 59.6299 L 140.578 59.1819 L 139.0616 58.0844 L 137.8283 57.9499 L 136.7146 57.8131 L 135.8215 57.7278 L 134.3657 57.5606 L 133.8739 56.8356 L 133.1953 55.3567 L 132.8021 54.4912 L 132.5606 53.1357 L 132.3404 52.1467 L 132.3042 50.9582 L 132.268 49.8023 L 132.2375 48.2019 L 132.2261 46.7973 L 132.1807 45.6278 L 132.1636 44.6617 L 132.0192 42.1504 L 131.8538 40.8993 L 131.6827 39.8098 L 131.4869 38.0784 L 130.8522 36.5712 L 130.1245 35.0677 L 129.1285 34.0028 L 128.1615 33.3877 L 126.8654 32.9283 L 124.3515 33.3877 L 122.3486 33.7807 L 120.2828 34.185 L 118.9867 34.4375 L 117.9359 34.6406 L 116.3852 34.9367 L 115.0513 35.1968 L 113.2404 35.5518 L 112.2921 35.7321 L 110.4984 36.1289 L 108.5465 36.5522 L 107.2869 36.8198 L 106.1999 37.0457 L 104.5445 37.3855 L 103.395 37.6209 L 101.3045 38.0784 L 100.0655 38.9839 L 99.1572 39.4395 L 98.7163 40.4227 L 98.245 41.8559 L 97.5916 43.4792 L 96.5766 45.4133 L 96.153 47.456 L 95.8356 48.9669 L 95.6512 49.8023 L 95.3433 51.0572 L 94.8778 52.9079 L 94.4636 54.5365 L 93.5877 55.9659 L 92.8333 56.8356 L 92.1148 57.6329 L 90.6932 57.7598 L 89.7678 57.8169 L 88.4053 57.8188 L 87.4212 57.8207 L 72.4654 57.8207 L 72.4654 94.0533 L 169.7812 94.0533 L 169.7709 142.9612 L 242.1987 143.045 L 241.8592 108.1473 Z" id="room-182" stroke="currentColor" name="Water Storage"/>
<path d="M 296.6752 131.9724 C 297.6242 120.1437 299.7064 109.4105 302.61 100.5921 L 302.7197 100.6043 L 303.7355 100.6957 L 305.1269 100.9022 L 306.1445 101.0268 L 307.499 101.2546 L 308.5517 101.4455 L 309.8947 101.9087 L 310.9589 102.2535 L 312.3507 102.7205 L 313.366 103.042 L 314.3288 103.3982 L 315.7751 104.0154 L 317.3227 104.732 L 318.1822 105.1312 L 319.1218 105.5811 L 320.8645 106.3872 L 321.9675 106.8913 L 322.9966 107.2128 L 324.4078 107.4676 L 325.4056 107.8219 L 327.0976 108.2018 L 328.353 108.6105 L 329.4404 109.4166 L 330.2203 110.1256 L 331.3934 111.0151 L 331.992 111.6559 L 332.6275 112.2148 L 333.2356 112.8045 L 333.8749 113.4197 L 335.0346 114.411 L 335.746 115.1101 L 336.4767 115.8247 L 337.4437 116.6286 L 338.2777 117.4427 L 339.0889 118.2312 L 339.8509 118.9086 L 340.7531 119.7966 L 341.605 120.6359 L 342.258 121.3155 L 342.8036 121.9753 L 343.6849 123.0405 L 344.2228 123.9906 L 344.9791 125.4451 L 345.2401 126.5979 L 345.5266 127.8516 L 345.8425 129.2421 L 346.0745 130.2562 L 346.3724 131.5492 L 346.7801 133.3328 L 347.0742 134.6178 L 347.2887 135.5896 L 347.4834 136.4715 L 347.7059 137.4704 L 348.0389 138.9558 L 348.2439 139.8769 L 348.5575 141.267 L 348.7857 142.2815 L 349.1248 143.7536 L 349.4814 145.4477 L 349.6608 146.4694 L 349.6608 146.5247 C 349.6608 146.9285 349.6593 147.3315 349.657 147.7338 L 349.3412 149.4977 L 348.996 150.9773 L 348.7857 151.9023 L 348.4717 153.2924 L 348.2439 154.3069 L 347.8987 155.8528 L 347.7059 156.7115 L 347.4857 157.7123 L 347.2887 158.5923 L 347.0742 159.566 L 346.63 161.5226 L 346.3667 162.6598 L 346.0745 163.9272 L 345.7567 165.3177 L 345.5266 166.3318 L 345.2401 167.586 L 344.6652 169.3791 L 344.168 170.2923 L 343.6849 171.1433 L 342.7998 172.2123 L 342.258 172.8683 L 341.6069 173.548 L 340.6891 174.4493 L 339.8509 175.2748 L 339.0889 175.9526 L 338.235 176.78 L 337.4437 177.5549 L 336.4786 178.3572 L 335.746 179.0719 L 334.5199 180.1953 L 333.8749 180.7637 L 333.2375 181.3789 L 332.6275 181.969 L 331.992 182.5279 L 331.0018 183.4662 L 330.2203 184.0582 L 328.9981 184.95 L 327.8128 185.7756 L 326.4427 185.9977 L 325.4056 186.3615 L 324.4078 186.7162 L 322.9966 186.971 L 321.9675 187.2926 L 320.4785 187.9779 L 319.073 188.6282 L 318.1822 189.0526 L 316.9211 189.6484 L 315.3773 190.3825 L 314.2488 190.8206 L 313.366 191.1418 L 311.9742 191.6092 L 310.9589 191.9303 L 309.4657 192.4637 L 308.3547 192.789 L 307.2049 193.0031 L 306.1445 193.157 L 304.7528 193.3635 L 303.7355 193.4881 L 302.9849 193.5711 C 299.9735 184.8053 297.7911 174.039 296.7624 162.1241 C 304.797 161.7779 311.2046 155.1614 311.2046 147.05 C 311.2046 138.9093 304.7509 132.2741 296.6752 131.9724 Z" id="room-183" stroke="currentColor" name="Lower Deflector Array"/>
<path d="M 139.2441 126.0935 C 144.3038 117.2998 152.4667 111.5911 161.6751 111.5911 L 161.6751 182.5089 C 152.4872 182.5089 144.3403 176.8253 139.278 168.0652 L 140.2381 167.0499 L 141.4394 165.7775 L 142.5969 164.5265 L 143.9826 162.7074 L 144.3198 160.4388 L 144.5045 158.7946 L 144.6204 157.7706 L 144.961 156.2041 L 145.3721 154.4909 L 145.9897 152.3065 L 146.7143 149.7659 L 147.1403 148.2664 L 147.4733 147.0953 L 147.0713 145.6801 L 146.5044 143.688 L 145.8849 141.5124 L 145.1983 139.0906 L 144.8829 137.6148 L 144.6185 136.4201 L 144.423 134.6788 L 144.2165 133.0715 L 143.6477 130.7899 L 142.5969 129.6665 L 141.1765 128.1388 L 140.2381 127.143 L 139.2441 126.0935 Z" id="room-184" stroke="currentColor" name="Cargo Airlock"/>
<path d="M 158.5977 182.2944 C 154.6589 189.0975 147.2961 193.6748 138.8631 193.6748 L 93.2997 193.6748 C 89.4874 193.6748 85.8934 192.7395 82.7361 191.0854 L 83.8208 190.9402 L 85.0952 190.7699 L 86.0218 190.6473 L 87.164 190.4953 L 88.2228 190.3524 L 89.6234 190.1665 L 91.0723 189.9734 L 92.0831 189.8374 L 93.065 189.7055 L 95.0576 189.44 L 97.2602 189.1474 L 99.4665 188.8522 L 101.1471 188.6278 L 101.9186 188.5257 L 103.6331 188.2964 L 105.0196 188.1101 L 105.8342 188.0011 L 107.0122 187.8446 L 108.0352 187.7086 L 109.2971 187.5406 L 110.2363 187.4137 L 111.7564 187.2114 L 112.9897 187.0461 L 114.2158 186.8826 L 114.982 186.7805 L 116.9746 186.515 L 118.2594 186.3447 L 119.3041 186.0087 L 121.243 185.403 L 122.4279 185.0487 L 123.4455 184.7538 L 124.2209 184.5291 L 125.0442 184.3066 L 126.0298 184.03 L 127.8922 183.5397 L 129.1841 182.4414 L 130.5207 181.3382 L 131.2766 180.737 L 132.2497 179.3572 L 133.2688 177.9343 L 133.6773 176.9472 L 134.4522 175.0954 L 135.4291 173.57 L 136.6533 171.7727 L 137.5818 170.7064 L 138.8543 169.2424 L 139.5249 168.4858 C 144.0184 176.0265 150.8257 181.2029 158.5977 182.2944 Z M 139.4898 125.6729 L 138.6032 124.6736 L 137.5802 123.4915 L 136.1705 121.8686 L 135.4272 120.6275 L 134.4023 119.0046 L 133.6773 117.2507 L 132.7823 115.587 L 132.2497 114.8403 L 131.2747 113.4605 L 130.0486 112.4712 L 129.1841 111.7584 L 127.8369 110.6422 L 126.0298 110.1679 L 125.0461 109.8909 L 124.2209 109.6684 L 123.4455 109.446 L 122.2088 109.0829 L 120.644 108.6178 L 119.0419 108.1096 L 118.2525 107.8528 L 116.6752 107.6417 L 114.982 107.4174 L 114.2158 107.3153 L 112.9897 107.1518 L 111.7564 106.9861 L 110.2363 106.7842 L 109.0049 106.6185 L 108.0352 106.489 L 106.8393 106.3301 L 105.8342 106.1964 L 104.3799 106.001 L 103.0274 105.8219 L 101.9205 105.6745 L 101.1452 105.5701 L 99.012 105.284 L 97.0018 105.0162 L 94.5425 104.6893 L 93.065 104.492 L 92.0831 104.3602 L 90.4239 104.1381 L 89.0801 103.9586 L 88.2228 103.8451 L 87.0875 103.6931 L 86.0218 103.5502 L 84.7066 103.3754 L 83.1026 103.1621 L 82.5882 103.0923 C 85.7814 101.3902 89.4279 100.4252 93.2997 100.4252 L 138.8631 100.4252 C 147.2961 100.4252 154.6589 105.0025 158.5977 111.8056 C 150.8055 112.9001 143.9829 118.1006 139.4898 125.6729 Z" id="room-185" stroke="currentColor" name="Lower Aft Sensors"/>
<path d="M 36.1716 209.163 L 72.4654 200.2973 L 72.4654 218.0283 L 36.1716 209.163 Z M 36.1716 85.1065 L 72.4654 76.2412 L 72.4654 93.9718 L 36.1716 85.1065 Z" id="room-186" stroke="currentColor" name="Lower Aft Laser Cannon Batteries"/>
<path d="M 242.1987 151.1 h 27.5472 v 24.1109 h -27.432 v -24.0004 Z" id="room-187" stroke="currentColor" name="Water Pumping"/>
<path d="M 242.1987 175.2108 L 298.1931 175.2108 L 300.548 185.5733 L 242.1987 185.6666 L 242.1987 175.2108 Z" id="room-188" stroke="currentColor" name="Lower Shield Control"/>
<path d="M 242.1987 108.097 h 27.5472 v 34.5182 h -27.432 v -34.2863 Z" id="room-189" stroke="currentColor" name="Recycling Center"/>
<path d="M 269.7461 100.0702 L 302.6755 100.5921 L 298.1931 118.8092 L 269.7461 118.8092 L 269.7461 100.0702 Z" id="room-190" stroke="currentColor" name="Waste Processing Center"/>
</svg>