<svg viewBox="0 0 381 294.1" version="1.1" xmlns="http://www.w3.org/2000/svg" xmlns:xlink="http://www.w3.org/1999/xlink" xml:space="preserve" style="fill-rule:evenodd;clip-rule:evenodd;stroke-miterlimit:1.41421;">
  <path d="M 351.8051 183.7115 L 352.401 182.8902 L 352.971 182.2014 L 353.6282 181.3416 L 354.8958 179.6909 L 355.6204 178.7172 L 356.3325 177.8044 L 357.2683 176.5952 L 358.1354 175.4284 L 358.6806 174.668 L 359.283 173.7068 L 359.8118 172.8794 L 360.455 171.7064 L 360.86 170.6801 L 361.2425 169.6473 L 361.4276 168.7124 L 361.7328 167.1349 L 361.8894 166.2019 L 362.1561 164.6248 L 362.315 163.6918 L 362.5836 162.1142 L 362.8358 160.6506 L 363.0187 159.6037 L 363.3262 157.8109 L 363.6192 156.1564 L 363.9019 154.5812 L 364.0809 153.6482 L 364.3781 152.0707 L 364.5389 151.1358 L 364.8094 149.5605 L 364.9439 148.6435 L 365.0822 147.7125 L 365.0822 146.3875 L 364.9439 145.4565 L 364.8094 144.5376 L 364.6486 143.6046 L 364.3781 142.0271 L 364.199 141.0941 L 363.9019 139.5169 L 363.6538 138.1367 L 363.4504 137.0064 L 363.1612 135.3134 L 362.8358 133.4494 L 362.5836 131.9839 L 362.4247 131.0509 L 362.1561 129.4733 L 361.9995 128.5385 L 361.7328 126.9628 L 361.5458 126.0279 L 361.2425 124.4527 L 360.86 123.418 L 360.455 122.3913 L 359.8118 121.2206 L 359.2807 120.3913 L 358.6806 119.4297 L 358.1354 118.6697 L 357.2683 117.5029 L 356.3325 116.2933 L 355.6204 115.3809 L 354.8958 114.4091 L 354.1166 113.4476 L 353.1074 112.102 L 352.401 111.2075 L 351.8051 110.3865 L 350.9604 109.3865 L 349.9127 108.1545 L 348.8402 106.876 L 348.0812 106.1198 L 347.1066 105.3655 L 345.8367 104.3655 L 344.7623 103.8779 L 343.0532 103.2272 L 342.1193 103.0462 L 340.5401 102.719 L 339.604 102.5689 L 338.027 102.3064 L 337.0932 102.1704 L 336.1247 102.018 L 335.0624 101.8554 L 333.9187 101.6725 L 332.999 101.5197 L 332.0205 101.3693 L 330.4863 101.1194 L 329.5501 100.9792 L 327.9732 100.7414 L 327.0371 100.6092 L 325.4601 100.3856 L 324.524 100.2862 L 322.9451 100.1212 L 322.0109 100.0767 L 320.432 100.0012 L 319.4982 99.967 L 317.919 99.9018 L 316.9829 99.8938 L 315.4059 99.855 L 314.2686 99.8511 L 312.8932 99.8348 L 311.1494 99.8001 L 309.6658 99.7879 L 308.4858 99.7292 L 307.3176 99.6191 L 305.5738 99.4568 L 304.2571 99.1986 L 302.839 99.1761 L 301.7463 99.0401 L 300.324 98.9688 L 298.6594 98.741 L 296.9705 98.3856 L 295.2979 98.0865 L 294.0729 97.7757 L 292.7848 97.4587 L 291.9039 97.1924 L 290.4081 96.8324 L 288.5016 96.5357 L 286.7924 96.3528 L 285.244 96.1718 L 284.3079 96.1372 L 282.731 96.0176 L 281.7948 96.0153 L 280.2179 95.936 L 279.2818 95.9604 L 277.7029 95.9341 L 276.7687 95.9951 L 275.1898 96.0541 L 273.5313 96.2042 L 271.5006 96.4522 L 270.1637 96.6294 L 267.9988 96.8324 L 265.8824 97.048 L 264.1835 97.3121 L 262.6229 97.6172 L 261.6868 97.6942 L 260.1098 97.7818 L 259.1737 97.7391 L 257.5968 97.6599 L 256.6606 97.6271 L 255.0818 97.5642 L 253.991 97.4709 L 252.5687 97.3467 L 250.8858 96.8324 L 248.9812 96.2857 L 247.5426 95.8324 L 246.6068 95.5417 L 245.0276 95.0598 L 244.1486 94.7672 L 242.8117 94.3223 L 241.4077 93.8994 L 240.0014 93.4602 L 239.0657 93.1432 L 237.4887 92.6106 L 236.5385 92.2895 L 235.0957 91.8118 L 233.8647 91.4461 L 232.4607 91.0171 L 231.5265 90.718 L 229.9476 90.222 L 228.8263 89.8483 L 227.4345 89.395 L 226.2584 89.0494 L 224.9214 88.6529 L 223.9857 88.3645 L 222.4065 87.8845 L 221.4726 87.5717 L 219.8934 87.0715 L 218.923 86.7888 L 217.8688 86.4921 L 216.4446 86.0776 L 214.8676 85.6223 L 213.9315 85.305 L 212.3545 84.7991 L 211.2028 84.4817 L 210.2689 84.2177 L 208.9053 83.8315 L 207.3265 83.3922 L 206.3904 83.0813 L 204.8134 82.5712 L 203.8388 82.2947 L 202.3003 81.8901 L 201.1977 81.5994 L 199.7854 81.2112 L 198.8515 80.9346 L 197.2723 80.4855 L 196.3384 80.2009 L 194.7592 79.7152 L 193.7869 79.4672 L 192.6085 79.146 L 191.3226 78.7761 L 189.7311 78.3392 L 188.7973 78.0626 L 187.2184 77.6154 L 186.3292 77.3186 L 184.7054 76.7578 L 183.3399 76.3532 L 182.1923 75.9894 L 181.2562 75.7269 L 179.6792 75.2923 L 178.1167 74.8755 L 177.1642 74.605 L 175.8334 74.2351 L 174.6512 73.8999 L 173.715 73.6355 L 172.1381 73.1924 L 171.253 72.936 L 170.3821 72.6903 L 168.5163 72.1414 L 167.3135 71.8 L 165.6512 71.296 L 164.5973 70.9768 L 163.6631 70.6838 L 162.0843 70.184 L 160.6456 69.7246 L 159.5712 69.3851 L 157.8925 68.883 L 156.122 68.4948 L 154.5431 68.251 L 141.9762 68.251 L 141.042 68.2487 L 125.9601 68.2487 L 124.3828 68.2468 L 113.3928 68.2468 L 111.8159 68.2449 L 105.8517 68.2449 L 104.2747 68.2426 L 98.3129 68.2426 L 96.7336 68.2407 L 91.7078 68.2407 L 90.7717 68.2388 L 84.1667 68.2388 L 83.2306 68.2365 L 78.2048 68.2365 L 76.6256 68.2346 L 71.5998 68.2346 L 70.3158 68.5089 L 69.0867 68.7733 L 67.8454 69.2145 L 66.5717 69.6636 L 65.7069 69.995 L 64.0587 70.6229 L 62.9984 71.0316 L 61.5456 71.5886 L 60.1801 72.117 L 59.0325 72.544 L 57.4514 73.1395 L 56.5194 73.5014 L 55.6976 73.8324 L 54.6659 74.2351 L 53.103 74.8286 L 51.4914 75.3917 L 50.5557 75.778 L 48.9787 76.4062 L 47.6601 77.0546 L 46.4656 77.7213 L 45.6027 78.394 L 44.5427 79.258 L 43.9506 79.9632 L 43.2972 80.9369 L 42.7318 81.7682 L 42.7684 82.7011 L 42.8396 84.2787 L 43.3521 85.1119 L 43.9506 86.1001 L 45.2323 87.5961 L 46.4656 88.9009 L 47.7435 90.0616 L 48.9787 91.1855 L 49.6542 91.8118 L 50.3743 92.448 L 51.4914 93.4503 L 52.4542 94.3223 L 53.2577 95.0396 L 54.0045 95.7021 L 54.8632 96.4766 L 55.7994 97.3121 L 56.5194 97.9524 L 57.5554 98.8896 L 58.4812 100.5666 L 59.0325 101.5563 L 59.0325 102.4611 L 58.0316 102.5994 L 56.5194 102.7639 L 55.5837 102.8127 L 54.0045 102.89 L 52.2465 102.9731 L 50.4924 103.0668 L 48.9787 103.1502 L 47.9001 103.2009 L 46.4656 103.268 L 45.3158 103.3209 L 43.9506 103.3838 L 42.7253 103.4409 L 41.4376 103.4996 L 40.2797 103.6196 L 38.9245 103.7579 L 37.9457 103.8127 L 36.4115 103.8981 L 34.6269 103.9918 L 33.2432 104.0649 L 31.882 104.1358 L 30.9418 104.1845 L 29.0698 104.2844 L 27.5274 104.3655 L 26.453 104.4428 L 24.1211 104.6097 L 21.7628 104.7804 L 19.5835 105.1339 L 18.0126 106.0832 L 17.2414 106.876 L 16.7225 109.0612 L 16.8487 111.4677 L 17.8112 112.8784 L 18.8164 113.9557 L 20.5887 114.4091 L 21.7933 114.6468 L 22.888 114.9032 L 23.8444 115.1329 L 25.045 115.2221 L 26.3574 115.32 L 27.5397 115.4072 L 28.8704 115.5066 L 29.9509 115.5859 L 31.3834 115.6918 L 32.3825 115.7752 L 33.8985 115.9074 L 35.7847 116.3828 L 36.7228 116.6655 L 36.9527 119.0233 L 36.8877 119.9402 L 36.91 121.4058 L 36.9303 122.485 L 36.9527 123.8854 L 36.9731 125.0279 L 36.9934 126.3655 L 37.0158 127.4794 L 37.0382 128.9632 L 37.0585 130.1198 L 37.0769 131.3191 L 37.1013 132.6726 L 37.1176 133.7888 L 37.144 135.2277 L 37.1603 136.2563 L 37.1867 137.7809 L 37.203 138.7261 L 37.2315 140.336 L 37.26 142.0271 L 37.2885 143.6637 L 37.319 145.4462 L 37.3475 147.05 L 37.3312 147.9689 L 37.3028 149.5605 L 37.2742 151.207 L 37.2457 152.9042 L 37.2173 154.5812 L 37.1867 156.3172 L 37.1603 157.8414 L 37.144 158.8723 L 37.1176 160.3093 L 37.1013 161.4251 L 37.0769 162.779 L 37.0585 163.9783 L 37.0382 165.1368 L 37.0158 166.6187 L 36.9934 167.7326 L 36.9731 169.0702 L 36.9527 170.2123 L 36.9303 171.6131 L 36.91 172.6923 L 36.8877 174.1579 L 36.9527 175.0748 L 36.8754 176.7331 L 36.4115 177.5686 L 34.7511 178.0402 L 32.8993 178.276 L 31.3834 178.4063 L 30.3029 178.4875 L 28.8704 178.5934 L 27.6882 178.6806 L 26.3574 178.7781 L 25.1467 178.8696 L 23.8444 178.9652 L 22.888 179.1949 L 21.7913 179.4509 L 20.5928 179.6909 L 19.1114 180.073 L 17.8112 181.2193 L 16.8914 182.2014 L 16.6798 184.366 L 17.0786 186.5024 L 18.0126 188.0168 L 18.8164 188.8381 L 20.9896 189.2282 L 23.5453 189.4476 L 26.2536 189.6431 L 27.5152 189.7322 L 28.6954 189.7955 L 30.9418 189.9132 L 31.884 189.9642 L 33.2412 190.0351 L 34.629 190.1082 L 35.5813 190.1574 L 37.3292 190.2526 L 38.9245 190.3421 L 40.0477 190.456 L 41.4376 190.5981 L 42.6644 190.6553 L 43.9506 190.7162 L 45.1001 190.7692 L 46.4656 190.8301 L 47.5419 190.8827 L 48.9787 190.9479 L 49.9777 191.0088 L 51.4914 191.0903 L 53.1865 191.1673 L 54.9406 191.2587 L 56.5194 191.3361 L 57.8034 191.4846 L 59.0325 191.6389 L 59.0325 192.5414 L 58.522 193.3079 L 58.0598 194.7552 L 57.0243 195.6923 L 55.9784 196.6253 L 55.258 197.2657 L 54.3992 198.0421 L 53.2577 199.0585 L 52.4542 199.7758 L 51.4914 200.6497 L 50.3743 201.652 L 49.6542 202.2882 L 48.9787 202.9122 L 48.2319 203.5873 L 46.8866 204.7987 L 45.6678 206.0327 L 44.4612 207.3089 L 43.5232 208.6994 L 42.8415 209.8194 L 42.805 210.7543 L 42.7318 212.3299 L 43.2972 213.1612 L 43.9506 214.1368 L 44.5427 214.842 L 45.6027 215.7041 L 46.4656 216.3768 L 47.6578 217.0435 L 48.5939 217.5193 L 49.9125 218.0801 L 51.4914 218.7083 L 52.4031 219.0375 L 54.0045 219.6127 L 55.5102 220.194 L 56.5194 220.5967 L 57.4514 220.9605 L 58.3978 221.3122 L 60.1801 221.9811 L 61.2038 222.3731 L 62.1948 222.7594 L 64.0587 223.4749 L 64.9376 223.8105 L 66.5717 224.4345 L 67.8435 224.8855 L 69.0867 225.3248 L 70.0388 225.524 L 71.5998 225.8635 L 72.5355 225.8635 L 74.1125 225.8654 L 75.0486 225.8635 L 80.0748 225.8635 L 81.6536 225.8612 L 87.6159 225.8612 L 89.1929 225.8593 L 95.1567 225.8593 L 96.7336 225.8574 L 101.7617 225.8574 L 102.6959 225.8551 L 109.3009 225.8551 L 110.237 225.8532 L 117.7778 225.8532 L 119.3551 225.8513 L 134.437 225.8513 L 135.3708 225.849 L 154.5431 225.849 L 155.4792 225.713 L 157.0581 225.4692 L 158.9955 224.8855 L 160.6456 224.3735 L 162.0843 223.9141 L 163.02 223.6211 L 164.5973 223.1232 L 165.4946 222.8531 L 167.0575 222.3731 L 168.5163 221.9564 L 169.6254 221.6314 L 171.253 221.164 L 172.1381 220.9057 L 173.3142 220.5723 L 174.6512 220.1982 L 175.8357 219.863 L 177.1642 219.4931 L 178.1186 219.2226 L 179.6792 218.8077 L 180.6134 218.5456 L 182.1923 218.1106 L 183.1284 217.8077 L 184.6688 217.3525 L 185.7798 216.9521 L 187.2184 216.4824 L 188.1542 216.2062 L 189.7311 215.7589 L 191.0704 215.389 L 192.2465 215.0637 L 193.5282 214.698 L 194.7592 214.3829 L 195.6953 214.0983 L 197.2723 213.6122 L 198.2084 213.336 L 199.7854 212.8869 L 200.6605 212.6328 L 201.7978 212.3299 L 202.988 212.0168 L 204.8134 211.5288 L 205.7472 211.2179 L 207.3265 210.7078 L 208.2626 210.4373 L 209.8396 209.9981 L 211.2047 209.6183 L 212.3545 209.3009 L 213.2884 208.984 L 214.8676 208.4758 L 215.8014 208.1992 L 217.3803 207.7439 L 218.4364 207.4472 L 219.3707 207.179 L 220.8295 206.7134 L 222.4065 206.2132 L 223.3426 205.9249 L 224.9214 205.4471 L 225.8126 205.1828 L 227.1213 204.7987 L 228.0959 204.4814 L 229.9476 203.8757 L 230.8837 203.5789 L 232.4607 203.0829 L 233.8666 202.6543 L 234.9757 202.3248 L 236.2859 201.8878 L 237.4887 201.4894 L 238.4226 201.1724 L 240.0014 200.6398 L 241.4077 200.2006 L 242.5145 199.8672 L 243.9695 199.3857 L 245.0276 199.0402 L 245.9637 198.7472 L 247.5426 198.2657 L 248.9812 197.8123 L 250.0556 197.4767 L 251.9195 196.9567 L 253.6999 196.6539 L 255.0818 196.5358 L 256.0175 196.5011 L 257.5968 196.4382 L 258.5306 196.3975 L 260.1098 196.3182 L 261.0437 196.3956 L 262.6229 196.4828 L 263.9473 196.7533 L 265.1356 197.0013 L 267.5184 197.2268 L 269.5045 197.3975 L 271.224 197.6089 L 272.6767 197.796 L 274.3901 197.9567 L 276.1259 198.1049 L 277.7029 198.164 L 278.639 198.1884 L 280.2179 198.1621 L 281.1517 198.1598 L 282.731 198.0805 L 283.6648 198.044 L 285.244 197.9263 L 286.5585 197.7819 L 287.7567 197.6539 L 290.1864 197.3 L 291.9039 196.9076 L 292.7848 196.6394 L 294.0097 196.3426 L 295.2979 196.0112 L 296.3681 195.81 L 297.8109 195.562 L 299.5487 195.306 L 301.3984 195.0317 L 302.839 194.9216 L 303.7606 194.8752 L 304.8472 194.7997 L 307.3176 194.4786 L 308.4835 194.3689 L 309.6658 194.3121 L 311.1471 194.2999 L 312.0569 194.2611 L 314.0347 194.2572 L 315.4059 194.2428 L 316.3401 194.2348 L 317.919 194.1963 L 318.8551 194.1616 L 320.432 194.0965 L 321.3682 194.0519 L 322.9451 193.9765 L 323.8812 193.8751 L 325.4601 193.7125 L 326.3939 193.5803 L 327.9732 193.3567 L 328.907 193.2165 L 330.4863 192.9806 L 332.0225 192.7285 L 332.999 192.5803 L 333.9187 192.4256 L 335.0666 192.2446 L 336.1228 192.0801 L 337.0951 191.9277 L 338.027 191.7936 L 338.9612 191.6431 L 340.5401 191.381 L 341.4762 191.1978 L 343.0532 190.8705 L 344.0259 190.5006 L 345.5662 189.9132 L 346.561 189.1753 L 348.0812 187.9783 L 348.8402 187.2221 L 349.5218 186.4457 L 350.5943 185.1691 L 351.8051 183.7115 Z" stroke="currentColor" id="voyager-deck-10" />
  <path d="M 120.2501 152.6371 L 120.2642 189.6153 C 125.7433 189.5753 133.7478 189.5074 143.344 189.4008 L 143.344 152.6371 L 120.2501 152.6371 Z M 156.8539 189.2358 C 176.2072 188.9791 199.343 188.5802 220.9171 187.9714 C 213.7879 161.0426 213.3417 133.7515 220.903 106.0261 C 199.3331 105.4173 176.203 105.0188 156.8539 104.7621 L 156.8539 141.2533 L 179.8705 141.2533 L 179.8705 152.6371 L 156.8539 152.6371 L 156.8539 189.2358 Z M 227.5934 151.0383 C 228.0167 163.2129 230.1408 175.391 233.8681 187.5722 C 256.506 186.8103 275.9781 185.7809 285.3096 184.3957 C 285.9397 184.302 287.0321 184.1744 287.1083 183.9215 C 288.2577 180.1222 289.7261 173.6893 291.6429 168.7787 C 282.8468 166.9406 275.9617 159.907 274.3509 151.0383 L 227.5934 151.0383 Z M 227.5606 143.0617 L 274.3509 143.0617 C 275.964 134.1805 282.8662 127.1396 291.6799 125.3136 C 289.7448 120.3909 288.265 113.9001 287.1083 110.0764 C 287.0321 109.8235 285.9397 109.6959 285.3096 109.6022 C 275.9743 108.2162 256.49 107.1869 233.8399 106.4246 C 229.9468 118.6328 227.8864 130.8455 227.5606 143.0617 Z M 120.2459 141.2533 L 143.344 141.2533 L 143.344 104.5975 C 134.2133 104.4958 126.524 104.4295 121.0795 104.3887 L 120.2322 104.3823 L 120.2459 141.2533 Z M 112.2792 197.6436 L 112.2792 96.3547 C 112.2792 96.3547 261.5173 98.6363 285.3096 102.2679 C 286.9905 102.5243 292.0971 102.759 292.5051 103.8493 C 294.8578 110.1355 296.2412 124.8794 297.702 124.6584 L 297.702 124.8995 C 309.2821 125.6634 318.4387 135.2883 318.4387 147.05 C 318.4387 158.8117 309.2821 168.4366 297.702 169.2005 L 297.702 169.3395 C 296.2412 169.1185 294.8578 183.8624 292.5051 190.1486 C 292.0971 191.2389 286.9905 191.4736 285.3096 191.73 C 261.5169 195.362 112.2792 197.6436 112.2792 197.6436 Z" stroke="currentColor" id="hallway"/>
  <path d="M 258.2315 100.2611 L 258.2315 99.357 L 258.939 99.3856 L 259.8416 99.4168 L 261.3626 99.4934 L 262.2652 99.5346 L 263.7861 99.45 L 264.6887 99.3757 L 266.194 99.0816 L 267.8327 98.8267 L 269.8737 98.6187 L 271.9616 98.4229 L 273.2509 98.2523 L 275.2093 98.013 L 276.8087 97.8683 L 278.3315 97.8111 L 279.2322 97.7524 L 280.7551 97.778 L 281.6581 97.7543 L 283.179 97.8309 L 284.0816 97.8328 L 285.6026 97.9486 L 286.5051 97.9818 L 287.9987 98.1563 L 289.6469 98.3326 L 291.486 98.6187 L 292.9284 98.9658 L 293.7781 99.2226 L 295.0201 99.5285 L 296.2016 99.8287 L 297.8147 100.1167 L 299.4435 100.4595 L 301.0487 100.6793 L 302.4207 100.7479 L 303.4745 100.8793 L 304.8423 100.9007 L 306.1118 101.1498 L 307.7935 101.3064 L 308.9201 101.4123 L 310.0582 101.4695 L 311.4888 101.4813 L 313.171 101.5144 L 314.4972 101.53 L 315.5945 101.5338 L 317.1154 101.5712 L 318.018 101.5792 L 319.5409 101.6416 L 320.4416 101.6752 L 321.9644 101.7476 L 322.8651 101.791 L 324.388 101.9495 L 325.2909 102.0455 L 326.8115 102.2615 L 327.7145 102.3887 L 329.2354 102.618 L 330.138 102.7533 L 331.6178 102.9944 L 332.5616 103.1396 L 333.4485 103.2866 L 334.5515 103.463 L 335.576 103.62 L 336.5099 103.767 L 337.4109 103.8981 L 338.9315 104.151 L 339.8345 104.2962 L 341.3573 104.6116 L 342.258 104.7865 L 343.9066 105.4135 L 344.9425 105.884 L 346.1671 106.8486 L 347.107 107.5758 L 347.8393 108.305 L 348.8733 109.5382 L 349.8841 110.7264 L 350.6983 111.6906 L 351.2736 112.4826 L 351.9545 113.3455 L 352.9279 114.643 L 353.6793 115.5703 L 354.378 116.5074 L 355.0649 117.3874 L 355.9675 118.5539 L 356.8035 119.6793 L 357.3296 120.4126 L 357.9084 121.3399 L 358.4208 122.1395 L 359.0407 123.2687 L 359.4312 124.2588 L 359.8004 125.2565 L 360.0926 126.7758 L 360.2732 127.6775 L 360.5304 129.1968 L 360.6813 130.0985 L 360.9404 131.62 L 361.0935 132.5199 L 361.337 133.9332 L 361.6509 135.731 L 361.9294 137.3637 L 362.1256 138.4537 L 362.3653 139.7847 L 362.6518 141.3063 L 362.8244 142.2057 L 363.0854 143.7273 L 363.2404 144.6271 L 363.37 145.5132 L 363.5033 146.4108 L 363.5033 147.6892 L 363.37 148.5868 L 363.2404 149.471 L 362.9795 150.9903 L 362.8244 151.892 L 362.5379 153.4135 L 362.3653 154.3134 L 362.0925 155.8326 L 361.8098 157.4281 L 361.5134 159.1572 L 361.337 160.1668 L 361.0935 161.5782 L 360.8344 163.0998 L 360.6813 163.9992 L 360.4241 165.5208 L 360.2732 166.4206 L 359.9787 167.9418 L 359.8004 168.8435 L 359.4312 169.8393 L 359.0407 170.8294 L 358.4208 171.9605 L 357.9103 172.7582 L 357.3296 173.6855 L 356.8035 174.4188 L 355.9675 175.5442 L 355.0649 176.7107 L 354.378 177.5907 L 353.6793 178.5297 L 352.4566 180.1214 L 351.823 180.9507 L 351.2736 181.6155 L 350.6983 182.4075 L 349.5309 183.8129 L 348.4965 185.0441 L 347.8393 185.7931 L 347.107 186.5223 L 345.6413 187.6769 L 344.6816 188.3886 L 343.196 188.9551 L 342.258 189.3116 L 340.7371 189.6275 L 339.8345 189.8038 L 338.3116 190.0568 L 337.4109 190.2019 L 336.5122 190.3311 L 335.5741 190.4781 L 334.5553 190.637 L 333.4485 190.8115 L 332.5616 190.9604 L 331.6197 191.1037 L 330.138 191.3467 L 328.6152 191.5741 L 327.7145 191.7094 L 326.1916 191.925 L 325.2909 192.0523 L 323.7681 192.2092 L 322.8651 192.3071 L 321.3442 192.3799 L 320.4416 192.4229 L 318.9206 192.4858 L 318.018 192.5189 L 316.4952 192.5563 L 315.5945 192.5639 L 314.2717 192.578 L 312.3644 192.5818 L 311.4869 192.6191 L 310.0582 192.6305 L 308.9182 192.6858 L 307.7935 192.7913 L 305.4111 193.101 L 304.3634 193.1738 L 303.4745 193.2187 L 302.085 193.3247 L 300.3012 193.5894 L 298.6251 193.8363 L 297.2337 194.0755 L 296.2016 194.2694 L 294.9595 194.5891 L 293.7781 194.8752 L 292.9284 195.1342 L 291.2718 195.5125 L 288.9287 195.8535 L 287.7731 195.9769 L 286.5051 196.1163 L 284.9823 196.2298 L 284.0816 196.2653 L 282.5587 196.3418 L 281.6581 196.3438 L 280.1352 196.3693 L 279.2322 196.3457 L 277.7117 196.2889 L 276.0375 196.1457 L 274.3852 195.9906 L 272.9838 195.8104 L 271.3257 195.6066 L 269.4104 195.442 L 267.1122 195.2241 L 265.9662 194.9853 L 264.6887 194.7243 L 263.1658 194.6401 L 262.2652 194.5654 L 260.7423 194.642 L 259.8416 194.6812 L 258.3188 194.7422 L 258.2315 194.7452 L 258.2315 193.7369 C 262.602 193.525 266.6322 193.3052 270.23 193.0786 L 271.3452 193.1841 L 273.1709 193.341 L 274.7517 193.5357 L 276.0875 193.7075 L 277.6629 193.8549 L 279.2589 193.9917 L 280.7086 194.0458 L 281.5693 194.0683 L 283.0209 194.0439 L 283.8797 194.042 L 285.3317 193.9692 L 286.1904 193.9353 L 287.642 193.8271 L 288.8506 193.6946 L 289.9524 193.5765 L 292.1862 193.2515 L 293.7655 192.8907 L 294.5755 192.6443 L 295.7017 192.3711 L 296.8859 192.0667 L 297.87 191.8816 L 299.1966 191.6534 L 300.7942 191.418 L 302.495 191.1658 L 303.8193 191.0648 L 304.667 191.0218 L 305.666 190.9528 L 307.9372 190.6576 L 309.0093 190.5566 L 310.0963 190.504 L 311.458 190.493 L 312.2943 190.4576 L 314.1128 190.4538 L 315.3739 190.4408 L 316.2327 190.4332 L 317.6843 190.3977 L 318.545 190.3657 L 319.9947 190.3059 L 320.8553 190.2648 L 322.3054 190.1958 L 323.1661 190.1025 L 324.6177 189.9528 L 325.4765 189.8313 L 326.9281 189.6259 L 327.7869 189.4968 L 329.2389 189.28 L 330.6512 189.0484 L 331.5492 188.912 L 332.3951 188.7699 L 333.4501 188.6034 L 334.4208 188.4522 L 335.3154 188.312 L 336.1723 188.1886 L 337.0307 188.0503 L 338.4827 187.8091 L 339.3434 187.6411 L 340.7931 187.3402 L 341.6873 187 L 343.1038 186.4598 L 344.0186 185.7817 L 345.4161 184.6807 L 346.1137 183.9855 L 346.7405 183.2715 L 347.7265 182.0978 L 348.8398 180.758 L 349.388 180.0029 L 349.9119 179.3694 L 350.5162 178.5789 L 351.6817 177.0612 L 352.3477 176.1659 L 353.0022 175.327 L 353.8629 174.215 L 354.6599 173.1422 L 355.1613 172.4432 L 355.7153 171.5593 L 356.2015 170.7986 L 356.7928 169.7201 L 357.165 168.7764 L 357.5167 167.8271 L 357.687 166.9673 L 357.9678 165.517 L 358.1118 164.6594 L 358.3568 163.2091 L 358.5027 162.3512 L 358.7496 160.9009 L 358.9816 159.5553 L 359.15 158.5927 L 359.4324 156.9443 L 359.7021 155.4231 L 359.9619 153.9747 L 360.1265 153.1168 L 360.3997 151.6668 L 360.5475 150.807 L 360.7963 149.3586 L 360.9198 148.5155 L 361.047 147.6599 L 361.047 146.4412 L 360.9198 145.5852 L 360.7963 144.7406 L 360.6485 143.8827 L 360.3997 142.4324 L 360.2351 141.5745 L 359.9619 140.1246 L 359.7337 138.8556 L 359.5467 137.8163 L 359.2811 136.2593 L 358.9816 134.5458 L 358.7496 133.1983 L 358.6037 132.3404 L 358.3568 130.8901 L 358.2128 130.0303 L 357.9678 128.5819 L 357.7956 127.7224 L 357.5167 126.274 L 357.165 125.3228 L 356.7928 124.3788 L 356.2015 123.3026 L 355.7134 122.5399 L 355.1613 121.6561 L 354.6599 120.957 L 353.8629 119.8842 L 353.0022 118.7722 L 352.3477 117.933 L 351.6817 117.0396 L 350.965 116.1558 L 350.0373 114.9184 L 349.388 114.0963 L 348.8398 113.3413 L 348.0633 112.4216 L 347.0998 111.289 L 346.1137 110.1138 L 345.4161 109.4185 L 344.52 108.7252 L 343.3526 107.8056 L 342.3647 107.3572 L 340.7931 106.7591 L 339.9343 106.5926 L 338.4827 106.2916 L 337.622 106.1533 L 336.1723 105.9126 L 335.3135 105.7872 L 334.4228 105.647 L 333.4462 105.4973 L 332.3951 105.3293 L 331.5492 105.1891 L 330.6493 105.0508 L 329.2389 104.8211 L 328.3782 104.692 L 326.9281 104.4733 L 326.0678 104.3518 L 324.6177 104.1464 L 323.757 104.0546 L 322.3054 103.9034 L 321.4467 103.8623 L 319.9947 103.7929 L 319.1363 103.7613 L 317.6843 103.7015 L 316.8236 103.6939 L 315.3739 103.6584 L 314.328 103.6546 L 313.0631 103.6398 L 311.4599 103.6082 L 310.0963 103.5967 L 309.0112 103.5426 L 307.9372 103.4417 L 306.3339 103.2923 L 305.1235 103.055 L 303.8193 103.0344 L 302.8146 102.9091 L 301.507 102.8436 L 299.9765 102.6344 L 298.424 102.3072 L 296.8859 102.0325 L 295.7596 101.7468 L 294.5755 101.455 L 293.7655 101.2104 L 292.3904 100.8793 L 290.6375 100.6066 L 289.0658 100.4382 L 287.642 100.2721 L 286.7814 100.2401 L 285.3317 100.13 L 284.471 100.1281 L 283.0209 100.0553 L 282.1606 100.0778 L 280.7086 100.0534 L 279.8498 100.1094 L 278.3982 100.1635 L 276.8735 100.3018 L 275.0062 100.53 L 273.7771 100.6927 L 271.7864 100.8793 L 270.947 100.9651 C 267.1705 100.722 262.8946 100.4873 258.2315 100.2611 Z" id="room-127" stroke="currentColor" name="Escape Pods"/>
<path d="M 270.947 100.9651 L 271.7864 100.8793 L 273.7771 100.6927 L 275.0062 100.53 L 276.8735 100.3018 L 278.3982 100.1635 L 279.8498 100.1094 L 280.7086 100.0534 L 282.1606 100.0778 L 283.0209 100.0553 L 284.471 100.1281 L 285.3317 100.13 L 286.7814 100.2401 L 287.642 100.2721 L 289.0658 100.4382 L 290.6375 100.6066 L 292.3904 100.8793 L 293.7655 101.2104 L 294.5755 101.455 L 295.7596 101.7468 L 296.8859 102.0325 L 298.424 102.3072 L 299.9765 102.6344 L 301.507 102.8436 L 302.8146 102.9091 L 303.8193 103.0344 L 305.1235 103.055 L 306.3339 103.2923 L 307.9372 103.4417 L 309.0112 103.5426 L 310.0963 103.5967 L 311.4599 103.6082 L 313.0631 103.6398 L 314.328 103.6546 L 315.3739 103.6584 L 316.8236 103.6939 L 317.6843 103.7015 L 319.1363 103.7613 L 319.9947 103.7929 L 321.4467 103.8623 L 322.3054 103.9034 L 323.757 104.0546 L 324.6177 104.1464 L 326.0678 104.3518 L 326.9281 104.4733 L 328.3782 104.692 L 329.2389 104.8211 L 330.6493 105.0508 L 331.5492 105.1891 L 332.3951 105.3293 L 333.4462 105.4973 L 334.4228 105.647 L 335.3135 105.7872 L 336.1723 105.9126 L 337.622 106.1533 L 338.4827 106.2916 L 339.9343 106.5926 L 340.7931 106.7591 L 342.3647 107.3572 L 343.3526 107.8056 L 344.52 108.7252 L 345.4161 109.4185 L 346.1137 110.1138 L 347.0998 111.289 L 348.0633 112.4216 L 348.8398 113.3413 L 349.388 114.0963 L 350.0373 114.9184 L 350.965 116.1558 L 351.6817 117.0396 L 352.3477 117.933 L 353.0022 118.7722 L 353.8629 119.8842 L 354.6599 120.957 L 355.1613 121.6561 L 355.7134 122.5399 L 356.2015 123.3026 L 356.7928 124.3788 L 357.165 125.3228 L 357.5167 126.274 L 357.7956 127.7224 L 357.9678 128.5819 L 358.2128 130.0303 L 358.3568 130.8901 L 358.6037 132.3404 L 358.7496 133.1983 L 358.9816 134.5458 L 359.2811 136.2593 L 359.5467 137.8163 L 359.7337 138.8556 L 359.9619 140.1246 L 360.2351 141.5745 L 360.3997 142.4324 L 360.6485 143.8827 L 360.7963 144.7406 L 360.9198 145.5852 L 361.047 146.4412 L 361.047 147.6599 L 360.9198 148.5155 L 360.7963 149.3586 L 360.5475 150.807 L 360.3997 151.6668 L 360.1265 153.1168 L 359.9619 153.9747 L 359.7021 155.4231 L 359.4324 156.9443 L 359.15 158.5927 L 358.9816 159.5553 L 358.7496 160.9009 L 358.5027 162.3512 L 358.3568 163.2091 L 358.1118 164.6594 L 357.9678 165.517 L 357.687 166.9673 L 357.5167 167.8271 L 357.165 168.7764 L 356.7928 169.7201 L 356.2015 170.7986 L 355.7153 171.5593 L 355.1613 172.4432 L 354.6599 173.1422 L 353.8629 174.215 L 353.0022 175.327 L 352.3477 176.1659 L 351.6817 177.0612 L 350.5162 178.5789 L 349.9119 179.3694 L 349.388 180.0029 L 348.8398 180.758 L 347.7265 182.0978 L 346.7405 183.2715 L 346.1137 183.9855 L 345.4161 184.6807 L 344.0186 185.7817 L 343.1038 186.4598 L 341.6873 187 L 340.7931 187.3402 L 339.3434 187.6411 L 338.4827 187.8091 L 337.0307 188.0503 L 336.1723 188.1886 L 335.3154 188.312 L 334.4208 188.4522 L 333.4501 188.6034 L 332.3951 188.7699 L 331.5492 188.912 L 330.6512 189.0484 L 329.2389 189.28 L 327.7869 189.4968 L 326.9281 189.6259 L 325.4765 189.8313 L 324.6177 189.9528 L 323.1661 190.1025 L 322.3054 190.1958 L 320.8553 190.2648 L 319.9947 190.3059 L 318.545 190.3657 L 317.6843 190.3977 L 316.2327 190.4332 L 315.3739 190.4408 L 314.1128 190.4538 L 312.2943 190.4576 L 311.458 190.493 L 310.0963 190.504 L 309.0093 190.5566 L 307.9372 190.6576 L 305.666 190.9528 L 304.667 191.0218 L 303.8193 191.0648 L 302.495 191.1658 L 300.7942 191.418 L 299.1966 191.6534 L 297.87 191.8816 L 296.8859 192.0667 L 295.7017 192.3711 L 294.5755 192.6443 L 293.7655 192.8907 L 292.1862 193.2515 L 289.9524 193.5765 L 288.8506 193.6946 L 287.642 193.8271 L 286.1904 193.9353 L 285.3317 193.9692 L 283.8797 194.042 L 283.0209 194.0439 L 281.5693 194.0683 L 280.7086 194.0458 L 279.2589 193.9917 L 277.6629 193.8549 L 276.0875 193.7075 L 274.7517 193.5357 L 273.1709 193.341 L 271.3452 193.1841 L 270.23 193.0786 C 276.9809 192.6534 282.2097 192.2031 285.3096 191.73 C 286.9905 191.4736 292.0971 191.2389 292.5051 190.1486 C 294.8578 183.8624 296.2412 169.1185 297.702 169.3395 L 297.702 169.2005 C 309.2821 168.4366 318.4387 158.8117 318.4387 147.05 C 318.4387 135.2883 309.2821 125.6634 297.702 124.8995 L 297.702 124.6584 C 296.2412 124.8794 294.8578 110.1355 292.5051 103.8493 C 292.0971 102.759 286.9905 102.5243 285.3096 102.2679 C 282.3202 101.8116 277.3512 101.3765 270.947 100.9651 Z" id="room-128" stroke="currentColor" name="Escape Pod Control Room"/>
<path d="M 112.2792 197.6436 L 137.1859 197.6436 L 137.1859 210.6762 L 124.7325 223.7091 L 112.2792 223.7091 L 112.2792 197.6436 Z" id="room-129" stroke="currentColor" name="Chief Engineer's Office"/>
<path d="M 112.2792 96.3547 L 137.1859 96.3547 L 137.1859 83.3217 L 124.7325 70.2891 L 112.2792 70.2891 L 112.2792 96.3547 Z" id="room-130" stroke="currentColor" name="Voice Recognition Subprocessor"/>
<path d="M 112.2792 110.9622 L 112.2792 183.1378 C 105.356 179.0166 100.2384 164.4221 100.2384 147.05 C 100.2384 129.6779 105.356 115.0834 112.2792 110.9622 Z" id="room-131" stroke="currentColor" name="Engineering Observation Center"/>
<path d="M 112.2792 183.1378 L 112.2792 214.1654 L 59.3137 214.1654 L 59.3137 187.579 L 41.6886 187.579 L 41.6886 106.4189 L 59.3137 106.4189 L 59.3137 79.9346 L 112.2792 79.9346 L 112.2792 110.9622 C 105.356 115.0834 100.2384 129.6779 100.2384 147.05 C 100.2384 164.4221 105.356 179.0166 112.2792 183.1378 Z" id="room-132" stroke="currentColor" name="Main Engineering"/>
<path d="M 151.8323 70.0137 C 159.114 70.0137 165.0168 75.9102 165.0168 83.1842 C 165.0168 90.4578 159.114 96.3547 151.8323 96.3547 C 144.551 96.3547 138.6482 90.4578 138.6482 83.1842 C 138.6482 75.9102 144.551 70.0137 151.8323 70.0137 Z M 151.8323 197.6436 C 159.114 197.6436 165.0168 203.5401 165.0168 210.8141 C 165.0168 218.0877 159.114 223.9846 151.8323 223.9846 C 144.551 223.9846 138.6482 218.0877 138.6482 210.8141 C 138.6482 203.5401 144.551 197.6436 151.8323 197.6436 Z" id="room-133" stroke="currentColor" name="Auxillary Fuel Tank"/>
<path d="M 227.5606 143.0617 L 274.3509 143.0617 C 275.964 134.1805 282.8662 127.1396 291.6799 125.3136 C 289.7448 120.3909 288.265 113.9001 287.1083 110.0764 C 287.0321 109.8235 285.9397 109.6959 285.3096 109.6022 C 275.9743 108.2162 256.49 107.1869 233.8399 106.4246 C 229.9468 118.6328 227.8864 130.8455 227.5606 143.0617 Z" id="room-134" stroke="currentColor" name="Wardroom"/>
<path d="M 227.5606 150.8984 L 274.3509 150.8984 C 275.964 159.7797 282.8662 166.8202 291.6799 168.6465 C 289.7448 173.5689 288.265 180.0597 287.1083 183.8837 C 287.0321 184.1367 285.9397 184.2643 285.3096 184.3577 C 275.9743 185.7436 256.49 186.7733 233.8399 187.5352 C 229.9468 175.327 227.8864 163.1146 227.5606 150.8984 Z" id="room-135" stroke="currentColor" name="Messroom"/>
<path d="M 179.8705 188.8846 L 179.8705 105.1133 C 193.2859 105.3465 207.4004 105.6451 220.903 106.0261 C 213.3417 133.7515 213.7879 161.0426 220.9171 187.9714 C 207.4099 188.3528 193.2904 188.6514 179.8705 188.8846 Z" id="room-136" stroke="currentColor" name="Kitchen"/>
<path d="M 156.8074 141.2533 L 156.8074 122.8001 L 179.8983 122.8001 L 179.8983 141.2533 L 156.8074 141.2533 Z" id="room-137" stroke="currentColor" name="Crew Quarters"/>
<path d="M 172.782 171.159 L 156.8074 171.159 L 156.8074 152.6531 L 179.8983 152.6531 L 179.8983 171.159 L 172.782 171.159 Z" id="room-138" stroke="currentColor" name="Crew Quarters"/>
<path d="M 168.3529 189.5768 L 156.8074 189.5768 L 156.8074 171.159 L 179.8983 171.159 L 179.8983 189.5768 L 168.3529 189.5768 Z" id="room-139" stroke="currentColor" name="Crew Quarters"/>
<path d="M 120.2322 141.2533 L 120.2322 122.8001 L 143.3231 122.8001 L 143.3231 141.2533 L 120.2322 141.2533 Z" id="room-141" stroke="currentColor" name="Crew Quarters"/>
<path d="M 136.2067 171.159 L 120.2322 171.159 L 120.2322 152.6531 L 143.3231 152.6531 L 143.3231 171.159 L 136.2067 171.159 Z" id="room-142" stroke="currentColor" name="Crew Quarters"/>
<path d="M 131.7776 189.5768 L 120.2322 189.5768 L 120.2322 171.159 L 143.3231 171.159 L 143.3231 189.5768 L 131.7776 189.5768 Z" id="room-143" stroke="currentColor" name="Crew Quarters"/>
<path d="M 156.8074 104.3823 h 23.0909 v 18.4533 h -22.86 v -18.286 Z" id="room-144" stroke="currentColor" name="Crew Quarters"/>
</svg>