<svg viewBox="0 0 1000 772" version="1.1" xmlns="http://www.w3.org/2000/svg" xmlns:xlink="http://www.w3.org/1999/xlink" xml:space="preserve" style="fill-rule:evenodd;clip-rule:evenodd;stroke-miterlimit:1.41421;">
  <path d="M891.675,467.471L894.015,465.203L896.103,463.347L898.399,461.084L900.915,458.614L902.699,456.752L904.183,454.953L906.608,452.024L907.933,449.692L909.294,447.19L910.87,442.276L911.655,438.84L912.285,436.06L913.156,432.25L913.957,428.776L914.678,425.66L915.896,420.298L916.483,417.63L917.022,415.218L917.626,412.476L918.155,410.123L919.1,405.886L919.725,403.106L920.585,399.297L921.162,396.762L922.107,392.707L922.983,387.814L922.983,384.41L922.491,381.609L921.514,376.967L920.585,372.933L919.96,370.153L919.1,366.343L918.539,363.819L917.626,359.748L917.017,357.011L916.483,354.594L915.896,351.931L915.089,348.41L913.973,343.522L913.156,339.979L912.52,337.2L911.655,333.39L910.87,329.954L910.154,326.795L908.082,322.809L906.608,320.205L904.194,317.287L902.699,315.478L900.909,313.616L898.576,311.316L896.103,308.883L894.015,307.026L891.793,304.865L889.507,302.635L886.858,300.431L884.855,298.473L882.906,296.557L879.728,293.842L877.976,292.155L876.31,290.539L874.569,289.007L872.929,287.252L869.714,284.813L867.578,282.871L864.598,280.662L861.158,279.542L856.523,278.501L853.788,277.53L849.921,276.831L847.101,275.951L844.079,274.569L839.304,272.36L836.73,271.127L834.375,270.034L830.134,268.07L826.171,266.379L823.533,265.402L820.75,264.522L816.937,263.241L814.021,262.297L810.341,261.027L807.457,260.504L803.745,259.88L800.957,259.538L797.144,258.973L794.362,258.722L790.548,258.306L787.766,258.119L783.953,257.804L781.17,257.708L777.357,257.537L774.574,257.527L770.761,257.479L767.973,257.569L764.16,257.665L761.377,257.793L757.564,257.954L754.781,258.034L750.968,258.162L748.186,258.119L744.372,258.226L741.584,258.412L737.771,258.738L734.989,258.786L731.175,258.893L728.393,258.887L724.58,258.914L721.797,258.839L717.984,258.759L715.201,258.652L711.388,258.519L708.6,258.402L704.787,258.247L702.004,258.124L698.191,257.959L695.408,258.114L691.595,258.226L688.85,258.941L684.999,259.704L682.772,260.461L680.257,261.523L675.685,263.999L671.802,266.128L669.586,267.478L667.663,268.806L665.206,270.503L662.606,272.301L660.047,274.073L655.679,276.09L652.015,277.349L649.227,277.376L645.414,277.413L642.631,277.327L638.818,277.21L636.035,276.645L632.222,275.94L629.995,275.097L627.068,274.073L622.694,272.419L619.025,271.074L615.287,269.719L612.429,268.678L609.454,267.478L605.833,266.058L603.665,265.199L599.238,263.481L596.263,262.382L592.636,261.102L590.473,260.226L586.041,258.466L583.258,257.42L579.445,256.006L577.207,255.126L573.971,253.856L570.515,252.484L566.253,250.83L562.686,249.475L559.652,248.333L556.143,246.946L553.056,245.735L550.274,244.646L546.46,243.158L543.956,242.17L541.264,241.114L537.386,239.577L533.263,237.977L529.45,236.472L526.668,235.373L524.515,234.524L520.072,232.79L517.289,231.68L513.476,230.16L510.816,229.109L507.825,227.935L504.295,226.537L500.279,224.957L496.466,223.453L493.683,222.348L491.141,221.345L487.087,219.75L484.305,218.645L480.492,217.135L477.698,216.025L474.489,214.756L471.22,213.427L467.295,211.832L463.455,210.14L460.699,208.929L457.201,207.189L454.103,205.653L450.258,203.737L447.507,202.366L443.988,200.621L440.906,199.095L437.071,197.196L434.31,195.824L430.775,194.069L427.714,192.554L423.885,190.659L421.119,189.288L417.556,187.522L414.517,186.028L411.735,184.667L407.922,182.811L404.103,180.911L401.326,179.529L397.796,177.347L394.73,175.437L392.866,173.036L389.357,168.618L388.134,166.393L386.27,163.773L383.418,159.531L381.533,156.916L377.8,153.203L374.937,150.108L372.598,148.843L369.986,147.136L365.148,145.445L361.745,145.002L359.235,144.762L355.144,144.297L353.756,142.254L352.009,139.282L350.744,135.664L350.129,132.884L349.451,129.075L349.355,125.825L349.248,122.48L349.237,120.127L349.147,115.89L349.002,110.752L348.954,108.036L348.719,103.244L348.084,97.4605L347.603,94.3924L347.336,91.7353L345.515,85.8446L344.281,82.9367L341.953,78.9562L337.701,76.3471L335.357,74.8264L329.156,75.9469L323.052,77.1261L317.391,78.2359L312.776,79.1323L308.968,79.8686L306.394,80.3648L302.372,81.1332L296.407,82.3071L293.122,82.9367L289.795,83.6783L284.481,84.8362L279.653,85.8606L275.984,86.6343L273.586,87.1305L269.383,87.9896L263.065,89.2542L258.744,92.0768L256.191,93.3573L254.952,96.1159L253.627,100.15L252.704,102.711L249.595,107.988L248.127,114.001L247.16,118.713L246.337,122.48L245.558,125.649L244.73,129.075L243.085,135.509L240.537,139.81L238.417,142.254L236.398,144.495L233.995,144.66L229.802,145.012L227.036,145.018L223.207,145.023L177.025,145.023L174.184,145.092L170.429,145.204L167.973,146.373L165.249,146.784L162.68,148.251L159.876,150.535L157.238,152.226L154.477,155.433L152.084,157.738L149.729,160.518L145.857,165.779L144.041,168.313L141.942,171.248L138.887,175.207L134.326,179.161L130.849,181.786L128.131,183.579L124.253,186.129L122.144,187.511L119.361,189.347L114.587,192.511L111.056,194.853L108.29,196.689L104.461,199.229L102.303,200.659L99.515,202.505L94.8151,205.626L91.2636,207.985L88.5772,210.263L84.6677,213.662L81.8692,217.535L79.3644,221.345L79.1775,224.125L79.0172,227.935L80.5767,230.715L82.7665,234.524L84.6677,236.984L86.27,238.67L88.6093,241.114L91.2636,243.622L93.2664,245.287L96.129,247.709L101.673,252.047L104.461,254.192L107.072,256.006L111.056,258.935L114.309,260.888L116.386,262.366L120.771,265.007L124.253,267.163L126.454,268.278L130.849,270.69L133.578,271.816L136.008,273.086L141.653,275.487L144.041,276.602L146.802,277.301L150.637,278.405L156.645,280.075L161.201,280.662L163.497,280.892L169.441,281.548L175.685,282.204L178.911,282.54L181.474,282.813L186.281,283.314L190.222,283.725L193.416,284.061L196.818,284.419L199.387,284.685L203.414,285.107L208.386,285.63L211.329,285.939L215.756,286.404L223.127,287.172L229.151,287.802L235.544,288.474L237.867,288.719L241.184,289.066L245.237,289.488L249.595,289.946L252.607,290.261L256.191,290.635L259.096,290.939L262.787,291.328L267.343,291.803L271.038,292.193L274.713,292.577L277.009,292.817L282.083,293.345L286.81,293.842L289.175,294.444L293.977,295.64L298.666,296.733L302.372,297.587L304.696,298.11L307.168,298.633L310.117,299.284L315.532,300.399L319.57,303.024L322.16,304.7L325.834,307.026L328.756,310.27L330.353,312.026L333.034,315.937L335.207,320.061L338.278,323.876L340.505,326.795L344.73,330.61L347.795,333.39L351.694,336.837L354.461,339.296L358.648,343.069L361.745,345.843L363.422,351.478L364.031,355.448L364.608,359.748L365.388,362.699L366.317,366.343L368.341,372.325L370.168,377.698L371.839,382.617L373.025,386.112L372.042,389.004L370.787,392.707L368.651,398.982L366.83,404.376L365.618,408.607L364.613,412.476L364.272,415.005L363.727,419.065L362.734,424.668L358.648,429.161L355.235,432.25L351.694,435.393L348.549,438.178L344.735,441.62L341.953,444.127L338.284,448.353L335.357,451.939L333.034,456.293L331.811,458.614L328.756,461.959L325.84,465.203L323.575,466.617L319.57,469.21L315.698,471.793L310.117,472.946L307.163,473.596L304.696,474.119L302.372,474.648L299.323,475.341L295.771,476.174L289.961,477.598L286.831,478.388L282.98,478.788L277.009,479.412L274.713,479.653L271.038,480.037L267.343,480.426L262.787,480.901L259.972,481.2L256.191,481.595L253.125,481.915L249.595,482.283L247.154,482.539L242.999,482.977L237.862,483.516L235.549,483.756L230.513,484.284L223.901,484.978L217.3,485.666L211.329,486.29L208.386,486.6L205.358,486.92L201.016,487.373L196.818,487.811L193.646,488.147L190.222,488.504L187.445,488.793L183.626,489.193L178.905,489.689L175.69,490.025L171.327,490.484L164.207,491.231L161.222,491.567L157.644,491.978L152.549,493.472L147.64,494.838L144.041,495.628L141.653,496.743L138.097,498.157L136.003,499.149L133.84,500.291L130.849,501.54L128.473,502.895L124.894,504.746L122.502,506.112L117.652,508.972L115.58,510.45L112.797,512.232L107.345,516.01L104.653,517.931L101.934,519.964L97.8648,523.176L94.1316,526.191L91.2636,528.613L88.6093,531.11L87.007,532.802L84.6677,535.245L82.7718,537.705L81.207,540.485L79.0172,544.295L79.2095,547.075L79.3644,550.884L81.239,553.664L83.7492,557.474L87.7707,561.23L91.0446,564.064L93.7844,565.92L97.8648,568.626L100.92,570.658L103.077,572.088L107.548,575.05L110.859,577.248L113.604,579.068L117.652,581.751L120.798,583.838L122.908,585.22L127.447,588.202L130.822,590.427L133.461,592.418L137.445,595.486L141.904,600.933L143.87,603.612L145.819,606.408L148.687,610.201L150.637,613.067L153.029,615.366L156.132,618.749L159.876,621.695L162.012,623.381L163.834,625.035L167.973,625.856L170.429,627.025L173.313,627.094L177.025,627.206L223.207,627.206L225.973,627.212L229.802,627.217L232.403,627.377L236.398,627.735L238.417,629.976L240.537,632.419L242.999,636.437L244.164,641.015L245.472,646.218L246.337,649.744L246.855,652.092L247.747,656.339L248.938,662.081L251.79,667.518L253.627,672.08L254.952,676.108L256.191,678.872L258.744,680.153L262.226,682.698L268.101,683.984L271.332,684.645L275.984,685.6L279.039,686.235L282.58,686.988L288.065,688.178L293.106,689.293L295.771,689.8L300.861,690.797L304.61,691.528L308.968,692.361L311.922,692.932L315.564,693.641L321.369,694.778L326.999,695.882L334.064,697.174L337.707,695.882L340.425,694.154L343.224,691.16L345.269,686.934L347.053,682.698L347.603,677.832L348.084,674.769L348.549,671.253L348.954,664.194L349.002,661.478L349.131,658.191L349.163,654.242L349.248,649.744L349.35,646.495L349.451,643.155L350.071,640.375L350.749,636.565L351.854,634.132L353.761,629.976L355.144,627.937L359.235,627.468L361.745,627.228L364.875,626.844L368.341,626.465L372.603,623.381L374.937,622.121L377.298,619.486L379.915,616.791L382.959,613.253L385.095,610.201L386.959,607.582L388.684,604.802L392.118,600.053L394.511,597.022L396.925,595.411L401.326,592.706L404.103,591.318L406.885,589.931L410.704,588.058L414.517,586.201L417.503,584.734L420.216,583.389L423.719,581.655L427.714,579.676L430.743,578.176L433.466,576.827L436.964,575.087L440.906,573.134L443.972,571.614L446.706,570.258L450.204,568.519L454.103,566.577L457.19,565.045L459.93,563.685L463.433,562.1L467.295,560.403L470.141,559.24L473.89,557.714L477.127,556.428L480.492,555.094L483.274,553.99L487.087,552.48L489.742,551.439L492.417,550.383L496.231,548.873L500.279,547.272L503.099,546.157L506.88,544.668L510.272,543.334L513.476,542.07L516.259,540.96L520.072,539.439L522.849,538.356L525.594,537.278L529.375,535.79L533.263,534.253L536.067,533.159L539.865,531.67L543.47,530.251L546.46,529.072L549.243,527.983L553.056,526.495L555.839,525.406L558.066,524.521L562.397,522.861L566.253,521.399L569.025,520.316L572.849,518.817L575.092,517.931L579.445,516.223L582.227,515.178L586.041,513.764L588.711,512.713L592.102,511.341L594.591,510.429L599.238,508.748L601.988,507.67L605.833,506.171L608.077,505.296L610.704,504.255L615.233,502.532L619.025,501.155L621.567,500.211L625.626,498.669L629.958,497.148L632.222,496.289L635.005,495.724L638.818,495.019L641.6,494.929L645.414,494.817L648.202,494.843L652.015,494.881L655.07,495.926L658.611,497.17L661.965,499.485L665.206,501.726L667.428,503.258L669.586,504.746L671.802,506.102L675.156,507.953L678.398,509.746L681.549,511.341L684.999,512.526L688.85,513.289L691.595,514.004L694.378,514.159L698.191,514.271L700.973,514.148L704.787,513.982L707.575,513.865L711.388,513.71L714.17,513.609L717.984,513.47L720.766,513.396L724.58,513.316L727.362,513.31L731.175,513.337L733.958,513.38L737.771,513.492L740.559,513.678L744.372,514.004L747.155,513.961L750.968,514.068L753.751,514.148L757.564,514.276L760.346,514.409L764.16,514.564L766.948,514.655L770.761,514.751L773.543,514.74L777.357,514.692L780.139,514.596L783.953,514.425L786.735,514.239L790.548,513.924L793.336,513.678L797.144,513.257L799.932,512.915L803.745,512.35L806.651,511.928L809.802,511.341L812.846,510.45L816.937,508.988L819.72,508.108L823.533,506.827L825.952,505.947L829.044,504.746L833.274,502.735L836.73,501.102L839.17,499.939L843.021,498.157L847.101,496.279L849.921,495.398L853.788,494.699L856.523,493.728L859.364,492.73L863.118,492.122L866.366,489.86L869.714,487.416L871.856,485.794L874.569,483.222L876.31,481.691L877.982,480.074L879.728,478.388L881.496,476.83L884.855,473.751L886.863,471.793L889.507,469.595L891.675,467.471Z" stroke="currentColor" stroke-width="3" id="voyager-deck-15" />
  <path d="M782.659,456.235L782.659,460.271L708.047,460.271L708.047,396.469L445.302,396.469L445.302,525.232L190.198,525.232L217.781,507.64L424.344,507.64L424.344,264.36L219.462,264.36L190.198,246.768L445.302,246.768L445.302,375.531L708.047,375.531L708.047,311.729L782.659,311.729L782.659,313.006C781.634,319.385 780.742,325.947 779.992,332.667L729.004,332.667L729.004,375.531L738.923,375.531C738.01,378.866 737.523,382.376 737.523,386C737.523,389.624 738.01,393.134 738.923,396.469L729.004,396.469L729.004,439.333L780.309,439.333C780.989,445.093 781.775,450.732 782.659,456.235Z" stroke="currentColor" stroke-width="2" id="hallway"/>
  <path d="M777.167,346.394C799.061,346.394 816.81,364.126 816.81,386C816.81,407.874 799.061,425.606 777.167,425.606C755.272,425.606 737.523,407.874 737.523,386C737.523,364.126 755.272,346.394 777.167,346.394Z" id="room-191" stroke="currentColor" name="Transporter Room"/>
<path d="M634.801,488.236L469.726,552.997L466.584,554.243L463.562,555.443L460.06,556.869L457.402,557.955L453.796,559.539L450.524,561.019L447.965,562.29L445.082,563.72L441.441,565.534L438.174,567.158L435.621,568.424L432.758,569.844L429.077,571.668L425.81,573.292L423.266,574.553L420.438,575.953L416.708,577.802L413.436,579.421L410.902,580.677L408.114,582.047L404.553,583.781L400.987,585.531L398.388,586.826L395.795,588.122L391.685,590.648L389.43,592.153L387.196,594.983L383.989,599.418L382.378,602.014L380.637,604.461L378.642,607.311L375.799,610.615L373.355,613.131L371.151,615.593L368.971,616.769L364.991,619.649L361.754,620.003L358.831,620.361L356.487,620.586L352.666,621.024L351.375,622.928L349.594,626.809L348.562,629.081L347.928,632.639L347.35,635.235L347.255,638.355L347.16,641.389L347.08,645.59L347.05,649.277L346.931,652.347L346.886,654.883L346.507,661.476L346.073,664.759L345.624,667.62L345.11,672.164L343.444,676.12L341.534,680.067L338.92,682.862L336.382,684.477L332.98,685.683L326.382,684.477L321.125,683.445L315.703,682.384L312.301,681.721L309.543,681.188L305.473,680.411L301.972,679.728L297.219,678.796L294.73,678.323L290.022,677.281L284.899,676.17L281.593,675.468L278.74,674.875L274.395,673.983L271.378,673.365L265.891,672.164L262.639,669.787L260.255,668.591L259.098,666.01L257.861,662.248L256.146,657.988L253.482,652.91L252.37,647.548L251.537,643.582L251.053,641.389L250.245,638.096L249.023,633.237L247.936,628.962L245.637,625.21L243.657,622.928L241.771,620.835L238.04,620.501L235.611,620.351L232.035,620.346L229.452,620.341L190.198,620.341L190.198,525.232L445.62,525.232L445.593,396.851L635.692,396.631L634.801,488.236ZM634.801,283.882L469.726,219.121L466.584,217.876L463.562,216.675L460.06,215.25L457.402,214.163L453.796,212.579L450.524,211.099L447.965,209.828L445.082,208.398L441.441,206.584L438.174,204.96L435.621,203.694L432.758,202.274L429.077,200.45L425.81,198.826L423.266,197.565L420.438,196.165L416.708,194.316L413.436,192.697L410.902,191.441L408.114,190.071L404.553,188.337L400.987,186.588L398.388,185.292L395.795,183.997L391.685,181.47L389.43,179.965L387.196,177.135L383.989,172.7L382.378,170.104L380.637,167.657L378.642,164.807L375.799,161.504L373.355,158.987L371.151,156.526L368.971,155.35L364.991,152.469L361.754,152.116L358.831,151.757L356.487,151.533L352.666,151.094L351.375,149.191L349.594,145.309L348.562,143.037L347.928,139.479L347.35,136.883L347.255,133.763L347.16,130.729L347.08,126.528L347.05,122.841L346.931,119.771L346.886,117.235L346.507,110.643L346.073,107.359L345.624,104.499L345.11,99.9542L343.444,95.9978L341.534,92.0513L338.92,89.2558L336.382,87.6414L332.98,86.4355L326.382,87.6414L321.125,88.6728L315.703,89.7342L312.301,90.3969L309.543,90.9301L305.473,91.7074L301.972,92.3901L297.219,93.3219L294.73,93.7953L290.022,94.8367L284.899,95.9479L281.593,96.6505L278.74,97.2435L274.395,98.1354L271.378,98.7533L265.891,99.9542L262.639,102.331L260.255,103.527L259.098,106.108L257.861,109.87L256.146,114.131L253.482,119.208L252.37,124.57L251.537,128.536L251.053,130.729L250.245,134.023L249.023,138.881L247.936,143.156L245.637,146.908L243.657,149.191L241.771,151.284L238.04,151.617L235.611,151.767L232.035,151.772L229.452,151.777L190.198,151.777L190.198,246.886L445.62,246.886L445.593,375.267L635.692,375.487L634.801,283.882Z" id="room-182" stroke="currentColor" name="Water Storage"/>
<path d="M778.675,346.422C781.166,315.372 786.631,287.198 794.252,264.05L794.54,264.082L797.206,264.322L800.858,264.864L803.529,265.191L807.084,265.789L809.847,266.29L813.372,267.506L816.165,268.411L819.818,269.637L822.483,270.481L825.01,271.416L828.806,273.036L832.868,274.917L835.124,275.965L837.59,277.146L842.164,279.262L845.059,280.585L847.76,281.429L851.464,282.098L854.083,283.028L858.524,284.025L861.819,285.098L864.673,287.214L866.72,289.075L869.799,291.41L871.37,293.092L873.038,294.559L874.634,296.107L876.312,297.722L879.356,300.324L881.223,302.159L883.141,304.035L885.679,306.145L887.868,308.282L889.997,310.352L891.997,312.13L894.365,314.461L896.601,316.664L898.315,318.448L899.747,320.18L902.06,322.976L903.472,325.47L905.457,329.288L906.142,332.314L906.894,335.605L907.723,339.255L908.332,341.917L909.114,345.311L910.184,349.993L910.956,353.366L911.519,355.917L912.03,358.232L912.614,360.854L913.488,364.753L914.026,367.171L914.849,370.82L915.448,373.483L916.338,377.347L917.274,381.794L917.745,384.476L917.745,384.621C917.745,385.681 917.741,386.739 917.735,387.795L916.906,392.425L916,396.309L915.448,398.737L914.624,402.386L914.026,405.049L913.12,409.107L912.614,411.361L912.036,413.988L911.519,416.298L910.956,418.854L909.79,423.99L909.099,426.975L908.332,430.302L907.498,433.952L906.894,436.614L906.142,439.906L904.633,444.613L903.328,447.01L902.06,449.244L899.737,452.05L898.315,453.772L896.606,455.556L894.197,457.922L891.997,460.089L889.997,461.868L887.756,464.04L885.679,466.074L883.146,468.18L881.223,470.056L878.005,473.005L876.312,474.497L874.639,476.112L873.038,477.661L871.37,479.128L868.771,481.591L866.72,483.145L863.512,485.486L860.401,487.653L856.805,488.236L854.083,489.191L851.464,490.122L847.76,490.791L845.059,491.635L841.151,493.434L837.462,495.141L835.124,496.255L831.814,497.819L827.762,499.746L824.8,500.896L822.483,501.739L818.83,502.966L816.165,503.809L812.246,505.209L809.33,506.063L806.312,506.625L803.529,507.029L799.876,507.571L797.206,507.898L795.236,508.116C787.332,485.106 781.604,456.845 778.904,425.569C799.992,424.66 816.81,407.292 816.81,386C816.81,364.631 799.871,347.214 778.675,346.422Z" id="room-183" stroke="currentColor" name="Lower Deflector Array"/>
<path d="M365.47,330.99C378.75,307.907 400.175,292.922 424.344,292.922L424.344,479.078C400.229,479.078 378.846,464.159 365.559,441.164L368.079,438.499L371.232,435.159L374.27,431.875L377.907,427.1L378.792,421.145L379.277,416.829L379.581,414.141L380.475,410.029L381.554,405.532L383.175,399.798L385.077,393.129L386.195,389.193L387.069,386.119L386.014,382.404L384.526,377.175L382.9,371.464L381.098,365.107L380.27,361.233L379.576,358.097L379.063,353.526L378.521,349.307L377.028,343.318L374.27,340.369L370.542,336.359L368.079,333.745L365.47,330.99Z" id="room-184" stroke="currentColor" name="Cargo Airlock"/>
<path d="M416.267,478.515C405.929,496.373 386.604,508.388 364.47,508.388L244.881,508.388C234.875,508.388 225.442,505.933 217.155,501.591L220.002,501.21L223.347,500.763L225.779,500.441L228.777,500.042L231.556,499.667L235.232,499.179L239.035,498.672L241.688,498.315L244.265,497.969L249.495,497.272L255.276,496.504L261.067,495.729L265.478,495.14L267.503,494.872L272.003,494.27L275.642,493.781L277.78,493.495L280.872,493.084L283.557,492.727L286.869,492.286L289.334,491.953L293.324,491.422L296.561,490.988L299.779,490.559L301.79,490.291L307.02,489.594L310.392,489.147L313.134,488.265L318.223,486.675L321.333,485.745L324.004,484.971L326.039,484.381L328.2,483.797L330.787,483.071L335.675,481.784L339.066,478.901L342.574,476.005L344.558,474.427L347.112,470.805L349.787,467.07L350.859,464.479L352.893,459.618L355.457,455.614L358.67,450.896L361.107,448.097L364.447,444.254L366.207,442.268C378.001,462.062 395.868,475.65 416.267,478.515ZM366.115,329.886L363.788,327.263L361.103,324.16L357.403,319.9L355.452,316.642L352.762,312.382L350.859,307.778L348.51,303.411L347.112,301.451L344.553,297.829L341.335,295.232L339.066,293.361L335.53,290.431L330.787,289.186L328.205,288.459L326.039,287.875L324.004,287.291L320.758,286.338L316.651,285.117L312.446,283.783L310.374,283.109L306.234,282.555L301.79,281.966L299.779,281.698L296.561,281.269L293.324,280.834L289.334,280.304L286.102,279.869L283.557,279.529L280.418,279.112L277.78,278.761L273.963,278.248L270.413,277.778L267.508,277.391L265.473,277.117L259.874,276.366L254.598,275.663L248.143,274.805L244.265,274.287L241.688,273.941L237.333,273.358L233.806,272.887L231.556,272.589L228.576,272.19L225.779,271.815L222.327,271.356L218.117,270.796L216.767,270.613C225.148,266.145 234.719,263.612 244.881,263.612L364.47,263.612C386.604,263.612 405.929,275.627 416.267,293.485C395.815,296.358 377.908,310.009 366.115,329.886Z" id="room-185" stroke="currentColor" name="Lower Aft Sensors"/>
<path d="M94.9385,549.044L190.198,525.772L190.198,572.315L94.9385,549.044ZM94.9385,223.401L190.198,200.13L190.198,246.672L94.9385,223.401Z" id="room-186" stroke="currentColor" name="Lower Aft Laser Cannon Batteries"/>
<path d="M635.692,396.631h72.3024v63.29h-72v-63Z" id="room-187" stroke="currentColor" name="Water Pumping"/>
<path d="M635.692,459.921L782.659,459.921L788.84,487.122L635.692,487.367L635.692,459.921Z" id="room-188" stroke="currentColor" name="Lower Shield Control"/>
<path d="M635.692,283.75h72.3024v90.6088h-72v-90Z" id="room-189" stroke="currentColor" name="Recycling Center"/>
<path d="M707.995,262.68L794.424,264.05L782.659,311.869L707.995,311.869L707.995,262.68Z" id="room-190" stroke="currentColor" name="Waste Processing Center"/>
</svg>