<svg viewBox="0 0 381 294.1" version="1.1" xmlns="http://www.w3.org/2000/svg" xmlns:xlink="http://www.w3.org/1999/xlink" xml:space="preserve" style="fill-rule:evenodd;clip-rule:evenodd;stroke-miterlimit:1.41421;">
  <path d="M 352.3096 183.5915 L 353.2518 182.2563 L 354.7739 180.0608 L 356.8046 177.2375 L 357.3559 176.4954 L 358.6582 174.719 L 359.7916 173.1377 L 360.3959 172.2043 L 361.6943 169.6961 L 362.1664 167.269 L 362.3333 166.3158 L 362.616 164.6937 L 363.0618 162.171 L 363.5052 159.6609 L 363.951 157.1504 L 364.3964 154.6482 L 364.8216 152.2863 L 365.2815 149.6436 L 365.6602 147.1068 L 365.3039 144.5943 L 364.8768 142.125 L 364.4475 139.7322 L 363.967 137.0514 L 363.5235 134.553 L 363.08 132.0406 L 362.6362 129.5301 L 362.3577 127.9183 L 362.1908 126.9651 L 361.7408 124.5849 L 360.4508 121.9993 L 359.8404 121.0359 L 358.7233 119.4724 L 357.3559 117.6065 L 356.8046 116.8625 L 355.0749 114.47 L 353.3108 111.9271 L 352.3096 110.5104 L 351.5403 109.4269 L 349.8292 107.073 L 347.3242 104.7884 L 346.5245 104.3861 L 344.8012 103.6154 L 342.282 102.6238 L 339.9747 101.8695 L 337.262 101.0443 L 334.7409 100.3795 L 332.2278 99.8428 L 329.7151 99.4302 L 327.2832 99.0683 L 324.7518 98.8366 L 322.2045 98.6801 L 319.6773 98.5605 L 317.1539 98.4504 L 314.6248 98.3387 L 312.1198 98.229 L 307.0936 98.0134 L 304.5786 97.9117 L 302.0595 97.9383 L 299.5567 98.1719 L 297.0356 98.4869 L 294.5267 98.8366 L 292.0117 99.2005 L 289.4987 99.2492 L 286.9856 98.7532 L 284.495 98.0622 L 282.033 97.2473 L 280.1508 96.869 L 276.9318 96.3852 L 274.4187 96.0865 L 271.9056 95.8244 L 269.3906 95.7044 L 266.8775 95.7734 L 264.3668 96.0115 L 261.8739 96.1677 L 259.357 96.0377 L 256.8317 95.7817 L 254.3045 95.4278 L 251.7976 95.1859 L 249.2826 94.8812 L 246.7695 94.5192 L 245.8966 94.3242 L 244.2381 93.9623 L 241.7434 93.3242 L 239.2303 92.5272 L 236.7256 91.9112 L 234.2205 91.2712 L 231.6895 90.5839 L 229.1662 89.83 L 227.1781 89.3176 L 224.1484 88.5207 L 221.6353 87.8399 L 219.1344 87.1427 L 217.8912 86.8132 L 216.6115 86.478 L 214.0942 85.793 L 211.5731 85.1202 L 209.1294 84.4798 L 206.5694 83.7724 L 204.0404 83.1198 L 201.5273 82.4798 L 199.122 81.8474 L 196.5236 81.1381 L 193.9881 80.5343 L 191.4834 79.9388 L 189.0922 79.3777 L 186.4675 78.6866 L 183.9239 78.0119 L 181.4577 77.3552 L 179.2845 76.7841 L 176.3931 76.0115 L 173.88 75.2557 L 171.4382 74.5075 L 170.5775 74.237 L 168.8642 73.6922 L 166.329 72.8713 L 163.8727 72.0785 L 162.8512 71.7574 L 161.3192 71.2735 L 158.7817 70.5741 L 156.3011 69.9745 L 153.8067 69.9585 L 151.2936 69.9585 L 146.2674 69.9543 L 143.7524 69.9543 L 141.2394 69.9524 L 138.7263 69.9524 L 133.7005 69.9482 L 131.1855 69.9482 L 128.6725 69.9463 L 126.1594 69.944 L 123.6463 69.944 L 118.6205 69.9402 L 116.1052 69.9402 L 111.0794 69.936 L 108.5663 69.936 L 106.0533 69.9341 L 103.5402 69.9318 L 101.0252 69.9318 L 95.9994 69.928 L 93.4864 69.928 L 90.9733 69.9257 L 88.4602 69.9238 L 85.9452 69.9238 L 83.4321 69.9219 L 80.9191 69.9219 L 78.406 69.9196 L 75.8933 69.9177 L 73.3779 69.9421 L 70.8184 70.4339 L 68.3133 71.2164 L 66.9257 71.7025 L 65.8044 72.0926 L 63.2875 72.9608 L 60.7745 73.8286 L 59.6513 74.221 L 58.2511 74.7025 L 55.7483 75.5707 L 53.2333 76.538 L 50.7141 78.0931 L 49.2614 79.2112 L 48.2095 80.3678 L 47.2124 81.7152 L 47.54 84.1995 L 48.1035 85.0837 L 49.4953 86.7077 L 50.6086 87.8338 L 52.0309 89.2323 L 53.1236 90.2647 L 54.6739 91.7489 L 55.6428 92.6453 L 57.3355 94.2632 L 58.1616 95.0316 L 59.985 96.7776 L 60.6788 97.6008 L 62.4611 99.2919 L 60.7725 100.2839 L 58.2595 100.6092 L 55.7544 100.7353 L 53.2455 100.8245 L 50.7408 100.914 L 48.2338 101.0035 L 45.731 101.095 L 43.2302 101.1887 L 40.7396 101.2984 L 38.2612 101.41 L 35.795 101.522 L 33.3633 101.6336 L 31.0334 101.7415 L 29.3018 101.8207 L 28.0748 101.8756 L 25.6086 101.9914 L 23.0712 102.1095 L 20.5582 102.4344 L 18.1185 104.3434 L 16.4397 106.8474 L 16.108 109.3336 L 16.224 111.8437 L 17.8254 114.3379 L 20.4422 116.3543 L 22.9613 116.7162 L 25.4601 116.8929 L 27.4867 117.0312 L 30.3701 117.2225 L 32.9604 117.448 L 35.5101 118.3017 L 36.1917 119.3852 L 36.4542 121.8873 L 36.4745 124.3978 L 36.4787 126.908 L 36.4827 129.4185 L 36.4868 131.9309 L 36.5051 139.4621 L 36.5112 141.9745 L 36.5275 146.9951 L 36.5193 149.5057 L 36.5132 152.0158 L 36.5051 154.5282 L 36.4929 159.5489 L 36.4888 162.0594 L 36.4827 164.5718 L 36.4787 167.0819 L 36.4745 169.5925 L 36.4583 172.103 L 36.2263 174.6154 L 35.6057 175.7514 L 33.1435 176.6276 L 30.6672 176.8592 L 28.2294 177.0219 L 26.0929 177.1621 L 23.0712 177.3697 L 20.5582 177.6928 L 18.0614 179.518 L 16.2667 182.1424 L 16.1019 184.6567 L 16.4112 187.1691 L 17.9699 189.6023 L 20.4727 191.6351 L 22.9613 191.9825 L 25.4743 192.1044 L 27.6556 192.2062 L 29.2672 192.2812 L 30.5573 192.3384 L 32.5942 192.434 L 35.2923 192.5559 L 37.8867 192.6736 L 40.4466 192.7894 L 42.9943 192.9033 L 45.5295 192.9989 L 48.0567 193.0904 L 50.58 193.1818 L 53.103 193.2713 L 55.6222 193.3627 L 58.1414 193.4603 L 60.683 193.7509 L 62.4611 194.7266 L 60.7725 196.4097 L 60.0887 197.2268 L 58.2633 198.9731 L 57.4495 199.735 L 55.7544 201.3492 L 54.8 202.2395 L 53.2455 203.7191 L 52.1631 204.7458 L 50.7347 206.1401 L 49.6317 207.254 L 48.2236 208.8659 L 47.5846 209.7748 L 47.1796 212.2503 L 48.0974 213.6 L 49.1311 214.7772 L 50.6227 215.9498 L 52.7613 217.322 L 55.6367 218.4908 L 58.1577 219.3647 L 59.5598 219.8485 L 60.6685 220.2367 L 63.1755 221.1026 L 65.6863 221.9685 L 66.8015 222.3548 L 68.2017 222.847 L 70.7166 223.6394 L 73.2255 224.1457 L 75.7058 224.1823 L 80.732 224.1823 L 83.2451 224.1804 L 85.7601 224.1781 L 88.2731 224.1781 L 90.7862 224.1762 L 93.2989 224.1743 L 95.8139 224.1743 L 100.84 224.1701 L 103.355 224.1701 L 105.8681 224.1682 L 108.3812 224.1659 L 110.8942 224.1659 L 113.4092 224.164 L 115.9223 224.1621 L 118.4354 224.1621 L 120.9504 224.1598 L 123.4634 224.1579 L 125.9761 224.1579 L 128.4892 224.156 L 131.0042 224.1537 L 133.5173 224.1537 L 136.0303 224.1518 L 138.5434 224.1518 L 141.0584 224.1499 L 143.5715 224.1476 L 146.0845 224.1476 L 148.5995 224.1457 L 151.1126 224.1438 L 153.6253 224.1438 L 156.1384 224.1415 L 158.6716 223.5541 L 161.2011 222.863 L 162.6561 222.4078 L 163.6734 222.0866 L 166.1823 221.2775 L 168.7441 220.4481 L 170.4636 219.9015 L 171.3102 219.631 L 173.6968 218.9014 L 176.2895 218.1209 L 178.7961 217.4462 L 181.228 216.8077 L 183.7856 216.1288 L 186.3391 215.4519 L 188.4697 214.885 L 191.2289 214.224 L 193.8863 213.592 L 196.3891 213.0004 L 198.6968 212.3703 L 201.3094 211.6792 L 203.9363 211.0084 L 206.4433 210.3642 L 208.2969 209.8518 L 211.4104 209.0266 L 213.9864 208.3398 L 216.4975 207.6544 L 217.7263 207.3314 L 218.9797 207.0022 L 221.5294 206.2925 L 224.0383 205.6117 L 226.5514 204.9492 L 229.0542 204.3027 L 231.5775 203.5507 L 234.0925 202.8677 L 236.2638 202.3107 L 239.1126 201.6094 L 241.6313 200.8105 L 244.1444 200.1663 L 245.862 199.788 L 246.7695 199.5827 L 249.1725 199.2455 L 251.6856 198.9385 L 254.1986 198.6886 L 256.7216 198.3304 L 259.2183 198.0744 L 261.7215 197.9343 L 264.2304 198.0805 L 266.78 198.3183 L 269.2805 198.3918 L 271.7936 198.2756 L 274.3067 198.0154 L 276.8197 197.7209 L 279.3347 197.367 L 281.7278 196.924 L 284.2854 196.0969 L 286.8515 195.3811 L 289.4011 194.8668 L 291.902 194.9117 L 294.4147 195.2736 L 296.9278 195.623 L 299.455 195.9281 L 301.9516 196.1578 L 304.4769 196.186 L 306.982 196.0885 L 309.4951 195.9849 L 312.01 195.8771 L 314.5231 195.7674 L 317.0442 195.6576 L 319.5428 195.5479 L 322.0479 195.4298 L 324.5465 195.2816 L 327.0249 195.066 L 329.0129 194.7776 L 332.1162 194.2774 L 334.6312 193.7449 L 337.1442 193.0862 L 339.6592 192.3262 L 342.1578 191.5128 L 344.6831 190.5273 L 346.4288 189.7589 L 347.2529 189.3726 L 349.6075 187.2952 L 351.4653 184.7767 L 352.2528 183.6731 L 352.3096 183.5915 Z" stroke="currentColor" id="voyager-deck-7" />
  <path d="M 120.2322 112.3588 L 120.2322 165.9943 L 120.2642 165.9943 L 120.2642 166.0107 L 120.2695 166.0107 L 120.2695 175.5971 L 120.2642 175.5971 L 120.2642 189.6153 C 137.9574 189.485 181.9808 189.0701 220.9171 187.9714 C 213.7879 161.0426 213.3417 133.7515 220.903 106.0261 C 182.5558 104.9442 139.2772 104.5255 121.0795 104.3887 L 120.2322 104.3823 L 120.2322 112.3588 Z M 227.5934 151.0383 C 228.0167 163.2129 230.1408 175.391 233.8681 187.5722 C 256.506 186.8103 275.9781 185.7809 285.3096 184.3957 C 285.9397 184.302 287.0321 184.1744 287.1083 183.9215 C 288.2577 180.1222 289.7261 173.6893 291.6429 168.7787 C 282.8468 166.9406 275.9617 159.907 274.3509 151.0383 L 227.5934 151.0383 Z M 227.5606 143.0617 L 274.3509 143.0617 C 275.964 134.1805 282.8662 127.1396 291.6799 125.3136 C 289.7448 120.3909 288.265 113.9001 287.1083 110.0764 C 287.0321 109.8235 285.9397 109.6959 285.3096 109.6022 C 275.9743 108.2162 256.49 107.1869 233.8399 106.4246 C 229.9468 118.6328 227.8864 130.8455 227.5606 143.0617 Z M 112.2472 104.3823 L 112.2472 99.3288 L 112.2792 99.3288 L 112.2792 96.3547 C 112.2792 96.3547 116.5551 96.3905 123.785 96.4747 L 131.77 96.573 C 171.8001 97.0915 261.5173 98.6363 285.3096 102.2679 C 286.9905 102.5243 292.0971 102.759 292.5051 103.8493 C 294.8578 110.1355 296.2412 124.8794 297.702 124.6584 L 297.702 124.8995 C 309.2821 125.6634 318.4387 135.2883 318.4387 147.05 C 318.4387 158.8117 309.2821 168.4366 297.702 169.2005 L 297.702 169.3395 C 296.2412 169.1185 294.8578 183.8624 292.5051 190.1486 C 292.0971 191.2389 286.9905 191.4736 285.3096 191.73 C 261.5169 195.362 171.7998 196.9064 131.77 197.4249 L 123.785 197.5232 C 122.5182 197.5381 121.3424 197.5514 120.2642 197.5632 L 120.2642 197.6436 L 112.2792 197.6436 L 112.2792 189.6153 L 47.0615 189.6153 L 47.0615 181.6388 L 112.2792 181.6388 L 112.2792 175.5971 L 112.2472 166.0107 L 112.2472 112.3588 L 47.0615 112.3588 L 47.0615 104.3823 L 112.2472 104.3823 Z" stroke="currentColor"  id="hallway"/>
  <path d="M 291.4673 169.2363 L 291.4673 168.741 C 291.5256 168.754 291.5843 168.7665 291.6429 168.7787 C 291.5839 168.9296 291.5252 169.0824 291.4673 169.2363 Z M 291.4673 125.359 L 291.4673 124.7616 C 291.5374 124.9475 291.6083 125.1319 291.6799 125.3136 C 291.6086 125.3285 291.5382 125.3434 291.4673 125.359 Z M 341.405 189.6153 L 340.939 189.7974 L 338.5364 190.5791 L 336.1186 191.3098 L 333.7027 191.9433 L 331.2845 192.4553 L 328.3012 192.9361 L 326.3897 193.2134 L 324.007 193.4207 L 321.6048 193.5631 L 319.1965 193.6767 L 316.7943 193.7822 L 314.3703 193.8877 L 311.9544 193.9932 L 309.5362 194.0969 L 307.1203 194.1963 L 304.712 194.29 L 302.2843 194.263 L 299.884 194.042 L 297.4539 193.749 L 295.038 193.4127 L 292.6221 193.0648 L 291.4673 190.8126 C 292.0178 190.6347 292.4045 190.4176 292.5051 190.1486 C 294.8578 183.8624 296.2412 169.1185 297.702 169.3395 L 297.702 169.2005 C 309.2821 168.4366 318.4387 158.8117 318.4387 147.05 C 318.4387 135.2883 309.2821 125.6634 297.702 124.8995 L 297.702 124.6584 C 296.2412 124.8794 294.8578 110.1355 292.5051 103.8493 C 292.4045 103.5803 292.0178 103.3636 291.4673 103.1857 L 292.7276 101.047 L 295.1458 100.6972 L 297.558 100.3609 L 299.9815 100.058 L 302.3879 99.8332 L 304.8099 99.8077 L 307.2277 99.9056 L 309.644 100.0092 L 312.06 100.1129 L 314.4683 100.2184 L 316.8998 100.3258 L 319.3256 100.4313 L 321.7553 100.5468 L 324.2047 100.6972 L 326.6382 100.9197 L 328.976 101.2675 L 331.3923 101.6645 L 333.8082 102.1803 L 336.2321 102.8192 L 338.8397 103.6127 L 341.0582 104.3377 L 341.171 104.3823 L 331.7413 104.3823 L 331.7413 116.3912 L 353.8377 116.3912 L 355.0204 118.0274 L 355.5507 118.7425 L 356.8652 120.5368 L 357.9392 122.0393 L 358.526 122.9658 L 359.7665 125.4516 L 360.1989 127.74 L 360.3593 128.6566 L 360.6272 130.2063 L 361.0535 132.6197 L 361.4802 135.0353 L 361.9066 137.4369 L 362.3683 140.0148 L 362.781 142.3147 L 363.1921 144.6892 L 363.5342 147.1049 L 363.1703 149.5438 L 362.7284 152.084 L 362.3196 154.3549 L 361.8909 156.7606 L 361.4627 159.174 L 361.036 161.5878 L 360.6077 164.0129 L 360.3357 165.5726 L 360.1753 166.4888 L 359.7215 168.8222 L 358.4734 171.234 L 357.8924 172.1308 L 356.8027 173.6512 L 355.5507 175.3594 L 355.0204 176.0726 L 353.9174 177.6063 L 331.7413 177.6063 L 331.7413 189.6153 L 341.405 189.6153 Z" id="room-88" stroke="currentColor" name="Swimming Pool"/>
<path d="M 345.1254 177.6063 L 345.1254 116.3912 L 353.8377 116.3912 L 355.0204 118.0274 L 355.5507 118.7425 L 356.8652 120.5368 L 357.9392 122.0393 L 358.526 122.9658 L 359.7665 125.4516 L 360.1989 127.74 L 360.3593 128.6566 L 360.6272 130.2063 L 361.0535 132.6197 L 361.4802 135.0353 L 361.9066 137.4369 L 362.3683 140.0148 L 362.781 142.3147 L 363.1921 144.6892 L 363.5342 147.1049 L 363.1703 149.5438 L 362.7284 152.084 L 362.3196 154.3549 L 361.8909 156.7606 L 361.4627 159.174 L 361.036 161.5878 L 360.6077 164.0129 L 360.3357 165.5726 L 360.1753 166.4888 L 359.7215 168.8222 L 358.4734 171.234 L 357.8924 172.1308 L 356.8027 173.6512 L 355.5507 175.3594 L 355.0204 176.0726 L 353.9174 177.6063 L 345.1254 177.6063 Z" id="room-89" stroke="currentColor" name="Navigational Deflector Arrays"/>
<path d="M 341.405 189.6153 L 331.7413 189.6153 L 331.7413 177.6063 L 353.9174 177.6063 L 353.0681 178.7873 L 351.6047 180.8978 L 350.6991 182.1816 L 350.6442 182.2597 L 349.8872 183.3211 L 348.101 185.7424 L 345.8375 187.7394 L 345.045 188.1109 L 343.3667 188.8495 L 341.405 189.6153 Z M 353.8377 116.3912 L 331.7413 116.3912 L 331.7413 104.3823 L 341.171 104.3823 L 343.4803 105.2916 L 345.1372 106.0322 L 345.9061 106.4192 L 348.314 108.6159 L 349.9595 110.8787 L 350.6991 111.9203 L 351.6615 113.2826 L 353.3577 115.7272 L 353.8377 116.3912 Z" id="room-90" stroke="currentColor" name="Bow Launcher Complex"/>
<path d="M 323.9994 193.421 L 323.9994 189.6153 L 341.405 189.6153 L 340.939 189.7974 L 338.5364 190.5791 L 336.1186 191.3098 L 333.7027 191.9433 L 331.2845 192.4553 L 328.3012 192.9361 L 326.3897 193.2134 L 324.007 193.4207 L 323.9994 193.421 Z M 323.9994 104.3823 L 323.9994 100.6843 L 324.2047 100.6972 L 326.6382 100.9197 L 328.976 101.2675 L 331.3923 101.6645 L 333.8082 102.1803 L 336.2321 102.8192 L 338.8397 103.6127 L 341.0582 104.3377 L 341.171 104.3823 L 323.9994 104.3823 Z" id="room-91" stroke="currentColor" name="Upper Bow Laser Cannon Batteries"/>
<path d="M 227.5606 143.0617 L 274.3509 143.0617 C 275.964 134.1805 282.8662 127.1396 291.6799 125.3136 C 289.7448 120.3909 288.265 113.9001 287.1083 110.0764 C 287.0321 109.8235 285.9397 109.6959 285.3096 109.6022 C 275.9743 108.2162 256.49 107.1869 233.8399 106.4246 C 229.9468 118.6328 227.8864 130.8455 227.5606 143.0617 Z" id="room-92" stroke="currentColor" name="Flight Simulation Center"/>
<path d="M 227.5934 151.0383 C 228.0167 163.2129 230.1408 175.391 233.8681 187.5722 C 256.506 186.8103 275.9781 185.7809 285.3096 184.3957 C 285.9397 184.302 287.0321 184.1744 287.1083 183.9215 C 288.2577 180.1222 289.7261 173.6893 291.6429 168.7787 C 282.8468 166.9406 275.9617 159.907 274.3509 151.0383 L 227.5934 151.0383 Z" id="room-93" stroke="currentColor" name="Security Training Center"/>
<path d="M 173.1893 188.9966 L 173.1893 105.0013 C 188.5371 105.2486 205.1369 105.5811 220.903 106.0261 C 213.3417 133.7515 213.7879 161.0426 220.9171 187.9714 C 205.1464 188.4164 188.5413 188.7493 173.1893 188.9966 Z" id="room-94" stroke="currentColor" name="Theater"/>
<path d="M 101.1822 159.8689 C 107.2153 159.8689 112.1062 164.7547 112.1062 170.7814 C 112.1062 176.8082 107.2153 181.6936 101.1822 181.6936 C 95.149 181.6936 90.2585 176.8082 90.2585 170.7814 C 90.2585 164.7547 95.149 159.8689 101.1822 159.8689 Z M 72.9184 147.05 C 82.4949 147.05 90.2585 154.8052 90.2585 164.3718 C 90.2585 173.9384 82.4949 181.6936 72.9184 181.6936 C 63.3416 181.6936 55.5784 173.9384 55.5784 164.3718 C 55.5784 154.8052 63.3416 147.05 72.9184 147.05 Z M 101.1822 136.1378 C 107.2153 136.1378 112.1062 141.0232 112.1062 147.05 C 112.1062 153.0768 107.2153 157.9622 101.1822 157.9622 C 95.149 157.9622 90.2585 153.0768 90.2585 147.05 C 90.2585 141.0232 95.149 136.1378 101.1822 136.1378 Z M 72.9184 112.3336 C 82.4949 112.3336 90.2585 120.0888 90.2585 129.6554 C 90.2585 139.2221 82.4949 146.9772 72.9184 146.9772 C 63.3416 146.9772 55.5784 139.2221 55.5784 129.6554 C 55.5784 120.0888 63.3416 112.3336 72.9184 112.3336 Z M 101.1822 112.3336 C 107.2153 112.3336 112.1062 117.219 112.1062 123.2458 C 112.1062 129.2726 107.2153 134.1584 101.1822 134.1584 C 95.149 134.1584 90.2585 129.2726 90.2585 123.2458 C 90.2585 117.219 95.149 112.3336 101.1822 112.3336 Z" id="room-96" stroke="currentColor" name="Auxillary Fuel Cells"/>
<path d="M 173.3211 188.9943 C 150.7156 189.3589 130.8114 189.5379 120.2642 189.6153 L 120.2642 175.5971 L 120.2695 175.5971 L 120.2695 166.0107 L 120.2642 166.0107 L 120.2642 165.9943 L 120.2322 165.9943 L 120.2322 104.3823 L 121.0795 104.3887 C 131.8169 104.4695 151.2856 104.6482 173.3211 105.0036 L 173.3211 188.9943 Z" id="room-97" stroke="currentColor" name="Geology Lab"/>
<path d="M 146.8778 78.2527 L 135.3323 78.2527 L 135.3323 96.6701 L 158.4232 96.6701 L 158.4232 78.2527 L 146.8778 78.2527 Z" id="room-98" stroke="currentColor" name="Crew Quarters"/>
<path d="M 170.1188 78.6337 L 158.5733 78.6337 L 158.5733 97.0511 L 181.6642 97.0511 L 181.6642 78.6337 L 170.1188 78.6337 Z" id="room-99" stroke="currentColor" name="Crew Quarters"/>
<path d="M 66.0269 189.5071 h 23.0909 v 18.4533 h -22.86 v -18.286 Z" id="room-100" stroke="currentColor" name="Crew Quarters"/>
<path d="M 89.0469 207.9782 L 89.0469 189.525 L 112.1378 189.525 L 112.1378 207.9782 L 89.0469 207.9782 Z" id="room-101" stroke="currentColor" name="Crew Quarters"/>
<path d="M 128.1219 216.0965 L 112.1474 216.0965 L 112.1474 197.5906 L 135.2382 197.5906 L 135.2382 216.0965 L 128.1219 216.0965 Z" id="room-102" stroke="currentColor" name="Crew Quarters"/>
<path d="M 146.8778 215.6717 L 135.3323 215.6717 L 135.3323 197.2539 L 158.4232 197.2539 L 158.4232 215.6717 L 146.8778 215.6717 Z" id="room-103" stroke="currentColor" name="Crew Quarters"/>
<path d="M 170.1188 215.2907 L 158.5733 215.2907 L 158.5733 196.8729 L 181.6642 196.8729 L 181.6642 215.2907 L 170.1188 215.2907 Z" id="room-104" stroke="currentColor" name="Crew Quarters"/>
<path d="M 66.0269 85.9641 h 23.0909 v 18.4533 h -22.86 v -18.286 Z" id="room-105" stroke="currentColor" name="Crew Quarters"/>
<path d="M 89.0469 85.9458 L 89.0469 104.3994 L 112.1378 104.3994 L 112.1378 85.9458 L 89.0469 85.9458 Z" id="room-106" stroke="currentColor" name="Crew Quarters"/>
<path d="M 128.1219 77.8275 L 112.1474 77.8275 L 112.1474 96.3334 L 135.2382 96.3334 L 135.2382 77.8275 L 128.1219 77.8275 Z" id="room-107" stroke="currentColor" name="Crew Quarters"/>
</svg>