<svg viewBox="0 0 1000 772" version="1.1" xmlns="http://www.w3.org/2000/svg" xmlns:xlink="http://www.w3.org/1999/xlink" xml:space="preserve" style="fill-rule:evenodd;clip-rule:evenodd;stroke-miterlimit:1.41421;">
  <path d="M896.901,423.475L898.397,420.445L900.613,416.069L902.573,412.361L905.088,407.356L906.664,402.607L907.609,399.182L908.341,394.348L908.715,391.21L908.961,387.134L908.715,380.79L908.341,377.652L907.967,374.942L906.733,369.59L905.703,366.229L903.497,361.416L901.548,357.686L899.144,353.044L896.901,348.53L895.865,346.454L894.781,344.336L892.49,339.865L890.305,336.866L888.783,334.79L885.541,331.408L883.709,329.924L881.659,328.729L878.465,326.68L875.308,324.882L870.513,322.236L866.656,320.091L863.917,318.602L860.632,316.814L857.321,315.006L854.57,313.501L852.028,312.119L847.804,309.825L844.124,307.829L839.226,305.167L834.986,302.862L831.68,301.063L826.435,298.214L824.336,297.072L822.168,295.893L818.184,293.727L814.707,290.168L811.583,287.137L809.82,281.871L807.727,277.368L805.809,273.958L801.601,270.303L798.247,267.363L793.686,265.512L791.352,264.647L788.863,263.895L784.751,262.625L779.784,260.773L776.868,259.93L774.069,259.125L771.559,258.415L768.211,257.385L764.963,256.345L758.576,254.344L753.897,253.218L748.669,252.119L745.171,251.415L742.393,251.271L738.575,251.094L735.755,250.95L731.979,250.769L729.154,250.63L725.378,250.46L722.558,250.326L718.782,250.166L715.962,250.043L712.186,249.889L709.366,249.771L705.59,249.627L702.546,249.515L698.995,249.376L696.34,249.275L692.393,249.136L689.926,249.046L685.798,248.917L681.375,248.779L677.14,248.624L674.513,248.544L670.854,248.304L667.345,248.138L664.814,247.968L660.087,247.808L654.18,247.594L647.355,247.37L644.877,247.295L641.469,247.178L637.48,247.05L633.02,246.901L630.275,246.794L626.425,246.644L623.204,246.522L619.829,246.388L616.79,246.266L613.233,246.122L609.121,245.999L606.632,245.924L603.812,245.785L600.036,245.572L597.216,245.332L593.44,244.953L590.62,244.756L586.844,244.446L584.019,244.201L580.243,243.816L576.937,243.459L573.647,243.16L571.18,242.995L567.052,242.648L562.058,242.237L559.03,242.04L554.8,241.688L547.563,241.213L544.102,240.999L541.197,240.466L536.07,239.004L531.701,236.773L529.111,234.41L522.264,232.729L518.205,231.747L514.274,230.824L512.026,230.066L508.362,227.82L504.949,223.957L503.833,221.23L501.083,217.277L499.107,214.641L497.061,212.208L494.487,208.302L491.448,204.972L489.061,201.456L485.701,197.188L484.243,194.867L482.417,192.535L480.387,189.936L477.21,185.897L474.694,182.637L472.093,179.478L468.547,175.092L465.658,171.656L463.153,168.503L461.497,166.235L459.9,164.192L458.154,161.913L458.485,159.368L460.498,156.289L461.417,148.814L459.799,143.836L458.09,138.954L456.872,135.549L454.901,130.075L452.861,124.409L451.115,119.564L449.747,115.775L448.305,111.774L447.371,109.186L445.875,105.024L445,102.596L444.129,100.184L442.911,96.8122L441.71,93.4774L440.631,90.4894L439.402,87.1119L437.838,82.822L435.589,76.5952L433.399,71.3502L430.414,67.6579L428.513,65.9184L425.789,63.0478L423.962,61.0843L421.917,58.7419L417.436,56.4582L414.162,55.5991L409.884,55.5938L357.107,55.5938L354.794,55.6631L350.426,55.7165L347.173,56.4582L344.033,57.5254L340.647,58.6352L336.155,60.2732L333.506,61.335L330.238,62.6103L324.608,64.8406L320.015,66.516L316.362,67.8179L311.898,69.6427L309.767,71.825L307.497,73.9594L305.019,76.2323L303.171,78.1319L300.858,80.5169L298.62,82.822L296.575,84.9349L294.364,87.2079L292.228,89.4116L289.979,91.7326L287.87,93.8989L285.829,96.0065L283.378,98.5303L281.375,100.595L279.436,102.596L276.782,105.328L274.881,107.286L273.044,109.186L270.186,112.131L268.386,113.983L266.645,115.775L263.591,118.929L261.892,120.674L260.253,122.365L256.989,125.726L253.86,128.96L252.156,130.715L250.394,132.535L247.472,135.549L245.672,137.422L243.798,139.37L241.165,142.139L239.328,144.263L237.202,146.829L235.573,148.729L237.202,155.158L241.576,157.175L243.798,157.96L246.046,158.594L250.394,159.774L256.648,161.572L261.347,162.943L263.591,163.535L266.864,164.064L270.186,164.581L272.638,165.542L276.782,167.457L277.455,170.114L277.589,173.166L277.38,176.864L276.857,181.463L276.782,183.875L276.675,187.839L276.376,193.671L276.221,196.206L276.083,199.786L275.639,203.495L274.908,208.046L274.806,210.879L274.699,214.641L274.662,217.453L274.646,221.23L274.641,223.904L274.71,227.82L274.245,230.317L273.626,234.41L272.536,236.693L270.186,240.274L267.975,244.366L266.133,247.594L264.45,249.435L261.444,251.788L257.806,253.565L251.633,254.557L248.855,254.749L245.854,254.936L239.915,255.304L237.202,255.464L234.377,255.635L230.606,255.87L227.781,256.046L224.005,256.286L221.185,256.468L217.409,256.713L214.589,256.9L210.813,257.15L207.993,257.337L204.217,257.599L201.392,257.785L197.616,258.047L194.796,258.239L191.021,258.506L188.201,258.698L184.425,258.975L181.605,259.167L177.829,259.445L175.004,259.642L171.228,259.92L168.872,260.08L164.632,260.389L162.282,260.592L159.766,260.773L155.521,261.062L151.44,261.366L148.62,261.574L144.844,261.867L142.019,262.081L138.243,262.379L135.423,262.598L131.647,262.908L128.828,263.271L125.052,263.82L122.232,264.124L118.456,264.535L115.631,264.749L111.855,265.053L109.035,265.522L105.259,266.152L101.483,269.151L98.663,271.68L96.8632,273.958L95.7523,276.775L94.2516,280.548L94.4652,283.365L94.823,287.137L95.9179,289.954L97.424,293.727L101.782,298.417L103.812,300.322L108.389,301.853L111.855,302.365L114.68,302.493L118.456,302.669L121.276,302.803L125.052,302.974L127.872,303.107L131.647,303.288L134.467,303.416L138.243,303.593L141.069,303.721L144.844,303.897L147.664,304.03L151.44,304.201L154.26,304.334L158.036,304.505L160.856,304.638L164.632,304.814L168.702,305.081L171.228,305.231L173.893,306.212L176.387,306.911L173.893,307.786L171.228,309.142L169.503,311.105L169.962,313.501L167.254,315.299L164.632,317.039L161.881,318.869L159.056,320.742L155.777,323.591L152.567,326.68L150.105,330.18L148.204,333.275L147.67,336.092L147.072,339.865L147.072,432.135L147.606,434.953L148.198,438.725L149.539,440.881L151.44,443.975L154.826,447.486L158.036,450.576L160.034,451.909L162.789,453.74L167.249,456.701L169.957,458.499L169.503,460.895L171.228,462.853L173.893,464.214L176.382,465.089L173.893,465.788L171.228,466.775L168.707,466.919L164.632,467.191L161.812,467.319L158.036,467.495L155.216,467.628L151.44,467.799L148.62,467.933L144.844,468.103L142.019,468.237L138.243,468.407L135.423,468.541L131.647,468.717L128.828,468.85L125.052,469.026L122.232,469.154L118.456,469.331L115.631,469.464L111.855,469.635L108.458,470.136L105.259,470.606L101.809,473.556L98.663,476.518L96.3291,481.09L94.823,484.863L94.6094,487.68L94.2516,491.452L95.3624,494.27L96.8632,498.042L98.663,500.32L100.65,502.108L103.47,504.632L108.084,506.318L111.855,506.947L114.68,507.161L118.456,507.465L121.276,507.769L125.052,508.18L127.872,508.548L131.647,509.098L134.467,509.311L138.243,509.621L141.069,509.834L144.844,510.133L147.664,510.341L151.44,510.64L154.698,510.874L158.036,511.131L162.271,511.408L164.632,511.611L167.292,511.776L171.228,512.08L174.053,512.278L177.829,512.555L180.649,512.747L184.425,513.03L187.245,513.222L191.021,513.494L193.84,513.686L197.616,513.953L200.442,514.14L204.217,514.407L207.037,514.588L210.813,514.85L213.633,515.031L217.409,515.287L220.229,515.468L224.005,515.714L226.83,515.89L230.606,516.135L233.426,516.306L237.202,516.536L239.91,516.696L243.798,516.941L248.861,517.256L251.627,517.443L255.74,517.816L261.444,520.212L263.591,521.621L266.133,524.406L267.441,526.695L269.882,530.995L272.536,535.307L273.626,537.59L274.245,541.683L274.71,544.18L274.705,546.778L274.646,550.77L274.678,553.555L274.699,557.359L274.801,560.198L274.908,563.954L275.356,566.489L275.981,570.544L276.221,575.794L276.376,578.329L276.611,583.227L276.782,588.12L276.857,590.537L277.38,595.136L277.589,598.834L277.46,601.886L276.782,604.548L274.635,605.487L270.186,607.424L266.902,607.931L263.591,608.465L261.347,609.057L257.566,610.087L251.798,611.794L246.906,613.144L243.798,614.041L241.581,614.825L237.239,616.676L235.877,621.948L237.202,625.176L239.322,627.737L241.165,629.861L243.798,632.63L245.672,634.578L247.472,636.451L250.394,639.465L252.156,641.285L253.854,643.04L256.989,646.274L258.645,647.981L261.892,651.326L263.591,653.071L266.645,656.225L268.386,658.017L270.186,659.874L273.038,662.814L274.881,664.714L276.782,666.672L279.436,669.404L281.375,671.405L283.378,673.47L285.829,675.994L287.87,678.101L289.979,680.273L292.222,682.588L294.364,684.792L296.575,687.07L298.62,689.178L300.858,691.488L303.171,693.868L305.013,695.768L307.491,698.041L309.767,700.175L311.898,702.357L314.749,703.504L318.29,704.86L322.964,706.519L328.918,708.947L333.506,710.665L336.155,711.732L338.932,712.613L342.751,714.208L347.168,715.542L350.431,716.284L354.794,716.337L357.112,716.406L414.162,716.406L417.441,715.542L420.523,714.059L423.962,710.916L425.789,708.947L428.513,706.082L430.414,704.342L432.764,702.357L435.114,696.584L437.143,691.099L438.874,686.345L440.241,682.588L441.71,678.523L442.618,675.994L444.129,671.816L445,669.404L445.875,666.976L446.853,664.266L448.305,660.232L449.422,657.132L450.565,653.968L452.124,649.63L454.276,643.67L456.407,637.758L457.972,633.382L459.233,629.861L461.385,623.383L460.91,617.269L458.859,613.123L458.159,610.087L459.9,607.808L461.497,605.77L463.158,603.497L464.91,601.208L468.098,597.425L471.084,593.674L473.989,590.313L477.178,586.145L479.202,583.723L481.29,580.959L484.243,577.133L485.493,575.116L487.886,572.091L491.085,567.476L493.755,564.568L497.061,559.792L499.112,557.359L501.083,554.723L502.754,552.258L504.949,548.043L507.678,544.543L512.026,541.934L514.274,541.176L517.132,540.44L520.87,539.65L526.991,538.092L531.706,535.232L534.067,534.026L539.515,532.143L544.113,530.995L546.986,530.819L553.016,530.414L559.03,529.96L562.058,529.763L565.081,529.48L569.284,529.197L573.647,528.84L576.745,528.546L580.243,528.184L583.068,527.938L586.844,527.554L589.664,527.356L593.44,527.047L596.26,526.807L600.036,526.428L602.856,526.284L606.632,526.076L609.131,526.001L613.233,525.884L616.266,525.756L619.829,525.612L623.065,525.484L626.425,525.356L629.298,525.244L633.02,525.105L635.44,525.025L639.616,524.881L644.871,524.71L647.36,524.63L652.541,524.459L658.816,524.246L664.819,524.032L667.34,523.867L670.854,523.696L674.507,523.456L677.14,523.381L681.375,523.221L685.798,523.088L688.185,523.003L692.393,522.869L694.978,522.768L698.995,522.629L702.311,522.501L705.59,522.373L708.41,522.256L712.186,522.111L715.006,521.989L718.782,521.839L721.602,521.706L725.378,521.546L728.203,521.407L731.979,521.236L734.799,521.092L738.575,520.906L742.399,520.73L745.171,520.591L748.359,519.945L751.766,519.262L758.052,517.816L762.966,516.301L767.372,514.887L771.559,513.585L774.069,512.875L776.868,512.07L779.789,511.227L783.619,509.791L788.281,508.276L791.352,507.353L793.686,506.488L797.697,504.834L801.601,501.697L804.544,499.141L807.428,495.166L809.511,491.452L811.139,486.154L814.707,481.832L817.741,478.737L822.168,476.107L824.336,474.928L826.435,473.786L830.313,471.678L834.986,469.138L837.528,467.757L842.442,465.089L846.132,463.082L850.725,460.591L854.57,458.499L857.321,457L860.616,455.202L863.917,453.398L866.656,451.909L869.135,450.527L873.38,448.18L877.114,446.126L881.659,443.271L883.709,442.076L885.541,440.592L887.881,438.725L890.305,435.134L892.495,432.135L893.99,429.227L895.865,425.546L896.901,423.475Z" stroke="currentColor" stroke-width="3" id="voyager-deck-2" />
  <path d="M575.506,396.469L315.873,396.469L315.873,435.728L315.957,435.728L315.957,435.771L315.971,435.771L315.971,460.935L315.957,460.935L315.957,497.732C368.403,497.346 508.993,496.007 618.948,492.205C595.131,467.744 578.218,432.91 575.506,396.469ZM644.738,491.242C690.773,489.386 728.981,487.025 749.147,484.031C750.801,483.785 753.668,483.45 753.869,482.786C756.885,472.813 760.739,455.927 765.77,443.037C742.683,438.212 724.612,419.749 720.384,396.469C719.346,389.66 719.049,382.73 720.384,375.531C724.618,352.218 742.734,333.736 765.867,328.943C760.788,316.021 756.904,298.983 753.869,288.946C753.668,288.282 750.801,287.947 749.147,287.701C729.206,284.741 691.621,282.399 646.273,280.552C620.524,307.321 601.844,346.523 601.844,386.239C601.844,425.839 619.269,464.618 644.738,491.242ZM781.118,425.467C801.447,423.77 817.416,406.748 817.416,386C817.416,364.126 799.667,346.394 777.773,346.394C755.878,346.394 738.129,364.126 738.129,386C738.129,407.874 755.878,425.606 777.773,425.606C777.879,425.606 777.985,425.606 778.091,425.605C779.071,425.31 780.08,425.253 781.118,425.467ZM620.495,279.581C510.257,275.735 368.498,274.386 315.873,273.999L315.873,375.531L575.569,375.531C578.58,339.086 596.571,304.008 620.495,279.581ZM294.999,518.806L294.999,460.935L294.915,435.771L294.915,260.734L294.999,260.734L294.999,252.927C294.999,252.927 668.035,256.066 749.147,268.449C753.559,269.122 766.962,269.738 768.033,272.6C774.208,289.101 777.839,327.803 781.673,327.223L781.673,327.856C812.067,329.861 836.1,355.126 836.1,386C836.1,416.874 812.067,442.139 781.673,444.144L781.673,444.509C777.839,443.929 774.208,482.631 768.033,499.132C766.962,501.994 753.559,502.61 749.147,503.283C679.639,513.894 395.759,517.718 315.957,518.595L315.957,518.806L294.999,518.806ZM753.55,288.737L753.556,288.73L753.555,288.732L753.55,288.737Z" stroke="currentColor" stroke-width="2" id="hallway"/>
  <path d="M646.395,280.583C646.409,280.569 646.799,280.683 647.519,280.629C665.491,279.271 755.288,286.935 753.55,288.737C757.757,301.784 761.093,315.561 764.988,328.302C736.32,338.939 718.579,357.131 719.23,386.066C719.981,419.484 739.236,434.255 765.867,444.397C760.705,457.212 756.571,470.133 753.937,483.212C754.369,485.706 653.489,490.225 647.006,491.143C646.523,491.211 645.763,491.276 645.762,491.275C618.647,464.506 601.844,427.333 601.844,386.239C601.844,344.827 618.908,307.396 646.395,280.583Z" id="room-18" stroke="currentColor" name="Medical Center"/>
<path d="M191.557,313.754L294.915,282.234L294.915,489.766L191.557,457.687C151.772,409.091 154.183,361.151 191.557,313.754Z" id="room-19" stroke="currentColor" name="Shuttle Flight Deck"/>
<path d="M294.915,252.927L294.915,282.234L191.956,313.46C158.674,280.549 156.086,263.621 184.192,262.676C204.49,261.726 276.296,256.906 294.915,252.927Z" id="room-20" stroke="currentColor" name="Shuttle Control Room"/>
<path d="M816.955,322.899C826.296,321.316 835.114,318.752 833.884,313.395L836.524,314.831L838.39,315.845L841.741,317.665L845.425,319.669L847.435,320.764L850.267,322.311L853.224,323.925L856.206,325.559L858.298,326.697L862.149,328.869L865.352,330.661L868.886,332.635L872.156,334.706L875.686,336.911L878.412,338.568L879.966,340.802L882.519,344.501L883.846,346.538L885.904,349.709L887.26,351.789L888.535,353.745L890.242,356.368L891.848,358.842L894.098,362.306L895.536,364.549L898.186,368.638L900.152,371.808L902.263,375.632L904.62,379.212L905.38,381.758L905.178,384.592L905.178,387.494L905.192,391.976L903.725,394.402L901.682,397.909L900.152,400.273L897.787,404.078L895.536,407.532L893.214,411.14L891.848,413.244L890.242,415.714L888.535,418.337L887.265,420.287L885.904,422.377L883.846,425.543L881.432,429.045L879.966,431.279L878.412,433.513L874.027,436.203L872.161,437.38L868.088,439.898L864.597,441.843L860.351,444.231L856.946,446.124L856.206,446.528L852.667,448.459L850.267,449.77L847.44,451.317L844.328,453.013L840.299,455.199L838.39,456.242L836.524,457.25L832.446,459.47C833.764,453.705 824.728,451.206 815.504,449.691C836.354,439.304 851.039,414.968 851.249,386.536C851.25,386.358 851.251,386.179 851.251,386L851.251,385.952L851.251,385.919C851.251,357.888 837.18,333.753 816.955,322.899Z" id="room-21" stroke="currentColor" name="Stellar Cartography"/>
<path d="M810.227,451.969C798.147,447.856 775.867,448.402 783.998,444.491C784.49,444.255 784.977,444.014 785.46,443.77C814.04,440.011 836.1,415.579 836.1,386C836.1,355.722 812.985,330.837 783.424,327.998C774.949,324.551 799.32,324.888 811.878,320.509C834.787,329.835 851.251,355.598 851.251,385.919C851.251,416.964 833.992,443.23 810.227,451.969Z" id="room-22" stroke="currentColor" name="Astrometric Navigation"/>
<path d="M782.279,327.363C780.484,329.174 776.553,307.798 772.709,287.356L785.437,288.089L793.864,294.124L821.169,295.515C824.538,296.487 830.952,300.532 832.729,304.177C834.744,308.308 831.954,312.089 833.041,313.271C835.672,316.131 832.121,319.172 817.416,322.54C816.836,323.038 814.11,320.965 812.421,319.771C812.181,319.602 812.064,319.439 811.755,319.602C806.406,322.42 791.035,324.408 785.835,324.693C784.365,324.773 782.279,327.363 782.279,327.363ZM781.37,444.97C779.575,443.159 775.644,464.535 771.8,484.977L784.528,484.244L792.955,478.209L820.26,476.818C823.629,475.846 830.043,471.801 831.82,468.156C833.835,464.025 831.045,460.244 832.132,459.062C834.763,456.202 831.212,453.161 816.507,449.793C815.927,449.295 813.201,451.368 811.512,452.562C811.272,452.731 811.155,452.894 810.845,452.731C805.497,449.913 790.126,447.925 784.926,447.64C783.456,447.56 781.37,444.97 781.37,444.97Z" id="room-23" stroke="currentColor" name="Escape Pods"/>
<path d="M294.915,188.141h136.858v64.7861h-136v-64Z" id="room-24" stroke="currentColor" name="Air Filtration System"/>
<path d="M294.915,518.806h118.455v58.6415h-118v-58Z" id="room-25" stroke="currentColor" name="Auxiliary Life Support"/>
<path d="M575.506,396.469L315.873,396.469L315.873,435.728L315.957,435.728L315.957,435.771L315.971,435.771L315.971,460.935L315.957,460.935L315.957,497.732C368.403,497.346 508.993,496.007 618.948,492.205C595.131,467.744 578.218,432.91 575.506,396.469ZM620.495,279.581C510.257,275.735 368.498,274.386 315.873,273.999L315.873,375.531L575.569,375.531C578.58,339.086 596.571,304.008 620.495,279.581Z" id="room-26" stroke="currentColor" name="Fire Suppression Center"/>
</svg>