<svg viewBox="0 0 1000 772" version="1.1" xmlns="http://www.w3.org/2000/svg" xmlns:xlink="http://www.w3.org/1999/xlink" xml:space="preserve" style="fill-rule:evenodd;clip-rule:evenodd;stroke-miterlimit:1.41421;">
  <path d="M924.697,481.92L927.17,478.415L931.165,472.652L936.495,465.241L937.942,463.293L941.36,458.63L944.335,454.479L945.921,452.029L949.329,445.445L950.568,439.074L951.006,436.572L951.748,432.314L952.918,425.692L954.082,419.103L955.252,412.513L956.421,405.945L957.537,399.745L958.744,392.808L959.738,386.149L958.803,379.554L957.682,373.072L956.555,366.791L955.294,359.754L954.13,353.196L952.966,346.601L951.801,340.011L951.07,335.78L950.632,333.278L949.451,327.03L946.065,320.243L944.463,317.714L941.531,313.61L937.942,308.712L936.495,306.759L931.955,300.479L927.325,293.804L924.697,290.085L922.678,287.241L918.187,281.062L911.612,275.065L909.513,274.009L904.99,271.986L898.378,269.383L892.322,267.403L885.202,265.237L878.585,263.492L871.989,262.083L865.394,261L859.011,260.05L852.367,259.442L845.681,259.031L839.048,258.717L832.425,258.428L825.787,258.135L819.212,257.847L806.02,257.281L799.419,257.014L792.807,257.084L786.238,257.697L779.621,258.524L773.036,259.442L766.435,260.397L759.839,260.525L753.243,259.223L746.706,257.409L740.244,255.27L735.304,254.277L726.855,253.007L720.259,252.223L713.663,251.535L707.062,251.22L700.466,251.401L693.876,252.026L687.333,252.436L680.727,252.095L674.099,251.423L667.466,250.494L660.886,249.859L654.285,249.059L647.689,248.109L645.398,247.597L641.045,246.647L634.497,244.972L627.901,242.88L621.327,241.263L614.752,239.583L608.109,237.779L601.486,235.8L596.268,234.455L588.316,232.363L581.72,230.576L575.156,228.746L571.893,227.881L568.534,227.001L561.927,225.203L555.31,223.437L548.896,221.756L542.177,219.899L535.539,218.186L528.943,216.506L522.63,214.846L515.81,212.984L509.155,211.399L502.581,209.836L496.305,208.363L489.416,206.549L482.74,204.778L476.267,203.054L470.563,201.555L462.974,199.527L456.378,197.543L449.969,195.579L447.71,194.869L443.213,193.439L436.559,191.284L430.112,189.203L427.431,188.36L423.41,187.09L416.75,185.254L410.239,183.68L403.692,183.638L397.096,183.638L383.904,183.627L377.303,183.627L370.707,183.622L364.111,183.622L350.92,183.611L344.319,183.611L337.723,183.606L331.127,183.6L324.531,183.6L311.34,183.59L304.738,183.59L291.547,183.579L284.951,183.579L278.355,183.574L271.759,183.568L265.158,183.568L251.967,183.558L245.371,183.558L238.775,183.552L232.179,183.547L225.578,183.547L218.982,183.542L212.386,183.542L205.79,183.536L199.195,183.531L192.593,183.595L185.875,184.886L179.3,186.94L175.658,188.216L172.715,189.24L166.109,191.519L159.513,193.797L156.565,194.827L152.89,196.091L146.321,198.37L139.72,200.909L133.108,204.991L129.295,207.926L126.534,210.962L123.917,214.499L124.777,221.02L126.256,223.341L129.909,227.604L132.831,230.56L136.564,234.231L139.432,236.941L143.501,240.837L146.044,243.19L150.487,247.437L152.655,249.454L157.441,254.037L159.262,256.198L163.94,260.637L159.508,263.241L152.912,264.095L146.337,264.426L139.752,264.66L133.178,264.895L126.598,265.13L120.029,265.37L113.465,265.616L106.928,265.904L100.423,266.197L93.95,266.491L87.5678,266.784L81.4526,267.067L76.9076,267.275L73.6872,267.419L67.2142,267.723L60.5542,268.033L53.9585,268.886L47.555,273.897L43.1488,280.47L42.2783,286.996L42.5827,293.585L46.7858,300.132L53.654,305.425L60.2659,306.375L66.8244,306.839L72.1437,307.202L79.7115,307.704L86.5103,308.296L93.2023,310.537L94.9914,313.381L95.6803,319.949L95.7337,326.539L95.7445,333.128L95.7551,339.718L95.7658,346.313L95.8139,366.082L95.8299,372.677L95.8726,385.856L95.8513,392.446L95.8352,399.035L95.8139,405.63L95.7818,418.809L95.7712,425.399L95.7551,431.994L95.7445,438.583L95.7337,445.173L95.6911,451.763L95.0822,458.358L93.4533,461.34L86.9909,463.64L80.4913,464.248L74.093,464.675L68.4853,465.043L60.5542,465.588L53.9585,466.436L47.4053,471.227L42.6948,478.116L42.2623,484.716L43.074,491.311L47.1651,497.698L53.7341,503.034L60.2659,503.946L66.8617,504.266L72.587,504.533L76.8168,504.73L80.2029,504.88L85.549,505.131L92.6308,505.451L99.4402,505.76L106.159,506.064L112.846,506.363L119.5,506.614L126.133,506.854L132.756,507.094L139.378,507.329L145.99,507.569L152.602,507.825L159.273,508.588L163.94,511.149L159.508,515.567L157.713,517.712L152.922,522.296L150.786,524.296L146.337,528.533L143.832,530.87L139.752,534.754L136.911,537.449L133.162,541.109L130.267,544.033L126.571,548.264L124.894,550.65L123.831,557.148L126.24,560.691L128.953,563.781L132.868,566.859L138.481,570.461L146.028,573.529L152.645,575.823L156.325,577.093L159.235,578.112L165.815,580.385L172.405,582.658L175.332,583.672L179.007,584.964L185.608,587.044L192.193,588.373L198.703,588.469L211.895,588.469L218.491,588.464L225.092,588.458L231.688,588.458L238.284,588.453L244.879,588.448L251.48,588.448L264.672,588.437L271.273,588.437L277.869,588.432L284.465,588.426L291.061,588.426L297.662,588.421L304.258,588.416L310.854,588.416L317.455,588.41L324.051,588.405L330.646,588.405L337.242,588.4L343.843,588.394L350.439,588.394L357.035,588.389L363.631,588.389L370.232,588.384L376.828,588.378L383.424,588.378L390.025,588.373L396.621,588.368L403.216,588.368L409.812,588.362L416.461,586.82L423.1,585.006L426.919,583.811L429.589,582.968L436.174,580.844L442.898,578.667L447.411,577.232L449.633,576.522L455.897,574.607L462.702,572.558L469.281,570.787L475.664,569.111L482.377,567.329L489.079,565.552L494.671,564.064L501.913,562.329L508.888,560.67L515.457,559.117L521.514,557.463L528.371,555.649L535.266,553.888L541.846,552.197L546.711,550.852L554.883,548.686L561.644,546.883L568.235,545.084L571.46,544.236L574.75,543.372L581.442,541.509L588.027,539.722L594.623,537.983L601.192,536.286L607.815,534.312L614.416,532.519L620.115,531.057L627.592,529.216L634.203,527.119L640.799,525.428L645.307,524.435L647.689,523.896L653.996,523.011L660.592,522.205L667.188,521.549L673.81,520.609L680.363,519.937L686.933,519.569L693.518,519.953L700.21,520.577L706.773,520.77L713.369,520.465L719.965,519.782L726.561,519.009L733.162,518.08L739.443,516.917L746.156,514.746L752.891,512.867L759.583,511.517L766.147,511.635L772.742,512.585L779.338,513.502L785.971,514.303L792.524,514.906L799.152,514.98L805.727,514.724L812.323,514.452L818.924,514.169L825.52,513.881L832.137,513.593L838.695,513.305L845.27,512.995L851.828,512.606L858.333,512.04L863.551,511.283L871.696,509.97L878.297,508.572L884.893,506.843L891.494,504.848L898.052,502.713L904.68,500.126L909.262,498.109L911.425,497.095L917.605,491.642L922.481,485.031L924.548,482.134L924.697,481.92Z" stroke="currentColor" stroke-width="3" id="voyager-deck-7" />
  <path d="M315.57,294.937L315.57,435.728L315.654,435.728L315.654,435.771L315.668,435.771L315.668,460.935L315.654,460.935L315.654,497.732C362.093,497.39 477.64,496.301 579.835,493.417C561.123,422.73 559.952,351.092 579.798,278.314C479.149,275.474 365.557,274.375 317.794,274.016L315.57,273.999L315.57,294.937ZM597.358,396.469C598.469,428.427 604.044,460.394 613.827,492.369C673.244,490.369 724.352,487.667 748.844,484.031C750.498,483.785 753.365,483.45 753.565,482.786C756.582,472.813 760.436,455.927 765.467,443.037C742.38,438.212 724.309,419.749 720.081,396.469L597.358,396.469ZM597.272,375.531L720.081,375.531C724.315,352.218 742.431,333.736 765.564,328.943C760.485,316.021 756.601,298.983 753.565,288.946C753.365,288.282 750.498,287.947 748.844,287.701C724.342,284.063 673.202,281.361 613.753,279.36C603.535,311.406 598.127,343.464 597.272,375.531ZM294.612,273.999L294.612,260.734L294.696,260.734L294.696,252.927C294.696,252.927 305.919,253.021 324.895,253.242L345.853,253.5C450.919,254.861 686.397,258.916 748.844,268.449C753.256,269.122 766.659,269.738 767.73,272.6C773.905,289.101 777.536,327.803 781.37,327.223L781.37,327.856C811.764,329.861 835.797,355.126 835.797,386C835.797,416.874 811.764,442.139 781.37,444.144L781.37,444.509C777.536,443.929 773.905,482.631 767.73,499.132C766.659,501.994 753.256,502.61 748.844,503.283C686.396,512.817 450.918,516.871 345.853,518.232L324.895,518.49C321.57,518.529 318.484,518.564 315.654,518.595L315.654,518.806L294.696,518.806L294.696,497.732L123.521,497.732L123.521,476.794L294.696,476.794L294.696,460.935L294.612,435.771L294.612,294.937L123.521,294.937L123.521,273.999L294.612,273.999Z" stroke="currentColor" stroke-width="2" id="hallway"/>
  <path d="M765.006,444.238L765.006,442.938C765.159,442.972 765.313,443.005 765.467,443.037C765.312,443.433 765.158,443.834 765.006,444.238ZM765.006,329.062L765.006,327.494C765.19,327.982 765.376,328.466 765.564,328.943C765.377,328.982 765.192,329.021 765.006,329.062ZM896.076,497.732L894.853,498.21L888.547,500.262L882.201,502.18L875.86,503.843L869.513,505.187L861.683,506.449L856.666,507.177L850.412,507.721L844.107,508.095L837.786,508.393L831.481,508.67L825.119,508.947L818.778,509.224L812.431,509.496L806.09,509.757L799.769,510.003L793.397,509.932L787.097,509.352L780.719,508.583L774.378,507.7L768.037,506.787L765.006,500.875C766.451,500.408 767.466,499.838 767.73,499.132C773.905,482.631 777.536,443.929 781.37,444.509L781.37,444.144C811.764,442.139 835.797,416.874 835.797,386C835.797,355.126 811.764,329.861 781.37,327.856L781.37,327.223C777.536,327.803 773.905,289.101 767.73,272.6C767.466,271.894 766.451,271.325 765.006,270.858L768.314,265.244L774.661,264.326L780.992,263.443L787.353,262.648L793.669,262.058L800.026,261.991L806.372,262.248L812.714,262.52L819.055,262.792L825.376,263.069L831.758,263.351L838.125,263.628L844.502,263.931L850.931,264.326L857.318,264.91L863.454,265.823L869.796,266.865L876.137,268.219L882.499,269.896L889.343,271.979L895.166,273.882L895.462,273.999L870.712,273.999L870.712,305.522L928.708,305.522L931.812,309.817L933.204,311.694L936.654,316.404L939.473,320.348L941.013,322.78L944.269,329.305L945.404,335.312L945.825,337.718L946.528,341.786L947.647,348.121L948.767,354.462L949.886,360.766L951.098,367.533L952.181,373.57L953.26,379.803L954.158,386.144L953.203,392.546L952.043,399.214L950.97,405.175L949.845,411.49L948.721,417.825L947.601,424.161L946.477,430.527L945.763,434.621L945.342,437.026L944.151,443.151L940.875,449.482L939.35,451.836L936.49,455.827L933.204,460.311L931.812,462.183L928.917,466.209L870.712,466.209L870.712,497.732L896.076,497.732Z" id="room-88" stroke="currentColor" name="Swimming Pool"/>
<path d="M905.841,466.209L905.841,305.522L928.708,305.522L931.812,309.817L933.204,311.694L936.654,316.404L939.473,320.348L941.013,322.78L944.269,329.305L945.404,335.312L945.825,337.718L946.528,341.786L947.647,348.121L948.767,354.462L949.886,360.766L951.098,367.533L952.181,373.57L953.26,379.803L954.158,386.144L953.203,392.546L952.043,399.214L950.97,405.175L949.845,411.49L948.721,417.825L947.601,424.161L946.477,430.527L945.763,434.621L945.342,437.026L944.151,443.151L940.875,449.482L939.35,451.836L936.49,455.827L933.204,460.311L931.812,462.183L928.917,466.209L905.841,466.209Z" id="room-89" stroke="currentColor" name="Navigational Deflector Arrays"/>
<path d="M896.076,497.732L870.712,497.732L870.712,466.209L928.917,466.209L926.688,469.309L922.847,474.849L920.47,478.219L920.326,478.424L918.339,481.21L913.651,487.566L907.71,492.808L905.63,493.783L901.225,495.722L896.076,497.732ZM928.708,305.522L870.712,305.522L870.712,273.999L895.462,273.999L901.523,276.386L905.872,278.33L907.89,279.346L914.21,285.112L918.529,291.052L920.47,293.786L922.996,297.362L927.448,303.779L928.708,305.522Z" id="room-90" stroke="currentColor" name="Bow Launcher Complex"/>
<path d="M850.392,507.722L850.392,497.732L896.076,497.732L894.853,498.21L888.547,500.262L882.201,502.18L875.86,503.843L869.513,505.187L861.683,506.449L856.666,507.177L850.412,507.721L850.392,507.722ZM850.392,273.999L850.392,264.292L850.931,264.326L857.318,264.91L863.454,265.823L869.796,266.865L876.137,268.219L882.499,269.896L889.343,271.979L895.166,273.882L895.462,273.999L850.392,273.999Z" id="room-91" stroke="currentColor" name="Upper Bow Laser Cannon Batteries"/>
<path d="M597.272,375.531L720.081,375.531C724.315,352.218 742.431,333.736 765.564,328.943C760.485,316.021 756.601,298.983 753.565,288.946C753.365,288.282 750.498,287.947 748.844,287.701C724.342,284.063 673.202,281.361 613.753,279.36C603.535,311.406 598.127,343.464 597.272,375.531Z" id="room-92" stroke="currentColor" name="Flight Simulation Center"/>
<path d="M597.358,396.469C598.469,428.427 604.044,460.394 613.827,492.369C673.244,490.369 724.352,487.667 748.844,484.031C750.498,483.785 753.365,483.45 753.565,482.786C756.582,472.813 760.436,455.927 765.467,443.037C742.38,438.212 724.309,419.749 720.081,396.469L597.358,396.469Z" id="room-93" stroke="currentColor" name="Security Training Center"/>
<path d="M454.565,496.108L454.565,275.624C494.848,276.273 538.417,277.146 579.798,278.314C559.952,351.092 561.123,422.73 579.835,493.417C538.442,494.585 494.859,495.459 454.565,496.108Z" id="room-94" stroke="currentColor" name="Theater"/>
<path d="M265.57,419.649C281.405,419.649 294.242,432.474 294.242,448.294C294.242,464.114 281.405,476.938 265.57,476.938C249.735,476.938 236.899,464.114 236.899,448.294C236.899,432.474 249.735,419.649 265.57,419.649ZM191.387,386C216.522,386 236.899,406.357 236.899,431.469C236.899,456.581 216.522,476.938 191.387,476.938C166.251,476.938 145.875,456.581 145.875,431.469C145.875,406.357 166.251,386 191.387,386ZM265.57,357.356C281.405,357.356 294.242,370.18 294.242,386C294.242,401.82 281.405,414.644 265.57,414.644C249.735,414.644 236.899,401.82 236.899,386C236.899,370.18 249.735,357.356 265.57,357.356ZM191.387,294.871C216.522,294.871 236.899,315.228 236.899,340.34C236.899,365.452 216.522,385.809 191.387,385.809C166.251,385.809 145.875,365.452 145.875,340.34C145.875,315.228 166.251,294.871 191.387,294.871ZM265.57,294.871C281.405,294.871 294.242,307.695 294.242,323.515C294.242,339.335 281.405,352.16 265.57,352.16C249.735,352.16 236.899,339.335 236.899,323.515C236.899,307.695 249.735,294.871 265.57,294.871Z" id="room-96" stroke="currentColor" name="Auxillary Fuel Cells"/>
<path d="M454.911,496.102C395.579,497.059 343.337,497.529 315.654,497.732L315.654,460.935L315.668,460.935L315.668,435.771L315.654,435.771L315.654,435.728L315.57,435.728L315.57,273.999L317.794,274.016C345.976,274.228 397.075,274.697 454.911,275.63L454.911,496.102Z" id="room-97" stroke="currentColor" name="Geology Lab"/>
<path d="M385.506,205.41L355.203,205.41L355.203,253.755L415.809,253.755L415.809,205.41L385.506,205.41Z" id="room-98" stroke="currentColor" name="Crew Quarters"/>
<path d="M446.506,206.41L416.203,206.41L416.203,254.755L476.809,254.755L476.809,206.41L446.506,206.41Z" id="room-99" stroke="currentColor" name="Crew Quarters"/>
<path d="M173.299,497.448h60.6061v48.4392h-60v-48Z" id="room-100" stroke="currentColor" name="Crew Quarters"/>
<path d="M233.719,545.934L233.719,497.495L294.325,497.495L294.325,545.934L233.719,545.934Z" id="room-101" stroke="currentColor" name="Crew Quarters"/>
<path d="M336.278,567.244L294.35,567.244L294.35,518.667L354.956,518.667L354.956,567.244L336.278,567.244Z" id="room-102" stroke="currentColor" name="Crew Quarters"/>
<path d="M385.506,566.129L355.203,566.129L355.203,517.783L415.809,517.783L415.809,566.129L385.506,566.129Z" id="room-103" stroke="currentColor" name="Crew Quarters"/>
<path d="M446.506,565.129L416.203,565.129L416.203,516.783L476.809,516.783L476.809,565.129L446.506,565.129Z" id="room-104" stroke="currentColor" name="Crew Quarters"/>
<path d="M173.299,225.652h60.6061v48.4392h-60v-48Z" id="room-105" stroke="currentColor" name="Crew Quarters"/>
<path d="M233.719,225.604L233.719,274.044L294.325,274.044L294.325,225.604L233.719,225.604Z" id="room-106" stroke="currentColor" name="Crew Quarters"/>
<path d="M336.278,204.294L294.35,204.294L294.35,252.871L354.956,252.871L354.956,204.294L336.278,204.294Z" id="room-107" stroke="currentColor" name="Crew Quarters"/>
</svg>