<svg viewBox="0 0 1000 772" version="1.1" xmlns="http://www.w3.org/2000/svg" xmlns:xlink="http://www.w3.org/1999/xlink" xml:space="preserve" style="fill-rule:evenodd;clip-rule:evenodd;stroke-miterlimit:1.41421;">
  <path d="M840.168,452.729L843.949,450.626L848.665,447.974L852.542,445.813L857.066,443.017L859.138,441.71L864.009,438.722L865.734,436.241L867.363,433.76L870.044,429.87L872.33,426.354L873.841,424.033L875.251,421.867L877.147,418.953L878.931,416.211L880.448,413.874L883.027,409.867L885.527,406.03L888.154,401.804L889.853,399.179L892.123,395.284L893.751,392.59L893.735,387.611L893.735,384.389L893.96,381.241L893.116,378.413L890.499,374.438L888.154,370.19L885.97,366.669L883.027,362.128L881.43,359.636L878.931,355.789L877.147,353.041L875.251,350.128L873.836,347.956L872.33,345.646L870.044,342.124L868.57,339.862L865.734,335.754L864.009,333.273L860.981,331.432L857.061,328.983L853.429,326.683L849.503,324.49L845.946,322.5L841.669,320.088L839.345,318.823L836.034,317.009L832.75,315.216L829.604,313.498L827.371,312.282L823.28,310.057L819.558,308.035L817.486,306.909L814.554,305.313L810.5,303.11L807.621,301.546L805.362,300.319L801.736,298.35L797.704,296.157L793.233,293.724L789.495,290.811L786.568,288.773L784.298,287.135L783.711,284.28L782.936,280.545L782.744,277.781L782.482,273.955L779.972,269.98L778.434,267.366L774.69,266.048L770.519,264.431L766.781,262.958L764.041,262.473L760.185,261.731L754.171,261.059L751.634,260.771L747.346,260.413L741.257,259.906L735.163,259.405L731.484,259.101L727.195,258.733L722.629,258.252L718.388,257.884L714.003,257.521L711.584,257.335L707.408,257.004L704.743,256.806L700.812,256.502L697.837,256.289L694.211,256.017L691.001,255.761L687.615,255.494L685.169,255.126L681.98,254.549L678.616,254.181L674.76,253.952L668.783,253.477L662.567,253.141L659.645,252.997L656.633,252.821L653.162,252.639L649.498,252.426L646.566,252.282L642.902,252.074L639.97,251.94L636.306,251.743L633.374,251.615L629.711,251.423L627.067,251.321L622.938,251.118L620.103,251.012L616.588,250.846L613.432,250.729L610.067,250.58L606.751,250.457L603.552,250.318L600.059,250.179L597.052,250.019L593.303,249.758L590.616,249.374L586.488,249.107L582.066,248.92L579.662,248.824L575.465,248.653L572.757,248.552L568.869,248.403L565.739,248.291L562.273,248.168L559.346,248.061L555.677,247.938L550.502,247.768L548.024,247.688L544.98,247.592L542.48,247.474L536.664,247.213L530.506,246.941L527.612,246.802L524.461,246.69L521.224,246.546L517.56,246.439L514.628,246.311L510.964,246.204L508.027,246.071L504.363,245.964L501.431,245.841L497.767,245.756L494.835,245.623L491.172,245.511L488.33,245.345L484.191,245.222L481.58,245.105L478.039,244.993L474.893,244.881L471.528,244.78L468.233,244.684L464.997,244.593L461.595,244.518L458.444,244.433L454.972,244.374L451.869,244.299L448.355,244.246L445.289,244.171L441.743,244.118L438.715,244.043L435.126,243.99L432.135,243.915L428.509,243.862L425.561,243.798L421.891,243.744L418.981,243.686L415.285,243.643L412.39,243.59L408.684,243.552L405.8,243.499L402.088,243.462L399.204,243.403L395.487,243.366L392.608,243.312L388.886,243.28L386.018,243.227L382.285,243.195L379.422,243.152L375.689,243.126L372.826,243.088L369.088,243.062L366.23,243.029L362.492,243.013L359.635,242.987L355.896,242.976L353.033,242.96L349.306,242.955L346.432,242.944L339.831,242.944L336.125,242.949L333.225,242.96L329.539,242.971L326.618,242.992L322.954,243.008L320.006,243.035L316.375,243.056L313.394,243.094L309.789,243.12L306.782,243.152L303.204,243.184L300.176,243.232L296.71,243.59L293.473,244.726L290.888,245.938L288.976,247.592L286.434,249.651L284.453,251.417L281.66,254.181L279.043,256.737L273.472,258.551L270.535,259.037L266.871,259.266L263.939,259.442L260.275,259.629L256.852,259.81L253.786,259.96L250.929,260.104L246.491,260.317L239.238,260.669L233.689,260.947L230.677,261.102L228.242,261.224L225.822,261.347L222.735,261.502L219.226,261.678L216.396,261.822L212.631,262.009L210.243,262.121L206.035,262.313L201.495,262.532L197.628,262.718L194.643,262.852L191.236,263.017L187.844,263.167L185.083,263.295L180.955,263.471L178.177,263.599L174.514,263.764L171.582,263.903L167.918,264.074L164.986,264.218L161.322,264.394L158.385,264.548L154.721,264.73L151.789,264.89L148.125,265.077L145.193,265.247L141.529,265.434L138.597,265.637L134.933,265.877L132.001,266.074L128.338,266.251L125.213,266.581L120.781,267.19L118.623,268.577L115.381,271.165L113.303,273.038L111.829,275.417L109.698,279.078L108.935,282.012L108.646,285.673L108.881,288.602L109.084,292.262L110.403,295.373L112.385,298.809L115.183,301.856L118.623,304.577L121.838,306.098L126.495,306.77L132.049,307.069L135.452,307.229L140.061,307.442L143.329,307.613L146.662,307.794L149.321,307.923L153.257,308.109L157.589,308.323L161.835,308.525L164.473,308.654L168.212,308.83L171.288,308.979L174.637,309.139L178.055,309.31L180.816,309.566L184.939,309.934L186.979,311.092L190.114,312.639L186.979,315.793L184.608,317.34L182.06,319.112L180.111,320.376L174.642,323.93L172.457,325.514L170.278,327.638L167.325,330.706L165.664,332.76L162.823,338.395L162.203,341.329L162.128,344.99L162.112,347.919L162.118,351.579L162.123,354.509L162.128,358.169L162.128,361.098L162.134,364.759L162.139,367.693L162.145,371.353L162.145,374.283L162.155,377.943L162.155,380.872L162.161,384.533L162.161,387.462L162.155,391.122L162.155,394.052L162.145,397.712L162.145,400.647L162.139,404.307L162.134,407.236L162.128,410.896L162.128,413.826L162.123,417.486L162.118,420.415L162.112,424.076L162.128,427.01L162.203,430.671L162.823,433.6L164.708,437.26L166.102,439.827L170.273,444.362L172.457,446.48L174.642,448.07L178.226,450.402L180.575,451.907L184.608,454.66L186.979,456.202L190.114,458.054L186.979,460.908L184.944,462.061L180.821,462.434L178.055,462.69L174.637,462.861L171.283,463.021L168.212,463.171L164.468,463.347L161.835,463.475L157.584,463.677L153.257,463.885L150.592,464.014L146.662,464.206L143.388,464.382L140.061,464.558L137.502,464.675L133.465,464.862L128.626,465.086L122.965,465.742L120.273,466.132L115.183,470.144L113.389,471.681L110.403,476.622L109.084,479.733L108.881,483.393L108.646,486.327L108.935,489.988L109.693,492.917L111.829,496.577L113.303,498.962L115.381,500.835L118.617,503.423L120.791,504.81L123.691,505.205L126.869,505.669L132.001,505.926L134.933,506.123L138.597,506.358L141.529,506.566L145.193,506.753L148.125,506.918L151.789,507.105L154.721,507.265L158.385,507.452L161.322,507.601L164.986,507.782L167.918,507.926L171.582,508.097L174.514,508.236L178.177,508.401L180.955,508.524L185.078,508.705L187.85,508.834L191.236,508.983L194.648,509.143L197.628,509.282L201.5,509.468L203.968,509.581L208.422,509.799L212.631,509.991L215.461,510.13L219.226,510.317L222.388,510.477L225.822,510.653L228.231,510.77L230.688,510.898L233.678,511.048L237.096,511.224L244.814,511.597L250.929,511.896L253.786,512.04L256.841,512.19L260.275,512.366L263.939,512.553L266.871,512.729L270.535,512.958L273.472,513.444L277.136,514.441L281.216,517.381L284.453,520.583L286.434,522.349L288.976,524.403L290.888,526.063L293.479,527.274L296.71,528.41L300.176,528.762L303.204,528.816L306.788,528.842L309.789,528.88L313.394,528.907L316.369,528.939L320.006,528.965L322.954,528.987L326.618,529.008L329.539,529.024L333.225,529.04L336.125,529.045L339.831,529.051L342.715,529.051L346.432,529.056L349.306,529.045L353.033,529.04L355.896,529.024L359.635,529.008L362.492,528.987L366.23,528.965L369.088,528.933L372.826,528.912L375.683,528.875L379.422,528.848L382.285,528.8L386.018,528.768L388.886,528.72L392.608,528.682L395.487,528.629L399.204,528.592L402.088,528.538L405.8,528.501L408.684,528.448L412.39,528.41L415.285,528.352L418.981,528.314L421.891,528.25L425.561,528.202L428.503,528.138L432.135,528.079L435.126,528.01L438.715,527.951L441.743,527.882L445.289,527.829L448.355,527.754L451.869,527.701L454.972,527.621L458.444,527.562L461.589,527.482L464.997,527.407L468.233,527.316L471.528,527.215L474.893,527.119L478.039,527.002L481.58,526.895L484.191,526.778L488.336,526.649L491.172,526.489L494.835,526.377L497.767,526.244L501.431,526.159L504.363,526.036L508.027,525.929L510.964,525.796L514.628,525.689L517.56,525.561L521.224,525.454L524.466,525.31L527.617,525.198L530.512,525.059L535.03,524.862L542.213,524.537L545.044,524.403L548.035,524.312L550.486,524.232L553.493,524.136L558.412,523.966L562.273,523.832L565.408,523.72L568.869,523.592L571.582,523.491L575.465,523.341L577.868,523.251L582.066,523.08L586.488,522.888L590.616,522.621L593.303,522.242L597.052,521.975L600.059,521.815L603.557,521.682L606.751,521.538L610.073,521.421L613.427,521.271L616.594,521.148L620.103,520.988L622.944,520.876L627.072,520.679L629.711,520.572L633.374,520.385L636.306,520.257L639.97,520.06L642.902,519.921L646.566,519.718L649.498,519.574L653.162,519.361L656.633,519.18L659.645,519.003L662.567,518.854L666.775,518.63L674.044,518.091L678.637,517.814L681.019,517.605L685.169,516.874L687.615,516.501L690.793,516.25L694.211,515.978L697.185,515.765L700.812,515.493L703.477,515.295L707.408,514.996L709.827,514.81L714.003,514.479L718.388,514.116L722.629,513.748L725.166,513.46L729.209,513.097L733.796,512.702L739.372,512.243L746.566,511.645L751.656,511.224L754.166,510.941L758.588,510.45L762.369,509.863L766.781,509.042L770.338,507.638L773.377,506.475L778.434,504.634L779.972,502.015L781.366,499.432L782.669,495.35L782.936,491.45L783.572,488.451L784.298,484.86L786.568,483.222L788.656,481.755L793.169,478.324L797.704,475.843L799.765,474.722L805.362,471.681L807.621,470.454L810.5,468.885L812.957,467.551L817.486,465.086L819.558,463.966L821.678,462.808L826.154,460.38L829.609,458.496L832.75,456.778L835.415,455.322L839.345,453.177L840.168,452.729Z" stroke="currentColor" stroke-width="3" id="voyager-deck-1" />
  <path d="M780.815,425.467C801.144,423.77 817.113,406.748 817.113,386C817.113,364.126 799.364,346.394 777.47,346.394C755.575,346.394 737.826,364.126 737.826,386C737.826,407.874 755.575,425.606 777.47,425.606C777.576,425.606 777.682,425.606 777.788,425.605C778.768,425.31 779.777,425.253 780.815,425.467ZM421.86,396.469L315.57,396.469L315.57,435.728L315.654,435.728L315.654,435.771L315.668,435.771L315.668,460.935L315.654,460.935L315.654,497.732C395.456,497.145 679.336,494.351 748.844,484.031C750.498,483.785 753.365,483.45 753.565,482.786C756.582,472.813 760.436,455.927 765.467,443.037C742.38,438.212 724.309,419.749 720.081,396.469L603.48,396.469L603.48,375.531L720.081,375.531C724.315,352.218 742.431,333.736 765.564,328.943C760.485,316.021 756.601,298.983 753.565,288.946C753.365,288.282 750.498,287.947 748.844,287.701C679.311,277.377 395.256,274.586 315.57,273.999L315.57,375.531L421.86,375.531L421.86,396.469ZM294.696,518.806L294.696,460.935L294.612,435.771L294.612,260.734L294.696,260.734L294.696,252.927C294.696,252.927 667.731,256.066 748.844,268.449C753.256,269.122 766.659,269.738 767.73,272.6C773.905,289.101 777.536,327.803 781.37,327.223L781.37,327.856C811.764,329.861 835.797,355.126 835.797,386C835.797,416.874 811.764,442.139 781.37,444.144L781.37,444.509C777.536,443.929 773.905,482.631 767.73,499.132C766.659,501.994 753.256,502.61 748.844,503.283C679.336,513.894 395.456,517.718 315.654,518.595L315.654,518.806L294.696,518.806Z" stroke="currentColor" stroke-width="2" id="hallway"/>
  <path d="M783.121,327.998C771.546,323.29 821.241,325.641 818.429,313.395L821.069,314.831L822.935,315.845L826.287,317.665L829.97,319.669L831.98,320.764L834.813,322.311L837.77,323.925L840.751,325.559L842.843,326.697L846.695,328.869L849.897,330.661L853.432,332.635L856.702,334.706L860.231,336.911L862.958,338.568L864.511,340.802L867.064,344.501L868.392,346.538L870.45,349.709L871.806,351.789L873.08,353.745L874.787,356.368L876.393,358.842L878.644,362.306L880.082,364.549L882.731,368.638L884.698,371.808L886.809,375.632L889.165,379.212L889.925,381.758L889.723,384.592L889.723,387.494L889.737,391.976L888.271,394.402L886.227,397.909L884.698,400.273L882.332,404.078L880.082,407.532L877.759,411.14L876.393,413.244L874.787,415.714L873.08,418.337L871.811,420.287L870.45,422.377L868.392,425.543L865.978,429.045L864.511,431.279L862.958,433.513L858.572,436.203L856.707,437.38L852.634,439.898L849.142,441.843L844.896,444.231L841.492,446.124L840.751,446.528L837.212,448.459L834.813,449.77L831.985,451.317L828.874,453.013L824.844,455.199L822.935,456.242L821.069,457.25L816.992,459.47C819.9,446.748 772.387,449.93 783.695,444.491C784.187,444.255 784.674,444.014 785.157,443.77C813.737,440.011 835.797,415.579 835.797,386C835.797,355.722 812.682,330.837 783.121,327.998Z" id="room-1" stroke="currentColor" name="Observation Deck"/>
<path d="M421.86,346.394h181.62v79.2125h-181v-79Z" id="room-2" stroke="currentColor" name="Memorial Room"/>
<path d="M315.19,396.437h106.67v25.6172h-106v-25ZM315.19,349.947h106.67v25.6172h-106v-25Z" id="room-8" stroke="currentColor" name="Emergency Batteries"/>
<path d="M781.37,445.171C779.575,443.36 775.644,464.736 771.8,485.178L784.528,484.445L792.955,478.41L817.113,465.677L817.113,459.47C817.113,459.47 817.185,455.572 813.271,453.509C807.922,450.691 790.126,448.126 784.926,447.842C783.456,447.761 781.37,445.171 781.37,445.171ZM781.976,327.363C780.181,329.174 776.25,307.798 772.406,287.356L785.134,288.089L793.561,294.124L817.719,306.858L817.719,313.064C817.719,313.064 817.791,316.963 813.877,319.025C808.528,321.843 790.732,324.408 785.532,324.693C784.062,324.773 781.976,327.363 781.976,327.363Z" id="room-3" stroke="currentColor" name="Airlock"/>
<path d="M603.326,279.142C600.998,279.937 735.299,281.375 753.613,289.018C753.929,289.15 754.068,290.393 754.068,290.393C757.085,303.422 760.864,316.21 765.565,328.708C740.408,335.615 725.33,351.158 720.332,375.337L705.054,375.391L603.591,375.391L603.326,279.142Z" id="room-4" stroke="currentColor" name="Gravity Generation Control"/>
<path d="M603.326,492.794L603.324,492.793L603.326,492.793L603.326,492.794ZM660.248,490.82L660.248,444.669L603.458,444.669L603.591,396.544L705.054,396.544L720.332,396.599C725.33,420.778 740.408,436.321 765.565,443.228C760.864,455.725 757.085,468.514 754.068,481.543C754.068,481.543 753.929,482.786 753.613,482.917C743.548,487.118 698.447,489.444 660.248,490.82Z" id="room-5" stroke="currentColor" name="Laser Cannon Control Room"/>
<path d="M603.296,444.669L660.248,444.669L660.248,491.28L603.296,492.794L603.296,444.669Z" id="room-6" stroke="currentColor" name="Laser Cannon Power Generator"/>
<path d="M352.825,423.568C373.108,423.568 389.55,439.995 389.55,460.259C389.55,480.523 373.108,496.95 352.825,496.95C332.542,496.95 316.099,480.523 316.099,460.259C316.099,439.995 332.542,423.568 352.825,423.568ZM352.825,275.1C373.108,275.1 389.55,291.527 389.55,311.791C389.55,332.054 373.108,348.482 352.825,348.482C332.542,348.482 316.099,332.054 316.099,311.791C316.099,291.527 332.542,275.1 352.825,275.1Z" id="room-7" stroke="currentColor" name="Main Fuel Tank"/>
<path d="M191.254,313.754L294.612,282.234L294.612,489.766L191.254,457.687C151.469,409.091 153.88,361.151 191.254,313.754Z" id="room-192" stroke="currentColor" name="Upper Shuttle Flight Deck"/>
<path d="M278.631,257.019L279.088,286.723L223.559,303.799L218.8,261.786C239.097,260.836 260.012,260.998 278.631,257.019ZM278.631,514.67L279.088,484.966L223.559,467.89L218.8,509.903C239.097,510.853 260.012,510.691 278.631,514.67Z" id="room-9" stroke="currentColor" name="Shuttle Service Airlock"/>
<path d="M602.851,459.804L602.851,494.016L554.505,494.016L554.505,425.592L602.851,425.592L602.851,459.804Z" id="room-10" stroke="currentColor" name="Crew Quarters"/>
<path d="M554.505,459.804L554.505,494.016L506.16,494.016L506.16,425.592L554.505,425.592L554.505,459.804Z" id="room-11" stroke="currentColor" name="Crew Quarters"/>
<path d="M506.16,459.804L506.16,494.016L457.814,494.016L457.814,425.592L506.16,425.592L506.16,459.804Z" id="room-12" stroke="currentColor" name="Crew Quarters"/>
<path d="M457.877,460.831L457.877,496.07L409.532,496.07L409.532,425.592L457.877,425.592L457.877,460.831Z" id="room-13" stroke="currentColor" name="Crew Quarters"/>
<path d="M602.851,312.595L602.851,278.383L554.505,278.383L554.505,346.807L602.851,346.807L602.851,312.595Z" id="room-14" stroke="currentColor" name="Crew Quarters"/>
<path d="M554.505,312.595L554.505,278.383L506.16,278.383L506.16,346.807L554.505,346.807L554.505,312.595Z" id="room-15" stroke="currentColor" name="Crew Quarters"/>
<path d="M506.16,311.977L506.16,277.146L457.814,277.146L457.814,346.807L506.16,346.807L506.16,311.977Z" id="room-16" stroke="currentColor" name="Crew Quarters"/>
<path d="M457.877,311.568L457.877,276.329L409.532,276.329L409.532,346.807L457.877,346.807L457.877,311.568Z" id="room-17" stroke="currentColor" name="Crew Quarters"/>
</svg>