<svg viewBox="0 0 381 294.1" version="1.1" xmlns="http://www.w3.org/2000/svg" xmlns:xlink="http://www.w3.org/1999/xlink" xml:space="preserve" style="fill-rule:evenodd;clip-rule:evenodd;stroke-miterlimit:1.41421;">
  <path d="M 335.9517 172.3468 L 336.9202 171.6352 L 337.9032 170.9178 L 339.0222 170.0904 L 340.0581 169.2896 L 340.9779 168.5517 L 342.1742 167.6797 L 342.921 167.1349 L 344.3268 166.0111 L 346.0059 164.7345 L 346.6692 163.4598 L 347.2144 162.1142 L 347.6194 160.2788 L 347.8919 158.9881 L 348.1525 157.5366 L 348.5186 155.441 L 348.7221 153.9061 L 348.8055 153.02 L 348.8889 152.0707 L 348.9602 150.8939 L 349.0398 149.5605 L 349.1046 148.4161 L 349.1819 147.05 L 349.1168 145.9056 L 349.0398 144.5376 L 348.9686 143.3402 L 348.8889 142.0271 L 348.8055 141.0781 L 348.7221 140.1897 L 348.5921 139.1002 L 348.2786 137.2464 L 347.9978 135.6955 L 347.7741 134.494 L 347.3752 132.6585 L 346.7382 130.8189 L 346.1381 129.4733 L 344.7585 128.4082 L 343.4905 127.4588 L 342.2984 126.5099 L 340.9779 125.546 L 340.0558 124.8085 L 339.0569 124.034 L 337.9032 123.1822 L 336.9183 122.4626 L 336.21 121.9403 L 335.2678 121.253 L 334.1202 120.4157 L 333.1864 119.7368 L 332.1996 119.0172 L 330.9236 118.0903 L 329.8066 117.3017 L 328.84 116.6126 L 327.623 115.7893 L 326.6343 115.1184 L 325.8975 114.6163 L 324.8132 113.9721 L 323.3844 113.0921 L 322.0844 112.3866 L 321.183 111.8967 L 319.9417 110.7138 L 318.6413 109.3865 L 317.6789 107.8985 L 317.0297 106.876 L 316.3828 105.7968 L 315.8437 104.8943 L 314.7833 103.8047 L 313.3306 102.7232 L 312.0466 101.8531 L 310.8156 101.4794 L 308.9457 100.898 L 307.9707 100.5666 L 306.1213 99.914 L 304.8331 99.5605 L 303.6711 99.2576 L 302.5624 99.0096 L 301.4777 98.7696 L 300.393 98.5235 L 298.6187 98.1254 L 295.9757 97.5662 L 293.9895 97.0237 L 292.4514 96.6191 L 291.4787 96.3936 L 290.3738 96.1353 L 288.5302 95.7227 L 285.8483 94.9867 L 283.3638 94.5577 L 281.9251 94.3223 L 280.6553 94.1512 L 278.7225 94.003 L 277.7395 93.9501 L 276.0303 93.9318 L 273.4685 93.9032 L 270.9146 93.883 L 268.365 93.8667 L 265.8214 93.8568 L 263.2779 93.8526 L 260.7202 93.8545 L 258.2296 93.8629 L 255.7146 93.8769 L 253.2016 93.8952 L 250.6885 93.9154 L 248.1754 93.9093 L 245.6623 93.755 L 243.1473 93.6228 L 240.6343 93.4583 L 238.1216 93.2571 L 235.6085 92.9969 L 233.0935 92.5333 L 230.5804 92.1127 L 229.4797 91.9318 L 228.5844 91.8118 L 226.9484 91.5862 L 225.3592 91.3706 L 223.3567 90.9702 L 220.6523 90.206 L 218.0642 89.6468 L 216.2491 89.2994 L 215.305 89.147 L 213.6038 88.8277 L 212.3972 88.5492 L 210.6717 87.9904 L 208.0344 87.5024 L 205.4767 87.0959 L 203.8083 86.7888 L 202.7377 86.6265 L 200.984 86.3603 L 199.7994 86.1709 L 198.1352 85.8783 L 195.4675 85.1667 L 192.8405 84.6993 L 191.6826 84.4292 L 190.7061 84.1301 L 187.8307 82.305 L 187.1266 81.5487 L 185.3176 79.5118 L 183.104 77.0363 L 182.4163 76.2473 L 180.7658 74.4404 L 180.1166 73.7105 L 178.4993 71.9299 L 177.6405 70.9726 L 176.1813 69.3668 L 175.1518 68.2304 L 173.8758 66.8281 L 172.6612 65.4662 L 171.5929 64.2913 L 172.3743 62.3092 L 173.2921 61.3336 L 174.698 60.4901 L 175.4958 59.9575 L 176.2487 59.4452 L 176.6922 58.6829 L 176.7939 57.1464 L 176.6392 56.0851 L 176.1813 54.7232 L 175.5732 52.9833 L 175.0927 51.6378 L 174.6816 50.4976 L 174.3582 49.6008 L 173.9593 48.493 L 173.5116 47.2491 L 172.8707 45.4705 L 172.4292 44.251 L 172.0977 43.3302 L 171.6824 42.1755 L 171.2104 40.8666 L 170.8297 39.8117 L 170.315 38.3827 L 169.7736 36.8804 L 168.9293 34.5408 L 168.4492 33.2053 L 167.853 31.5507 L 167.5497 30.7092 L 167.2182 29.7945 L 166.5362 28.4 L 165.7144 27.1703 L 165.1871 26.4141 L 162.9651 24.9303 L 161.7299 24.1903 L 160.3198 23.3 L 158.5821 21.7308 L 157.6909 20.1982 L 157.0928 19.1757 L 156.3868 18.3688 L 155.2655 17.1146 L 152.6324 16.4865 L 150.1155 16.4682 L 132.5225 16.4682 L 129.9096 16.5495 L 127.6956 17.4418 L 125.429 18.8058 L 124.6293 19.2611 L 122.4824 20.7165 L 120.3419 21.3832 L 119.2938 21.6515 L 117.5522 21.9097 L 114.9149 22.3284 L 112.5158 23.0276 L 110.2309 23.548 L 108.5804 23.8976 L 107.3902 24.1965 L 105.1415 25.0034 L 104.2035 25.3266 L 102.7062 25.7962 L 101.013 26.3247 L 99.947 26.7901 L 98.9804 27.4223 L 98.2416 27.9021 L 97.1714 28.6074 L 95.8204 29.7742 L 94.6583 30.9714 L 93.348 32.3211 L 92.1452 33.561 L 90.8735 34.8721 L 89.6322 36.1527 L 88.397 37.4232 L 87.1172 38.7423 L 85.9166 39.9801 L 84.6041 41.3321 L 83.4321 42.5394 L 82.0914 43.9215 L 80.9434 45.1047 L 79.5783 46.5131 L 78.4509 47.6739 L 77.0633 49.1029 L 75.9523 50.2515 L 74.9103 51.3265 L 74.1087 52.1662 L 73.4412 52.8656 L 72.2205 54.1479 L 70.9426 55.6177 L 70.0328 56.6584 L 70.1935 57.5975 L 70.4682 59.1709 L 72.0372 59.7137 L 73.9643 60.4372 L 75.0261 60.8277 L 76.6298 61.3115 L 77.9198 61.6814 L 79.5783 61.9618 L 81.4666 62.2871 L 82.4229 62.4822 L 84.2726 62.9477 L 86.8935 63.2422 L 89.439 63.4132 L 91.9498 63.5168 L 94.4629 63.5633 L 96.9759 63.6894 L 98.4938 64.1469 L 99.3568 66.507 L 99.0554 69.0194 L 98.6363 71.5295 L 98.2191 74.0401 L 97.8061 76.5502 L 97.3809 79.0607 L 97.2262 80.0382 L 97.0228 81.3251 L 96.8967 82.2093 L 96.6586 83.8375 L 96.2657 86.4902 L 95.5476 89.1409 L 94.8252 91.3847 L 93.7142 94.131 L 92.2957 95.816 L 89.8276 96.5703 L 87.7828 96.8099 L 86.8669 96.8934 L 84.7794 97.0926 L 82.2865 97.3242 L 79.7734 97.5601 L 77.2584 97.7959 L 74.7453 98.3326 L 72.2326 98.6252 L 69.7196 98.8633 L 67.2065 99.101 L 65.5827 99.2576 L 64.6325 99.3429 L 63.4929 99.4588 L 61.983 99.613 L 59.9523 99.8245 L 57.2746 100.103 L 54.6781 100.7433 L 52.1059 101.095 L 49.6115 101.3552 L 47.0985 101.6135 L 46.0564 101.719 L 44.516 101.8531 L 43.4969 102.1133 L 41.8749 102.5525 L 39.8118 102.8657 L 37.1867 103.207 L 34.5923 103.7621 L 33.7276 104.3655 L 32.7061 106.5 L 32.5799 107.4269 L 32.7244 108.8357 L 33.0296 109.7583 L 34.0063 111.3214 L 35.5894 112.0978 L 36.6435 112.2952 L 39.1359 112.4677 L 41.6326 112.6182 L 44.1274 112.7645 L 46.6203 112.9089 L 49.1067 113.0533 L 51.5893 113.1995 L 54.0616 113.3828 L 56.481 113.8236 L 57.5981 113.9356 L 58.8291 114.0045 L 60.3287 114.0959 L 61.983 114.2038 L 62.9008 114.4091 L 61.983 114.8137 L 60.6868 116.7303 L 59.6349 117.643 L 57.1953 119.261 L 54.6373 120.9665 L 53.5995 121.8629 L 52.0591 123.5563 L 51.4407 124.3856 L 50.3926 126.7659 L 50.2726 129.2783 L 50.2646 131.7884 L 50.2646 164.4293 L 50.281 166.9398 L 51.3268 169.5151 L 51.8823 170.3445 L 53.3777 172.0215 L 54.3565 172.9262 L 56.6558 174.4729 L 59.2402 176.1968 L 60.624 177.1156 L 61.8367 178.8878 L 62.9027 179.689 L 61.983 179.894 L 60.3268 180.0018 L 58.8291 180.0932 L 57.5962 180.1625 L 56.481 180.2742 L 54.9181 180.6056 L 52.3094 180.8536 L 49.7559 181.0079 L 47.2124 181.1546 L 44.673 181.3027 L 42.1375 181.4513 L 39.6042 181.6037 L 37.0748 181.7561 L 35.5935 181.9999 L 34.3461 182.1892 L 33.0296 184.3417 L 32.7244 185.2624 L 32.5799 186.6712 L 32.7061 187.5981 L 33.5383 189.3585 L 34.2119 190.1696 L 36.5906 190.7913 L 39.0243 191.1208 L 41.4254 191.4762 L 42.7684 191.7894 L 44.3899 192.2286 L 46.0526 192.3787 L 47.0985 192.4846 L 49.2206 192.7041 L 51.7337 192.9643 L 54.2875 193.2896 L 56.721 193.9178 L 59.1525 194.1921 L 61.501 194.4359 L 62.9903 194.5883 L 64.4961 194.7411 L 65.5766 194.8405 L 66.7691 194.9582 L 69.3287 195.2001 L 71.8417 195.4382 L 74.3548 195.7167 L 76.8679 196.2554 L 79.3829 196.5072 L 81.8959 196.743 L 84.409 196.975 L 86.865 197.2043 L 87.7767 197.2878 L 89.394 197.4687 L 91.9498 198.1072 L 93.4864 199.6417 L 94.5341 202.0078 L 95.4093 204.5264 L 96.1823 207.1096 L 96.5648 209.5207 L 96.8967 211.8888 L 97.0228 212.773 L 97.1714 213.6896 L 97.3238 214.6492 L 97.7452 217.1574 L 98.1704 219.6676 L 98.5857 222.1781 L 99.0025 224.6905 L 99.3831 227.201 L 98.671 229.7111 L 97.2933 230.3473 L 94.8538 230.4917 L 92.3407 230.5386 L 89.8276 230.6403 L 87.2517 230.8152 L 84.8281 231.0346 L 82.4229 231.6159 L 81.4666 231.8129 L 80.2028 232.0243 L 78.5222 232.315 L 77.2382 232.5897 L 75.0261 233.2704 L 73.9643 233.6609 L 72.6232 234.1668 L 71.2539 234.6568 L 70.3097 235.7505 L 70.0308 237.4397 L 70.9426 238.4804 L 72.0372 239.7365 L 72.9223 240.6896 L 74.1148 241.9418 L 74.9061 242.7651 L 75.6651 243.5518 L 77.0386 244.9704 L 78.113 246.0783 L 79.4766 247.4829 L 80.5693 248.609 L 81.9123 249.9934 L 83.0294 251.1439 L 84.35 252.5039 L 85.4956 253.6849 L 86.7857 255.014 L 87.9638 256.2297 L 89.2211 257.5246 L 90.4361 258.7768 L 91.6591 260.037 L 92.9126 261.3277 L 94.0948 262.5471 L 95.3887 263.8808 L 96.5302 265.0576 L 98.2397 266.1959 L 98.9823 266.6778 L 99.947 267.3079 L 101.013 267.7735 L 102.1994 268.1392 L 104.2035 268.7712 L 105.1415 269.0946 L 106.9303 269.7407 L 107.9906 270.0806 L 109.7383 270.4402 L 111.7629 270.8832 L 114.5019 271.6619 L 117.0962 272.1008 L 119.2877 272.4463 L 120.3396 272.7149 L 121.76 273.1294 L 124.6293 274.8387 L 125.4267 275.2921 L 127.0406 276.3492 L 129.287 277.3127 L 131.7898 277.6114 L 134.7056 277.6319 L 152.2987 277.6319 L 154.7283 277.3573 L 156.3887 275.7294 L 157.0947 274.9222 L 157.6909 273.902 L 158.1836 272.9629 L 159.7849 271.1884 L 161.1744 270.2714 L 162.3487 269.5743 L 164.5912 268.1068 L 165.3399 267.5681 L 166.5362 265.698 L 167.0757 264.7041 L 167.5497 263.3909 L 167.853 262.5471 L 168.1624 261.6915 L 168.7582 260.037 L 169.4909 258.0042 L 170.0628 256.4167 L 170.5672 255.014 L 171.2104 253.2315 L 171.6824 251.9226 L 172.0977 250.7679 L 172.4311 249.8471 L 172.8707 248.6273 L 173.2838 247.4829 L 173.9593 245.6047 L 174.3582 244.4969 L 174.6816 243.6028 L 175.0885 242.4706 L 175.5099 241.2953 L 175.99 239.9498 L 176.6392 238.0126 L 176.7939 236.9516 L 176.6922 235.4149 L 176.2464 234.6526 L 175.4958 234.1406 L 174.698 233.6099 L 173.2921 232.7641 L 172.5759 232.2297 L 171.4911 230.1481 L 172.4882 228.8269 L 173.6827 227.4917 L 174.9788 226.0646 L 175.9862 224.9549 L 177.4694 223.3225 L 178.2893 222.4158 L 179.9867 220.5396 L 180.5951 219.863 L 182.4163 217.8504 L 183.104 217.0637 L 184.854 215.1265 L 187.1266 212.5493 L 187.8307 211.795 L 189.9083 210.2868 L 191.2189 209.8194 L 192.4762 209.4781 L 195.0156 209.0369 L 197.4392 208.366 L 199.7994 207.9268 L 200.984 207.7378 L 201.9788 207.5874 L 203.2749 207.3904 L 204.7075 207.1241 L 207.5379 206.6727 L 210.0083 206.2765 L 212.3972 205.5489 L 213.6038 205.2723 L 214.4931 205.1016 L 215.779 204.8757 L 217.2359 204.5934 L 220.0846 204.0243 L 222.5246 203.3149 L 224.8483 202.8227 L 226.2809 202.6052 L 227.8719 202.396 L 229.4835 202.1663 L 230.385 202.0078 L 232.7026 201.6113 L 235.2176 201.1396 L 237.7307 200.8653 L 240.2437 200.66 L 242.7568 200.4935 L 245.2718 200.3613 L 247.7849 200.2006 L 250.298 200.1884 L 252.8106 200.2048 L 255.3237 200.225 L 257.8387 200.2394 L 260.3518 200.2474 L 262.9037 200.2516 L 265.3555 200.2474 L 267.84 200.2394 L 270.3225 200.225 L 272.801 200.2048 L 275.2733 200.1804 L 277.7395 200.1499 L 278.7202 200.095 L 280.0754 200.0013 L 281.2923 199.8611 L 282.5294 199.6783 L 285.486 199.1987 L 288.007 198.5053 L 290.3738 197.9628 L 291.4787 197.7045 L 292.4533 197.479 L 293.3304 197.2657 L 295.5524 196.6375 L 298.0083 196.1171 L 300.393 195.5765 L 301.4758 195.3304 L 302.5624 195.0885 L 303.6711 194.8424 L 304.8351 194.5395 L 305.7895 194.3098 L 307.9707 193.5334 L 308.9457 193.2001 L 310.1725 192.826 L 311.4321 192.4317 L 312.6711 191.8302 L 314.5025 190.5067 L 315.5282 189.7322 L 316.3828 188.3013 L 317.0297 187.2221 L 317.6789 186.2015 L 318.3564 185.1508 L 319.5512 183.7805 L 320.8694 182.4879 L 322.0844 181.7134 L 323.3844 181.006 L 324.5526 180.2863 L 325.5355 179.689 L 326.2823 179.2235 L 327.623 178.3107 L 328.4106 177.7945 L 329.2712 177.1785 L 330.5205 176.2901 L 331.4913 175.5971 L 332.7673 174.668 L 334.1202 173.6824 L 335.2678 172.8447 L 335.9517 172.3468 Z" stroke="currentColor" id="voyager-deck-4" />
  <path d="M 149.1379 105.1472 C 146.3558 105.0737 139.0806 104.9457 139.0806 104.9457 L 108.8586 125.1636 L 108.8757 168.7509 L 139.0433 189.061 C 139.0433 189.061 145.846 188.9379 149.1379 188.8511 L 149.1379 105.1472 Z M 157.1229 105.3613 L 157.1229 188.6366 C 167.086 188.365 179.059 188.0248 194.0475 187.6011 C 194.0475 187.6011 202.0321 160.5329 202.0321 146.999 C 202.0321 133.782 194.0475 106.3968 194.0475 106.3968 C 179.0631 105.9731 167.0887 105.6333 157.1229 105.3613 Z M 202.05 106.6349 C 202.5125 107.1895 211.5548 132.0879 211.4051 146.053 C 211.2607 159.507 202.0321 187.3634 202.0321 187.3634 C 225.563 186.6251 276.6894 185.6582 285.1941 184.3957 C 285.8243 184.302 286.9166 184.1744 286.9928 183.9215 C 288.1423 180.1222 289.6107 173.6893 291.5275 168.7787 C 282.7313 166.9406 275.8463 159.907 274.2354 151.0383 C 273.8418 147.8184 273.8418 145.1593 274.2354 143.0617 C 275.8486 134.1805 282.7504 127.1396 291.5644 125.3136 C 289.6293 120.3909 288.1495 113.9001 286.9928 110.0764 C 286.9166 109.8235 285.8243 109.6959 285.1941 109.6022 C 276.6913 108.34 225.5886 107.3732 202.05 106.6349 C 202.0401 106.6227 202.034 106.6223 202.0321 106.6345 L 202.05 106.6349 Z M 297.3751 162.0853 C 305.1204 161.4388 311.2046 154.9541 311.2046 147.05 C 311.2046 138.7169 304.4422 131.9618 296.1006 131.9618 C 287.7586 131.9618 280.9963 138.7169 280.9963 147.05 C 280.9963 155.3831 287.7586 162.1382 296.1006 162.1382 C 296.141 162.1382 296.1814 162.1382 296.2218 162.1379 C 296.5952 162.0255 296.9796 162.0038 297.3751 162.0853 Z M 100.8979 124.6214 L 141.1529 96.6408 L 141.1529 42.8883 L 149.1379 42.8883 L 149.1379 96.7387 C 200.1153 97.3863 263.543 98.9631 285.1941 102.2679 C 286.8751 102.5243 291.9816 102.759 292.3897 103.8493 C 294.7424 110.1355 296.1258 124.8794 297.5865 124.6584 L 297.5865 124.8995 C 309.1666 125.6634 318.3232 135.2883 318.3232 147.05 C 318.3232 158.8117 309.1666 168.4366 297.5865 169.2005 L 297.5865 169.3395 C 296.1258 169.1185 294.7424 183.8624 292.3897 190.1486 C 291.9816 191.2389 286.8751 191.4736 285.1941 191.73 C 263.9922 194.9662 199.5472 196.5453 149.1379 197.2177 L 149.1379 251.2117 L 141.1529 251.2117 L 141.1529 197.6173 L 100.8979 168.8949 L 100.8979 124.6214 Z" stroke="currentColor" id="hallway"/>
  <path d="M 157.1229 188.3055 L 157.1229 105.6924 C 167.1417 105.8966 184.0299 106.1301 193.4642 106.3968 C 194.3809 106.0093 199.3106 125.2081 201.7231 139.5063 C 202.0435 143.6511 202.1136 147.767 201.9395 151.8546 C 200.0109 165.5231 194.4072 187.0106 193.4642 187.6011 C 184.0299 187.8678 167.1413 188.1013 157.1229 188.3055 Z" id="room-36" stroke="currentColor" name="Damage Control Center"/>
<path d="M 202.05 106.6349 C 225.5886 107.3732 276.6913 108.34 285.1941 109.6022 C 285.8243 109.6959 286.9166 109.8235 286.9928 110.0764 C 288.1495 113.9001 289.6293 120.3909 291.5644 125.3136 C 282.7504 127.1396 275.8486 134.1805 274.2354 143.0617 C 273.8418 145.1593 273.8418 147.8184 274.2354 151.0383 C 275.8463 159.907 282.7313 166.9406 291.5275 168.7787 C 289.6107 173.6893 288.1423 180.1222 286.9928 183.9215 C 286.9166 184.1744 285.8243 184.302 285.1941 184.3957 C 276.6894 185.6582 225.563 186.6251 202.0321 187.3634 C 202.0321 187.3634 211.2607 159.507 211.4051 146.053 C 211.5548 132.0879 202.5125 107.1895 202.05 106.6349 L 202.0321 106.6345 C 202.034 106.6223 202.0401 106.6227 202.05 106.6349 Z M 201.3395 155.4562 L 201.3395 138.6575 C 201.7696 141.7387 202.0321 144.602 202.0321 146.999 C 202.0321 149.4535 201.7696 152.3533 201.3395 155.4562 Z" id="room-37" stroke="currentColor" name="Security Information Center"/>
<path d="M 291.1267 169.8439 L 291.1267 168.6911 C 291.2596 168.7216 291.3934 168.7505 291.5275 168.7787 C 291.3915 169.1265 291.2581 169.482 291.1267 169.8439 Z M 291.1267 125.4089 L 291.1267 124.154 C 291.2699 124.5487 291.4159 124.9357 291.5644 125.3136 C 291.4178 125.3441 291.2722 125.3757 291.1267 125.4089 Z M 291.1267 103.1175 L 291.1267 103.0443 L 296.6211 100.8896 L 297.6582 101.119 L 298.7185 101.3563 L 299.8291 101.6458 L 301.0609 101.9837 L 302.8291 102.6078 L 303.761 102.9243 L 305.549 103.4802 L 306.726 103.8379 L 307.9535 104.6695 L 309.3427 105.7034 L 310.3561 106.7453 L 310.8716 107.6082 L 311.4904 108.6402 L 312.111 109.6178 L 313.0311 111.0403 L 314.2743 112.3092 L 315.4611 113.4403 L 316.323 113.9089 L 317.5662 114.5832 L 318.9317 115.4247 L 319.9688 116.0407 L 320.6728 116.5207 L 321.6185 117.1619 L 322.7821 117.949 L 323.706 118.608 L 324.7739 119.3619 L 325.9939 120.248 L 326.9372 120.9361 L 327.8303 121.5852 L 328.9276 122.386 L 329.8283 123.0428 L 330.5053 123.5422 L 331.4471 124.2302 L 332.5501 125.0447 L 333.5053 125.7849 L 334.3866 126.4904 L 335.6492 127.4116 L 336.7891 128.3194 L 338.0015 129.2269 L 339.3205 130.2452 L 339.8943 131.5317 L 340.5031 133.2905 L 340.8845 135.0456 L 341.0986 136.1942 L 341.3669 137.6769 L 341.6667 139.4491 L 341.7909 140.491 L 341.8709 141.3402 L 341.9505 142.2476 L 342.0264 143.5033 L 342.0946 144.6481 L 342.1685 145.9559 L 342.2306 147.05 L 342.1567 148.3559 L 342.0946 149.45 L 342.0187 150.7251 L 341.9505 151.8501 L 341.8709 152.7579 L 341.7909 153.6052 L 341.5966 155.0726 L 341.2465 157.0761 L 340.9973 158.4639 L 340.7367 159.6978 L 340.3496 161.4529 L 339.828 162.7394 L 339.194 163.9577 L 337.5889 165.1783 L 336.2447 166.253 L 335.5307 166.7737 L 334.3866 167.6077 L 333.5072 168.3132 L 332.517 169.0789 L 331.4471 169.8698 L 330.5072 170.5559 L 329.5814 171.2359 L 328.9276 171.7121 L 327.8303 172.5129 L 326.5368 173.4554 L 325.3168 174.3434 L 324.3887 175.0063 L 323.1943 175.8554 L 322.3713 176.4444 L 321.6185 176.9381 L 320.3364 177.8105 L 319.6224 178.2555 L 318.6829 178.8269 L 317.5662 179.5149 L 316.323 180.1911 L 315.1613 180.9317 L 313.9009 182.1679 L 312.7587 183.4776 L 312.111 184.4822 L 311.4904 185.4579 L 310.8716 186.4899 L 310.0548 187.8579 L 309.0741 188.5985 L 307.3234 189.8636 L 306.1385 190.4389 L 304.9341 190.816 L 303.761 191.1738 L 302.8291 191.4922 L 300.7435 192.2347 L 299.831 192.4542 L 298.7185 192.7437 L 297.6582 192.9791 L 296.6192 193.2104 L 291.1267 190.9604 L 291.1267 190.8804 C 291.7957 190.6907 292.2758 190.453 292.3897 190.1486 C 294.7424 183.8624 296.1258 169.1185 297.5865 169.3395 L 297.5865 169.2005 C 309.1666 168.4366 318.3232 158.8117 318.3232 147.05 C 318.3232 135.2883 309.1666 125.6634 297.5865 124.8995 L 297.5865 124.6584 C 296.1258 124.8794 294.7424 110.1355 292.3897 103.8493 C 292.2758 103.5449 291.7957 103.3072 291.1267 103.1175 Z" id="room-38" stroke="currentColor" name="Mission Lounge"/>
<path d="M 149.1379 105.1472 C 146.3558 105.0737 139.0806 104.9457 139.0806 104.9457 L 108.8586 125.1636 L 108.8757 168.7509 L 139.0433 189.061 C 139.0433 189.061 145.846 188.9379 149.1379 188.8511 L 149.1379 105.1472 Z" id="room-39" stroke="currentColor" name="Zoology"/>
<path d="M 100.8979 97.2606 L 107.7144 42.8883 L 140.9951 42.8883 L 140.9951 96.7216 L 100.8979 124.7754 L 63.2978 118.8606 L 100.8979 97.2606 Z" id="room-40" stroke="currentColor" name="Air Conditioning Control"/>
<path d="M 149.0872 197.2394 L 186.2713 196.7959 L 185.0018 213.0484 L 165.399 234.4876 L 149.1272 234.3668 L 149.0872 197.2394 Z" id="room-41" stroke="currentColor" name="Heating Control"/>
<path d="M 100.8979 196.8394 L 107.7144 251.2117 L 140.9951 251.2117 L 140.9951 197.3784 L 100.8979 169.3246 L 63.2978 175.2394 L 100.8979 196.8394 Z" id="room-42" stroke="currentColor" name="Air Filtration Center"/>
<path d="M 63.2978 118.8111 L 100.8979 124.7754 L 100.8979 169.3246 L 63.2978 175.4006 L 63.2978 118.8111 Z" id="room-43" stroke="currentColor" name="Air Pumping Monitoring Station"/>
</svg>