<svg viewBox="0 0 381 294.1" version="1.1" xmlns="http://www.w3.org/2000/svg" xmlns:xlink="http://www.w3.org/1999/xlink" xml:space="preserve" style="fill-rule:evenodd;clip-rule:evenodd;stroke-miterlimit:1.41421;">
  <path d="M 325.6495 177.5991 L 327.375 176.3168 L 328.1625 175.7331 L 329.5155 174.668 L 330.6775 173.7594 L 331.5687 173.0683 L 332.7814 172.1578 L 333.9149 171.4565 L 334.6799 170.9971 L 335.7033 170.4321 L 336.9343 169.6473 L 337.667 169.058 L 338.8511 167.7612 L 339.7099 166.3017 L 340.3366 165.1021 L 340.7313 164.2549 L 341.3051 162.6815 L 341.9281 161.0308 L 342.4714 159.6037 L 342.74 158.7603 L 343.2444 157.3496 L 343.5618 154.8943 L 343.8102 152.636 L 343.9546 151.3613 L 344.038 150.3533 L 344.1988 148.607 L 344.3108 147.05 L 344.2293 146.0641 L 344.1234 144.5395 L 343.9546 142.7368 L 343.8102 141.4621 L 343.6513 139.9253 L 343.3237 137.0613 L 342.74 135.3397 L 342.4714 134.4963 L 342.0073 133.2643 L 341.5353 131.9839 L 340.7313 129.8455 L 340.3347 128.9975 L 339.7099 127.7964 L 339.2645 126.9628 L 338.2164 125.5057 L 336.9324 124.4527 L 336.1978 123.9586 L 334.6799 123.1029 L 333.9168 122.6435 L 332.9849 122.0824 L 331.6094 121.0602 L 330.6775 120.3383 L 329.5155 119.4297 L 328.7584 118.8343 L 327.375 117.7832 L 326.2111 116.9196 L 324.471 115.6411 L 323.1364 114.6674 L 321.7793 113.4476 L 320.6233 112.4372 L 319.2029 110.8052 L 318.5518 109.8273 L 317.3635 107.5835 L 316.5047 105.9674 L 315.9248 104.695 L 315.1354 104.0242 L 314.0693 103.4672 L 313.0822 102.8474 L 312.3152 102.2497 L 311.0415 101.4915 L 310.0628 101.1498 L 308.9556 100.8512 L 308.0564 100.6092 L 306.9881 100.3228 L 305.5414 99.9403 L 304.6297 99.6313 L 303.6467 99.3448 L 302.5948 99.1334 L 301.6221 98.9464 L 300.5153 98.7372 L 298.6861 98.3875 L 297.3572 98.1334 L 296.0225 97.8812 L 294.598 97.6271 L 292.9741 97.3589 L 291.851 97.1414 L 290.7807 96.92 L 288.8803 96.4888 L 287.948 96.2572 L 286.1188 95.9238 L 284.7495 95.7105 L 283.6057 95.4667 L 282.2364 95.253 L 281.0908 94.928 L 279.7233 94.7752 L 278.5777 94.6088 L 276.9439 94.5029 L 275.9549 94.3992 L 274.9559 94.3669 L 273.8224 94.3223 L 272.868 94.2731 L 270.8495 94.2876 L 269.9625 94.2998 L 269.0428 94.3223 L 268.0068 94.3467 L 265.7033 94.3871 L 263.2942 94.4156 L 262.3094 94.4259 L 260.8669 94.4381 L 259.709 94.4503 L 258.4312 94.4625 L 257.0005 94.4766 L 255.273 94.493 L 253.4435 94.4846 L 252.0742 94.4175 L 250.9308 94.4297 L 249.5916 94.3711 L 248.6273 94.381 L 247.7319 94.2956 L 245.697 94.2225 L 244.4721 94.1086 L 243.4792 94.0598 L 242.0222 93.8629 L 240.8766 93.7509 L 239.5073 93.5516 L 238.3635 93.4583 L 237.0022 93.2754 L 235.6348 93.0781 L 234.3264 92.7752 L 233.4901 92.5009 L 231.488 92.0983 L 230.1389 91.8746 L 228.2099 91.5862 L 226.94 91.395 L 225.1108 91.1123 L 223.2816 90.7996 L 221.9142 90.5455 L 220.7685 90.206 L 219.4053 89.966 L 218.0417 89.7527 L 216.5074 89.5272 L 215.0566 89.3195 L 213.9498 89.1653 L 212.5439 88.9679 L 210.7143 88.7058 L 209.3469 88.5291 L 208.2013 88.3359 L 206.8319 88.1123 L 205.6886 87.854 L 204.3189 87.6346 L 203.1755 87.462 L 201.8058 87.2909 L 200.6605 87.1184 L 199.3053 86.9599 L 198.0598 86.7888 L 196.4585 86.5835 L 194.9508 86.3785 L 193.0664 86.1283 L 191.752 85.9942 L 190.6063 85.8357 L 189.2389 85.6974 L 188.0932 85.5431 L 186.7258 85.4109 L 185.5801 85.2623 L 184.2108 85.1141 L 183.0675 84.9717 L 181.4962 84.6894 L 180.4405 84.5328 L 179.5226 84.2787 L 178.0699 83.9088 L 176.672 83.1747 L 175.5263 82.3758 L 174.8302 81.815 L 174.165 81.0851 L 173.1192 79.9407 L 172.4962 79.258 L 171.7537 78.4447 L 170.7791 77.3776 L 170.0952 76.6275 L 169.2996 75.7574 L 168.4268 74.8001 L 167.741 74.05 L 166.8456 73.0705 L 166.0726 72.2248 L 165.3887 71.4766 L 164.7886 70.8221 L 163.7142 69.6495 L 163.0303 68.9093 L 162.2755 68.0883 L 161.3474 67.0822 L 160.6639 66.1755 L 160.0901 65.3035 L 159.378 64.3481 L 160.4463 63.6978 L 161.5897 63.2117 L 162.959 62.9027 L 164.1047 62.5309 L 165.4252 62.169 L 166.6403 61.6814 L 168.626 60.4555 L 169.8144 59.6954 L 170.2601 58.689 L 170.2864 57.1727 L 170.2091 56.1887 L 169.8368 54.1765 L 169.0821 52.7029 L 168.6283 51.6378 L 168.2862 50.5524 L 167.8835 49.1273 L 167.3013 46.7307 L 166.6136 45.0316 L 166.2596 44.1066 L 165.8668 43.019 L 165.3807 41.5942 L 164.7886 39.7587 L 164.3775 38.6185 L 163.8871 37.2565 L 163.2787 35.5714 L 162.7354 34.0631 L 162.2755 32.7845 L 161.8297 31.5507 L 161.1809 29.9388 L 160.8411 29.0404 L 159.7605 28.1459 L 158.9444 27.3431 L 158.1428 26.53 L 157.2475 26.0381 L 155.5688 25.164 L 154.7344 24.7636 L 153.3933 24.0196 L 152.2213 23.6273 L 150.3921 22.9728 L 149.0735 22.4463 L 147.9484 21.8284 L 147.2626 21.0254 L 146.986 19.9217 L 146.7296 18.9968 L 146.243 17.2609 L 145.8544 15.7547 L 145.4292 14.8725 L 145.1119 13.9761 L 143.661 12.6183 L 142.1675 11.8479 L 140.3665 11.8377 L 138.9442 11.8316 L 131.4031 11.8316 L 130.3085 11.8336 L 122.7692 11.8336 L 121.2167 11.9231 L 119.5464 12.1162 L 118.7627 12.5309 L 117.6174 12.8703 L 116.5224 13.5432 L 115.3748 14.3725 L 114.5183 14.9579 L 113.5475 15.9173 L 112.8271 16.7487 L 112.0052 17.6004 L 111.1202 18.5761 L 110.4363 19.3607 L 109.4922 20.3445 L 107.663 21.0824 L 106.6575 21.4035 L 105.4387 21.5479 L 104.4641 21.6556 L 102.6368 21.804 L 101.2675 21.9137 L 100.1218 22.0052 L 98.7544 22.115 L 97.6088 22.2126 L 96.2395 22.3325 L 95.0957 22.4565 L 93.7264 22.6171 L 92.5826 22.8488 L 91.2133 23.0358 L 90.0676 23.2472 L 88.7002 23.4301 L 87.5546 23.6435 L 86.279 23.8143 L 85.0499 24.0196 L 83.1715 24.4973 L 81.843 24.9323 L 79.8652 25.4628 L 78.5058 25.7758 L 77.4581 26.0299 L 76.4427 26.2962 L 75.1382 26.9101 L 74.3041 27.3614 L 72.9733 27.898 L 71.7911 28.3594 L 69.8232 29.0404 L 68.3461 30.6218 L 67.3715 31.5507 L 65.8349 33.1342 L 64.9357 34.0631 L 64.2499 34.7684 L 63.3607 35.6852 L 62.4981 36.5735 L 61.7369 37.3581 L 60.8865 38.2341 L 60.0624 39.0837 L 59.2219 39.9496 L 58.4119 40.785 L 57.6243 41.5942 L 56.7088 42.5394 L 55.9377 43.334 L 55.189 44.1066 L 54.1957 45.1291 L 53.4634 45.8853 L 52.7533 46.6171 L 51.6827 47.7208 L 50.9888 48.4343 L 50.3175 49.1273 L 49.1677 50.3143 L 48.5165 50.9871 L 47.886 51.6378 L 46.6546 52.9243 L 45.4807 54.1479 L 44.8559 54.8554 L 44.1419 55.6439 L 43.3197 56.6603 L 43.503 58.5328 L 43.9971 59.3476 L 45.845 59.9027 L 47.7252 60.4657 L 49.1677 60.9168 L 50.0977 61.2726 L 51.1211 61.6814 L 52.1181 61.8924 L 53.3697 62.1081 L 54.8796 62.3054 L 56.0253 62.4943 L 57.3927 62.6326 L 58.538 62.8216 L 59.9077 62.9698 L 61.0511 63.2544 L 62.4208 63.3664 L 63.566 63.4639 L 64.9334 63.5107 L 66.0791 63.5736 L 67.4465 63.6003 L 68.5922 63.6285 L 69.9615 63.6346 L 72.4746 63.6346 L 73.6183 63.6326 L 74.9877 63.6307 L 76.1333 63.6307 L 77.5007 63.6246 L 78.6464 63.6224 L 80.0138 63.6102 L 81.1591 63.6083 L 82.5288 63.6102 L 83.6722 63.6551 L 84.8811 63.8216 L 86.053 64.1915 L 86.5415 66.019 L 86.5354 67.387 L 86.3582 68.5314 L 86.106 69.8975 L 85.9086 71.0419 L 85.6583 72.4076 L 85.461 73.552 L 85.2187 74.9201 L 85.0213 76.0626 L 84.7855 77.4306 L 84.5881 78.5727 L 84.3885 79.7316 L 84.124 81.2623 L 83.9145 82.4512 L 83.7129 83.5956 L 83.4607 84.9618 L 83.2367 86.1062 L 82.9235 87.4738 L 82.6244 88.6163 L 82.2804 89.8563 L 82.008 90.7893 L 81.7432 91.6838 L 81.1267 93.6392 L 80.62 95.005 L 80.1155 96.1494 L 79.6839 97.0458 L 78.6464 97.8732 L 77.5007 98.3631 L 76.1333 98.7654 L 74.9877 98.922 L 73.6934 99.0725 L 72.5458 99.2005 L 71.5042 99.3064 L 70.5395 99.477 L 69.2761 99.7007 L 67.4465 99.9974 L 66.0791 100.2108 L 64.9334 100.3936 L 63.566 100.6172 L 62.4208 100.8531 L 61.0511 101.0767 L 59.9077 101.2352 L 58.538 101.4222 L 57.3927 101.5708 L 56.3872 101.6927 L 55.4206 101.8146 L 54.5581 102.1742 L 53.6059 102.6683 L 52.285 103.0607 L 50.7568 103.4508 L 49.1677 103.7986 L 48.0323 104.0223 L 46.6546 104.2722 L 47.3366 105.0527 L 48.1687 105.508 L 49.1677 106.073 L 50.4375 106.876 L 51.6827 107.5019 L 52.9464 108.1892 L 54.1957 108.9881 L 53.3027 110.0898 L 53.1644 111.0388 L 52.7491 111.8986 L 51.9638 112.3641 L 50.9869 113.0818 L 50.2219 113.9599 L 49.4161 114.5737 L 48.5798 115.1268 L 47.3812 115.9131 L 46.3517 116.5985 L 45.5032 117.1737 L 44.5221 117.824 L 43.4416 118.5417 L 42.6705 119.0537 L 41.8669 119.5882 L 40.9918 120.3772 L 40.0191 121.3182 L 39.2601 122.1311 L 38.2715 123.7372 L 37.787 125.1357 L 37.5347 126.2801 L 37.4513 127.6459 L 37.4513 166.4518 L 37.5347 167.8199 L 37.787 168.9643 L 38.2715 170.3609 L 38.8026 171.2329 L 39.4068 172.1578 L 40.9918 173.7228 L 41.6288 174.3529 L 42.6686 175.044 L 43.4416 175.5583 L 44.5221 176.276 L 45.5009 176.9263 L 46.3517 177.5015 L 47.3812 178.1865 L 48.5798 178.9732 L 49.4161 179.5263 L 50.2196 180.1382 L 50.9869 181.0182 L 51.6827 181.5732 L 52.4664 182.0388 L 53.1644 183.0612 L 53.3027 184.0083 L 54.1957 184.6464 L 52.9933 185.8887 L 51.6827 186.5981 L 50.4417 187.2221 L 49.6805 187.7341 L 48.1706 188.592 L 47.3366 189.0473 L 46.3353 189.6187 L 47.4566 189.9764 L 49.1677 190.2995 L 50.0935 190.4907 L 51.6827 190.8461 L 53.6059 191.4336 L 54.5562 191.9258 L 55.4168 192.2854 L 56.3853 192.4073 L 57.3927 192.5292 L 58.538 192.6755 L 59.9077 192.8626 L 61.0511 193.0214 L 62.4208 193.2469 L 63.566 193.4828 L 64.9334 193.7064 L 66.0791 193.8892 L 67.4465 194.1026 L 68.5922 194.2915 L 69.9596 194.5174 L 71.215 194.7552 L 72.5458 194.8995 L 73.6915 195.0275 L 74.9877 195.178 L 76.1333 195.3346 L 77.5007 195.7369 L 78.6464 196.2268 L 79.4705 196.7552 L 80.1133 197.9506 L 80.62 199.0927 L 81.1267 200.4608 L 81.489 201.6033 L 81.8064 202.6277 L 82.2804 204.2418 L 82.6244 205.4814 L 82.9235 206.6262 L 83.2367 207.9919 L 83.4607 209.1363 L 83.7129 210.5044 L 83.9145 211.6469 L 84.124 212.8377 L 84.358 214.1898 L 84.5881 215.525 L 84.7855 216.6694 L 85.0213 218.0355 L 85.2187 219.1799 L 85.461 220.548 L 85.6583 221.6901 L 85.9086 223.0581 L 86.106 224.2006 L 86.3582 225.5686 L 86.5354 226.713 L 86.5415 228.0791 L 86.1731 229.2235 L 85.5299 230.0651 L 84.358 230.435 L 82.5288 230.4898 L 81.1591 230.4917 L 80.0138 230.4898 L 78.6464 230.4776 L 77.5007 230.4754 L 76.1333 230.4693 L 74.9877 230.4693 L 73.6183 230.4674 L 72.4746 230.4654 L 69.9615 230.4654 L 68.5922 230.4715 L 67.4465 230.4997 L 66.0791 230.5264 L 64.9334 230.5893 L 63.566 230.6361 L 62.4208 230.7336 L 61.0511 230.8456 L 59.9077 231.1302 L 58.538 231.2784 L 57.3927 231.4674 L 56.0253 231.6057 L 54.8796 231.7946 L 53.5244 231.9596 L 52.1181 232.2072 L 51.1233 232.4167 L 50.0977 232.8255 L 49.1677 233.1832 L 48.0993 233.5063 L 46.6546 233.9699 L 44.6993 234.5409 L 43.5803 234.9291 L 43.4153 236.7139 L 43.7247 237.856 L 44.8559 239.2446 L 45.4788 239.9498 L 46.6546 241.1757 L 47.2855 241.834 L 48.5165 243.1129 L 49.1677 243.7876 L 50.3152 244.9727 L 50.9888 245.6657 L 51.6827 246.3811 L 52.751 247.4829 L 53.4612 248.2147 L 54.1957 248.9709 L 55.1867 249.9934 L 55.9358 250.766 L 56.7088 251.5606 L 57.6243 252.5039 L 58.4119 253.315 L 59.2219 254.1523 L 60.0601 255.014 L 60.8865 255.8659 L 61.7369 256.7421 L 62.4981 257.5265 L 63.3607 258.4149 L 64.2499 259.3314 L 64.9334 260.037 L 65.8349 260.9638 L 66.763 261.9212 L 68.3461 263.4782 L 69.2761 264.4965 L 71.2885 265.5719 L 72.9489 266.1917 L 74.3041 266.7388 L 75.1382 267.1879 L 76.4427 267.804 L 77.4581 268.0702 L 78.5058 268.324 L 79.8652 268.6371 L 81.1431 269.0051 L 83.0313 269.5518 L 84.358 269.9362 L 86.2077 270.2714 L 87.5546 270.4566 L 88.7002 270.6699 L 90.0676 270.8528 L 91.2133 271.0642 L 92.5826 271.2512 L 93.7264 271.4829 L 95.0957 271.6436 L 96.2395 271.7674 L 97.6088 271.8874 L 98.7544 271.985 L 100.1218 272.0947 L 101.2675 272.1861 L 102.6368 272.2958 L 103.7806 272.3896 L 104.8264 272.4852 L 105.7949 272.5907 L 106.9791 272.737 L 108.8083 273.4749 L 109.8301 274.1195 L 110.7742 275.1012 L 111.6593 276.0788 L 112.2392 276.7637 L 113.0591 277.6136 L 114.2048 278.7904 L 115.1001 279.5405 L 115.9547 280.1238 L 117.0333 281 L 118.7627 281.5691 L 119.5464 281.9836 L 120.5655 282.0792 L 122.0591 282.2682 L 138.9461 282.2682 L 140.3646 282.2621 L 141.447 282.2583 L 143.1787 281.7093 L 144.6802 280.8781 L 145.2745 279.6137 L 145.8544 278.3432 L 146.2449 276.8391 L 146.589 275.8757 L 146.9368 274.3511 L 147.1933 273.4261 L 147.9503 272.2696 L 149.0735 271.6535 L 150.3921 271.1271 L 151.5355 270.6779 L 152.7608 270.3183 L 154.065 269.7084 L 155.5688 268.9339 L 156.5171 268.3952 L 157.6993 267.8181 L 158.9444 266.7571 L 159.7605 265.954 L 160.843 265.0576 L 161.1809 264.1612 L 161.541 263.2911 L 162.0088 262.0553 L 162.6131 260.3741 L 162.9956 259.3173 L 163.6406 257.5265 L 164.3775 255.4796 L 164.7886 254.3432 L 165.2279 252.9428 L 165.8508 251.1256 L 166.2596 249.9934 L 166.6136 249.0684 L 167.214 247.5991 L 167.7653 245.3994 L 168.1905 243.9034 L 168.6283 242.4603 L 169.0821 241.3951 L 169.8144 240.0027 L 170.2091 237.909 L 170.2887 236.9273 L 170.2601 235.411 L 169.8144 234.4046 L 168.799 233.7585 L 167.3013 232.8171 L 165.6999 232.0548 L 164.7886 231.7055 L 162.959 231.1973 L 161.5897 230.886 L 160.4463 230.4022 L 159.3757 229.9896 L 160.0901 228.7965 L 160.6639 227.9245 L 161.3474 227.0159 L 162.2755 226.0117 L 163.0303 225.1884 L 163.7142 224.4505 L 164.3855 223.713 L 165.0164 223.0299 L 165.6165 222.3754 L 166.8456 221.0295 L 167.4705 220.3468 L 168.4268 219.2999 L 169.2996 218.3426 L 169.9245 217.6595 L 170.7791 216.7224 L 171.7537 215.6553 L 172.3762 214.9722 L 173.1211 214.1593 L 174.165 213.0149 L 174.7895 212.3318 L 175.5263 211.7238 L 176.672 210.9253 L 178.0699 210.1912 L 178.969 209.9798 L 179.8686 209.7013 L 180.8329 209.4963 L 182.3817 209.2118 L 184.2108 208.9859 L 185.5801 208.8377 L 186.7258 208.6891 L 188.0932 208.5569 L 189.2389 208.4026 L 190.6063 208.2643 L 191.752 208.1058 L 193.0664 207.9717 L 194.4033 207.7786 L 195.9517 207.5896 L 197.4635 207.3984 L 198.8515 207.2095 L 199.9766 207.0651 L 201.8058 206.8091 L 203.1755 206.6384 L 204.3189 206.4654 L 205.6886 206.2437 L 206.8319 205.9877 L 208.2013 205.7622 L 209.3469 205.5709 L 210.7143 205.3923 L 211.86 205.2193 L 213.3169 205.0304 L 214.9347 204.7987 L 216.123 204.6319 L 217.572 204.4125 L 219.4053 204.134 L 220.7685 203.894 L 221.9142 203.5545 L 223.2816 203.3004 L 224.4269 203.0974 L 226.1342 202.8311 L 227.6239 202.5991 L 229.7582 202.2882 L 230.9081 202.0974 L 232.6519 201.8086 L 234.3264 201.3248 L 235.6371 201.0219 L 237.0022 200.8246 L 238.3635 200.6417 L 239.5073 200.5484 L 240.8766 200.3491 L 242.0222 200.2371 L 243.4811 200.0402 L 244.4721 199.9914 L 245.6993 199.8775 L 247.5121 199.8227 L 248.6292 199.719 L 249.5916 199.7289 L 250.9308 199.6703 L 252.0742 199.6825 L 253.4435 199.6154 L 254.5892 199.6253 L 256.16 199.6154 L 257.7861 199.6314 L 259.7109 199.6497 L 260.8646 199.6619 L 262.3135 199.6741 L 263.2923 199.6844 L 264.9261 199.7008 L 267.6548 199.7453 L 269.0161 199.7777 L 269.9564 199.7983 L 270.8579 199.8124 L 272.1864 199.8227 L 273.393 199.7983 L 274.9597 199.7312 L 275.953 199.7008 L 276.9459 199.5949 L 277.8942 199.5362 L 279.7233 199.3248 L 281.0908 199.1701 L 282.2364 198.847 L 283.6057 198.6333 L 284.7495 198.3895 L 286.1188 198.1762 L 287.2645 197.9544 L 288.6239 197.6722 L 290.3696 197.2657 L 291.851 196.9586 L 292.9741 196.7411 L 293.8653 196.5967 L 295.4891 196.3262 L 297.3572 195.9666 L 298.6861 195.7106 L 299.8314 195.487 L 301.2601 195.2287 L 302.5948 194.9666 L 303.649 194.7552 L 304.6297 194.4687 L 305.5414 194.1597 L 306.6117 193.885 L 308.0564 193.4908 L 308.9556 193.2488 L 310.0628 192.9502 L 311.0415 192.6085 L 312.3152 191.8503 L 313.0822 191.2526 L 314.008 190.6713 L 315.1335 190.0758 L 315.9271 189.4031 L 316.5047 188.1307 L 317.0114 187.2221 L 318.1102 185.0083 L 319.2029 183.2948 L 319.9337 182.2014 L 321.6204 180.7987 L 322.7843 179.6909 L 323.8527 178.9103 L 325.6495 177.5991 Z" stroke="currentColor" id="voyager-deck-3" />
  <path d="M 225.6979 106.3968 C 176.9139 105.0173 114.9347 104.5259 95.4039 104.3823 L 95.4039 143.0617 L 196.3175 143.0617 L 196.3175 151.0383 L 95.4039 151.0383 L 95.4039 165.9943 L 95.4363 165.9943 L 95.4363 166.0107 L 95.4413 166.0107 L 95.4413 175.5971 L 95.4363 175.5971 L 95.4363 189.6153 C 114.9919 189.4713 176.936 188.9798 225.6979 187.6011 C 225.6979 187.6011 241.858 159.5816 241.858 146.0473 C 241.858 132.8303 225.6979 106.3968 225.6979 106.3968 Z M 233.6829 106.6345 C 233.758 106.0798 249.9962 131.7781 249.843 146.053 C 249.6986 159.507 233.6829 187.3634 233.6829 187.3634 C 257.2135 186.6251 276.6894 185.6582 285.1941 184.3957 C 285.8243 184.302 286.9166 184.1744 286.9928 183.9215 C 288.1423 180.1222 289.6107 173.6893 291.5275 168.7787 C 282.7313 166.9406 275.8463 159.907 274.2354 151.0383 C 273.8418 147.8184 273.8418 145.1593 274.2354 143.0617 C 275.8486 134.1805 282.7504 127.1396 291.5644 125.3136 C 289.6293 120.3909 288.1495 113.9001 286.9928 110.0764 C 286.9166 109.8235 285.8243 109.6959 285.1941 109.6022 C 276.6891 108.3397 257.2135 107.3728 233.6829 106.6345 Z M 297.3751 162.0853 C 305.1204 161.4388 311.2046 154.9541 311.2046 147.05 C 311.2046 138.7169 304.4422 131.9618 296.1006 131.9618 C 287.7586 131.9618 280.9963 138.7169 280.9963 147.05 C 280.9963 155.3831 287.7586 162.1382 296.1006 162.1382 C 296.141 162.1382 296.1814 162.1382 296.2218 162.1379 C 296.5952 162.0255 296.9796 162.0038 297.3751 162.0853 Z M 124.1934 197.2177 L 124.1934 251.2117 L 116.2084 251.2117 L 116.2084 197.3213 C 107.3376 197.4325 100.1535 197.5114 95.4363 197.5632 L 95.4363 197.6436 L 87.4513 197.6436 L 87.4513 175.5971 L 87.4189 166.0107 L 87.4189 99.3288 L 87.4513 99.3288 L 87.4513 96.3547 C 87.4513 96.3547 98.836 96.4362 116.2084 96.6408 L 116.2084 42.8883 L 124.1934 42.8883 L 124.1934 96.7387 C 175.1708 97.3863 263.543 98.9631 285.1941 102.2679 C 286.8751 102.5243 291.9816 102.759 292.3897 103.8493 C 294.7424 110.1355 296.1258 124.8794 297.5865 124.6584 L 297.5865 124.8995 C 309.1666 125.6634 318.3232 135.2883 318.3232 147.05 C 318.3232 158.8117 309.1666 168.4366 297.5865 169.2005 L 297.5865 169.3395 C 296.1258 169.1185 294.7424 183.8624 292.3897 190.1486 C 291.9816 191.2389 286.8751 191.4736 285.1941 191.73 C 263.9922 194.9662 174.6028 196.5453 124.1934 197.2177 Z" stroke="currentColor" id="hallway"/>
  <path d="M 87.3865 197.6436 L 87.3237 197.4451 L 86.8455 196.1544 L 86.3674 195.0767 L 85.7608 193.949 L 84.9832 193.4504 L 83.9023 192.9879 L 82.6118 192.6081 L 81.531 192.4606 L 80.3079 192.3185 L 79.227 192.1978 L 77.9716 192.0618 L 76.7867 191.8374 L 75.4967 191.6244 L 74.4158 191.4461 L 73.1257 191.2446 L 72.0448 191.072 L 70.7544 190.861 L 69.6735 190.6385 L 68.3815 190.4256 L 67.3025 190.2762 L 61.9133 182.5237 L 61.0705 181.9214 L 60.9398 181.0277 L 60.2814 180.0631 L 59.5419 179.6239 L 58.8855 179.1004 L 58.1616 178.2699 L 57.4034 177.6928 L 56.6143 177.1709 L 55.4835 176.4288 L 54.512 175.7823 L 53.7092 175.2394 L 52.7856 174.6257 L 51.7665 173.9487 L 51.0369 173.4638 L 50.0558 172.8116 L 49.4546 172.2169 L 47.9591 170.7403 L 47.3888 169.8675 L 46.8878 169.0446 L 46.4309 167.7269 L 46.1928 166.6473 L 46.114 165.3566 L 46.114 128.7415 L 46.1928 127.4527 L 46.4309 126.3731 L 46.8878 125.0535 L 47.8208 123.5384 L 48.5371 122.7711 L 49.4546 121.8831 L 50.2802 121.1387 L 51.0388 120.6343 L 51.7665 120.1513 L 52.7856 119.4743 L 53.7111 118.8606 L 54.512 118.3177 L 55.4835 117.6712 L 56.6143 116.9291 L 57.4034 116.4072 L 58.1635 115.8282 L 58.8855 114.9996 L 59.8071 114.3226 L 60.5481 113.8834 L 60.9398 113.0723 L 61.0705 112.1763 L 67.3025 103.8219 L 68.3815 103.6725 L 69.6735 103.4615 L 70.7544 103.239 L 72.0448 103.028 L 73.1257 102.8554 L 74.4158 102.6539 L 76.1417 102.3738 L 77.3342 102.1632 L 78.2441 102.002 L 79.227 101.9022 L 80.3098 101.7815 L 81.531 101.6394 L 82.6118 101.4915 L 83.9023 101.1121 L 84.9832 100.6496 L 85.9624 99.869 L 86.3693 99.0233 L 86.8455 97.9437 L 87.3237 96.6549 L 87.4182 96.3547 L 87.3865 197.6436 Z" id="room-27" stroke="currentColor" name="Shuttle Hangar"/>
<path d="M 298.3691 124.9536 C 293.959 123.1601 312.8928 124.0557 311.8214 119.3905 L 312.8273 119.9376 L 313.5382 120.3239 L 314.8153 121.0172 L 316.2186 121.7806 L 316.9844 122.1978 L 318.0638 122.7871 L 319.1904 123.402 L 320.3261 124.0245 L 321.1232 124.458 L 322.5908 125.2855 L 323.8108 125.9681 L 325.1576 126.7201 L 326.4035 127.5091 L 327.748 128.3491 L 328.787 128.9804 L 329.3787 129.8314 L 330.3514 131.2406 L 330.8574 132.0166 L 331.6415 133.2246 L 332.1581 134.017 L 332.6435 134.7622 L 333.2938 135.7614 L 333.9057 136.7039 L 334.7634 138.0236 L 335.3112 138.8781 L 336.3205 140.4358 L 337.0699 141.6434 L 337.8742 143.1002 L 338.7719 144.4641 L 339.0614 145.434 L 338.9845 146.5136 L 338.9845 147.6192 L 338.9898 149.3266 L 338.4313 150.2508 L 337.6525 151.5868 L 337.0699 152.4874 L 336.1685 153.937 L 335.3112 155.2528 L 334.4262 156.6273 L 333.9057 157.4288 L 333.2938 158.3698 L 332.6435 159.3691 L 332.16 160.1119 L 331.6415 160.9081 L 330.8574 162.1142 L 329.9376 163.4484 L 329.3787 164.2994 L 328.787 165.1505 L 327.1159 166.1753 L 326.4054 166.6237 L 324.8536 167.5829 L 323.5231 168.3239 L 321.9054 169.2336 L 320.6085 169.9548 L 320.3261 170.1087 L 318.9778 170.8443 L 318.0638 171.3437 L 316.9863 171.9331 L 315.801 172.5792 L 314.2656 173.412 L 313.5382 173.8093 L 312.8273 174.1933 L 311.274 175.039 C 312.3819 170.1925 294.2794 171.4047 298.5878 169.3326 C 298.7752 169.2427 298.9608 169.1509 299.1448 169.058 C 310.0338 167.626 318.4387 158.3184 318.4387 147.05 C 318.4387 135.5153 309.6318 126.0352 298.3691 124.9536 Z" id="room-28" stroke="currentColor" name="Upper Bow Sensors"/>
<path d="M 124.3443 197.6436 L 157.8898 197.6436 L 157.8898 251.2117 L 87.4189 267.7643 L 87.4189 197.6436 L 116.3597 197.6436 L 116.3597 251.2117 L 124.3443 251.2117 L 124.3443 197.6436 Z M 116.3597 96.3547 L 87.4189 96.3547 L 87.4189 26.2336 L 157.8898 42.8883 L 157.8898 96.3547 L 124.3443 96.3547 L 124.3443 42.8883 L 116.3597 42.8883 L 116.3597 96.3547 Z" id="room-29" stroke="currentColor" name="Weapons Locker"/>
<path d="M 233.7267 187.3619 C 233.7267 187.3619 250.0671 158.5618 250.0671 145.1075 C 250.0671 132.2837 233.7267 106.6356 233.7267 106.6356 C 257.2375 107.3739 276.6944 108.3404 285.1941 109.6022 C 285.8243 109.6959 286.9166 109.8235 286.9928 110.0764 C 288.1495 113.9001 289.6293 120.3909 291.5644 125.3136 C 282.7504 127.1396 275.8486 134.1805 274.2354 143.0617 C 273.8418 145.1593 273.8418 147.8184 274.2354 151.0383 C 275.8463 159.907 282.7313 166.9406 291.5275 168.7787 C 289.6107 173.6893 288.1423 180.1222 286.9928 183.9215 C 286.9166 184.1744 285.8243 184.302 285.1941 184.3957 C 276.6948 185.6575 257.2379 186.624 233.7267 187.3619 Z" id="room-30" stroke="currentColor" name="Power Distribution Center"/>
<path d="M 196.3175 188.3055 L 196.3175 105.6924 C 206.3363 105.8966 216.264 106.1301 225.6979 106.3968 C 225.6979 106.3968 237.4666 125.6474 240.9177 139.5063 C 241.2382 143.6511 241.3083 147.767 241.1345 151.8546 C 237.9936 166.2827 225.6979 187.6011 225.6979 187.6011 C 216.264 187.8678 206.3363 188.1013 196.3175 188.3055 Z" id="room-31" stroke="currentColor" name="Damage Control Resource Center"/>
<path d="M 95.5544 151.0405 L 143.5014 151.0405 L 143.5014 189.1573 L 95.5544 189.5802 L 95.5544 151.0405 Z" id="room-32" stroke="currentColor" name="Auxiliary Computer Core"/>
<path d="M 143.5014 151.0405 L 196.3175 151.0405 L 196.3175 188.3055 L 143.5014 189.093 L 143.5014 151.0405 Z" id="room-33" stroke="currentColor" name="Upper Shield Control"/>
<path d="M 95.5544 142.9631 L 143.5014 142.9631 L 143.5014 104.8467 L 95.5544 104.4234 L 95.5544 142.9631 Z" id="room-34" stroke="currentColor" name="Communications Control Center"/>
<path d="M 143.5014 142.9631 L 196.3175 142.9631 L 196.3175 105.6981 L 143.5014 104.911 L 143.5014 142.9631 Z" id="room-35" stroke="currentColor" name="Vehicle Maintenance Center"/>
</svg>