<svg viewBox="0 0 381 294.1" version="1.1" xmlns="http://www.w3.org/2000/svg" xmlns:xlink="http://www.w3.org/1999/xlink" xml:space="preserve" style="fill-rule:evenodd;clip-rule:evenodd;stroke-miterlimit:1.41421;">
  <path d="M 338.0354 183.374 L 338.7109 182.6769 L 339.5453 181.8029 L 340.3938 180.9024 L 341.5109 179.689 L 342.3514 178.8189 L 342.9716 178.1217 L 343.8224 177.1785 L 344.7867 176.1621 L 345.3689 175.4649 L 346.012 174.668 L 347.184 172.9891 L 347.6804 172.2268 L 348.3925 170.3445 L 348.8139 168.9483 L 349.1088 167.8343 L 349.4041 166.4377 L 349.6296 165.3219 L 349.8761 163.9661 L 350.1161 162.7383 L 350.3421 161.5714 L 350.5962 160.3234 L 350.861 158.9047 L 351.0907 157.7907 L 351.3612 156.3942 L 351.6017 155.2802 L 351.8783 153.884 L 352.1 152.7678 L 352.3686 151.3472 L 352.6292 149.975 L 352.8327 148.7228 L 353.0034 147.6538 L 353.0034 146.4443 L 352.8327 145.3749 L 352.6677 144.3303 L 352.4745 143.2976 L 352.2383 142.0271 L 351.8783 140.2141 L 351.6017 138.8198 L 351.3612 137.7036 L 351.0907 136.3073 L 350.861 135.1934 L 350.5962 133.7744 L 350.3421 132.5263 L 350.1161 131.3598 L 349.8761 130.132 L 349.6296 128.7762 L 349.4041 127.6604 L 349.1088 126.2638 L 348.8139 125.1498 L 348.3925 123.7532 L 347.9734 122.6393 L 347.6415 121.8081 L 346.4311 120.0579 L 345.7308 119.0659 L 345.0881 118.2712 L 344.1234 117.2529 L 343.4254 116.4579 L 342.575 115.515 L 341.7345 114.6449 L 340.9859 113.8197 L 340.0619 112.8235 L 339.1567 111.8967 L 338.0354 110.726 L 337.1442 109.7949 L 336.2325 108.8722 L 335.557 108.2033 L 334.6148 107.2703 L 333.7316 106.5221 L 332.5208 105.5975 L 330.8604 104.711 L 330.0546 104.3472 L 328.7078 104.1156 L 327.495 103.9144 L 325.6799 103.6562 L 324.2821 103.463 L 323.1669 103.3125 L 321.769 103.1198 L 320.6519 102.9632 L 319.2803 102.7659 L 317.9578 102.583 L 316.5169 102.3796 L 314.9277 102.1559 L 313.9002 102.0321 L 312.5046 101.8531 L 310.3496 101.6866 L 309.4196 101.6336 L 307.7836 101.6721 L 305.0446 101.7677 L 302.959 101.5544 L 301.6708 101.4264 L 299.8459 100.9224 L 298.0308 100.1742 L 296.6428 99.8877 L 295.0639 99.3429 L 293.6679 98.7921 L 292.3066 98.2168 L 290.3677 97.6782 L 289.171 97.2778 L 287.8383 96.8324 L 286.1432 96.4077 L 284.7655 96.0987 L 282.8773 95.9585 L 281.5525 95.8465 L 280.4377 95.8732 L 279.0398 95.8263 L 277.9227 95.9318 L 276.5268 95.9341 L 275.4097 96.0724 L 274.0137 96.1151 L 272.8966 96.253 L 271.232 96.3913 L 269.6836 96.5764 L 267.8095 96.8324 L 266.3506 97.0378 L 264.6575 97.2328 L 263.689 97.3223 L 262.1444 97.434 L 260.2645 97.5319 L 258.9314 97.6515 L 257.8166 97.6454 L 256.4187 97.7166 L 255.3016 97.7471 L 253.9056 97.8934 L 252.7885 98.2717 L 251.3377 98.6946 L 249.848 99.3429 L 248.4806 99.7719 L 247.0625 100.1578 L 246.041 100.1517 L 244.5494 100.1498 L 243.4853 100.1254 L 242.0363 100.0908 L 240.8358 99.967 L 239.5233 99.8329 L 238.1357 99.3429 L 237.0106 98.9707 L 236.0988 98.658 L 235.173 98.3387 L 233.5145 97.7574 L 231.9825 97.2145 L 230.9161 96.8324 L 230.0188 96.5376 L 228.7916 96.1292 L 227.6829 95.7551 L 225.9452 95.1535 L 224.4414 94.6149 L 222.6709 93.9928 L 221.2467 93.5131 L 219.9281 93.0762 L 218.3614 92.5394 L 216.9022 92.0232 L 215.3172 91.4582 L 214.3895 91.1226 L 212.3911 90.4803 L 210.7814 89.9375 L 209.3614 89.4395 L 207.9368 88.9275 L 206.8483 88.5249 L 204.8542 87.8906 L 203.2041 87.3439 L 201.8203 86.8681 L 200.5077 86.4067 L 199.3072 85.9698 L 197.3111 85.3256 L 195.6283 84.7644 L 194.281 84.2989 L 193.05 83.8966 L 191.7683 83.4574 L 189.7433 82.801 L 188.1237 82.252 L 186.7403 81.7724 L 185.5741 81.4086 L 184.2272 80.9716 L 182.4121 80.3392 L 181.0489 79.8737 L 180.0884 79.5304 L 179.2418 79.2436 L 178.2733 78.906 L 176.6861 78.3247 L 174.871 77.583 L 173.8781 77.1887 L 172.934 76.7456 L 172.063 76.3593 L 170.96 75.898 L 169.8448 75.3448 L 168.431 74.7982 L 167.0735 74.2351 L 166.0135 73.8286 L 164.8355 73.3387 L 163.4212 72.8469 L 162.3041 72.424 L 161.0201 72.0012 L 159.6443 71.5375 L 158.3665 71.1333 L 157.1987 70.7246 L 155.8801 70.3345 L 154.763 70.0293 L 153.3731 69.6373 L 151.9466 69.2145 L 150.4695 68.7691 L 149.0388 68.3261 L 147.2096 67.7081 L 145.8098 67.2426 L 144.3098 66.702 L 143.3699 66.4864 L 142.4643 66.3767 L 141.4981 66.2487 L 101.2816 66.2487 L 100.1687 66.2468 L 82.5715 66.2468 L 81.1755 66.2445 L 73.6343 66.2445 L 72.5134 66.2426 L 66.0936 66.2426 L 64.9681 66.2407 L 61.0674 66.2407 L 59.9401 66.2426 L 58.5544 66.2468 L 57.6144 66.4053 L 56.3324 66.6106 L 54.8126 67.1554 L 53.5263 67.6716 L 51.6788 68.4419 L 50.409 68.9604 L 49.2534 69.4381 L 47.8003 70.0354 L 46.6855 70.5356 L 45.328 71.109 L 44.441 71.485 L 43.4725 71.8713 L 42.6564 72.2412 L 40.9594 73.0195 L 39.2278 73.9037 L 38.2814 74.3448 L 36.8286 75.1864 L 35.9333 75.6721 L 34.5944 76.4649 L 33.5953 77.034 L 32.7203 77.6725 L 31.6032 78.5708 L 30.9053 79.1137 L 30.2704 79.9552 L 29.4544 81.0691 L 28.9172 82.4653 L 28.7585 83.5815 L 29.1024 84.9759 L 29.6416 86.0917 L 30.2358 87.0673 L 30.9053 87.9698 L 31.7558 88.8807 L 32.4537 89.5881 L 33.1232 90.2445 L 33.8822 90.9417 L 34.865 91.8118 L 35.6973 92.5455 L 36.4868 93.2427 L 37.1522 93.8324 L 37.8522 94.448 L 39.1542 95.5985 L 40.0374 96.3814 L 40.7537 97.0134 L 41.6429 97.7959 L 42.6236 98.6599 L 43.397 99.3429 L 44.4307 100.2534 L 45.1695 100.906 L 45.9852 101.6276 L 45.6251 102.5015 L 47.1899 103.5933 L 48.5005 104.3251 L 47.9408 106.3172 L 46.2092 106.6543 L 44.5591 106.876 L 43.4725 108.3153 L 42.5486 109.3865 L 43.3666 111.7911 L 44.0665 112.4902 L 44.7664 113.1165 L 45.5844 114.4091 L 43.8813 114.838 L 42.3756 115.5047 L 40.9594 116.3177 L 40.2511 116.9196 L 39.2704 117.7429 L 38.4463 118.3951 L 37.0952 119.4297 L 37.496 120.3791 L 37.9437 121.4401 L 38.4463 123.2066 L 38.6864 124.2108 L 39.0262 126.3838 L 39.2133 127.7274 L 39.4514 129.4733 L 39.6145 130.6402 L 39.8015 131.9839 L 39.9459 132.9961 L 40.1597 134.494 L 40.4447 136.4921 L 40.5746 137.3908 L 40.8676 139.4255 L 41.2074 141.7791 L 41.5252 143.9745 L 41.7142 145.2938 L 41.8403 146.1677 L 41.9687 147.05 L 41.8403 147.93 L 41.7142 148.8043 L 41.5252 150.1236 L 41.2909 151.7396 L 40.9594 154.0383 L 40.5746 156.7073 L 40.4447 157.6056 L 40.2595 158.9047 L 40.0275 160.5348 L 39.8015 162.1142 L 39.6366 163.3032 L 39.4514 164.6248 L 39.3314 165.509 L 39.1077 167.1349 L 38.8087 169.2854 L 38.4463 170.8934 L 38.2021 171.9136 L 37.496 173.7209 L 37.0952 174.668 L 37.962 175.1518 L 39.2704 176.3552 L 40.2473 177.1785 L 40.9594 177.78 L 42.1356 178.5141 L 43.4725 179.0688 L 45.5867 179.689 L 44.862 180.8128 L 44.0482 181.6262 L 43.3685 182.305 L 42.7844 184.0224 L 42.9901 185.1935 L 44.1133 186.5836 L 45.8857 187.3238 L 47.9408 187.7809 L 48.5005 188.9071 L 47.2977 190.4092 L 45.9852 191.3993 L 46.2439 192.2446 L 45.1855 193.1776 L 44.4307 193.8447 L 43.4725 194.69 L 42.6236 195.4382 L 41.6452 196.3018 L 40.9594 196.9057 L 40.0397 197.7186 L 39.1542 198.4992 L 38.4463 199.1255 L 37.7076 199.7758 L 36.4868 200.8551 L 35.6973 201.5526 L 34.8671 202.2863 L 33.8822 203.1561 L 33.1232 203.8536 L 32.4537 204.51 L 31.7558 205.2174 L 30.9053 206.1302 L 30.2358 207.0304 L 29.6416 208.006 L 29.1024 209.1222 L 28.7585 210.5166 L 28.9172 211.6324 L 29.4544 213.029 L 30.2704 214.1429 L 30.8239 214.901 L 31.6032 215.5273 L 32.7203 216.4256 L 33.4182 216.9685 L 34.5924 217.6329 L 35.4083 218.1452 L 36.8286 218.9117 L 37.6771 219.4279 L 38.4726 219.8527 L 40.186 220.7003 L 41.889 221.4973 L 42.9818 222.0074 L 43.8428 222.3731 L 45.328 222.9891 L 46.6855 223.5625 L 47.8003 224.0646 L 49.0682 224.5869 L 50.4071 225.1377 L 51.6788 225.6558 L 52.871 226.1621 L 54.2914 226.7233 L 55.9457 227.3961 L 57.6144 227.6928 L 58.5544 227.8532 L 59.6817 227.8555 L 61.0674 227.8593 L 62.1948 227.8574 L 69.7318 227.8574 L 71.1217 227.8555 L 77.2687 227.8555 L 78.6605 227.8532 L 87.3187 227.8532 L 88.7147 227.8513 L 141.4981 227.8513 L 142.4666 227.7214 L 143.3657 227.6136 L 144.3121 227.3961 L 145.3965 227.0117 L 146.5238 226.6155 L 148.5302 225.9385 L 150.1193 225.4387 L 151.5519 225.0014 L 153.0168 224.5625 L 154.065 224.2577 L 155.8801 223.7636 L 157.1987 223.3754 L 158.3687 222.9648 L 159.6443 222.5602 L 160.8102 222.1678 L 162.3041 221.676 L 163.4212 221.2512 L 164.8355 220.7613 L 166.0135 220.2695 L 166.8536 219.9605 L 168.431 219.2999 L 169.8448 218.7529 L 170.96 218.2001 L 172.063 217.7407 L 172.9359 217.3525 L 173.8781 216.9113 L 174.871 216.5151 L 175.9881 216.0374 L 177.5449 215.4743 L 179.0342 214.9254 L 180.0884 214.5677 L 181.0489 214.224 L 182.4121 213.7608 L 183.5292 213.3581 L 185.0147 212.8743 L 186.73 212.3299 L 187.8715 211.9352 L 189.253 211.4556 L 191.0742 210.8602 L 192.5353 210.3764 L 194.2262 209.8194 L 195.4473 209.3946 L 196.7941 208.9371 L 198.6233 208.3417 L 200.046 207.8578 L 201.6126 207.3089 L 202.9537 206.8395 L 204.3353 206.3721 L 206.1667 205.7824 L 207.5501 205.313 L 208.9991 204.7987 L 210.456 204.2723 L 211.8741 203.7843 L 213.7075 203.1888 L 215.0467 202.7374 L 216.3368 202.2863 L 217.9564 201.6989 L 219.4152 201.1907 L 221.2467 200.585 L 222.5387 200.1518 L 223.6459 199.7758 L 225.4526 199.1171 L 226.9564 198.5868 L 228.7551 197.9811 L 230.0207 197.5602 L 230.918 197.2657 L 231.9825 196.8832 L 232.9651 196.5338 L 234.4952 195.9952 L 236.0988 195.4401 L 237.0106 195.1293 L 238.1376 194.7552 L 239.5233 194.2671 L 240.7238 194.1433 L 242.0363 194.007 L 243.1028 193.9826 L 244.5494 193.9483 L 245.5728 193.9422 L 247.0625 193.9422 L 248.2813 194.2793 L 249.5775 194.6108 L 250.7677 195.1434 L 252.0906 195.6961 L 253.9056 196.2066 L 255.3016 196.3506 L 256.4187 196.3834 L 257.8166 196.4546 L 258.9314 196.4485 L 260.2622 196.5662 L 261.5504 196.6047 L 263.1152 196.7453 L 264.6575 196.8672 L 265.7685 196.9891 L 267.1705 197.1579 L 269.1647 197.4584 L 270.3755 197.5906 L 272.1986 197.8104 L 274.0137 197.983 L 275.4097 198.0257 L 276.5268 198.1659 L 277.9227 198.1659 L 279.0398 198.2718 L 280.4377 198.2249 L 281.5525 198.2535 L 282.8773 198.1415 L 284.1696 198.0706 L 285.899 197.7411 L 287.2786 197.4036 L 289.0651 196.8489 L 290.3677 196.4218 L 291.6231 196.0782 L 293.5521 195.3506 L 294.8197 194.8447 L 296.3521 194.3403 L 297.3328 194.0885 L 299.1479 193.3426 L 300.8711 192.954 L 302.3589 192.5681 L 304.6827 192.3384 L 307.0167 192.4279 L 309.4196 192.4644 L 310.3516 192.4134 L 312.3682 192.261 L 313.9025 192.066 L 314.9277 191.9418 L 315.8517 191.8119 L 317.4408 191.5901 L 319.2803 191.3341 L 320.6519 191.1349 L 321.769 190.9783 L 323.1669 190.7852 L 324.2821 190.6347 L 325.6799 190.4419 L 326.7951 190.2854 L 328.2643 190.0576 L 329.7677 189.8095 L 330.8627 189.3867 L 331.8148 188.8644 L 333.1475 188.0248 L 334.1957 187.2221 L 335.0339 186.4354 L 336.2325 185.2259 L 337.1442 184.3051 L 338.0354 183.374 Z" stroke="currentColor" id="voyager-deck-9" />
  <path d="M 120.2322 112.3588 L 120.2322 165.9943 L 120.2642 165.9943 L 120.2642 166.0107 L 120.2695 166.0107 L 120.2695 175.5971 L 120.2642 175.5971 L 120.2642 189.6153 C 137.9574 189.485 147.5236 189.0701 186.4599 187.9714 C 179.3306 161.0426 178.8845 133.7515 186.4462 106.0261 C 148.0985 104.9442 139.2772 104.5255 121.0795 104.3887 L 120.2322 104.3823 L 120.2322 112.3588 Z M 249.68 151.0383 L 193.1365 151.0383 C 193.5594 163.2129 195.6835 175.391 199.4108 187.5722 C 212.7771 187.1223 237.0525 186.5794 256.6153 185.9245 C 268.5901 185.5977 278.2058 185.267 283.9425 184.5641 C 284.4698 184.5085 284.927 184.4525 285.3096 184.3957 C 285.9397 184.302 287.0321 184.1744 287.1083 183.9215 C 288.2577 180.1222 289.7261 173.6893 291.6429 168.7787 C 282.8468 166.9406 275.9617 159.907 274.3509 151.0383 L 274.2354 151.0383 C 273.8418 147.8184 273.8418 145.1593 274.2354 143.0617 L 274.3509 143.0617 C 275.964 134.1805 282.8662 127.1396 291.6799 125.3136 C 289.7448 120.3909 288.265 113.9001 287.1083 110.0764 C 287.0321 109.8235 285.9397 109.6959 285.3096 109.6022 C 284.9354 109.5469 284.49 109.4917 283.9776 109.4376 C 274.9311 108.3149 256.1772 108.0353 233.7267 107.3301 L 233.7637 107.3915 C 220.5773 107.0292 207.8126 106.7084 199.3826 106.4246 C 195.4896 118.6328 193.4295 130.8455 193.1038 143.0617 L 249.6548 143.0617 C 249.9204 144.4941 250.0671 145.8351 250.0671 147.05 C 250.0671 148.2835 249.9295 149.6226 249.68 151.0383 Z M 237.5059 194.9647 C 201.7822 196.367 156.9476 197.0988 131.77 197.4249 L 123.785 197.5232 C 122.5182 197.5381 121.3424 197.5514 120.2642 197.5632 L 120.2642 197.6436 L 112.2792 197.6436 L 112.2792 189.6153 L 47.9332 189.6153 L 48.5005 188.9071 L 47.9408 187.7809 L 47.0615 187.5851 L 47.0615 181.6388 L 112.2792 181.6388 L 112.2792 175.5971 L 112.2472 166.0107 L 112.2472 112.3588 L 47.0615 112.3588 L 47.0615 106.4882 L 47.9408 106.3172 L 48.4842 104.3823 L 112.2472 104.3823 L 112.2472 99.3288 L 112.2792 99.3288 L 112.2792 96.3547 C 112.2792 96.3547 116.5551 96.3905 123.785 96.4747 L 131.77 96.573 C 156.8665 96.8979 201.4915 97.6263 237.1576 99.0195 L 238.1357 99.3429 L 239.5233 99.8329 L 240.8358 99.967 L 242.0363 100.0908 L 243.4853 100.1254 L 244.5494 100.1498 L 246.041 100.1517 L 247.0625 100.1578 L 248.4806 99.7719 L 249.2353 99.5349 C 265.1105 100.2774 278.1742 101.1788 285.3096 102.2679 C 286.9905 102.5243 292.0971 102.759 292.5051 103.8493 C 294.8578 110.1355 296.2412 124.8794 297.702 124.6584 L 297.702 124.8995 C 309.2821 125.6634 318.4387 135.2883 318.4387 147.05 C 318.4387 158.8117 309.2821 168.4366 297.702 169.2005 L 297.702 169.3395 C 296.2412 169.1185 294.8578 183.8624 292.5051 190.1486 C 292.0971 191.2389 286.9905 191.4736 285.3096 191.73 C 278.1445 192.8237 265.0007 193.7281 249.0357 194.4725 L 248.2813 194.2793 L 247.0625 193.9422 L 245.5728 193.9422 L 244.5494 193.9483 L 243.1028 193.9826 L 242.0363 194.007 L 240.7238 194.1433 L 239.5233 194.2671 L 238.1376 194.7552 L 237.5059 194.9647 Z" stroke="currentColor" id="hallway"/>
  <path d="M 120.2642 189.6153 L 120.2642 175.5971 L 120.2695 175.5971 L 120.2695 166.0107 L 120.2642 166.0107 L 120.2642 165.9943 L 120.2322 165.9943 L 120.2322 104.3823 L 121.0795 104.3887 C 139.2772 104.5255 148.177 104.9442 186.5243 106.0261 C 178.9629 133.7515 179.4087 161.0426 186.5384 187.9714 C 148.2105 189.053 138.266 189.472 121.0879 189.6092 L 120.2642 189.6153 Z" id="room-193" stroke="currentColor" name="Lower Computer Core"/>
<path d="M 342.0561 176.0257 C 337.627 167.3581 335.1295 157.542 335.1295 147.143 C 335.1295 136.6921 337.6521 126.8299 342.1224 118.1311 L 342.5971 118.672 L 343.5157 119.6419 L 344.1283 120.3989 L 344.7947 121.3437 L 345.948 123.0104 L 346.2638 123.802 L 346.6631 124.863 L 347.0639 126.1929 L 347.3451 127.2539 L 347.6259 128.5838 L 347.8412 129.6467 L 348.0755 130.9377 L 348.3045 132.1069 L 348.5194 133.2182 L 348.7617 134.4067 L 349.0135 135.758 L 349.2326 136.819 L 349.4905 138.1489 L 349.7191 139.2118 L 349.9824 140.5398 L 350.3257 142.2663 L 350.5505 143.4762 L 350.7345 144.4599 L 350.8915 145.4549 L 351.0542 146.4732 L 351.0542 147.6249 L 350.8915 148.6432 L 350.6975 149.8356 L 350.4495 151.1423 L 350.1939 152.4954 L 349.9824 153.5583 L 349.7191 154.8882 L 349.4905 155.9492 L 349.2326 157.2791 L 349.0135 158.3401 L 348.7617 159.6913 L 348.5194 160.8799 L 348.3045 161.9912 L 348.0755 163.1604 L 347.8412 164.4514 L 347.6259 165.5143 L 347.3451 166.8442 L 347.0639 167.9052 L 346.6631 169.2351 L 345.9846 171.0275 L 345.5118 171.7536 L 344.3958 173.3525 L 343.7832 174.1114 L 343.2292 174.7754 L 342.3106 175.7434 L 342.0561 176.0257 Z" id="room-117" stroke="currentColor" name="Forward Airlock"/>
<path d="M 342.0942 175.983 L 341.5002 176.6417 L 340.9093 177.3057 L 340.1088 178.1343 L 339.045 179.2901 L 338.2369 180.1477 L 337.4426 180.9801 L 336.799 181.6441 L 335.9502 182.5306 L 335.0819 183.4075 L 333.9408 184.5596 L 333.1422 185.3085 L 332.1444 186.0731 L 330.8749 186.8727 L 329.9681 187.3703 L 328.9253 187.7729 L 327.4931 188.0091 L 326.0941 188.2259 L 325.0322 188.3749 L 323.7006 188.5589 L 322.6388 188.7021 L 321.3076 188.8861 L 320.2435 189.0351 L 318.9374 189.2248 L 317.1855 189.4686 L 315.6718 189.6796 L 314.7921 189.8038 L 313.8156 189.9219 L 312.3545 190.1075 L 310.4338 190.253 L 309.5461 190.3014 L 307.2575 190.2663 L 305.0347 190.181 L 302.8218 190.4 L 301.4053 190.7677 L 299.7639 191.1376 L 298.035 191.8481 L 297.1011 192.0881 L 295.6419 192.5681 L 294.4345 193.05 L 292.5973 193.7433 C 292.5973 193.7433 292.0971 191.2389 292.5051 190.1486 C 293.8005 186.6876 294.8022 180.6627 295.6846 175.983 L 342.0942 175.983 Z M 342.4969 118.5577 L 295.7874 118.5577 C 294.8799 113.811 293.8512 107.4459 292.5051 103.8493 C 292.0971 102.759 293.2485 100.5426 293.2485 100.5426 L 294.545 101.0904 L 295.8743 101.615 L 297.3781 102.1338 L 298.6998 102.407 L 300.4284 103.1194 L 302.1669 103.5994 L 303.3933 103.7213 L 305.3799 103.9247 L 307.9882 103.8337 L 309.5461 103.7967 L 310.4319 103.847 L 312.484 104.0059 L 313.8137 104.1762 L 314.7921 104.2943 L 316.3058 104.5072 L 317.6778 104.7011 L 318.9374 104.8752 L 320.2435 105.063 L 321.3076 105.212 L 322.6388 105.396 L 323.7006 105.5392 L 325.0322 105.7232 L 326.7608 105.969 L 327.9157 106.1606 L 329.1985 106.3812 L 329.9658 106.7278 L 331.5473 107.5716 L 332.7002 108.4528 L 333.5415 109.1652 L 334.4388 110.0536 L 335.0819 110.6906 L 335.9502 111.5694 L 336.799 112.4559 L 337.867 113.571 L 338.7292 114.4537 L 339.6089 115.4022 L 340.3222 116.1885 L 341.1226 117.0168 L 341.9326 117.9151 L 342.4969 118.5577 Z" id="room-118" stroke="currentColor" name="Forward Shield Control"/>
<path d="M 295.6846 175.983 L 295.6545 176.1423 L 295.6846 175.983 L 295.6846 175.983 Z M 342.0344 175.983 L 295.6846 175.983 C 296.4047 172.1635 297.0455 169.2401 297.702 169.3395 L 297.702 169.2005 C 309.2821 168.4366 318.4387 158.8117 318.4387 147.05 C 318.4387 135.2883 309.2821 125.6634 297.702 124.8995 L 297.702 124.6584 C 297.0771 124.7529 296.466 122.1079 295.7874 118.5577 L 295.7874 118.5577 L 295.7486 118.3532 L 295.7292 118.2503 L 295.7265 118.2381 C 295.7048 118.1227 295.6827 118.0065 295.661 117.8891 L 295.7265 118.2381 L 295.7486 118.3532 L 295.7874 118.5577 L 341.9048 118.5577 C 337.5706 127.1518 335.1295 136.8628 335.1295 147.143 C 335.1295 157.5248 337.619 167.3261 342.0344 175.983 Z" id="room-119" stroke="currentColor" name="Reception Room"/>
<path d="M 233.7267 186.5604 C 233.7267 186.5604 250.0671 160.5043 250.0671 147.05 C 250.0671 134.2262 233.7267 107.3301 233.7267 107.3301 C 257.2375 108.0684 276.6944 108.3404 285.1941 109.6022 C 285.8243 109.6959 286.9166 109.8235 286.9928 110.0764 C 288.1495 113.9001 289.6293 120.3909 291.5644 125.3136 C 282.7504 127.1396 275.8486 134.1805 274.2354 143.0617 C 273.8418 145.1593 273.8418 147.8184 274.2354 151.0383 C 275.8463 159.907 282.7313 166.9406 291.5275 168.7787 C 289.6107 173.6893 288.1423 180.1222 286.9928 183.9215 C 286.9166 184.1744 285.8243 184.302 285.1941 184.3957 C 276.6948 185.6575 257.2379 185.8224 233.7267 186.5604 Z" id="room-120" stroke="currentColor" name="Power Distribution Center"/>
<path d="M 249.7024 143.3261 C 249.6872 143.2385 249.6712 143.1501 249.6548 143.0617 L 193.1819 143.0617 C 193.5076 130.8455 195.5681 118.6328 199.4611 106.4246 C 207.8793 106.708 220.6093 107.028 233.7625 107.3899 C 234.5322 108.6646 247.3639 130.0684 249.7024 143.3261 Z" id="room-121" stroke="currentColor" name="Botany Bay"/>
<path d="M 233.7267 186.5604 C 240.6156 186.344 212.0749 187.1486 199.4893 187.5722 C 195.762 175.391 193.6379 163.2129 193.2146 151.0383 L 249.68 151.0383 L 249.6792 151.044 C 247.2046 165.0686 233.7267 186.5604 233.7267 186.5604 Z M 249.68 151.0383 L 249.7009 150.9183 L 249.6948 150.9537 L 249.68 151.0383 Z" id="room-122" stroke="currentColor" name="Greenhouse"/>
<path d="M 220.876 195.5525 L 149.8263 221.0912 L 52.1273 221.0912 L 52.1273 189.6153 L 112.2792 189.6153 L 112.2792 197.6436 L 120.2642 197.6436 L 120.2642 197.5632 C 121.3424 197.5514 122.5182 197.5381 123.785 197.5232 L 131.77 197.4249 C 153.1631 197.148 188.7474 196.5777 220.876 195.5525 Z" id="room-123" stroke="currentColor" name="Weapons Locker A"/>
<path d="M 220.876 98.4115 L 149.8263 72.8728 L 52.1273 72.8728 L 52.1273 104.3487 L 112.2792 104.3487 L 112.2792 96.3208 L 120.2642 96.3208 L 120.2642 96.4008 C 121.3424 96.413 122.5182 96.4259 123.785 96.4408 L 131.77 96.5391 C 153.1631 96.816 188.7474 97.3863 220.876 98.4115 Z" id="room-124" stroke="currentColor" name="Weapons Locker B"/>
<path d="M 78.5786 181.6388 L 78.5786 112.3588 L 112.2472 112.3588 L 112.2472 166.0107 L 112.2792 175.5971 L 112.2792 181.6388 L 78.5786 181.6388 Z" id="room-125" stroke="currentColor" name="Life Support Control"/>
<path d="M 52.1273 112.3588 h 26.4515 v 69.28 h -26.289 v -68.9535 Z" id="room-126" stroke="currentColor" name="Engineering Lounge"/>
</svg>