<svg viewBox="0 0 381 294.1" version="1.1" xmlns="http://www.w3.org/2000/svg" xmlns:xlink="http://www.w3.org/1999/xlink" xml:space="preserve" style="fill-rule:evenodd;clip-rule:evenodd;stroke-miterlimit:1.41421;">
  <path d="M 341.7193 161.3264 L 342.2893 160.1721 L 343.1336 158.505 L 343.8803 157.0924 L 344.8385 155.1858 L 345.439 153.3766 L 345.799 152.0718 L 346.0779 150.2302 L 346.2204 149.0348 L 346.3141 147.482 L 346.2204 145.0652 L 346.0779 143.8698 L 345.9354 142.8374 L 345.4653 140.7985 L 345.0728 139.5181 L 344.2324 137.6845 L 343.4898 136.2635 L 342.5739 134.4951 L 341.7193 132.7755 L 341.3246 131.9846 L 340.9116 131.1777 L 340.0387 129.4745 L 339.2062 128.332 L 338.6263 127.5411 L 337.3911 126.2527 L 336.6931 125.6874 L 335.9121 125.2321 L 334.6952 124.4515 L 333.4923 123.7666 L 331.6655 122.7586 L 330.1959 121.9414 L 329.1524 121.3742 L 327.9008 120.693 L 326.6393 120.0042 L 325.5912 119.4309 L 324.6227 118.9044 L 323.0133 118.0305 L 321.6112 117.2701 L 319.7451 116.256 L 318.1297 115.3779 L 316.8701 114.6925 L 314.8717 113.6072 L 314.072 113.1721 L 313.246 112.723 L 311.7281 111.8978 L 310.4034 110.542 L 309.2131 109.3873 L 308.5414 107.3812 L 307.744 105.6657 L 307.0132 104.3666 L 305.41 102.9742 L 304.1321 101.8542 L 302.3944 101.1491 L 301.5051 100.8195 L 300.5568 100.5331 L 298.9901 100.0492 L 297.0977 99.3437 L 295.9867 99.0226 L 294.9203 98.7159 L 293.964 98.4454 L 292.6884 98.053 L 291.4509 97.6568 L 289.0175 96.8945 L 287.2348 96.4656 L 285.2429 96.0469 L 283.9102 95.7787 L 282.8517 95.7238 L 281.3971 95.6564 L 280.3227 95.6015 L 278.884 95.5326 L 277.8077 95.4796 L 276.369 95.4149 L 275.2946 95.3638 L 273.8559 95.3029 L 272.7815 95.256 L 271.3429 95.1974 L 270.2684 95.1524 L 268.8298 95.0975 L 267.67 95.0549 L 266.3171 95.0019 L 265.3055 94.9634 L 263.8017 94.9105 L 262.8618 94.8762 L 261.289 94.8271 L 259.6039 94.7745 L 257.9903 94.7154 L 256.9895 94.685 L 255.5954 94.5935 L 254.2584 94.5303 L 253.2941 94.4655 L 251.4931 94.4046 L 249.2426 94.3231 L 246.6423 94.2377 L 245.6981 94.2091 L 244.3997 94.1646 L 242.8799 94.1158 L 241.1806 94.059 L 240.1348 94.0183 L 238.6679 93.9611 L 237.4407 93.9147 L 236.1548 93.8636 L 234.997 93.8171 L 233.6418 93.7623 L 232.0751 93.7154 L 231.1268 93.6869 L 230.0524 93.6339 L 228.6137 93.5528 L 227.5393 93.4613 L 226.1006 93.3169 L 225.0262 93.2419 L 223.5876 93.1238 L 222.5112 93.0305 L 221.0726 92.8838 L 219.813 92.7478 L 218.5595 92.6339 L 217.6196 92.571 L 216.0468 92.4388 L 214.1441 92.2823 L 212.9904 92.2072 L 211.3788 92.0731 L 208.6215 91.8922 L 207.3029 91.8106 L 206.1961 91.6076 L 204.2427 91.0506 L 202.5781 90.2007 L 201.5913 89.3005 L 198.9826 88.6601 L 197.4361 88.286 L 195.9384 87.9344 L 195.0819 87.6456 L 193.6859 86.79 L 192.3856 85.3183 L 191.9604 84.2795 L 190.9126 82.7735 L 190.1598 81.7693 L 189.3802 80.8425 L 188.3995 79.3544 L 187.2417 78.0858 L 186.3322 76.7464 L 185.0521 75.1205 L 184.4966 74.2362 L 183.8009 73.3479 L 183.0274 72.3577 L 181.817 70.8191 L 180.8584 69.5771 L 179.8674 68.3737 L 178.5164 66.7028 L 177.4157 65.3938 L 176.4613 64.1927 L 175.8304 63.3286 L 175.2219 62.5503 L 174.5567 61.6821 L 174.6828 60.7126 L 175.4497 59.5396 L 175.7999 56.692 L 175.1834 54.7956 L 174.5323 52.9357 L 174.0682 51.6386 L 173.3173 49.5532 L 172.54 47.3947 L 171.8748 45.5489 L 171.3536 44.1055 L 170.8042 42.5813 L 170.4484 41.5953 L 169.8784 40.0098 L 169.545 39.0848 L 169.2131 38.166 L 168.7491 36.8814 L 168.2915 35.611 L 167.8804 34.4727 L 167.4122 33.186 L 166.8163 31.5517 L 165.9594 29.1796 L 165.125 27.1815 L 163.9877 25.7749 L 163.2635 25.1122 L 162.2256 24.0186 L 161.5295 23.2706 L 160.7504 22.3782 L 159.0431 21.5082 L 157.7957 21.181 L 156.1658 21.1789 L 136.0578 21.1789 L 135.1765 21.2053 L 133.5123 21.2257 L 132.2729 21.5082 L 131.0766 21.9148 L 129.7865 22.3376 L 128.0751 22.9616 L 127.0658 23.3661 L 125.8207 23.8519 L 123.6756 24.7016 L 121.9257 25.3398 L 120.5339 25.8358 L 118.8331 26.531 L 118.0212 27.3623 L 117.1564 28.1755 L 116.2122 29.0413 L 115.5082 29.765 L 114.6269 30.6736 L 113.7742 31.5517 L 112.9951 32.3567 L 112.1527 33.2226 L 111.3389 34.0621 L 110.482 34.9463 L 109.6785 35.7716 L 108.9008 36.5745 L 107.967 37.536 L 107.2039 38.3225 L 106.4651 39.0848 L 105.4539 40.1256 L 104.7297 40.8715 L 104.0298 41.5953 L 102.9409 42.7173 L 102.2551 43.4228 L 101.5917 44.1055 L 100.4282 45.307 L 99.7809 45.9718 L 99.1564 46.616 L 97.9128 47.8964 L 96.7207 49.1284 L 96.0714 49.797 L 95.4001 50.4903 L 94.2868 51.6386 L 93.601 52.3521 L 92.887 53.0942 L 91.8839 54.1491 L 91.184 54.9582 L 90.374 55.9358 L 89.7533 56.6596 L 90.374 59.1088 L 92.0405 59.8772 L 92.887 60.1762 L 93.7435 60.4177 L 95.4001 60.8673 L 97.7829 61.5522 L 99.5732 62.0745 L 100.4282 62.3001 L 101.6752 62.5016 L 102.9409 62.6985 L 103.8751 63.0646 L 105.4539 63.7942 L 105.7104 64.8064 L 105.7614 65.9691 L 105.6818 67.3779 L 105.4825 69.1299 L 105.4539 70.0488 L 105.4132 71.5589 L 105.2993 73.7806 L 105.2402 74.7464 L 105.1876 76.1102 L 105.0185 77.5232 L 104.7399 79.2569 L 104.7011 80.3362 L 104.6603 81.7693 L 104.6462 82.8406 L 104.6401 84.2795 L 104.6382 85.2981 L 104.6645 86.79 L 104.4873 87.7412 L 104.2515 89.3005 L 103.8362 90.1702 L 102.9409 91.5344 L 102.0985 93.0933 L 101.3967 94.3231 L 100.7554 95.0244 L 99.6102 95.9208 L 98.2241 96.5978 L 95.8722 96.9757 L 94.8138 97.0488 L 93.6704 97.12 L 91.4076 97.2602 L 90.374 97.3212 L 89.2976 97.3863 L 87.8609 97.4759 L 86.7846 97.5429 L 85.3459 97.6343 L 84.2715 97.7037 L 82.8328 97.797 L 81.7584 97.8683 L 80.3198 97.9635 L 79.2453 98.0347 L 77.8067 98.1345 L 76.7304 98.2054 L 75.2917 98.3052 L 74.2173 98.3784 L 72.779 98.4801 L 71.7046 98.5532 L 70.2659 98.6587 L 69.1915 98.7319 L 67.7528 98.8378 L 66.6765 98.9128 L 65.2379 99.0187 L 64.3402 99.0797 L 62.7248 99.1974 L 61.8294 99.2748 L 60.8708 99.3437 L 59.2535 99.4538 L 57.6986 99.5696 L 56.6242 99.6489 L 55.1856 99.7605 L 54.1092 99.842 L 52.6706 99.9555 L 51.5962 100.039 L 50.1575 100.1571 L 49.0835 100.2953 L 47.6448 100.5045 L 46.5704 100.6203 L 45.1317 100.7769 L 44.0554 100.8584 L 42.6168 100.9742 L 41.5423 101.1529 L 40.1037 101.3929 L 38.665 102.5354 L 37.5906 103.4988 L 36.9049 104.3666 L 36.4816 105.4398 L 35.9099 106.8772 L 35.9912 107.9503 L 36.1276 109.3873 L 36.5447 110.4605 L 37.1185 111.8978 L 38.7789 113.6845 L 39.5524 114.4102 L 41.2962 114.9935 L 42.6168 115.1885 L 43.6931 115.2373 L 45.1317 115.3043 L 46.2062 115.3554 L 47.6448 115.4205 L 48.7192 115.4712 L 50.1575 115.5402 L 51.2319 115.5889 L 52.6706 115.6563 L 53.7473 115.7051 L 55.1856 115.7722 L 56.26 115.8228 L 57.6986 115.888 L 58.7731 115.9386 L 60.2117 116.0038 L 61.2861 116.0545 L 62.7248 116.1215 L 64.2755 116.2232 L 65.2379 116.2804 L 66.2532 116.6541 L 67.2034 116.9204 L 66.2532 117.2537 L 65.2379 117.7703 L 64.5806 118.5181 L 64.7555 119.4309 L 63.7238 120.1158 L 62.7248 120.7787 L 61.6767 121.4759 L 60.6003 122.1894 L 59.351 123.2748 L 58.128 124.4515 L 57.19 125.7849 L 56.4657 126.964 L 56.2623 128.0371 L 56.0344 129.4745 L 56.0344 164.6255 L 56.2379 165.6991 L 56.4634 167.136 L 56.9744 167.9574 L 57.6986 169.1361 L 58.9887 170.4736 L 60.2117 171.6508 L 60.973 172.1586 L 62.0226 172.8561 L 63.7219 173.9842 L 64.7536 174.6691 L 64.5806 175.5819 L 65.2379 176.3278 L 66.2532 176.8463 L 67.2015 177.1796 L 66.2532 177.4459 L 65.2379 177.8219 L 64.2774 177.8768 L 62.7248 177.9804 L 61.6504 178.0292 L 60.2117 178.0962 L 59.1373 178.1469 L 57.6986 178.212 L 56.6242 178.2631 L 55.1856 178.3278 L 54.1092 178.3789 L 52.6706 178.4437 L 51.5962 178.4947 L 50.1575 178.5617 L 49.0835 178.6124 L 47.6448 178.6795 L 46.5704 178.7282 L 45.1317 178.7957 L 44.0554 178.8463 L 42.6168 178.9115 L 41.3225 179.1023 L 40.1037 179.2814 L 38.7892 180.4052 L 37.5906 181.5336 L 36.7014 183.2753 L 36.1276 184.7127 L 36.0462 185.7859 L 35.9099 187.2228 L 36.3331 188.2964 L 36.9049 189.7334 L 37.5906 190.6012 L 38.3477 191.2823 L 39.4221 192.2439 L 41.18 192.8862 L 42.6168 193.1258 L 43.6931 193.2073 L 45.1317 193.3231 L 46.2062 193.4389 L 47.6448 193.5955 L 48.7192 193.7357 L 50.1575 193.9452 L 51.2319 194.0264 L 52.6706 194.1445 L 53.7473 194.2256 L 55.1856 194.3395 L 56.26 194.4188 L 57.6986 194.5327 L 58.9399 194.6218 L 60.2117 194.7197 L 61.8253 194.8252 L 62.7248 194.9026 L 63.7383 194.9654 L 65.2379 195.0813 L 66.3142 195.1567 L 67.7528 195.2622 L 68.8273 195.3354 L 70.2659 195.4432 L 71.3403 195.5163 L 72.779 195.6199 L 73.853 195.6931 L 75.2917 195.7948 L 76.3684 195.866 L 77.8067 195.9677 L 78.8811 196.0367 L 80.3198 196.1365 L 81.3942 196.2055 L 82.8328 196.303 L 83.9072 196.3719 L 85.3459 196.4657 L 86.4222 196.5327 L 87.8609 196.626 L 88.9353 196.6912 L 90.374 196.7788 L 91.4057 196.8398 L 92.887 196.9331 L 94.816 197.0531 L 95.8699 197.1243 L 97.4369 197.2664 L 99.6102 198.1792 L 100.4282 198.716 L 101.3967 199.7769 L 101.895 200.649 L 102.825 202.2871 L 103.8362 203.9298 L 104.2515 204.7995 L 104.4873 206.3588 L 104.6645 207.31 L 104.6626 208.2998 L 104.6401 209.8205 L 104.6523 210.8815 L 104.6603 212.3307 L 104.6992 213.4122 L 104.7399 214.8431 L 104.9106 215.8088 L 105.1488 217.3536 L 105.2402 219.3536 L 105.2993 220.3194 L 105.3888 222.1853 L 105.4539 224.0493 L 105.4825 224.9701 L 105.6818 226.7221 L 105.7614 228.1309 L 105.7123 229.2936 L 105.4539 230.3077 L 104.6359 230.6654 L 102.9409 231.4034 L 101.6897 231.5965 L 100.4282 231.7999 L 99.5732 232.0255 L 98.1326 232.4179 L 95.935 233.0682 L 94.0712 233.5824 L 92.887 233.9242 L 92.0424 234.2228 L 90.3881 234.928 L 89.8691 236.9364 L 90.374 238.1661 L 91.1817 239.1418 L 91.8839 239.9509 L 92.887 241.0058 L 93.601 241.7479 L 94.2868 242.4614 L 95.4001 243.6097 L 96.0714 244.303 L 96.7184 244.9716 L 97.9128 246.2036 L 98.5437 246.8539 L 99.7809 248.1282 L 100.4282 248.793 L 101.5917 249.9945 L 102.2551 250.6772 L 102.9409 251.3846 L 104.0275 252.5047 L 104.7297 253.2285 L 105.4539 253.9744 L 106.4651 255.0152 L 107.2039 255.7775 L 107.967 256.5642 L 108.9008 257.5257 L 109.6785 258.3284 L 110.482 259.1558 L 111.3366 260.0377 L 112.1527 260.8774 L 112.9951 261.7452 L 113.7742 262.5483 L 114.6269 263.4283 L 115.5082 264.3349 L 116.21 265.0588 L 117.1541 265.9247 L 118.0212 266.7377 L 118.8331 267.5689 L 119.9194 268.0059 L 121.2685 268.5224 L 123.0493 269.1545 L 125.3178 270.0794 L 127.0658 270.7339 L 128.0751 271.1404 L 129.1331 271.476 L 130.5881 272.0836 L 132.271 272.5918 L 133.5142 272.8745 L 135.1765 272.8947 L 136.0597 272.921 L 157.7957 272.921 L 159.045 272.5918 L 160.2193 272.0269 L 161.5295 270.8295 L 162.2256 270.0794 L 163.2635 268.988 L 163.9877 268.3251 L 164.8831 267.5689 L 165.7784 265.3696 L 166.5515 263.2801 L 167.211 261.469 L 167.7318 260.0377 L 168.2915 258.4891 L 168.6375 257.5257 L 169.2131 255.934 L 169.545 255.0152 L 169.8784 254.0902 L 170.251 253.0578 L 170.8042 251.521 L 171.2298 250.3401 L 171.6653 249.1347 L 172.2592 247.4821 L 173.0792 245.2116 L 173.8911 242.9594 L 174.4873 241.2923 L 174.9678 239.9509 L 175.7877 237.4831 L 175.6067 235.1539 L 174.8253 233.5744 L 174.5586 232.4179 L 175.2219 231.5497 L 175.8304 230.7733 L 176.4632 229.9073 L 177.1307 229.0353 L 178.3453 227.5942 L 179.483 226.1652 L 180.5898 224.8848 L 181.8048 223.2969 L 182.576 222.3743 L 183.3715 221.3213 L 184.4966 219.8638 L 184.9728 219.0954 L 185.8846 217.943 L 187.1034 216.1848 L 188.1207 215.077 L 189.3802 213.2575 L 190.1617 212.3307 L 190.9126 211.3265 L 191.5493 210.3874 L 192.3856 208.7817 L 193.4253 207.4483 L 195.0819 206.4544 L 195.9384 206.1656 L 197.0273 205.8852 L 198.4515 205.5843 L 200.7836 204.9907 L 202.58 203.9012 L 203.4795 203.4418 L 205.5552 202.7244 L 207.3071 202.2871 L 208.4017 202.22 L 210.6991 202.0657 L 212.9904 201.8928 L 214.1441 201.8177 L 215.2959 201.7099 L 216.8972 201.6021 L 218.5595 201.4661 L 219.7398 201.3541 L 221.0726 201.2162 L 222.1489 201.1225 L 223.5876 200.9762 L 224.662 200.9008 L 226.1006 200.7831 L 227.1751 200.6916 L 228.6137 200.5472 L 229.6881 200.4924 L 231.1268 200.4131 L 232.0789 200.3846 L 233.6418 200.34 L 234.7973 200.2912 L 236.1548 200.2364 L 237.3878 200.1876 L 238.6679 200.1389 L 239.7625 200.0962 L 241.1806 200.0432 L 242.1026 200.0128 L 243.6937 199.9579 L 245.6959 199.8928 L 246.6442 199.8623 L 248.6181 199.7971 L 251.0089 199.716 L 253.296 199.6345 L 254.2565 199.5716 L 255.5954 199.5065 L 256.9872 199.415 L 257.9903 199.3865 L 259.6039 199.3255 L 261.289 199.2748 L 262.1985 199.2425 L 263.8017 199.1914 L 264.7866 199.1529 L 266.3171 199.1 L 267.5805 199.0512 L 268.8298 199.0025 L 269.9042 198.9579 L 271.3429 198.9026 L 272.4173 198.8562 L 273.8559 198.799 L 274.9304 198.7484 L 276.369 198.6874 L 277.4453 198.6345 L 278.884 198.5693 L 279.9584 198.5145 L 281.3971 198.4436 L 282.854 198.3765 L 283.9102 198.3236 L 285.1248 198.0775 L 286.4228 197.8173 L 288.8178 197.2664 L 290.69 196.6893 L 292.3687 196.1506 L 293.964 195.6546 L 294.9203 195.3841 L 295.9867 195.0774 L 297.0996 194.7563 L 298.5588 194.2092 L 300.3351 193.6321 L 301.5051 193.2805 L 302.3944 192.9509 L 303.9226 192.3208 L 305.41 191.1258 L 306.5313 190.152 L 307.6301 188.6377 L 308.4237 187.2228 L 309.044 185.2045 L 310.4034 183.558 L 311.5593 182.379 L 313.246 181.377 L 314.072 180.9279 L 314.8717 180.4928 L 316.3493 179.6898 L 318.1297 178.7221 L 319.0982 178.196 L 320.9704 177.1796 L 322.3763 176.415 L 324.1262 175.4661 L 325.5912 174.6691 L 326.6393 174.0981 L 327.8947 173.4131 L 329.1524 172.7258 L 330.1959 172.1586 L 331.1404 171.6321 L 332.7578 170.738 L 334.1804 169.9555 L 335.9121 168.8679 L 336.6931 168.4126 L 337.3911 167.8473 L 338.2827 167.136 L 339.2062 165.768 L 340.0406 164.6255 L 340.6102 163.5177 L 341.3246 162.1154 L 341.7193 161.3264 Z" stroke="currentColor" id="voyager-deck-2" />
  <path d="M 219.2678 151.0383 L 120.3476 151.0383 L 120.3476 165.9943 L 120.3796 165.9943 L 120.3796 166.0107 L 120.385 166.0107 L 120.385 175.5971 L 120.3796 175.5971 L 120.3796 189.6153 C 140.3615 189.4682 193.9263 188.9581 235.8192 187.5097 C 226.7449 178.1911 220.3011 164.9208 219.2678 151.0383 Z M 245.6452 187.1428 C 263.1845 186.4358 277.7418 185.5363 285.425 184.3957 C 286.0552 184.302 287.1475 184.1744 287.2241 183.9215 C 288.3732 180.1222 289.8416 173.6893 291.7584 168.7787 C 282.9622 166.9406 276.0772 159.907 274.4663 151.0383 C 274.0708 148.4443 273.9577 145.8043 274.4663 143.0617 C 276.0795 134.1805 282.9817 127.1396 291.7953 125.3136 C 289.8602 120.3909 288.3804 113.9001 287.2241 110.0764 C 287.1475 109.8235 286.0552 109.6959 285.425 109.6022 C 277.8275 108.4745 263.5076 107.5823 246.23 106.8787 C 236.4196 117.0766 229.3026 132.0109 229.3026 147.141 C 229.3026 162.227 235.9415 177.0002 245.6452 187.1428 Z M 297.606 162.0853 C 305.3513 161.4388 311.4355 154.9541 311.4355 147.05 C 311.4355 138.7169 304.6731 131.9618 296.3315 131.9618 C 287.9895 131.9618 281.2271 138.7169 281.2271 147.05 C 281.2271 155.3831 287.9895 162.1382 296.3315 162.1382 C 296.3719 162.1382 296.4123 162.1382 296.4527 162.1379 C 296.8261 162.0255 297.2105 162.0038 297.606 162.0853 Z M 236.4086 106.5088 C 194.4079 105.0436 140.3977 104.5297 120.3476 104.3823 L 120.3476 143.0617 L 219.2918 143.0617 C 220.439 129.1777 227.2936 115.8144 236.4086 106.5088 Z M 112.3946 197.6436 L 112.3946 175.5971 L 112.3626 166.0107 L 112.3626 99.3288 L 112.3946 99.3288 L 112.3946 96.3547 C 112.3946 96.3547 254.5213 97.5505 285.425 102.2679 C 287.106 102.5243 292.2125 102.759 292.6206 103.8493 C 294.9732 110.1355 296.3567 124.8794 297.8174 124.6584 L 297.8174 124.8995 C 309.3975 125.6634 318.5541 135.2883 318.5541 147.05 C 318.5541 158.8117 309.3975 168.4366 297.8174 169.2005 L 297.8174 169.3395 C 296.3567 169.1185 294.9732 183.8624 292.6206 190.1486 C 292.2125 191.2389 287.106 191.4736 285.425 191.73 C 258.9425 195.7723 150.7842 197.2291 120.3796 197.5632 L 120.3796 197.6436 L 112.3946 197.6436 Z M 287.1026 109.9968 L 287.1048 109.9942 L 287.1045 109.9949 L 287.1026 109.9968 Z" stroke="currentColor" id="hallway"/>
  <path d="M 246.2765 106.8905 C 246.2818 106.8852 246.4304 106.9286 246.7047 106.908 C 253.5521 106.3907 287.7647 109.3103 287.1026 109.9968 C 288.7054 114.9672 289.9764 120.2157 291.4604 125.0695 C 280.5379 129.1217 273.7786 136.0521 274.0266 147.0751 C 274.3128 159.806 281.6489 165.4332 291.7953 169.2968 C 289.8286 174.1788 288.2536 179.1012 287.25 184.0837 C 287.4146 185.0339 248.9793 186.7554 246.5093 187.1051 C 246.3253 187.131 246.0357 187.1558 246.0353 187.1554 C 235.7045 176.9575 229.3026 162.7962 229.3026 147.141 C 229.3026 131.3648 235.8039 117.1051 246.2765 106.8905 Z" id="room-18" stroke="currentColor" name="Medical Center"/>
<path d="M 72.9832 119.5273 L 112.3626 107.5195 L 112.3626 186.5805 L 72.9832 174.3598 C 57.8251 155.8467 58.7437 137.5836 72.9832 119.5273 Z" id="room-19" stroke="currentColor" name="Shuttle Flight Deck"/>
<path d="M 112.3626 96.3547 L 112.3626 107.5195 L 73.1352 119.4153 C 60.4548 106.8775 59.4688 100.4287 70.1772 100.0687 C 77.9107 99.7068 105.2688 97.8705 112.3626 96.3547 Z" id="room-20" stroke="currentColor" name="Shuttle Control Room"/>
<path d="M 311.2599 123.0111 C 314.8188 122.4081 318.1784 121.4313 317.7098 119.3905 L 318.7156 119.9376 L 319.4266 120.3239 L 320.7033 121.0172 L 322.1069 121.7806 L 322.8727 122.1978 L 323.9517 122.7871 L 325.0783 123.402 L 326.2145 124.0245 L 327.0115 124.458 L 328.4788 125.2855 L 329.6991 125.9681 L 331.0456 126.7201 L 332.2914 127.5091 L 333.6364 128.3491 L 334.675 128.9804 L 335.267 129.8314 L 336.2397 131.2406 L 336.7453 132.0166 L 337.5294 133.2246 L 338.0461 134.017 L 338.5318 134.7622 L 339.1822 135.7614 L 339.7941 136.7039 L 340.6513 138.0236 L 341.1992 138.8781 L 342.2089 140.4358 L 342.9579 141.6434 L 343.7622 143.1002 L 344.6602 144.4641 L 344.9498 145.434 L 344.8728 146.5136 L 344.8728 147.6192 L 344.8782 149.3266 L 344.3192 150.2508 L 343.5408 151.5868 L 342.9579 152.4874 L 342.0568 153.937 L 341.1992 155.2528 L 340.3145 156.6273 L 339.7941 157.4288 L 339.1822 158.3698 L 338.5318 159.3691 L 338.048 160.1119 L 337.5294 160.9081 L 336.7453 162.1142 L 335.8256 163.4484 L 335.267 164.2994 L 334.675 165.1505 L 333.0043 166.1753 L 332.2933 166.6237 L 330.7415 167.5829 L 329.4115 168.3239 L 327.7937 169.2336 L 326.4964 169.9548 L 326.2145 170.1087 L 324.8661 170.8443 L 323.9517 171.3437 L 322.8746 171.9331 L 321.689 172.5792 L 320.1539 173.412 L 319.4266 173.8093 L 318.7156 174.1933 L 317.1619 175.039 C 317.6641 172.8428 314.2214 171.8908 310.707 171.3136 C 318.6509 167.3566 324.2459 158.0856 324.3259 147.2542 C 324.3263 147.1864 324.3266 147.1182 324.3266 147.05 L 324.3266 147.0317 L 324.3266 147.0191 C 324.3266 136.3405 318.9656 127.1461 311.2599 123.0111 Z" id="room-21" stroke="currentColor" name="Stellar Cartography"/>
<path d="M 308.6965 172.1815 C 304.094 170.6146 295.6053 170.8226 298.7032 169.3326 C 298.8907 169.2427 299.0762 169.1509 299.2603 169.058 C 310.1492 167.626 318.5541 158.3184 318.5541 147.05 C 318.5541 135.5153 309.7473 126.0352 298.4845 124.9536 C 295.2556 123.6405 304.5409 123.7689 309.3255 122.1006 C 318.0538 125.6535 324.3266 135.4681 324.3266 147.0191 C 324.3266 158.846 317.751 168.8523 308.6965 172.1815 Z" id="room-22" stroke="currentColor" name="Astrometric Navigation"/>
<path d="M 298.0483 124.7117 C 297.3644 125.4016 295.8667 117.2583 294.4021 109.4707 L 299.2515 109.75 L 302.4622 112.0491 L 312.8654 112.579 C 314.149 112.9493 316.5927 114.4902 317.2697 115.8788 C 318.0375 117.4526 316.9745 118.893 317.3886 119.3433 C 318.391 120.4328 317.0381 121.5913 311.4355 122.8744 C 311.2145 123.0641 310.1759 122.2744 309.5324 121.8195 C 309.441 121.7551 309.3964 121.693 309.2787 121.7551 C 307.2407 122.8287 301.3843 123.586 299.4031 123.6946 C 298.8431 123.7251 298.0483 124.7117 298.0483 124.7117 Z M 297.702 169.5151 C 297.0181 168.8252 295.5204 176.9686 294.0558 184.7561 L 298.9052 184.4769 L 302.1159 182.1778 L 312.5191 181.6479 C 313.8026 181.2776 316.2464 179.7366 316.9234 178.348 C 317.6911 176.7743 316.6281 175.3339 317.0423 174.8836 C 318.0447 173.7941 316.6918 172.6356 311.0892 171.3525 C 310.8682 171.1628 309.8296 171.9525 309.1861 172.4074 C 309.0946 172.4717 309.0501 172.5338 308.9319 172.4717 C 306.8944 171.3982 301.038 170.6409 299.0568 170.5323 C 298.4967 170.5018 297.702 169.5151 297.702 169.5151 Z" id="room-23" stroke="currentColor" name="Escape Pods"/>
<path d="M 112.3626 71.6739 h 52.1429 v 24.6808 h -51.816 v -24.3813 Z" id="room-24" stroke="currentColor" name="Air Filtration System"/>
<path d="M 112.3626 197.6436 h 45.1314 v 22.34 h -44.958 v -22.0956 Z" id="room-25" stroke="currentColor" name="Auxiliary Life Support"/>
<path d="M 219.2678 151.0383 L 120.3476 151.0383 L 120.3476 165.9943 L 120.3796 165.9943 L 120.3796 166.0107 L 120.385 166.0107 L 120.385 175.5971 L 120.3796 175.5971 L 120.3796 189.6153 C 140.3615 189.4682 193.9263 188.9581 235.8192 187.5097 C 226.7449 178.1911 220.3011 164.9208 219.2678 151.0383 Z M 236.4086 106.5088 C 194.4079 105.0436 140.3977 104.5297 120.3476 104.3823 L 120.3476 143.0617 L 219.2918 143.0617 C 220.439 129.1777 227.2936 115.8144 236.4086 106.5088 Z" id="room-26" stroke="currentColor" name="Fire Suppression Center"/>
</svg>