<svg viewBox="0 0 1000 772" version="1.1" xmlns="http://www.w3.org/2000/svg" xmlns:xlink="http://www.w3.org/1999/xlink" xml:space="preserve" style="fill-rule:evenodd;clip-rule:evenodd;stroke-miterlimit:1.41421;">
  <path d="M898.515,465.283L900.246,463.571L904.898,458.699L906.9,456.399L909.886,452.307L912.978,445.787L913.72,443.188L914.516,439.843L916.038,432.992L917.641,425.948L919.051,419.428L920.028,414.952L920.594,412.364L921.732,407.113L923.318,399.809L924.925,393.054L926.036,386.475L925.112,379.885L923.531,373.157L922.154,366.855L920.882,360.975L920.316,358.334L919.28,353.623L917.838,346.927L916.332,340.321L914.97,334.131L913.988,329.927L913.304,327.115L910.35,320.461L907.413,316.268L905.405,313.888L900.716,308.904L898.985,307.181L894.125,302.325L892.374,300.597L887.524,295.757L885.762,294.007L880.923,289.194L879.134,287.423L874.322,283.053L871.438,280.822L867.998,278.656L861.381,276.276L854.823,275.316L848.227,274.542L845.012,274.259L842.571,273.955L835.041,273.544L828.434,273.384L821.726,272.712L815.494,270.524L811.232,267.947L808.599,266.549L802.04,263.919L796.171,261.304L793.693,260.499L789.025,259.074L782.253,256.785L775.657,255.328L770.071,254.32L767.016,253.898L763.56,253.407L761.039,253.151L756.339,252.789L749.696,252.66L743.356,253.215L739.628,253.68L736.461,254.096L733.818,254.491L729.641,255.184L722.88,256.353L716.284,257.121L709.688,257.495L703.092,257.687L696.491,257.591L683.3,257.185L676.704,257.943L670.252,259.88L667.389,261.208L663.469,263.273L657.498,266.917L650.406,269.761L643.831,270.103L637.236,269.969L630.576,269.217L626.196,267.798L623.451,266.832L618.057,264.938L610.644,262.334L607.231,261.128L604.694,260.232L598.019,257.879L590.899,255.366L588.336,254.459L584.827,253.231L578.044,250.836L571.139,248.397L568.879,247.592L564.927,246.204L557.904,243.718L551.485,241.429L545.626,239.262L538.154,236.408L533.353,234.7L531.094,233.921L524.941,231.52L518.372,229.151L515.461,227.988L511.84,226.579L505.175,224.034L498.622,221.596L491.983,219.035L485.388,216.554L481.035,214.846L478.765,213.96L472.201,211.41L465.6,208.742L458.753,205.743L452.403,202.611L450.085,201.454L445.53,199.202L439.212,196.129L436.92,195.008L432.322,192.804L426.015,189.731L423.307,188.429L419.104,186.428L412.823,183.403L409.191,181.797L406.013,180.442L399.631,177.891L393.003,175.373L386.44,171.952L382.279,168.804L379.726,166.558L374.06,163.111L371.683,162.06L368.885,161.911L366.289,161.788L359.72,161.761L353.124,161.761L346.544,161.74L341.252,160.491L342.272,157.679L342.186,155.321L344.349,149.654L343.003,142.841L342.128,136.102L341.433,129.464L340.648,122.768L340.232,119.476L339.836,115.853L338.677,112.198L337.518,109.183L336.285,106.686L334.784,104.055L333.182,101.334L330.367,102.593L326.586,104.28L323.317,105.795L319.99,107.337L316.011,109.183L313.389,110.405L310.606,111.702L306.793,113.473L301.848,115.778L297.58,117.763L293.602,119.614L287.684,122.368L285.59,123.344L283.337,124.395L280.405,125.761L278.279,126.791L274.257,128.632L269.953,130.691L267.213,132.004L264.847,133.156L261.974,134.49L259.752,135.547L256.067,137.884L254.016,139.234L252.424,142.136L256.099,144.452L260.617,146.245L263.448,147.488L266.155,148.731L270.289,150.108L273.809,151.293L278.375,152.813L283.262,154.451L285.815,155.321L285.494,160.406L281.911,160.406L274.257,161.462L267.48,161.644L260.815,161.713L254.181,161.751L247.57,161.761L168.404,161.761L161.803,161.767L157.765,162.401L155.063,162.786L149.412,166.35L147.11,168.143L142.063,172.038L137.865,174.764L135.387,176.168L129.149,179.454L125.363,181.578L122.372,183.269L115.92,187.287L113.934,188.573L109.431,191.534L104.481,194.715L102.526,195.979L96.1116,200.173L94.1461,201.454L89.6065,204.458L85.4248,207.883L82.7757,210.492L79.6994,214.425L76.7621,220.753L77.7821,227.342L82.0974,233.825L88.4102,240.073L95.1502,246.082L97.3026,247.976L101.906,252.031L104.181,254.032L108.454,257.735L111.819,260.632L115.173,263.481L119.419,267.131L121.907,269.212L127.323,273.635L134.752,279.094L136.829,280.385L141.385,283.421L147.03,286.606L149.786,288.058L153.744,290.01L155.901,291.014L160.062,293.014L163.757,294.685L166.161,295.688L169.792,297.176L173.467,299.022L175.576,300.319L172.201,304.054L168.254,306.701L167.33,312.084L167.672,314.651L169.456,318.893L171.373,323.359L172.81,326.683L174.855,331.41L176.399,334.82L177.494,337.226L178.69,339.862L180.533,345.449L181.451,350.4L182.263,353.047L183.577,357.513L185.078,362.603L186.151,366.226L188.047,372.618L189.772,377.687L191.444,382.606L192.597,386L191.545,389.1L190.354,392.59L188.154,399.078L186.584,404.307L185.355,408.458L184.207,412.364L182.6,417.801L181.451,421.6L180.96,424.785L179.197,430.473L177.494,434.774L176.404,437.175L175.438,439.309L173.627,443.428L171.72,447.836L169.958,451.907L168.254,455.951L167.191,458.496L167.629,464.131L170.978,467.162L174.855,470.16L174.033,472.657L169.798,474.824L166.155,476.312L163.763,477.315L161.568,478.212L155.901,480.986L153.738,481.99L149.786,483.942L147.036,485.394L142.405,487.998L137.604,491.124L135.649,492.373L129.133,496.972L122.634,502.265L119.894,504.506L115.787,508.044L112.294,510.984L109.052,513.769L104.625,517.584L102.456,519.489L97.3079,524.019L95.1556,525.918L90.0017,530.459L83.1923,536.915L78.3055,543.5L76.5698,550.292L79.2829,556.887L82.3271,561.033L84.944,563.69L88.8962,567.035L93.7296,570.264L95.6896,571.55L101.767,575.519L104,576.976L108.652,579.953L113.928,583.427L115.92,584.713L121.544,588.208L124.887,590.134L128.492,592.135L134.795,595.464L137.385,596.835L141.508,599.487L146.592,603.35L148.467,605.047L154.117,608.414L157.76,609.599L160.815,610.084L168.11,610.233L174.701,610.239L253.866,610.239L260.452,610.249L267.01,610.287L273.536,610.362L279.951,610.543L285.478,611.61L284.976,614.651L283.262,617.549L280.405,618.52L275.838,620.035L272.201,621.241L267.827,622.719L263.448,624.512L260.617,625.755L257.653,626.945L254.016,628.375L253.145,630.728L256.067,634.116L259.747,636.448L261.979,637.515L264.462,638.662L267.213,639.996L269.953,641.309L273.547,643.043L278.007,645.081L280.405,646.244L283.337,647.605L285.601,648.661L291.706,651.484L296.737,653.848L300.197,655.459L305.223,657.791L309.341,659.712L313.389,661.595L316.006,662.812L318.724,664.076L322.89,666.013L326.586,667.726L330.362,669.401L333.182,670.666L334.784,667.939L336.285,665.309L337.518,662.812L338.677,659.797L339.778,656.66L340.232,652.53L340.563,650.193L341.364,643.438L342.031,636.955L342.795,630.413L344.381,623.973L342.336,617.602L342.272,614.315L341.257,611.509L345.551,610.74L352.804,610.255L359.421,610.239L366.017,610.239L368.927,610.084L371.694,609.94L374.06,608.889L378.065,606.637L381.58,603.831L385.558,600.709L391.871,597.305L398.531,594.605L405.421,591.815L408.684,590.427L411.947,589.019L418.468,585.881L422.837,583.8L425.229,582.658L431.665,579.516L436.45,577.221L438.736,576.106L444.857,573.129L449.888,570.637L452.403,569.389L458.048,566.593L463.752,564.053L471.245,560.974L477.82,558.408L480.068,557.533L484.405,555.83L491.038,553.333L497.399,550.879L503.995,548.414L510.847,545.81L514.495,544.391L517.464,543.196L524.023,540.832L530.469,538.335L533.358,537.3L537.118,535.982L543.869,533.399L549.546,531.286L556.777,528.693L563.544,526.303L568.041,524.702L570.263,523.928L576.912,521.575L583.096,519.388L586.589,518.15L590.002,516.954L596.63,514.617L602.702,512.478L605.212,511.587L609.741,509.991L616.337,507.67L622.249,505.589L624.968,504.634L629.652,502.991L636.119,502.111L642.656,501.902L649.247,502.025L655.661,504.111L661.974,507.825L667.389,510.792L669.633,511.875L675.796,513.812L682.349,514.687L688.945,514.607L695.546,514.436L702.142,514.329L708.737,514.5L715.333,514.842L721.929,515.567L728.53,516.682L733.807,517.509L736.419,517.899L739.634,518.32L742.197,518.662L747.634,519.217L754.492,519.265L761.039,518.849L763.555,518.593L767.021,518.102L770.081,517.68L774.557,516.821L781.302,515.396L787.903,513.203L793.698,511.501L796.171,510.696L800.374,508.775L807.76,505.787L810.318,504.634L813.849,502.388L820.637,499.699L827.5,498.898L834.079,498.61L840.51,498.333L845.028,497.735L847.752,497.495L853.872,496.759L860.468,495.916L867.074,493.797L870.599,491.733L873.702,489.438L878.659,485.026L880.442,483.281L885.286,478.457L887.049,476.718L891.904,471.873L893.65,470.144L898.515,465.283Z" stroke="currentColor" stroke-width="3" id="voyager-deck-14" />
  <path d="M777.167,346.394C799.061,346.394 816.81,364.126 816.81,386C816.81,407.874 799.061,425.606 777.167,425.606C755.272,425.606 737.523,407.874 737.523,386C737.523,364.126 755.272,346.394 777.167,346.394ZM675.869,396.643L675.869,435.409L675.862,435.409L675.862,435.415L669.636,435.427C669.298,435.415 668.96,435.409 668.62,435.409L621.606,435.415L616.136,435.415L616.136,435.409L563.33,435.409C547.957,435.409 535.457,447.698 535.136,462.979L535.136,494.534C535.139,494.671 535.143,494.807 535.148,494.943L535.136,494.936L535.136,496.717L534.934,496.717L534.934,496.751L424.344,496.751L424.344,455.246L445.302,455.246L445.302,475.813L514.179,475.813L514.179,455.246L514.254,455.246C515.589,432.506 534.47,414.477 557.566,414.477L654.911,414.477L654.911,357.696L557.566,357.696C534.47,357.696 515.589,339.667 514.254,316.928L514.179,316.928L514.179,296.361L445.302,296.361L445.302,316.928L424.344,316.928L424.344,275.423L534.934,275.423L534.934,275.457L535.136,275.457L535.136,277.238L535.148,277.231C535.143,277.367 535.139,277.503 535.136,277.64L535.136,309.195C535.457,324.476 547.957,336.765 563.33,336.765L616.136,336.765L616.136,336.758L621.606,336.758L668.62,336.765C668.96,336.765 669.298,336.759 669.636,336.747L675.862,336.758L675.862,336.765L675.869,336.765L675.869,375.531L715.524,375.531C720.509,346.021 746.21,323.542 777.167,323.542C811.694,323.542 839.683,351.506 839.683,386C839.683,420.494 811.694,448.458 777.167,448.458C746.271,448.458 720.61,426.068 715.554,396.643L675.869,396.643Z" stroke="currentColor" stroke-width="2" id="hallway"/>
  <path d="M182.988,462.053L182.988,438.102L183.002,438.072L183.946,435.987L185.01,433.642L186.674,429.441L188.396,423.885L188.876,420.774L189.997,417.063L191.568,411.752L192.689,407.937L193.889,403.882L195.423,398.774L197.572,392.437L198.735,389.028L199.763,386L198.636,382.685L197.004,377.88L195.318,372.929L193.467,366.685L192.418,363.146L190.952,358.174L189.669,353.812L188.876,351.226L187.978,346.39L186.179,340.933L185.01,338.358L183.941,336.008L182.988,333.904L182.988,309.877C195.407,309.878 205.473,343.943 205.473,385.965C205.473,427.986 195.407,462.052 182.988,462.053Z" id="room-171" stroke="currentColor" name="Airlock"/>
<path d="M777.167,346.394C799.061,346.394 816.81,364.126 816.81,386C816.81,407.874 799.061,425.606 777.167,425.606C755.272,425.606 737.523,407.874 737.523,386C737.523,364.126 755.272,346.394 777.167,346.394ZM676.07,375.531L676.07,274.036L678.4,272.614L682.022,270.706L684.666,269.479L690.627,267.689L696.721,266.989L702.815,267.176L708.908,267.364L715.007,267.452L721.101,267.275L727.195,266.93L733.289,266.22L739.535,265.14L743.394,264.5L745.836,264.135L748.762,263.75L752.206,263.321L758.063,262.809L764.202,262.927L768.544,263.262L770.873,263.499L774.065,263.952L776.888,264.342L782.049,265.274L788.143,266.619L794.399,268.734L798.712,270.05L801.001,270.795L806.424,273.21L812.483,275.641L814.916,276.932L818.854,279.313L824.612,281.334L830.809,281.955L836.913,282.103L843.87,282.483L846.125,282.764L849.096,283.025L855.19,283.74L861.249,284.627L867.362,286.826L870.54,288.827L873.205,290.888L877.65,294.925L879.303,296.562L883.774,301.008L885.402,302.625L889.882,307.096L891.501,308.694L895.991,313.18L897.59,314.772L901.922,319.376L903.777,321.575L906.491,325.449L909.22,331.597L909.851,334.195L910.759,338.079L912.017,343.798L913.409,349.9L914.741,356.087L915.698,360.44L916.221,362.88L917.396,368.313L918.669,374.134L920.129,380.351L920.983,386.439L919.957,392.517L918.471,398.758L917.006,405.507L915.955,410.357L915.432,412.748L914.529,416.884L913.226,422.908L911.746,429.415L910.34,435.745L909.605,438.836L908.919,441.236L906.062,447.26L903.304,451.041L901.453,453.166L897.155,457.667L895.557,459.249L891.062,463.74L889.448,465.337L884.963,469.813L883.335,471.42L878.859,475.877L877.211,477.489L872.632,481.566L869.765,483.685L866.509,485.593L860.405,487.55L854.311,488.329L848.657,489.009L846.14,489.231L841.966,489.783L836.025,490.04L829.946,490.306L823.605,491.045L817.334,493.53L814.072,495.605L811.709,496.67L804.885,499.431L801.001,501.205L798.717,501.95L793.363,503.522L787.264,505.548L781.032,506.864L776.898,507.658L774.07,508.048L770.868,508.501L768.544,508.738L762.494,509.122L756.159,509.078L751.136,508.565L748.767,508.25L745.797,507.86L743.384,507.5L738.509,506.736L732.41,505.706L726.316,505.036L720.223,504.72L714.129,504.562L708.035,504.661L701.936,504.819L695.842,504.893L689.788,504.084L684.094,502.295L682.022,501.294L677.018,498.553L676.07,497.995L676.07,396.643L715.554,396.643C720.61,426.068 746.271,448.458 777.167,448.458C811.694,448.458 839.683,420.494 839.683,386C839.683,351.506 811.694,323.542 777.167,323.542C746.21,323.542 720.509,346.021 715.524,375.531L676.07,375.531Z" id="room-173" stroke="currentColor" name="Fuel Distribution Center"/>
<path d="M514.179,475.727L445.57,475.727L445.57,427.592L526.473,427.592C519.425,434.826 514.884,444.511 514.254,455.246L514.179,455.246L514.179,475.727Z" id="room-174" stroke="currentColor" name="Brig"/>
<path d="M445.57,427.592L445.302,455.246L424.344,455.246L424.344,316.928L445.302,316.928L445.302,296.361L514.179,296.361L514.179,316.928L514.254,316.928C515.589,339.667 534.47,357.696 557.566,357.696L654.911,357.696L654.911,414.477L557.566,414.477C545.364,414.477 534.338,419.51 526.455,427.61L526.473,427.592L445.57,427.592Z" id="room-175" stroke="currentColor" name="Security Control Center"/>
<path d="M608.479,435.409h67.383v61.6605h-67v-61Z" id="room-176" stroke="currentColor" name="Auxilliary Engineering"/>
<path d="M608.479,435.409L608.479,497.069L533.047,497.069L533.047,496.751L534.934,496.751L534.934,496.717L535.136,496.717L535.136,494.936L535.148,494.943C535.143,494.807 535.139,494.671 535.136,494.534L535.136,462.979C535.457,447.698 547.957,435.409 563.33,435.409L608.479,435.409Z" id="room-177" stroke="currentColor" name="Sickbay"/>
<path d="M608.479,275.08h67.383v61.6605h-67v-61Z" id="room-178" stroke="currentColor" name="Biophysics Lab"/>
<path d="M108.098,208.627h74.8908v31.083h-74v-31ZM108.098,536.378h74.8908v31.083h-74v-31Z" id="room-179" stroke="currentColor" name="Aft Missile Batteries"/>
<path d="M608.479,336.74L608.479,275.08L533.047,275.08L533.047,275.398L534.934,275.398L534.934,275.432L535.136,275.432L535.136,277.213L535.148,277.206C535.143,277.342 535.139,277.479 535.136,277.615L535.136,309.17C535.457,324.451 547.957,336.74 563.33,336.74L608.479,336.74Z" id="room-180" stroke="currentColor" name="Biochemistry Lab"/>
<path d="M182.988,587.611L182.988,438.102L183.002,438.072L183.946,435.987L185.01,433.642L186.674,429.441L188.396,423.885L188.876,420.774L189.997,417.063L191.568,411.752L192.689,407.937L193.889,403.882L195.423,398.774L197.572,392.437L198.735,389.028L199.763,386L198.636,382.685L197.004,377.88L195.318,372.929L193.467,366.685L192.418,363.146L190.952,358.174L189.669,353.812L188.876,351.226L187.978,346.39L186.179,340.933L185.01,338.358L183.941,336.008L182.988,333.904L182.988,302.473L183.137,302.308L182.988,302.216L182.988,184.389L406.164,184.389L408.225,185.213L411.329,186.537L414.877,188.106L421.012,191.061L424.344,192.647L424.344,579.358L420.391,581.242L414.021,584.306L410.834,585.682L407.646,587.037L406.23,587.611L182.988,587.611Z" id="room-195" stroke="currentColor" name="Lower Cargo Bay"/>
<path d="M424.344,218.24L478.189,218.24L583.387,257.095L583.387,275.08L424.344,275.08L424.344,218.24Z" id="room-181" stroke="currentColor" name="Biological Storage"/>
</svg>