<svg viewBox="0 0 381 294.1" version="1.1" xmlns="http://www.w3.org/2000/svg" xmlns:xlink="http://www.w3.org/1999/xlink" xml:space="preserve" style="fill-rule:evenodd;clip-rule:evenodd;stroke-miterlimit:1.41421;">
  <path d="M 320.104 172.471 L 321.5446 171.6698 L 323.3414 170.6595 L 324.8185 169.8363 L 326.5421 168.7711 L 327.3316 168.2732 L 329.1874 167.1349 L 329.8447 166.1897 L 330.4653 165.2446 L 331.4868 163.7627 L 332.3577 162.4232 L 332.9334 161.539 L 333.4706 160.7138 L 334.193 159.6037 L 334.8727 158.5591 L 335.4507 157.6688 L 336.4333 156.1423 L 337.3858 154.6806 L 338.3867 153.0707 L 339.034 152.0707 L 339.8989 150.5868 L 340.5191 149.5605 L 340.513 147.6637 L 340.513 146.4363 L 340.5988 145.237 L 340.2772 144.1597 L 339.2801 142.6454 L 338.3867 141.027 L 337.5546 139.6857 L 336.4333 137.9558 L 335.8248 137.0064 L 334.8727 135.5409 L 334.193 134.494 L 333.4706 133.3843 L 332.9315 132.5568 L 332.3577 131.6768 L 331.4868 130.3351 L 330.9252 129.4733 L 329.8447 127.9084 L 329.1874 126.9632 L 328.0338 126.2619 L 326.5402 125.3289 L 325.1564 124.4527 L 323.6606 123.6172 L 322.3054 122.8591 L 320.6759 121.9403 L 319.7904 121.4583 L 318.529 120.7673 L 317.2778 120.0842 L 316.0791 119.4297 L 315.2284 118.9665 L 313.6697 118.1189 L 312.2516 117.3486 L 311.4622 116.9196 L 310.3451 116.3116 L 308.8005 115.4723 L 307.7036 114.8765 L 306.8429 114.4091 L 305.4614 113.659 L 303.9252 112.8235 L 302.2218 111.8967 L 300.7976 110.7869 L 299.6824 110.0105 L 298.8175 109.3865 L 298.5939 108.2989 L 298.2986 106.876 L 298.2255 105.823 L 298.1256 104.3655 L 297.1693 102.8512 L 296.5834 101.8554 L 295.1569 101.3533 L 293.5677 100.7373 L 292.1436 100.1761 L 291.0996 99.9913 L 289.6305 99.7087 L 287.3392 99.4527 L 286.3726 99.3429 L 284.7388 99.2066 L 282.4189 99.0134 L 280.0971 98.8226 L 278.6954 98.7067 L 277.0613 98.5665 L 275.3216 98.3833 L 273.7058 98.2431 L 272.0351 98.1048 L 271.1135 98.034 L 269.5224 97.9079 L 268.5071 97.8324 L 267.0094 97.7166 L 265.8759 97.6355 L 264.4944 97.5319 L 263.2714 97.4343 L 261.9813 97.3326 L 261.0494 97.1924 L 259.8344 96.9726 L 258.5527 96.8324 L 257.0836 96.7452 L 254.8063 96.5642 L 252.438 96.4362 L 251.3247 96.3814 L 250.1772 96.3143 L 248.8547 96.245 L 247.4587 96.1638 L 246.3416 96.109 L 244.9457 96.0297 L 243.8286 95.9787 L 242.4326 95.9036 L 241.3155 95.8549 L 239.9199 95.7817 L 238.9125 95.7429 L 237.3394 95.6655 L 236.2592 95.6252 L 234.92 95.5619 L 233.7176 95.5174 L 232.4355 95.4606 L 231.1721 95.4137 L 229.9533 95.3608 L 228.6225 95.3078 L 227.4768 95.2469 L 226.0484 95.1474 L 225.0247 95.0012 L 223.4519 94.8994 L 221.7671 94.8282 L 220.8512 94.7916 L 219.2522 94.7265 L 218.2204 94.688 L 216.7391 94.6312 L 215.5466 94.5886 L 214.226 94.5417 L 213.1108 94.501 L 211.7129 94.4541 L 209.7413 94.3893 L 208.7971 94.3589 L 207.6374 94.3223 L 206.6849 94.2773 L 204.469 94.1779 L 202.1228 94.0743 L 201.0202 94.0213 L 199.8196 93.9787 L 198.5863 93.9238 L 197.1904 93.883 L 196.0733 93.8343 L 194.6773 93.7935 L 193.5583 93.7429 L 192.1623 93.7021 L 191.0452 93.6552 L 189.6492 93.6228 L 188.5321 93.5722 L 187.1365 93.5295 L 186.0537 93.4663 L 184.4768 93.4194 L 183.482 93.3748 L 182.1329 93.3322 L 180.9342 93.2895 L 179.6522 93.251 L 178.3968 93.2145 L 177.1639 93.1798 L 175.8677 93.1512 L 174.6672 93.1188 L 173.3443 93.0964 L 172.1621 93.0678 L 170.8233 93.0476 L 169.6551 93.019 L 168.3041 92.9988 L 167.1504 92.9703 L 165.783 92.9501 L 164.6434 92.9215 L 163.2619 92.9013 L 162.1387 92.8769 L 160.7405 92.8564 L 159.6318 92.8343 L 158.2236 92.8179 L 157.1206 92.7977 L 155.7086 92.7832 L 154.6098 92.763 L 153.1955 92.7489 L 152.0967 92.7265 L 150.6805 92.7124 L 149.5836 92.6918 L 148.1656 92.6796 L 147.0729 92.6594 L 145.6506 92.6472 L 144.5598 92.6308 L 143.1375 92.6209 L 142.0467 92.6065 L 140.6225 92.5965 L 139.5336 92.584 L 138.1095 92.5779 L 137.0209 92.568 L 135.5964 92.5638 L 134.5056 92.5577 L 133.0856 92.5558 L 131.9906 92.5516 L 129.4756 92.5516 L 128.0636 92.5535 L 126.9587 92.5577 L 125.5544 92.5619 L 124.4415 92.5699 L 123.0455 92.576 L 121.9223 92.5863 L 120.5389 92.5943 L 119.4031 92.6087 L 118.0296 92.6186 L 116.8839 92.6308 L 115.5207 92.643 L 114.3671 92.6613 L 113.0465 92.7977 L 111.8132 93.2305 L 110.8283 93.6922 L 110.0999 94.3223 L 109.1314 95.1067 L 108.3766 95.7795 L 107.3125 96.8324 L 106.3154 97.8062 L 104.1928 98.4972 L 103.0738 98.6824 L 101.6779 98.7696 L 100.5608 98.8366 L 99.1648 98.9079 L 97.8606 98.9768 L 96.6925 99.034 L 95.6039 99.0888 L 93.9131 99.17 L 91.1497 99.3041 L 89.0355 99.41 L 87.8879 99.469 L 86.9602 99.5155 L 86.0382 99.5624 L 84.862 99.6214 L 83.5251 99.6885 L 82.4469 99.7433 L 81.0124 99.8146 L 80.1026 99.8572 L 78.4993 99.9304 L 76.7696 100.0138 L 75.2963 100.0847 L 74.159 100.1357 L 72.8609 100.1986 L 71.5686 100.2557 L 70.5166 100.3045 L 68.9439 100.3715 L 67.8854 100.4203 L 66.4898 100.4832 L 65.3727 100.5361 L 63.9768 100.6012 L 62.8597 100.6561 L 61.4637 100.7232 L 60.3447 100.7818 L 58.9487 100.8512 L 57.8316 100.9121 L 56.4356 100.9833 L 55.3185 101.0481 L 53.9225 101.1194 L 52.8055 101.1967 L 51.4095 101.2881 L 50.2924 101.3632 L 48.8968 101.4306 L 47.7062 101.5563 L 46.0176 101.7883 L 45.1954 102.3167 L 43.9602 103.3026 L 43.1684 104.0162 L 42.6068 104.9225 L 41.7949 106.3172 L 41.5042 107.4349 L 41.3941 108.8296 L 41.4837 109.9454 L 41.561 111.3397 L 42.0635 112.5249 L 42.8187 113.8338 L 43.8847 114.9946 L 45.1954 116.0312 L 46.4203 116.6107 L 48.1946 116.8667 L 50.3107 116.9806 L 51.6072 117.0415 L 53.3632 117.1227 L 54.6083 117.1878 L 55.8782 117.2568 L 56.8913 117.3059 L 58.3909 117.3768 L 60.0414 117.4583 L 61.6591 117.5352 L 62.6642 117.5844 L 64.0888 117.6514 L 65.2607 117.7082 L 66.5367 117.7691 L 67.839 117.8343 L 68.8909 117.9318 L 70.4618 118.072 L 71.239 118.5132 L 72.4334 119.1025 L 71.239 120.304 L 70.3356 120.8934 L 69.3649 121.5684 L 68.6223 122.05 L 66.5386 123.4039 L 65.7061 124.0073 L 64.8759 124.8165 L 63.7508 125.9853 L 63.118 126.7678 L 62.0356 128.9145 L 61.7993 130.0322 L 61.7708 131.4269 L 61.7647 132.5427 L 61.767 133.937 L 61.7689 135.0532 L 61.7708 136.4475 L 61.7708 137.5634 L 61.7731 138.9581 L 61.775 140.0758 L 61.7772 141.4701 L 61.7772 142.5863 L 61.7811 143.9806 L 61.7811 145.0964 L 61.7833 146.4911 L 61.7833 147.607 L 61.7811 149.0013 L 61.7811 150.1175 L 61.7772 151.5118 L 61.7772 152.6299 L 61.775 154.0242 L 61.7731 155.14 L 61.7708 156.5343 L 61.7708 157.6506 L 61.7689 159.0449 L 61.767 160.1607 L 61.7647 161.5554 L 61.7708 162.6731 L 61.7993 164.0678 L 62.0356 165.1836 L 62.7537 166.5779 L 63.2849 167.5559 L 64.874 169.2835 L 65.7061 170.0904 L 66.5386 170.6961 L 67.9041 171.5845 L 68.7991 172.1578 L 70.3356 173.2066 L 71.239 173.7941 L 72.4334 174.4996 L 71.239 175.5868 L 70.4637 176.0261 L 68.8928 176.1682 L 67.839 176.2657 L 66.5367 176.3309 L 65.2588 176.3918 L 64.0888 176.449 L 62.6623 176.516 L 61.6591 176.5648 L 60.0395 176.6417 L 58.3909 176.721 L 57.3756 176.7701 L 55.8782 176.8432 L 54.6308 176.9103 L 53.3632 176.9773 L 52.3883 177.0219 L 50.8502 177.0932 L 49.0065 177.1785 L 46.8497 177.4284 L 45.824 177.577 L 43.8847 179.1054 L 43.2012 179.6909 L 42.0635 181.5732 L 41.561 182.7584 L 41.4837 184.1527 L 41.3941 185.2704 L 41.5042 186.6651 L 41.793 187.7809 L 42.6068 189.1753 L 43.1684 190.0838 L 43.9602 190.7974 L 45.1931 191.7833 L 46.0214 192.3117 L 47.1263 192.4622 L 48.3371 192.6389 L 50.2924 192.7368 L 51.4095 192.8119 L 52.8055 192.9014 L 53.9225 192.9806 L 55.3185 193.0519 L 56.4356 193.1147 L 57.8316 193.186 L 58.9487 193.2469 L 60.3447 193.3182 L 61.4637 193.3749 L 62.8597 193.4439 L 63.9768 193.4988 L 65.3727 193.5639 L 66.4898 193.6168 L 67.8854 193.6797 L 68.9439 193.7266 L 70.5147 193.7955 L 71.5708 193.8447 L 72.8609 193.9014 L 74.1609 193.9624 L 75.2963 194.0153 L 76.7715 194.0862 L 77.7118 194.1292 L 79.4088 194.2123 L 81.0124 194.2854 L 82.0906 194.3384 L 83.5251 194.4096 L 84.7298 194.4706 L 86.0382 194.5376 L 86.956 194.5822 L 87.8921 194.631 L 89.0313 194.6881 L 90.3336 194.7552 L 93.2741 194.8973 L 95.6039 195.0112 L 96.6925 195.066 L 97.8564 195.1232 L 99.1648 195.1902 L 100.5608 195.2614 L 101.6779 195.3285 L 103.0738 195.4157 L 104.1928 195.6009 L 105.5888 195.9807 L 107.1433 197.1007 L 108.3766 198.3205 L 109.1314 198.9933 L 110.0999 199.7758 L 110.8283 200.4082 L 111.8155 200.8695 L 113.0465 201.3023 L 114.3671 201.4364 L 115.5207 201.457 L 116.8862 201.4669 L 118.0296 201.4814 L 119.4031 201.4916 L 120.5366 201.5038 L 121.9223 201.5137 L 123.0455 201.5221 L 124.4415 201.5301 L 125.5544 201.5362 L 126.9587 201.5423 L 128.0636 201.5442 L 129.4756 201.5465 L 130.5744 201.5465 L 131.9906 201.5484 L 133.0856 201.5442 L 134.5056 201.5423 L 135.5964 201.5362 L 137.0209 201.5301 L 138.1095 201.5221 L 139.5336 201.5137 L 140.6225 201.5015 L 142.0467 201.4935 L 143.1352 201.4795 L 144.5598 201.4692 L 145.6506 201.4509 L 147.0729 201.4387 L 148.1656 201.4204 L 149.5836 201.4059 L 150.6805 201.3857 L 152.0967 201.3716 L 153.1955 201.3511 L 154.6098 201.337 L 155.7086 201.3168 L 157.1206 201.3023 L 158.2236 201.2802 L 159.6318 201.2657 L 160.7405 201.2414 L 162.1387 201.2231 L 163.2596 201.1987 L 164.6434 201.1762 L 165.783 201.1499 L 167.1504 201.1274 L 168.3041 201.1012 L 169.6551 201.081 L 170.8233 201.0524 L 172.1621 201.0322 L 173.3443 201.0017 L 174.6672 200.9793 L 175.8654 200.9488 L 177.1639 200.9202 L 178.3968 200.8855 L 179.6522 200.8471 L 180.9342 200.8105 L 182.1329 200.7659 L 183.482 200.7252 L 184.4768 200.6806 L 186.056 200.6314 L 187.1365 200.5705 L 188.5321 200.5278 L 189.6492 200.4772 L 191.0452 200.4448 L 192.1623 200.3979 L 193.5583 200.3571 L 194.6773 200.3065 L 196.0733 200.2657 L 197.1904 200.217 L 198.5863 200.1762 L 199.8215 200.1213 L 201.0221 200.0787 L 202.1251 200.0257 L 203.8464 199.9507 L 206.5832 199.8269 L 207.6618 199.7758 L 208.8013 199.7411 L 209.7352 199.7107 L 210.8808 199.6741 L 212.755 199.6093 L 214.226 199.5583 L 215.4204 199.5156 L 216.7391 199.4668 L 217.7727 199.4284 L 219.2522 199.3712 L 220.1677 199.3369 L 221.7671 199.2718 L 223.4519 199.1987 L 225.0247 199.0969 L 226.0484 198.9526 L 227.4768 198.8508 L 228.6225 198.7899 L 229.9552 198.7392 L 231.1721 198.6844 L 232.4378 198.6398 L 233.7157 198.5826 L 234.9223 198.5358 L 236.2592 198.4748 L 237.3417 198.4322 L 238.9144 198.3571 L 239.9199 198.3164 L 241.3155 198.2451 L 242.4326 198.1964 L 243.8286 198.1213 L 244.9457 198.0683 L 246.3416 197.991 L 247.4587 197.9362 L 248.8547 197.855 L 250.1772 197.7861 L 251.3247 197.7186 L 252.438 197.6619 L 254.0413 197.5765 L 256.8108 197.3712 L 258.5607 197.2657 L 259.4682 197.186 L 261.0494 196.9076 L 261.9813 196.7655 L 263.1921 196.6699 L 264.4944 196.5662 L 265.6275 196.4851 L 267.0094 196.3815 L 268.0247 196.306 L 269.5224 196.1921 L 270.4441 196.1213 L 272.0351 195.9952 L 273.7058 195.8569 L 275.3216 195.7167 L 276.2882 195.607 L 277.8286 195.4687 L 279.5763 195.3182 L 281.7007 195.1434 L 284.4416 194.9155 L 286.3809 194.7552 L 287.3372 194.6473 L 289.022 194.4603 L 290.4626 194.2367 L 292.1436 193.9239 L 293.4988 193.389 L 294.6566 192.946 L 296.5834 192.2446 L 297.1693 191.2469 L 297.7004 190.2629 L 298.1969 188.7078 L 298.2986 187.2221 L 298.5409 186.0796 L 298.8175 184.7116 L 299.6824 184.0876 L 300.4779 183.5287 L 302.1974 182.2216 L 303.9252 181.2765 L 304.7105 180.8494 L 306.8429 179.6909 L 307.7036 179.2235 L 308.8005 178.6257 L 309.7366 178.1176 L 311.4622 177.1785 L 312.2516 176.7518 L 313.0593 176.3107 L 314.7647 175.3857 L 316.081 174.668 L 317.2778 174.0135 L 318.2931 173.4588 L 319.7904 172.6417 L 320.104 172.471 Z" stroke="currentColor" id="voyager-deck-1" />
  <path d="M 297.4905 162.0853 C 305.2359 161.4388 311.3201 154.9541 311.3201 147.05 C 311.3201 138.7169 304.5577 131.9618 296.2161 131.9618 C 287.8741 131.9618 281.1117 138.7169 281.1117 147.05 C 281.1117 155.3831 287.8741 162.1382 296.2161 162.1382 C 296.2565 162.1382 296.2968 162.1382 296.3372 162.1379 C 296.7106 162.0255 297.095 162.0038 297.4905 162.0853 Z M 160.7287 151.0383 L 120.2322 151.0383 L 120.2322 165.9943 L 120.2642 165.9943 L 120.2642 166.0107 L 120.2695 166.0107 L 120.2695 175.5971 L 120.2642 175.5971 L 120.2642 189.6153 C 150.6687 189.3916 258.827 188.3272 285.3096 184.3957 C 285.9397 184.302 287.0321 184.1744 287.1083 183.9215 C 288.2577 180.1222 289.7261 173.6893 291.6429 168.7787 C 282.8468 166.9406 275.9617 159.907 274.3509 151.0383 L 229.9259 151.0383 L 229.9259 143.0617 L 274.3509 143.0617 C 275.964 134.1805 282.8662 127.1396 291.6799 125.3136 C 289.7448 120.3909 288.265 113.9001 287.1083 110.0764 C 287.0321 109.8235 285.9397 109.6959 285.3096 109.6022 C 258.8175 105.6691 150.5925 104.6059 120.2322 104.3823 L 120.2322 143.0617 L 160.7287 143.0617 L 160.7287 151.0383 Z M 112.2792 197.6436 L 112.2792 175.5971 L 112.2472 166.0107 L 112.2472 99.3288 L 112.2792 99.3288 L 112.2792 96.3547 C 112.2792 96.3547 254.4055 97.5505 285.3096 102.2679 C 286.9905 102.5243 292.0971 102.759 292.5051 103.8493 C 294.8578 110.1355 296.2412 124.8794 297.702 124.6584 L 297.702 124.8995 C 309.2821 125.6634 318.4387 135.2883 318.4387 147.05 C 318.4387 158.8117 309.2821 168.4366 297.702 169.2005 L 297.702 169.3395 C 296.2412 169.1185 294.8578 183.8624 292.5051 190.1486 C 292.0971 191.2389 286.9905 191.4736 285.3096 191.73 C 258.827 195.7723 150.6687 197.2291 120.2642 197.5632 L 120.2642 197.6436 L 112.2792 197.6436 Z" stroke="currentColor" id="hallway"/>
  <path d="M 298.3691 124.9536 C 293.959 123.1601 312.8928 124.0557 311.8214 119.3905 L 312.8273 119.9376 L 313.5382 120.3239 L 314.8153 121.0172 L 316.2186 121.7806 L 316.9844 122.1978 L 318.0638 122.7871 L 319.1904 123.402 L 320.3261 124.0245 L 321.1232 124.458 L 322.5908 125.2855 L 323.8108 125.9681 L 325.1576 126.7201 L 326.4035 127.5091 L 327.748 128.3491 L 328.787 128.9804 L 329.3787 129.8314 L 330.3514 131.2406 L 330.8574 132.0166 L 331.6415 133.2246 L 332.1581 134.017 L 332.6435 134.7622 L 333.2938 135.7614 L 333.9057 136.7039 L 334.7634 138.0236 L 335.3112 138.8781 L 336.3205 140.4358 L 337.0699 141.6434 L 337.8742 143.1002 L 338.7719 144.4641 L 339.0614 145.434 L 338.9845 146.5136 L 338.9845 147.6192 L 338.9898 149.3266 L 338.4313 150.2508 L 337.6525 151.5868 L 337.0699 152.4874 L 336.1685 153.937 L 335.3112 155.2528 L 334.4262 156.6273 L 333.9057 157.4288 L 333.2938 158.3698 L 332.6435 159.3691 L 332.16 160.1119 L 331.6415 160.9081 L 330.8574 162.1142 L 329.9376 163.4484 L 329.3787 164.2994 L 328.787 165.1505 L 327.1159 166.1753 L 326.4054 166.6237 L 324.8536 167.5829 L 323.5231 168.3239 L 321.9054 169.2336 L 320.6085 169.9548 L 320.3261 170.1087 L 318.9778 170.8443 L 318.0638 171.3437 L 316.9863 171.9331 L 315.801 172.5792 L 314.2656 173.412 L 313.5382 173.8093 L 312.8273 174.1933 L 311.274 175.039 C 312.3819 170.1925 294.2794 171.4047 298.5878 169.3326 C 298.7752 169.2427 298.9608 169.1509 299.1448 169.058 C 310.0338 167.626 318.4387 158.3184 318.4387 147.05 C 318.4387 135.5153 309.6318 126.0352 298.3691 124.9536 Z" id="room-1" stroke="currentColor" name="Observation Deck"/>
<path d="M 160.7287 131.9618 h 69.1972 v 30.1767 h -68.961 v -30.0957 Z" id="room-2" stroke="currentColor" name="Memorial Room"/>
<path d="M 120.0874 151.0261 h 40.6413 v 9.7591 h -40.386 v -9.524 Z M 120.0874 133.3153 h 40.6413 v 9.7591 h -40.386 v -9.524 Z" id="room-8" stroke="currentColor" name="Emergency Batteries"/>
<path d="M 297.702 169.5917 C 297.0181 168.9018 295.5204 177.0452 294.0558 184.8327 L 298.9052 184.5535 L 302.1159 182.2544 L 311.3201 177.4036 L 311.3201 175.039 C 311.3201 175.039 311.3475 173.554 309.8563 172.7681 C 307.8183 171.6946 301.038 170.7174 299.0568 170.6092 C 298.4967 170.5784 297.702 169.5917 297.702 169.5917 Z M 297.9329 124.7117 C 297.249 125.4016 295.7513 117.2583 294.2867 109.4707 L 299.1361 109.75 L 302.3467 112.0491 L 311.5509 116.9002 L 311.5509 119.2644 C 311.5509 119.2644 311.5784 120.7498 310.0871 121.5353 C 308.0492 122.6088 301.2689 123.586 299.2877 123.6946 C 298.7276 123.7251 297.9329 124.7117 297.9329 124.7117 Z" id="room-3" stroke="currentColor" name="Airlock"/>
<path d="M 229.8672 106.3415 C 228.9802 106.6444 280.1489 107.1922 287.1266 110.1039 C 287.2469 110.1542 287.2999 110.6277 287.2999 110.6277 C 288.4494 115.5912 289.8892 120.4629 291.6803 125.2241 C 282.0954 127.8554 276.3507 133.7766 274.4465 142.9878 L 268.6256 143.0084 L 229.9682 143.0084 L 229.8672 106.3415 Z" id="room-4" stroke="currentColor" name="Gravity Generation Control"/>
<path d="M 229.8672 187.7341 L 229.8664 187.7337 L 229.8672 187.7337 L 229.8672 187.7341 Z M 251.5545 186.9821 L 251.5545 169.4005 L 229.9175 169.4005 L 229.9682 151.0668 L 268.6256 151.0668 L 274.4465 151.0878 C 276.3507 160.299 282.0954 166.2202 291.6803 168.8515 C 289.8892 173.6123 288.4494 178.4844 287.2999 183.4479 C 287.2999 183.4479 287.2469 183.9215 287.1266 183.9714 C 283.2918 185.5718 266.1083 186.4579 251.5545 186.9821 Z" id="room-5" stroke="currentColor" name="Laser Cannon Control Room"/>
<path d="M 229.8558 169.4005 L 251.5545 169.4005 L 251.5545 187.1573 L 229.8558 187.7341 L 229.8558 169.4005 Z" id="room-6" stroke="currentColor" name="Laser Cannon Power Generator"/>
<path d="M 134.4263 161.3619 C 142.1541 161.3619 148.4186 167.6199 148.4186 175.3396 C 148.4186 183.0593 142.1541 189.3174 134.4263 189.3174 C 126.6985 189.3174 120.4337 183.0593 120.4337 175.3396 C 120.4337 167.6199 126.6985 161.3619 134.4263 161.3619 Z M 134.4263 104.8017 C 142.1541 104.8017 148.4186 111.0597 148.4186 118.7794 C 148.4186 126.4988 142.1541 132.7572 134.4263 132.7572 C 126.6985 132.7572 120.4337 126.4988 120.4337 118.7794 C 120.4337 111.0597 126.6985 104.8017 134.4263 104.8017 Z" id="room-7" stroke="currentColor" name="Main Fuel Tank"/>
<path d="M 72.8678 119.5273 L 112.2472 107.5195 L 112.2472 186.5805 L 72.8678 174.3598 C 57.7097 155.8467 58.6283 137.5836 72.8678 119.5273 Z" id="room-192" stroke="currentColor" name="Upper Shuttle Flight Deck"/>
<path d="M 106.1584 97.9136 L 106.3325 109.2296 L 85.176 115.7348 L 83.3628 99.7296 C 91.096 99.3677 99.0646 99.4294 106.1584 97.9136 Z M 106.1584 196.0679 L 106.3325 184.7519 L 85.176 178.2467 L 83.3628 194.2519 C 91.096 194.6138 99.0646 194.5521 106.1584 196.0679 Z" id="room-9" stroke="currentColor" name="Shuttle Service Airlock"/>
<path d="M 229.6862 175.1663 L 229.6862 188.1996 L 211.2664 188.1996 L 211.2664 162.1329 L 229.6862 162.1329 L 229.6862 175.1663 Z" id="room-10" stroke="currentColor" name="Crew Quarters"/>
<path d="M 211.2664 175.1663 L 211.2664 188.1996 L 192.847 188.1996 L 192.847 162.1329 L 211.2664 162.1329 L 211.2664 175.1663 Z" id="room-11" stroke="currentColor" name="Crew Quarters"/>
<path d="M 192.847 175.1663 L 192.847 188.1996 L 174.4271 188.1996 L 174.4271 162.1329 L 192.847 162.1329 L 192.847 175.1663 Z" id="room-12" stroke="currentColor" name="Crew Quarters"/>
<path d="M 174.4511 175.5575 L 174.4511 188.9821 L 156.0317 188.9821 L 156.0317 162.1329 L 174.4511 162.1329 L 174.4511 175.5575 Z" id="room-13" stroke="currentColor" name="Crew Quarters"/>
<path d="M 229.6862 119.0857 L 229.6862 106.0524 L 211.2664 106.0524 L 211.2664 132.1191 L 229.6862 132.1191 L 229.6862 119.0857 Z" id="room-14" stroke="currentColor" name="Crew Quarters"/>
<path d="M 211.2664 119.0857 L 211.2664 106.0524 L 192.847 106.0524 L 192.847 132.1191 L 211.2664 132.1191 L 211.2664 119.0857 Z" id="room-15" stroke="currentColor" name="Crew Quarters"/>
<path d="M 192.847 118.8503 L 192.847 105.5811 L 174.4271 105.5811 L 174.4271 132.1191 L 192.847 132.1191 L 192.847 118.8503 Z" id="room-16" stroke="currentColor" name="Crew Quarters"/>
<path d="M 174.4511 118.6945 L 174.4511 105.2699 L 156.0317 105.2699 L 156.0317 132.1191 L 174.4511 132.1191 L 174.4511 118.6945 Z" id="room-17" stroke="currentColor" name="Crew Quarters"/>
</svg>