<svg viewBox="0 0 1000 772" version="1.1" xmlns="http://www.w3.org/2000/svg" xmlns:xlink="http://www.w3.org/1999/xlink" xml:space="preserve" style="fill-rule:evenodd;clip-rule:evenodd;stroke-miterlimit:1.41421;">
  <path d="M923.373,482.235L924.937,480.079L926.433,478.271L928.158,476.014L931.485,471.681L933.387,469.125L935.256,466.729L937.712,463.555L939.988,460.492L941.419,458.496L943,455.973L944.388,453.801L946.076,450.722L947.139,448.028L948.143,445.317L948.629,442.863L949.43,438.722L949.841,436.273L950.541,432.133L950.958,429.684L951.663,425.543L952.325,421.701L952.805,418.953L953.612,414.247L954.381,409.904L955.123,405.769L955.593,403.32L956.373,399.179L956.795,396.725L957.505,392.59L957.858,390.183L958.221,387.739L958.221,384.261L957.858,381.817L957.505,379.405L957.083,376.956L956.373,372.815L955.903,370.366L955.123,366.226L954.472,362.603L953.938,359.636L953.179,355.192L952.325,350.299L951.663,346.452L951.246,344.003L950.541,339.862L950.13,337.408L949.43,333.272L948.939,330.818L948.143,326.683L947.139,323.967L946.076,321.272L944.388,318.199L942.994,316.022L941.419,313.498L939.988,311.503L937.712,308.44L935.256,305.265L933.387,302.87L931.485,300.319L929.44,297.795L926.791,294.263L924.937,291.915L923.373,289.76L921.156,287.135L918.406,283.901L915.591,280.545L913.599,278.56L911.041,276.58L907.708,273.955L904.888,272.675L900.402,270.967L897.951,270.492L893.806,269.633L891.349,269.239L887.21,268.55L884.759,268.193L882.217,267.793L879.429,267.366L876.427,266.886L874.013,266.485L871.445,266.09L867.418,265.434L864.961,265.066L860.822,264.442L858.365,264.095L854.226,263.508L851.769,263.247L847.625,262.814L845.173,262.697L841.029,262.499L838.578,262.409L834.433,262.238L831.976,262.217L827.837,262.115L824.852,262.105L821.242,262.062L816.665,261.971L812.771,261.939L809.674,261.785L806.608,261.496L802.031,261.07L798.575,260.392L794.853,260.333L791.985,259.976L788.252,259.789L783.883,259.191L779.45,258.258L775.06,257.473L771.845,256.657L768.464,255.825L766.152,255.126L762.226,254.181L757.222,253.402L752.736,252.922L748.672,252.447L746.215,252.356L742.076,252.042L739.619,252.036L735.48,251.828L733.023,251.892L728.879,251.823L726.427,251.983L722.283,252.138L717.93,252.532L712.6,253.183L709.091,253.648L703.409,254.181L697.854,254.747L693.395,255.44L689.299,256.241L686.842,256.443L682.703,256.673L680.246,256.561L676.107,256.353L673.65,256.267L669.506,256.102L666.643,255.857L662.91,255.531L658.493,254.181L653.494,252.746L649.718,251.556L647.262,250.793L643.117,249.528L640.81,248.76L637.301,247.592L633.616,246.482L629.925,245.329L627.469,244.497L623.33,243.099L620.836,242.256L617.049,241.002L613.818,240.042L610.133,238.916L607.681,238.131L603.537,236.829L600.594,235.848L596.941,234.658L593.854,233.751L590.345,232.71L587.889,231.953L583.744,230.693L581.293,229.872L577.148,228.559L574.601,227.817L571.834,227.038L568.096,225.95L563.957,224.755L561.5,223.922L557.361,222.594L554.338,221.761L551.887,221.068L548.308,220.054L544.164,218.901L541.707,218.085L537.568,216.746L535.01,216.02L530.972,214.958L528.078,214.195L524.371,213.176L521.92,212.45L517.775,211.271L515.324,210.524L511.179,209.249L508.627,208.598L505.534,207.755L502.159,206.784L497.982,205.637L495.531,204.911L491.387,203.737L489.053,202.958L484.791,201.486L481.207,200.424L478.195,199.469L475.738,198.78L471.599,197.639L467.498,196.545L464.998,195.835L461.505,194.864L458.402,193.984L455.945,193.29L451.806,192.127L449.483,191.454L447.197,190.809L442.3,189.368L439.143,188.472L434.78,187.149L432.014,186.311L429.562,185.542L425.418,184.23L421.642,183.024L418.822,182.133L414.416,180.815L409.769,179.796L405.625,179.156L372.641,179.156L370.189,179.15L330.604,179.15L326.464,179.145L297.619,179.145L293.48,179.14L277.826,179.14L273.687,179.134L258.039,179.134L253.894,179.129L240.703,179.129L238.246,179.124L220.91,179.124L218.453,179.118L205.262,179.118L201.117,179.113L187.926,179.113L184.556,179.833L181.33,180.527L178.072,181.685L174.729,182.864L172.459,183.734L168.133,185.382L165.35,186.455L161.537,187.917L157.953,189.304L154.941,190.425L150.791,191.988L148.345,192.938L146.188,193.807L143.48,194.864L139.378,196.422L135.148,197.9L132.692,198.914L128.553,200.563L125.092,202.265L121.957,204.015L119.692,205.781L116.91,208.049L115.356,209.9L113.641,212.456L112.157,214.638L112.253,217.087L112.44,221.228L113.785,223.415L115.356,226.009L118.72,229.936L121.957,233.361L125.311,236.408L128.553,239.358L130.326,241.002L132.216,242.672L135.148,245.303L137.675,247.592L139.784,249.475L141.744,251.214L143.998,253.247L146.455,255.44L148.345,257.121L151.064,259.581L153.494,263.983L154.941,266.581L154.941,268.956L152.314,269.319L148.345,269.751L145.889,269.879L141.744,270.082L137.13,270.3L132.526,270.546L128.553,270.765L125.722,270.898L121.957,271.074L118.939,271.213L115.356,271.378L112.14,271.528L108.76,271.682L105.721,271.997L102.164,272.36L99.5951,272.504L95.5682,272.728L90.8843,272.974L87.2526,273.166L83.6797,273.352L81.2122,273.48L76.2988,273.742L72.2505,273.955L69.4305,274.158L63.31,274.596L57.1202,275.044L51.4003,275.972L47.2772,278.464L45.2531,280.545L43.8911,286.281L44.2222,292.598L46.7485,296.301L49.3868,299.129L54.0386,300.319L57.2003,300.943L60.0736,301.616L62.5837,302.219L65.7348,302.453L69.1796,302.71L72.2826,302.939L75.7754,303.2L78.6114,303.408L82.3712,303.686L84.9935,303.905L88.9724,304.252L93.9232,305.5L96.3853,306.242L96.9888,312.431L96.818,314.838L96.8766,318.685L96.93,321.518L96.9888,325.194L97.0422,328.193L97.0956,331.704L97.1544,334.628L97.2131,338.523L97.2665,341.559L97.3146,344.707L97.3787,348.26L97.4214,351.19L97.4909,354.967L97.5336,357.667L97.603,361.669L97.6458,364.15L97.7205,368.376L97.7953,372.815L97.87,377.111L97.9502,381.79L98.0249,386L97.9822,388.412L97.9075,392.59L97.8326,396.912L97.7578,401.367L97.6831,405.769L97.603,410.326L97.5336,414.327L97.4909,417.033L97.4214,420.805L97.3787,423.734L97.3146,427.288L97.2665,430.436L97.2131,433.477L97.1544,437.367L97.0956,440.291L97.0422,443.802L96.9888,446.8L96.93,450.477L96.8766,453.31L96.818,457.157L96.9888,459.564L96.7859,463.917L95.5682,466.11L91.2102,467.348L86.35,467.967L82.3712,468.309L79.5353,468.522L75.7754,468.8L72.6724,469.029L69.1796,469.285L66.0019,469.525L62.5837,469.776L60.0736,470.379L57.1949,471.051L54.0493,471.681L50.1611,472.684L46.7485,475.693L44.3344,478.271L43.779,483.953L44.8258,489.561L47.2772,493.536L49.3868,495.692L55.0907,496.716L61.7987,497.292L68.9072,497.805L72.2185,498.039L75.3161,498.205L81.2122,498.514L83.685,498.648L87.2473,498.834L90.8897,499.026L93.3892,499.155L97.9769,499.405L102.164,499.64L105.112,499.939L108.76,500.312L111.98,500.462L115.356,500.622L118.373,500.761L121.957,500.921L124.782,501.059L128.553,501.23L131.175,501.39L135.148,501.604L139.597,501.806L144.201,502.046L148.345,502.249L151.715,502.639L154.941,503.044L154.941,505.413L153.601,507.425L152.388,511.224L149.67,513.684L146.925,516.133L145.034,517.814L142.78,519.852L139.784,522.52L137.675,524.403L135.148,526.697L132.216,529.328L130.326,530.998L128.553,532.636L126.593,534.408L123.062,537.588L119.863,540.827L116.696,544.177L114.234,547.827L112.445,550.767L112.349,553.221L112.157,557.357L113.641,559.539L115.356,562.1L116.91,563.951L119.692,566.214L121.957,567.98L125.086,569.73L127.543,570.979L131.004,572.451L135.148,574.1L137.541,574.964L141.744,576.474L145.696,578L148.345,579.057L150.791,580.012L153.275,580.935L157.953,582.691L160.64,583.72L163.241,584.734L168.133,586.612L170.44,587.493L174.729,589.131L178.067,590.315L181.33,591.468L183.829,591.991L187.926,592.882L190.382,592.882L194.521,592.887L196.978,592.882L210.17,592.882L214.314,592.876L229.963,592.876L234.102,592.871L249.755,592.871L253.894,592.866L267.091,592.866L269.543,592.86L286.879,592.86L289.336,592.855L309.128,592.855L313.268,592.85L352.853,592.85L355.304,592.844L405.625,592.844L408.082,592.487L412.226,591.847L417.311,590.315L421.642,588.971L425.418,587.765L427.874,586.996L432.014,585.689L434.369,584.98L438.471,583.72L442.3,582.626L445.211,581.773L449.483,580.546L451.806,579.868L454.893,578.993L458.402,578.011L461.511,577.131L464.998,576.16L467.503,575.45L471.599,574.361L474.051,573.673L478.195,572.531L480.652,571.736L484.695,570.541L487.611,569.49L491.387,568.257L493.843,567.532L497.982,566.358L501.497,565.387L504.584,564.533L507.948,563.573L511.179,562.746L513.636,561.999L517.775,560.723L520.232,559.998L524.371,558.819L526.668,558.152L529.653,557.357L532.777,556.535L537.568,555.254L540.019,554.438L544.164,553.099L546.621,552.389L550.76,551.236L554.343,550.239L557.361,549.406L559.812,548.574L563.957,547.24L566.408,546.514L570.552,545.319L573.324,544.54L575.776,543.836L579.605,542.614L583.744,541.301L586.201,540.544L590.345,539.29L592.684,538.596L596.119,537.588L598.677,536.755L603.537,535.165L605.994,534.386L610.133,533.084L613.823,531.959L616.734,531.094L620.173,529.947L623.33,528.901L625.781,528.069L629.925,526.671L633.616,525.518L636.521,524.643L640.34,523.379L643.117,522.472L645.574,521.703L649.718,520.439L653.494,519.249L656.314,518.368L661.206,517.003L665.879,516.208L669.506,515.898L671.962,515.807L676.107,515.642L678.558,515.535L682.703,515.327L685.154,515.53L689.299,515.759L692.775,516.469L695.894,517.12L702.148,517.712L707.361,518.16L711.874,518.715L715.687,519.206L720.184,519.628L724.74,520.017L728.879,520.172L731.336,520.236L735.48,520.167L737.931,520.161L742.076,519.953L744.527,519.857L748.672,519.548L752.122,519.169L755.267,518.833L761.644,517.904L766.152,516.874L768.464,516.17L771.679,515.391L775.06,514.521L777.869,513.993L781.656,513.342L786.217,512.67L791.072,511.95L794.853,511.661L797.272,511.539L800.124,511.341L806.608,510.498L809.668,510.21L812.771,510.061L816.659,510.029L819.047,509.927L824.238,509.917L827.837,509.879L830.289,509.858L834.433,509.757L836.89,509.666L841.029,509.495L843.486,509.378L847.625,509.18L850.082,508.914L854.226,508.487L856.677,508.14L860.822,507.553L863.273,507.185L867.418,506.566L871.45,505.904L874.013,505.515L876.427,505.109L879.44,504.634L882.212,504.202L884.764,503.802L887.21,503.45L889.662,503.055L893.806,502.367L896.263,501.886L900.402,501.027L902.955,500.056L906.998,498.514L909.609,496.577L913.599,493.435L915.591,491.45L917.38,489.412L920.195,486.061L923.373,482.235Z" stroke="currentColor" stroke-width="3" id="voyager-deck-10" />
  <path d="M315.617,400.666L315.654,497.732C330.035,497.627 351.044,497.449 376.231,497.169L376.231,400.666L315.617,400.666ZM411.69,496.736C462.486,496.062 523.21,495.015 579.835,493.417C561.123,422.73 559.952,351.092 579.798,278.314C523.184,276.716 462.475,275.67 411.69,274.996L411.69,370.784L472.101,370.784L472.101,400.666L411.69,400.666L411.69,496.736ZM597.358,396.469C598.469,428.427 604.044,460.394 613.827,492.369C673.244,490.369 724.352,487.667 748.844,484.031C750.498,483.785 753.365,483.45 753.565,482.786C756.582,472.813 760.436,455.927 765.467,443.037C742.38,438.212 724.309,419.749 720.081,396.469L597.358,396.469ZM597.272,375.531L720.081,375.531C724.315,352.218 742.431,333.736 765.564,328.943C760.485,316.021 756.601,298.983 753.565,288.946C753.365,288.282 750.498,287.947 748.844,287.701C724.342,284.063 673.202,281.361 613.753,279.36C603.535,311.406 598.127,343.464 597.272,375.531ZM315.606,370.784L376.231,370.784L376.231,274.564C352.266,274.297 332.084,274.123 317.794,274.016L315.57,273.999L315.606,370.784ZM294.696,518.806L294.696,252.927C294.696,252.927 686.397,258.916 748.844,268.449C753.256,269.122 766.659,269.738 767.73,272.6C773.905,289.101 777.536,327.803 781.37,327.223L781.37,327.856C811.764,329.861 835.797,355.126 835.797,386C835.797,416.874 811.764,442.139 781.37,444.144L781.37,444.509C777.536,443.929 773.905,482.631 767.73,499.132C766.659,501.994 753.256,502.61 748.844,503.283C686.396,512.817 294.696,518.806 294.696,518.806Z" stroke="currentColor" stroke-width="2" id="hallway"/>
  <path d="M677.773,263.181L677.773,260.808L679.63,260.883L681.999,260.965L685.991,261.166L688.36,261.274L692.352,261.052L694.721,260.857L698.672,260.085L702.973,259.416L708.33,258.87L713.81,258.356L717.194,257.908L722.334,257.28L726.532,256.9L730.529,256.75L732.893,256.596L736.89,256.663L739.26,256.601L743.252,256.802L745.621,256.807L749.613,257.111L751.982,257.198L755.902,257.656L760.228,258.119L765.055,258.87L768.841,259.781L771.071,260.455L774.331,261.258L777.432,262.046L781.666,262.802L785.941,263.702L790.154,264.279L793.755,264.459L796.521,264.804L800.111,264.86L803.443,265.514L807.857,265.925L810.814,266.203L813.801,266.353L817.556,266.384L821.971,266.471L825.452,266.512L828.332,266.522L832.324,266.62L834.693,266.641L838.69,266.805L841.054,266.893L845.051,267.083L847.415,267.197L851.412,267.613L853.782,267.865L857.773,268.432L860.143,268.766L864.135,269.368L866.504,269.723L870.388,270.356L872.865,270.737L875.193,271.123L878.088,271.586L880.777,271.998L883.228,272.384L885.593,272.728L889.584,273.392L891.954,273.773L895.951,274.601L898.315,275.06L902.642,276.706L905.361,277.941L908.575,280.473L911.042,282.382L912.964,284.296L915.678,287.533L918.331,290.652L920.468,293.183L921.978,295.262L923.765,297.527L926.32,300.933L928.292,303.367L930.126,305.827L931.929,308.137L934.298,311.199L936.492,314.153L937.873,316.078L939.392,318.512L940.737,320.611L942.364,323.575L943.389,326.174L944.358,328.793L945.125,332.781L945.599,335.148L946.274,339.136L946.67,341.503L947.35,345.497L947.752,347.859L948.391,351.569L949.215,356.288L949.946,360.574L950.461,363.435L951.09,366.929L951.842,370.923L952.295,373.284L952.98,377.278L953.387,379.64L953.727,381.966L954.077,384.322L954.077,387.678L953.727,390.034L953.387,392.355L952.702,396.343L952.295,398.71L951.543,402.704L951.09,405.066L950.374,409.054L949.632,413.242L948.854,417.781L948.391,420.431L947.752,424.136L947.072,428.13L946.67,430.491L945.995,434.485L945.599,436.847L944.826,440.84L944.358,443.207L943.389,445.821L942.364,448.42L940.737,451.389L939.397,453.483L937.873,455.917L936.492,457.842L934.298,460.796L931.929,463.858L930.126,466.168L928.292,468.633L925.083,472.811L923.42,474.988L921.978,476.733L920.468,478.812L917.404,482.501L914.689,485.733L912.964,487.699L911.042,489.613L907.195,492.644L904.676,494.512L900.777,495.999L898.315,496.935L894.323,497.764L891.954,498.227L887.957,498.891L885.593,499.272L883.234,499.611L880.772,499.997L878.098,500.414L875.193,500.872L872.865,501.263L870.393,501.639L866.504,502.277L862.507,502.874L860.143,503.229L856.146,503.795L853.782,504.129L849.785,504.541L847.415,504.798L843.423,504.989L841.054,505.102L837.062,505.267L834.693,505.354L830.696,505.452L828.332,505.472L824.86,505.509L819.854,505.519L817.551,505.617L813.801,505.647L810.809,505.792L807.857,506.069L801.604,506.882L798.854,507.073L796.521,507.191L792.874,507.469L788.192,508.164L783.793,508.812L780.141,509.44L777.432,509.949L774.172,510.788L771.071,511.539L768.841,512.219L764.493,513.212L758.343,514.107L755.31,514.431L751.982,514.797L747.985,515.095L745.621,515.188L741.624,515.389L739.26,515.394L735.263,515.461L732.893,515.399L728.902,515.25L724.508,514.874L720.171,514.467L716.493,513.994L712.141,513.459L707.114,513.027L701.082,512.455L698.074,511.828L694.721,511.143L690.724,510.922L688.36,510.726L684.363,510.927L681.999,511.03L678.002,511.19L677.773,511.198L677.773,508.551C689.244,507.995 699.822,507.418 709.265,506.823L712.192,507.1L716.984,507.512L721.133,508.023L724.639,508.474L728.774,508.861L732.963,509.22L736.768,509.362L739.027,509.421L742.837,509.357L745.091,509.352L748.902,509.161L751.156,509.072L754.966,508.788L758.138,508.44L761.03,508.13L766.893,507.277L771.038,506.33L773.164,505.683L776.12,504.966L779.228,504.167L781.811,503.681L785.293,503.082L789.486,502.464L793.95,501.802L797.426,501.537L799.651,501.424L802.273,501.243L808.234,500.468L811.048,500.203L813.901,500.065L817.475,500.036L819.67,499.943L824.443,499.933L827.753,499.899L830.007,499.879L833.817,499.786L836.076,499.702L839.881,499.545L842.14,499.437L845.946,499.256L848.205,499.011L852.015,498.618L854.269,498.299L858.079,497.76L860.333,497.421L864.144,496.852L867.851,496.244L870.208,495.886L872.428,495.513L875.197,495.076L877.745,494.679L880.093,494.311L882.342,493.987L884.595,493.624L888.406,492.991L890.665,492.55L894.47,491.76L896.817,490.867L900.535,489.449L902.936,487.669L906.604,484.779L908.435,482.954L910.08,481.08L912.668,477.999L915.59,474.482L917.029,472.5L918.404,470.837L919.99,468.762L923.049,464.778L924.797,462.428L926.515,460.226L928.774,457.307L930.866,454.491L932.182,452.656L933.636,450.336L934.912,448.339L936.464,445.508L937.441,443.031L938.364,440.539L938.811,438.282L939.548,434.475L939.926,432.224L940.569,428.417L940.952,426.165L941.6,422.358L942.209,418.826L942.651,416.299L943.392,411.972L944.1,407.979L944.782,404.177L945.214,401.925L945.931,398.119L946.319,395.862L946.972,392.06L947.296,389.847L947.63,387.601L947.63,384.402L947.296,382.155L946.972,379.938L946.584,377.686L945.931,373.879L945.499,371.627L944.782,367.821L944.183,364.49L943.692,361.762L942.995,357.675L942.209,353.177L941.6,349.64L941.217,347.388L940.569,343.581L940.191,341.324L939.548,337.522L939.096,335.266L938.364,331.464L937.441,328.967L936.464,326.489L934.912,323.664L933.631,321.662L932.182,319.342L930.866,317.507L928.774,314.691L926.515,311.772L924.797,309.569L923.049,307.224L921.168,304.904L918.733,301.656L917.029,299.498L915.59,297.516L913.552,295.102L911.023,292.129L908.435,289.044L906.604,287.219L904.252,285.399L901.188,282.985L898.595,281.808L894.47,280.238L892.216,279.801L888.406,279.011L886.147,278.648L882.342,278.016L880.088,277.687L877.75,277.319L875.187,276.926L872.428,276.485L870.208,276.117L867.846,275.754L864.144,275.151L861.885,274.812L858.079,274.238L855.821,273.919L852.015,273.38L849.756,273.139L845.946,272.742L843.692,272.634L839.881,272.452L837.628,272.369L833.817,272.212L831.558,272.192L827.753,272.099L825.008,272.089L821.688,272.05L817.48,271.967L813.901,271.937L811.053,271.795L808.234,271.53L804.026,271.138L800.849,270.515L797.426,270.461L794.789,270.132L791.357,269.96L787.34,269.411L783.265,268.552L779.228,267.831L776.272,267.081L773.164,266.315L771.038,265.673L767.429,264.804L762.828,264.088L758.703,263.646L754.966,263.21L752.707,263.126L748.902,262.837L746.643,262.832L742.837,262.641L740.579,262.7L736.768,262.636L734.514,262.783L730.704,262.925L726.702,263.288L721.801,263.887L718.575,264.314L713.35,264.804L711.147,265.029C701.235,264.391 690.012,263.775 677.773,263.181Z" id="room-127" stroke="currentColor" name="Escape Pods"/>
<path d="M711.147,265.029L713.35,264.804L718.575,264.314L721.801,263.887L726.702,263.288L730.704,262.925L734.514,262.783L736.768,262.636L740.579,262.7L742.837,262.641L746.643,262.832L748.902,262.837L752.707,263.126L754.966,263.21L758.703,263.646L762.828,264.088L767.429,264.804L771.038,265.673L773.164,266.315L776.272,267.081L779.228,267.831L783.265,268.552L787.34,269.411L791.357,269.96L794.789,270.132L797.426,270.461L800.849,270.515L804.026,271.138L808.234,271.53L811.053,271.795L813.901,271.937L817.48,271.967L821.688,272.05L825.008,272.089L827.753,272.099L831.558,272.192L833.817,272.212L837.628,272.369L839.881,272.452L843.692,272.634L845.946,272.742L849.756,273.139L852.015,273.38L855.821,273.919L858.079,274.238L861.885,274.812L864.144,275.151L867.846,275.754L870.208,276.117L872.428,276.485L875.187,276.926L877.75,277.319L880.088,277.687L882.342,278.016L886.147,278.648L888.406,279.011L892.216,279.801L894.47,280.238L898.595,281.808L901.188,282.985L904.252,285.399L906.604,287.219L908.435,289.044L911.023,292.129L913.552,295.102L915.59,297.516L917.029,299.498L918.733,301.656L921.168,304.904L923.049,307.224L924.797,309.569L926.515,311.772L928.774,314.691L930.866,317.507L932.182,319.342L933.631,321.662L934.912,323.664L936.464,326.489L937.441,328.967L938.364,331.464L939.096,335.266L939.548,337.522L940.191,341.324L940.569,343.581L941.217,347.388L941.6,349.64L942.209,353.177L942.995,357.675L943.692,361.762L944.183,364.49L944.782,367.821L945.499,371.627L945.931,373.879L946.584,377.686L946.972,379.938L947.296,382.155L947.63,384.402L947.63,387.601L947.296,389.847L946.972,392.06L946.319,395.862L945.931,398.119L945.214,401.925L944.782,404.177L944.1,407.979L943.392,411.972L942.651,416.299L942.209,418.826L941.6,422.358L940.952,426.165L940.569,428.417L939.926,432.224L939.548,434.475L938.811,438.282L938.364,440.539L937.441,443.031L936.464,445.508L934.912,448.339L933.636,450.336L932.182,452.656L930.866,454.491L928.774,457.307L926.515,460.226L924.797,462.428L923.049,464.778L919.99,468.762L918.404,470.837L917.029,472.5L915.59,474.482L912.668,477.999L910.08,481.08L908.435,482.954L906.604,484.779L902.936,487.669L900.535,489.449L896.817,490.867L894.47,491.76L890.665,492.55L888.406,492.991L884.595,493.624L882.342,493.987L880.093,494.311L877.745,494.679L875.197,495.076L872.428,495.513L870.208,495.886L867.851,496.244L864.144,496.852L860.333,497.421L858.079,497.76L854.269,498.299L852.015,498.618L848.205,499.011L845.946,499.256L842.14,499.437L839.881,499.545L836.076,499.702L833.817,499.786L830.007,499.879L827.753,499.899L824.443,499.933L819.67,499.943L817.475,500.036L813.901,500.065L811.048,500.203L808.234,500.468L802.273,501.243L799.651,501.424L797.426,501.537L793.95,501.802L789.486,502.464L785.293,503.082L781.811,503.681L779.228,504.167L776.12,504.966L773.164,505.683L771.038,506.33L766.893,507.277L761.03,508.13L758.138,508.44L754.966,508.788L751.156,509.072L748.902,509.161L745.091,509.352L742.837,509.357L739.027,509.421L736.768,509.362L732.963,509.22L728.774,508.861L724.639,508.474L721.133,508.023L716.984,507.512L712.192,507.1L709.265,506.823C726.984,505.707 740.708,504.525 748.844,503.283C753.256,502.61 766.659,501.994 767.73,499.132C773.905,482.631 777.536,443.929 781.37,444.509L781.37,444.144C811.764,442.139 835.797,416.874 835.797,386C835.797,355.126 811.764,329.861 781.37,327.856L781.37,327.223C777.536,327.803 773.905,289.101 767.73,272.6C766.659,269.738 753.256,269.122 748.844,268.449C740.998,267.251 727.956,266.109 711.147,265.029Z" id="room-128" stroke="currentColor" name="Escape Pod Control Room"/>
<path d="M294.696,518.806L360.068,518.806L360.068,553.016L327.382,587.227L294.696,587.227L294.696,518.806Z" id="room-129" stroke="currentColor" name="Chief Engineer's Office"/>
<path d="M294.696,252.927L360.068,252.927L360.068,218.716L327.382,184.506L294.696,184.506L294.696,252.927Z" id="room-130" stroke="currentColor" name="Voice Recognition Subprocessor"/>
<path d="M294.696,291.271L294.696,480.729C276.525,469.911 263.093,431.601 263.093,386C263.093,340.399 276.525,302.089 294.696,291.271Z" id="room-131" stroke="currentColor" name="Engineering Observation Center"/>
<path d="M294.696,480.729L294.696,562.175L155.679,562.175L155.679,492.387L109.419,492.387L109.419,279.345L155.679,279.345L155.679,209.825L294.696,209.825L294.696,291.271C276.525,302.089 263.093,340.399 263.093,386C263.093,431.601 276.525,469.911 294.696,480.729Z" id="room-132" stroke="currentColor" name="Main Engineering"/>
<path d="M398.51,183.783C417.622,183.783 433.115,199.261 433.115,218.355C433.115,237.448 417.622,252.927 398.51,252.927C379.399,252.927 363.906,237.448 363.906,218.355C363.906,199.261 379.399,183.783 398.51,183.783ZM398.51,518.806C417.622,518.806 433.115,534.284 433.115,553.378C433.115,572.471 417.622,587.95 398.51,587.95C379.399,587.95 363.906,572.471 363.906,553.378C363.906,534.284 379.399,518.806 398.51,518.806Z" id="room-133" stroke="currentColor" name="Auxillary Fuel Tank"/>
<path d="M597.272,375.531L720.081,375.531C724.315,352.218 742.431,333.736 765.564,328.943C760.485,316.021 756.601,298.983 753.565,288.946C753.365,288.282 750.498,287.947 748.844,287.701C724.342,284.063 673.202,281.361 613.753,279.36C603.535,311.406 598.127,343.464 597.272,375.531Z" id="room-134" stroke="currentColor" name="Wardroom"/>
<path d="M597.272,396.102L720.081,396.102C724.315,419.415 742.431,437.896 765.564,442.69C760.485,455.611 756.601,472.649 753.565,482.687C753.365,483.351 750.498,483.686 748.844,483.931C724.342,487.569 673.202,490.272 613.753,492.272C603.535,460.226 598.127,428.169 597.272,396.102Z" id="room-135" stroke="currentColor" name="Messroom"/>
<path d="M472.101,495.814L472.101,275.918C507.312,276.53 544.358,277.314 579.798,278.314C559.952,351.092 561.123,422.73 579.835,493.417C544.383,494.418 507.324,495.202 472.101,495.814Z" id="room-136" stroke="currentColor" name="Kitchen"/>
<path d="M411.568,370.784L411.568,322.345L472.174,322.345L472.174,370.784L411.568,370.784Z" id="room-137" stroke="currentColor" name="Crew Quarters"/>
<path d="M453.496,449.285L411.568,449.285L411.568,400.708L472.174,400.708L472.174,449.285L453.496,449.285Z" id="room-138" stroke="currentColor" name="Crew Quarters"/>
<path d="M441.871,497.631L411.568,497.631L411.568,449.285L472.174,449.285L472.174,497.631L441.871,497.631Z" id="room-139" stroke="currentColor" name="Crew Quarters"/>
<path d="M315.57,273.999C315.57,321 375,321 273.999,375 315.57,273.999Z" id="room-140" stroke="currentColor" name="Crew Quarters"/>
<path d="M315.57,370.784L315.57,322.345L376.176,322.345L376.176,370.784L315.57,370.784Z" id="room-141" stroke="currentColor" name="Crew Quarters"/>
<path d="M357.498,449.285L315.57,449.285L315.57,400.708L376.176,400.708L376.176,449.285L357.498,449.285Z" id="room-142" stroke="currentColor" name="Crew Quarters"/>
<path d="M345.873,497.631L315.57,497.631L315.57,449.285L376.176,449.285L376.176,497.631L345.873,497.631Z" id="room-143" stroke="currentColor" name="Crew Quarters"/>
<path d="M411.568,273.999h60.6061v48.4392h-60v-48Z" id="room-144" stroke="currentColor" name="Crew Quarters"/>
</svg>