<svg viewBox="0 0 381 294.1" version="1.1" xmlns="http://www.w3.org/2000/svg" xmlns:xlink="http://www.w3.org/1999/xlink" xml:space="preserve" style="fill-rule:evenodd;clip-rule:evenodd;stroke-miterlimit:1.41421;">
  <path d="M 352.5366 182.2075 L 353.1855 181.2662 L 353.9101 180.2338 L 354.8013 178.9286 L 356.0365 177.2048 L 356.7017 176.1701 L 357.245 175.4223 L 357.77 174.6741 L 358.5515 173.4607 L 359.4183 172.1639 L 359.8884 171.2492 L 360.5963 170.0561 L 361.0646 168.7429 L 361.2619 167.7833 L 361.6444 166.0758 L 361.982 164.6309 L 362.1062 163.5615 L 362.2872 162.1203 L 362.3889 161.163 L 362.5722 159.6098 L 362.6823 158.5629 L 362.8652 157.0974 L 363.1399 154.9004 L 363.4755 152.1827 L 363.7586 150.0504 L 364.0127 148.8123 L 364.4505 147.0561 L 364.1857 146.005 L 363.8257 144.5437 L 363.5773 142.6046 L 363.2031 139.907 L 362.9139 137.6449 L 362.7432 135.9881 L 362.5722 134.5001 L 362.4685 133.545 L 362.2872 131.9899 L 362.1592 130.9206 L 361.982 129.4794 L 361.7012 128.3065 L 361.3983 126.9689 L 361.0646 125.3674 L 360.8264 124.4588 L 360.173 123.3631 L 359.4183 121.9464 L 358.5515 120.6515 L 357.7681 119.4358 L 357.245 118.688 L 356.7017 117.9398 L 356.0506 116.9257 L 355.2368 115.7752 L 354.2965 114.4152 L 353.5234 113.3397 L 352.9881 112.5736 L 351.9282 111.041 L 351.3441 110.2117 L 350.76 109.3926 L 350.1497 108.6932 L 349.537 107.9736 L 348.5483 106.8821 L 347.5958 106.2295 L 346.8327 105.764 L 345.9842 105.2253 L 344.861 104.756 L 343.9455 104.3716 L 342.5678 103.8352 L 341.7193 103.516 L 340.132 102.906 L 339.2675 102.583 L 338.4434 102.266 L 337.4178 101.8615 L 335.9304 101.3205 L 334.2311 100.6561 L 332.3836 99.9772 L 331.4902 99.6782 L 330.5297 99.349 L 329.1543 98.9608 L 327.5651 98.5886 L 325.8762 98.3022 L 324.1872 98.0827 L 322.539 97.8225 L 320.8481 97.6454 L 319.1591 97.5136 L 317.5395 97.3509 L 316.4407 97.2938 L 314.7925 97.184 L 313.3093 97.1048 L 312.1331 97.0519 L 310.7943 96.9909 L 308.5822 96.8812 L 307.6586 96.8385 L 306.0691 96.7715 L 303.3773 96.8099 L 302.4736 96.8385 L 301.1451 96.8835 L 300.2131 96.914 L 299.0286 96.9524 L 297.2402 97.0134 L 295.7139 97.064 L 294.4791 97.109 L 293.2012 97.1536 L 292.147 97.2065 L 290.6881 97.2877 L 289.7722 97.4157 L 288.1732 97.7227 L 286.3337 97.9688 L 284.836 98.1151 L 283.147 98.3368 L 281.458 98.4526 L 279.8098 98.4709 L 278.9431 98.2717 L 277.2968 98.2328 L 276.43 98.0073 L 274.7818 97.9604 L 273.9169 97.6782 L 272.0938 97.5601 L 270.5801 97.373 L 268.0853 96.8526 L 266.5103 96.5764 L 265.552 96.4381 L 264.4978 96.2675 L 263.039 96.0377 L 261.3195 95.7349 L 259.7018 95.44 L 258.0128 95.1718 L 256.3219 94.8709 L 254.5884 94.5478 L 253.1231 94.3547 L 252.0304 94.1962 L 250.4717 94.0232 L 248.7827 93.8507 L 247.1345 93.6411 L 245.4459 93.4827 L 243.7547 93.267 L 242.1065 93.0251 L 240.4179 92.7874 L 238.7289 92.5436 L 237.1051 92.3177 L 236.047 92.1714 L 234.7181 91.9501 L 233.6155 91.7569 L 232.0526 91.4925 L 231.1878 91.2567 L 229.5395 90.9234 L 228.6747 90.702 L 227.0265 90.3664 L 226.1616 90.1409 L 224.3366 89.7569 L 223.3864 89.523 L 222.2773 89.3054 L 221.3271 89.0898 L 220.3094 88.8319 L 218.4966 88.3927 L 216.9726 88.0148 L 216.1078 87.785 L 214.3761 87.3275 L 213.2609 87.033 L 212.3576 86.7949 L 211.2912 86.5206 L 210.2556 86.2524 L 208.471 85.7827 L 206.9184 85.3823 L 206.0536 85.1568 L 204.4115 84.7442 L 202.8711 84.3499 L 201.2556 83.9675 L 200.2037 83.7134 L 198.3581 83.2825 L 196.8642 82.9412 L 195.9997 82.7419 L 194.2456 82.3495 L 193.3685 82.1503 L 192.3105 81.9145 L 190.8981 81.6017 L 189.0099 81.1686 L 187.6345 80.8432 L 185.907 80.3903 L 184.1407 79.9163 L 182.6083 79.5038 L 181.0028 79.0321 L 180.0953 78.7719 L 179.1736 78.5403 L 178.2173 78.2516 L 176.3779 77.7475 L 175.0672 77.3837 L 172.9816 76.7517 L 171.9583 76.4831 L 171.069 76.2881 L 170.0414 76.034 L 168.9487 75.7494 L 167.5284 75.3429 L 166.4357 75.1864 L 165.0134 74.9304 L 162.7853 74.5258 L 161.1634 74.2412 L 159.9872 74.0522 L 158.0015 73.9383 L 156.9248 73.8835 L 155.5147 73.8816 L 154.4037 73.8774 L 153.0077 73.8755 L 151.8826 73.8713 L 150.5072 73.8652 L 149.3288 73.8446 L 148.1282 73.7757 L 146.4332 72.8347 L 145.3488 72.8305 L 144.0912 71.9524 L 143.5277 70.5966 L 143.5886 69.2205 L 144.9073 66.755 L 145.249 64.6692 L 145.4548 63.2768 L 145.6948 61.6875 L 146.0042 59.8113 L 146.1425 58.2886 L 146.2236 56.6645 L 145.9207 54.8394 L 145.6784 53.2211 L 145.4323 51.6439 L 145.076 49.3528 L 144.2093 47.5215 L 143.786 46.6232 L 143.4869 45.6373 L 143.0453 44.1108 L 142.3923 41.7184 L 140.1398 41.8605 L 139.2544 42.2262 L 138.4344 42.6696 L 137.3661 43.2449 L 135.8014 44.1108 L 134.853 44.6373 L 133.683 45.2796 L 132.3381 46.0255 L 131.2758 46.6232 L 130.3439 47.1394 L 128.7121 48.0217 L 127.3123 48.8103 L 125.4785 49.8122 L 123.8509 50.6964 L 122.3799 51.5483 L 120.6052 52.477 L 119.7712 52.9487 L 118.9878 53.3715 L 117.5713 54.154 L 116.0271 55.386 L 114.745 56.3861 L 114.745 57.8516 L 115.0708 58.8516 L 116.3566 60.0775 L 117.2581 60.8558 L 118.5603 61.6875 L 119.3113 62.1465 L 120.87 63.1001 L 121.688 63.6003 L 122.6626 64.1976 L 123.9892 65.0068 L 124.7992 65.5005 L 125.5498 65.958 L 126.7911 66.7081 L 127.9611 67.3584 L 128.7529 67.7794 L 129.825 68.3059 L 131.6747 69.2205 L 130.8708 70.2632 L 129.825 70.9623 L 128.3296 71.7307 L 127.4323 71.7695 L 125.2366 71.8751 L 124.2742 71.9017 L 123.039 71.9768 L 121.342 72.0358 L 119.7712 72.109 L 118.6499 72.1802 L 117.2581 72.229 L 115.6301 72.6515 L 114.745 73.3387 L 113.5852 73.4526 L 112.2319 73.6679 L 110.5471 73.6762 L 108.8788 73.666 L 107.2039 73.6336 L 106.2986 73.6069 L 104.6908 73.5562 L 103.6941 73.5258 L 102.1781 73.477 L 101.0915 73.4442 L 99.665 73.3978 L 98.495 73.3612 L 97.15 73.3185 L 95.9046 73.2797 L 94.637 73.2412 L 93.4403 73.2023 L 92.1239 73.1619 L 90.9927 73.1254 L 89.6108 73.0846 L 88.5406 73.0499 L 87.0958 73.0073 L 86.0866 72.9749 L 84.5828 72.9322 L 83.6204 72.9117 L 82.0697 72.8873 L 81.1602 72.8408 L 79.557 72.7696 L 77.6341 72.6861 L 76.2198 72.6233 L 74.5289 72.5642 L 72.84 72.6088 L 71.1918 72.6416 L 69.5028 72.7574 L 67.8138 73.1109 L 66.2696 73.4016 L 65.2295 73.7288 L 63.9272 74.0583 L 62.8978 74.3814 L 61.9616 74.658 L 61.1375 75.0359 L 60.2727 75.3471 L 59.4486 75.7269 L 58.6184 76.1296 L 57.3672 76.7517 L 56.2703 77.6542 L 54.4205 79.1259 L 53.3952 80.8798 L 52.8557 81.7743 L 53.3095 82.7114 L 53.8772 83.7175 L 54.4205 84.5694 L 55.3589 85.6547 L 56.3987 86.7949 L 57.8248 88.2403 L 58.8893 89.3054 L 61.4042 91.8179 L 62.8509 93.259 L 63.9253 94.3284 L 65.3396 95.7897 L 66.19 96.8385 L 65.3945 97.426 L 64.4747 98.7757 L 63.4636 98.8915 L 61.9616 99.0298 L 60.1325 99.0706 L 58.8016 99.101 L 57.5036 99.1315 L 56.4006 99.1559 L 54.8602 99.1925 L 52.1966 99.2515 L 49.5087 99.3144 L 47.9744 99.349 L 47.0383 99.3711 L 44.8368 99.4283 L 43.8173 99.4588 L 42.5985 99.4972 L 40.9685 99.5624 L 39.3405 99.6313 L 38.1972 99.6702 L 36.8276 99.7189 L 35.5965 99.7597 L 34.3146 99.8043 L 33.1832 99.845 L 31.7995 99.8976 L 30.7638 99.9365 L 29.2866 99.9955 L 28.3424 100.0359 L 26.7736 100.1052 L 24.8323 100.1925 L 23.4365 100.3308 L 21.7476 100.5708 L 21.0272 101.1235 L 20.0403 101.8615 L 19.2325 102.6398 L 18.5284 103.6482 L 17.8631 105.1948 L 17.511 106.0589 L 17.3157 107.7054 L 17.3116 109.3926 L 17.7043 111.0795 L 18.329 112.4007 L 18.8641 113.1447 L 19.6049 113.9679 L 20.5511 114.7302 L 21.2958 115.2567 L 22.5716 115.6693 L 24.2605 115.8624 L 25.9494 115.9379 L 27.5977 116.011 L 29.2866 116.0861 L 30.9755 116.1634 L 32.6237 116.2385 L 34.3146 116.32 L 36.0035 116.4499 L 37.4584 116.7059 L 37.7921 117.5985 L 38.0587 118.5821 L 37.8491 119.4358 L 37.7657 121.1231 L 37.6761 122.7696 L 37.6761 171.3407 L 37.7657 172.9872 L 37.8491 174.6741 L 38.0587 175.5278 L 37.7941 176.5137 L 37.5215 177.3857 L 36.0035 177.6623 L 34.3146 177.7922 L 32.6237 177.8715 L 30.9755 177.9488 L 29.2866 178.0261 L 27.5977 178.1012 L 25.9494 178.1743 L 24.2605 178.2497 L 22.5716 178.4406 L 21.2958 178.8555 L 20.5531 179.38 L 19.729 180.0223 L 18.8641 180.9652 L 18.3311 181.7092 L 17.7043 183.0308 L 17.3116 184.7177 L 17.3157 186.4049 L 17.511 188.0514 L 17.861 188.9151 L 18.5284 190.4621 L 19.2325 191.4724 L 20.0403 192.2507 L 21.0272 192.9867 L 21.7476 193.5414 L 23.4365 193.7795 L 24.8303 193.9197 L 25.9291 193.9685 L 27.7197 194.0477 L 29.2866 194.117 L 30.3263 194.1574 L 31.7995 194.2146 L 32.9309 194.255 L 34.3146 194.3079 L 35.5457 194.3487 L 36.8276 194.3932 L 37.9915 194.434 L 39.3405 194.4809 L 40.3357 194.5235 L 41.8536 194.5883 L 43.8234 194.6534 L 44.8327 194.6839 L 46.7026 194.7308 L 47.9355 194.7612 L 49.2869 194.7917 L 51.6369 194.8466 L 54.0098 194.8995 L 56.3987 194.9544 L 57.5055 194.9807 L 58.8016 195.0093 L 60.1344 195.0397 L 61.2149 195.0641 L 62.9507 195.1555 L 64.4747 195.3384 L 65.1929 195.8935 L 66.1923 197.2718 L 65.535 198.1274 L 64.4747 199.2329 L 63.0319 200.6703 L 61.9616 201.7393 L 60.5169 203.1804 L 59.4486 204.2456 L 58.0038 205.6929 L 56.9359 206.7683 L 55.5399 208.2563 L 54.4205 209.5428 L 53.8795 210.3927 L 53.3095 211.3989 L 52.8557 212.336 L 53.3952 213.2301 L 53.9526 214.2995 L 55.5765 215.9376 L 56.9359 216.9887 L 57.8312 217.5986 L 59.4486 218.3853 L 60.2727 218.7651 L 61.1375 219.074 L 61.9616 219.4542 L 62.8959 219.7289 L 63.9253 220.0538 L 65.2295 220.3811 L 66.2696 220.7083 L 67.8138 220.999 L 68.6787 221.2165 L 70.3269 221.3872 L 72.0159 221.5034 L 73.7048 221.548 L 75.353 221.5114 L 77.0439 221.4523 L 78.7489 221.3853 L 80.4645 221.2958 L 82.0697 221.2249 L 83.0325 221.2043 L 84.5828 221.18 L 85.5943 221.1457 L 87.0958 221.1026 L 88.1661 221.0683 L 89.6108 221.0257 L 90.7401 220.991 L 92.1239 220.9483 L 93.3202 220.9118 L 94.637 220.871 L 95.8844 220.8325 L 97.15 220.7918 L 98.3281 220.7571 L 99.665 220.7144 L 100.768 220.682 L 102.1781 220.6352 L 103.2034 220.6047 L 104.6908 220.556 L 105.6353 220.5297 L 107.2039 220.4767 L 108.8788 220.4462 L 110.5471 220.436 L 112.2319 220.4443 L 113.29 220.5906 L 114.745 220.7716 L 115.6301 221.4584 L 116.8104 221.4584 L 118.3794 221.932 L 119.7712 222.0013 L 120.8334 222.036 L 122.2861 222.1152 L 124.2761 222.2105 L 125.2366 222.2371 L 127.1759 222.3346 L 128.3174 222.3792 L 129.3712 222.8348 L 130.8689 223.849 L 131.6789 224.8916 L 130.4334 225.4974 L 128.7548 226.3309 L 127.9592 226.7557 L 127.1126 227.201 L 125.5521 228.1542 L 124.7992 228.6117 L 123.9892 229.1054 L 122.6645 229.9123 L 121.6838 230.5142 L 120.8719 231.0121 L 119.7712 231.6849 L 118.5645 232.4228 L 117.7686 232.9329 L 116.3566 234.0327 L 115.1847 234.9333 L 114.745 236.2606 L 114.6799 237.3825 L 116.0004 238.7018 L 117.2581 239.7791 L 118.9878 240.7407 L 119.7712 241.1635 L 120.6052 241.6329 L 122.2088 242.4664 L 123.8509 243.4135 L 124.7992 243.9198 L 126.732 244.9765 L 128.0465 245.7106 L 129.825 246.684 L 131.2758 247.489 L 132.3381 248.0848 L 133.5714 248.7697 L 134.853 249.473 L 135.8014 249.9995 L 136.8026 250.5606 L 138.4344 251.4425 L 139.2544 251.886 L 140.1398 252.2498 L 142.2639 252.3816 L 142.9089 250.5138 L 143.4545 248.5705 L 143.786 247.489 L 144.2112 246.5907 L 144.9073 245.4055 L 145.3507 243.0436 L 145.5706 241.5353 L 145.8209 239.9559 L 146.1139 238.1795 L 146.1809 236.5574 L 146.0998 234.9333 L 145.8026 233.1832 L 145.5809 231.6239 L 145.3203 229.9123 L 144.9236 227.4265 L 143.9407 225.6928 L 143.5581 223.7271 L 143.4911 222.3792 L 144.9073 221.9952 L 146.4332 221.2756 L 147.4203 220.3548 L 149.3288 220.2653 L 150.5091 220.2451 L 151.8826 220.239 L 153.0077 220.2367 L 154.4037 220.2329 L 155.5147 220.2306 L 156.9229 220.2268 L 158.0015 220.1739 L 159.5883 220.0988 L 161.1676 219.8691 L 162.2744 219.6432 L 164.3866 219.2428 L 166.0329 219.0112 L 167.5284 218.7674 L 168.6192 218.4664 L 170.0414 218.0763 L 171.069 217.8222 L 171.956 217.629 L 172.8311 217.4054 L 174.4062 216.8991 L 175.8936 216.517 L 177.5826 216.0355 L 179.1736 215.5719 L 180.0953 215.3402 L 181.0028 215.0778 L 182.2464 214.7162 L 183.3204 214.4134 L 185.1214 213.9273 L 187.0036 213.4336 L 188.7718 213.0004 L 190.1495 212.6754 L 191.6819 212.336 L 192.6626 212.1185 L 193.9484 211.8297 L 195.1756 211.5554 L 196.8642 211.171 L 198.3581 210.8297 L 199.351 210.5916 L 201.2556 210.1447 L 202.6086 209.8255 L 204.1958 209.4228 L 205.2295 209.1649 L 206.9184 208.728 L 208.4729 208.3272 L 209.4723 208.0632 L 211.2912 207.5916 L 212.3595 207.315 L 213.259 207.0792 L 214.3761 206.7824 L 215.2837 206.5428 L 216.9726 206.0974 L 218.4966 205.7195 L 219.4956 205.4593 L 221.3271 205.0224 L 222.2815 204.8048 L 223.3841 204.5892 L 224.3366 204.3557 L 225.3375 204.1359 L 227.0265 203.7458 L 228.6747 203.4102 L 229.5395 203.1865 L 231.1878 202.8555 L 232.0526 202.6174 L 233.4951 202.3797 L 234.7204 202.1621 L 236.0489 201.9408 L 237.1051 201.7922 L 238.7289 201.5667 L 240.4179 201.3229 L 242.1065 201.0871 L 243.7547 200.8452 L 245.4459 200.6295 L 247.1345 200.4692 L 248.7827 200.2615 L 250.4717 200.087 L 252.0326 199.9141 L 252.9482 199.7819 L 254.1872 199.6112 L 255.4978 199.4284 L 257.1887 199.1274 L 258.8369 198.7941 L 260.5259 198.5236 L 262.4324 198.1842 L 264.0928 197.9057 L 265.552 197.6722 L 266.5103 197.5339 L 268.0305 197.2718 L 270.0204 196.8733 L 271.4507 196.6679 L 273.0928 196.487 L 274.7818 196.1495 L 276.43 196.1049 L 277.2968 195.8771 L 278.9431 195.8386 L 279.8098 195.6394 L 281.458 195.6576 L 283.147 195.7754 L 284.836 195.9971 L 286.3314 196.1434 L 287.4527 196.3262 L 289.0887 196.5297 L 290.6881 196.8245 L 291.742 196.8794 L 293.2012 196.9586 L 294.4383 197.0013 L 295.7139 197.0459 L 296.7864 197.0824 L 298.227 197.1312 L 300.2192 197.1982 L 301.1428 197.2287 L 302.4553 197.2718 L 303.3812 197.3 L 305.4507 197.3449 L 307.6708 197.2718 L 308.5761 197.231 L 309.974 197.1579 L 311.9114 197.0683 L 313.3093 197.0074 L 314.3387 196.9483 L 315.8223 196.8733 L 317.5395 196.7613 L 319.1591 196.5967 L 320.8481 196.4668 L 322.539 196.2897 L 324.1872 196.0276 L 325.8762 195.8081 L 327.5651 195.5235 L 329.1543 195.1514 L 330.1289 194.8752 L 331.4883 194.4321 L 332.3836 194.133 L 333.4154 193.7753 L 335.2792 193.0435 L 336.6752 192.5193 L 337.8491 192.0801 L 339.2675 191.5273 L 340.132 191.2039 L 340.9561 190.8869 L 342.5678 190.2751 L 343.4692 189.9296 L 344.861 189.3543 L 345.9842 188.8869 L 346.8327 188.3459 L 347.5981 187.8808 L 348.4973 187.2747 L 349.537 186.1386 L 350.1516 185.4171 L 350.76 184.7177 L 351.3441 183.8986 L 351.9282 183.0692 L 352.5366 182.2075 Z" stroke="currentColor" id="voyager-deck-11" />
  <path d="M 120.2501 152.6371 L 120.2642 189.6153 C 125.7433 189.5753 133.7478 189.5074 143.344 189.4008 L 143.344 152.6371 L 120.2501 152.6371 Z M 156.8539 189.2358 C 176.2072 188.9791 199.343 188.5802 220.9171 187.9714 C 218.2437 177.873 216.5097 167.7239 215.7858 157.5199 C 214.5792 140.5131 216.1771 123.3544 220.903 106.0261 C 199.3331 105.4173 176.203 105.0188 156.8539 104.7621 L 156.8539 141.2533 L 179.8705 141.2533 L 179.8705 152.6371 L 156.8539 152.6371 L 156.8539 189.2358 Z M 227.5934 151.0383 C 228.0167 163.2129 230.1408 175.391 233.8681 187.5722 C 256.506 186.8103 275.9781 185.7809 285.3096 184.3957 C 285.9397 184.302 287.0321 184.1744 287.1083 183.9215 C 288.2577 180.1222 289.7261 173.6893 291.6429 168.7787 C 282.8468 166.9406 275.9617 159.907 274.3509 151.0383 L 227.5934 151.0383 Z M 227.5606 143.0617 L 274.3509 143.0617 C 275.964 134.1805 282.8662 127.1396 291.6799 125.3136 C 289.7448 120.3909 288.265 113.9001 287.1083 110.0764 C 287.0321 109.8235 285.9397 109.6959 285.3096 109.6022 C 275.9743 108.2162 256.49 107.1869 233.8399 106.4246 C 229.9468 118.6328 227.8864 130.8455 227.5606 143.0617 Z M 120.2459 141.2533 L 143.344 141.2533 L 143.344 104.5975 C 134.2133 104.4958 126.524 104.4295 121.0795 104.3887 L 120.2322 104.3823 L 120.2459 141.2533 Z M 112.2792 197.6436 L 112.2792 96.3547 C 112.2792 96.3547 261.5173 98.6363 285.3096 102.2679 C 286.9905 102.5243 292.0971 102.759 292.5051 103.8493 C 294.8578 110.1355 296.2412 124.8794 297.702 124.6584 L 297.702 124.8995 C 309.2821 125.6634 318.4387 135.2883 318.4387 147.05 C 318.4387 158.8117 309.2821 168.4366 297.702 169.2005 L 297.702 169.3395 C 296.2412 169.1185 294.8578 183.8624 292.5051 190.1486 C 292.0971 191.2389 286.9905 191.4736 285.3096 191.73 C 261.5169 195.362 112.2792 197.6436 112.2792 197.6436 Z" stroke="currentColor" id="hallway"/>
  <path d="M 120.2322 104.3823 h 23.0909 v 18.4533 h -22.86 v -18.286 Z" id="room-145" stroke="currentColor" name="Crew Quarters"/>
<path d="M 120.2322 141.2533 L 120.2322 122.8001 L 143.3231 122.8001 L 143.3231 141.2533 L 120.2322 141.2533 Z" id="room-146" stroke="currentColor" name="Crew Quarters"/>
<path d="M 136.2067 171.159 L 120.2322 171.159 L 120.2322 152.6531 L 143.3231 152.6531 L 143.3231 171.159 L 136.2067 171.159 Z" id="room-147" stroke="currentColor" name="Crew Quarters"/>
<path d="M 131.7776 189.5768 L 120.2322 189.5768 L 120.2322 171.159 L 143.3231 171.159 L 143.3231 189.5768 L 131.7776 189.5768 Z" id="room-148" stroke="currentColor" name="Crew Quarters"/>
<path d="M 156.7796 104.3823 h 23.0909 v 18.4533 h -22.86 v -18.286 Z" id="room-149" stroke="currentColor" name="Crew Quarters"/>
<path d="M 156.7796 141.2533 L 156.7796 122.8001 L 179.8705 122.8001 L 179.8705 141.2533 L 156.7796 141.2533 Z" id="room-150" stroke="currentColor" name="Crew Quarters"/>
<path d="M 172.7542 171.159 L 156.7796 171.159 L 156.7796 152.6531 L 179.8705 152.6531 L 179.8705 171.159 L 172.7542 171.159 Z" id="room-151" stroke="currentColor" name="Crew Quarters"/>
<path d="M 168.325 189.5768 L 156.7796 189.5768 L 156.7796 171.159 L 179.8705 171.159 L 179.8705 189.5768 L 168.325 189.5768 Z" id="room-152" stroke="currentColor" name="Crew Quarters"/>
<path d="M 286.2491 196.1354 L 284.836 195.9971 L 283.147 195.7754 L 281.458 195.6576 L 279.8098 195.6394 L 278.9431 195.8386 L 277.2968 195.8771 L 276.43 196.1049 L 275.788 196.1224 L 274.3852 195.9906 L 272.9838 195.8104 L 271.3257 195.6066 L 269.4104 195.442 L 267.1122 195.2241 L 265.9662 194.9853 L 264.6887 194.7243 L 263.1658 194.6401 L 262.2652 194.5654 L 260.7423 194.642 L 259.8416 194.6812 L 258.3188 194.7422 L 258.2315 194.7452 L 258.2315 193.7369 C 262.602 193.525 266.6322 193.3052 270.23 193.0786 L 271.3452 193.1841 L 273.1709 193.341 L 274.7517 193.5357 L 276.0875 193.7075 L 277.6629 193.8549 L 279.2589 193.9917 L 280.7086 194.0458 L 281.5693 194.0683 L 283.0209 194.0439 L 283.8797 194.042 L 285.3317 193.9692 L 286.1904 193.9353 L 287.642 193.8271 L 288.8506 193.6946 L 289.9524 193.5765 L 292.1862 193.2515 L 293.7655 192.8907 L 294.5755 192.6443 L 295.7017 192.3711 L 296.8859 192.0667 L 297.87 191.8816 L 299.1966 191.6534 L 300.7942 191.418 L 302.495 191.1658 L 303.8193 191.0648 L 304.667 191.0218 L 305.666 190.9528 L 307.9372 190.6576 L 309.0093 190.5566 L 310.0963 190.504 L 311.458 190.493 L 312.2943 190.4576 L 314.1128 190.4538 L 315.3739 190.4408 L 316.2327 190.4332 L 317.6843 190.3977 L 318.545 190.3657 L 319.9947 190.3059 L 320.8553 190.2648 L 322.3054 190.1958 L 323.1661 190.1025 L 324.6177 189.9528 L 325.4765 189.8313 L 326.9281 189.6259 L 327.7869 189.4968 L 329.2389 189.28 L 330.6512 189.0484 L 331.5492 188.912 L 332.3951 188.7699 L 333.4501 188.6034 L 334.4208 188.4522 L 335.3154 188.312 L 336.1723 188.1886 L 337.0307 188.0503 L 338.4827 187.8091 L 339.3434 187.6411 L 340.7931 187.3402 L 341.6873 187 L 343.1038 186.4598 L 344.0186 185.7817 L 345.4161 184.6807 L 346.1137 183.9855 L 346.7405 183.2715 L 347.7265 182.0978 L 348.8398 180.758 L 349.388 180.0029 L 349.9119 179.3694 L 350.5162 178.5789 L 351.6817 177.0612 L 352.3477 176.1659 L 353.0022 175.327 L 353.8629 174.215 L 354.6599 173.1422 L 355.1613 172.4432 L 355.7153 171.5593 L 356.2015 170.7986 L 356.7928 169.7201 L 357.165 168.7764 L 357.5167 167.8271 L 357.687 166.9673 L 357.9678 165.517 L 358.1118 164.6594 L 358.3568 163.2091 L 358.5027 162.3512 L 358.7496 160.9009 L 358.9816 159.5553 L 359.15 158.5927 L 359.4324 156.9443 L 359.7021 155.4231 L 359.9619 153.9747 L 360.1265 153.1168 L 360.3997 151.6668 L 360.5475 150.807 L 360.7963 149.3586 L 360.9198 148.5155 L 361.047 147.6599 L 361.047 146.4412 L 360.9198 145.5852 L 360.7963 144.7406 L 360.6485 143.8827 L 360.3997 142.4324 L 360.2351 141.5745 L 359.9619 140.1246 L 359.7337 138.8556 L 359.5467 137.8163 L 359.2811 136.2593 L 358.9816 134.5458 L 358.7496 133.1983 L 358.6037 132.3404 L 358.3568 130.8901 L 358.2128 130.0303 L 357.9678 128.5819 L 357.7956 127.7224 L 357.5167 126.274 L 357.165 125.3228 L 356.7928 124.3788 L 356.2015 123.3026 L 355.7134 122.5399 L 355.1613 121.6561 L 354.6599 120.957 L 353.8629 119.8842 L 353.0022 118.7722 L 352.3477 117.933 L 351.6817 117.0396 L 350.965 116.1558 L 350.0373 114.9184 L 349.388 114.0963 L 348.8398 113.3413 L 348.0633 112.4216 L 347.0998 111.289 L 346.1137 110.1138 L 345.4161 109.4185 L 344.52 108.7252 L 343.3526 107.8056 L 342.3647 107.3572 L 340.7931 106.7591 L 339.9343 106.5926 L 338.4827 106.2916 L 337.622 106.1533 L 336.1723 105.9126 L 335.3135 105.7872 L 334.4228 105.647 L 333.4462 105.4973 L 332.3951 105.3293 L 331.5492 105.1891 L 330.6493 105.0508 L 329.2389 104.8211 L 328.3782 104.692 L 326.9281 104.4733 L 326.0678 104.3518 L 324.6177 104.1464 L 323.757 104.0546 L 322.3054 103.9034 L 321.4467 103.8623 L 319.9947 103.7929 L 319.1363 103.7613 L 317.6843 103.7015 L 316.8236 103.6939 L 315.3739 103.6584 L 314.328 103.6546 L 313.0631 103.6398 L 311.4599 103.6082 L 310.0963 103.5967 L 309.0112 103.5426 L 307.9372 103.4417 L 306.3339 103.2923 L 305.1235 103.055 L 303.8193 103.0344 L 302.8146 102.9091 L 301.507 102.8436 L 299.9765 102.6344 L 298.424 102.3072 L 296.8859 102.0325 L 295.7596 101.7468 L 294.5755 101.455 L 293.7655 101.2104 L 292.3904 100.8793 L 290.6375 100.6066 L 289.0658 100.4382 L 287.642 100.2721 L 286.7814 100.2401 L 285.3317 100.13 L 284.471 100.1281 L 283.0209 100.0553 L 282.1606 100.0778 L 280.7086 100.0534 L 279.8498 100.1094 L 278.3982 100.1635 L 276.8735 100.3018 L 275.0062 100.53 L 273.7771 100.6927 L 271.7864 100.8793 L 270.947 100.9651 C 267.1705 100.722 262.8946 100.4873 258.2315 100.2611 L 258.2315 99.357 L 258.939 99.3856 L 259.8416 99.4168 L 261.3626 99.4934 L 262.2652 99.5346 L 263.7861 99.45 L 264.6887 99.3757 L 266.194 99.0816 L 267.8327 98.8267 L 269.8737 98.6187 L 271.9616 98.4229 L 273.2509 98.2523 L 275.2093 98.013 L 275.5487 97.9825 L 276.43 98.0073 L 277.2968 98.2328 L 278.9431 98.2717 L 279.8098 98.4709 L 281.458 98.4526 L 283.147 98.3368 L 284.836 98.1151 L 286.2838 97.9738 L 286.5051 97.9818 L 287.9987 98.1563 L 289.6469 98.3326 L 291.486 98.6187 L 292.9284 98.9658 L 293.7781 99.2226 L 295.0201 99.5285 L 296.2016 99.8287 L 297.8147 100.1167 L 299.4435 100.4595 L 301.0487 100.6793 L 302.4207 100.7479 L 303.4745 100.8793 L 304.8423 100.9007 L 306.1118 101.1498 L 307.7935 101.3064 L 308.9201 101.4123 L 310.0582 101.4695 L 311.4888 101.4813 L 313.171 101.5144 L 314.4972 101.53 L 315.5945 101.5338 L 317.1154 101.5712 L 318.018 101.5792 L 319.5409 101.6416 L 320.4416 101.6752 L 321.9644 101.7476 L 322.8651 101.791 L 324.388 101.9495 L 325.2909 102.0455 L 326.8115 102.2615 L 327.7145 102.3887 L 329.2354 102.618 L 330.138 102.7533 L 331.6178 102.9944 L 332.5616 103.1396 L 333.4485 103.2866 L 334.5515 103.463 L 335.576 103.62 L 336.5099 103.767 L 337.4109 103.8981 L 338.9315 104.151 L 339.8345 104.2962 L 341.3573 104.6116 L 342.258 104.7865 L 343.9066 105.4135 L 344.9425 105.884 L 346.1671 106.8486 L 347.107 107.5758 L 347.8393 108.305 L 348.8733 109.5382 L 349.8841 110.7264 L 350.6983 111.6906 L 351.2736 112.4826 L 351.9545 113.3455 L 352.9279 114.643 L 353.6793 115.5703 L 354.378 116.5074 L 355.0649 117.3874 L 355.9675 118.5539 L 356.8035 119.6793 L 357.3296 120.4126 L 357.9084 121.3399 L 358.4208 122.1395 L 359.0407 123.2687 L 359.4312 124.2588 L 359.8004 125.2565 L 360.0926 126.7758 L 360.2732 127.6775 L 360.5304 129.1968 L 360.6813 130.0985 L 360.9404 131.62 L 361.0935 132.5199 L 361.337 133.9332 L 361.6509 135.731 L 361.9294 137.3637 L 362.1256 138.4537 L 362.3653 139.7847 L 362.6518 141.3063 L 362.8244 142.2057 L 363.0854 143.7273 L 363.2404 144.6271 L 363.37 145.5132 L 363.5033 146.4108 L 363.5033 147.6892 L 363.37 148.5868 L 363.2404 149.471 L 362.9795 150.9903 L 362.8244 151.892 L 362.5379 153.4135 L 362.3653 154.3134 L 362.0925 155.8326 L 361.8098 157.4281 L 361.5134 159.1572 L 361.337 160.1668 L 361.0935 161.5782 L 360.8344 163.0998 L 360.6813 163.9992 L 360.4241 165.5208 L 360.2732 166.4206 L 359.9787 167.9418 L 359.8004 168.8435 L 359.4312 169.8393 L 359.0407 170.8294 L 358.4208 171.9605 L 357.9103 172.7582 L 357.3296 173.6855 L 356.8035 174.4188 L 355.9675 175.5442 L 355.0649 176.7107 L 354.378 177.5907 L 353.6793 178.5297 L 352.4566 180.1214 L 351.823 180.9507 L 351.2736 181.6155 L 350.6983 182.4075 L 349.5309 183.8129 L 348.4965 185.0441 L 347.8393 185.7931 L 347.107 186.5223 L 345.6413 187.6769 L 344.6816 188.3886 L 343.196 188.9551 L 342.258 189.3116 L 340.7371 189.6275 L 339.8345 189.8038 L 338.3116 190.0568 L 337.4109 190.2019 L 336.5122 190.3311 L 335.5741 190.4781 L 334.5553 190.637 L 333.4485 190.8115 L 332.5616 190.9604 L 331.6197 191.1037 L 330.138 191.3467 L 328.6152 191.5741 L 327.7145 191.7094 L 326.1916 191.925 L 325.2909 192.0523 L 323.7681 192.2092 L 322.8651 192.3071 L 321.3442 192.3799 L 320.4416 192.4229 L 318.9206 192.4858 L 318.018 192.5189 L 316.4952 192.5563 L 315.5945 192.5639 L 314.2717 192.578 L 312.3644 192.5818 L 311.4869 192.6191 L 310.0582 192.6305 L 308.9182 192.6858 L 307.7935 192.7913 L 305.4111 193.101 L 304.3634 193.1738 L 303.4745 193.2187 L 302.085 193.3247 L 300.3012 193.5894 L 298.6251 193.8363 L 297.2337 194.0755 L 296.2016 194.2694 L 294.9595 194.5891 L 293.7781 194.8752 L 292.9284 195.1342 L 291.2718 195.5125 L 288.9287 195.8535 L 287.7731 195.9769 L 286.5051 196.1163 L 286.2491 196.1354 Z" id="room-153" stroke="currentColor" name="Escape Pods"/>
<path d="M 270.947 100.9651 L 271.7864 100.8793 L 273.7771 100.6927 L 275.0062 100.53 L 276.8735 100.3018 L 278.3982 100.1635 L 279.8498 100.1094 L 280.7086 100.0534 L 282.1606 100.0778 L 283.0209 100.0553 L 284.471 100.1281 L 285.3317 100.13 L 286.7814 100.2401 L 287.642 100.2721 L 289.0658 100.4382 L 290.6375 100.6066 L 292.3904 100.8793 L 293.7655 101.2104 L 294.5755 101.455 L 295.7596 101.7468 L 296.8859 102.0325 L 298.424 102.3072 L 299.9765 102.6344 L 301.507 102.8436 L 302.8146 102.9091 L 303.8193 103.0344 L 305.1235 103.055 L 306.3339 103.2923 L 307.9372 103.4417 L 309.0112 103.5426 L 310.0963 103.5967 L 311.4599 103.6082 L 313.0631 103.6398 L 314.328 103.6546 L 315.3739 103.6584 L 316.8236 103.6939 L 317.6843 103.7015 L 319.1363 103.7613 L 319.9947 103.7929 L 321.4467 103.8623 L 322.3054 103.9034 L 323.757 104.0546 L 324.6177 104.1464 L 326.0678 104.3518 L 326.9281 104.4733 L 328.3782 104.692 L 329.2389 104.8211 L 330.6493 105.0508 L 331.5492 105.1891 L 332.3951 105.3293 L 333.4462 105.4973 L 334.4228 105.647 L 335.3135 105.7872 L 336.1723 105.9126 L 337.622 106.1533 L 338.4827 106.2916 L 339.9343 106.5926 L 340.7931 106.7591 L 342.3647 107.3572 L 343.3526 107.8056 L 344.52 108.7252 L 345.4161 109.4185 L 346.1137 110.1138 L 347.0998 111.289 L 348.0633 112.4216 L 348.8398 113.3413 L 349.388 114.0963 L 350.0373 114.9184 L 350.965 116.1558 L 351.6817 117.0396 L 352.3477 117.933 L 353.0022 118.7722 L 353.8629 119.8842 L 354.6599 120.957 L 355.1613 121.6561 L 355.7134 122.5399 L 356.2015 123.3026 L 356.7928 124.3788 L 357.165 125.3228 L 357.5167 126.274 L 357.7956 127.7224 L 357.9678 128.5819 L 358.2128 130.0303 L 358.3568 130.8901 L 358.6037 132.3404 L 358.7496 133.1983 L 358.9816 134.5458 L 359.2811 136.2593 L 359.5467 137.8163 L 359.7337 138.8556 L 359.9619 140.1246 L 360.2351 141.5745 L 360.3997 142.4324 L 360.6485 143.8827 L 360.7963 144.7406 L 360.9198 145.5852 L 361.047 146.4412 L 361.047 147.6599 L 360.9198 148.5155 L 360.7963 149.3586 L 360.5475 150.807 L 360.3997 151.6668 L 360.1265 153.1168 L 359.9619 153.9747 L 359.7021 155.4231 L 359.4324 156.9443 L 359.15 158.5927 L 358.9816 159.5553 L 358.7496 160.9009 L 358.5027 162.3512 L 358.3568 163.2091 L 358.1118 164.6594 L 357.9678 165.517 L 357.687 166.9673 L 357.5167 167.8271 L 357.165 168.7764 L 356.7928 169.7201 L 356.2015 170.7986 L 355.7153 171.5593 L 355.1613 172.4432 L 354.6599 173.1422 L 353.8629 174.215 L 353.0022 175.327 L 352.3477 176.1659 L 351.6817 177.0612 L 350.5162 178.5789 L 349.9119 179.3694 L 349.388 180.0029 L 348.8398 180.758 L 347.7265 182.0978 L 346.7405 183.2715 L 346.1137 183.9855 L 345.4161 184.6807 L 344.0186 185.7817 L 343.1038 186.4598 L 341.6873 187 L 340.7931 187.3402 L 339.3434 187.6411 L 338.4827 187.8091 L 337.0307 188.0503 L 336.1723 188.1886 L 335.3154 188.312 L 334.4208 188.4522 L 333.4501 188.6034 L 332.3951 188.7699 L 331.5492 188.912 L 330.6512 189.0484 L 329.2389 189.28 L 327.7869 189.4968 L 326.9281 189.6259 L 325.4765 189.8313 L 324.6177 189.9528 L 323.1661 190.1025 L 322.3054 190.1958 L 320.8553 190.2648 L 319.9947 190.3059 L 318.545 190.3657 L 317.6843 190.3977 L 316.2327 190.4332 L 315.3739 190.4408 L 314.1128 190.4538 L 312.2943 190.4576 L 311.458 190.493 L 310.0963 190.504 L 309.0093 190.5566 L 307.9372 190.6576 L 305.666 190.9528 L 304.667 191.0218 L 303.8193 191.0648 L 302.495 191.1658 L 300.7942 191.418 L 299.1966 191.6534 L 297.87 191.8816 L 296.8859 192.0667 L 295.7017 192.3711 L 294.5755 192.6443 L 293.7655 192.8907 L 292.1862 193.2515 L 289.9524 193.5765 L 288.8506 193.6946 L 287.642 193.8271 L 286.1904 193.9353 L 285.3317 193.9692 L 283.8797 194.042 L 283.0209 194.0439 L 281.5693 194.0683 L 280.7086 194.0458 L 279.2589 193.9917 L 277.6629 193.8549 L 276.0875 193.7075 L 274.7517 193.5357 L 273.1709 193.341 L 271.3452 193.1841 L 270.23 193.0786 C 276.9809 192.6534 282.2097 192.2031 285.3096 191.73 C 286.9905 191.4736 292.0971 191.2389 292.5051 190.1486 C 294.8578 183.8624 296.2412 169.1185 297.702 169.3395 L 297.702 169.2005 C 309.2821 168.4366 318.4387 158.8117 318.4387 147.05 C 318.4387 135.2883 309.2821 125.6634 297.702 124.8995 L 297.702 124.6584 C 296.2412 124.8794 294.8578 110.1355 292.5051 103.8493 C 292.0971 102.759 286.9905 102.5243 285.3096 102.2679 C 282.3202 101.8116 277.3512 101.3765 270.947 100.9651 Z" id="room-154" stroke="currentColor" name="Escape Pod Control Room"/>
<path d="M 112.2792 197.6436 L 190.881 195.9087 L 190.881 210.6762 L 124.7325 218.8428 L 112.2792 218.8428 L 112.2792 197.6436 Z" id="room-155" stroke="currentColor" name="Engineering Training Center"/>
<path d="M 227.5606 143.0617 L 274.3509 143.0617 C 275.964 134.1805 282.8662 127.1396 291.6799 125.3136 C 289.7448 120.3909 288.265 113.9001 287.1083 110.0764 C 287.0321 109.8235 285.9397 109.6959 285.3096 109.6022 C 275.9743 108.2162 256.49 107.1869 233.8399 106.4246 C 229.9468 118.6328 227.8864 130.8455 227.5606 143.0617 Z" id="room-156" stroke="currentColor" name="Laser Cannon Power Generator"/>
<path d="M 227.5606 150.8984 L 274.3509 150.8984 C 275.964 159.7797 282.8662 166.8202 291.6799 168.6465 C 289.7448 173.5689 288.265 180.0597 287.1083 183.8837 C 287.0321 184.1367 285.9397 184.2643 285.3096 184.3577 C 275.9743 185.7436 256.49 186.7733 233.8399 187.5352 C 229.9468 175.327 227.8864 163.1146 227.5606 150.8984 Z" id="room-157" stroke="currentColor" name="Robotics Lab"/>
<path d="M 179.8705 188.8846 L 179.8705 105.1133 C 193.2859 105.3465 207.4004 105.6451 220.903 106.0261 C 213.3417 133.7515 213.7879 161.0426 220.9171 187.9714 C 207.4099 188.3528 193.2904 188.6514 179.8705 188.8846 Z" id="room-158" stroke="currentColor" name="Laser Cannon Control"/>
<path d="M 112.2792 110.9622 L 112.2792 183.1378 C 105.356 179.0166 100.2384 164.4221 100.2384 147.05 C 100.2384 129.6779 105.356 115.0834 112.2792 110.9622 Z" id="room-159" stroke="currentColor" name="Engineering Observation Center"/>
<path d="M 61.6226 90.5367 L 59.3137 79.9346 L 112.2792 79.9346 L 112.2792 110.9622 C 105.356 115.0834 100.2384 129.6779 100.2384 147.05 C 100.2384 164.4221 105.356 179.0166 112.2792 183.1378 L 112.2792 214.1654 L 59.3137 214.1654 L 61.3901 203.689 L 61.5254 203.5538 L 62.5937 202.4886 L 64.0385 201.0474 L 65.1087 199.9781 L 66.5516 198.5411 L 67.6115 197.4352 L 68.2687 196.5796 L 67.2697 195.2013 L 66.5516 194.6466 L 65.0272 194.4637 L 63.2917 194.3719 L 62.2112 194.3475 L 61.3901 194.3289 L 59.3137 187.579 L 41.6886 187.579 L 41.6886 106.4189 L 59.3137 106.4189 L 61.6226 99.8965 L 62.4417 99.8778 L 64.2709 99.837 L 65.7724 99.6988 L 66.784 99.5829 L 67.7037 98.2332 L 68.4992 97.6458 L 67.6485 96.597 L 66.2346 95.1356 L 65.1601 94.0663 L 63.7131 92.6251 L 61.6226 90.5367 Z" id="room-194" stroke="currentColor" name="Lower Main Engineering"/>
</svg>