<svg viewBox="0 0 1000 772" version="1.1" xmlns="http://www.w3.org/2000/svg" xmlns:xlink="http://www.w3.org/1999/xlink" xml:space="preserve" style="fill-rule:evenodd;clip-rule:evenodd;stroke-miterlimit:1.41421;">
  <path d="M887.232,481.349L889.005,479.519L891.195,477.225L893.422,474.861L896.354,471.676L898.56,469.392L900.188,467.562L902.421,465.086L904.952,462.418L906.48,460.588L908.168,458.496L911.244,454.089L912.547,452.088L914.416,447.147L915.522,443.482L916.296,440.558L917.071,436.892L917.663,433.963L918.31,430.404L918.94,427.181L919.533,424.118L920.2,420.842L920.895,417.118L921.498,414.194L922.208,410.528L922.839,407.604L923.565,403.939L924.147,401.009L924.852,397.28L925.536,393.678L926.07,390.391L926.518,387.585L926.518,384.41L926.07,381.603L925.637,378.861L925.13,376.15L924.51,372.815L923.565,368.056L922.839,364.396L922.208,361.466L921.498,357.801L920.895,354.877L920.2,351.152L919.533,347.876L918.94,344.814L918.31,341.591L917.663,338.032L917.071,335.103L916.296,331.437L915.522,328.513L914.416,324.847L913.316,321.923L912.445,319.741L909.268,315.147L907.43,312.543L905.743,310.457L903.211,307.784L901.379,305.697L899.147,303.222L896.941,300.938L894.976,298.772L892.551,296.157L890.175,293.724L887.232,290.651L884.893,288.207L882.5,285.785L880.727,284.029L878.254,281.58L875.936,279.616L872.758,277.189L868.4,274.862L866.285,273.907L862.75,273.299L859.567,272.771L854.803,272.093L851.134,271.586L848.207,271.191L844.538,270.685L841.606,270.274L838.006,269.756L834.535,269.276L830.753,268.742L826.582,268.155L823.885,267.83L820.222,267.36L814.566,266.923L812.125,266.784L807.831,266.885L800.642,267.136L795.168,266.576L791.787,266.24L786.997,264.917L782.233,262.953L778.59,262.201L774.446,260.771L770.782,259.325L767.209,257.815L762.12,256.401L758.979,255.35L755.481,254.181L751.032,253.066L747.416,252.255L742.46,251.887L738.983,251.593L736.057,251.663L732.388,251.54L729.456,251.817L725.792,251.823L722.86,252.186L719.196,252.298L716.264,252.66L711.895,253.023L707.831,253.509L702.912,254.181L699.083,254.72L694.639,255.232L692.097,255.467L688.043,255.76L683.109,256.017L679.61,256.331L676.684,256.315L673.015,256.502L670.083,256.582L666.419,256.966L663.487,257.959L659.679,259.069L655.769,260.771L652.18,261.897L648.458,262.91L645.777,262.894L641.862,262.889L639.069,262.825L635.266,262.734L632.115,262.409L628.67,262.057L625.028,260.771L622.075,259.794L619.682,258.973L617.252,258.135L612.899,256.609L608.878,255.184L606.079,254.181L603.724,253.407L600.503,252.335L597.593,251.353L593.032,249.774L589.085,248.36L584.438,246.727L580.7,245.468L577.239,244.321L573.127,242.912L569.297,241.557L565.137,240.074L562.702,239.193L557.457,237.507L553.232,236.082L549.505,234.775L545.766,233.431L542.909,232.374L537.675,230.709L533.344,229.274L529.712,228.025L526.267,226.814L523.116,225.667L517.877,223.976L513.46,222.503L509.924,221.281L506.693,220.225L503.329,219.072L498.014,217.349L493.763,215.908L490.132,214.649L487.071,213.694L483.536,212.547L478.772,210.887L475.194,209.665L472.673,208.764L470.451,208.011L467.909,207.125L463.743,205.599L458.979,203.652L456.373,202.617L453.895,201.454L451.609,200.44L448.714,199.229L445.787,197.777L442.076,196.342L438.513,194.864L435.731,193.797L432.639,192.511L428.927,191.22L425.995,190.11L422.625,189L419.014,187.783L415.66,186.722L412.595,185.649L409.134,184.625L406.202,183.824L402.554,182.795L398.81,181.685L394.933,180.516L391.178,179.353L386.377,177.731L382.703,176.509L378.766,175.09L376.299,174.524L373.922,174.236L371.386,173.9L265.831,173.9L262.91,173.895L216.723,173.895L213.059,173.889L193.266,173.889L190.324,173.884L173.474,173.884L170.52,173.879L160.282,173.879L157.323,173.884L153.686,173.895L151.219,174.311L147.854,174.85L143.865,176.28L140.489,177.635L135.64,179.657L132.307,181.018L129.274,182.272L125.46,183.84L122.534,185.153L118.971,186.658L116.643,187.645L114.101,188.659L111.959,189.63L107.505,191.673L102.96,193.994L100.476,195.152L96.663,197.361L94.3131,198.636L90.7989,200.717L88.1766,202.211L85.8801,203.887L82.948,206.245L81.1162,207.67L79.4498,209.879L77.3082,212.803L75.8982,216.468L75.4817,219.398L76.3842,223.058L77.7996,225.987L79.359,228.548L81.1162,230.917L83.3486,233.308L85.1804,235.165L86.9375,236.888L88.9296,238.718L91.5092,241.002L93.6936,242.928L95.7658,244.758L97.5123,246.306L99.3495,247.922L102.767,250.942L105.085,252.997L106.965,254.656L109.299,256.71L111.873,258.978L113.903,260.771L116.616,263.161L118.555,264.874L120.696,266.768L119.751,269.062L123.858,271.928L127.298,273.849L125.829,279.078L121.284,279.963L116.953,280.545L114.101,284.323L111.676,287.135L113.823,293.447L115.66,295.282L117.497,296.926L119.644,300.319L115.174,301.445L111.222,303.195L107.505,305.329L105.646,306.909L103.072,309.07L100.909,310.782L97.3626,313.498L98.4148,315.99L99.5897,318.775L100.909,323.412L101.539,326.048L102.431,331.752L102.922,335.279L103.547,339.862L103.975,342.925L104.466,346.452L104.845,349.109L105.406,353.041L106.154,358.286L106.495,360.645L107.264,365.986L108.156,372.164L108.99,377.927L109.486,381.39L109.817,383.684L110.154,386L109.817,388.31L109.486,390.605L108.99,394.068L108.375,398.31L107.505,404.344L106.495,411.35L106.154,413.708L105.668,417.118L105.059,421.397L104.466,425.543L104.033,428.664L103.547,432.133L103.232,434.454L102.645,438.722L101.86,444.367L100.909,448.588L100.268,451.266L98.4148,456.01L97.3626,458.496L99.6379,459.766L103.072,462.925L105.636,465.086L107.505,466.665L110.592,468.592L114.101,470.048L119.65,471.676L117.748,474.626L115.612,476.761L113.828,478.543L112.295,483.051L112.835,486.125L115.783,489.774L120.435,491.717L125.829,492.917L127.298,495.873L124.141,499.816L120.696,502.415L121.375,504.634L118.597,507.083L116.616,508.834L114.101,511.053L111.873,513.017L109.305,515.284L107.505,516.869L105.091,519.003L102.767,521.052L100.909,522.696L98.9702,524.403L95.7658,527.236L93.6936,529.067L91.5146,530.993L88.9296,533.276L86.9375,535.107L85.1804,536.83L83.3486,538.687L81.1162,541.083L79.359,543.446L77.7996,546.007L76.3842,548.937L75.4817,552.597L75.8982,555.526L77.3082,559.192L79.4498,562.116L80.9025,564.106L82.948,565.75L85.8801,568.108L87.7119,569.533L90.7936,571.277L92.9352,572.622L96.663,574.634L98.8901,575.989L100.978,577.104L105.475,579.329L109.945,581.421L112.813,582.76L115.073,583.72L118.971,585.337L122.534,586.842L125.46,588.16L128.788,589.531L132.302,590.977L135.64,592.337L138.769,593.666L142.497,595.139L146.839,596.905L151.219,597.684L153.686,598.105L156.645,598.111L160.282,598.121L163.241,598.116L183.023,598.116L186.671,598.111L202.805,598.111L206.458,598.105L229.183,598.105L232.847,598.1L371.386,598.1L373.928,597.759L376.288,597.476L378.772,596.905L381.618,595.896L384.577,594.856L389.843,593.079L394.014,591.767L397.774,590.619L401.619,589.467L404.37,588.667L409.134,587.37L412.595,586.351L415.666,585.273L419.014,584.211L422.074,583.181L425.995,581.89L428.927,580.775L432.639,579.489L435.731,578.198L437.936,577.387L442.076,575.653L445.787,574.217L448.714,572.766L451.609,571.56L453.9,570.541L456.373,569.383L458.979,568.343L461.911,567.089L465.997,565.611L469.906,564.17L472.673,563.231L475.194,562.329L478.772,561.113L481.704,560.056L485.603,558.786L490.105,557.357L493.101,556.321L496.727,555.062L501.507,553.499L505.342,552.229L509.78,550.767L512.985,549.652L516.52,548.451L521.321,546.888L525.055,545.618L529.167,544.177L532.687,542.945L536.313,541.718L541.12,540.17L544.751,538.938L548.554,537.588L552.378,536.206L556.1,534.925L560.912,533.362L564.427,532.177L567.813,530.993L572.064,529.451L575.893,528.117L580.7,526.527L584.091,525.39L586.997,524.403L591.739,522.674L595.686,521.282L600.407,519.692L603.729,518.587L606.084,517.814L608.878,516.81L611.457,515.893L615.473,514.479L619.682,513.022L622.075,512.206L625.033,511.224L628.67,509.943L631.821,509.618L635.266,509.26L638.065,509.196L641.862,509.106L644.548,509.09L648.458,509.09L651.657,509.975L655.059,510.845L658.183,512.243L661.655,513.694L666.419,515.034L670.083,515.412L673.015,515.498L676.684,515.685L679.61,515.669L683.103,515.978L686.484,516.079L690.591,516.448L694.639,516.768L697.555,517.088L701.235,517.531L706.469,518.32L709.647,518.667L714.432,519.244L719.196,519.697L722.86,519.809L725.792,520.177L729.456,520.177L732.388,520.455L736.057,520.332L738.983,520.407L742.46,520.113L745.852,519.927L750.391,519.062L754.012,518.176L758.701,516.72L762.12,515.599L765.415,514.697L770.478,512.787L773.805,511.459L777.827,510.135L780.401,509.474L785.165,507.516L789.688,506.496L793.593,505.483L799.692,504.88L805.818,505.115L812.125,505.211L814.571,505.077L819.864,504.677L823.891,504.165L826.582,503.839L829.007,503.498L833.178,502.916L838.006,502.244L841.606,501.721L844.538,501.31L848.207,500.803L851.134,500.408L854.803,499.902L857.73,499.491L861.586,498.893L865.532,498.242L868.406,497.132L870.905,495.761L874.403,493.557L877.154,491.45L879.354,489.385L882.5,486.21L884.893,483.793L887.232,481.349Z" stroke="currentColor" stroke-width="3" id="voyager-deck-9" />
  <path d="M315.57,294.937L315.57,435.728L315.654,435.728L315.654,435.771L315.668,435.771L315.668,460.935L315.654,460.935L315.654,497.732C362.093,497.39 387.201,496.301 489.396,493.417C470.684,422.73 469.513,351.092 489.36,278.314C388.71,275.474 365.557,274.375 317.794,274.016L315.57,273.999L315.57,294.937ZM655.328,396.469L506.92,396.469C508.03,428.427 513.605,460.394 523.388,492.369C558.47,491.188 622.185,489.763 673.531,488.044C704.961,487.186 730.199,486.318 745.256,484.473C746.64,484.327 747.84,484.18 748.844,484.031C750.498,483.785 753.365,483.45 753.565,482.786C756.582,472.813 760.436,455.927 765.467,443.037C742.38,438.212 724.309,419.749 720.081,396.469L719.778,396.469C718.745,388.017 718.745,381.037 719.778,375.531L720.081,375.531C724.315,352.218 742.431,333.736 765.564,328.943C760.485,316.021 756.601,298.983 753.565,288.946C753.365,288.282 750.498,287.947 748.844,287.701C747.862,287.556 746.693,287.411 745.348,287.269C721.604,284.322 672.381,283.588 613.456,281.737L613.553,281.898C578.943,280.947 545.44,280.105 523.314,279.36C513.096,311.406 507.689,343.464 506.834,375.531L655.262,375.531C655.959,379.291 656.344,382.811 656.344,386C656.344,389.238 655.983,392.753 655.328,396.469ZM623.375,511.774C529.612,515.455 411.936,517.376 345.853,518.232L324.895,518.49C321.57,518.529 318.484,518.564 315.654,518.595L315.654,518.806L294.696,518.806L294.696,497.732L125.809,497.732L127.298,495.873L125.829,492.917L123.521,492.403L123.521,476.794L294.696,476.794L294.696,460.935L294.612,435.771L294.612,294.937L123.521,294.937L123.521,279.527L125.829,279.078L127.255,273.999L294.612,273.999L294.612,260.734L294.696,260.734L294.696,252.927C294.696,252.927 305.919,253.021 324.895,253.242L345.853,253.5C411.723,254.353 528.849,256.265 622.461,259.922L625.028,260.771L628.67,262.057L632.115,262.409L635.266,262.734L639.069,262.825L641.862,262.889L645.777,262.894L648.458,262.91L652.18,261.897L654.161,261.275C695.828,263.224 730.116,265.59 748.844,268.449C753.256,269.122 766.659,269.738 767.73,272.6C773.905,289.101 777.536,327.803 781.37,327.223L781.37,327.856C811.764,329.861 835.797,355.126 835.797,386C835.797,416.874 811.764,442.139 781.37,444.144L781.37,444.509C777.536,443.929 773.905,482.631 767.73,499.132C766.659,501.994 753.256,502.61 748.844,503.283C730.038,506.154 695.54,508.528 653.637,510.482L651.657,509.975L648.458,509.09L644.548,509.09L641.862,509.106L638.065,509.196L635.266,509.26L631.821,509.618L628.67,509.943L625.033,511.224L623.375,511.774Z" stroke="currentColor" stroke-width="2" id="hallway"/>
  <path d="M315.654,497.732L315.654,460.935L315.668,460.935L315.668,435.771L315.654,435.771L315.654,435.728L315.57,435.728L315.57,273.999L317.794,274.016C365.557,274.375 388.916,275.474 489.565,278.314C469.719,351.092 470.889,422.73 489.602,493.417C389.004,496.256 362.903,497.356 317.816,497.716L315.654,497.732Z" id="room-193" stroke="currentColor" name="Lower Computer Core"/>
<path d="M897.785,462.06C886.16,439.308 879.605,413.541 879.605,386.244C879.605,358.811 886.226,332.923 897.959,310.089L899.205,311.509L901.616,314.055L903.224,316.042L904.973,318.522L908,322.897L908.829,324.975L909.877,327.76L910.929,331.251L911.667,334.036L912.404,337.527L912.969,340.317L913.584,343.706L914.185,346.775L914.749,349.692L915.385,352.812L916.046,356.359L916.621,359.144L917.298,362.635L917.898,365.425L918.589,368.911L919.49,373.443L920.08,376.619L920.563,379.201L920.975,381.813L921.402,384.486L921.402,387.509L920.975,390.182L920.466,393.312L919.815,396.742L919.144,400.294L918.589,403.084L917.898,406.575L917.298,409.36L916.621,412.851L916.046,415.636L915.385,419.183L914.749,422.303L914.185,425.22L913.584,428.289L912.969,431.678L912.404,434.468L911.667,437.959L910.929,440.744L909.877,444.235L908.096,448.94L906.855,450.846L903.926,455.043L902.318,457.035L900.864,458.778L898.453,461.319L897.785,462.06Z" id="room-117" stroke="currentColor" name="Forward Airlock"/>
<path d="M897.885,461.948L896.326,463.677L894.775,465.42L892.674,467.595L889.882,470.629L887.761,472.88L885.676,475.065L883.987,476.808L881.759,479.135L879.48,481.437L876.485,484.461L874.389,486.427L871.77,488.434L868.438,490.533L866.058,491.839L863.321,492.896L859.562,493.516L855.89,494.085L853.103,494.476L849.608,494.959L846.821,495.335L843.327,495.818L840.534,496.209L837.106,496.707L832.508,497.347L828.535,497.901L826.226,498.227L823.663,498.537L819.828,499.024L814.787,499.406L812.457,499.533L806.45,499.441L800.616,499.217L794.808,499.792L791.09,500.757L786.782,501.728L782.244,503.593L779.793,504.223L775.963,505.483L772.794,506.748L767.972,508.568C767.972,508.568 766.659,501.994 767.73,499.132C771.13,490.047 773.759,474.232 776.075,461.948L897.885,461.948ZM898.942,311.209L776.345,311.209C773.963,298.749 771.263,282.041 767.73,272.6C766.659,269.738 769.681,263.92 769.681,263.92L773.084,265.358L776.573,266.735L780.52,268.097L783.989,268.814L788.526,270.684L793.089,271.944L796.308,272.264L801.522,272.798L808.368,272.559L812.457,272.462L814.782,272.594L820.168,273.011L823.658,273.458L826.226,273.768L830.199,274.327L833.8,274.836L837.106,275.293L840.534,275.786L843.327,276.177L846.821,276.66L849.608,277.036L853.103,277.519L857.64,278.164L860.671,278.667L864.038,279.246L866.052,280.156L870.203,282.371L873.229,284.684L875.437,286.554L877.792,288.886L879.48,290.558L881.759,292.865L883.987,295.192L886.79,298.119L889.053,300.436L891.362,302.926L893.234,304.99L895.335,307.164L897.461,309.522L898.942,311.209Z" id="room-118" stroke="currentColor" name="Forward Shield Control"/>
<path d="M776.075,461.948L775.996,462.366L776.075,461.948L776.075,461.948ZM897.728,461.948L776.075,461.948C777.965,451.922 779.647,444.248 781.37,444.509L781.37,444.144C811.764,442.139 835.797,416.874 835.797,386C835.797,355.126 811.764,329.861 781.37,327.856L781.37,327.223C779.73,327.471 778.126,320.528 776.345,311.209L776.345,311.209L776.243,310.672L776.192,310.402L776.185,310.37C776.128,310.067 776.07,309.762 776.013,309.454L776.185,310.37L776.243,310.672L776.345,311.209L897.388,311.209C886.012,333.768 879.605,359.259 879.605,386.244C879.605,413.496 886.139,439.224 897.728,461.948Z" id="room-119" stroke="currentColor" name="Reception Room"/>
<path d="M613.456,489.713C613.456,489.713 656.344,421.317 656.344,386C656.344,352.338 613.456,281.737 613.456,281.737C675.164,283.675 726.232,284.389 748.541,287.701C750.195,287.947 753.062,288.282 753.262,288.946C756.298,298.983 760.182,316.021 765.261,328.943C742.127,333.736 724.012,352.218 719.778,375.531C718.745,381.037 718.745,388.017 719.778,396.469C724.006,419.749 742.077,438.212 765.164,443.037C760.133,455.927 756.279,472.813 753.262,482.786C753.062,483.45 750.195,483.785 748.541,484.031C726.233,487.343 675.165,487.776 613.456,489.713Z" id="room-120" stroke="currentColor" name="Power Distribution Center"/>
<path d="M655.387,376.225C655.347,375.995 655.305,375.763 655.262,375.531L507.039,375.531C507.894,343.464 513.302,311.406 523.52,279.36C545.615,280.104 579.027,280.944 613.55,281.894C615.57,285.24 649.249,341.424 655.387,376.225Z" id="room-121" stroke="currentColor" name="Botany Bay"/>
<path d="M613.456,489.713C631.537,489.145 556.627,491.257 523.594,492.369C513.811,460.394 508.236,428.427 507.125,396.469L655.328,396.469L655.326,396.484C648.831,433.298 613.456,489.713 613.456,489.713ZM655.328,396.469L655.383,396.154L655.367,396.247L655.328,396.469Z" id="room-122" stroke="currentColor" name="Greenhouse"/>
<path d="M579.727,513.317L393.245,580.355L136.817,580.355L136.817,497.732L294.696,497.732L294.696,518.806L315.654,518.806L315.654,518.595C318.484,518.564 321.57,518.529 324.895,518.49L345.853,518.232C402.003,517.505 495.4,516.008 579.727,513.317Z" id="room-123" stroke="currentColor" name="Weapons Locker A"/>
<path d="M579.727,258.326L393.245,191.288L136.817,191.288L136.817,273.911L294.696,273.911L294.696,252.838L315.654,252.838L315.654,253.048C318.484,253.08 321.57,253.114 324.895,253.153L345.853,253.411C402.003,254.138 495.4,255.635 579.727,258.326Z" id="room-124" stroke="currentColor" name="Weapons Locker B"/>
<path d="M206.243,476.794L206.243,294.937L294.612,294.937L294.612,435.771L294.696,460.935L294.696,476.794L206.243,476.794Z" id="room-125" stroke="currentColor" name="Life Support Control"/>
<path d="M136.817,294.937h69.4266v181.857h-69v-181Z" id="room-126" stroke="currentColor" name="Engineering Lounge"/>
</svg>