<svg viewBox="0 0 1000 772" version="1.1" xmlns="http://www.w3.org/2000/svg" xmlns:xlink="http://www.w3.org/1999/xlink" xml:space="preserve" style="fill-rule:evenodd;clip-rule:evenodd;stroke-miterlimit:1.41421;">
  <path d="M925.496,480.085L928.518,475.373L930.457,472.753L931.659,470.384L932.625,467.482L934.035,465.091L935.072,462.648L937.053,459.868L938.142,457.408L938.751,453.598L940.46,448.721L941.731,445.317L943.077,439.149L943.654,433.973L944.284,426.173L944.69,419.989L945.101,413.81L945.31,410.704L945.598,407.716L945.919,403.506L946.303,399.179L946.538,396.298L946.853,392.59L947.099,389.447L947.35,386L947.115,382.868L946.853,379.41L946.624,376.444L946.303,372.815L946.116,370.356L945.737,366.226L945.31,361.29L945.101,358.19L944.818,354.21L944.364,347.167L943.841,340.054L943.254,333.747L942.111,328.155L940.631,323.668L939.563,320.093L938.142,314.587L937.053,312.132L935.072,309.352L934.035,306.909L932.738,304.78L931.659,301.61L930.457,299.252L928.518,296.627L926.804,293.729L923.861,289.333L922.318,287.14L920.096,285.214L917.265,282.722L915.017,281.345L912.106,279.825L908.71,278.347L906.445,277.285L904.069,276.212L901.334,274.782L898.754,273.555L895.443,272.216L890.877,270.359L886.743,268.657L884.281,267.632L880.858,266.331L877.68,265.125L872.547,263.321L867.949,261.923L864.488,260.968L860.825,260.029L857.892,259.293L853.417,258.087L849.166,257.089L846.821,256.518L842.613,255.75L839.718,255.099L836.636,254.507L834.057,254.053L831.504,253.706L827.028,252.949L822.782,252.436L820.432,252.063L816.181,251.7L813.837,251.524L809.585,251.46L807.241,251.524L802.99,251.641L800.645,251.679L796.394,251.78L794.044,251.817L789.793,251.929L787.448,251.988L783.197,252.122L780.852,252.196L776.601,252.335L774.256,252.404L770.005,252.543L767.655,252.618L763.671,252.751L760.675,252.847L756.52,252.997L752.338,253.151L749.342,253.29L745.742,253.471L743.013,253.605L739.146,253.845L734.895,254.181L732.545,254.491L727.349,255.094L723.546,255.611L719.354,256.118L714.883,256.321L710.632,256.118L708.282,256.737L704.036,256.55L701.686,256.79L697.862,256.481L695.181,256.406L689.841,255.728L686.369,255.248L682.919,254.181L679.773,253.343L675.677,252.591L673.172,252.106L668.275,251.033L663.783,249.993L659.981,249.07L657.588,248.344L654.885,247.592L651.943,247.005L649.55,246.556L646.784,246.007L642.313,245.105L638.062,244.214L635.718,243.44L631.546,242.624L628.673,242.101L624.091,241.333L621.372,240.911L618.622,240.532L613.799,239.753L609.329,238.969L605.078,238.259L602.733,237.816L598.482,237.054L596.137,236.536L591.886,235.757L589.536,235.266L586.423,234.711L583.725,234.194L580.815,233.633L576.345,232.806L572.093,232.027L569.749,231.921L565.497,231.238L563.148,231.056L559.062,230.293L556.253,229.882L551.243,228.9L547.83,228.191L542.831,227.065L539.098,226.217L534.639,225.224L529.634,224.189L525.271,223.298L521.442,222.53L519.054,221.932L516.112,221.228L510.125,220.107L506.114,219.334L501.649,218.613L497.195,217.797L491.923,216.468L488.457,215.497L485.28,214.638L482.791,214.046L476.425,213.053L473.247,212.621L470.758,212.552L466.026,212.002L462.069,211.661L458.832,211.405L455.473,211.101L453.005,210.871L448.877,210.604L446.324,210.396L442.276,209.996L437.827,209.937L433.554,209.852L431.194,209.836L426.996,209.761L424.555,209.745L420.438,209.676L417.922,209.66L413.879,209.596L411.284,209.575L407.353,209.457L404.511,209.366L401.072,209.078L396.853,208.523L393.622,205.429L393.729,201.459L393.563,196.587L393.574,193.386L393.75,190.35L394.295,186.151L394.433,183.808L395.101,179.614L395.635,175.095L396.1,169.674L396.265,167.337L396.49,164.632L396.634,161.911L396.906,157.146L397.088,153.197L397.136,150.855L397.077,146.752L397.12,143.988L396.815,138.962L396.511,135.547L396.1,131.241L395.806,128.301L395.438,123.846L394.952,120.703L394.802,117.656L394.38,113.804L394.316,111.232L393.942,107.588L393.969,104.616L392.938,99.8402L391.058,96.0039L387.448,91.8633L384.943,89.4142L382.903,87.7708L380.265,87.5147L376.307,87.1145L373.53,87.5681L369.711,88.1977L363.244,89.3502L357.641,90.54L354.864,91.063L352.14,91.6339L347.237,92.5303L343.323,93.2186L340.471,93.8962L336.727,94.8086L330.168,96.0039L324.678,97.151L321.869,97.6632L319.14,98.2021L313.884,99.1519L310.338,99.7655L308.09,101.147L306.034,102.593L303.742,106.99L302.669,110.944L301.408,115.778L301.168,118.905L300.922,122.368L300.752,125.158L300.543,128.957L300.42,131.508L300.266,135.547L300.18,137.911L300.079,142.142L299.972,147.125L299.929,150.78L299.929,153.832L300.031,157.541L300.121,161.911L300.212,164.322L300.335,168.5L300.463,171.115L300.629,175.095L300.784,177.976L300.97,181.685L301.179,184.934L301.414,188.274L301.948,191.028L302.685,194.864L300.57,197.222L301.788,199.73L298.733,202.654L293.969,203.871L290.545,203.887L287.266,203.721L283.95,203.556L280.895,203.412L277.354,203.236L274.587,203.113L270.758,202.937L268.296,202.836L264.157,202.654L259.398,202.414L255.927,202.227L252.087,201.987L244.417,201.459L238.724,200.728L232.534,200.344L229.72,200.2L226.254,200.013L222.793,199.826L219.93,199.677L215.668,199.431L213.217,199.303L209.168,199.074L204.784,198.834L202.418,198.695L198.188,198.466L195.694,198.37L191.592,198.199L189.183,198.268L184.996,198.257L180.254,198.46L175.586,199.325L171.799,200.28L169.727,201.459L165.203,205.338L162.229,208.049L161.727,211.223L161.112,214.638L162.757,216.991L165.203,220.177L168.851,224.034L171.799,227.038L175.554,230.528L178.395,233.393L182.299,236.995L184.996,239.753L189.135,243.403L191.592,245.879L193.632,247.592L195.085,250.697L195.747,254.181L191.592,254.613L187.186,255.04L182.871,255.803L180.521,255.867L176.27,256.123L173.925,256.182L169.674,256.305L167.329,256.369L163.078,256.47L160.733,256.529L156.482,256.63L154.132,256.689L149.886,256.79L147.536,256.849L143.285,256.945L140.941,257.004L136.689,257.11L134.345,257.169L130.093,257.281L127.749,257.345L123.498,257.457L121.148,257.527L116.896,257.719L114.552,257.911L110.301,258.098L107.956,258.162L103.705,258.263L101.36,258.316L97.109,258.418L94.7591,258.482L90.5132,258.604L88.1633,258.679L83.9121,258.829L81.5674,258.914L77.3323,259.079L74.2773,259.202L70.2023,259.624L66.2502,260.168L63.6333,262.115L61.8494,263.641L59.649,265.413L58.0255,267.366L56.9039,269.489L55.8624,271.832L54.7409,273.955L54.6501,278.421L54.7356,282.669L55.0613,285.016L56.9519,289.989L58.4153,292.182L59.649,294.135L61.9402,296.008L63.8735,297.459L66.2502,299.289L69.038,299.631L72.8461,300.111L77.4818,300.319L85.103,300.65L91.1434,300.911L94.2891,301.05L97.2852,301.183L101.526,301.397L105.83,301.626L110.301,302.299L113.227,303.814L114.632,305.815L113.227,309.411L111.716,311.535L110.477,313.498L108.773,317.97L108.074,322.217L108.063,324.559L108.057,328.806L108.057,443.194L108.063,447.441L108.074,449.783L108.773,454.03L109.783,456.373L111.182,459.697L112.426,461.66L114.627,464.163L113.222,468.191L110.301,469.707L107.956,469.957L102.893,470.539L99.2346,470.731L94.2838,470.95L91.1488,471.089L87.0845,471.265L79.7089,471.585L73.8394,471.846L71.1369,472.102L66.2502,472.711L63.8789,474.541L61.9456,475.992L59.649,477.865L58.4207,479.813L56.9519,482.011L55.2376,484.86L54.7356,489.331L54.6501,493.573L54.6501,495.921L55.8624,500.168L56.9039,502.511L58.0255,504.634L59.649,506.587L61.8494,508.359L63.6279,509.885L65.7856,511.528L68.8832,512.19L72.8461,512.745L77.3269,512.921L81.5674,513.086L83.9121,513.171L88.1633,513.321L90.5132,513.396L94.7591,513.518L97.109,513.582L101.36,513.689L103.705,513.742L107.956,513.844L110.301,513.902L114.552,514.089L116.896,514.281L121.148,514.473L123.498,514.543L127.749,514.66L130.093,514.724L134.345,514.831L136.689,514.895L140.941,514.996L143.285,515.055L147.536,515.156L149.886,515.21L154.132,515.311L156.482,515.37L160.733,515.471L163.078,515.53L167.329,515.637L169.674,515.695L173.925,515.818L176.27,515.877L180.521,516.133L182.871,516.197L187.186,516.96L190.059,517.045L194.343,517.664L195.064,520.94L193.632,524.408L191.592,526.121L189.183,528.554L186.39,530.998L182.401,534.909L179.495,537.588L175.677,541.355L172.659,544.177L169.001,547.811L166.106,550.772L162.907,554.801L161.112,557.362L161.711,560.537L162.229,563.951L165.203,566.662L168.029,569.1L170.566,571.027L173.957,572.27L178.395,573.401L183.223,573.598L187.4,573.796L191.592,573.801L194.086,573.71L198.188,573.534L200.559,573.401L204.784,573.172L209.168,572.926L213.227,572.697L215.673,572.569L217.981,572.435L222.793,572.174L226.254,571.992L229.714,571.8L232.54,571.656L236.7,571.416L244.359,570.546L250.004,570.146L255.932,569.773L259.393,569.591L262.058,569.447L266.464,569.25L270.758,569.063L273.423,568.946L277.354,568.764L280.361,568.62L283.95,568.444L287.234,568.279L290.545,568.113L293.723,568.129L297.141,568.145L300.319,570.541L300.57,574.778L302.685,577.131L302.242,579.436L301.414,583.726L301.184,586.975L300.97,590.315L300.805,593.197L300.629,596.905L300.5,599.519L300.335,603.494L300.244,605.906L300.121,610.089L300.031,614.454L299.934,618.173L299.934,621.22L299.972,624.875L299.972,627.841L300.159,632.222L300.266,636.448L300.383,638.998L300.543,643.043L300.709,645.833L300.922,649.632L301.152,652.759L301.408,656.222L302.071,658.959L303.123,662.812L305.232,667.918L308.09,670.853L310.338,672.24L313.057,672.709L316.934,673.403L321.874,674.337L324.678,674.849L330.12,675.985L335.055,676.882L339.125,677.768L343.323,678.781L346.629,679.374L349.918,679.961L354.864,680.937L357.641,681.46L362.886,682.586L367.901,683.498L372.147,684.202L376.307,684.885L379.154,684.635L382.903,684.229L384.943,682.586L387.133,680.521L389.504,677.399L391.961,673.76L393.67,669.407L393.942,664.412L394.316,660.763L394.38,658.196L394.802,654.344L394.952,651.292L395.438,648.154L395.806,643.694L396.1,640.764L396.42,637.974L396.757,633.535L396.981,629.858L397.082,625.248L397.136,621.145L397.088,618.803L396.906,614.854L396.821,612.266L396.49,607.363L396.265,604.668L396.1,602.326L395.769,598.116L395.283,594.52L394.695,590.315L394.295,585.849L393.75,581.65L393.574,578.614L393.563,575.413L393.392,572.377L394.401,568.658L395.731,563.951L401.072,562.922L404.511,562.634L407.353,562.543L411.284,562.425L413.879,562.409L417.922,562.345L420.438,562.324L424.555,562.255L426.996,562.239L431.188,562.164L433.554,562.148L437.827,562.063L442.276,562.004L444.61,561.807L448.877,561.396L453.011,561.129L455.473,560.899L458.715,560.601L462.069,560.339L464.712,560.003L468.665,559.726L473.242,559.379L476.43,558.947L480.74,558.418L485.29,557.362L488.457,556.503L491.229,555.74L495.053,554.731L499.929,553.76L504.827,552.848L508.25,552.272L514.125,551.199L519.054,550.068L521.442,549.47L524.214,548.899L528.037,548.158L532.604,547.213L537.619,546.109L541.234,545.303L546.185,544.177L550.591,543.244L554.426,542.502L559.062,541.707L563.148,540.944L565.497,540.762L569.749,540.079L572.093,539.973L576.345,539.194L578.689,538.82L581.952,538.148L584.874,537.588L587.411,537.102L591.886,536.248L596.137,535.464L598.482,534.947L602.733,534.184L605.078,533.741L609.329,533.036L611.674,532.609L616.635,531.809L620.4,531.206L624.091,530.667L626.996,530.16L631.552,529.376L635.718,528.565L638.062,527.786L642.313,526.895L644.658,526.388L648.979,525.566L651.937,524.995L654.891,524.408L657.588,523.656L659.981,522.93L662.774,522.258L666.576,521.33L671.217,520.295L675.33,519.489L677.653,519.046L680.777,518.358L684.681,517.2L689.28,516.378L692.965,515.967L697.862,515.519L701.686,515.21L704.036,515.45L708.282,515.263L710.632,515.882L714.883,515.679L717.228,516.015L721.607,516.138L725.949,516.688L731.931,517.413L734.879,517.814L737.704,518.07L741.309,518.278L745.742,518.534L748.733,518.689L752.338,518.849L754.747,518.945L758.934,519.099L763.666,519.249L767.655,519.382L770.005,519.457L774.256,519.596L776.601,519.67L780.852,519.809L783.197,519.878L787.448,520.012L789.793,520.071L794.044,520.183L796.394,520.22L800.645,520.321L802.99,520.359L807.241,520.476L809.585,520.54L813.837,520.476L816.181,520.3L820.432,519.937L822.782,519.564L827.028,519.051L829.378,518.566L833.202,518.128L836.636,517.493L839.718,516.901L842.613,516.25L846.821,515.482L849.166,514.911L853.417,513.913L855.767,513.273L860.013,512.195L863.805,511.224L867.623,510.167L871.084,509.186L875.565,507.601L879.864,506.054L883.603,504.634L886.743,503.343L888.906,502.452L893.862,500.43L897.473,498.962L899.721,498.045L904.069,495.788L906.445,494.715L908.71,493.653L912.106,492.175L915.022,490.655L917.265,489.278L919.151,487.64L922.318,484.86L923.861,482.667L925.496,480.085Z" stroke="currentColor" stroke-width="3" id="voyager-deck-8" />
  <path d="M627.107,375.531C621.83,343.477 594.337,312.347 594.319,278.314C492.071,275.429 361.948,274.34 315.57,273.999L315.57,435.728L315.654,435.728L315.654,435.771L315.668,435.771L315.668,460.935L315.654,460.935L315.654,497.732C362.093,497.39 492.16,496.301 594.355,493.417C593.829,462.568 621.548,429.043 627.039,396.469L501,396.469L501,375.531L627.107,375.531ZM613.827,492.369C673.244,490.369 724.352,487.667 748.844,484.031C750.498,483.785 753.365,483.45 753.565,482.786C756.582,472.813 760.436,455.927 765.467,443.037C742.38,438.212 724.309,419.749 720.081,396.469L720.081,375.531C724.315,352.218 742.431,333.736 765.564,328.943C760.485,316.021 756.601,298.983 753.565,288.946C753.365,288.282 750.498,287.947 748.844,287.701C724.342,284.063 673.202,281.361 613.753,279.36C642.408,325.406 656.15,366.762 655.917,385.866C655.685,404.969 632.994,456.649 613.827,492.369ZM372.215,517.87L372.215,658.23L351.258,658.23L351.258,518.161C349.42,518.186 347.618,518.209 345.853,518.232L324.895,518.49C321.57,518.529 318.484,518.564 315.654,518.595L315.654,518.806L294.696,518.806L294.696,460.935L294.612,435.771L294.612,396.469L162.751,396.469L162.751,502.312L141.794,502.312L141.794,269.688L162.751,269.688L162.751,375.531L294.612,375.531L294.612,260.734L294.696,260.734L294.696,252.927C294.696,252.927 305.919,253.021 324.895,253.242L345.853,253.5C347.618,253.523 349.42,253.546 351.258,253.571L351.258,114.022L372.215,114.022L372.215,253.862C486.05,255.516 691.19,259.647 748.844,268.449C753.256,269.122 766.659,269.738 767.73,272.6C773.905,289.101 777.536,327.803 781.37,327.223L781.37,327.856C811.764,329.861 835.797,355.126 835.797,386C835.797,416.874 811.764,442.139 781.37,444.144L781.37,444.509C777.536,443.929 773.905,482.631 767.73,499.132C766.659,501.994 753.256,502.61 748.844,503.283C691.19,512.085 486.049,516.216 372.215,517.87Z" stroke="currentColor" stroke-width="2" id="hallway"/>
  <path d="M613.456,491.817C613.456,491.817 656.344,416.218 656.344,380.901C656.344,347.239 613.456,279.914 613.456,279.914C675.164,281.852 726.232,284.389 748.541,287.701C750.195,287.947 753.062,288.282 753.262,288.946C756.298,298.983 760.182,316.021 765.261,328.943C742.127,333.736 724.012,352.218 719.778,375.531C718.745,381.037 718.745,388.017 719.778,396.469C724.006,419.749 742.077,438.212 765.164,443.037C760.133,455.927 756.279,472.813 753.262,482.786C753.062,483.45 750.195,483.785 748.541,484.031C726.233,487.343 675.165,489.88 613.456,491.817Z" id="room-108" stroke="currentColor" name="Power Distribution Center"/>
<path d="M696.222,263.565L696.222,262.018L701.013,262.626L703.566,262.697L707.206,262.991L709.443,262.763L713.486,262.941L715.723,262.351L719.77,262.544L724.026,262.351L728.017,261.869L731.637,261.376L736.584,260.802L738.821,260.508L742.868,260.188L746.55,259.959L749.148,259.832L752.575,259.659L755.427,259.527L759.408,259.38L763.364,259.238L766.216,259.146L770.009,259.019L772.246,258.948L776.293,258.816L778.526,258.75L782.573,258.618L784.805,258.547L788.852,258.42L791.084,258.364L795.131,258.257L797.368,258.222L801.416,258.125L803.648,258.09L807.695,257.978L809.927,257.917L813.974,257.978L816.206,258.146L820.253,258.491L822.491,258.847L826.533,259.334L830.793,260.055L833.224,260.386L835.68,260.817L838.613,261.381L841.369,262.001L845.376,262.732L847.608,263.276L851.655,264.226L855.916,265.374L858.707,266.075L862.195,266.969L865.489,267.878L869.867,269.209L874.753,270.926L877.779,272.074L881.038,273.313L883.382,274.289L887.317,275.909L891.664,277.677L894.816,278.952L897.272,280.12L899.875,281.481L902.138,282.502L904.294,283.513L907.528,284.92L910.299,286.368L912.439,287.679L915.134,290.051L917.249,291.884L918.718,293.972L921.52,298.158L923.152,300.916L924.998,303.415L926.142,305.66L927.169,308.678L928.404,310.705L929.391,313.031L931.277,315.677L932.314,318.014L933.667,323.256L934.683,326.66L936.092,330.932L937.18,336.255L937.739,342.259L938.237,349.03L938.67,355.736L938.939,359.525L939.137,362.476L939.544,367.175L939.905,371.107L940.083,373.448L940.388,376.902L940.607,379.727L940.856,383.018L941.08,386L940.841,389.281L940.607,392.273L940.307,395.804L940.083,398.547L939.717,402.666L939.412,406.674L939.137,409.519L938.939,412.475L938.548,418.357L938.161,424.245L937.561,431.671L937.012,436.598L935.731,442.47L934.521,445.711L932.894,450.354L932.314,453.981L931.277,456.322L929.391,458.969L928.404,461.295L927.062,463.571L926.142,466.334L924.998,468.59L923.152,471.084L920.274,475.569L918.718,478.028L917.249,480.116L914.234,482.762L912.439,484.321L910.304,485.632L907.528,487.08L904.294,488.487L902.138,489.498L899.875,490.519L895.737,492.667L893.596,493.541L890.159,494.938L885.441,496.863L883.382,497.711L880.392,498.941L876.833,500.292L872.74,501.765L868.474,503.274L865.179,504.208L861.544,505.214L857.934,506.139L853.892,507.165L851.655,507.774L847.608,508.724L845.376,509.268L841.369,509.999L838.613,510.619L835.68,511.183L832.41,511.787L828.77,512.204L826.533,512.666L822.491,513.153L820.253,513.509L816.206,513.854L813.974,514.022L809.927,514.083L807.695,514.022L803.648,513.91L801.416,513.875L797.368,513.778L795.131,513.743L791.084,513.636L788.852,513.58L784.805,513.453L782.573,513.387L778.526,513.255L776.293,513.184L772.246,513.052L770.009,512.981L766.211,512.854L761.706,512.712L757.72,512.564L755.427,512.473L751.995,512.32L749.148,512.173L744.928,511.929L741.496,511.731L738.806,511.487L735.999,511.106L730.305,510.416L726.171,509.892L722.002,509.776L719.77,509.456L715.723,509.649L713.486,509.059L709.443,509.237L707.206,509.008L703.566,509.303L698.903,509.73L696.222,510.029L696.222,508.167C718.668,506.726 736.913,505.105 748.844,503.283C753.256,502.61 766.659,501.994 767.73,499.132C773.905,482.631 777.536,443.929 781.37,444.509L781.37,444.144C811.764,442.139 835.797,416.874 835.797,386C835.797,355.126 811.764,329.861 781.37,327.856L781.37,327.223C777.536,327.803 773.905,289.101 767.73,272.6C766.659,269.738 753.256,269.122 748.844,268.449C736.913,266.628 718.668,265.006 696.222,263.565Z" id="room-109" stroke="currentColor" name="Navigational Sensor Complex"/>
<path d="M490.335,495.686L490.335,396.469L627.039,396.469C621.548,429.043 593.829,462.568 594.355,493.417C561.338,494.349 525.411,495.093 490.335,495.686Z" id="room-110" stroke="currentColor" name="Chief Medical Officer's Office"/>
<path d="M490.335,375.531L490.335,276.046C525.398,276.638 561.311,277.383 594.319,278.314C594.337,312.347 621.83,343.477 627.107,375.531L490.335,375.531Z" id="room-111" stroke="currentColor" name="Medical Center"/>
<path d="M493.627,495.63L495.098,495.604L493.758,495.628L493.627,495.63ZM497.115,495.57L498.581,495.544L497.377,495.565L497.115,495.57ZM500.611,495.508L501,495.501L501,495.501L500.611,495.508ZM490.335,432.798L490.335,495.686C416.845,496.927 347.089,497.501 315.654,497.732L315.654,460.935L315.668,460.935L315.668,435.771L315.654,435.771L315.654,435.728L315.57,435.728L315.57,273.999C346.976,274.23 416.785,274.804 490.335,276.046L490.335,338.934L424.16,338.934L424.16,432.798L490.335,432.798ZM501,276.231L500.592,276.224L501,276.231L501,276.231ZM498.641,276.189L497.099,276.162L497.374,276.167L498.641,276.189ZM490.335,276.046L490.335,276.046C491.954,276.074 493.575,276.101 495.197,276.129C493.575,276.101 491.954,276.074 490.335,276.046Z" id="room-112" stroke="currentColor" name="Computer Core"/>
<path d="M162.751,269.688h131.817v105.951h-131v-105Z" id="room-113" stroke="currentColor" name="Electronics Storage"/>
<path d="M162.751,396.612h131.817v105.951h-131v-105Z" id="room-114" stroke="currentColor" name="Physics Lab"/>
<path d="M490.335,432.798L424.16,432.798L424.16,338.934L490.335,338.934L490.335,375.531L501,375.531L501,396.469L490.335,396.469L490.335,432.798Z" id="room-115" stroke="currentColor" name="Computer Maintenance Room"/>
<path d="M372.215,517.87C442.281,516.852 412.604,546.618 412.604,546.618L408.922,546.677L406.558,546.691L402.977,546.798L400.389,546.881L397.257,547.143L392.392,548.081L391.181,552.367L390.262,555.755L390.417,558.52L390.427,561.436L390.588,564.201L391.084,568.026L391.449,572.094L391.984,575.923L392.426,579.199L392.728,583.033L392.879,585.167L393.083,587.621L393.385,592.087L393.462,594.444L393.628,598.04L393.672,600.174L393.623,603.911L393.531,608.11L393.326,611.458L393.02,615.502L392.728,618.044L392.46,620.712L392.125,624.774L391.682,627.632L391.546,630.412L391.162,633.921L391.103,636.258L390.763,639.582L390.515,644.131L388.958,648.097L386.72,651.411L384.561,654.254L382.566,656.135L380.708,657.632L377.293,658.001L374.7,658.23L372.215,657.822L372.215,517.87ZM351.258,518.161L351.258,653.861L350.665,653.744L347.669,653.21L344.658,652.67L340.834,651.747L337.127,650.94L332.633,650.123L327.676,649.088L325.122,648.622L320.622,647.771L317.091,647.14L314.615,646.712L312.567,645.448L309.964,642.775L308.043,638.125L307.085,634.616L306.481,632.123L306.248,628.969L306.039,626.121L305.844,622.66L305.693,620.119L305.548,616.435L305.44,614.112L305.343,610.263L305.173,606.273L305.173,603.571L305.139,600.242L305.139,597.467L305.226,594.08L305.309,590.104L305.421,586.294L305.504,584.097L305.655,580.477L305.771,578.096L305.932,574.718L306.083,572.094L306.277,569.051L306.486,566.092L307.24,562.184L307.644,560.085L305.718,557.942L305.489,554.083L302.595,551.901L299.482,551.886L296.587,551.872L294.568,518.954C294.568,518.954 349.42,518.186 351.258,518.161ZM80.7287,491.817L141.794,476.331L141.794,507.304L80.7287,491.817ZM80.7287,279.914L141.794,264.428L141.794,295.401L80.7287,279.914ZM412.604,225.387C412.604,225.387 441.966,254.875 372.215,253.862L372.215,114.176L374.7,113.77L378.305,114.135L380.708,114.368L382.566,115.865L384.848,118.096L388.136,121.867L389.848,125.361L390.787,129.711L390.763,132.418L391.103,135.737L391.162,138.079L391.546,141.588L391.682,144.363L392.125,147.225L392.46,151.284L392.728,153.961L393.102,157.883L393.38,160.994L393.657,165.571L393.618,168.089L393.672,171.826L393.628,173.96L393.462,177.556L393.214,181.896L393.083,184.374L392.879,186.838L392.728,188.967L392.305,193.904L391.818,198.021L391.21,201.841L391.084,203.974L390.588,207.799L390.427,210.564L390.417,213.48L390.568,217.917L390.471,221.533L393.414,224.351L397.257,224.857L400.389,225.119L402.977,225.202L406.558,225.309L408.922,225.328L412.604,225.387ZM351.258,253.571C349.42,253.546 294.568,253.163 294.568,253.163L299.705,220.114L304.044,219.006L306.827,216.342L305.718,214.058L307.644,211.91L306.973,208.416L306.486,205.908L306.272,202.866L306.083,199.906L305.912,196.529L305.771,193.904L305.62,190.279L305.504,187.898L305.392,184.092L305.309,181.896L305.226,177.916L305.134,174.538L305.134,171.758L305.173,168.429L305.27,163.89L305.363,160.036L305.44,157.883L305.582,154.204L305.693,151.881L305.883,148.421L306.039,145.879L306.263,142.725L306.481,139.877L307.629,135.474L308.607,131.873L310.694,127.869L312.567,126.552L314.615,125.293L317.845,124.734L322.631,123.869L325.117,123.378L327.676,122.912L332.676,121.867L338.65,120.778L342.06,119.947L344.658,119.33L348.223,118.703L351.258,118.148L351.258,253.571Z" id="room-116" stroke="currentColor" name="RCS Thrusters"/>
</svg>