<svg
  viewBox="0 0 381 294.1"
  version="1.1"
  xmlns="http://www.w3.org/2000/svg"
  xmlns:xlink="http://www.w3.org/1999/xlink"
  xml:space="preserve"
  style="fill-rule: evenodd; clip-rule: evenodd; stroke-miterlimit: 1.41421"
>
  <path
    d="M 342.2188 177.2535 L 342.8783 176.6013 L 344.6507 174.7453 L 345.4135 173.8691 L 346.5511 172.3102 L 347.7292 169.8264 L 348.0119 168.8363 L 348.3152 167.562 L 348.895 164.952 L 349.5058 162.2685 L 350.043 159.7847 L 350.4152 158.0795 L 350.6309 157.0936 L 351.0644 155.0932 L 351.6687 152.3107 L 352.281 149.7373 L 352.7043 147.231 L 352.3522 144.7204 L 351.7499 142.1573 L 351.2249 139.7565 L 350.7406 137.5165 L 350.525 136.5104 L 350.1302 134.7157 L 349.5808 132.1648 L 349.007 129.6482 L 348.4881 127.2901 L 348.114 125.6885 L 347.8534 124.6173 L 346.7279 122.0824 L 345.6089 120.485 L 344.8439 119.5783 L 343.0574 117.6796 L 342.3978 117.0232 L 340.5462 115.1733 L 339.8791 114.515 L 338.0312 112.6712 L 337.3599 112.0045 L 335.5162 110.1709 L 334.8346 109.4962 L 333.0012 107.8315 L 331.9024 106.9815 L 330.5918 106.1564 L 328.0707 105.2497 L 325.5721 104.884 L 323.059 104.5891 L 321.8341 104.4813 L 320.9041 104.3655 L 318.0352 104.2089 L 315.5179 104.148 L 312.9622 103.892 L 310.5878 103.0584 L 308.9639 102.0767 L 307.9608 101.5441 L 305.4618 100.5422 L 303.2257 99.546 L 302.2816 99.2393 L 300.5031 98.6965 L 297.923 97.8244 L 295.4099 97.2694 L 293.2816 96.8854 L 292.1177 96.7246 L 290.8009 96.5376 L 289.8404 96.44 L 288.0497 96.3021 L 285.5187 96.253 L 283.1032 96.4644 L 281.6828 96.6416 L 280.4762 96.8 L 279.4692 96.9505 L 277.8778 97.2145 L 275.3018 97.6599 L 272.7888 97.9524 L 270.2757 98.0949 L 267.7626 98.1681 L 265.2476 98.1315 L 260.2215 97.9768 L 257.7088 98.2656 L 255.2506 99.0035 L 254.1598 99.5094 L 252.6662 100.2961 L 250.3913 101.6843 L 247.6892 102.7678 L 245.1842 102.898 L 242.6715 102.847 L 240.134 102.5605 L 238.4652 102.0199 L 237.4194 101.6519 L 235.3643 100.9304 L 232.5399 99.9384 L 231.2396 99.4789 L 230.273 99.1376 L 227.7294 98.2412 L 225.0171 97.2839 L 224.0406 96.9383 L 222.7036 96.4705 L 220.1193 95.5581 L 217.4885 94.629 L 216.6275 94.3223 L 215.1217 93.7935 L 212.446 92.8465 L 210.0003 91.9744 L 207.7681 91.1489 L 204.9212 90.0616 L 203.092 89.411 L 202.2314 89.1142 L 199.8871 88.1995 L 197.3843 87.297 L 196.2752 86.854 L 194.8956 86.3172 L 192.3562 85.3477 L 189.8595 84.4189 L 187.3301 83.4433 L 184.8174 82.4981 L 183.1589 81.8474 L 182.294 81.5099 L 179.7931 80.5384 L 177.2782 79.522 L 174.6695 78.3796 L 172.2501 77.1864 L 171.3669 76.7456 L 169.6315 75.8877 L 167.2239 74.717 L 166.3511 74.29 L 164.5992 73.4503 L 162.1963 72.2796 L 161.1645 71.7836 L 159.5632 71.0213 L 157.1701 69.8689 L 155.7863 69.2571 L 154.5755 68.7409 L 152.144 67.7691 L 149.6187 66.8098 L 147.1182 65.5066 L 145.5329 64.3073 L 144.5602 63.4517 L 142.4014 62.1385 L 141.4958 61.7381 L 140.4297 61.6814 L 139.4407 61.6345 L 136.9379 61.6242 L 134.4248 61.6242 L 131.9178 61.6162 L 129.9016 61.1404 L 130.2902 60.0692 L 130.2574 59.1709 L 131.0815 57.012 L 130.5687 54.4165 L 130.2349 51.8492 L 129.9705 49.3204 L 129.6714 46.7695 L 129.5129 45.5154 L 129.3621 44.1352 L 128.9205 42.7428 L 128.4789 41.5942 L 128.0091 40.6429 L 127.4373 39.6406 L 126.8269 38.6041 L 125.7544 39.0837 L 124.3138 39.7264 L 123.0683 40.3035 L 121.8007 40.8909 L 120.2847 41.5942 L 119.2858 42.0597 L 118.2254 42.5538 L 116.7727 43.2285 L 114.8886 44.1066 L 113.2625 44.8628 L 111.7465 45.568 L 109.4922 46.6171 L 108.6943 46.989 L 107.836 47.3893 L 106.7189 47.9097 L 105.9089 48.3021 L 104.3765 49.0035 L 102.7366 49.7879 L 101.6927 50.2881 L 100.7913 50.7269 L 99.6967 51.2351 L 98.8501 51.6378 L 97.4461 52.5281 L 96.6647 53.0424 L 96.0581 54.1479 L 97.4583 55.0302 L 99.1796 55.7133 L 100.2582 56.1868 L 101.2896 56.6603 L 102.8647 57.1849 L 104.2058 57.6364 L 105.9454 58.2154 L 107.8074 58.8394 L 108.7801 59.1709 L 108.6578 61.108 L 107.2926 61.108 L 104.3765 61.5103 L 101.7944 61.5797 L 99.2551 61.6059 L 96.7275 61.6204 L 94.2087 61.6242 L 64.0465 61.6242 L 61.5315 61.6265 L 59.993 61.868 L 58.9636 62.0147 L 56.8105 63.3725 L 55.9335 64.0555 L 54.0106 65.5393 L 52.4111 66.5778 L 51.467 67.1127 L 49.0903 68.3645 L 47.6479 69.1737 L 46.5083 69.8179 L 44.0501 71.3486 L 43.2934 71.8385 L 41.5778 72.9665 L 39.6914 74.1783 L 38.947 74.6599 L 36.503 76.2576 L 35.7542 76.7456 L 34.0246 77.89 L 32.4314 79.1948 L 31.4221 80.1887 L 30.25 81.687 L 29.1309 84.0977 L 29.5195 86.6079 L 31.1637 89.0776 L 33.5688 91.4579 L 36.1367 93.747 L 36.9568 94.4686 L 38.7107 96.0134 L 39.5775 96.7757 L 41.2055 98.1864 L 42.4876 99.29 L 43.7655 100.3753 L 45.3828 101.7658 L 46.3311 102.5586 L 48.3946 104.2436 L 51.2251 106.3232 L 52.0164 106.8151 L 53.7522 107.9717 L 55.903 109.185 L 56.953 109.7382 L 58.4606 110.4818 L 59.2828 110.8643 L 60.8682 111.6262 L 62.276 112.2628 L 63.1919 112.6449 L 64.5753 113.2117 L 65.9755 113.915 L 66.779 114.4091 L 65.4931 115.832 L 63.9893 116.8404 L 63.6373 118.8911 L 63.7676 119.869 L 64.4473 121.485 L 65.1777 123.1864 L 65.7252 124.4527 L 66.5043 126.2535 L 67.0926 127.5525 L 67.5098 128.4691 L 67.9654 129.4733 L 68.6676 131.6017 L 69.0174 133.4879 L 69.3268 134.4963 L 69.8274 136.1976 L 70.3993 138.1367 L 70.8081 139.5169 L 71.5305 141.952 L 72.1877 143.8831 L 72.8247 145.757 L 73.264 147.05 L 72.8632 148.231 L 72.4094 149.5605 L 71.5712 152.0322 L 70.9731 154.0242 L 70.5048 155.6056 L 70.0674 157.0936 L 69.4548 159.1649 L 69.0174 160.6121 L 68.8303 161.8255 L 68.1586 163.9924 L 67.5098 165.6309 L 67.0945 166.5456 L 66.7264 167.3585 L 66.0364 168.9277 L 65.3099 170.607 L 64.6386 172.1578 L 63.9893 173.6984 L 63.5843 174.668 L 63.7512 176.8147 L 65.0272 177.9694 L 66.5043 179.1115 L 66.1911 180.0627 L 64.5776 180.8883 L 63.1896 181.4551 L 62.2783 181.8372 L 61.442 182.1789 L 59.2828 183.2357 L 58.4587 183.6182 L 56.953 184.3618 L 55.9053 184.915 L 54.1409 185.907 L 52.3117 187.0979 L 51.5668 187.5737 L 49.0842 189.3257 L 46.6081 191.3421 L 45.5642 192.1959 L 43.9994 193.5437 L 42.6686 194.6637 L 41.4334 195.7247 L 39.7467 197.178 L 38.9203 197.9038 L 36.9588 199.6295 L 36.1388 200.353 L 34.1752 202.0829 L 31.5808 204.5424 L 29.719 207.051 L 29.0577 209.6384 L 30.0913 212.1509 L 31.2512 213.7303 L 32.2482 214.7425 L 33.754 216.0168 L 35.5955 217.2469 L 36.3423 217.7369 L 38.6578 219.2489 L 39.5086 219.8039 L 41.281 220.9381 L 43.2911 222.2615 L 44.0501 222.7514 L 46.1928 224.0829 L 47.4665 224.8166 L 48.84 225.5789 L 51.2415 226.8471 L 52.2282 227.3694 L 53.7991 228.3797 L 55.7361 229.8513 L 56.4505 230.4978 L 58.6031 231.7805 L 59.9911 232.232 L 61.1551 232.4167 L 63.9345 232.4735 L 66.4456 232.4758 L 96.6075 232.4758 L 99.1164 232.4796 L 101.6154 232.4941 L 104.1018 232.5226 L 106.5459 232.5916 L 108.6517 232.9981 L 108.4604 234.1566 L 107.8074 235.2606 L 106.7189 235.6305 L 104.9788 236.2076 L 103.5931 236.6671 L 101.9266 237.2301 L 100.2582 237.9132 L 99.1796 238.3867 L 98.0504 238.8401 L 96.6647 239.3848 L 96.3328 240.2812 L 97.4461 241.5719 L 98.8482 242.4603 L 99.6986 242.8668 L 100.6446 243.3037 L 101.6927 243.8119 L 102.7366 244.3121 L 104.106 244.9727 L 105.8052 245.7491 L 106.7189 246.1922 L 107.836 246.7107 L 108.6985 247.113 L 111.0245 248.1884 L 112.941 249.089 L 114.2596 249.7027 L 116.1745 250.5911 L 117.7435 251.3229 L 119.2858 252.0403 L 120.2828 252.5039 L 121.3184 252.9854 L 122.9056 253.7233 L 124.3138 254.3759 L 125.7525 255.014 L 126.8269 255.4959 L 127.4373 254.4571 L 128.0091 253.4552 L 128.4789 252.5039 L 128.9205 251.3553 L 129.34 250.1602 L 129.5129 248.5869 L 129.6391 247.6966 L 129.9442 245.1232 L 130.1984 242.6535 L 130.4895 240.1612 L 131.0937 237.7078 L 130.3146 235.2808 L 130.2902 234.0286 L 129.9035 232.9596 L 131.5395 232.6666 L 134.3029 232.4819 L 136.824 232.4758 L 139.337 232.4758 L 140.4457 232.4167 L 141.5 232.3619 L 142.4014 231.9615 L 143.9273 231.1036 L 145.2665 230.0346 L 146.7822 228.8452 L 149.1874 227.5484 L 151.7249 226.5199 L 154.35 225.457 L 155.5932 224.9282 L 156.8364 224.3918 L 159.3209 223.1964 L 160.9855 222.4036 L 161.8968 221.9685 L 164.3489 220.7716 L 166.172 219.8973 L 167.043 219.4725 L 169.3751 218.3384 L 171.2919 217.389 L 172.2501 216.9136 L 174.4008 215.8484 L 176.5741 214.8808 L 179.4289 213.7078 L 181.934 212.7303 L 182.7905 212.397 L 184.4429 211.7482 L 186.97 210.7969 L 189.3936 209.8621 L 191.9067 208.923 L 194.5173 207.931 L 195.9072 207.3904 L 197.0383 206.9352 L 199.5373 206.0346 L 201.9932 205.0833 L 203.094 204.689 L 204.5265 204.1869 L 207.0986 203.2029 L 209.2616 202.3979 L 212.0166 201.4101 L 214.5948 200.4996 L 216.3082 199.8897 L 217.1548 199.5949 L 219.688 198.6985 L 222.0441 197.8653 L 223.375 197.3937 L 224.6753 196.938 L 227.2006 196.0477 L 229.514 195.2329 L 230.4703 194.8934 L 232.1959 194.2854 L 234.709 193.4012 L 236.9614 192.6085 L 237.9974 192.2446 L 239.782 191.6187 L 242.2459 191.2835 L 244.7365 191.2039 L 247.2477 191.2507 L 249.6914 192.0454 L 252.0967 193.4603 L 254.1598 194.5906 L 255.0147 195.0032 L 257.3628 195.7411 L 259.8595 196.0744 L 262.3726 196.0439 L 264.8876 195.9788 L 267.4007 195.938 L 269.9134 196.0032 L 272.4264 196.1335 L 274.9395 196.4097 L 277.4545 196.8344 L 279.465 197.1495 L 280.4602 197.2981 L 281.6851 197.4584 L 282.6616 197.5887 L 284.7331 197.8002 L 287.346 197.8184 L 289.8404 197.66 L 290.799 197.5624 L 292.1196 197.3754 L 293.2854 197.2146 L 294.9908 196.8874 L 297.5606 196.3445 L 300.0756 195.5091 L 302.2835 194.8607 L 303.2257 194.554 L 304.8271 193.8222 L 307.6411 192.6839 L 308.6157 192.2446 L 309.961 191.389 L 312.5473 190.3646 L 315.1621 190.0595 L 317.6687 189.9497 L 320.1189 189.8442 L 321.8402 189.6164 L 322.8781 189.525 L 325.2098 189.2446 L 327.7229 188.9234 L 330.2398 188.1162 L 331.5828 187.3299 L 332.765 186.4556 L 334.6533 184.7748 L 335.333 184.11 L 337.1785 182.2723 L 337.8502 181.6098 L 339.7 179.7641 L 340.3652 179.1054 L 342.2188 177.2535 Z"
    stroke="currentColor"
    stroke-width="0.4355"
    id="voyager-deck-12"
  />
  <path
    d="M 149.1379 105.1472 C 146.3558 105.0737 139.0806 104.9457 139.0806 104.9457 L 108.8586 125.1636 L 108.8757 168.7509 L 139.0433 189.061 C 139.0433 189.061 145.846 188.9379 149.1379 188.8511 L 149.1379 105.1472 Z M 157.1229 151.0383 L 157.1229 188.6366 C 167.086 188.365 179.059 188.0248 194.0475 187.6011 C 194.0475 187.6011 200.6331 165.2758 201.8428 151.0383 L 157.1229 151.0383 Z M 211.0424 151.0383 C 209.3153 165.3791 202.0321 187.3634 202.0321 187.3634 C 208.9259 187.147 218.1884 182.4639 228.0536 182.2068 C 236.4235 181.9885 245.2276 181.7549 253.3871 181.5047 C 268.4374 181.0437 281.295 184.9744 285.1941 184.3957 C 285.8243 184.302 286.9166 184.1744 286.9928 183.9215 C 288.1423 180.1222 289.6107 173.6893 291.5275 168.7787 C 282.7313 166.9406 275.8463 159.9074 274.2354 151.0383 L 211.0424 151.0383 Z M 297.3751 162.0853 C 305.1204 161.4388 311.2046 154.9541 311.2046 147.05 C 311.2046 138.7169 304.4422 131.9618 296.1006 131.9618 C 287.7586 131.9618 280.9963 138.7169 280.9963 147.05 C 280.9963 155.3831 287.7586 162.1382 296.1006 162.1382 C 296.141 162.1382 296.1814 162.1382 296.2218 162.1379 C 296.5952 162.0255 296.9796 162.0038 297.3751 162.0853 Z M 157.1229 143.0617 L 201.845 143.0617 C 200.6426 129.0158 194.0475 106.3968 194.0475 106.3968 C 179.0631 105.9731 167.0887 105.6333 157.1229 105.3613 L 157.1229 143.0617 Z M 211.3136 143.0617 L 274.2354 143.0617 C 275.8486 134.1805 282.7508 127.1396 291.5644 125.3136 C 289.6293 120.3909 288.1495 113.9001 286.9928 110.0764 C 286.9166 109.8235 285.8243 109.6959 285.1941 109.6022 C 281.3453 109.0311 268.7688 112.9915 253.9712 112.5352 C 246.0026 112.2894 237.3897 112.0593 229.149 111.8441 C 218.8841 111.5759 209.1968 106.8593 202.05 106.6349 C 202.0401 106.6227 202.034 106.6223 202.0321 106.6345 L 202.05 106.6349 C 202.4813 107.1518 210.3642 128.8124 211.3136 143.0617 Z M 100.8979 124.6214 L 141.1529 96.6408 L 149.1379 96.7387 C 163.3865 96.9197 178.6078 97.1734 193.6177 97.517 C 205.668 97.7928 217.5822 102.5982 228.7471 102.9994 C 237.7143 103.3213 246.198 103.6866 253.8813 104.1 C 267.3477 104.8242 278.3552 101.2241 285.1941 102.2679 C 286.8751 102.5243 291.9816 102.759 292.3897 103.8493 C 294.7424 110.1355 296.1258 124.8794 297.5865 124.6584 L 297.5865 124.8995 C 309.1666 125.6634 318.3232 135.2883 318.3232 147.05 C 318.3232 158.8117 309.1666 168.4366 297.5865 169.2005 L 297.5865 169.3395 C 296.1258 169.1185 294.7424 183.8624 292.3897 190.1486 C 291.9816 191.2389 286.8751 191.4736 285.1941 191.73 C 278.5685 192.7414 267.7199 189.1436 254.3964 189.8541 C 246.4026 190.2804 237.5173 190.6568 228.1188 190.9879 C 217.154 191.3745 205.4901 196.1468 193.7271 196.4184 C 178.6033 196.7678 163.3157 197.0287 149.1379 197.2177 L 141.1529 197.6173 L 100.8979 168.8949 L 100.8979 124.6214 Z"
    stroke="currentColor"
    stroke-width="0.2903"
    id="hallway"
  />
  <path
    d="M 349.1423 154.5903 C 334.6251 153.4817 323.5406 151.8127 318.1483 149.8478 C 318.2638 148.9312 318.3232 147.9974 318.3232 147.05 C 318.3232 146.1555 318.2703 145.2732 318.167 144.4061 C 323.5703 142.4423 334.659 140.7752 349.1755 139.6674 L 349.3941 140.6804 L 349.8529 142.7768 L 350.379 145.0157 L 350.6865 147.2081 L 350.3165 149.3971 L 349.7816 151.6444 L 349.2539 154.0749 L 349.1423 154.5903 Z"
    id="room-160"
    stroke="currentColor"
    name="Torpedo/Probe Maintenance"
  />
  <path
    d="M 349.7862 151.6249 C 339.9088 150.831 333.0721 149.1163 333.0721 147.1292 C 333.0721 145.1399 339.9244 143.4233 349.8209 142.6305 L 349.8529 142.7768 L 350.379 145.0157 L 350.6865 147.2081 L 350.3165 149.3971 L 349.7862 151.6249 Z"
    id="room-161"
    stroke="currentColor"
    name="Bow Probe Launcher"
  />
  <path
    d="M 349.2151 154.2547 L 348.8752 155.8216 L 348.687 156.6829 L 348.3616 158.1721 L 347.8926 160.3416 L 347.3596 162.6849 L 346.8529 164.9646 L 346.5881 166.0777 L 346.3412 166.9421 L 345.3121 169.1117 L 344.3188 170.4732 L 343.6525 171.2386 L 342.1045 172.8592 L 341.5284 173.4291 L 339.9095 175.0466 L 339.3285 175.6215 L 337.7131 177.2337 L 337.1267 177.8124 L 335.5147 179.4174 L 334.9211 179.998 L 333.2717 181.4658 L 332.2392 182.2292 L 331.0665 182.9165 L 328.8682 183.6213 L 326.6732 183.9016 L 324.6368 184.1466 L 323.7304 184.2266 L 322.2269 184.4255 L 320.0872 184.5177 L 317.8976 184.6137 L 315.6139 184.8799 L 313.3554 185.7744 L 312.1804 186.5219 L 311.3292 186.9055 L 308.8714 187.8998 L 307.4727 188.5387 L 306.6498 188.8069 L 304.7219 189.373 L 302.525 190.1029 L 300.2806 190.5768 L 298.7912 190.8625 L 297.7728 191.0027 L 296.6195 191.1661 L 295.7825 191.2515 L 293.6039 191.3898 L 291.3217 191.3738 L 289.6107 191.1993 C 291.0063 190.9741 292.2011 190.653 292.3897 190.1486 C 294.7424 183.8624 296.1258 169.1185 297.5865 169.3395 L 297.5865 169.2005 C 308.234 168.4983 316.832 160.3047 318.1483 149.8478 C 323.5406 151.8127 334.6251 153.4817 349.1423 154.5903 L 349.2151 154.2547 Z M 318.1689 149.6779 L 318.1697 149.6718 L 318.1693 149.6756 L 318.1689 149.6779 Z M 318.1788 149.5944 L 318.1796 149.586 L 318.1792 149.5895 L 318.1788 149.5944 Z M 318.1982 149.4177 Z M 318.2066 149.3369 L 318.2078 149.3236 L 318.2074 149.3304 L 318.2066 149.3369 Z M 318.2154 149.2493 L 318.2162 149.2417 L 318.2158 149.2439 L 318.2154 149.2493 Z M 318.2318 149.0759 L 318.2329 149.0611 L 318.2322 149.0702 L 318.2318 149.0759 Z M 318.239 148.9933 L 318.2405 148.9773 L 318.2398 148.9834 L 318.239 148.9933 Z M 318.2539 148.8135 L 318.255 148.7997 L 318.2543 148.8096 L 318.2539 148.8135 Z M 318.2603 148.7327 L 318.2619 148.7125 L 318.2611 148.7224 L 318.2603 148.7327 Z M 318.2664 148.6458 L 318.2676 148.6314 L 318.2672 148.6352 L 318.2664 148.6458 Z M 318.2733 148.5491 Z M 318.2783 148.4691 L 318.2798 148.4477 L 318.279 148.4603 L 318.2783 148.4691 Z M 318.2836 148.3864 L 318.2847 148.3651 L 318.2844 148.3731 L 318.2836 148.3864 Z M 318.2889 148.2885 Z M 318.2935 148.2039 L 318.2946 148.1834 L 318.2939 148.1978 L 318.2935 148.2039 Z M 318.2977 148.1228 L 318.2988 148.0984 L 318.2981 148.1098 L 318.2977 148.1228 Z M 318.3015 148.0359 L 318.3023 148.0173 L 318.3023 148.0222 L 318.3015 148.0359 Z M 318.3057 147.9369 L 318.3061 147.9224 L 318.3057 147.9342 L 318.3057 147.9369 Z M 318.3087 147.8569 L 318.3095 147.8313 L 318.3091 147.8462 L 318.3087 147.8569 Z M 318.3114 147.7734 L 318.3122 147.7494 L 318.3122 147.7578 L 318.3114 147.7734 Z M 318.3145 147.6736 Z M 318.3167 147.5891 L 318.3171 147.5654 L 318.3167 147.5814 L 318.3167 147.5891 Z M 318.3183 147.5075 L 318.319 147.4812 L 318.3186 147.4931 L 318.3183 147.5075 Z M 318.3202 147.4195 L 318.3205 147.4001 L 318.3202 147.4047 L 318.3202 147.4195 Z M 318.3213 147.3201 L 318.3217 147.3018 L 318.3217 147.3163 L 318.3213 147.3201 Z M 318.3225 147.239 L 318.3225 147.2127 L 318.3225 147.2275 L 318.3225 147.239 Z M 318.3228 147.1551 L 318.3228 147.1304 L 318.3228 147.1388 L 318.3228 147.1551 Z M 318.3228 146.9727 L 318.3228 146.9483 L 318.3228 146.9662 L 318.3228 146.9727 Z M 318.3225 146.8949 L 318.3225 146.8668 L 318.3225 146.8824 L 318.3225 146.8949 Z M 318.3217 146.8157 L 318.3217 146.7883 L 318.3217 146.7986 L 318.3217 146.8157 Z M 318.3209 146.7315 L 318.3205 146.7109 L 318.3205 146.7151 L 318.3209 146.7315 Z M 318.3194 146.634 L 318.319 146.618 L 318.3194 146.6317 L 318.3194 146.634 Z M 318.3179 146.557 L 318.3171 146.5308 L 318.3175 146.5483 L 318.3179 146.557 Z M 318.316 146.4789 L 318.3152 146.4511 L 318.3156 146.4648 L 318.316 146.4789 Z M 318.3137 146.3989 L 318.3129 146.3738 L 318.3133 146.3814 L 318.3137 146.3989 Z M 318.311 146.3071 L 318.3106 146.2968 L 318.3106 146.298 L 318.311 146.3071 Z M 318.308 146.2199 L 318.3068 146.1986 L 318.3076 146.2149 L 318.308 146.2199 Z M 318.3049 146.1429 L 318.3038 146.1163 L 318.3045 146.1319 L 318.3049 146.1429 Z M 318.3015 146.0645 L 318.3004 146.0378 L 318.3007 146.0488 L 318.3015 146.0645 Z M 318.2977 145.9822 L 318.2969 145.9608 L 318.2969 145.9662 L 318.2977 145.9822 Z M 318.2931 145.8839 Z M 318.2889 145.8073 L 318.2874 145.7841 L 318.2885 145.8005 L 318.2889 145.8073 Z M 318.2844 145.73 L 318.2828 145.7041 L 318.2836 145.7178 L 318.2844 145.73 Z M 318.2798 145.6507 L 318.2783 145.6267 L 318.2786 145.6351 L 318.2798 145.6507 Z M 318.2741 145.5631 L 318.2733 145.5505 L 318.2733 145.5525 L 318.2741 145.5631 Z M 318.268 145.4728 L 318.2668 145.4584 L 318.2676 145.4702 L 318.268 145.4728 Z M 318.2623 145.3963 L 318.2607 145.373 L 318.2619 145.3879 L 318.2623 145.3963 Z M 318.2565 145.3185 L 318.2546 145.2945 L 318.2554 145.3056 L 318.2565 145.3185 Z M 318.2501 145.2374 L 318.2485 145.218 L 318.2489 145.2233 L 318.2501 145.2374 Z M 318.2352 145.0637 L 318.2337 145.0462 L 318.2348 145.0591 L 318.2352 145.0637 Z M 318.2283 144.9871 L 318.2264 144.9646 L 318.2276 144.9772 L 318.2283 144.9871 Z M 318.2211 144.9086 L 318.2188 144.8873 L 318.2196 144.8953 L 318.2211 144.9086 Z M 318.2127 144.8233 L 318.2116 144.8111 L 318.2116 144.8138 L 318.2127 144.8233 Z M 318.2036 144.7326 Z M 318.1956 144.6568 L 318.1933 144.6374 L 318.1948 144.6503 L 318.1956 144.6568 Z M 318.1872 144.5799 L 318.1845 144.5582 L 318.1857 144.5688 L 318.1872 144.5799 Z M 318.1781 144.5002 L 318.1758 144.4816 L 318.1765 144.4873 L 318.1781 144.5002 Z M 318.167 144.4061 C 316.9162 133.8753 308.2858 125.6051 297.5865 124.8995 L 297.5865 124.6584 C 296.1258 124.8794 294.7424 110.1355 292.3897 103.8493 C 292.2182 103.3906 291.2147 103.0836 289.9848 102.8622 L 292.0079 102.6851 L 294.2185 102.7278 L 295.7825 102.8485 L 296.6215 102.9339 L 297.7713 103.0973 L 298.7878 103.2375 L 300.6467 103.5727 L 302.8417 104.0577 L 305.0949 104.8192 L 306.6482 105.2931 L 307.4727 105.5613 L 309.4257 106.4311 L 311.6081 107.3065 L 312.4844 107.7716 L 313.9025 108.6288 L 315.9766 109.3568 L 318.2085 109.5804 L 320.4069 109.6338 L 322.9127 109.7705 L 323.725 109.8719 L 324.7949 109.9656 L 326.9894 110.2231 L 329.1718 110.5427 L 331.374 111.3344 L 332.5185 112.0551 L 333.4779 112.7973 L 335.0792 114.2514 L 335.6747 114.8407 L 337.2848 116.4419 L 337.8712 117.0244 L 339.4847 118.6347 L 340.0676 119.2099 L 341.685 120.8252 L 342.2607 121.3985 L 343.8213 123.0568 L 344.4892 123.8485 L 345.4668 125.2439 L 346.4494 127.4577 L 346.6769 128.3933 L 347.0041 129.7922 L 347.4571 131.8517 L 347.9585 134.0494 L 348.4382 136.2776 L 348.783 137.8449 L 348.9712 138.7238 L 349.1755 139.6674 C 334.659 140.7749 323.5707 142.4423 318.167 144.4061 Z"
    id="room-162"
    stroke="currentColor"
    name="Lower Sensor Array"
  />
  <path
    d="M 157.1229 143.0617 L 201.845 143.0617 C 200.6426 129.0158 194.0475 106.3968 194.0475 106.3968 C 179.0631 105.9731 167.0887 105.6333 157.1229 105.3613 L 157.1229 143.0617 Z"
    id="room-163"
    stroke="currentColor"
    name="Metallurgy Lab"
  />
  <path
    d="M 157.1229 151.0383 L 157.1229 188.6366 C 167.086 188.365 179.059 188.0248 194.0475 187.6011 C 194.0475 187.6011 200.6331 165.2758 201.8428 151.0383 L 157.1229 151.0383 Z"
    id="room-164"
    stroke="currentColor"
    name="Electronic Maintenance Center"
  />
  <path
    d="M 89.6916 62.3942 C 106.7166 62.3942 120.5183 76.1814 120.5183 93.1889 C 120.5183 110.1961 106.7166 123.9833 89.6916 123.9833 C 72.6662 123.9833 58.8645 110.1961 58.8645 93.1889 C 58.8645 76.1814 72.6662 62.3942 89.6916 62.3942 Z M 89.6916 170.1167 C 106.7166 170.1167 120.5183 183.9039 120.5183 200.9111 C 120.5183 217.9186 106.7166 231.7058 89.6916 231.7058 C 72.6662 231.7058 58.8645 217.9186 58.8645 200.9111 C 58.8645 183.9039 72.6662 170.1167 89.6916 170.1167 Z"
    id="room-165"
    stroke="currentColor"
    name="Water Tanks"
  />
  <path
    d="M 149.1379 105.1472 C 146.3558 105.0737 139.0806 104.9457 139.0806 104.9457 L 108.8586 125.1636 L 108.8757 168.7509 L 139.0433 189.061 C 139.0433 189.061 145.846 188.9379 149.1379 188.8511 L 149.1379 105.1472 Z"
    id="room-166"
    stroke="currentColor"
    name="Machine Shop"
  />
  <path
    d="M 211.3136 143.0617 L 274.2354 143.0617 C 275.8486 134.1805 282.7508 127.1396 291.5644 125.3136 C 289.6293 120.3909 288.1495 113.9001 286.9928 110.0764 C 286.9166 109.8235 285.8243 109.6959 285.1941 109.6022 C 281.3453 109.0311 268.7688 112.9915 253.9712 112.5352 C 246.0026 112.2894 237.3897 112.0593 229.149 111.8441 C 218.8841 111.5759 209.1968 106.8593 202.05 106.6349 C 202.0401 106.6227 202.034 106.6223 202.0321 106.6345 L 202.05 106.6349 C 202.4813 107.1518 210.3642 128.8124 211.3136 143.0617 Z"
    id="room-167"
    stroke="currentColor"
    name="Alien Life Support and Quarters"
  />
  <path
    d="M 211.0424 151.0383 C 209.3153 165.3791 202.0321 187.3634 202.0321 187.3634 C 208.9259 187.147 218.1884 182.4639 228.0536 182.2068 C 236.4235 181.9885 245.2276 181.7549 253.3871 181.5047 C 268.4374 181.0437 281.295 184.9744 285.1941 184.3957 C 285.8243 184.302 286.9166 184.1744 286.9928 183.9215 C 288.1423 180.1222 289.6107 173.6893 291.5275 168.7787 C 282.7313 166.9406 275.8463 159.9074 274.2354 151.0383 L 211.0424 151.0383 Z"
    id="room-168"
    stroke="currentColor"
    name="VIP Quarters"
  />
</svg>
