<svg viewBox="0 0 1000 772" version="1.1" xmlns="http://www.w3.org/2000/svg" xmlns:xlink="http://www.w3.org/1999/xlink" xml:space="preserve" style="fill-rule:evenodd;clip-rule:evenodd;stroke-miterlimit:1.41421;">
  <path d="M925.293,478.287L926.996,475.816L928.898,473.106L931.237,469.68L934.479,465.155L936.225,462.439L937.651,460.476L939.029,458.512L941.08,455.327L943.355,451.923L944.589,449.522L946.447,446.39L947.676,442.943L948.194,440.424L949.198,435.942L950.084,432.149L950.41,429.342L950.885,425.559L951.152,423.046L951.633,418.969L951.922,416.221L952.402,412.374L953.123,406.607L954.004,399.473L954.747,393.876L955.414,390.626L956.563,386.016L955.868,383.257L954.923,379.421L954.271,374.331L953.289,367.25L952.53,361.312L952.082,356.963L951.633,353.057L951.361,350.55L950.885,346.468L950.549,343.661L950.084,339.878L949.347,336.799L948.552,333.288L947.676,329.084L947.051,326.699L945.336,323.823L943.355,320.104L941.08,316.705L939.024,313.514L937.651,311.551L936.225,309.587L934.516,306.925L932.38,303.905L929.912,300.335L927.883,297.512L926.478,295.501L923.696,291.478L922.163,289.301L920.63,287.151L919.028,285.315L917.42,283.426L914.825,280.561L912.325,278.848L910.322,277.626L908.095,276.212L905.147,274.98L902.744,273.971L899.128,272.563L896.901,271.725L892.735,270.124L890.466,269.276L888.303,268.444L885.611,267.382L881.707,265.962L877.247,264.218L872.398,262.436L870.053,261.651L867.532,260.787L863.922,259.768L859.751,258.791L855.318,258.039L850.885,257.463L846.559,256.78L842.121,256.315L837.688,255.969L833.437,255.542L830.553,255.392L826.227,255.104L822.334,254.896L819.247,254.757L815.733,254.597L809.927,254.309L807.503,254.197L803.331,254.021L796.266,254.122L793.894,254.197L790.407,254.315L787.961,254.395L784.852,254.496L780.158,254.656L776.152,254.789L772.911,254.907L769.557,255.024L766.79,255.163L762.961,255.376L760.557,255.712L756.36,256.518L751.532,257.164L747.601,257.548L743.168,258.13L738.735,258.434L734.409,258.482L732.134,257.959L727.813,257.857L725.538,257.265L721.212,257.142L718.942,256.401L714.157,256.091L710.184,255.6L703.636,254.234L699.502,253.509L696.987,253.146L694.22,252.698L690.391,252.095L685.878,251.3L681.632,250.526L677.199,249.822L672.761,249.032L668.211,248.184L664.365,247.677L661.497,247.261L657.406,246.807L652.973,246.354L648.647,245.804L644.215,245.388L639.776,244.822L635.45,244.187L631.018,243.563L626.585,242.923L622.323,242.33L619.546,241.946L616.058,241.365L613.164,240.858L609.062,240.164L606.792,239.545L602.466,238.67L600.196,238.089L595.87,237.208L593.6,236.616L588.81,235.608L586.316,234.994L583.405,234.423L580.911,233.857L578.24,233.18L573.482,232.027L569.482,231.035L567.212,230.432L562.667,229.231L559.74,228.458L557.369,227.833L554.57,227.113L551.852,226.409L547.168,225.176L543.093,224.125L540.823,223.533L536.513,222.45L532.47,221.415L528.23,220.411L525.469,219.744L520.625,218.613L516.704,217.717L514.435,217.194L509.831,216.164L507.529,215.641L504.752,215.022L501.045,214.201L496.089,213.064L492.479,212.21L487.945,211.021L483.309,209.777L479.287,208.694L475.073,207.456L472.691,206.773L470.272,206.165L467.762,205.407L462.934,204.084L459.494,203.129L454.02,201.47L451.334,200.765L449,200.253L446.303,199.586L443.435,198.839L439.707,197.772L436.839,197.361L433.106,196.689L427.258,195.627L423.001,194.88L419.914,194.384L414.702,194.085L411.876,193.941L408.175,193.936L405.259,193.925L401.595,193.92L398.642,193.909L395.032,193.893L391.939,193.839L388.788,193.658L384.339,191.188L381.493,191.177L378.192,188.872L376.713,185.313L376.873,181.701L380.334,175.229L381.231,169.754L381.771,166.099L382.401,161.927L383.213,157.002L383.576,153.005L383.789,148.742L382.994,143.951L382.358,139.703L381.712,135.563L380.777,129.549L378.502,124.742L377.391,122.384L376.606,119.796L375.447,115.789L373.733,109.509L367.821,109.882L365.497,110.842L363.345,112.006L360.541,113.516L356.434,115.789L353.945,117.171L350.874,118.857L347.344,120.815L344.556,122.384L342.11,123.739L337.827,126.055L334.153,128.125L329.34,130.755L325.068,133.076L321.207,135.312L316.549,137.75L314.36,138.988L312.304,140.098L308.586,142.152L304.533,145.386L301.168,148.011L301.168,151.858L302.023,154.483L305.398,157.701L307.764,159.744L311.182,161.927L313.153,163.132L317.244,165.635L319.391,166.948L321.949,168.516L325.431,170.64L327.557,171.936L329.527,173.137L332.785,175.106L335.856,176.813L337.934,177.918L340.748,179.3L345.603,181.701L343.493,184.438L340.748,186.273L336.823,188.29L334.468,188.392L328.705,188.669L326.179,188.739L322.937,188.936L318.483,189.091L314.36,189.283L311.417,189.47L307.764,189.598L303.491,190.707L301.168,192.511L298.124,192.81L294.572,193.375L290.15,193.397L285.771,193.37L281.375,193.285L278.999,193.215L274.779,193.082L272.163,193.002L268.184,192.874L265.332,192.788L261.588,192.666L258.517,192.57L254.987,192.458L251.718,192.356L248.391,192.255L245.25,192.153L241.795,192.047L238.826,191.951L235.199,191.844L232.39,191.753L228.598,191.641L225.949,191.556L222.002,191.444L219.476,191.39L215.406,191.326L213.019,191.204L208.811,191.017L203.764,190.798L200.052,190.633L195.614,190.478L191.181,190.595L186.855,190.681L182.422,190.985L177.989,191.913L173.936,192.676L171.206,193.535L167.788,194.4L165.086,195.248L162.629,195.974L160.466,196.966L158.196,197.783L156.033,198.78L153.854,199.837L150.57,201.47L147.691,203.839L142.836,207.702L140.145,212.306L138.729,214.654L139.92,217.114L141.41,219.755L142.836,221.991L145.299,224.84L148.028,227.833L151.771,231.627L154.565,234.423L161.166,241.018L164.963,244.801L167.783,247.608L171.495,251.444L173.727,254.197L171.639,255.739L169.225,259.282L166.571,259.586L162.629,259.949L157.828,260.056L154.335,260.136L150.928,260.216L148.033,260.28L143.99,260.376L136.999,260.531L129.944,260.696L125.917,260.787L123.46,260.845L117.682,260.995L115.006,261.075L111.807,261.176L107.529,261.347L103.256,261.528L100.255,261.63L96.6604,261.758L93.4292,261.865L90.0646,261.982L87.0951,262.089L83.4633,262.227L80.7449,262.329L76.8676,262.484L74.3894,262.59L70.2718,262.772L65.1766,263.001L61.513,263.364L57.0802,263.994L55.1895,265.445L52.5992,267.382L50.4789,269.425L48.631,272.072L46.8847,276.132L45.9607,278.4L45.448,282.722L45.4374,287.151L46.4681,291.579L48.1077,295.047L49.5122,297L51.4563,299.161L53.9398,301.162L55.8944,302.544L59.2431,303.627L63.6759,304.134L68.1087,304.332L72.4348,304.524L76.8676,304.721L81.3004,304.924L85.6264,305.121L90.0646,305.335L94.4974,305.676L98.316,306.348L99.1919,308.691L99.8915,311.273L99.3414,313.514L99.1225,317.943L98.8875,322.265L98.8875,449.762L99.1225,454.084L99.3414,458.512L99.8915,460.753L99.1972,463.341L98.4815,465.63L94.4974,466.356L90.0646,466.697L85.6264,466.905L81.3004,467.108L76.8676,467.311L72.4348,467.508L68.1087,467.7L63.6759,467.898L59.2431,468.399L55.8944,469.488L53.9451,470.865L51.7821,472.551L49.5122,475.026L48.113,476.979L46.4681,480.448L45.4374,484.876L45.448,489.305L45.9607,493.627L46.8793,495.894L48.631,499.955L50.4789,502.607L52.5992,504.65L55.1895,506.582L57.0802,508.038L61.513,508.663L65.1714,509.031L68.0553,509.159L72.7552,509.367L76.8676,509.549L79.5967,509.655L83.4633,509.805L86.4328,509.911L90.0646,510.05L93.2957,510.157L96.6604,510.274L99.7153,510.381L103.256,510.504L105.868,510.616L109.852,510.786L115.022,510.957L117.671,511.037L122.579,511.16L125.815,511.24L129.362,511.32L135.53,511.464L141.758,511.603L148.028,511.747L150.933,511.816L154.335,511.891L157.833,511.971L160.669,512.035L165.225,512.275L169.225,512.755L171.11,514.212L173.733,517.83L172.008,520.076L169.225,522.978L165.438,526.751L162.629,529.557L158.837,533.34L156.033,536.136L152.241,539.935L149.438,542.758L145.774,546.664L142.836,550.041L141.416,552.272L139.92,554.913L138.729,557.373L140.145,559.72L141.608,562.527L145.87,566.827L149.438,569.586L151.788,571.187L156.033,573.252L158.196,574.249L160.466,575.06L162.629,576.058L165.081,576.779L167.783,577.632L171.206,578.491L173.936,579.35L177.989,580.113L180.259,580.684L184.585,581.132L189.018,581.437L193.451,581.554L197.777,581.458L202.215,581.303L206.69,581.127L211.193,580.892L215.406,580.706L217.933,580.652L222.002,580.588L224.657,580.498L228.598,580.385L231.407,580.295L235.199,580.183L238.163,580.092L241.795,579.98L244.935,579.884L248.391,579.777L251.665,579.676L254.987,579.569L258.079,579.478L261.588,579.366L264.483,579.281L268.184,579.158L270.875,579.078L274.779,578.95L277.258,578.881L281.375,578.742L285.771,578.662L290.15,578.635L294.572,578.657L297.349,579.041L301.168,579.516L303.491,581.319L306.589,581.319L310.707,582.562L314.36,582.744L317.148,582.835L320.961,583.043L326.184,583.293L328.705,583.363L333.795,583.619L336.791,583.736L339.557,584.932L343.488,587.594L345.614,590.331L342.345,591.921L337.939,594.109L335.851,595.224L333.629,596.393L329.533,598.895L327.557,600.096L325.431,601.392L321.954,603.51L319.38,605.09L317.249,606.397L314.36,608.163L311.193,610.1L309.104,611.439L305.398,614.326L302.322,616.69L301.168,620.174L300.997,623.119L304.463,626.582L307.764,629.41L312.304,631.934L314.36,633.044L316.549,634.276L320.758,636.464L325.068,638.95L327.557,640.279L332.63,643.053L336.08,644.98L340.748,647.535L344.556,649.648L347.344,651.212L350.581,653.01L353.945,654.856L356.434,656.238L359.062,657.711L363.345,660.026L365.497,661.19L367.821,662.145L373.396,662.491L375.089,657.588L376.521,652.487L377.391,649.648L378.507,647.29L380.334,644.179L381.498,637.979L382.075,634.02L382.732,629.874L383.501,625.211L383.677,620.953L383.464,616.69L382.684,612.096L382.102,608.003L381.418,603.51L380.377,596.985L377.797,592.434L376.793,587.274L376.617,583.736L380.334,582.728L384.339,580.839L386.93,578.422L391.939,578.187L395.037,578.134L398.642,578.118L401.595,578.112L405.259,578.102L408.175,578.096L411.871,578.086L414.702,577.947L418.867,577.75L423.012,577.147L425.917,576.554L431.461,575.503L435.782,574.895L439.707,574.255L442.57,573.465L446.303,572.441L449,571.774L451.328,571.267L453.625,570.68L457.759,569.351L461.663,568.348L466.096,567.084L470.272,565.867L472.691,565.259L475.073,564.57L478.337,563.621L481.156,562.826L485.883,561.55L490.823,560.254L495.464,559.117L499.08,558.264L503.102,557.373L505.676,556.802L509.051,556.044L512.272,555.324L516.704,554.315L520.625,553.419L523.231,552.794L528.23,551.621L531.781,550.783L535.947,549.726L538.66,549.049L543.093,547.902L547.173,546.85L549.796,546.157L554.57,544.919L557.374,544.193L559.735,543.574L562.667,542.795L565.049,542.166L569.482,540.997L573.482,540.005L576.104,539.322L580.911,538.175L583.416,537.604L586.31,537.038L588.81,536.425L591.437,535.848L595.87,534.824L600.196,533.943L602.466,533.356L606.792,532.487L609.062,531.862L612.848,531.238L616.064,530.667L619.551,530.086L622.323,529.696L626.585,529.104L631.018,528.464L635.45,527.845L639.776,527.21L644.215,526.644L648.647,526.223L652.973,525.678L657.406,525.22L661.503,524.766L663.906,524.419L667.158,523.971L670.598,523.491L675.036,522.701L679.362,521.826L683.795,521.116L688.799,520.225L693.157,519.494L696.987,518.881L699.502,518.518L703.492,517.83L708.715,516.784L712.469,516.245L716.779,515.77L721.212,514.884L725.538,514.767L727.813,514.169L732.134,514.068L734.409,513.545L738.735,513.593L743.168,513.902L747.601,514.484L751.526,514.868L754.469,515.348L758.763,515.882L762.961,516.656L765.727,516.8L769.557,517.008L772.804,517.12L776.152,517.237L778.967,517.333L782.748,517.461L787.977,517.637L790.401,517.717L793.846,517.83L796.276,517.904L801.708,518.022L807.535,517.83L809.911,517.723L813.58,517.531L818.665,517.296L822.334,517.136L825.036,516.981L828.93,516.784L833.437,516.49L837.688,516.058L842.121,515.717L846.559,515.252L850.885,514.564L855.318,513.988L859.751,513.241L863.922,512.264L866.48,511.539L870.048,510.376L872.398,509.591L875.106,508.652L879.998,506.731L883.662,505.355L886.743,504.202L890.466,502.751L892.735,501.902L894.898,501.07L899.128,499.464L901.494,498.557L905.147,497.047L908.095,495.82L910.322,494.4L912.331,493.179L914.691,491.588L917.42,488.606L919.033,486.712L920.63,484.876L922.163,482.726L923.696,480.549L925.293,478.287Z" stroke="currentColor" stroke-width="3" id="voyager-deck-11" />
  <path d="M315.617,400.666L315.654,497.732C330.035,497.627 351.044,497.449 376.231,497.169L376.231,400.666L315.617,400.666ZM411.69,496.736C462.486,496.062 523.21,495.015 579.835,493.417C572.818,466.909 568.267,440.268 566.367,413.483C563.2,368.841 567.394,323.8 579.798,278.314C523.184,276.716 462.475,275.67 411.69,274.996L411.69,370.784L472.101,370.784L472.101,400.666L411.69,400.666L411.69,496.736ZM597.358,396.469C598.469,428.427 604.044,460.394 613.827,492.369C673.244,490.369 724.352,487.667 748.844,484.031C750.498,483.785 753.365,483.45 753.565,482.786C756.582,472.813 760.436,455.927 765.467,443.037C742.38,438.212 724.309,419.749 720.081,396.469L597.358,396.469ZM597.272,375.531L720.081,375.531C724.315,352.218 742.431,333.736 765.564,328.943C760.485,316.021 756.601,298.983 753.565,288.946C753.365,288.282 750.498,287.947 748.844,287.701C724.342,284.063 673.202,281.361 613.753,279.36C603.535,311.406 598.127,343.464 597.272,375.531ZM315.606,370.784L376.231,370.784L376.231,274.564C352.266,274.297 332.084,274.123 317.794,274.016L315.57,273.999L315.606,370.784ZM294.696,518.806L294.696,252.927C294.696,252.927 686.397,258.916 748.844,268.449C753.256,269.122 766.659,269.738 767.73,272.6C773.905,289.101 777.536,327.803 781.37,327.223L781.37,327.856C811.764,329.861 835.797,355.126 835.797,386C835.797,416.874 811.764,442.139 781.37,444.144L781.37,444.509C777.536,443.929 773.905,482.631 767.73,499.132C766.659,501.994 753.256,502.61 748.844,503.283C686.396,512.817 294.696,518.806 294.696,518.806Z" stroke="currentColor" stroke-width="2" id="hallway"/>
  <path d="M315.57,273.999h60.6061v48.4392h-60v-48Z" id="room-145" stroke="currentColor" name="Crew Quarters"/>
<path d="M315.57,370.784L315.57,322.345L376.176,322.345L376.176,370.784L315.57,370.784Z" id="room-146" stroke="currentColor" name="Crew Quarters"/>
<path d="M357.498,449.285L315.57,449.285L315.57,400.708L376.176,400.708L376.176,449.285L357.498,449.285Z" id="room-147" stroke="currentColor" name="Crew Quarters"/>
<path d="M345.873,497.631L315.57,497.631L315.57,449.285L376.176,449.285L376.176,497.631L345.873,497.631Z" id="room-148" stroke="currentColor" name="Crew Quarters"/>
<path d="M411.495,273.999h60.6061v48.4392h-60v-48Z" id="room-149" stroke="currentColor" name="Crew Quarters"/>
<path d="M411.495,370.784L411.495,322.345L472.101,322.345L472.101,370.784L411.495,370.784Z" id="room-150" stroke="currentColor" name="Crew Quarters"/>
<path d="M453.423,449.285L411.495,449.285L411.495,400.708L472.101,400.708L472.101,449.285L453.423,449.285Z" id="room-151" stroke="currentColor" name="Crew Quarters"/>
<path d="M441.798,497.631L411.495,497.631L411.495,449.285L472.101,449.285L472.101,497.631L441.798,497.631Z" id="room-152" stroke="currentColor" name="Crew Quarters"/>
<path d="M751.31,514.847L747.601,514.484L743.168,513.902L738.735,513.593L734.409,513.545L732.134,514.068L727.813,514.169L725.538,514.767L723.853,514.813L720.171,514.467L716.493,513.994L712.141,513.459L707.114,513.027L701.082,512.455L698.074,511.828L694.721,511.143L690.724,510.922L688.36,510.726L684.363,510.927L681.999,511.03L678.002,511.19L677.773,511.198L677.773,508.551C689.244,507.995 699.822,507.418 709.265,506.823L712.192,507.1L716.984,507.512L721.133,508.023L724.639,508.474L728.774,508.861L732.963,509.22L736.768,509.362L739.027,509.421L742.837,509.357L745.091,509.352L748.902,509.161L751.156,509.072L754.966,508.788L758.138,508.44L761.03,508.13L766.893,507.277L771.038,506.33L773.164,505.683L776.12,504.966L779.228,504.167L781.811,503.681L785.293,503.082L789.486,502.464L793.95,501.802L797.426,501.537L799.651,501.424L802.273,501.243L808.234,500.468L811.048,500.203L813.901,500.065L817.475,500.036L819.67,499.943L824.443,499.933L827.753,499.899L830.007,499.879L833.817,499.786L836.076,499.702L839.881,499.545L842.14,499.437L845.946,499.256L848.205,499.011L852.015,498.618L854.269,498.299L858.079,497.76L860.333,497.421L864.144,496.852L867.851,496.244L870.208,495.886L872.428,495.513L875.197,495.076L877.745,494.679L880.093,494.311L882.342,493.987L884.595,493.624L888.406,492.991L890.665,492.55L894.47,491.76L896.817,490.867L900.535,489.449L902.936,487.669L906.604,484.779L908.435,482.954L910.08,481.08L912.668,477.999L915.59,474.482L917.029,472.5L918.404,470.837L919.99,468.762L923.049,464.778L924.797,462.428L926.515,460.226L928.774,457.307L930.866,454.491L932.182,452.656L933.636,450.336L934.912,448.339L936.464,445.508L937.441,443.031L938.364,440.539L938.811,438.282L939.548,434.475L939.926,432.224L940.569,428.417L940.952,426.165L941.6,422.358L942.209,418.826L942.651,416.299L943.392,411.972L944.1,407.979L944.782,404.177L945.214,401.925L945.931,398.119L946.319,395.862L946.972,392.06L947.296,389.847L947.63,387.601L947.63,384.402L947.296,382.155L946.972,379.938L946.584,377.686L945.931,373.879L945.499,371.627L944.782,367.821L944.183,364.49L943.692,361.762L942.995,357.675L942.209,353.177L941.6,349.64L941.217,347.388L940.569,343.581L940.191,341.324L939.548,337.522L939.096,335.266L938.364,331.464L937.441,328.967L936.464,326.489L934.912,323.664L933.631,321.662L932.182,319.342L930.866,317.507L928.774,314.691L926.515,311.772L924.797,309.569L923.049,307.224L921.168,304.904L918.733,301.656L917.029,299.498L915.59,297.516L913.552,295.102L911.023,292.129L908.435,289.044L906.604,287.219L904.252,285.399L901.188,282.985L898.595,281.808L894.47,280.238L892.216,279.801L888.406,279.011L886.147,278.648L882.342,278.016L880.088,277.687L877.75,277.319L875.187,276.926L872.428,276.485L870.208,276.117L867.846,275.754L864.144,275.151L861.885,274.812L858.079,274.238L855.821,273.919L852.015,273.38L849.756,273.139L845.946,272.742L843.692,272.634L839.881,272.452L837.628,272.369L833.817,272.212L831.558,272.192L827.753,272.099L825.008,272.089L821.688,272.05L817.48,271.967L813.901,271.937L811.053,271.795L808.234,271.53L804.026,271.138L800.849,270.515L797.426,270.461L794.789,270.132L791.357,269.96L787.34,269.411L783.265,268.552L779.228,267.831L776.272,267.081L773.164,266.315L771.038,265.673L767.429,264.804L762.828,264.088L758.703,263.646L754.966,263.21L752.707,263.126L748.902,262.837L746.643,262.832L742.837,262.641L740.579,262.7L736.768,262.636L734.514,262.783L730.704,262.925L726.702,263.288L721.801,263.887L718.575,264.314L713.35,264.804L711.147,265.029C701.235,264.391 690.012,263.775 677.773,263.181L677.773,260.808L679.63,260.883L681.999,260.965L685.991,261.166L688.36,261.274L692.352,261.052L694.721,260.857L698.672,260.085L702.973,259.416L708.33,258.87L713.81,258.356L717.194,257.908L722.334,257.28L723.225,257.2L725.538,257.265L727.813,257.857L732.134,257.959L734.409,258.482L738.735,258.434L743.168,258.13L747.601,257.548L751.401,257.177L751.982,257.198L755.902,257.656L760.228,258.119L765.055,258.87L768.841,259.781L771.071,260.455L774.331,261.258L777.432,262.046L781.666,262.802L785.941,263.702L790.154,264.279L793.755,264.459L796.521,264.804L800.111,264.86L803.443,265.514L807.857,265.925L810.814,266.203L813.801,266.353L817.556,266.384L821.971,266.471L825.452,266.512L828.332,266.522L832.324,266.62L834.693,266.641L838.69,266.805L841.054,266.893L845.051,267.083L847.415,267.197L851.412,267.613L853.782,267.865L857.773,268.432L860.143,268.766L864.135,269.368L866.504,269.723L870.388,270.356L872.865,270.737L875.193,271.123L878.088,271.586L880.777,271.998L883.228,272.384L885.593,272.728L889.584,273.392L891.954,273.773L895.951,274.601L898.315,275.06L902.642,276.706L905.361,277.941L908.575,280.473L911.042,282.382L912.964,284.296L915.678,287.533L918.331,290.652L920.468,293.183L921.978,295.262L923.765,297.527L926.32,300.933L928.292,303.367L930.126,305.827L931.929,308.137L934.298,311.199L936.492,314.153L937.873,316.078L939.392,318.512L940.737,320.611L942.364,323.575L943.389,326.174L944.358,328.793L945.125,332.781L945.599,335.148L946.274,339.136L946.67,341.503L947.35,345.497L947.752,347.859L948.391,351.569L949.215,356.288L949.946,360.574L950.461,363.435L951.09,366.929L951.842,370.923L952.295,373.284L952.98,377.278L953.387,379.64L953.727,381.966L954.077,384.322L954.077,387.678L953.727,390.034L953.387,392.355L952.702,396.343L952.295,398.71L951.543,402.704L951.09,405.066L950.374,409.054L949.632,413.242L948.854,417.781L948.391,420.431L947.752,424.136L947.072,428.13L946.67,430.491L945.995,434.485L945.599,436.847L944.826,440.84L944.358,443.207L943.389,445.821L942.364,448.42L940.737,451.389L939.397,453.483L937.873,455.917L936.492,457.842L934.298,460.796L931.929,463.858L930.126,466.168L928.292,468.633L925.083,472.811L923.42,474.988L921.978,476.733L920.468,478.812L917.404,482.501L914.689,485.733L912.964,487.699L911.042,489.613L907.195,492.644L904.676,494.512L900.777,495.999L898.315,496.935L894.323,497.764L891.954,498.227L887.957,498.891L885.593,499.272L883.234,499.611L880.772,499.997L878.098,500.414L875.193,500.872L872.865,501.263L870.393,501.639L866.504,502.277L862.507,502.874L860.143,503.229L856.146,503.795L853.782,504.129L849.785,504.541L847.415,504.798L843.423,504.989L841.054,505.102L837.062,505.267L834.693,505.354L830.696,505.452L828.332,505.472L824.86,505.509L819.854,505.519L817.551,505.617L813.801,505.647L810.809,505.792L807.857,506.069L801.604,506.882L798.854,507.073L796.521,507.191L792.874,507.469L788.192,508.164L783.793,508.812L780.141,509.44L777.432,509.949L774.172,510.788L771.071,511.539L768.841,512.219L764.493,513.212L758.343,514.107L755.31,514.431L751.982,514.797L751.31,514.847Z" id="room-153" stroke="currentColor" name="Escape Pods"/>
<path d="M711.147,265.029L713.35,264.804L718.575,264.314L721.801,263.887L726.702,263.288L730.704,262.925L734.514,262.783L736.768,262.636L740.579,262.7L742.837,262.641L746.643,262.832L748.902,262.837L752.707,263.126L754.966,263.21L758.703,263.646L762.828,264.088L767.429,264.804L771.038,265.673L773.164,266.315L776.272,267.081L779.228,267.831L783.265,268.552L787.34,269.411L791.357,269.96L794.789,270.132L797.426,270.461L800.849,270.515L804.026,271.138L808.234,271.53L811.053,271.795L813.901,271.937L817.48,271.967L821.688,272.05L825.008,272.089L827.753,272.099L831.558,272.192L833.817,272.212L837.628,272.369L839.881,272.452L843.692,272.634L845.946,272.742L849.756,273.139L852.015,273.38L855.821,273.919L858.079,274.238L861.885,274.812L864.144,275.151L867.846,275.754L870.208,276.117L872.428,276.485L875.187,276.926L877.75,277.319L880.088,277.687L882.342,278.016L886.147,278.648L888.406,279.011L892.216,279.801L894.47,280.238L898.595,281.808L901.188,282.985L904.252,285.399L906.604,287.219L908.435,289.044L911.023,292.129L913.552,295.102L915.59,297.516L917.029,299.498L918.733,301.656L921.168,304.904L923.049,307.224L924.797,309.569L926.515,311.772L928.774,314.691L930.866,317.507L932.182,319.342L933.631,321.662L934.912,323.664L936.464,326.489L937.441,328.967L938.364,331.464L939.096,335.266L939.548,337.522L940.191,341.324L940.569,343.581L941.217,347.388L941.6,349.64L942.209,353.177L942.995,357.675L943.692,361.762L944.183,364.49L944.782,367.821L945.499,371.627L945.931,373.879L946.584,377.686L946.972,379.938L947.296,382.155L947.63,384.402L947.63,387.601L947.296,389.847L946.972,392.06L946.319,395.862L945.931,398.119L945.214,401.925L944.782,404.177L944.1,407.979L943.392,411.972L942.651,416.299L942.209,418.826L941.6,422.358L940.952,426.165L940.569,428.417L939.926,432.224L939.548,434.475L938.811,438.282L938.364,440.539L937.441,443.031L936.464,445.508L934.912,448.339L933.636,450.336L932.182,452.656L930.866,454.491L928.774,457.307L926.515,460.226L924.797,462.428L923.049,464.778L919.99,468.762L918.404,470.837L917.029,472.5L915.59,474.482L912.668,477.999L910.08,481.08L908.435,482.954L906.604,484.779L902.936,487.669L900.535,489.449L896.817,490.867L894.47,491.76L890.665,492.55L888.406,492.991L884.595,493.624L882.342,493.987L880.093,494.311L877.745,494.679L875.197,495.076L872.428,495.513L870.208,495.886L867.851,496.244L864.144,496.852L860.333,497.421L858.079,497.76L854.269,498.299L852.015,498.618L848.205,499.011L845.946,499.256L842.14,499.437L839.881,499.545L836.076,499.702L833.817,499.786L830.007,499.879L827.753,499.899L824.443,499.933L819.67,499.943L817.475,500.036L813.901,500.065L811.048,500.203L808.234,500.468L802.273,501.243L799.651,501.424L797.426,501.537L793.95,501.802L789.486,502.464L785.293,503.082L781.811,503.681L779.228,504.167L776.12,504.966L773.164,505.683L771.038,506.33L766.893,507.277L761.03,508.13L758.138,508.44L754.966,508.788L751.156,509.072L748.902,509.161L745.091,509.352L742.837,509.357L739.027,509.421L736.768,509.362L732.963,509.22L728.774,508.861L724.639,508.474L721.133,508.023L716.984,507.512L712.192,507.1L709.265,506.823C726.984,505.707 740.708,504.525 748.844,503.283C753.256,502.61 766.659,501.994 767.73,499.132C773.905,482.631 777.536,443.929 781.37,444.509L781.37,444.144C811.764,442.139 835.797,416.874 835.797,386C835.797,355.126 811.764,329.861 781.37,327.856L781.37,327.223C777.536,327.803 773.905,289.101 767.73,272.6C766.659,269.738 753.256,269.122 748.844,268.449C740.998,267.251 727.956,266.109 711.147,265.029Z" id="room-154" stroke="currentColor" name="Escape Pod Control Room"/>
<path d="M294.696,518.806L501,514.252L501,553.016L327.382,574.453L294.696,574.453L294.696,518.806Z" id="room-155" stroke="currentColor" name="Engineering Training Center"/>
<path d="M597.272,375.531L720.081,375.531C724.315,352.218 742.431,333.736 765.564,328.943C760.485,316.021 756.601,298.983 753.565,288.946C753.365,288.282 750.498,287.947 748.844,287.701C724.342,284.063 673.202,281.361 613.753,279.36C603.535,311.406 598.127,343.464 597.272,375.531Z" id="room-156" stroke="currentColor" name="Laser Cannon Power Generator"/>
<path d="M597.272,396.102L720.081,396.102C724.315,419.415 742.431,437.896 765.564,442.69C760.485,455.611 756.601,472.649 753.565,482.687C753.365,483.351 750.498,483.686 748.844,483.931C724.342,487.569 673.202,490.272 613.753,492.272C603.535,460.226 598.127,428.169 597.272,396.102Z" id="room-157" stroke="currentColor" name="Robotics Lab"/>
<path d="M472.101,495.814L472.101,275.918C507.312,276.53 544.358,277.314 579.798,278.314C559.952,351.092 561.123,422.73 579.835,493.417C544.383,494.418 507.324,495.202 472.101,495.814Z" id="room-158" stroke="currentColor" name="Laser Cannon Control"/>
<path d="M294.696,291.271L294.696,480.729C276.525,469.911 263.093,431.601 263.093,386C263.093,340.399 276.525,302.089 294.696,291.271Z" id="room-159" stroke="currentColor" name="Engineering Observation Center"/>
<path d="M161.739,237.655L155.679,209.825L294.696,209.825L294.696,291.271C276.525,302.089 263.093,340.399 263.093,386C263.093,431.601 276.525,469.911 294.696,480.729L294.696,562.175L155.679,562.175L161.129,534.675L161.484,534.32L164.288,531.524L168.08,527.741L170.889,524.934L174.676,521.162L177.458,518.259L179.183,516.013L176.561,512.395L174.676,510.939L170.675,510.459L166.12,510.218L163.284,510.154L161.129,510.105L155.679,492.387L109.419,492.387L109.419,279.345L155.679,279.345L161.739,262.224L163.889,262.175L168.69,262.068L172.631,261.705L175.286,261.401L177.7,257.858L179.788,256.316L177.555,253.563L173.844,249.727L171.024,246.92L167.226,243.137L161.739,237.655Z" id="room-194" stroke="currentColor" name="Lower Main Engineering"/>
</svg>