<svg viewBox="0 0 381 294.1" version="1.1" xmlns="http://www.w3.org/2000/svg" xmlns:xlink="http://www.w3.org/1999/xlink" xml:space="preserve" style="fill-rule:evenodd;clip-rule:evenodd;stroke-miterlimit:1.41421;">
  <path d="M 327.9842 190.9052 L 328.9672 190.3989 L 330.2024 189.7322 L 331.6369 188.3665 L 332.8191 187.4964 L 333.932 185.6304 L 334.3675 184.7116 L 335.5254 182.4452 L 336.6444 180.809 L 337.3667 179.6909 L 338.0384 179.1096 L 339.0519 178.1907 L 340.0242 177.1785 L 341.7399 175.8775 L 342.5617 175.3126 L 343.3046 174.78 L 344.68 173.7697 L 345.5796 172.8348 L 346.6517 171.2432 L 347.6446 169.6473 L 348.0923 168.8302 L 348.5704 167.9197 L 348.9777 167.1349 L 349.5107 166.0088 L 350.1638 164.6248 L 350.6053 163.5188 L 351.1608 162.1142 L 351.4885 161.0898 L 351.9545 159.6037 L 352.1316 158.5976 L 352.3656 157.0936 L 352.6323 155.081 L 352.7561 154.1339 L 353.0087 152.207 L 353.2994 149.9506 L 353.4072 149.0683 L 353.552 147.7898 L 353.552 146.3102 L 353.4072 145.0294 L 353.2994 144.1475 L 353.1203 142.7509 L 352.7561 139.9661 L 352.63 139.0167 L 352.4307 137.4963 L 352.1396 135.5633 L 351.9545 134.4963 L 351.6047 133.3374 L 351.1608 131.9839 L 350.6053 130.5812 L 350.2697 129.7377 L 349.5248 128.1175 L 348.9777 126.9628 L 348.5704 126.1784 L 348.0923 125.2676 L 347.6446 124.4527 L 346.8917 123.2127 L 346.0535 121.9403 L 344.68 120.3284 L 343.4551 119.4297 L 342.5617 118.7874 L 341.7399 118.2206 L 340.5515 117.3341 L 339.0519 115.907 L 338.0384 114.9885 L 337.3667 114.4091 L 336.6444 113.291 L 335.9384 112.3092 L 334.7622 110.1507 L 333.932 108.4677 L 333.3358 107.2014 L 331.6369 105.7316 L 330.4992 104.7091 L 328.9672 103.7011 L 327.9842 103.1929 L 327.0851 102.8043 L 325.8232 102.1906 L 323.9472 101.3674 L 322.9585 100.9811 L 322.0608 100.6843 L 320.4454 100.1822 L 319.5805 99.8633 L 318.0725 99.3429 L 316.6118 98.8938 L 315.4173 98.5685 L 313.8442 98.2351 L 312.9043 98.0401 L 311.954 97.8854 L 310.3912 97.6374 L 309.1053 97.4321 L 307.8781 97.237 L 305.3959 96.8324 L 303.8044 96.5764 L 302.85 96.4218 L 301.8918 96.2126 L 300.3373 95.8343 L 299.3868 95.7105 L 297.8243 95.5193 L 296.8741 95.3913 L 295.3093 95.2248 L 294.361 95.0865 L 292.7962 94.9379 L 291.8479 94.8873 L 290.2831 94.8507 L 289.3329 94.8179 L 287.7701 94.7958 L 286.8198 94.7874 L 285.2551 94.7916 L 284.3068 94.8099 L 282.742 94.8446 L 281.7937 94.8667 L 280.2289 94.9036 L 279.2787 94.9238 L 277.7162 94.9585 L 276.7656 94.9806 L 275.2032 95.0194 L 274.2529 95.0438 L 272.6882 95.0823 L 271.7399 95.1067 L 270.1751 95.1474 L 269.2249 95.1554 L 267.662 95.1676 L 266.7118 95.1189 L 265.1489 94.997 L 264.1987 94.9379 L 262.634 94.7916 L 261.6857 94.7326 L 260.1209 94.5863 L 259.24 94.509 L 257.6589 94.3223 L 256.2526 94.1291 L 255.0947 93.9764 L 253.5159 93.7794 L 252.582 93.6491 L 251.6318 93.5234 L 250.0667 93.328 L 249.1188 93.1779 L 247.554 92.9398 L 246.6038 92.7733 L 245.0409 92.5375 L 244.0907 92.4156 L 242.5278 92.2285 L 241.5654 92.1024 L 240.6823 92.0171 L 239.329 91.8727 L 238.2363 91.755 L 236.5515 91.5394 L 234.9867 91.3767 L 234.0365 91.2712 L 232.4736 91.1184 L 231.5234 91.0148 L 229.9609 90.8685 L 229.0103 90.7729 L 227.4456 90.6411 L 226.4976 90.5474 L 224.9329 90.4194 L 223.9926 90.3135 L 223.069 90.2365 L 221.2943 89.9416 L 219.9067 89.6712 L 218.8975 89.5961 L 217.3917 89.4597 L 215.2879 89.2994 L 212.7908 89.1348 L 211.4337 88.9355 L 209.8525 88.659 L 208.9023 88.5188 L 207.3375 88.2586 L 206.3892 88.1062 L 204.8245 87.8155 L 203.8765 87.6102 L 202.3118 87.1976 L 201.3612 87.0715 L 199.7987 86.8338 L 198.6142 86.6852 L 197.2856 86.4761 L 196.3354 86.3561 L 194.7706 86.1203 L 193.8223 85.9778 L 192.2576 85.6894 L 191.3092 85.5816 L 189.7445 85.3762 L 188.7943 85.244 L 187.2314 85.0166 L 186.149 84.7358 L 184.7164 84.4109 L 183.7521 84.1118 L 182.2033 83.7012 L 181.2554 82.9777 L 179.6906 81.876 L 178.433 80.5506 L 177.6313 79.7152 L 176.3676 78.3959 L 174.7742 76.7456 L 173.5291 75.4648 L 172.3263 74.2351 L 171.0526 72.936 L 169.8521 71.7246 L 168.6759 70.5741 L 167.2396 69.2145 L 166.513 68.5375 L 165.7438 67.8689 L 164.6103 66.7466 L 163.5321 65.3931 L 162.5411 64.1915 L 163.6563 63.958 L 164.6103 63.8052 L 165.5586 63.7667 L 167.1234 63.7302 L 168.0736 63.6955 L 169.6364 63.6673 L 170.5867 63.5248 L 172.1495 63.3866 L 173.0997 63.1245 L 174.6645 62.7462 L 175.5393 62.0166 L 176.5672 60.8985 L 177.1776 60.0775 L 177.6965 59.1709 L 177.735 58.0588 L 177.786 56.6603 L 177.5803 55.4672 L 177.3544 54.1479 L 177.1776 53.266 L 176.9128 52.2557 L 176.4918 50.6439 L 176.1561 49.1273 L 175.9729 48.2514 L 175.798 47.365 L 175.3095 45.379 L 174.9739 44.1047 L 174.6645 42.6514 L 174.3776 41.5942 L 174.1475 40.6753 L 173.7589 39.0837 L 173.4152 37.4171 L 172.8475 35.3925 L 172.4158 34.0631 L 172.1495 32.8862 L 171.8725 31.9552 L 171.5411 30.8637 L 171.2092 29.8616 L 170.3059 28.3309 L 169.6364 27.6216 L 168.0473 26.53 L 167.1234 26.1011 L 166.2139 25.6518 L 164.6103 24.9262 L 163.4913 24.5156 L 162.0953 24.0806 L 161.0354 23.8062 L 159.5822 23.5216 L 158.6343 23.3224 L 157.0695 23.0216 L 156.1189 22.8244 L 154.5565 22.4991 L 153.7404 22.1252 L 152.4057 21.5072 L 152.3364 20.56 L 152.2366 18.9968 L 152.3486 18.0496 L 152.5909 16.4865 L 152.6496 14.844 L 152.4217 12.9008 L 152.1287 11.7117 L 151.2741 9.677 L 150.2344 8.2988 L 149.5284 7.5122 L 148.6026 7.3699 L 147.0153 7.1971 L 130.1751 7.1971 L 127.9916 7.4207 L 126.9073 7.5406 L 125.7635 8.1769 L 124.3942 8.8253 L 123.1144 9.8253 L 121.8811 10.8153 L 120.7172 12.0593 L 119.3681 13.5432 L 118.3569 14.9233 L 117.2703 16.4865 L 116.3566 17.8342 L 115.5489 18.9968 L 114.7919 19.9644 L 113.3696 20.9523 L 112.1363 21.5072 L 110.9381 21.6861 L 109.3142 21.806 L 108.364 21.8629 L 106.7989 21.9422 L 105.8509 22.0032 L 104.2862 22.0946 L 103.3379 22.1617 L 101.7731 22.2674 L 100.8229 22.3406 L 99.26 22.4565 L 98.3098 22.5317 L 96.7469 22.6557 L 95.7967 22.7309 L 94.232 22.8549 L 93.2837 22.9301 L 91.7189 23.0541 L 90.7687 23.1435 L 89.2058 23.2817 L 88.2556 23.3854 L 86.6931 23.5379 L 85.7467 23.6578 L 84.1778 23.8143 L 83.1441 23.9078 L 82.1676 24.0196 L 80.8143 24.2554 L 79.152 24.5705 L 78.2018 24.7433 L 76.6389 24.9872 L 75.7131 25.1701 L 74.7953 25.3002 L 72.9051 25.7718 L 71.6109 26.1438 L 69.8811 26.53 L 68.7579 26.8959 L 67.2869 27.341 L 65.6612 27.8045 L 64.072 28.2314 L 63.2395 28.5728 L 62.1346 29.0404 L 60.6983 30.7254 L 59.9107 31.5507 L 59.044 32.4532 L 58.525 33.2419 L 57.9512 34.0631 L 57.4544 34.986 L 56.5309 36.0755 L 55.5845 37.4739 L 54.2578 39.0837 L 53.0779 40.7424 L 52.4328 41.5942 L 51.5047 42.71 L 50.5648 44.1047 L 50.0642 45.0396 L 48.9897 46.491 L 47.9134 48.1577 L 47.2032 49.1273 L 46.4767 50.0461 L 45.443 51.6378 L 44.9751 52.4527 L 43.9636 53.9285 L 43.2881 55.3087 L 42.5962 56.6603 L 42.6206 58.2886 L 42.6411 59.1709 L 43.4774 60.2238 L 44.4075 61.1995 L 45.5405 62.0086 L 46.4767 62.5534 L 47.3983 62.6894 L 48.9897 62.8601 L 49.94 62.9618 L 51.5047 63.094 L 52.453 63.1793 L 54.0178 63.2749 L 54.9661 63.3907 L 56.5309 63.5066 L 57.4811 63.5431 L 59.044 63.582 L 59.9942 63.6064 L 61.5566 63.6307 L 62.5072 63.6387 L 64.072 63.6467 L 65.0199 63.6429 L 66.5847 63.6326 L 67.5353 63.6205 L 69.0978 63.5961 L 70.048 63.5778 L 71.6109 63.5389 L 72.5611 63.5168 L 74.1258 63.4658 L 75.0741 63.4395 L 76.6389 63.3786 L 77.5872 63.281 L 79.152 63.0555 L 80.1022 63.0064 L 81.6651 62.8947 L 82.6153 62.846 L 84.1778 62.7404 L 85.1284 62.6833 L 86.6931 62.5656 L 87.641 62.5126 L 89.2058 62.3926 L 90.1541 62.5309 L 91.7189 62.4437 L 92.9705 63.3462 L 93.2612 64.1915 L 93.121 65.155 L 92.8078 66.702 L 92.3639 67.9421 L 91.9509 69.2145 L 91.7189 70.1535 L 91.5196 71.1006 L 91.1878 72.6922 L 90.8521 74.2351 L 90.6506 75.1845 L 90.2905 76.7456 L 90.0444 77.6946 L 89.5822 79.258 L 89.3281 80.4409 L 89.1407 81.3903 L 88.8724 82.7156 L 88.5223 84.2787 L 88.323 85.228 L 87.9851 86.7888 L 87.7268 87.7382 L 87.2974 89.2994 L 86.921 90.5737 L 86.636 91.523 L 86.215 92.7588 L 85.6595 94.3223 L 85.0651 95.3444 L 84.1778 96.6435 L 82.3444 97.2473 L 80.495 97.674 L 79.152 97.8062 L 77.5301 97.9159 L 76.6389 97.9787 L 75.595 98.0481 L 74.1258 98.1456 L 72.9924 98.2229 L 71.6109 98.3163 L 70.3718 98.4039 L 69.0978 98.4911 L 67.9441 98.5723 L 66.5847 98.6679 L 65.6874 98.8835 L 64.3467 99.2027 L 63.2639 99.3429 L 61.7826 99.5544 L 59.4855 99.7982 L 58.4965 99.8896 L 57.2106 100.0218 L 55.7106 100.1639 L 54.0178 100.3289 L 52.9293 100.4302 L 51.5047 100.5647 L 50.577 100.6477 L 48.9897 100.7841 L 47.897 100.9018 L 46.4767 101.0462 L 45.5916 101.2291 L 44.5092 101.4691 L 43.5548 101.6256 L 41.4608 101.847 L 39.4015 102.3186 L 38.2356 102.5544 L 37.3241 102.7556 L 36.4227 102.9304 L 35.2201 103.1624 L 33.9096 103.4021 L 32.0417 103.7213 L 30.9449 103.9144 L 29.0423 104.207 L 28.2102 106.2051 L 28.5804 107.1789 L 29.4595 107.4532 L 30.601 107.6707 L 32.5422 108.0204 L 33.9096 108.2623 L 34.8762 108.4208 L 36.4227 108.6852 L 38.6204 109.0711 L 40.4047 109.3865 L 41.3328 109.4513 L 43.5651 109.6323 L 44.4661 109.7603 L 45.6507 110.0003 L 47.4414 110.2155 L 48.9897 110.3134 L 50.0722 110.3824 L 51.5047 110.4738 L 52.5567 110.553 L 54.0178 110.6669 L 54.9112 111.0045 L 55.8184 111.8967 L 54.7383 112.2689 L 53.3606 113.2079 L 52.4877 114.4091 L 51.5047 115.0617 L 50.4913 115.7303 L 48.9897 116.7223 L 47.897 117.4541 L 46.4767 118.3993 L 45.7318 119.0865 L 44.7816 120.056 L 43.9636 120.9684 L 43.3106 121.9403 L 42.9136 122.8896 L 42.3257 124.4527 L 42.3116 125.3997 L 42.2994 126.9628 L 42.2994 167.1349 L 42.3116 168.0842 L 42.3257 169.6473 L 42.7204 170.5948 L 43.3087 172.1578 L 43.9636 173.1293 L 44.7816 174.044 L 45.7318 175.0116 L 46.4767 175.7007 L 47.4574 176.3533 L 48.6987 177.1785 L 49.8241 177.9305 L 51.5047 179.0364 L 52.4877 179.6909 L 53.2139 180.7092 L 54.0178 181.4612 L 55.8165 182.2014 L 54.9112 183.0936 L 54.0178 183.4331 L 53.0676 183.5123 L 51.5047 183.6262 L 50.3998 183.6952 L 48.9897 183.7847 L 47.9847 183.8475 L 46.4767 183.9455 L 44.4661 184.3375 L 43.5651 184.4658 L 41.5831 184.6304 L 40.415 184.7116 L 39.1615 184.9352 L 37.025 185.3135 L 35.5762 185.5573 L 33.9096 185.8377 L 32.7315 186.0449 L 31.3966 186.2807 L 29.4595 186.6468 L 28.5804 186.9211 L 28.2102 187.8949 L 28.5113 189.3623 L 30.9449 190.1837 L 32.0417 190.3787 L 33.0957 190.5475 L 35.0939 190.9155 L 36.4227 191.1696 L 37.3241 191.3444 L 38.2375 191.5456 L 39.3996 191.7814 L 41.3816 192.2446 L 43.5529 192.4724 L 44.5111 192.6309 L 45.5916 192.8709 L 46.4767 193.0538 L 47.5347 193.1654 L 48.9897 193.3159 L 50.0805 193.4096 L 51.5047 193.5334 L 52.6218 193.637 L 54.0178 193.7711 L 54.9173 193.8546 L 56.5309 194.013 L 58.4984 194.2085 L 59.4832 194.3018 L 61.3776 194.5011 L 63.2578 194.7552 L 64.3486 194.8973 L 65.6855 195.2165 L 66.5847 195.4321 L 67.7163 195.5114 L 69.0978 195.6089 L 70.3372 195.6942 L 71.6109 195.7815 L 72.7443 195.8588 L 74.1258 195.9525 L 75.1679 196.0234 L 76.6389 196.1213 L 77.5301 196.1822 L 78.4315 196.2409 L 80.2569 196.4036 L 81.6651 196.5479 L 83.4432 197.2657 L 84.7173 198.3205 L 85.6595 199.7758 L 85.9848 200.7252 L 86.5403 202.2882 L 86.921 203.5241 L 87.2951 204.7987 L 87.5538 205.7458 L 87.9851 207.3089 L 88.1844 208.2582 L 88.5223 209.8194 L 88.7216 210.7687 L 89.0736 212.3299 L 89.3281 213.6572 L 89.5822 214.842 L 89.8307 215.7894 L 90.2905 217.3525 L 90.494 218.3018 L 90.8521 219.863 L 91.1249 221.1251 L 91.3912 222.3731 L 91.7189 223.9446 L 91.9509 224.8855 L 92.3498 226.1237 L 92.8078 227.3961 L 92.948 228.3576 L 93.2612 229.9062 L 92.9705 230.7519 L 91.7189 231.6567 L 90.2376 231.5794 L 89.2058 231.7055 L 88.2556 231.6525 L 86.6931 231.5325 L 85.7425 231.4757 L 84.1778 231.3577 L 83.2298 231.3089 L 81.6651 231.2053 L 80.7168 231.1565 L 79.152 231.0445 L 78.2018 230.9451 L 76.6389 230.7215 L 75.6887 230.6952 L 74.1258 230.6319 L 73.1756 230.6098 L 71.6109 230.5611 L 70.6625 230.5428 L 69.0978 230.5039 L 68.1476 230.4936 L 66.5847 230.4674 L 65.6345 230.4632 L 64.072 230.451 L 63.1214 230.4613 L 61.5566 230.4693 L 60.6087 230.4936 L 59.044 230.5184 L 58.0956 230.5569 L 56.5309 230.5934 L 55.5807 230.7093 L 54.0178 230.8251 L 53.0676 230.9104 L 51.5047 231.006 L 50.5545 231.1077 L 48.9897 231.2399 L 47.3983 231.4087 L 46.4767 231.5466 L 45.5405 232.0914 L 44.4075 232.9005 L 43.4774 233.8743 L 42.6411 234.9291 L 42.6206 235.8092 L 42.6107 236.7261 L 42.9909 238.2221 L 43.8375 239.9498 L 44.7999 241.3506 L 45.4411 242.4603 L 46.0618 243.4055 L 46.9182 244.5864 L 47.9134 245.9423 L 48.6133 247.036 L 49.9114 248.8044 L 50.5648 249.9934 L 51.1344 250.833 L 52.0827 251.9549 L 53.0779 253.3576 L 54.0178 254.7477 L 55.2999 256.1912 L 56.2196 257.5265 L 57.4525 259.112 L 57.949 260.037 L 58.525 260.856 L 59.044 261.6446 L 59.9084 262.5471 L 60.6983 263.3746 L 61.5566 264.5391 L 63.2376 265.5273 L 64.072 265.8687 L 65.2703 266.1856 L 66.5847 266.5415 L 68.7602 267.2043 L 69.8773 267.5681 L 70.9068 267.804 L 72.8316 268.308 L 74.1258 268.676 L 75.7131 268.9301 L 76.6389 269.1106 L 77.5872 269.2836 L 79.152 269.5274 L 80.0881 269.7491 L 81.6651 269.999 L 83.1422 270.1922 L 84.1778 270.2855 L 85.7467 270.4402 L 86.6931 270.5602 L 87.641 270.6657 L 89.2058 270.8181 L 90.1564 270.9076 L 91.7189 271.0459 L 92.6691 271.121 L 94.232 271.2452 L 95.1822 271.3202 L 96.7469 271.4444 L 97.6953 271.5194 L 99.26 271.6414 L 100.2083 271.7145 L 101.7731 271.8326 L 102.7233 271.8996 L 104.2862 272.0033 L 105.2364 272.0642 L 106.7989 272.1556 L 107.7495 272.2128 L 109.3142 272.2939 L 110.2256 272.3713 L 111.8269 272.4974 L 112.8751 272.908 L 114.34 273.5747 L 115.0971 274.542 L 116.0454 275.8087 L 116.8531 276.9713 L 117.958 278.5607 L 119.0446 280.1238 L 120.2268 281.4107 L 121.2952 282.6343 L 122.6645 283.8579 L 124.2456 285.1448 L 125.0922 285.6183 L 126.9073 286.5574 L 127.9246 286.6652 L 129.4223 286.9029 L 146.2625 286.9029 L 147.8863 286.7848 L 149.5284 286.5879 L 150.2344 285.8012 L 151.2741 284.4229 L 152.0434 282.7543 L 152.4217 281.1992 L 152.6008 280.1238 L 152.5661 278.4247 L 152.4789 276.6643 L 152.2366 275.1012 L 152.3059 274.1519 L 152.4057 272.5907 L 153.2214 272.2147 L 154.5565 271.5987 L 155.5044 271.4017 L 157.0695 271.0783 L 158.0198 270.8791 L 159.5822 270.5762 L 160.6018 270.3651 L 161.9162 270.0806 L 163.1964 269.6474 L 164.6103 269.1739 L 165.514 268.7369 L 167.1234 267.999 L 168.0492 267.5681 L 168.9834 266.9156 L 170.3059 265.767 L 170.9734 265.0576 L 171.2705 264.0229 L 171.7628 262.5471 L 172.1495 261.2157 L 172.4158 260.037 L 172.7435 259.0309 L 173.2422 257.5265 L 173.5882 255.819 L 173.9806 254.0974 L 174.3776 252.5039 L 174.6645 251.4486 L 174.9758 249.9934 L 175.2931 248.788 L 175.6452 247.4829 L 175.9729 245.8466 L 176.1561 244.9704 L 176.4285 243.7529 L 176.7215 242.4603 L 177.1776 240.834 L 177.3544 239.9498 L 177.5376 238.8869 L 177.786 237.4397 L 177.7472 236.3276 L 177.6965 234.9291 L 177.1776 234.0225 L 176.5672 233.2015 L 175.9424 232.4167 L 175.0672 231.6891 L 173.7143 231.0895 L 172.1495 230.7134 L 171.2012 230.571 L 169.6364 230.4327 L 168.6862 230.3984 L 167.1234 230.3679 L 166.1731 230.3313 L 164.6103 230.2948 L 163.6563 230.1401 L 162.5411 229.9062 L 163.1861 229.1321 L 164.5634 227.3961 L 165.7438 226.2292 L 166.5111 225.5644 L 167.1824 224.9465 L 168.1041 224.0585 L 169.6364 222.607 L 170.9692 221.247 L 172.1495 220.0561 L 173.4701 218.6919 L 174.6645 217.4744 L 175.8079 216.277 L 177.1776 214.8644 L 178.0055 213.9863 L 179.5866 212.3299 L 180.6409 211.5025 L 182.2033 210.3988 L 183.1456 210.1466 L 184.3339 209.8194 L 185.5672 209.4781 L 187.2314 209.0815 L 188.1797 208.9516 L 189.7445 208.7238 L 190.6947 208.6182 L 192.2576 208.4106 L 193.2078 208.2685 L 194.7706 207.9797 L 195.7208 207.8578 L 197.2856 207.622 L 198.6183 207.4148 L 199.5686 207.2906 L 200.747 207.1401 L 202.3118 206.9024 L 203.262 206.6971 L 204.8245 206.2845 L 205.7751 206.1321 L 207.3375 205.8414 L 208.2877 205.6989 L 209.8525 205.441 L 210.7905 205.2765 L 212.3656 204.9999 L 214.7788 204.8372 L 216.8686 204.6707 L 218.1446 204.577 L 219.9067 204.4265 L 221.0318 204.2193 L 222.4198 203.9328 L 223.9949 203.7865 L 224.9329 203.6806 L 225.8831 203.5873 L 227.4456 203.4589 L 228.3962 203.3637 L 229.9609 203.2296 L 230.9089 203.1279 L 232.4736 202.9816 L 233.4219 202.8757 L 234.9867 202.7214 L 235.9369 202.6113 L 237.4998 202.4509 L 238.6515 202.2882 L 240.0129 202.1663 L 241.5654 201.9976 L 242.5278 201.8696 L 243.4761 201.7476 L 245.0409 201.5625 L 245.9911 201.3937 L 247.554 201.1579 L 248.5042 201.0078 L 250.0667 200.7697 L 251.0173 200.6436 L 252.582 200.4486 L 253.5159 200.3206 L 254.4131 200.2151 L 256.2549 199.9709 L 257.3678 199.8166 L 259.1299 199.6051 L 260.1209 199.5118 L 261.0711 199.4505 L 262.634 199.3065 L 263.5842 199.2474 L 265.1489 199.1011 L 266.0973 199.0524 L 267.662 198.9301 L 268.6122 198.9404 L 270.1751 198.9526 L 271.1253 198.9769 L 272.6882 199.0158 L 273.6384 199.0402 L 275.2032 199.0806 L 276.1511 199.103 L 277.7162 199.1415 L 278.6642 199.1621 L 280.2289 199.1945 L 281.1791 199.2169 L 282.742 199.2535 L 283.6922 199.2737 L 285.2551 199.3084 L 286.2053 199.3004 L 287.7701 199.3042 L 288.7184 199.2699 L 290.2831 199.2493 L 291.2334 199.1987 L 292.7962 199.1621 L 293.7464 199.0238 L 295.3093 198.8752 L 296.2595 198.7472 L 297.8243 198.5807 L 298.7722 198.4565 L 300.3373 198.2657 L 301.8918 197.8874 L 302.85 197.6782 L 303.8064 197.5236 L 305.3124 197.2798 L 307.1599 196.9788 L 308.8733 196.7045 L 310.3912 196.4607 L 311.3395 196.3079 L 312.9043 196.0599 L 313.8442 195.8649 L 314.7639 195.6679 L 316.6118 195.2062 L 317.9304 194.7936 L 319.5824 194.2367 L 320.4454 193.9178 L 322.0608 193.4134 L 322.9585 193.1189 L 323.9472 192.7326 L 325.1782 192.2446 L 326.967 191.3421 L 327.9842 190.9052 Z" stroke="currentColor" id="voyager-deck-5" />
  <path d="M 120.2322 165.9943 L 120.2642 165.9943 L 120.2642 166.0107 L 120.2695 166.0107 L 120.2695 175.5971 L 120.2642 175.5971 L 120.2642 189.6153 C 137.9574 189.485 181.9808 189.0701 220.9171 187.9714 C 213.7879 161.0426 213.3417 133.7515 220.903 106.0261 C 181.9469 104.927 137.9022 104.5122 120.2322 104.3823 L 120.2322 165.9943 Z M 233.8681 187.5722 C 256.506 186.8103 275.9781 185.7809 285.3096 184.3957 C 285.9397 184.302 287.0321 184.1744 287.1083 183.9215 C 288.2577 180.1222 289.7261 173.6893 291.6429 168.7787 C 282.8468 166.9406 275.9617 159.907 274.3509 151.0383 L 274.3509 143.0617 C 275.964 134.1805 282.8662 127.1396 291.6799 125.3136 C 289.7448 120.3909 288.265 113.9001 287.1083 110.0764 C 287.0321 109.8235 285.9397 109.6959 285.3096 109.6022 C 275.9743 108.2162 256.49 107.1869 233.8399 106.4246 C 225.2201 133.4547 225.5859 160.5058 233.8681 187.5722 Z M 131.77 197.4249 L 131.77 262.4599 L 123.785 262.4599 L 123.785 197.5232 C 122.5182 197.5381 121.3424 197.5514 120.2642 197.5632 L 120.2642 197.6436 L 112.2792 197.6436 L 112.2792 175.5971 L 112.2472 166.0107 L 112.2472 151.0383 L 61.4462 151.0383 L 61.4462 143.0617 L 112.2472 143.0617 L 112.2472 99.3288 L 112.2792 99.3288 L 112.2792 96.3547 C 112.2792 96.3547 116.5551 96.3905 123.785 96.4747 L 123.785 31.5378 L 131.77 31.5378 L 131.77 96.573 C 171.8001 97.0915 261.5173 98.6363 285.3096 102.2679 C 286.9905 102.5243 292.0971 102.759 292.5051 103.8493 C 294.8578 110.1355 296.2412 124.8794 297.702 124.6584 L 297.702 124.8995 C 309.2821 125.6634 318.4387 135.2883 318.4387 147.05 C 318.4387 158.8117 309.2821 168.4366 297.702 169.2005 L 297.702 169.3395 C 296.2412 169.1185 294.8578 183.8624 292.5051 190.1486 C 292.0971 191.2389 286.9905 191.4736 285.3096 191.73 C 261.5169 195.362 171.7998 196.9064 131.77 197.4249 Z" stroke="currentColor" id="hallway"/>
  <path d="M 57.9615 180.5484 L 58.1094 180.4025 L 56.4029 179.7004 L 55.6401 178.9869 L 54.9509 178.0208 L 54.0182 177.3998 L 52.4237 176.3503 L 51.3558 175.6367 L 50.1781 174.8539 L 49.2477 174.2348 L 48.5409 173.5807 L 47.6395 172.663 L 46.863 171.7948 L 46.2416 170.8729 L 45.6834 169.3898 L 45.3089 168.4911 L 45.2956 167.008 L 45.2838 166.1071 L 45.2838 127.9906 L 45.2956 126.5076 L 45.3089 125.6089 L 45.8671 124.1258 L 46.2435 123.2252 L 46.863 122.3033 L 47.6395 121.437 L 48.5409 120.5174 L 49.2477 119.8652 L 50.5953 118.9684 L 51.632 118.2743 L 53.0569 117.3329 L 54.0182 116.6983 L 54.9509 116.0792 L 55.7792 114.9394 L 57.0864 114.0483 L 58.1113 113.6956 L 57.9653 113.5516 L 61.4462 113.5516 L 61.4462 180.5484 L 57.9615 180.5484 Z" id="room-44" stroke="currentColor" name="Upper Aft Sensors"/>
<path d="M 292.8061 104.7133 L 301.5935 97.9353 L 302.5193 98.1376 L 303.4414 98.2869 L 304.9787 98.5342 L 307.3771 98.925 L 308.5624 99.1136 L 309.8048 99.3121 L 311.3147 99.5517 L 312.2325 99.7007 L 313.1409 99.8892 L 314.6607 100.2115 L 315.8143 100.5254 L 317.2259 100.9597 L 318.6825 101.4622 L 319.518 101.7708 L 321.079 102.2558 L 321.9461 102.5422 L 322.9013 102.9156 L 324.7141 103.711 L 325.9329 104.3038 L 326.8016 104.679 L 327.7511 105.1701 L 329.2316 106.1442 L 330.3304 107.1316 L 331.9718 108.5515 L 332.5478 109.7751 L 333.3499 111.401 L 334.4864 113.4868 L 335.1684 114.4354 L 335.8664 115.5154 L 336.5152 116.075 L 337.494 116.9627 L 338.9429 118.3413 L 340.0909 119.1974 L 340.8853 119.7452 L 341.7482 120.3658 L 342.9316 121.234 L 344.2586 122.7913 L 345.0687 124.0207 L 345.796 125.2184 L 346.2284 126.0058 L 346.6902 126.8859 L 347.0834 127.6436 L 347.6122 128.759 L 348.3319 130.3244 L 348.6561 131.1393 L 349.193 132.4943 L 349.6216 133.8022 L 349.9595 134.9214 L 350.1386 135.9527 L 350.4194 137.8201 L 350.6122 139.2891 L 350.7341 140.2061 L 351.0862 142.8964 L 351.2591 144.2458 L 351.3632 145.098 L 351.5026 146.3353 L 351.5026 147.7647 L 351.3632 149.0001 L 351.2591 149.8523 L 350.978 152.0322 L 350.7341 153.8939 L 350.6141 154.809 L 350.3566 156.753 L 350.1306 158.2064 L 349.9595 159.1786 L 349.5096 160.614 L 349.193 161.6038 L 348.6561 162.9607 L 348.2298 164.0289 L 347.5985 165.3665 L 347.0834 166.4545 L 346.6902 167.2122 L 346.2284 168.0922 L 345.796 168.8816 L 344.8366 170.4233 L 343.8007 171.9609 L 342.9316 172.8641 L 341.6027 173.8401 L 340.8853 174.3548 L 340.0909 174.9007 L 338.4335 176.1575 L 337.494 177.1354 L 336.5152 178.0231 L 335.8664 178.5846 L 335.1684 179.665 L 334.0871 181.2456 L 332.9685 183.4354 L 332.5478 184.323 L 331.4727 186.1257 L 330.3304 186.9661 L 328.9444 188.2857 L 327.7511 188.9299 L 326.8016 189.4191 L 325.8186 189.8412 L 324.0908 190.7132 L 322.9013 191.1844 L 321.9461 191.5578 L 321.079 191.8423 L 319.518 192.3292 L 318.6848 192.6378 L 317.0884 193.1757 L 315.8143 193.5746 L 314.0293 194.0203 L 313.1409 194.2108 L 312.2325 194.3993 L 310.7207 194.639 L 309.8048 194.786 L 308.3383 195.0218 L 306.6829 195.287 L 304.8979 195.5776 L 303.4433 195.8131 L 302.5193 195.9624 L 292.8061 189.2846 C 294.9782 182.611 296.3048 169.1281 297.702 169.3395 L 297.702 169.2005 C 309.2821 168.4366 318.4387 158.8117 318.4387 147.05 C 318.4387 135.2883 309.2821 125.6634 297.702 124.8995 L 297.702 124.6584 C 296.3048 124.8698 294.9782 111.3869 292.8061 104.7133 Z" id="room-45" stroke="currentColor" name="Cultural Studies Center"/>
<path d="M 233.7267 187.3619 C 225.4232 160.1576 225.4232 133.249 233.7267 106.6356 C 257.2375 107.3739 276.6944 108.3404 285.1941 109.6022 C 285.8243 109.6959 286.9166 109.8235 286.9928 110.0764 C 288.1495 113.9001 289.6293 120.3909 291.5644 125.3136 C 282.7504 127.1396 275.8486 134.1805 274.2354 143.0617 C 273.8418 145.1593 273.8418 147.8184 274.2354 151.0383 C 275.8463 159.907 282.7313 166.9406 291.5275 168.7787 C 289.6107 173.6893 288.1423 180.1222 286.9928 183.9215 C 286.9166 184.1744 285.8243 184.302 285.1941 184.3957 C 276.6948 185.6575 257.2379 186.624 233.7267 187.3619 Z" id="room-46" stroke="currentColor" name="Sickbay"/>
<path d="M 169.3583 189.0568 C 148.4048 189.3798 130.1907 189.5425 120.2642 189.6153 L 120.2642 175.5971 L 120.2695 175.5971 L 120.2695 166.0107 L 120.2642 166.0107 L 120.2642 165.9943 L 120.2322 165.9943 L 120.2322 104.3823 C 130.1511 104.4554 148.382 104.6181 169.3583 104.9411 L 169.3583 189.0568 Z" id="room-47" stroke="currentColor" name="Briefing Room"/>
<path d="M 35.6084 188.4 L 61.4462 183.1268 L 61.4462 193.6732 L 35.6084 188.4 Z" id="room-48" stroke="currentColor" name="Upper Aft Laser Battery"/>
<path d="M 35.6084 105.7129 L 61.4462 100.4401 L 61.4462 110.9862 L 35.6084 105.7129 Z" id="room-49" stroke="currentColor" name="Morgue"/>
<path d="M 285.4041 166.5132 C 287.2946 167.552 289.3524 168.3242 291.5275 168.7787 C 289.6107 173.6893 288.1423 180.1222 286.9928 183.9215 C 286.9166 184.1744 285.8243 184.302 285.1941 184.3957 C 276.6948 185.6575 257.2379 186.624 233.7267 187.3619 C 231.5996 180.393 230.0173 173.4436 228.9799 166.5132 L 285.4041 166.5132 Z" id="room-50" stroke="currentColor" name="Officer's Quarters"/>
<path d="M 98.221 197.6436 h 25.3777 v 37.5227 h -25.146 v -37.3339 Z" id="room-51" stroke="currentColor" name="Officer's Quarters"/>
<path d="M 123.5987 235.1661 L 123.5987 260.5174 L 86.0367 260.5174 L 86.0367 235.1661 L 123.5987 235.1661 Z" id="room-52" stroke="currentColor" name="Officer's Quarters"/>
<path d="M 132.1064 197.6436 h 25.3777 v 37.5227 h -25.146 v -37.3339 Z" id="room-53" stroke="currentColor" name="Officer's Quarters"/>
<path d="M 132.1064 235.1661 L 157.4841 235.1661 L 157.4841 268.3845 L 150.2797 272.6886 L 132.1064 272.6886 L 132.1064 235.1661 Z" id="room-54" stroke="currentColor" name="Officer's Quarters"/>
<path d="M 98.221 58.8863 h 25.3777 v 37.5227 h -25.146 v -37.3339 Z" id="room-55" stroke="currentColor" name="Officer's Quarters"/>
<path d="M 123.5987 58.8863 L 123.5987 33.5353 L 86.0367 33.5353 L 86.0367 58.8863 L 123.5987 58.8863 Z" id="room-56" stroke="currentColor" name="Officer's Quarters"/>
<path d="M 132.1064 58.8863 h 25.3777 v 37.5227 h -25.146 v -37.3339 Z" id="room-57" stroke="currentColor" name="Officer's Quarters"/>
<path d="M 132.1064 58.8863 L 157.4841 58.8863 L 157.4841 25.668 L 150.2797 21.3637 L 132.1064 21.3637 L 132.1064 58.8863 Z" id="room-58" stroke="currentColor" name="Officer's Quarters"/>
<path d="M 86.8238 151.0722 h 25.3777 v 37.5227 h -25.146 v -37.3339 Z" id="room-59" stroke="currentColor" name="Officer's Quarters"/>
<path d="M 61.4462 151.0722 h 25.3777 v 37.5227 h -25.146 v -37.3339 Z" id="room-60" stroke="currentColor" name="Officer's Quarters"/>
<path d="M 195.1379 188.5951 L 195.1379 151.9823 L 215.4928 151.9823 C 215.9138 164.0537 217.7605 176.0482 220.9171 187.9714 C 212.4566 188.2103 203.7561 188.4168 195.1379 188.5951 Z" id="room-61" stroke="currentColor" name="Refridgeration Units"/>
<path d="M 195.1379 188.5951 C 186.3452 188.7768 177.6378 188.9292 169.3583 189.0568 L 169.3583 104.9411 C 185.7485 105.1937 203.8156 105.5438 220.903 106.0261 C 216.709 121.405 214.9785 136.6502 215.4856 151.7743 L 215.4928 151.9823 L 195.1379 151.9823 L 195.1379 188.5951 Z" id="room-62" stroke="currentColor" name="Kitchen"/>
<path d="M 169.3583 189.0568 C 169.3583 189.0568 130.3439 189.5414 120.2642 189.6153 L 120.2642 175.5971 L 120.2695 175.5971 L 120.2695 166.0107 L 120.2642 166.0107 L 120.2642 165.9943 L 120.2322 165.9943 L 120.2322 104.3823 C 130.2871 104.4562 169.3583 104.9411 169.3583 104.9411 L 169.3583 189.0568 Z" id="room-63" stroke="currentColor" name="Messroom"/>
<path d="M 61.4462 105.7129 h 50.7553 v 37.1281 h -50.673 v -36.953 Z" id="room-64" stroke="currentColor" name="Officer's Messroom"/>
</svg>