<svg viewBox="0 0 1000 772" version="1.1" xmlns="http://www.w3.org/2000/svg" xmlns:xlink="http://www.w3.org/1999/xlink" xml:space="preserve" style="fill-rule:evenodd;clip-rule:evenodd;stroke-miterlimit:1.41421;">
  <path d="M881.763,452.403L884.305,450.535L886.885,448.652L889.822,446.48L892.541,444.378L894.955,442.441L898.095,440.152L900.055,438.722L903.745,435.772L908.152,432.421L909.893,429.075L911.324,425.543L912.387,420.725L913.102,417.337L913.786,413.527L914.747,408.026L915.281,403.997L915.5,401.671L915.719,399.179L915.906,396.09L916.115,392.59L916.285,389.586L916.488,386L916.317,382.996L916.115,379.405L915.928,376.262L915.719,372.815L915.5,370.324L915.281,367.992L914.94,365.132L914.117,360.266L913.38,356.195L912.793,353.041L911.746,348.223L910.074,343.394L908.499,339.862L904.878,337.066L901.55,334.574L898.421,332.083L894.955,329.553L892.535,327.617L889.913,325.584L886.885,323.348L884.3,321.459L882.441,320.088L879.968,318.284L876.956,316.086L874.505,314.304L871.915,312.415L868.566,309.982L865.634,307.912L863.097,306.103L859.903,303.942L857.308,302.181L855.374,300.863L852.528,299.172L848.778,296.862L845.366,295.01L843,293.724L839.742,290.619L836.329,287.135L833.803,283.229L832.099,280.545L830.401,277.712L828.986,275.343L826.203,272.483L822.39,269.644L819.02,267.36L815.789,266.379L810.881,264.853L808.322,263.983L803.468,262.27L800.087,261.342L797.037,260.547L794.127,259.896L791.28,259.266L788.433,258.62L783.776,257.575L776.839,256.107L771.626,254.683L767.589,253.621L765.036,253.029L762.136,252.351L757.297,251.268L750.258,249.336L743.737,248.21L739.961,247.592L736.628,247.143L731.555,246.754L728.975,246.615L724.489,246.567L717.765,246.492L711.062,246.439L704.37,246.396L697.694,246.37L691.018,246.359L684.305,246.364L677.768,246.386L671.167,246.423L664.571,246.471L657.975,246.524L651.379,246.508L644.783,246.103L638.182,245.756L631.586,245.324L624.991,244.796L618.395,244.113L611.794,242.896L605.198,241.792L602.309,241.317L599.959,241.002L595.665,240.41L591.494,239.844L586.238,238.793L579.14,236.787L572.347,235.319L567.583,234.407L565.105,234.007L560.64,233.169L557.473,232.438L552.944,230.971L546.022,229.69L539.309,228.623L534.93,227.817L532.12,227.391L527.517,226.692L524.408,226.195L520.04,225.427L513.038,223.559L506.143,222.332L503.104,221.623L500.541,220.838L492.994,216.047L491.146,214.062L486.398,208.715L480.588,202.217L478.783,200.146L474.451,195.403L472.747,193.487L468.502,188.813L466.248,186.3L462.418,182.085L459.716,179.102L456.367,175.421L453.179,171.846L450.375,168.762L452.426,163.559L454.835,160.998L458.525,158.784L460.619,157.386L462.595,156.041L463.759,154.04L464.026,150.007L463.62,147.221L462.418,143.646L460.822,139.079L459.561,135.547L458.482,132.554L457.633,130.2L456.586,127.292L455.411,124.027L453.729,119.358L452.57,116.157L451.7,113.74L450.61,110.709L449.371,107.273L448.372,104.504L447.021,100.753L445.6,96.8095L443.384,90.6681L442.124,87.1625L440.559,82.8193L439.763,80.6103L438.893,78.2092L437.103,74.5489L434.946,71.3208L433.562,69.3359L427.73,65.4409L424.488,63.4986L420.787,61.1616L416.226,57.0424L413.887,53.0193L412.317,50.3354L410.464,48.2172L407.521,44.925L400.61,43.2763L394.004,43.2283L347.828,43.2283L340.97,43.4417L335.159,45.7841L329.21,49.3644L327.111,50.5596L321.476,54.3799L315.858,56.13L313.107,56.8343L308.536,57.512L301.614,58.6112L295.317,60.4466L289.32,61.8126L284.988,62.7303L281.864,63.5147L275.962,65.6329L273.5,66.4813L269.57,67.7139L265.126,69.1011L262.328,70.323L259.791,71.9825L257.852,73.2417L255.043,75.0932L251.497,78.1559L248.447,81.2986L245.008,84.8415L241.851,88.0963L238.513,91.5378L235.255,94.8993L232.013,98.2342L228.654,101.697L225.503,104.946L222.058,108.495L218.982,111.664L215.463,115.292L212.45,118.398L208.867,122.095L205.908,125.142L202.266,128.893L199.35,131.908L196.615,134.73L194.511,136.934L192.759,138.77L189.555,142.136L186.201,145.994L183.813,148.726L184.235,151.191L184.956,155.321L189.074,156.746L194.132,158.645L196.919,159.67L201.128,160.94L204.514,161.911L208.867,162.647L213.823,163.501L216.333,164.013L221.188,165.235L228.067,166.008L234.748,166.457L241.338,166.729L247.934,166.851L254.53,167.182L258.514,168.383L260.779,174.578L259.988,181.173L258.888,187.762L257.793,194.352L256.709,200.941L255.593,207.531L255.187,210.097L254.653,213.475L254.322,215.796L253.697,220.07L252.666,227.033L250.781,233.991L248.885,239.881L245.969,247.09L242.246,251.513L235.768,253.493L230.401,254.122L227.997,254.341L222.518,254.864L215.975,255.472L209.379,256.091L202.778,256.71L196.182,258.119L189.587,258.887L182.991,259.512L176.395,260.136L172.133,260.547L169.639,260.771L166.648,261.075L162.685,261.48L157.355,262.035L150.327,262.766L143.512,264.447L136.761,265.37L130.214,266.053L123.618,266.731L120.883,267.008L116.84,267.36L114.165,268.043L109.908,269.196L104.493,270.018L97.603,270.914L90.7935,272.371L88.5238,273.955L85.8427,279.558L85.5116,281.991L85.8907,285.689L86.6919,288.111L89.2555,292.214L93.4105,294.252L96.1771,294.77L102.719,295.223L109.272,295.618L115.82,296.002L122.363,296.381L128.889,296.76L135.405,297.144L141.894,297.625L148.244,298.782L151.176,299.076L154.407,299.257L158.343,299.497L162.685,299.78L165.094,300.319L162.685,301.381L159.283,306.412L156.522,308.808L150.119,313.055L143.405,317.532L140.681,319.885L136.638,324.33L135.015,326.507L132.264,332.755L131.949,339.35L131.928,345.939L131.928,431.62L131.971,438.21L134.716,444.97L136.174,447.147L140.099,451.549L142.668,453.924L148.703,457.984L155.486,462.509L159.118,464.921L162.301,469.573L165.099,471.676L162.685,472.214L158.338,472.497L154.407,472.737L151.171,472.919L148.244,473.212L144.142,474.082L137.295,474.733L130.593,475.138L123.917,475.523L117.252,475.912L110.597,476.302L103.948,476.702L97.3093,477.102L93.4212,477.742L90.1473,478.239L86.6919,483.889L85.8907,486.306L85.5116,490.004L85.8427,492.437L88.0271,497.058L89.7949,499.187L96.0382,500.819L102.426,501.684L108.728,502.617L112.253,503.439L116.509,504.592L120.873,504.986L123.618,505.264L129.188,505.84L135.784,506.523L142.487,507.377L148.874,509.026L155.256,509.746L161.42,510.386L165.329,510.786L169.281,511.187L172.117,511.448L175.247,511.757L181.965,512.392L188.561,513.017L195.157,513.748L201.753,515.162L208.354,515.823L214.95,516.442L221.546,517.051L227.992,517.653L230.385,517.872L234.63,518.347L241.338,520.023L245.371,524.051L248.121,530.262L250.418,536.873L252.447,543.654L253.451,549.983L254.322,556.199L254.653,558.52L255.043,560.926L255.443,563.445L256.549,570.029L257.665,576.618L258.755,583.208L259.849,589.803L260.848,596.393L258.979,602.982L255.363,604.652L248.96,605.031L242.364,605.154L235.768,605.421L229.007,605.88L222.646,606.456L216.333,607.982L213.823,608.499L210.506,609.054L206.095,609.817L202.725,610.538L196.919,612.325L194.132,613.35L190.612,614.678L187.018,615.964L184.54,618.835L183.808,623.269L186.201,626.001L189.074,629.298L191.397,631.8L194.527,635.087L196.604,637.248L198.596,639.313L202.201,643.037L205.021,645.945L208.6,649.632L211.468,652.588L214.993,656.222L217.925,659.242L221.391,662.812L224.398,665.912L227.784,669.401L230.876,672.592L234.176,675.991L237.365,679.278L240.575,682.586L243.865,685.974L246.968,689.175L250.364,692.676L253.36,695.765L257.847,698.753L259.796,700.018L262.328,701.672L265.126,702.894L268.24,703.854L273.5,705.513L275.962,706.362L280.657,708.058L283.44,708.95L288.027,709.894L293.341,711.057L300.53,713.101L307.339,714.253L313.091,715.16L315.852,715.865L319.58,716.953L327.111,721.44L329.204,722.63L333.44,725.405L339.336,727.934L345.905,728.718L353.558,728.772L399.734,728.772L406.111,728.051L410.469,723.778L412.322,721.659L413.887,718.981L415.18,716.516L419.383,711.858L423.03,709.451L426.112,707.621L431.998,703.769L433.963,702.355L437.103,697.446L438.519,694.837L439.763,691.39L440.559,689.175L441.371,686.929L442.935,682.586L444.858,677.25L446.359,673.083L447.683,669.401L449.371,664.722L450.61,661.286L451.7,658.255L452.575,655.838L453.729,652.636L454.813,649.632L456.586,644.702L457.633,641.794L458.482,639.447L459.55,636.475L460.656,633.39L461.916,629.858L463.62,624.773L464.026,621.988L463.759,617.954L462.589,615.953L460.619,614.609L458.525,613.216L454.835,610.996L452.955,609.593L450.108,604.129L452.725,600.661L455.86,597.156L459.262,593.41L461.906,590.497L465.799,586.212L467.951,583.832L472.406,578.907L474.003,577.131L478.783,571.848L480.588,569.783L485.181,564.698L491.146,557.933L492.994,555.953L498.447,551.994L501.887,550.767L505.187,549.871L511.852,548.713L518.213,546.952L524.408,545.799L527.517,545.303L530.128,544.908L533.53,544.391L537.29,543.692L544.719,542.507L551.203,541.467L557.473,539.557L560.64,538.831L562.974,538.383L566.349,537.79L570.173,537.049L577.65,535.555L584.054,533.693L590.153,532.401L593.913,531.83L598.089,531.281L602.319,530.678L604.685,530.262L610.768,529.221L617.369,527.983L623.965,527.263L630.561,526.724L637.157,526.287L643.758,525.94L650.354,525.518L656.95,525.486L663.545,525.529L670.141,525.582L676.742,525.62L683.338,525.641L690.036,525.652L696.471,525.641L702.992,525.62L709.508,525.582L716.013,525.529L722.502,525.465L728.975,525.385L731.549,525.241L735.106,524.995L738.3,524.627L741.547,524.147L749.307,522.888L755.924,521.068L762.136,519.644L765.036,518.966L767.594,518.374L769.896,517.814L775.728,516.165L782.174,514.799L788.433,513.38L791.275,512.734L794.127,512.099L797.037,511.453L800.092,510.658L802.597,510.055L808.322,508.017L810.881,507.142L814.101,506.16L817.407,505.125L820.659,503.546L825.466,500.072L828.158,498.039L830.401,494.283L832.099,491.45L833.803,488.771L835.581,486.013L838.717,482.416L842.177,479.023L845.366,476.99L848.778,475.133L851.844,473.244L854.424,471.676L856.384,470.454L859.903,468.058L861.97,466.703L864.229,465.086L867.508,462.754L870.056,460.935L873.405,458.496L876.956,455.909L879.968,453.71L881.763,452.403Z" stroke="currentColor" stroke-width="3" id="voyager-deck-4" />
  <path d="M391.438,276.007C384.136,275.814 365.041,275.478 365.041,275.478L285.718,328.549L285.763,442.964L364.943,496.277C364.943,496.277 382.798,495.954 391.438,495.726L391.438,276.007ZM412.396,276.569L412.396,495.163C438.546,494.45 469.971,493.557 509.311,492.445C509.311,492.445 530.268,421.392 530.268,385.866C530.268,351.172 509.311,279.287 509.311,279.287C469.982,278.175 438.553,277.283 412.396,276.569ZM530.315,279.912C531.529,281.368 555.262,346.725 554.869,383.383C554.49,418.699 530.268,491.821 530.268,491.821C592.029,489.883 726.219,487.345 748.541,484.031C750.195,483.785 753.062,483.45 753.262,482.786C756.279,472.813 760.133,455.927 765.164,443.037C742.077,438.212 724.006,419.749 719.778,396.469C718.745,388.017 718.745,381.037 719.778,375.531C724.012,352.218 742.127,333.736 765.261,328.943C760.182,316.021 756.298,298.983 753.262,288.946C753.062,288.282 750.195,287.947 748.541,287.701C726.224,284.388 592.096,281.85 530.315,279.912C530.289,279.88 530.273,279.879 530.268,279.911L530.315,279.912ZM780.512,425.467C800.841,423.77 816.81,406.748 816.81,386C816.81,364.126 799.061,346.394 777.167,346.394C755.272,346.394 737.523,364.126 737.523,386C737.523,407.874 755.272,425.606 777.167,425.606C777.273,425.606 777.379,425.606 777.485,425.605C778.465,425.31 779.474,425.253 780.512,425.467ZM264.824,327.126L370.48,253.678L370.48,112.58L391.438,112.58L391.438,253.935C525.237,255.635 691.714,259.774 748.541,268.449C752.953,269.122 766.356,269.738 767.427,272.6C773.602,289.101 777.233,327.803 781.067,327.223L781.067,327.856C811.461,329.861 835.494,355.126 835.494,386C835.494,416.874 811.461,442.139 781.067,444.144L781.067,444.509C777.233,443.929 773.602,482.631 767.427,499.132C766.356,501.994 752.953,502.61 748.541,503.283C692.893,511.778 523.746,515.923 391.438,517.688L391.438,659.42L370.48,659.42L370.48,518.737L264.824,443.342L264.824,327.126Z" stroke="currentColor" stroke-width="2" id="hallway"/>
  <path d="M412.396,494.294L412.396,277.438C438.692,277.974 483.018,278.587 507.78,279.287C510.186,278.27 523.125,328.666 529.457,366.198C530.298,377.078 530.482,387.882 530.025,398.612C524.963,434.491 510.255,490.895 507.78,492.445C483.018,493.145 438.691,493.758 412.396,494.294Z" id="room-36" stroke="currentColor" name="Damage Control Center"/>
<path d="M530.315,279.912C592.096,281.85 726.224,284.388 748.541,287.701C750.195,287.947 753.062,288.282 753.262,288.946C756.298,298.983 760.182,316.021 765.261,328.943C742.127,333.736 724.012,352.218 719.778,375.531C718.745,381.037 718.745,388.017 719.778,396.469C724.006,419.749 742.077,438.212 765.164,443.037C760.133,455.927 756.279,472.813 753.262,482.786C753.062,483.45 750.195,483.785 748.541,484.031C726.219,487.345 592.029,489.883 530.268,491.821C530.268,491.821 554.49,418.699 554.869,383.383C555.262,346.725 531.529,281.368 530.315,279.912L530.268,279.911C530.273,279.879 530.289,279.88 530.315,279.912ZM528.45,408.066L528.45,363.97C529.579,372.058 530.268,379.574 530.268,385.866C530.268,392.309 529.579,399.921 528.45,408.066Z" id="room-37" stroke="currentColor" name="Security Information Center"/>
<path d="M764.112,445.833L764.112,442.807C764.461,442.887 764.812,442.963 765.164,443.037C764.807,443.95 764.457,444.883 764.112,445.833ZM764.112,329.193L764.112,325.899C764.488,326.935 764.871,327.951 765.261,328.943C764.876,329.023 764.494,329.106 764.112,329.193ZM764.112,270.679L764.112,270.487L778.533,264.831L781.255,265.433L784.038,266.056L786.953,266.816L790.186,267.703L794.827,269.341L797.273,270.172L801.966,271.631L805.055,272.57L808.277,274.753L811.923,277.467L814.583,280.202L815.936,282.467L817.56,285.176L819.189,287.742L821.604,291.476L824.867,294.807L827.982,297.776L830.244,299.006L833.507,300.776L837.091,302.985L839.813,304.602L841.661,305.862L844.143,307.545L847.197,309.611L849.622,311.341L852.425,313.32L855.627,315.646L858.103,317.452L860.447,319.156L863.327,321.258L865.691,322.982L867.468,324.293L869.94,326.099L872.835,328.237L875.342,330.18L877.655,332.032L880.969,334.45L883.961,336.833L887.143,339.215L890.605,341.888L892.111,345.265L893.709,349.882L894.71,354.489L895.272,357.504L895.976,361.396L896.763,366.048L897.089,368.783L897.299,371.012L897.508,373.394L897.707,376.69L897.886,379.695L898.08,383.128L898.243,386L898.049,389.428L897.886,392.3L897.687,395.647L897.508,398.6L897.299,400.983L897.089,403.207L896.579,407.059L895.66,412.318L895.006,415.961L894.322,419.2L893.306,423.807L891.937,427.184L890.273,430.382L886.06,433.586L882.532,436.407L880.658,437.774L877.655,439.963L875.347,441.815L872.748,443.825L869.94,445.901L867.473,447.702L865.043,449.487L863.327,450.737L860.447,452.839L857.052,455.313L853.85,457.644L851.414,459.384L848.279,461.613L846.119,463.159L844.143,464.455L840.778,466.745L838.904,467.913L836.438,469.413L833.507,471.219L830.244,472.994L827.195,474.938L823.887,478.183L820.889,481.621L819.189,484.258L817.56,486.819L815.936,489.528L813.792,493.119L811.218,495.063L806.623,498.384L803.513,499.894L800.352,500.884L797.273,501.823L794.827,502.659L789.353,504.608L786.958,505.184L784.038,505.944L781.255,506.562L778.528,507.169L764.112,501.263L764.112,501.053C765.868,500.555 767.128,499.931 767.427,499.132C773.602,482.631 777.233,443.929 781.067,444.509L781.067,444.144C811.461,442.139 835.494,416.874 835.494,386C835.494,355.126 811.461,329.861 781.067,327.856L781.067,327.223C777.233,327.803 773.602,289.101 767.427,272.6C767.128,271.801 765.868,271.177 764.112,270.679Z" id="room-38" stroke="currentColor" name="Mission Lounge"/>
<path d="M391.438,276.007C384.136,275.814 365.041,275.478 365.041,275.478L285.718,328.549L285.763,442.964L364.943,496.277C364.943,496.277 382.798,495.954 391.438,495.726L391.438,276.007Z" id="room-39" stroke="currentColor" name="Zoology"/>
<path d="M264.824,255.305L282.715,112.58L370.066,112.58L370.066,253.89L264.824,327.53L166.136,312.004L264.824,255.305Z" id="room-40" stroke="currentColor" name="Air Conditioning Control"/>
<path d="M391.305,517.745L488.901,516.581L485.569,559.243L434.118,615.52L391.41,615.203L391.305,517.745Z" id="room-41" stroke="currentColor" name="Heating Control"/>
<path d="M264.824,516.695L282.715,659.42L370.066,659.42L370.066,518.11L264.824,444.47L166.136,459.996L264.824,516.695Z" id="room-42" stroke="currentColor" name="Air Filtration Center"/>
<path d="M166.136,311.874L264.824,327.53L264.824,444.47L166.136,460.419L166.136,311.874Z" id="room-43" stroke="currentColor" name="Air Pumping Monitoring Station"/>
</svg>