<svg viewBox="0 0 381 294.1" version="1.1" xmlns="http://www.w3.org/2000/svg" xmlns:xlink="http://www.w3.org/1999/xlink" xml:space="preserve" style="fill-rule:evenodd;clip-rule:evenodd;stroke-miterlimit:1.41421;">
  <path d="M 352.614 182.8925 L 353.7654 181.0974 L 354.5041 180.0993 L 354.9621 179.1968 L 355.3301 178.0913 L 355.8673 177.1804 L 356.2624 176.2497 L 357.0172 175.1906 L 357.4321 174.2535 L 357.6641 172.802 L 358.3153 170.9441 L 358.7995 169.6473 L 359.3123 167.2976 L 359.5322 165.3257 L 359.7722 162.3542 L 359.9269 159.9984 L 360.0835 157.6445 L 360.1631 156.4612 L 360.2728 155.3229 L 360.3951 153.7191 L 360.5414 152.0707 L 360.631 150.9731 L 360.751 149.5605 L 360.8447 148.3632 L 360.9404 147.05 L 360.8508 145.8568 L 360.751 144.5395 L 360.6637 143.4096 L 360.5414 142.0271 L 360.4702 141.0903 L 360.3258 139.5169 L 360.1631 137.6365 L 360.0835 136.4555 L 359.9757 134.9393 L 359.8027 132.2562 L 359.6034 129.5465 L 359.3798 127.1438 L 358.9443 125.0135 L 358.3804 123.3041 L 357.9735 121.9422 L 357.4321 119.8446 L 357.0172 118.9094 L 356.2624 117.8503 L 355.8673 116.9196 L 355.3732 116.1085 L 354.9621 114.9009 L 354.5041 114.0026 L 353.7654 113.0026 L 353.1123 111.8986 L 351.991 110.2239 L 351.4032 109.3884 L 350.5566 108.6547 L 349.478 107.7054 L 348.6215 107.1808 L 347.5124 106.6017 L 346.2185 106.0387 L 345.3555 105.6341 L 344.4503 105.2253 L 343.4083 104.6806 L 342.4253 104.2131 L 341.1638 103.703 L 339.4241 102.9956 L 337.8491 102.3472 L 336.9111 101.9567 L 335.6069 101.4611 L 334.3961 101.0016 L 332.4404 100.3144 L 330.6886 99.7818 L 329.3699 99.418 L 327.9743 99.0603 L 326.8569 98.7799 L 325.1519 98.3204 L 323.5322 97.9403 L 322.6388 97.7227 L 321.0356 97.4301 L 319.9326 97.1821 L 318.7583 96.9566 L 317.7757 96.7837 L 316.803 96.6515 L 315.0977 96.3631 L 313.4799 96.1677 L 312.5846 96.0256 L 310.965 95.8873 L 310.0719 95.8202 L 308.4519 95.7958 L 307.5588 95.8202 L 305.9392 95.8648 L 305.0457 95.8793 L 303.4261 95.9177 L 302.5308 95.9318 L 300.9111 95.9745 L 300.0177 95.997 L 298.3981 96.048 L 297.5046 96.0762 L 295.885 96.1292 L 294.9915 96.1555 L 293.3719 96.2084 L 292.4766 96.237 L 290.9587 96.2877 L 289.8172 96.3242 L 288.2341 96.3814 L 286.6408 96.44 L 285.4993 96.493 L 284.1277 96.5619 L 283.088 96.613 L 281.6146 96.7044 L 279.995 96.8324 L 279.0996 96.9505 L 277.12 97.1802 L 275.671 97.3772 L 274.0739 97.5703 L 272.3704 97.6477 L 270.7508 97.5703 L 269.8554 97.8062 L 268.2377 97.7349 L 267.3424 97.8263 L 265.8854 97.7086 L 264.864 97.6801 L 262.8294 97.4218 L 261.5066 97.2389 L 260.1921 96.8324 L 258.9935 96.5132 L 257.4329 96.2267 L 256.4785 96.0419 L 254.6128 95.6332 L 252.9013 95.237 L 251.4528 94.8853 L 250.541 94.6088 L 249.5112 94.3223 L 248.3903 94.0987 L 247.4785 93.9276 L 246.4247 93.7185 L 244.7213 93.3748 L 243.1016 93.0354 L 242.2086 92.7405 L 240.619 92.4297 L 239.5244 92.2304 L 237.7787 91.9379 L 236.7427 91.7771 L 235.695 91.6327 L 233.8574 91.336 L 232.1543 91.0373 L 230.5347 90.7668 L 229.6413 90.598 L 228.0216 90.3077 L 227.1282 90.1104 L 225.5086 89.8136 L 224.6132 89.6266 L 223.4272 89.4152 L 222.3992 89.2182 L 221.2905 89.0045 L 219.5874 88.6894 L 217.9674 88.3927 L 217.0744 88.3523 L 215.4544 88.0921 L 214.5594 88.0228 L 213.0026 87.7321 L 211.9324 87.5755 L 210.0236 87.2014 L 208.7232 86.9313 L 206.8186 86.5024 L 205.3963 86.1793 L 203.6975 85.801 L 201.7906 85.4067 L 200.1283 85.0673 L 198.6694 84.7747 L 197.7596 84.5469 L 196.6387 84.2787 L 194.3576 83.8516 L 192.8294 83.5572 L 191.1283 83.2825 L 189.4313 82.9716 L 187.4227 82.4653 L 186.1021 82.0954 L 184.8917 81.7682 L 183.9434 81.5427 L 181.5179 81.1644 L 180.3071 80.9998 L 179.3588 80.9735 L 177.5559 80.764 L 176.0483 80.6341 L 174.815 80.5365 L 173.5352 80.4207 L 172.5949 80.3331 L 171.0221 80.2314 L 170.0494 80.1522 L 168.5072 79.9998 L 166.8121 79.9773 L 165.1841 79.9449 L 164.2849 79.9388 L 162.6855 79.9102 L 161.7555 79.9042 L 160.1869 79.8779 L 159.2283 79.8718 L 157.6879 79.8474 L 156.6992 79.8394 L 155.2015 79.7944 L 154.1187 79.7598 L 152.8084 79.6501 L 151.201 79.4386 L 149.97 78.2599 L 150.0107 76.7475 L 149.9475 74.8915 L 149.9517 73.6721 L 150.0188 72.5155 L 150.2264 70.9158 L 150.279 70.0232 L 150.5335 68.4255 L 150.7369 66.7039 L 150.9141 64.6388 L 150.977 63.7485 L 151.0627 62.718 L 151.1176 61.6814 L 151.2212 59.8661 L 151.2905 58.3617 L 151.3088 57.4695 L 151.2863 55.9064 L 151.3027 54.8535 L 151.1865 52.9388 L 151.0707 51.6378 L 150.9141 49.9974 L 150.8021 48.8774 L 150.6619 47.1802 L 150.4767 45.9828 L 150.4196 44.8221 L 150.2588 43.3546 L 150.2344 42.3748 L 150.0919 40.9866 L 150.1022 39.8544 L 149.7094 38.035 L 148.9931 36.5735 L 147.6177 34.9961 L 146.6633 34.0631 L 145.886 33.437 L 144.881 33.3395 L 143.373 33.187 L 142.3149 33.3598 L 140.8599 33.5997 L 138.396 34.0387 L 136.2612 34.492 L 135.2032 34.6912 L 134.1653 34.9087 L 132.2973 35.2502 L 130.8061 35.5124 L 129.7195 35.7706 L 128.293 36.1181 L 125.794 36.5735 L 123.7023 37.0105 L 122.6321 37.2056 L 121.5923 37.4109 L 119.5898 37.7728 L 118.2388 38.0065 L 117.3823 38.5328 L 116.599 39.0837 L 115.7257 40.7588 L 115.3169 42.2651 L 114.8364 44.1066 L 114.745 45.2979 L 114.6513 46.6171 L 114.5865 47.68 L 114.5069 49.1273 L 114.46 50.0991 L 114.4013 51.6378 L 114.3686 52.5384 L 114.3301 54.1502 L 114.2893 56.0485 L 114.2729 57.4409 L 114.2729 58.6036 L 114.3118 60.0166 L 114.3461 61.6814 L 114.3808 62.5999 L 114.4276 64.1915 L 114.4764 65.1877 L 114.5396 66.7039 L 114.5987 67.8015 L 114.6696 69.2145 L 114.7492 70.4522 L 114.8387 71.7246 L 115.0422 72.7737 L 115.323 74.2351 L 114.5172 75.1334 L 114.9812 76.0889 L 113.8173 77.2028 L 112.0022 77.6664 L 110.6976 77.6725 L 109.4483 77.6093 L 108.185 77.5464 L 107.021 77.4915 L 105.6719 77.4245 L 104.6176 77.3776 L 103.1588 77.3106 L 102.2208 77.2721 L 100.6438 77.2028 L 98.8306 77.1113 L 97.5082 77.0401 L 96.0451 76.9487 L 93.1229 76.7475 L 90.9538 76.469 L 88.5955 76.3228 L 87.5233 76.2679 L 86.2028 76.1967 L 84.8841 76.1254 L 83.7933 76.0687 L 82.1695 75.9749 L 81.2357 75.9262 L 79.693 75.8389 L 78.0227 75.7475 L 77.1213 75.6946 L 75.5096 75.6073 L 74.5594 75.5707 L 72.9966 75.5056 L 72.0787 75.5319 L 70.4835 75.5277 L 68.6768 75.605 L 66.8983 75.9346 L 65.4554 76.2984 L 64.666 76.7475 L 62.9423 78.2253 L 61.8092 79.258 L 61.618 80.4672 L 61.3837 81.7682 L 62.0104 82.6646 L 62.9423 83.8783 L 64.3322 85.3477 L 65.4554 86.4921 L 66.8861 87.8216 L 67.9685 88.9131 L 69.4559 90.2853 L 70.4835 91.336 L 72.0604 92.7265 L 72.9966 93.6697 L 73.7738 94.3223 L 74.3274 95.5052 L 74.5796 96.8324 L 72.9966 96.997 L 71.3179 97.1597 L 69.6739 97.4503 L 68.7785 97.4747 L 67.1589 97.5722 L 66.2654 97.5947 L 64.6458 97.6416 L 63.7523 97.666 L 62.1327 97.7044 L 61.2393 97.7269 L 59.6196 97.7654 L 58.7243 97.7879 L 57.1066 97.8263 L 56.2112 97.8488 L 54.5916 97.8854 L 53.6985 97.9079 L 52.0785 97.9483 L 51.1854 97.9707 L 49.5654 98.0134 L 48.6724 98.0378 L 47.0527 98.0804 L 46.1574 98.1071 L 44.5374 98.1803 L 43.6443 98.2534 L 42.0247 98.3246 L 41.1312 98.349 L 39.5116 98.3875 L 38.6182 98.4077 L 36.9985 98.4465 L 36.1032 98.4709 L 34.4855 98.5174 L 33.5902 98.546 L 31.9705 98.6031 L 31.0772 98.6355 L 29.4636 98.6984 L 28.2997 98.7452 L 26.7471 98.906 L 25.2413 99.1132 L 24.2443 99.855 L 23.5646 100.4363 L 22.7263 101.1114 L 22.1077 101.8554 L 21.6804 102.6641 L 21.2836 103.5567 L 20.8563 104.3655 L 20.8217 106.0669 L 20.8543 107.6852 L 20.9784 108.5793 L 21.6987 110.4738 L 22.2562 111.3092 L 22.7263 112.0532 L 23.5992 112.7668 L 24.3358 113.3195 L 25.2413 114.0167 L 26.3035 114.147 L 27.7544 114.3299 L 29.5206 114.4091 L 32.4242 114.5352 L 34.7256 114.6346 L 35.9241 114.6876 L 37.0657 114.7382 L 38.6814 114.8198 L 40.3212 114.907 L 42.0247 115.1634 L 43.1395 115.7405 L 43.6748 116.5028 L 43.1395 117.8728 L 42.5638 118.6819 L 42.0917 119.4297 L 41.4425 121.1334 L 41.1762 122.7513 L 41.172 123.6435 L 41.1697 125.2615 L 41.1697 168.8385 L 41.172 170.4565 L 41.1762 171.3487 L 41.4425 172.9666 L 41.8273 173.8592 L 42.3603 175.1255 L 42.8343 175.8733 L 43.6729 176.8269 L 43.1376 178.3614 L 42.0247 178.9389 L 41.1312 179.0341 L 39.2022 179.2559 L 37.8084 179.329 L 35.9221 179.4124 L 34.7277 179.4654 L 33.1792 179.5324 L 30.3691 179.6543 L 28.1328 179.7538 L 27.1032 179.8513 L 25.2413 180.0833 L 24.3379 180.7805 L 23.6013 181.3332 L 22.7263 182.0468 L 22.2583 182.7889 L 21.6987 183.6262 L 21.0455 184.7116 L 20.8543 186.4148 L 20.8217 188.0309 L 20.8217 188.9253 L 21.2836 190.5433 L 21.6804 191.4359 L 22.1077 192.2446 L 22.7263 192.9886 L 23.5646 193.6637 L 24.2422 194.245 L 25.0643 194.871 L 26.2445 195.1232 L 27.7544 195.3346 L 29.4615 195.4016 L 31.0772 195.4645 L 31.9705 195.4969 L 33.5902 195.554 L 34.4855 195.5826 L 36.1032 195.6291 L 36.9985 195.6535 L 38.6182 195.6942 L 39.5116 195.7144 L 41.1312 195.7533 L 42.0247 195.7754 L 43.6443 195.8466 L 44.5374 195.9197 L 46.1574 195.9929 L 47.0527 196.0196 L 48.6724 196.0641 L 49.5654 196.0885 L 51.1854 196.1293 L 52.0785 196.1537 L 53.6985 196.1921 L 54.5916 196.2146 L 56.2112 196.2531 L 57.1066 196.2737 L 58.7243 196.3121 L 59.6196 196.3346 L 61.2393 196.3731 L 62.1327 196.3956 L 63.7523 196.4363 L 64.6458 196.4584 L 66.2654 196.5053 L 67.1589 196.5278 L 68.7785 196.6253 L 69.6739 196.6497 L 71.3179 196.9403 L 72.4125 196.9727 L 74.0447 197.2085 L 74.3194 198.4565 L 73.7738 199.7777 L 72.9966 200.4303 L 72.0787 201.3572 L 71.0146 202.2882 L 69.4948 203.7782 L 68.3876 204.7987 L 66.9329 206.2338 L 65.7831 207.3089 L 64.3894 208.6933 L 63.2864 209.8213 L 62.0676 211.3562 L 61.3837 212.3318 L 61.6119 213.5414 L 61.8092 214.842 L 62.9423 215.8747 L 64.019 216.8035 L 64.9856 217.5376 L 66.2776 218.0111 L 67.9685 218.442 L 69.808 218.5171 L 71.3994 218.5925 L 72.9966 218.5944 L 73.9468 218.5597 L 75.5096 218.4927 L 76.413 218.442 L 78.0227 218.3548 L 79.693 218.2611 L 81.2395 218.1738 L 82.1714 218.1251 L 83.0508 218.074 L 84.8841 217.9746 L 86.2028 217.9052 L 87.521 217.8321 L 88.5977 217.7772 L 90.1827 217.6858 L 93.1008 217.3544 L 95.2515 217.202 L 97.5101 217.0599 L 98.8287 216.9906 L 99.8441 216.9357 L 101.5228 216.8607 L 103.1588 216.7894 L 104.1742 216.7448 L 105.6719 216.6755 L 106.8175 216.6207 L 108.185 216.5536 L 109.4362 216.4907 L 110.6976 216.4275 L 111.9085 216.4336 L 113.2107 216.4397 L 114.4215 217.3525 L 114.5172 218.9666 L 115.323 219.863 L 115.1542 220.7411 L 114.8387 222.3754 L 114.7511 223.6131 L 114.6696 224.8855 L 114.6067 225.9835 L 114.5396 227.3961 L 114.4905 228.3919 L 114.4276 229.9062 L 114.393 230.8251 L 114.3461 232.4186 L 114.3118 234.0815 L 114.2749 235.4983 L 114.2749 236.6591 L 114.2893 238.0515 L 114.2893 239.1814 L 114.3606 240.8504 L 114.4013 242.4603 L 114.4459 243.4318 L 114.5069 244.9727 L 114.5701 246.0356 L 114.6513 247.4829 L 114.7389 248.6741 L 114.8364 249.9934 L 115.0891 251.0361 L 115.4899 252.5039 L 116.2934 254.4491 L 117.3823 255.5672 L 118.2388 256.0956 L 119.2747 256.2742 L 120.7519 256.5386 L 122.634 256.8944 L 123.7023 257.0895 L 125.7757 257.5223 L 127.656 257.864 L 129.2066 258.2015 L 130.8061 258.5874 L 132.0656 258.8133 L 133.3188 259.037 L 135.2032 259.4088 L 136.2612 259.608 L 138.2596 260.037 L 140.1703 260.3844 L 141.788 260.6526 L 143.373 260.9128 L 144.4577 260.8176 L 145.886 260.6629 L 146.6633 260.037 L 147.4977 259.2503 L 148.401 258.0609 L 149.3371 256.6746 L 149.9883 255.0163 L 150.0919 253.1134 L 150.2344 251.7233 L 150.2588 250.7454 L 150.4196 249.2779 L 150.4767 248.1153 L 150.6619 246.9198 L 150.8021 245.2207 L 150.9141 244.1045 L 151.036 243.0416 L 151.1644 241.3506 L 151.2498 239.9498 L 151.2882 238.1936 L 151.3088 236.6305 L 151.2905 235.7383 L 151.2212 234.2339 L 151.1888 233.248 L 151.0627 231.3801 L 150.977 230.3534 L 150.9141 229.4612 L 150.788 227.8574 L 150.6028 226.4875 L 150.3788 224.8855 L 150.2264 223.1842 L 150.0188 221.5845 L 149.9517 220.428 L 149.9475 219.2085 L 149.8824 218.0519 L 150.2668 216.6351 L 150.7735 214.842 L 152.8084 214.4499 L 154.1187 214.3402 L 155.2015 214.3056 L 156.6992 214.2606 L 157.6879 214.2545 L 159.2283 214.2301 L 160.1869 214.2221 L 161.7555 214.1958 L 162.6855 214.1898 L 164.2826 214.1612 L 165.1841 214.1551 L 166.8121 214.1227 L 168.5072 214.1002 L 169.3964 214.0252 L 171.0221 213.8686 L 172.5972 213.7669 L 173.5352 213.6793 L 174.7704 213.5657 L 176.0483 213.4659 L 177.0553 213.3379 L 178.5614 213.2324 L 180.3052 213.1002 L 181.5198 212.9356 L 183.1619 212.7341 L 184.8955 212.3318 L 186.1021 212.0046 L 187.1582 211.7139 L 188.6152 211.3295 L 190.4729 210.9596 L 192.3391 210.6122 L 193.6432 210.3927 L 195.8816 209.984 L 197.7596 209.5531 L 198.6694 209.3253 L 199.7255 209.1078 L 201.1821 208.8255 L 202.9221 208.4655 L 204.8328 208.0449 L 206.2102 207.7378 L 208.0965 207.3089 L 209.7752 206.9534 L 211.2363 206.6708 L 213.0026 206.3679 L 214.5594 206.0772 L 215.4544 206.0079 L 217.0744 205.7477 L 217.9674 205.7073 L 219.5874 205.4106 L 220.4805 205.2681 L 221.7237 205.0121 L 222.837 204.7987 L 223.8036 204.6136 L 225.5086 204.2883 L 227.1282 203.9896 L 228.0216 203.7926 L 229.6413 203.502 L 230.5347 203.3332 L 232.1543 203.0646 L 233.0478 202.902 L 234.9379 202.5972 L 236.3724 202.3675 L 237.7787 202.1621 L 238.8855 201.969 L 240.6213 201.6703 L 242.2086 201.3614 L 243.1016 201.0646 L 244.7213 200.7252 L 245.6147 200.532 L 247.261 200.2189 L 248.388 200.0013 L 249.5135 199.7777 L 250.541 199.4912 L 251.4528 199.2147 L 252.5169 198.9587 L 253.9655 198.6051 L 255.7337 198.2108 L 257.3007 197.9038 L 258.1858 197.735 L 259.376 197.4729 L 260.8635 197.0318 L 262.6157 196.7186 L 264.0197 196.562 L 265.8854 196.3914 L 267.3424 196.2737 L 268.2377 196.3651 L 269.8554 196.2938 L 270.7508 196.5297 L 272.3704 196.4523 L 273.2639 196.5803 L 274.9323 196.6272 L 276.5866 196.8367 L 278.8657 197.1129 L 279.9889 197.2657 L 281.0652 197.3632 L 282.4387 197.4424 L 284.1277 197.54 L 285.2673 197.599 L 286.6408 197.66 L 287.5586 197.6965 L 289.1539 197.7552 L 290.9567 197.8123 L 292.4766 197.863 L 293.3719 197.8916 L 294.9915 197.9445 L 295.885 197.9727 L 297.5046 198.0257 L 298.3981 198.052 L 300.0177 198.103 L 300.9111 198.1255 L 302.5308 198.1682 L 303.4261 198.1823 L 305.0457 198.2207 L 305.9392 198.2352 L 307.5588 198.2798 L 308.4519 198.3042 L 310.0719 198.2798 L 310.965 198.2127 L 312.5846 198.0744 L 313.4799 197.9323 L 315.0977 197.7369 L 315.993 197.5522 L 317.45 197.3853 L 318.7583 197.1434 L 319.9326 196.9179 L 321.0356 196.6699 L 322.6388 196.3773 L 323.5322 196.1597 L 325.1519 195.7796 L 326.0472 195.5357 L 327.665 195.1251 L 329.1097 194.7552 L 330.5644 194.3525 L 331.883 193.9788 L 333.5903 193.3749 L 335.2282 192.7856 L 336.6527 192.2446 L 337.8491 191.7528 L 338.6732 191.4134 L 340.5614 190.6431 L 341.9372 190.0838 L 342.7937 189.7345 L 344.4503 188.8747 L 345.3555 188.4659 L 346.2185 188.0613 L 347.5124 187.4983 L 348.6234 186.9192 L 349.478 186.3946 L 350.1965 185.7706 L 351.4032 184.7116 L 351.991 183.8761 L 352.614 182.8925 Z" stroke="currentColor" id="voyager-deck-8" />
  <path d="M 238.9278 143.0617 C 236.9172 130.8505 226.4424 118.9913 226.4355 106.0261 C 187.4791 104.927 137.9022 104.5122 120.2322 104.3823 L 120.2322 165.9943 L 120.2642 165.9943 L 120.2642 166.0107 L 120.2695 166.0107 L 120.2695 175.5971 L 120.2642 175.5971 L 120.2642 189.6153 C 137.9574 189.485 187.513 189.0701 226.4493 187.9714 C 226.2488 176.2192 236.8098 163.4476 238.9019 151.0383 L 190.881 151.0383 L 190.881 143.0617 L 238.9278 143.0617 Z M 233.8681 187.5722 C 256.506 186.8103 275.9781 185.7809 285.3096 184.3957 C 285.9397 184.302 287.0321 184.1744 287.1083 183.9215 C 288.2577 180.1222 289.7261 173.6893 291.6429 168.7787 C 282.8468 166.9406 275.9617 159.907 274.3509 151.0383 L 274.3509 143.0617 C 275.964 134.1805 282.8662 127.1396 291.6799 125.3136 C 289.7448 120.3909 288.265 113.9001 287.1083 110.0764 C 287.0321 109.8235 285.9397 109.6959 285.3096 109.6022 C 275.9743 108.2162 256.49 107.1869 233.8399 106.4246 C 244.7574 123.9662 249.9931 139.7211 249.9044 146.999 C 249.816 154.2764 241.1707 173.9643 233.8681 187.5722 Z M 141.8139 197.287 L 141.8139 250.7583 L 133.8293 250.7583 L 133.8293 197.3979 C 133.129 197.4074 132.4425 197.4161 131.77 197.4249 L 123.785 197.5232 C 122.5182 197.5381 121.3424 197.5514 120.2642 197.5632 L 120.2642 197.6436 L 112.2792 197.6436 L 112.2792 175.5971 L 112.2472 166.0107 L 112.2472 151.0383 L 62.0081 151.0383 L 62.0081 191.3601 L 54.0235 191.3601 L 54.0235 102.7399 L 62.0081 102.7399 L 62.0081 143.0617 L 112.2472 143.0617 L 112.2472 99.3288 L 112.2792 99.3288 L 112.2792 96.3547 C 112.2792 96.3547 116.5551 96.3905 123.785 96.4747 L 131.77 96.573 C 132.4425 96.5818 133.129 96.5905 133.8293 96.6 L 133.8293 43.4377 L 141.8139 43.4377 L 141.8139 96.7109 C 185.1851 97.341 263.3434 98.9147 285.3096 102.2679 C 286.9905 102.5243 292.0971 102.759 292.5051 103.8493 C 294.8578 110.1355 296.2412 124.8794 297.702 124.6584 L 297.702 124.8995 C 309.2821 125.6634 318.4387 135.2883 318.4387 147.05 C 318.4387 158.8117 309.2821 168.4366 297.702 169.2005 L 297.702 169.3395 C 296.2412 169.1185 294.8578 183.8624 292.5051 190.1486 C 292.0971 191.2389 286.9905 191.4736 285.3096 191.73 C 263.3434 195.0832 185.1847 196.6569 141.8139 197.287 Z" stroke="currentColor" id="hallway"/>
  <path d="M 233.7267 187.3619 C 233.7267 187.3619 250.0671 158.5618 250.0671 145.1075 C 250.0671 132.2837 233.7267 106.6356 233.7267 106.6356 C 257.2375 107.3739 276.6944 108.3404 285.1941 109.6022 C 285.8243 109.6959 286.9166 109.8235 286.9928 110.0764 C 288.1495 113.9001 289.6293 120.3909 291.5644 125.3136 C 282.7504 127.1396 275.8486 134.1805 274.2354 143.0617 C 273.8418 145.1593 273.8418 147.8184 274.2354 151.0383 C 275.8463 159.907 282.7313 166.9406 291.5275 168.7787 C 289.6107 173.6893 288.1423 180.1222 286.9928 183.9215 C 286.9166 184.1744 285.8243 184.302 285.1941 184.3957 C 276.6948 185.6575 257.2379 186.624 233.7267 187.3619 Z" id="room-108" stroke="currentColor" name="Power Distribution Center"/>
<path d="M 265.2606 100.4073 L 265.2606 99.818 L 267.086 100.0496 L 268.0586 100.0767 L 269.4455 100.1887 L 270.2978 100.1018 L 271.8382 100.1696 L 272.6905 99.9449 L 274.2324 100.0184 L 275.8539 99.9449 L 277.3745 99.7612 L 278.7537 99.5734 L 280.6385 99.3548 L 281.4908 99.2427 L 283.0327 99.1208 L 284.4355 99.0336 L 285.4254 98.9852 L 286.7311 98.9193 L 287.8177 98.869 L 289.3344 98.813 L 290.8417 98.7589 L 291.9283 98.7239 L 293.3734 98.6755 L 294.2257 98.6485 L 295.7676 98.5982 L 296.6184 98.573 L 298.1603 98.5227 L 299.0107 98.4957 L 300.5526 98.4473 L 301.403 98.426 L 302.9449 98.3852 L 303.7972 98.3719 L 305.3395 98.3349 L 306.1899 98.3216 L 307.7318 98.2789 L 308.5822 98.2557 L 310.1241 98.2789 L 310.9745 98.3429 L 312.5164 98.4744 L 313.3691 98.61 L 314.9091 98.7955 L 316.5321 99.0702 L 317.4583 99.1963 L 318.3941 99.3605 L 319.5116 99.5753 L 320.5616 99.8115 L 322.0883 100.09 L 322.9386 100.2972 L 324.4806 100.6592 L 326.104 101.0965 L 327.1674 101.3635 L 328.4963 101.7041 L 329.7513 102.0504 L 331.4193 102.5575 L 333.2809 103.2116 L 334.4338 103.6489 L 335.6755 104.1209 L 336.5685 104.4927 L 338.0678 105.1099 L 339.724 105.7834 L 340.9249 106.2691 L 341.8606 106.7141 L 342.8524 107.2326 L 343.7146 107.6216 L 344.536 108.0067 L 345.7682 108.5427 L 346.8239 109.0943 L 347.6393 109.5938 L 348.6661 110.4974 L 349.4719 111.1957 L 350.0316 111.9911 L 351.0991 113.5858 L 351.7209 114.6365 L 352.4242 115.5885 L 352.8601 116.4438 L 353.2514 117.5935 L 353.7219 118.3657 L 354.098 119.2518 L 354.8165 120.2599 L 355.2116 121.1502 L 355.7271 123.1471 L 356.1142 124.4439 L 356.6511 126.0714 L 357.0656 128.0992 L 357.2786 130.3865 L 357.4683 132.966 L 357.6333 135.5207 L 357.7358 136.9641 L 357.8112 138.0883 L 357.9663 139.8785 L 358.1038 141.3764 L 358.1716 142.2682 L 358.2878 143.584 L 358.3713 144.6602 L 358.4661 145.914 L 358.5515 147.05 L 358.4604 148.2999 L 358.3713 149.4398 L 358.257 150.7849 L 358.1716 151.8299 L 358.0322 153.3991 L 357.916 154.9259 L 357.8112 156.0098 L 357.7358 157.1359 L 357.5868 159.3767 L 357.4393 161.6198 L 357.2107 164.4488 L 357.0016 166.3257 L 356.5135 168.5627 L 356.0525 169.7974 L 355.4326 171.5662 L 355.2116 172.9479 L 354.8165 173.8398 L 354.098 174.8482 L 353.7219 175.7343 L 353.2106 176.6013 L 352.8601 177.6539 L 352.4242 178.5134 L 351.7209 179.4635 L 350.6244 181.1721 L 350.0316 182.1089 L 349.4719 182.9043 L 348.3232 183.9123 L 347.6393 184.5062 L 346.8258 185.0057 L 345.7682 185.5573 L 344.536 186.0933 L 343.7146 186.4784 L 342.8524 186.8674 L 341.2758 187.6857 L 340.4601 188.0187 L 339.1506 188.5509 L 337.353 189.2842 L 336.5685 189.6073 L 335.4294 190.0758 L 334.0734 190.5905 L 332.5139 191.1517 L 330.8886 191.7265 L 329.6332 192.0823 L 328.2483 192.4656 L 326.8729 192.818 L 325.3329 193.2088 L 324.4806 193.4408 L 322.9386 193.8028 L 322.0883 194.01 L 320.5616 194.2885 L 319.5116 194.5247 L 318.3941 194.7395 L 317.1482 194.9696 L 315.7614 195.1285 L 314.9091 195.3045 L 313.3691 195.49 L 312.5164 195.6256 L 310.9745 195.7571 L 310.1241 195.8211 L 308.5822 195.8443 L 307.7318 195.8211 L 306.1899 195.7784 L 305.3395 195.7651 L 303.7972 195.7281 L 302.9449 195.7148 L 301.403 195.674 L 300.5526 195.6527 L 299.0107 195.6043 L 298.1603 195.5792 L 296.6184 195.5289 L 295.7676 195.5018 L 294.2257 195.4515 L 293.3734 195.4245 L 291.9264 195.3761 L 290.21 195.322 L 288.6913 195.2656 L 287.8177 195.231 L 286.5101 195.1727 L 285.4254 195.1167 L 283.8176 195.0237 L 282.51 194.9483 L 281.4851 194.8553 L 280.4156 194.7102 L 278.2462 194.4473 L 276.6712 194.2477 L 275.0828 194.2035 L 274.2324 194.0816 L 272.6905 194.1551 L 271.8382 193.9304 L 270.2978 193.9982 L 269.4455 193.9109 L 268.0586 194.0233 L 266.282 194.186 L 265.2606 194.2999 L 265.2606 193.5906 C 273.8125 193.0416 280.7639 192.4241 285.3096 191.73 C 286.9905 191.4736 292.0971 191.2389 292.5051 190.1486 C 294.8578 183.8624 296.2412 169.1185 297.702 169.3395 L 297.702 169.2005 C 309.2821 168.4366 318.4387 158.8117 318.4387 147.05 C 318.4387 135.2883 309.2821 125.6634 297.702 124.8995 L 297.702 124.6584 C 296.2412 124.8794 294.8578 110.1355 292.5051 103.8493 C 292.0971 102.759 286.9905 102.5243 285.3096 102.2679 C 280.7639 101.5742 273.8125 100.9563 265.2606 100.4073 Z" id="room-109" stroke="currentColor" name="Navigational Sensor Complex"/>
<path d="M 186.8176 188.8358 L 186.8176 151.0383 L 238.9019 151.0383 C 236.8098 163.4476 226.2488 176.2192 226.4493 187.9714 C 213.8698 188.3265 200.1816 188.6099 186.8176 188.8358 Z" id="room-110" stroke="currentColor" name="Chief Medical Officer's Office"/>
<path d="M 186.8176 143.0617 L 186.8176 105.1621 C 200.1766 105.3876 213.8595 105.6714 226.4355 106.0261 C 226.4424 118.9913 236.9172 130.8505 238.9278 143.0617 L 186.8176 143.0617 Z" id="room-111" stroke="currentColor" name="Medical Center"/>
<path d="M 188.0719 188.8145 L 188.6323 188.8046 L 188.1218 188.8137 L 188.0719 188.8145 Z M 189.4008 188.7916 L 189.9594 188.7817 L 189.5006 188.7897 L 189.4008 188.7916 Z M 190.7328 188.768 L 190.881 188.7653 L 190.881 188.7653 L 190.7328 188.768 Z M 186.8176 164.8781 L 186.8176 188.8358 C 158.8179 189.3086 132.2409 189.5273 120.2642 189.6153 L 120.2642 175.5971 L 120.2695 175.5971 L 120.2695 166.0107 L 120.2642 166.0107 L 120.2642 165.9943 L 120.2322 165.9943 L 120.2322 104.3823 C 132.1979 104.4703 158.7951 104.6889 186.8176 105.1621 L 186.8176 129.1198 L 161.605 129.1198 L 161.605 164.8781 L 186.8176 164.8781 Z M 190.881 105.2326 L 190.7256 105.2299 L 190.881 105.2326 L 190.881 105.2326 Z M 189.9822 105.2166 L 189.3947 105.2063 L 189.4995 105.2082 L 189.9822 105.2166 Z M 186.8176 105.1621 L 186.8176 105.1621 C 187.4345 105.1728 188.0521 105.183 188.6701 105.1937 C 188.0521 105.183 187.4345 105.1728 186.8176 105.1621 Z" id="room-112" stroke="currentColor" name="Computer Core"/>
<path d="M 62.0081 102.7399 h 50.2223 v 40.3629 h -49.911 v -40.0006 Z" id="room-113" stroke="currentColor" name="Electronics Storage"/>
<path d="M 62.0081 151.0927 h 50.2223 v 40.3629 h -49.911 v -40.0006 Z" id="room-114" stroke="currentColor" name="Physics Lab"/>
<path d="M 186.8176 164.8781 L 161.605 164.8781 L 161.605 129.1198 L 186.8176 129.1198 L 186.8176 143.0617 L 190.881 143.0617 L 190.881 151.0383 L 186.8176 151.0383 L 186.8176 164.8781 Z" id="room-115" stroke="currentColor" name="Computer Maintenance Room"/>
<path d="M 141.8139 197.287 C 168.5091 196.8992 157.2021 208.2388 157.2021 208.2388 L 155.7993 208.2613 L 154.8986 208.2666 L 153.5342 208.3074 L 152.5482 208.339 L 151.3549 208.4388 L 149.5014 208.7961 L 149.04 210.4289 L 148.6898 211.7196 L 148.7489 212.773 L 148.7527 213.8838 L 148.814 214.9372 L 149.003 216.3944 L 149.1421 217.9441 L 149.3459 219.4028 L 149.5143 220.6508 L 149.6294 222.1114 L 149.6869 222.9244 L 149.7646 223.8592 L 149.8797 225.5606 L 149.909 226.4585 L 149.9723 227.8285 L 149.989 228.6414 L 149.9704 230.0651 L 149.9353 231.6647 L 149.8572 232.9402 L 149.7406 234.4807 L 149.6294 235.4491 L 149.5273 236.4655 L 149.3996 238.013 L 149.2308 239.1018 L 149.179 240.1608 L 149.0327 241.4976 L 149.0102 242.3879 L 148.8807 243.6542 L 148.7862 245.3872 L 148.193 246.8981 L 147.3403 248.1606 L 146.5177 249.2437 L 145.7576 249.9602 L 145.0497 250.5305 L 143.7486 250.6711 L 142.7607 250.7583 L 141.8139 250.6029 L 141.8139 197.287 Z M 133.8293 197.3979 L 133.8293 249.0939 L 133.6034 249.0494 L 132.4619 248.8459 L 131.3147 248.6402 L 129.8578 248.2886 L 128.4454 247.9812 L 126.7332 247.6699 L 124.8446 247.2756 L 123.8715 247.0981 L 122.157 246.7739 L 120.8117 246.5335 L 119.8683 246.3705 L 119.088 245.8889 L 118.0963 244.8706 L 117.3644 243.0992 L 116.9994 241.7624 L 116.7693 240.8127 L 116.6805 239.6111 L 116.6009 238.5261 L 116.5266 237.2077 L 116.469 236.2396 L 116.4138 234.8362 L 116.3726 233.9512 L 116.3357 232.4849 L 116.2709 230.9649 L 116.2709 229.9355 L 116.258 228.6673 L 116.258 227.6102 L 116.2911 226.3199 L 116.3227 224.8052 L 116.3654 223.3537 L 116.397 222.5167 L 116.4546 221.1377 L 116.4988 220.2306 L 116.5601 218.9437 L 116.6176 217.9441 L 116.6915 216.7848 L 116.7712 215.6576 L 117.0584 214.1688 L 117.2124 213.3692 L 116.4786 212.5528 L 116.3913 211.0827 L 115.2887 210.2514 L 114.1026 210.2457 L 112.9996 210.2404 L 112.2304 197.7 C 112.2304 197.7 133.129 197.4074 133.8293 197.3979 Z M 30.7576 187.3619 L 54.0235 181.4624 L 54.0235 193.2618 L 30.7576 187.3619 Z M 30.7576 106.6356 L 54.0235 100.7361 L 54.0235 112.5355 L 30.7576 106.6356 Z M 157.2021 85.8631 C 157.2021 85.8631 168.389 97.0968 141.8139 96.7109 L 141.8139 43.4963 L 142.7607 43.3417 L 144.1342 43.4807 L 145.0497 43.5695 L 145.7576 44.1398 L 146.6271 44.9897 L 147.8798 46.4263 L 148.5321 47.7573 L 148.8898 49.4145 L 148.8807 50.4458 L 149.0102 51.7102 L 149.0327 52.6024 L 149.179 53.9392 L 149.2308 54.9963 L 149.3996 56.0866 L 149.5273 57.6329 L 149.6294 58.6528 L 149.7719 60.1469 L 149.8778 61.332 L 149.9833 63.0757 L 149.9685 64.0349 L 149.989 65.4586 L 149.9723 66.2715 L 149.909 67.6415 L 149.8145 69.2948 L 149.7646 70.2389 L 149.6869 71.1775 L 149.6294 71.9886 L 149.4682 73.8694 L 149.2827 75.4378 L 149.051 76.8931 L 149.003 77.7056 L 148.814 79.1628 L 148.7527 80.2162 L 148.7489 81.327 L 148.8064 83.0173 L 148.7695 84.3949 L 149.8907 85.4684 L 151.3549 85.6612 L 152.5482 85.761 L 153.5342 85.7926 L 154.8986 85.8334 L 155.7993 85.8406 L 157.2021 85.8631 Z M 133.8293 96.6 C 133.129 96.5905 112.2304 96.4446 112.2304 96.4446 L 114.1876 83.8543 L 115.8408 83.4322 L 116.9011 82.4173 L 116.4786 81.5472 L 117.2124 80.7289 L 116.9567 79.3979 L 116.7712 78.4424 L 116.6896 77.2835 L 116.6176 76.1559 L 116.5525 74.8694 L 116.4988 73.8694 L 116.4412 72.4884 L 116.397 71.5813 L 116.3544 70.1314 L 116.3227 69.2948 L 116.2911 67.7786 L 116.2561 66.4917 L 116.2561 65.4327 L 116.2709 64.1645 L 116.3079 62.4353 L 116.3433 60.9671 L 116.3726 60.1469 L 116.4267 58.7453 L 116.469 57.8604 L 116.5414 56.5422 L 116.6009 55.5739 L 116.6862 54.3723 L 116.7693 53.2873 L 117.2066 51.61 L 117.5793 50.2381 L 118.3744 48.7128 L 119.088 48.2111 L 119.8683 47.7314 L 121.0989 47.5185 L 122.9224 47.189 L 123.8696 47.0019 L 124.8446 46.8244 L 126.7496 46.4263 L 129.0256 46.0114 L 130.3249 45.6948 L 131.3147 45.4598 L 132.673 45.2209 L 133.8293 45.0095 L 133.8293 96.6 Z" id="room-116" stroke="currentColor" name="RCS Thrusters"/>
</svg>