<svg
  viewBox="0 0 1000 772"
  version="1.1"
  xmlns="http://www.w3.org/2000/svg"
  xmlns:xlink="http://www.w3.org/1999/xlink"
  xml:space="preserve"
  style="fill-rule: evenodd; clip-rule: evenodd; stroke-miterlimit: 1.41421"
>
  <path
    d="M898.212,465.283L899.943,463.571L904.595,458.699L906.597,456.399L909.583,452.307L912.675,445.787L913.417,443.188L914.213,439.843L915.735,432.992L917.338,425.948L918.748,419.428L919.725,414.952L920.291,412.364L921.429,407.113L923.015,399.809L924.622,393.054L925.733,386.475L924.809,379.885L923.228,373.157L921.85,366.855L920.579,360.975L920.013,358.334L918.977,353.623L917.535,346.927L916.029,340.321L914.667,334.131L913.685,329.927L913.001,327.115L910.047,320.461L907.11,316.268L905.102,313.888L900.413,308.904L898.682,307.181L893.822,302.325L892.071,300.597L887.221,295.757L885.459,294.007L880.62,289.194L878.831,287.423L874.019,283.053L871.135,280.822L867.695,278.656L861.078,276.276L854.52,275.316L847.924,274.542L844.709,274.259L842.268,273.955L834.738,273.544L828.131,273.384L821.423,272.712L815.191,270.524L810.929,267.947L808.296,266.549L801.737,263.919L795.868,261.304L793.39,260.499L788.722,259.074L781.95,256.785L775.354,255.328L769.768,254.32L766.713,253.898L763.257,253.407L760.736,253.151L756.036,252.789L749.393,252.66L743.053,253.215L739.325,253.68L736.158,254.096L733.515,254.491L729.338,255.184L722.577,256.353L715.981,257.121L709.385,257.495L702.789,257.687L696.188,257.591L682.996,257.185L676.401,257.943L669.949,259.88L667.086,261.208L663.166,263.273L657.195,266.917L650.103,269.761L643.528,270.103L636.933,269.969L630.273,269.217L625.893,267.798L623.148,266.832L617.754,264.938L610.341,262.334L606.928,261.128L604.391,260.232L597.715,257.879L590.596,255.366L588.033,254.459L584.524,253.231L577.741,250.836L570.836,248.397L568.576,247.592L564.624,246.204L557.601,243.718L551.182,241.429L545.323,239.262L537.851,236.408L533.05,234.7L530.791,233.921L524.638,231.52L518.069,229.151L515.158,227.988L511.537,226.579L504.872,224.034L498.319,221.596L491.68,219.035L485.085,216.554L480.732,214.846L478.462,213.96L471.898,211.41L465.297,208.742L458.45,205.743L452.1,202.611L449.782,201.454L445.227,199.202L438.908,196.129L436.617,195.008L432.019,192.804L425.712,189.731L423.004,188.429L418.801,186.428L412.52,183.403L408.888,181.797L405.71,180.442L399.328,177.891L392.7,175.373L386.137,171.952L381.976,168.804L379.423,166.558L373.757,163.111L371.38,162.06L368.582,161.911L365.986,161.788L359.417,161.761L352.821,161.761L346.241,161.74L340.949,160.491L341.969,157.679L341.883,155.321L344.046,149.654L342.7,142.841L341.824,136.102L341.13,129.464L340.345,122.768L339.929,119.476L339.533,115.853L338.374,112.198L337.215,109.183L335.982,106.686L334.481,104.055L332.879,101.334L330.064,102.593L326.283,104.28L323.014,105.795L319.687,107.337L315.708,109.183L313.086,110.405L310.303,111.702L306.49,113.473L301.545,115.778L297.277,117.763L293.298,119.614L287.381,122.368L285.287,123.344L283.034,124.395L280.102,125.761L277.976,126.791L273.954,128.632L269.65,130.691L266.91,132.004L264.544,133.156L261.671,134.49L259.449,135.547L255.764,137.884L253.713,139.234L252.121,142.136L255.796,144.452L260.314,146.245L263.145,147.488L265.852,148.731L269.986,150.108L273.506,151.293L278.072,152.813L282.959,154.451L285.512,155.321L285.191,160.406L281.608,160.406L273.954,161.462L267.177,161.644L260.512,161.713L253.878,161.751L247.267,161.761L168.101,161.761L161.5,161.767L157.462,162.401L154.76,162.786L149.109,166.35L146.807,168.143L141.76,172.038L137.562,174.764L135.084,176.168L128.846,179.454L125.06,181.578L122.069,183.269L115.617,187.287L113.631,188.573L109.128,191.534L104.177,194.715L102.223,195.979L95.8085,200.173L93.8431,201.454L89.3035,204.458L85.1217,207.883L82.4727,210.492L79.3964,214.425L76.459,220.753L77.4791,227.342L81.7944,233.825L88.1071,240.073L94.8471,246.082L96.9995,247.976L101.603,252.031L103.878,254.032L108.151,257.735L111.516,260.632L114.87,263.481L119.115,267.131L121.604,269.212L127.02,273.635L134.449,279.094L136.526,280.385L141.082,283.421L146.727,286.606L149.483,288.058L153.44,290.01L155.598,291.014L159.759,293.014L163.454,294.685L165.858,295.688L169.489,297.176L173.164,299.022L175.273,300.319L171.898,304.054L167.951,306.701L167.027,312.084L167.369,314.651L169.153,318.893L171.07,323.359L172.507,326.683L174.552,331.41L176.096,334.82L177.191,337.226L178.387,339.862L180.23,345.449L181.148,350.4L181.96,353.047L183.274,357.513L184.775,362.603L185.848,366.226L187.744,372.618L189.469,377.687L191.141,382.606L192.294,386L191.242,389.1L190.051,392.59L187.851,399.078L186.281,404.307L185.052,408.458L183.904,412.364L182.296,417.801L181.148,421.6L180.657,424.785L178.894,430.473L177.191,434.774L176.101,437.175L175.135,439.309L173.324,443.428L171.417,447.836L169.655,451.907L167.951,455.951L166.888,458.496L167.326,464.131L170.675,467.162L174.552,470.16L173.73,472.657L169.495,474.824L165.852,476.312L163.46,477.315L161.265,478.212L155.598,480.986L153.435,481.99L149.483,483.942L146.733,485.394L142.102,487.998L137.301,491.124L135.346,492.373L128.83,496.972L122.331,502.265L119.591,504.506L115.484,508.044L111.991,510.984L108.749,513.769L104.322,517.584L102.153,519.489L97.0048,524.019L94.8525,525.918L89.6987,530.459L82.8892,536.915L78.0025,543.5L76.2668,550.292L78.9798,556.887L82.0241,561.033L84.641,563.69L88.5932,567.035L93.4265,570.264L95.3866,571.55L101.464,575.519L103.697,576.976L108.349,579.953L113.625,583.427L115.617,584.713L121.241,588.208L124.584,590.134L128.189,592.135L134.492,595.464L137.082,596.835L141.205,599.487L146.289,603.35L148.164,605.047L153.814,608.414L157.457,609.599L160.512,610.084L167.807,610.233L174.398,610.239L253.563,610.239L260.148,610.249L266.707,610.287L273.233,610.362L279.648,610.543L285.175,611.61L284.673,614.651L282.959,617.549L280.102,618.52L275.535,620.035L271.898,621.241L267.524,622.719L263.145,624.512L260.314,625.755L257.35,626.945L253.713,628.375L252.842,630.728L255.764,634.116L259.444,636.448L261.676,637.515L264.159,638.662L266.91,639.996L269.65,641.309L273.244,643.043L277.704,645.081L280.102,646.244L283.034,647.605L285.298,648.661L291.403,651.484L296.433,653.848L299.894,655.459L304.92,657.791L309.038,659.712L313.086,661.595L315.703,662.812L318.421,664.076L322.587,666.013L326.283,667.726L330.059,669.401L332.879,670.666L334.481,667.939L335.982,665.309L337.215,662.812L338.374,659.797L339.475,656.66L339.929,652.53L340.26,650.193L341.061,643.438L341.728,636.955L342.492,630.413L344.078,623.973L342.033,617.602L341.969,614.315L340.954,611.509L345.248,610.74L352.501,610.255L359.118,610.239L365.714,610.239L368.624,610.084L371.391,609.94L373.757,608.889L377.762,606.637L381.277,603.831L385.255,600.709L391.568,597.305L398.228,594.605L405.118,591.815L408.381,590.427L411.644,589.019L418.165,585.881L422.534,583.8L424.926,582.658L431.362,579.516L436.147,577.221L438.433,576.106L444.554,573.129L449.585,570.637L452.1,569.389L457.745,566.593L463.449,564.053L470.942,560.974L477.517,558.408L479.765,557.533L484.102,555.83L490.735,553.333L497.096,550.879L503.692,548.414L510.544,545.81L514.192,544.391L517.161,543.196L523.72,540.832L530.166,538.335L533.055,537.3L536.815,535.982L543.566,533.399L549.243,531.286L556.474,528.693L563.241,526.303L567.738,524.702L569.96,523.928L576.609,521.575L582.793,519.388L586.286,518.15L589.699,516.954L596.327,514.617L602.399,512.478L604.909,511.587L609.438,509.991L616.034,507.67L621.946,505.589L624.665,504.634L629.349,502.991L635.816,502.111L642.353,501.902L648.944,502.025L655.358,504.111L661.671,507.825L667.086,510.792L669.33,511.875L675.493,513.812L682.046,514.687L688.642,514.607L695.243,514.436L701.839,514.329L708.434,514.5L715.03,514.842L721.626,515.567L728.227,516.682L733.504,517.509L736.116,517.899L739.331,518.32L741.894,518.662L747.331,519.217L754.189,519.265L760.736,518.849L763.252,518.593L766.718,518.102L769.778,517.68L774.254,516.821L780.999,515.396L787.6,513.203L793.395,511.501L795.868,510.696L800.071,508.775L807.457,505.787L810.015,504.634L813.546,502.388L820.334,499.699L827.197,498.898L833.776,498.61L840.207,498.333L844.725,497.735L847.449,497.495L853.569,496.759L860.165,495.916L866.771,493.797L870.296,491.733L873.399,489.438L878.355,485.026L880.139,483.281L884.983,478.457L886.746,476.718L891.601,471.873L893.347,470.144L898.212,465.283Z"
    stroke="currentColor"
    stroke-width="3"
    id="voyager-deck-12"
  />
  <path
    d="M391.438,276.007C384.136,275.814 365.041,275.478 365.041,275.478L285.718,328.549L285.763,442.964L364.943,496.277C364.943,496.277 382.798,495.954 391.438,495.726L391.438,276.007ZM412.396,396.469L412.396,495.163C438.546,494.45 469.971,493.557 509.311,492.445C509.311,492.445 526.596,433.842 529.771,396.469L412.396,396.469ZM553.917,396.469C549.384,434.113 530.268,491.821 530.268,491.821C548.362,491.253 572.673,478.96 598.566,478.285C620.534,477.712 643.642,477.099 665.058,476.442C704.56,475.232 738.307,485.55 748.541,484.031C750.195,483.785 753.062,483.45 753.262,482.786C756.279,472.813 760.133,455.927 765.164,443.037C742.077,438.212 724.006,419.75 719.778,396.469L553.917,396.469ZM780.512,425.467C800.841,423.77 816.81,406.748 816.81,386C816.81,364.126 799.061,346.394 777.167,346.394C755.272,346.394 737.523,364.126 737.523,386C737.523,407.874 755.272,425.606 777.167,425.606C777.273,425.606 777.379,425.606 777.485,425.605C778.465,425.31 779.474,425.253 780.512,425.467ZM412.396,375.531L529.777,375.531C526.621,338.661 509.311,279.287 509.311,279.287C469.982,278.175 438.553,277.283 412.396,276.569L412.396,375.531ZM554.629,375.531L719.778,375.531C724.012,352.218 742.128,333.736 765.261,328.943C760.182,316.021 756.298,298.983 753.262,288.946C753.062,288.282 750.195,287.947 748.541,287.701C738.439,286.202 705.43,296.598 666.591,295.4C645.676,294.755 623.07,294.151 601.441,293.586C574.499,292.882 549.073,280.501 530.315,279.912C530.289,279.88 530.273,279.879 530.268,279.911L530.315,279.912C531.447,281.269 552.137,338.127 554.629,375.531ZM264.824,327.126L370.48,253.678L391.438,253.935C428.836,254.41 468.787,255.076 508.183,255.978C539.811,256.702 571.082,269.316 600.386,270.369C623.922,271.214 646.189,272.173 666.355,273.258C701.7,275.159 730.591,265.709 748.541,268.449C752.953,269.122 766.356,269.738 767.427,272.6C773.602,289.101 777.233,327.803 781.067,327.223L781.067,327.856C811.461,329.861 835.494,355.126 835.494,386C835.494,416.874 811.461,442.139 781.067,444.144L781.067,444.509C777.233,443.929 773.602,482.631 767.427,499.132C766.356,501.994 752.953,502.61 748.541,503.283C731.151,505.938 702.677,496.494 667.707,498.359C646.726,499.478 623.405,500.466 598.737,501.335C569.958,502.35 539.344,514.877 508.47,515.59C468.775,516.507 428.65,517.192 391.438,517.688L370.48,518.737L264.824,443.342L264.824,327.126Z"
    stroke="currentColor"
    stroke-width="2"
    id="hallway"
  />
  <path
    d="M916.384,405.793C878.281,402.883 849.188,398.502 835.035,393.344C835.338,390.938 835.494,388.487 835.494,386C835.494,383.652 835.355,381.336 835.084,379.06C849.266,373.905 878.37,369.529 916.471,366.621L917.045,369.28L918.249,374.783L919.63,380.66L920.437,386.415L919.466,392.161L918.062,398.06L916.677,404.44L916.384,405.793Z"
    id="room-160"
    stroke="currentColor"
    name="Torpedo/Probe Maintenance"
  />
  <path
    d="M918.074,398.009C892.149,395.925 874.205,391.424 874.205,386.208C874.205,380.986 892.19,376.48 918.165,374.399L918.249,374.783L919.63,380.66L920.437,386.415L919.466,392.161L918.074,398.009Z"
    id="room-161"
    stroke="currentColor"
    name="Bow Probe Launcher"
  />
  <path
    d="M916.575,404.912L915.683,409.025L915.189,411.286L914.335,415.195L913.104,420.89L911.705,427.041L910.375,433.025L909.68,435.947L909.032,438.216L906.331,443.911L903.724,447.485L901.975,449.494L897.912,453.748L896.4,455.244L892.151,459.49L890.626,460.999L886.386,465.231L884.847,466.75L880.616,470.963L879.058,472.487L874.729,476.34L872.019,478.344L868.941,480.148L863.171,481.998L857.41,482.734L852.065,483.377L849.686,483.587L845.74,484.109L840.124,484.351L834.377,484.603L828.383,485.302L822.455,487.65L819.371,489.612L817.137,490.619L810.686,493.229L807.015,494.906L804.855,495.61L799.795,497.096L794.029,499.012L788.138,500.256L784.229,501.006L781.556,501.374L778.529,501.803L776.332,502.027L770.614,502.39L764.624,502.348L760.133,501.89C763.796,501.299 766.932,500.456 767.427,499.132C773.602,482.631 777.233,443.929 781.067,444.509L781.067,444.144C809.013,442.301 831.58,420.793 835.035,393.344C849.188,398.502 878.281,402.883 916.384,405.793L916.575,404.912ZM835.089,392.898L835.091,392.882L835.09,392.892L835.089,392.898ZM835.115,392.679L835.117,392.657L835.116,392.666L835.115,392.679ZM835.166,392.215ZM835.188,392.003L835.191,391.968L835.19,391.986L835.188,392.003ZM835.211,391.773L835.213,391.753L835.212,391.759L835.211,391.773ZM835.254,391.318L835.257,391.279L835.255,391.303L835.254,391.318ZM835.273,391.101L835.277,391.059L835.275,391.075L835.273,391.101ZM835.312,390.629L835.315,390.593L835.313,390.619L835.312,390.629ZM835.329,390.417L835.333,390.364L835.331,390.39L835.329,390.417ZM835.345,390.189L835.348,390.151L835.347,390.161L835.345,390.189ZM835.363,389.935ZM835.376,389.725L835.38,389.669L835.378,389.702L835.376,389.725ZM835.39,389.508L835.393,389.452L835.392,389.473L835.39,389.508ZM835.404,389.251ZM835.416,389.029L835.419,388.975L835.417,389.013L835.416,389.029ZM835.427,388.816L835.43,388.752L835.428,388.782L835.427,388.816ZM835.437,388.588L835.439,388.539L835.439,388.552L835.437,388.588ZM835.448,388.328L835.449,388.29L835.448,388.321L835.448,388.328ZM835.456,388.118L835.458,388.051L835.457,388.09L835.456,388.118ZM835.463,387.899L835.465,387.836L835.465,387.858L835.463,387.899ZM835.471,387.637ZM835.477,387.415L835.478,387.353L835.477,387.395L835.477,387.415ZM835.481,387.201L835.483,387.132L835.482,387.163L835.481,387.201ZM835.486,386.97L835.487,386.919L835.486,386.931L835.486,386.97ZM835.489,386.709L835.49,386.661L835.49,386.699L835.489,386.709ZM835.492,386.496L835.492,386.427L835.492,386.466L835.492,386.496ZM835.493,386.276L835.493,386.211L835.493,386.233L835.493,386.276ZM835.493,385.797L835.493,385.733L835.493,385.78L835.493,385.797ZM835.492,385.593L835.492,385.519L835.492,385.56L835.492,385.593ZM835.49,385.385L835.49,385.313L835.49,385.34L835.49,385.385ZM835.488,385.164L835.487,385.11L835.487,385.121L835.488,385.164ZM835.484,384.908L835.483,384.866L835.484,384.902L835.484,384.908ZM835.48,384.706L835.478,384.637L835.479,384.683L835.48,384.706ZM835.475,384.501L835.473,384.428L835.474,384.464L835.475,384.501ZM835.469,384.291L835.467,384.225L835.468,384.245L835.469,384.291ZM835.462,384.05L835.461,384.023L835.461,384.026L835.462,384.05ZM835.454,383.821L835.451,383.765L835.453,383.808L835.454,383.821ZM835.446,383.619L835.443,383.549L835.445,383.59L835.446,383.619ZM835.437,383.413L835.434,383.343L835.435,383.372L835.437,383.413ZM835.427,383.197L835.425,383.141L835.425,383.155L835.427,383.197ZM835.415,382.939ZM835.404,382.738L835.4,382.677L835.403,382.72L835.404,382.738ZM835.392,382.535L835.388,382.467L835.39,382.503L835.392,382.535ZM835.38,382.327L835.376,382.264L835.377,382.286L835.38,382.327ZM835.365,382.097L835.363,382.064L835.363,382.069L835.365,382.097ZM835.349,381.86L835.346,381.822L835.348,381.853L835.349,381.86ZM835.334,381.659L835.33,381.598L835.333,381.637L835.334,381.659ZM835.319,381.455L835.314,381.392L835.316,381.421L835.319,381.455ZM835.302,381.242L835.298,381.191L835.299,381.205L835.302,381.242ZM835.263,380.786L835.259,380.74L835.262,380.774L835.263,380.786ZM835.245,380.585L835.24,380.526L835.243,380.559L835.245,380.585ZM835.226,380.379L835.22,380.323L835.222,380.344L835.226,380.379ZM835.204,380.155L835.201,380.123L835.201,380.13L835.204,380.155ZM835.18,379.917ZM835.159,379.718L835.153,379.667L835.157,379.701L835.159,379.718ZM835.137,379.516L835.13,379.459L835.133,379.487L835.137,379.516ZM835.113,379.307L835.107,379.258L835.109,379.273L835.113,379.307ZM835.084,379.06C831.801,351.417 809.149,329.708 781.067,327.856L781.067,327.223C777.233,327.803 773.602,289.101 767.427,272.6C766.977,271.396 764.343,270.59 761.115,270.009L766.425,269.544L772.227,269.656L776.332,269.973L778.534,270.197L781.552,270.626L784.22,270.994L789.099,271.874L794.86,273.147L800.774,275.146L804.851,276.39L807.015,277.094L812.141,279.377L817.869,281.675L820.169,282.896L823.891,285.146L829.335,287.057L835.193,287.644L840.963,287.784L847.54,288.143L849.672,288.409L852.48,288.655L858.24,289.331L863.968,290.17L869.748,292.248L872.752,294.14L875.27,296.088L879.473,299.905L881.036,301.452L885.262,305.655L886.801,307.184L891.036,311.411L892.566,312.921L896.811,317.161L898.322,318.666L902.418,323.019L904.171,325.097L906.737,328.76L909.316,334.571L909.913,337.027L910.772,340.699L911.961,346.105L913.277,351.874L914.536,357.723L915.441,361.837L915.935,364.144L916.471,366.621C878.37,369.528 849.267,373.905 835.084,379.06Z"
    id="room-162"
    stroke="currentColor"
    name="Lower Sensor Array"
  />
  <path
    d="M412.396,375.531L529.777,375.531C526.621,338.661 509.311,279.287 509.311,279.287C469.982,278.175 438.553,277.283 412.396,276.569L412.396,375.531Z"
    id="room-163"
    stroke="currentColor"
    name="Metallurgy Lab"
  />
  <path
    d="M412.396,396.469L412.396,495.163C438.546,494.45 469.971,493.557 509.311,492.445C509.311,492.445 526.596,433.842 529.771,396.469L412.396,396.469Z"
    id="room-164"
    stroke="currentColor"
    name="Electronic Maintenance Center"
  />
  <path
    d="M235.411,163.782C280.096,163.782 316.321,199.973 316.321,244.617C316.321,289.26 280.096,325.451 235.411,325.451C190.725,325.451 154.5,289.26 154.5,244.617C154.5,199.973 190.725,163.782 235.411,163.782ZM235.411,446.549C280.096,446.549 316.321,482.74 316.321,527.383C316.321,572.027 280.096,608.218 235.411,608.218C190.725,608.218 154.5,572.027 154.5,527.383C154.5,482.74 190.725,446.549 235.411,446.549Z"
    id="room-165"
    stroke="currentColor"
    name="Water Tanks"
  />
  <path
    d="M391.438,276.007C384.136,275.814 365.041,275.478 365.041,275.478L285.718,328.549L285.763,442.964L364.943,496.277C364.943,496.277 382.798,495.954 391.438,495.726L391.438,276.007Z"
    id="room-166"
    stroke="currentColor"
    name="Machine Shop"
  />
  <path
    d="M554.629,375.531L719.778,375.531C724.012,352.218 742.128,333.736 765.261,328.943C760.182,316.021 756.298,298.983 753.262,288.946C753.062,288.282 750.195,287.947 748.541,287.701C738.439,286.202 705.43,296.598 666.591,295.4C645.676,294.755 623.07,294.151 601.441,293.586C574.499,292.882 549.073,280.501 530.315,279.912C530.289,279.88 530.273,279.879 530.268,279.911L530.315,279.912C531.447,281.269 552.137,338.127 554.629,375.531Z"
    id="room-167"
    stroke="currentColor"
    name="Alien Life Support and Quarters"
  />
  <path
    d="M553.917,396.469C549.384,434.113 530.268,491.821 530.268,491.821C548.362,491.253 572.673,478.96 598.566,478.285C620.534,477.712 643.642,477.099 665.058,476.442C704.56,475.232 738.307,485.55 748.541,484.031C750.195,483.785 753.062,483.45 753.262,482.786C756.279,472.813 760.133,455.927 765.164,443.037C742.077,438.212 724.006,419.75 719.778,396.469L553.917,396.469Z"
    id="room-168"
    stroke="currentColor"
    name="VIP Quarters"
  />
</svg>
