<?xml version="1.0" encoding="UTF-8" standalone="no"?>
<!DOCTYPE svg PUBLIC "-//W3C//DTD SVG 1.1//EN" "http://www.w3.org/Graphics/SVG/1.1/DTD/svg11.dtd">
<svg width="100%" height="100%" viewBox="0 0 128 128" version="1.1" xmlns="http://www.w3.org/2000/svg" xmlns:xlink="http://www.w3.org/1999/xlink" xml:space="preserve" xmlns:serif="http://www.serif.com/" style="fill-rule:evenodd;clip-rule:evenodd;stroke-linejoin:round;stroke-miterlimit:2;">
    <g transform="matrix(0.16812,0,0,0.16812,10.2014,20.9612)">
        <path        style="fill: currentColor"
 d="M256,48C256,21.5 277.5,0 304,0L592,0C618.5,0 640,21.5 640,48L640,464C640,490.5 618.5,512 592,512L381.3,512C383.1,507 384,501.6 384,496L384,253.3C402.6,246.7 416,228.9 416,208L416,176C416,149.5 394.5,128 368,128L256,128L256,48ZM571.3,347.3C577.5,341.1 577.5,330.9 571.3,324.7L507.3,260.7C501.1,254.5 490.9,254.5 484.7,260.7L420.7,324.7C414.5,330.9 414.5,341.1 420.7,347.3C426.9,353.5 437.1,353.5 443.3,347.3L480,310.6L480,432C480,440.8 487.2,448 496,448C504.8,448 512,440.8 512,432L512,310.6L548.7,347.3C554.9,353.5 565.1,353.5 571.3,347.3ZM0,176C0,167.2 7.2,160 16,160L368,160C376.8,160 384,167.2 384,176L384,208C384,216.8 376.8,224 368,224L16,224C7.2,224 0,216.8 0,208L0,176ZM352,256L352,480C352,497.7 337.7,512 320,512L64,512C46.3,512 32,497.7 32,480L32,256L352,256ZM144,320C135.2,320 128,327.2 128,336C128,344.8 135.2,352 144,352L240,352C248.8,352 256,344.8 256,336C256,327.2 248.8,320 240,320L144,320Z" />
    </g>
</svg>
