<svg width="100%" height="100%" viewBox="0 0 128 128" version="1.1"
    style="fill-rule:evenodd;clip-rule:evenodd;stroke-linejoin:round;stroke-miterlimit:2;">
    <g transform="matrix(1.29307,0,0,1.29307,-18.7565,-19.8577)">
        <path fill="currentColor"
            d="M84.118,55.616C87.821,55.616 90.823,58.619 90.823,62.322L90.823,95.853C90.823,99.557 87.821,102.559 84.118,102.559L43.882,102.559C40.179,102.559 37.177,99.557 37.177,95.853L37.177,62.322C37.177,58.619 40.179,55.616 43.882,55.616L43.882,45.559C43.882,34.447 52.888,25.441 64,25.441C75.11,25.441 84.118,34.447 84.118,45.559L84.118,55.616ZM77.412,55.616L77.412,45.559C77.412,38.15 71.407,32.147 64,32.147C56.593,32.147 50.588,38.151 50.588,45.559L50.588,55.616L77.412,55.616ZM60.647,81.511L60.647,85.794C60.647,87.644 62.149,89.147 64,89.147C65.85,89.147 67.353,87.644 67.353,85.794L67.353,81.511C69.347,80.349 70.706,78.21 70.706,75.735C70.706,72.031 67.703,69.028 64,69.028C60.297,69.028 57.295,72.031 57.295,75.735C57.295,78.21 58.652,80.349 60.647,81.511Z" />
    </g>
</svg>