<svg xmlns="http://www.w3.org/2000/svg" xml:space="preserve" style="fill-rule:evenodd;clip-rule:evenodd;stroke-linejoin:round;stroke-miterlimit:2" viewBox="0 0 128 128">
  <path fill="currentColor" d="M14.317 60.975v-.002C19.6 49.085 24.84 37.178 30.164 25.309q.236-.515.51-1.01a13.6 13.6 0 0 1 4.38-4.723 13.7 13.7 0 0 1 6.174-2.208q.625-.061 1.255-.07 21.518-.084 43.036 0 .567.007 1.13.058a13.6 13.6 0 0 1 2.316.416c1.373.372 2.688.96 3.882 1.736a13.7 13.7 0 0 1 4.42 4.683q.31.546.57 1.118l.047.103 15.8 35.56.002.006q.074.166.134.339l.003.01.003.008a5 5 0 0 1 .186.728 4.567 4.567 0 0 1 .064.752v.006c0 7.646.048 15.29-.001 22.937a13.56 13.56 0 0 1-.837 4.518 13.76 13.76 0 0 1-8.283 8.182 13.6 13.6 0 0 1-4.36.78q-36.594.234-73.188 0a13.56 13.56 0 0 1-4.518-.837 13.77 13.77 0 0 1-8.237-8.441 13.6 13.6 0 0 1-.726-4.363V62.81q.002-.16.012-.318l.001-.004.002-.027v-.02q.01-.114.026-.226l.009-.062.006-.043.002-.012.002-.006v-.01l.004-.019.006-.038.012-.064.001-.004.002-.007.005-.027.007-.033v-.006l.002-.002.013-.066.002-.005.001-.005.028-.115a4.359 4.359 0 0 1 .249-.717m11.165-2.706h20.31l.405.018c.358.048.45.048.8.145a4.55 4.55 0 0 1 2.341 1.536c.085.105.16.218.24.327l7.754 11.63h13.336l7.754-11.63c.08-.109.155-.222.24-.327a4.56 4.56 0 0 1 2.738-1.626c.356-.065.448-.057.809-.073h20.328c-4.284-9.784-8.476-19.61-13.025-29.272a4.61 4.61 0 0 0-.76-1.12 4.6 4.6 0 0 0-2.128-1.306 4.6 4.6 0 0 0-1.183-.168c-14.276-.056-28.552 0-42.827 0-.433.002-.862.06-1.277.18a4.6 4.6 0 0 0-2.276 1.509q-.353.436-.59.943l-.04.088zm17.873 9.104H23.02c-.03 6.11-.108 12.218.01 18.326.015.468.098.93.255 1.372a4.68 4.68 0 0 0 2.756 2.788c.457.17.937.258 1.424.274 24.351.47 48.717.47 73.068 0a4.5 4.5 0 0 0 1.373-.254 4.68 4.68 0 0 0 2.788-2.756 4.4 4.4 0 0 0 .275-1.555V67.373H84.645l-7.753 11.63-.24.328c-.239.27-.29.348-.564.584a4.55 4.55 0 0 1-2.577 1.097c-.135.011-.27.011-.407.018H54.896c-.136-.007-.272-.007-.407-.018a4.57 4.57 0 0 1-2.872-1.376c-.251-.261-.296-.342-.509-.633z"/>
</svg>
