<svg xmlns="http://www.w3.org/2000/svg" xml:space="preserve" style="fill-rule:evenodd;clip-rule:evenodd;stroke-linejoin:round;stroke-miterlimit:2" viewBox="0 0 128 128"><path d="M106.556 56.713h7.806v15.3h-7.578a43.1 43.1 0 0 1-6.945 17.37l5.182 5.182-10.82 10.819-5.067-5.07a43.3 43.3 0 0 1-9.834 5.254v-9.727C90.63 90.204 98.425 78.505 98.425 65c0-19-15.426-34.425-34.425-34.425C45 30.575 29.575 46 29.575 65c0 13.505 7.794 25.204 19.125 30.841v9.727a43.3 43.3 0 0 1-9.834-5.254l-5.068 5.07-10.82-10.819 5.182-5.183a43.1 43.1 0 0 1-6.945-17.37h-7.577v-15.3h7.805a43.1 43.1 0 0 1 7.242-16.846L22.98 34.16l10.819-10.82 5.82 5.82a43.1 43.1 0 0 1 16.732-6.836V14h15.3v8.324a43.1 43.1 0 0 1 16.732 6.836l5.82-5.82 10.819 10.82-5.707 5.706a43.1 43.1 0 0 1 7.242 16.847M71.65 116h-15.3V85.284C48.157 82.19 42.325 74.27 42.325 65c0-7.75 4.076-14.556 10.2-18.387v22.425L64 76.263l11.475-7.225V46.613c6.123 3.831 10.2 10.637 10.2 18.387 0 9.27-5.832 17.189-14.025 20.284z" fill="currentColor"/></svg>