<svg xmlns="http://www.w3.org/2000/svg" xml:space="preserve" style="fill-rule:evenodd;clip-rule:evenodd;stroke-linejoin:round;stroke-miterlimit:2" viewBox="0 0 128 128"><path d="M51.808 37.856h-.18l-1.344.264v-4.308l1.392.264h.132a9.3 9.3 0 0 1 1.188-2.808 8.911 8.911 0 0 1 4.524-3.648 8.7 8.7 0 0 1 2.988-.516 8.5 8.5 0 0 1 3.564.774 9.6 9.6 0 0 1 1.578.912q.75.534 1.41 1.194l.024.012q.012 0 .018-.006l.006-.006a1 1 0 0 0 .132-.084q.048-.048.192-.168t.3-.258.3-.258.204-.18h.012q.06 0 .102.09t.066.09l1.848 3.204.06.132a.6.6 0 0 0 .072.132v.048l-4.092 1.392a.1.1 0 0 0-.024.006.1.1 0 0 1-.024.006q-.048 0-.096-.066a.8.8 0 0 1-.084-.15l-.066-.156a.4.4 0 0 1-.03-.084 7.4 7.4 0 0 0-.954-1.506 6 6 0 0 0-1.254-1.152 5.73 5.73 0 0 0-3.276-.99q-1.02 0-1.974.348a6.4 6.4 0 0 0-1.74.96 5.8 5.8 0 0 0-1.332 1.464 5.6 5.6 0 0 0-.762 1.86l.132.048 2.256.444q.012.012.042-.06a3 3 0 0 0 .066-.174 5 5 0 0 1 .12-.306 3.76 3.76 0 0 1 1.29-1.53q.414-.282.9-.432t1.014-.15q.72 0 1.35.282t1.098.756.738 1.11.27 1.344-.276 1.332-.744 1.092-1.098.744-1.338.276q-.444 0-.882-.108a3.47 3.47 0 0 1-1.56-.852 2.8 2.8 0 0 1-.606-.822l-.078-.162a6 6 0 0 1-.126-.264.2.2 0 0 1-.03-.072l-.042-.132-.042-.132a.4.4 0 0 1-.018-.072l-.048-.048h-.048l-2.244.456-.054.024a.1.1 0 0 0-.042.024v.012q0 .24.102.498t.21.474q.396.828.954 1.506a6 6 0 0 0 1.26 1.158q.702.48 1.524.738a5.8 5.8 0 0 0 1.758.258q.768 0 1.524-.204t1.422-.582a6 6 0 0 0 1.224-.924q.558-.546.954-1.23a1.5 1.5 0 0 0 .132-.252l.258-.606q.066-.15.15-.27l.018-.018q.018-.018.03-.018h.048l4.14 1.392v.048a.6.6 0 0 0-.072.132l-.06.132-1.848 3.192-.06.108q-.048.084-.108.084l-.012-.012q-.024 0-.09-.054a1 1 0 0 1-.09-.078 8 8 0 0 1-.192-.162l-.288-.246-.288-.246a4 4 0 0 0-.18-.15h-.048q-1.344 1.356-3.012 2.118a8.5 8.5 0 0 1-3.576.762 8.4 8.4 0 0 1-2.958-.528 9.1 9.1 0 0 1-2.58-1.464 9.3 9.3 0 0 1-1.98-2.214 8.4 8.4 0 0 1-1.146-2.778m7.464-1.884q0 .252.096.474a1.3 1.3 0 0 0 .258.39q.162.168.378.264t.468.096q.54 0 .888-.348t.348-.888a1.1 1.1 0 0 0-.096-.468 1.2 1.2 0 0 0-.264-.378 1.3 1.3 0 0 0-.384-.258 1.1 1.1 0 0 0-.468-.096q-.252 0-.474.096a1.3 1.3 0 0 0-.39.258 1.18 1.18 0 0 0-.36.858" style="fill-rule:nonzero" transform="rotate(90 239.451 3.417)scale(4.97244)" fill="currentColor"/></svg>