<svg xmlns="http://www.w3.org/2000/svg" xml:space="preserve" style="fill-rule:evenodd;clip-rule:evenodd;stroke-linejoin:round;stroke-miterlimit:2" viewBox="0 0 128 128">
  <path fill="currentColor" d="M97.549 26.62c1.356.053 2.688.29 3.963.759a12.6 12.6 0 0 1 7.417 7.416c.47 1.276.706 2.607.758 3.964.214 16.826.214 33.656 0 50.482-.052 1.357-.289 2.688-.758 3.964a12.6 12.6 0 0 1-7.417 7.416c-1.276.47-2.607.706-3.963.758a2627 2627 0 0 1-67.098 0c-1.356-.052-2.687-.288-3.963-.758a12.6 12.6 0 0 1-7.417-7.416c-.47-1.276-.706-2.607-.758-3.964a1979 1979 0 0 1 0-50.482c.052-1.357.289-2.688.758-3.964a12.6 12.6 0 0 1 7.417-7.416c1.276-.47 2.607-.706 3.963-.758a2627 2627 0 0 1 67.098 0m4.06 20.278L66.381 71.557c-.31.197-.614.373-.962.5a4.18 4.18 0 0 1-2.84 0 5 5 0 0 1-.962-.5L26.506 46.978c-.209 14.055-.422 28.115.117 42.157.028.445.116.88.282 1.295a4.24 4.24 0 0 0 2.452 2.395c.42.154.859.232 1.306.249 22.258.284 44.536.848 66.78-.004.445-.029.88-.117 1.294-.281a4.24 4.24 0 0 0 2.395-2.453c.155-.42.232-.86.25-1.307.179-14.04.506-28.092.226-42.13m-.669-9.673a4.25 4.25 0 0 0-2.297-2.05 4.2 4.2 0 0 0-1.306-.249c-22.178-.283-44.36-.001-66.54-.001-.493.006-.976.08-1.44.25a4.25 4.25 0 0 0-2.297 2.05L64 63.084z"/>
</svg>
