<?xml version="1.0" encoding="UTF-8" standalone="no"?>
<!DOCTYPE svg PUBLIC "-//W3C//DTD SVG 1.1//EN" "http://www.w3.org/Graphics/SVG/1.1/DTD/svg11.dtd">
<svg width="100%" height="100%" viewBox="0 0 128 128" version="1.1" xmlns="http://www.w3.org/2000/svg" xmlns:xlink="http://www.w3.org/1999/xlink" xml:space="preserve" xmlns:serif="http://www.serif.com/" style="fill-rule:evenodd;clip-rule:evenodd;stroke-linejoin:round;stroke-miterlimit:2;">
    <g transform="matrix(0.210938,0,0,0.210938,10,10)">
        <path d="M306.7,325.1L162.4,380.6C142.1,388.1 123.9,369 131.4,349.6L186.9,205.3C190.1,196.8 196.8,190.1 205.3,186.9L349.6,131.4C369,123.9 388.1,142.1 380.6,162.4L325.1,306.7C321.9,315.2 315.2,321.9 306.7,325.1ZM255.1,224C238.3,224 223.1,238.3 223.1,256C223.1,273.7 238.3,288 255.1,288C273.7,288 288,273.7 288,256C288,238.3 273.7,224 255.1,224ZM512,256C512,397.4 397.4,512 256,512C114.6,512 0,397.4 0,256C0,114.6 114.6,0 256,0C397.4,0 512,114.6 512,256ZM256,48C141.1,48 48,141.1 48,256C48,370.9 141.1,464 256,464C370.9,464 464,370.9 464,256C464,141.1 370.9,48 256,48Z"         style="fill: currentColor"/>
    </g>
</svg>
