<?xml version="1.0" encoding="UTF-8" standalone="no"?>
<!DOCTYPE svg PUBLIC "-//W3C//DTD SVG 1.1//EN" "http://www.w3.org/Graphics/SVG/1.1/DTD/svg11.dtd">
<svg width="100%" height="100%" viewBox="0 0 128 128" version="1.1" xmlns="http://www.w3.org/2000/svg" xmlns:xlink="http://www.w3.org/1999/xlink" xml:space="preserve" xmlns:serif="http://www.serif.com/" style="fill-rule:evenodd;clip-rule:evenodd;stroke-linejoin:round;stroke-miterlimit:2;">
    <g transform="matrix(0.191406,0,0,0.191406,21.125,15)">
        <path d="M0,96C0,43 43,0 96,0L192,0L192,190.7C192,204.1 207.5,211.6 218,203.2L272,160L326,203.2C336.5,211.6 352,204.1 352,190.7L352,0L416,0C433.7,0 448,14.3 448,32L448,352C448,369.7 433.7,384 416,384L416,448C433.7,448 448,462.3 448,480C448,497.7 433.7,512 416,512L96,512C43,512 0,469 0,416L0,96ZM64,416C64,433.7 78.3,448 96,448L352,448L352,384L96,384C78.3,384 64,398.3 64,416Z" style="fill:currentColor"/>
    </g>
</svg>
