<?xml version="1.0" encoding="UTF-8" standalone="no"?>
<!DOCTYPE svg PUBLIC "-//W3C//DTD SVG 1.1//EN" "http://www.w3.org/Graphics/SVG/1.1/DTD/svg11.dtd">
<svg width="100%" height="100%" viewBox="0 0 128 128" version="1.1" xmlns="http://www.w3.org/2000/svg"
    xmlns:xlink="http://www.w3.org/1999/xlink" xml:space="preserve" xmlns:serif="http://www.serif.com/"
    style="fill-rule:evenodd;clip-rule:evenodd;stroke-linejoin:round;stroke-miterlimit:2;">
    <g transform="matrix(1.2819,0,0,1.2819,-18.0416,-24.2256)">
        <path
            d="M48.249,67.532L38.058,64.8L26.674,77.639C20.982,84.058 18.634,85.415 24.059,94.813C27.45,100.686 29.641,102.359 32.859,102.368L32.919,102.368C34.837,102.361 37.123,101.773 40.242,101.134L57.051,97.691L59.778,87.5C55.754,86.422 52.153,83.783 49.906,79.89C47.658,75.998 47.17,71.556 48.249,67.532ZM101.326,77.639L89.942,64.8L79.751,67.532C80.829,71.556 80.341,75.997 78.094,79.89C75.846,83.783 72.246,86.421 68.222,87.5L70.949,97.691L87.758,101.134C90.91,101.779 93.211,102.373 95.141,102.368L95.202,102.368C98.387,102.338 100.571,100.649 103.941,94.813C109.366,85.415 107.018,84.058 101.326,77.639ZM64.07,60.903L64,60.903C58.007,60.903 53.148,65.755 53.148,71.749C53.148,77.742 58.007,82.6 64,82.6L64.07,82.6C70.031,82.562 74.852,77.719 74.852,71.749C74.852,65.778 70.031,60.941 64.07,60.903ZM64.252,25.632L64,25.632C53.149,25.632 53.151,28.345 50.438,36.484L45.013,52.761L52.471,60.22L52.54,60.151C55.481,57.246 59.541,55.477 64,55.477L64.105,55.477C68.559,55.505 72.607,57.297 75.529,60.22L82.988,52.761L77.562,36.484C74.87,28.408 74.851,25.675 64.252,25.632Z"
            fill="currentColor" />
    </g>
</svg>