<svg xmlns="http://www.w3.org/2000/svg" xml:space="preserve" fill-rule="evenodd" stroke-linejoin="round"
  stroke-miterlimit="2" clip-rule="evenodd" viewBox="0 0 128 128" width="100%" height="100%">
  <path fill="currentColor"
    d="M62.5 9.4C77.7 9.4 90.1 34 90.1 64s-12.4 54.6-27.6 54.6H60v-.1h-1.6l-.1-.1h-1l-.1-.1h-.9l-.1-.1h-.7l-.1-.1h-.7v-.1h-.5l-.2-.1h-.7v-.1h-.5v-.1h-.6v-.1h-.4l-.2-.1h-.3l-.1-.1h-.4l-.1-.1h-.2l-.2-.1H50l-.1-.1h-.2l-.3-.1a54.7 54.7 0 0 1-35-27.4h-.1v-.1l-.1-.1v-.1l-.1-.1a54.3 54.3 0 0 1 0-50.4v-.2h.1l.1-.2A54.7 54.7 0 0 1 49.4 11h.5v-.1h.4l.2-.1h.2l.1-.1h.3l.2-.1h.4l.1-.1h.5l.1-.1h.4l.1-.1h.5v-.1h.6l.1-.1h.5l.1-.1h.7v-.1h.8v-.1h.9l.1-.1h1l.1-.1h1.6v-.1h2.7Zm-3.4 71v29.9a18.6 18.6 0 0 1-6.7-6.5A58 58 0 0 1 44.1 82c4.7-1 9.7-1.5 15-1.7Zm6.8 0c5 .4 11.2 1.3 15 1.9a57.9 57.9 0 0 1-8.3 21.5 18 18 0 0 1-6.7 6.5V80.5Zm38.2 9.2 13 19h-13l-13-19 13-19h13l-13 19Zm-67.3-5.8c2 9.9 5.3 18.3 9.6 24.4-9-3.3-16.7-9.2-22.2-16.9l-.1-.1-.9-1.3c3.7-2.4 8.3-4.5 13.6-6ZM35 67.4c0 3.1.3 6.1.7 9a61 61 0 0 0-16 7c-2.3-5-3.7-10.3-4.1-16H35Zm47.5 0c0 2.6-.3 5-.5 7.5-4-.6-10.6-1.6-16-2v-5.5h16.5ZM59.1 73c-5.7.2-11 .8-16.1 1.8-.3-2.4-.4-4.8-.5-7.3H59V73ZM82 53.1l.5 7.5H66V55c5.4-.3 11.9-1.2 16-2Zm-62.4-8.5a61 61 0 0 0 16 7c-.3 2.9-.5 5.9-.6 9H15.6c.4-5.7 1.8-11 4-16ZM43 53.3c5 1 10.4 1.6 16 1.8v5.5H42.6c0-2.5.2-5 .5-7.3Zm74-14.9-13 19H91l13-19-13-19h13l13 19ZM59 17.7v29.9c-5.2-.2-10.2-.8-15-1.7a58 58 0 0 1 8.4-21.7c2-3 4.2-5.3 6.7-6.5Zm7 0c2.4 1.2 4.6 3.6 6.6 6.5a57.8 57.8 0 0 1 8.3 21.5c-4 .6-10 1.5-15 1.8V17.7Zm-19.6 2a65.3 65.3 0 0 0-9.6 24.5 53.6 53.6 0 0 1-13.6-6.1l.9-1.3.1-.1a47.2 47.2 0 0 1 22.2-17Z" />
</svg>