<?xml version="1.0" encoding="UTF-8" standalone="no"?>
<!DOCTYPE svg PUBLIC "-//W3C//DTD SVG 1.1//EN" "http://www.w3.org/Graphics/SVG/1.1/DTD/svg11.dtd">
<svg width="100%" height="100%" viewBox="0 0 128 128" version="1.1" xmlns="http://www.w3.org/2000/svg"
    xmlns:xlink="http://www.w3.org/1999/xlink" xml:space="preserve" xmlns:serif="http://www.serif.com/"
    style="fill-rule:evenodd;clip-rule:evenodd;stroke-linejoin:round;stroke-miterlimit:2;">
    <path
        d="M102.986,27.606C122.49,48.489 122.085,81.351 101.716,101.738C91.634,111.802 78.239,117.359 63.979,117.359C49.719,117.359 36.325,111.802 26.241,101.719C7.952,83.43 5.542,54.303 20.354,33.309C17.133,29.684 17.226,24.147 20.684,20.687C22.414,18.958 24.715,18.001 27.18,18.001C29.48,18.001 31.615,18.866 33.307,20.375C42.323,14.026 52.884,10.641 63.998,10.641C77.631,10.641 90.474,15.737 100.373,24.992L104.09,21.313C104.808,20.596 105.967,20.596 106.685,21.313C107.402,22.03 107.402,23.19 106.685,23.907L102.986,27.606ZM99.104,99.124C118.037,80.191 118.46,49.667 100.373,30.2L93.86,36.713C97.614,40.835 100.484,45.692 102.269,50.954C104.514,51.084 106.611,51.985 108.212,53.586C111.8,57.174 111.8,63.006 108.212,66.594C107.052,67.754 105.635,68.526 104.09,68.932C103.004,77.873 98.975,86.245 92.609,92.611C84.974,100.228 74.816,104.442 63.979,104.442C53.142,104.442 42.985,100.247 35.35,92.611C19.563,76.825 19.563,51.157 35.35,35.37C42.985,27.753 53.16,23.54 63.979,23.54C74.19,23.54 83.777,27.312 91.247,34.138L97.78,27.606C88.56,19.032 76.638,14.321 63.998,14.321C53.676,14.321 43.849,17.431 35.478,23.3C35.497,23.318 35.497,23.318 35.497,23.337C35.662,23.705 35.791,24.073 35.92,24.459C35.938,24.57 35.975,24.68 36.011,24.791C36.122,25.158 36.195,25.526 36.251,25.912C36.269,26.023 36.269,26.115 36.288,26.244C36.398,27.385 36.325,28.526 36.011,29.648C35.957,29.869 35.883,30.108 35.809,30.328C35.717,30.568 35.625,30.807 35.515,31.047C35.387,31.341 35.238,31.617 35.074,31.892C34.963,32.077 34.853,32.261 34.742,32.426C34.43,32.886 34.098,33.309 33.693,33.715C31.946,35.444 29.645,36.4 27.18,36.4C27.033,36.4 26.886,36.364 26.738,36.346C26.463,36.327 26.167,36.29 25.892,36.253C25.432,36.18 24.972,36.087 24.512,35.94C24.402,35.923 24.292,35.886 24.181,35.849C23.868,35.757 23.573,35.646 23.298,35.499C9.572,55.039 11.853,82.105 28.854,99.124C38.238,108.508 50.712,113.679 63.979,113.679C77.245,113.679 89.72,108.508 99.104,99.124ZM101.846,65.527C103.226,65.508 104.606,64.994 105.618,63.981C107.77,61.829 107.77,58.333 105.618,56.18C104.568,55.15 103.189,54.579 101.716,54.598L101.128,54.653C100.226,54.745 98.92,55.095 97.798,56.199C97.54,56.474 97.301,56.75 97.098,57.063C97.061,57.119 97.043,57.193 97.007,57.247C96.86,57.487 96.713,57.744 96.601,58.02C96.583,58.057 96.583,58.094 96.564,58.131C96.086,59.4 96.086,60.798 96.564,62.068C96.583,62.105 96.583,62.142 96.601,62.179C96.694,62.436 96.841,62.676 96.988,62.914C97.024,62.989 97.043,63.062 97.098,63.136C97.301,63.447 97.54,63.724 97.798,64C98.074,64.276 98.368,64.497 98.681,64.7C98.901,64.828 99.141,64.938 99.38,65.048C99.472,65.086 99.564,65.141 99.656,65.177C99.932,65.288 100.226,65.361 100.521,65.417C100.576,65.417 100.649,65.435 100.705,65.454C100.999,65.49 101.275,65.527 101.569,65.527L101.846,65.527ZM98.515,51.488C98.534,51.488 98.552,51.47 98.571,51.451C96.951,46.962 94.412,42.859 91.228,39.326L83.427,47.128C87.476,51.801 89.72,57.707 89.72,63.981C89.72,70.863 87.052,77.34 82.194,82.198C77.337,87.055 70.861,89.723 63.979,89.723C57.098,89.723 50.621,87.055 45.763,82.198C40.906,77.34 38.238,70.863 38.238,63.981C38.238,57.1 40.906,50.624 45.763,45.765C50.621,40.909 57.098,38.241 63.979,38.241C70.254,38.241 76.16,40.485 80.833,44.588L88.634,36.787C81.863,30.641 73.197,27.256 63.979,27.256C54.136,27.256 44.899,31.084 37.962,38.02C23.611,52.354 23.611,75.702 37.962,90.053C44.899,96.99 54.136,100.818 63.979,100.818C73.823,100.818 83.06,96.99 89.996,90.053C95.626,84.423 99.269,77.082 100.373,69.207C100.355,69.207 100.318,69.189 100.299,69.189C99.951,69.152 99.601,69.06 99.269,68.968C99.067,68.913 98.865,68.858 98.662,68.783C98.387,68.673 98.111,68.582 97.853,68.453C97.577,68.324 97.301,68.158 97.043,68.011C96.86,67.882 96.657,67.791 96.473,67.662C96.031,67.349 95.59,66.999 95.203,66.612C94.762,66.171 94.356,65.693 94.026,65.177C93.97,65.104 93.933,65.011 93.879,64.92C93.621,64.478 93.363,64.037 93.179,63.577C93.161,63.559 93.161,63.54 93.161,63.522C92.738,62.436 92.498,61.295 92.498,60.099C92.498,58.921 92.738,57.763 93.161,56.696C93.161,56.677 93.179,56.659 93.179,56.64C93.363,56.162 93.621,55.72 93.879,55.297C93.933,55.205 93.97,55.113 94.026,55.021C94.375,54.506 94.762,54.028 95.203,53.586C95.682,53.125 96.197,52.721 96.73,52.371C96.823,52.317 96.914,52.28 97.007,52.224C97.484,51.93 97.981,51.691 98.515,51.488ZM27.364,32.702C27.603,32.702 27.824,32.684 28.063,32.648C28.174,32.629 28.284,32.611 28.394,32.592C28.615,32.555 28.835,32.482 29.057,32.408L29.388,32.298C29.608,32.224 29.811,32.095 30.014,31.985C30.105,31.929 30.216,31.874 30.308,31.819C30.602,31.617 30.859,31.414 31.118,31.157C31.375,30.899 31.596,30.623 31.78,30.347C31.89,30.181 31.963,29.997 32.056,29.831C32.11,29.703 32.185,29.593 32.24,29.464C32.332,29.224 32.406,28.986 32.479,28.746L32.534,28.544C32.589,28.269 32.644,27.992 32.663,27.697L32.663,27.606C32.682,27.293 32.682,26.98 32.644,26.668L32.644,26.649C32.553,25.692 32.185,24.735 31.577,23.925L31.467,23.778C31.338,23.613 31.228,23.447 31.081,23.3C30.032,22.251 28.652,21.68 27.18,21.68C25.707,21.68 24.328,22.251 23.279,23.3C21.127,25.435 21.127,28.949 23.279,31.101C23.463,31.285 23.665,31.432 23.868,31.58L23.905,31.598C24.126,31.764 24.365,31.892 24.603,32.021C24.678,32.058 24.752,32.114 24.843,32.151C25.027,32.242 25.229,32.316 25.413,32.371C25.56,32.408 25.726,32.463 25.929,32.574C26.076,32.592 26.223,32.629 26.37,32.648C26.591,32.684 26.793,32.702 27.014,32.702L27.364,32.702ZM62.673,65.288C61.955,64.57 61.955,63.411 62.673,62.693L78.221,47.146C74.246,43.76 69.26,41.92 63.979,41.92C58.072,41.92 52.516,44.184 48.358,48.36C44.199,52.537 41.9,58.075 41.9,63.981C41.9,69.888 44.181,75.445 48.358,79.603C52.535,83.762 58.072,86.061 63.979,86.061C69.885,86.061 75.443,83.78 79.6,79.603C83.758,75.426 86.059,69.888 86.059,63.981C86.059,58.701 84.2,53.715 80.833,49.74L65.285,65.288C64.918,65.638 64.458,65.821 63.979,65.821C63.501,65.821 63.041,65.656 62.673,65.288Z"
        fill="currentColor" />
</svg>