<svg width="100%" height="100%" viewBox="0 0 32 32" version="1.1" xmlns="http://www.w3.org/2000/svg"
    xmlns:xlink="http://www.w3.org/1999/xlink" xml:space="preserve" xmlns:serif="http://www.serif.com/"
    style="fill-rule:evenodd;clip-rule:evenodd;stroke-linejoin:round;stroke-miterlimit:1.41421;">
    <path
        d="M16.979,16.827C18.923,17.155 20.245,14.759 20.572,13.048C21.459,8.403 20.189,2.21 16.906,1.363C16.906,1.363 16.325,0.587 17.045,0.628C19.765,1.143 21.204,5.285 21.498,8.951C21.774,12.396 21.439,16.721 18.306,17.543C17.833,17.667 17.213,17.599 16.782,17.523C16.643,17.832 16.443,18.108 16.197,18.335C17.791,19.415 19.754,20.119 21.558,19.455C25.54,17.99 26.771,12.185 25.639,8.1C25.639,8.1 25.549,7.621 26.025,7.626C26.637,7.701 26.508,8.4 26.61,9.004C27.474,14.138 25.043,20.779 19.712,20.465C18.214,20.376 16.784,19.68 15.527,18.779C15.214,18.921 14.866,19 14.5,19C14.474,19 14.449,19 14.424,18.999C14.899,19.806 15.5,20.908 16.27,21.66C18.457,23.797 22.02,24.363 24.727,22.709C26.763,21.465 28.062,19.266 28.636,16.911C28.636,16.911 28.632,16.582 29.066,16.631C29.439,16.722 29.428,16.829 29.339,17.192C28.288,21.359 24.559,25 20.183,24.414C17.186,24.013 14.711,21.634 13.465,18.776C13.112,18.615 12.803,18.375 12.561,18.077C11.68,21.08 10.971,24.541 13.288,26.881C15.538,29.154 19.122,29.024 22.011,28.819C22.818,28.762 23.997,28.625 23.997,28.625C24.392,28.644 24.473,29.25 24.086,29.365C21.807,29.771 19.186,29.8 16.916,29.381C14.288,28.896 11.685,27.106 11.179,24.223C10.767,21.878 11.333,19.429 12.074,17.106C12.026,16.912 12,16.709 12,16.5C12,16.352 12.013,16.207 12.038,16.065C9.457,17.879 7.197,20.532 7.356,23.903C7.481,26.564 9.026,29.084 11.222,30.698C11.222,30.698 11.366,30.831 11.374,30.978C11.393,31.296 11.147,31.573 10.679,31.23C7.197,28.601 5.427,23.739 7.585,19.702C8.736,17.55 10.694,15.948 12.757,14.708C12.841,14.627 12.931,14.551 13.026,14.481C10.526,12.894 6.988,12.75 4.964,15.231C4.512,15.785 4.163,16.418 3.917,17.088C3.126,19.249 3.43,21.677 4.346,23.855C4.346,23.855 3.908,24.749 3.614,24.05C1.859,19.78 2.532,13.446 8.177,12.539C10.145,12.223 12.148,12.926 13.799,14.1C14.021,14.035 14.257,14 14.5,14C14.635,14 14.767,14.011 14.896,14.031C13.294,9.573 6.634,7.071 3.179,11.317C2.095,12.649 1.584,14.35 1.372,16.047C1.372,16.047 0.545,16.612 0.644,15.829C1.13,12.202 3.553,8.552 7.581,8.371C7.715,8.366 7.849,8.365 7.983,8.366C11.513,8.436 14.838,10.974 15.78,14.353C15.879,14.412 15.973,14.477 16.062,14.548C16.135,14.472 16.24,14.393 16.383,14.312C16.981,13.96 17.476,13.431 17.712,12.779C18.593,10.34 16.575,7.903 14.778,6.55C11.283,3.919 6.333,3.802 2.13,5.352C2.13,5.352 1.93,5.399 1.8,5.317C1.091,4.869 3.247,4.107 4.892,3.803C5.776,3.639 6.671,3.552 7.57,3.541C7.698,3.541 7.698,3.541 7.826,3.542C11.999,3.602 16.319,5.579 18.074,9.337C18.968,11.251 18.694,13.945 16.552,15.072C16.834,15.477 17,15.969 17,16.5C17,16.611 16.993,16.72 16.979,16.827ZM30.76,27.228C31.389,27.301 31.004,28.395 30.57,28.889C29.673,29.909 28.329,30.553 26.96,30.754C26.508,30.806 26.338,30.124 27.074,29.972C28.573,29.637 30.294,28.713 30.355,27.57C30.379,27.364 30.548,27.216 30.76,27.228ZM14.5,15C15.328,15 16,15.672 16,16.5C16,17.328 15.328,18 14.5,18C13.672,18 13,17.328 13,16.5C13,15.672 13.672,15 14.5,15ZM25.128,0.874C27.508,0.965 28.564,4.22 29,6C29.168,6.686 29.359,7.021 29.093,7.272C28.123,8.189 27.905,4.025 26.988,2.806C26.398,2.021 25.065,1.741 24.821,1.535C24.57,1.322 24.727,0.869 25.128,0.874Z"
        fill="currentColor" />
</svg>