<svg clip-rule="evenodd" fill-rule="evenodd" stroke-linejoin="round" stroke-miterlimit="2" viewBox="0 0 64 64"
  xmlns="http://www.w3.org/2000/svg">
  <path
    d="m63.5 36c17.937 0 32.5 14.563 32.5 32.5s-14.563 32.5-32.5 32.5-32.5-14.563-32.5-32.5 14.563-32.5 32.5-32.5zm0 9c12.97 0 23.5 10.53 23.5 23.5s-10.53 23.5-23.5 23.5-23.5-10.53-23.5-23.5 10.53-23.5 23.5-23.5zm0 12c6.347 0 11.5 5.153 11.5 11.5s-5.153 11.5-11.5 11.5-11.5-5.153-11.5-11.5 5.153-11.5 11.5-11.5z"
    fill="currentColor" transform="matrix(.984615 0 0 .984615 -30.5231 -35.4462)" />
</svg>