<svg width="100%" height="100%" viewBox="0 0 150 150" version="1.1" xmlns="http://www.w3.org/2000/svg"
    xmlns:xlink="http://www.w3.org/1999/xlink" xml:space="preserve"
    style="fill-rule:evenodd;clip-rule:evenodd;stroke-linejoin:round;stroke-miterlimit:1.41421;">
    <g transform="matrix(1.17371,0,0,1.17371,-62.297,-20.9826)">
        <circle cx="95.036" cy="46.546" r="11.656" fill="currentColor" />
    </g>
    <g transform="matrix(1.17371,0,0,1.17371,-59.2794,-21.2552)">
        <path
            d="M107.198,37.95C109.937,41.451 111.57,45.859 111.57,50.644C111.57,62.031 102.325,71.276 90.938,71.276C79.551,71.276 70.306,62.031 70.306,50.644C70.306,39.257 79.551,30.012 90.938,30.012C91.411,30.012 91.88,30.028 92.345,30.06C83.588,30.459 76.601,37.695 76.601,46.55C76.601,55.66 83.998,63.057 93.109,63.057C102.219,63.057 109.616,55.66 109.616,46.55C109.616,43.4 108.732,40.455 107.198,37.95Z"
            fill="currentColor" />
    </g>
    <g transform="matrix(1.48875,-0.859531,0.859531,1.48875,-131.459,52.2055)">
        <path
            d="M107.198,37.95C109.937,41.451 111.57,45.859 111.57,50.644C111.57,62.031 102.325,71.276 90.938,71.276C79.551,71.276 70.306,62.031 70.306,50.644C70.306,39.257 79.551,30.012 90.938,30.012C91.411,30.012 91.88,30.028 92.345,30.06C83.588,30.459 76.601,37.695 76.601,46.55C76.601,55.66 83.998,63.057 93.109,63.057C102.219,63.057 109.616,55.66 109.616,46.55C109.616,43.4 108.732,40.455 107.198,37.95Z"
            fill="currentColor" />
    </g>
    <g transform="matrix(1.2819,-2.22032,2.22032,1.2819,-172.849,201.522)">
        <path
            d="M107.198,37.95C109.937,41.451 111.57,45.859 111.57,50.644C111.57,62.031 102.325,71.276 90.938,71.276C79.551,71.276 70.306,62.031 70.306,50.644C70.306,39.257 79.551,30.012 90.938,30.012C91.411,30.012 91.88,30.028 92.345,30.06C83.588,30.459 76.601,37.695 76.601,46.55C76.601,55.66 83.998,63.057 93.109,63.057C102.219,63.057 109.616,55.66 109.616,46.55C109.616,43.4 108.732,40.455 107.198,37.95Z"
            fill="currentColor" />
    </g>
    <g transform="matrix(0,-3.60473,3.60473,0,-107.789,403.077)">
        <path
            d="M107.198,37.95C109.937,41.451 111.57,45.859 111.57,50.644C111.57,62.031 102.325,71.276 90.938,71.276C79.551,71.276 70.306,62.031 70.306,50.644C70.306,39.257 79.551,30.012 90.938,30.012C91.411,30.012 91.88,30.028 92.345,30.06C83.588,30.459 76.601,37.695 76.601,46.55C76.601,55.66 83.998,63.057 93.109,63.057C102.219,63.057 109.616,55.66 109.616,46.55C109.616,43.4 108.732,40.455 107.198,37.95Z"
            fill="currentColor" />
    </g>
</svg>