<svg clip-rule="evenodd" fill-rule="evenodd" stroke-linejoin="round" stroke-miterlimit="2" viewBox="0 0 64 64"
  xmlns="http://www.w3.org/2000/svg">
  <path
    d="m438.117 558.771c-.871 2.242-1.349 4.68-1.349 7.229 0 10.48 8.078 19.088 18.342 19.932v11.855l-27.667-15.299v-29.669zm37.332.075 10.661-5.894v29.536l-27.667 15.299v-11.856c10.256-.852 18.325-9.457 18.325-19.931 0-2.52-.467-4.932-1.319-7.154zm-20.339 9.402v14.573c-8.552-.834-15.243-8.052-15.243-16.821 0-2.001.348-3.921.987-5.702zm17.596-7.885c.624 1.762.964 3.66.964 5.637 0 8.763-6.683 15.978-15.227 16.82v-14.572zm-30.177-3.467c3.005-4.688 8.262-7.798 14.239-7.798 6.007 0 11.286 3.14 14.284 7.867l-14.262 7.608zm-2.735-1.472-12.34-6.643 29.322-15.994 29.307 16.16-12.291 6.556c-3.526-5.702-9.834-9.503-17.024-9.503-7.156 0-13.439 3.767-16.974 9.424z"
    fill="currentColor" fill-rule="nonzero" transform="matrix(.984615 0 0 .984615 -417.749 -524.59)" />
</svg>