<svg clip-rule="evenodd" fill-rule="evenodd" stroke-linejoin="round" stroke-miterlimit="2" viewBox="0 0 64 64"
  xmlns="http://www.w3.org/2000/svg">
  <g>
    <path d="m447 246 40 40-40 40 40 40-40 40-40-40-40 40-40-40 40-40-40-40 40-40 40 40z"
      transform="matrix(.264093 -.264093 .264093 .264093 -95.58 53.3915)" fill="currentColor" />
    <path
      d="m381 38c17.109 0 31 13.891 31 31s-13.891 31-31 31-31-13.891-31-31 13.891-31 31-31zm3.512 13.346c-2.319-.461-4.705-.461-7.024 0 .288 1.445-.021 2.748-.926 3.91-.737.238-1.453.535-2.142.888-1.462-.182-2.602-.886-3.42-2.11-1.966 1.313-3.653 3-4.966 4.966 1.224.818 1.928 1.958 2.11 3.42-.353.689-.65 1.405-.888 2.142-1.162.905-2.465 1.214-3.91.926-.461 2.319-.461 4.705 0 7.024 1.445-.288 2.748.021 3.91.926.238.737.535 1.453.888 2.142-.182 1.462-.886 2.602-2.11 3.42 1.313 1.966 3 3.653 4.966 4.966.818-1.224 1.958-1.928 3.42-2.11.689.353 1.405.65 2.142.888.905 1.162 1.214 2.465.926 3.91 2.319.461 4.705.461 7.024 0-.288-1.445.021-2.748.926-3.91.737-.238 1.453-.535 2.142-.888 1.462.182 2.602.886 3.42 2.11 1.966-1.313 3.653-3 4.966-4.966-1.224-.818-1.928-1.958-2.11-3.42.353-.689.65-1.405.888-2.142 1.162-.905 2.465-1.214 3.91-.926.461-2.319.461-4.705 0-7.024-1.445.288-2.748-.021-3.91-.926-.238-.737-.535-1.453-.888-2.142.182-1.462.886-2.602 2.11-3.42-1.313-1.966-3-3.653-4.966-4.966-.818 1.224-1.958 1.928-3.42 2.11-.689-.353-1.405-.65-2.142-.888-.905-1.162-1.214-2.465-.926-3.91zm-3.512 11.653c3.312 0 6.001 2.689 6.001 6.001s-2.689 6.001-6.001 6.001-6.001-2.689-6.001-6.001 2.689-6.001 6.001-6.001z"
      transform="matrix(1.03226 0 0 1.03226 -361.2903 -39.2258)" fill="currentColor" />
  </g>
</svg>