<svg width="100%" height="100%" viewBox="0 0 32 32" version="1.1" xmlns="http://www.w3.org/2000/svg"
    xmlns:xlink="http://www.w3.org/1999/xlink" xml:space="preserve" xmlns:serif="http://www.serif.com/"
    style="fill-rule:evenodd;clip-rule:evenodd;stroke-linejoin:round;stroke-miterlimit:1.41421;">
    <g transform="matrix(0.38159,0,0,0.38159,-2831.79,-2652.87)">
        <path
            d="M7455.66,7028.48C7455.88,7027.8 7455.72,7027.16 7455.9,7025.5C7457.71,7026.6 7458.21,7024.99 7458.45,7023.38C7456.78,7023.24 7456.64,7026.03 7455.05,7024.65C7455.33,7024.22 7456.03,7024.21 7455.9,7023.38C7455.84,7022.88 7455.13,7023.02 7454.63,7022.95C7453.59,7023.54 7453.73,7026.83 7452.08,7027.2C7452.2,7026.94 7453.14,7025.57 7452.08,7025.5C7452.15,7025.01 7452.85,7025.14 7453.35,7025.08C7452.54,7023.1 7450.98,7022.57 7451.65,7020.83C7449.57,7020.93 7451.26,7022.6 7450.38,7024.23C7451.12,7023.18 7451.32,7023.37 7451.23,7025.08C7449.64,7024.36 7450.56,7025.33 7449.1,7025.5C7446.57,7022.24 7452.11,7021.42 7449.95,7018.7C7451.02,7018.76 7451.28,7019.51 7451.65,7018.28C7451.43,7017.62 7451.21,7018.25 7451.23,7018.7C7449.73,7018.08 7448.69,7015.21 7449.1,7014.03C7449.92,7015.32 7452.36,7017.68 7454.63,7017.43C7455.24,7016.26 7457.04,7012.98 7455.48,7012.33C7455.78,7011.39 7457.47,7010.91 7458.03,7011.48C7458.82,7012.21 7456.74,7011.18 7456.33,7012.33C7457.24,7012.83 7458.86,7013.1 7458.88,7011.48C7460.89,7012.2 7459.06,7014.1 7459.3,7015.73C7460.23,7016.35 7460.64,7015.16 7459.73,7017C7460.09,7017.63 7461.1,7017.62 7461.85,7017.85C7461.97,7019.24 7460.2,7018.75 7460.15,7019.98C7460.22,7020.93 7461.23,7019.43 7462.28,7019.98C7461.52,7022.87 7464.68,7023.98 7464.4,7026.78C7462.92,7026.85 7462.27,7027.76 7461.85,7028.9C7461.99,7029.48 7462.92,7029.26 7463.56,7029.33C7462.61,7029.94 7462.32,7031.21 7461,7031.45C7461.22,7033.95 7446.09,7031 7447.4,7029.75C7447.16,7028.87 7446.19,7028.38 7446.98,7027.63C7446.5,7026.55 7444.89,7026.6 7444.85,7025.08C7446.36,7025.22 7445.9,7026.25 7447.4,7025.5L7447.4,7026.78C7448.37,7026.9 7449,7026.68 7449.1,7025.93C7449.79,7027.17 7450.15,7026.4 7451.65,7026.35C7449.43,7027.25 7454.16,7030.21 7450.38,7030.6C7450.81,7031.17 7450.78,7032.19 7451.65,7032.3C7453.08,7031.92 7451.7,7031.35 7452.5,7030.6C7453.25,7030.71 7453.47,7031.34 7453.35,7032.3C7453.04,7032.98 7450.22,7033.34 7449.1,7032.3C7448.69,7032.32 7460.73,7032.41 7459.73,7031.03C7459.11,7031.69 7456.72,7032.49 7455.9,7032.3C7456.58,7031.23 7458.55,7029.84 7459.73,7030.6C7460.56,7030.06 7459.07,7028.54 7461.43,7028.9C7461.55,7028.22 7461.03,7028.17 7461,7027.63C7459.76,7028.74 7459.4,7028.1 7457.6,7028.48L7457.6,7030.6C7457.23,7030.27 7456.64,7030.15 7455.9,7030.18C7456.01,7029.76 7455.9,7028.29 7455.66,7028.48C7455.62,7028.61 7455.56,7028.75 7455.48,7028.9C7455.55,7028.65 7455.61,7028.52 7455.66,7028.48ZM7491.18,7000L7489.06,7000C7490.78,6998.65 7490.19,6997.57 7489.91,6995.33C7489.24,6994.02 7485.94,6994.62 7485.66,6996.18C7485.33,6995.06 7485.65,6991.96 7483.96,6991.07C7484.95,6990.65 7484.47,6988.76 7485.23,6988.1C7484.06,6988 7484.78,6986 7483.96,6985.55C7485,6984.96 7486.04,6982.85 7487.36,6983.85C7488.57,6984.34 7486.67,6984.34 7486.51,6983.85C7486.01,6983.92 7486.15,6984.62 7486.08,6985.12C7486.19,6986.01 7487.95,6985.24 7488.21,6985.97C7487.09,6987.49 7487.73,6989.05 7489.48,6989.8C7490.91,6989.11 7488.15,6988.45 7489.48,6987.67C7492.25,6989.79 7491.65,6986.05 7493.31,6985.12C7494.4,6985.23 7492.72,6985.86 7493.31,6986.82C7494.64,6987.02 7494.67,6985.92 7494.58,6984.7C7493.7,6984.42 7494.02,6984.3 7493.31,6982.57C7494.31,6983.61 7494.1,6981.94 7495.43,6982.15C7494.54,6983.72 7496.37,6983.68 7495.86,6985.97C7493.79,6986.2 7493.52,6989.28 7495.43,6990.22C7496.14,6990.17 7494.99,6988.45 7495.43,6987.25C7495.93,6987.32 7496.19,6987.16 7496.28,6986.82C7496.99,6987.8 7497.4,6988.41 7498.83,6987.67C7498.6,6988.71 7497.19,6988.58 7497.56,6990.22C7497.03,6990.04 7496.69,6989.68 7496.71,6988.95C7495.65,6990.29 7496.95,6992.53 7498.83,6993.2C7498.27,6994.05 7496.95,6994.15 7495.86,6994.47C7498,6996.06 7495,6997.24 7495.86,6998.73C7493.75,6998.3 7494.5,7000.07 7492.88,6999.15C7493.11,6999.49 7493.33,6999.84 7493.31,7000.43C7493.86,6999.88 7494.87,6999.88 7495.43,7000.43L7495.43,7002.13C7494.12,7001.81 7494.61,7003.29 7493.31,7002.98C7493.24,7004.18 7494.58,7003.97 7494.58,7005.1C7495.11,7004.92 7495.45,7004.56 7495.43,7003.83C7495.81,7004.16 7496.39,7004.28 7497.13,7004.25C7497.16,7004.79 7497.01,7005.51 7497.28,7005.81C7497.4,7005.84 7497.5,7005.88 7497.56,7005.95C7497.44,7005.94 7497.35,7005.89 7497.28,7005.81C7496.34,7005.62 7493.75,7006.53 7492.88,7006.38L7492.88,7008.5C7494.03,7008.79 7493.7,7007.62 7494.16,7007.23C7494.79,7007.59 7494.77,7008.59 7495.01,7009.35C7493.86,7009.06 7494.19,7010.23 7493.73,7010.63C7494.96,7012.09 7497.18,7012.57 7497.13,7015.3C7496.37,7015.36 7496.24,7014.78 7495.43,7014.88C7495.26,7013.85 7496.21,7013.95 7495.86,7012.75C7494.87,7013.18 7494.49,7014.22 7494.58,7015.73C7495.96,7015.62 7495.91,7016.9 7497.56,7017.43C7497.86,7018.73 7494.93,7020.87 7494.16,7019.55C7493.04,7019.43 7489.16,7020.28 7489.16,7020.28L7488.61,7028C7488.61,7028 7484.34,7029.89 7484.38,7029.33C7484,7027.9 7483.96,7026.35 7483.96,7026.35C7483.08,7024.6 7482.35,7021.16 7483.11,7019.55C7481.82,7020.71 7478.25,7021.77 7477.58,7019.55C7479.28,7019.41 7481.81,7020.1 7481.83,7018.28C7482.59,7018.02 7483.6,7019.52 7483.96,7018.28C7484.5,7018.98 7485.06,7020.58 7484.38,7021.25C7485.14,7021.31 7485.28,7020.73 7486.08,7020.83C7485.43,7019.86 7486.85,7018.13 7486.93,7016.58C7485.9,7015.91 7484.56,7015.55 7483.53,7014.88C7484.39,7012.6 7482.61,7012.06 7483.96,7009.78C7482.33,7009.43 7483.46,7011.83 7481.83,7011.48C7480.86,7009.42 7483.97,7008.68 7484.81,7008.08C7484.19,7009.87 7485.82,7011.48 7485.23,7013.6C7485.34,7014.06 7486.08,7013.89 7486.08,7014.45C7490.38,7011.49 7484.82,7006.27 7485.66,7003.83C7486.44,7006.85 7487.49,7005.11 7489.91,7004.68C7489.72,7004.3 7489.53,7003.92 7489.06,7003.83C7489.57,7003.66 7491.04,7003.71 7491.18,7002.13C7492.52,7001.92 7492.31,7003.59 7493.31,7002.55C7490.61,7000.11 7495.35,6995.57 7491.18,6994.47C7491.3,6993.6 7493.06,6994.37 7492.88,6993.2C7492.04,6992.62 7491.29,6990.67 7492.03,6989.8C7491.97,6988.74 7490.59,6989.68 7490.33,6989.8C7490.95,6990.74 7491.62,6991.62 7491.61,6993.2C7490.81,6993.54 7490.05,6993.91 7489.06,6994.05C7491.42,6995.25 7491.57,6996.64 7491.18,7000ZM7438.9,7027.2C7440.55,7027.34 7439.13,7030.55 7441.45,7028.9C7441.11,7030.38 7442.09,7030.54 7441.88,7031.88C7439.29,7030.61 7435.01,7033.31 7435.08,7031.45C7436.4,7032.65 7437.55,7031.1 7437.2,7029.33C7438.13,7029.6 7438.55,7028.12 7438.48,7029.75C7439.81,7029.16 7437.89,7027.66 7438.9,7027.2ZM7467.38,7028.9C7468.13,7029.28 7468.62,7029.93 7469.51,7030.18C7469.34,7031.43 7466.7,7030.35 7467.38,7028.9ZM7487.36,7022.53C7486.59,7022.58 7486.36,7022.11 7486.51,7021.25C7485.06,7021.43 7485.97,7022.4 7484.38,7021.68C7484.39,7022.68 7483.65,7022.93 7483.96,7024.23C7485.01,7024.78 7485.72,7022.98 7486.08,7024.23C7486.76,7025.9 7484.25,7024.38 7484.38,7025.5C7486.04,7025.93 7484.45,7026.97 7484.81,7028.48C7487.44,7028.25 7487.84,7027.54 7486.54,7028.14C7487.1,7026.31 7484.91,7028.38 7485.23,7026.78C7487.89,7026.96 7488.49,7024.99 7486.93,7025.08C7487.35,7023.8 7488.44,7023.18 7488.21,7021.25C7488.78,7021.39 7486.42,7020.14 7486.93,7020.4C7487.29,7020.67 7488.26,7022.39 7487.36,7022.53ZM7478.43,7028.48C7479.61,7028.86 7479.93,7030.1 7480.13,7031.45C7477.45,7031.69 7479.43,7029.92 7478.43,7028.48ZM7424.03,7031.03C7422,7030.07 7425.92,7028.02 7423.6,7028.05C7425.84,7025.8 7425.16,7029.92 7424.03,7031.03ZM7472.9,7027.2C7472.39,7028.53 7471.07,7029.05 7470.78,7030.6C7468.69,7029.5 7471.72,7027.69 7472.9,7027.2ZM7431.59,7020.67C7431.15,7022.38 7431.32,7026.81 7429.98,7028.48C7429.91,7029.68 7431.18,7029.54 7431.68,7030.18C7431.04,7031.06 7429.77,7029 7428.7,7028.9C7428.87,7027.37 7428.54,7025.35 7429.98,7025.08C7430,7024.35 7429.66,7023.98 7429.13,7023.8C7428.34,7023.87 7428.87,7025.24 7428.28,7025.5C7427.18,7023.69 7429.68,7021.81 7429.55,7019.55C7429.37,7018.92 7429.01,7019.72 7428.28,7019.55C7428.31,7018.46 7430.1,7019.11 7429.55,7017.43C7430.04,7018.13 7430.99,7020.22 7429.55,7020.4C7429.39,7020.99 7431.16,7021.08 7431.59,7020.67C7431.62,7020.57 7431.65,7020.48 7431.68,7020.4C7431.71,7020.51 7431.67,7020.6 7431.59,7020.67ZM7454.63,7026.78C7453.88,7028.02 7453.24,7029.36 7452.08,7030.18C7452.38,7028.87 7452.38,7029.36 7452.08,7028.05C7453.96,7028.66 7453.19,7026.61 7454.63,7026.78ZM7435.5,7022.95L7435.5,7025.08C7434.51,7023.71 7434.42,7027.89 7435.5,7027.63C7435.03,7028.29 7434.12,7028.51 7434.23,7029.75C7431.51,7028.08 7434.53,7026.32 7433.38,7024.23C7434.83,7024.55 7433.92,7022.5 7435.5,7022.95ZM7450.8,7027.63L7449.53,7027.63C7449.47,7028.68 7449.45,7029.69 7450.38,7029.75C7450.17,7028.42 7451.84,7028.63 7450.8,7027.63ZM7445.7,7027.63C7445.48,7027.97 7445.26,7028.32 7445.28,7028.9C7443.52,7028.79 7443.62,7029.46 7442.3,7028.9C7443.07,7027.48 7444.39,7028.82 7445.7,7027.63ZM7449.1,7027.63C7448.26,7026.74 7447.29,7027.61 7446.98,7028.48C7447.82,7029.36 7448.79,7028.49 7449.1,7027.63ZM7438.05,7028.05C7437.42,7027.69 7437.14,7026.99 7437.2,7025.93C7438.71,7026.16 7438.25,7024.42 7439.75,7024.65C7439.7,7025.42 7440.27,7025.55 7440.18,7026.35C7438.47,7025.32 7439.06,7027.33 7438.05,7028.05ZM7440.6,7026.35C7440.29,7024.91 7442.17,7025.65 7442.3,7024.65C7443.96,7025.63 7440.4,7025.83 7441.88,7026.78C7441.42,7028.23 7441.75,7025.6 7440.6,7026.35ZM7458.45,7025.08C7461.18,7025.15 7458.03,7025.38 7458.45,7026.78C7459.26,7027.57 7459.52,7026.82 7460.58,7026.78C7460.68,7025.52 7460.19,7022.67 7459.73,7023.38C7460.1,7024.74 7458.33,7023.96 7458.45,7025.08ZM7475.88,7024.23C7478.41,7024.15 7477.62,7026.2 7479.71,7024.65C7479.15,7026.88 7477.45,7025.41 7475.88,7026.35C7474.64,7025.99 7476.14,7024.99 7475.88,7024.23ZM7472.9,7024.23C7471.84,7024.16 7471.57,7024.88 7471.2,7025.5C7470.73,7025.72 7471.13,7022.34 7472.05,7023.8L7472.05,7022.95C7471.23,7022.36 7469.53,7022.29 7469.93,7024.65C7467.12,7024.23 7470.44,7022.74 7469.93,7020.83C7470.47,7020.91 7472.01,7022.06 7472.05,7021.25C7472.71,7021.87 7472.95,7022.91 7472.9,7024.23ZM7432.53,7000.43C7432.91,6999.54 7433.78,6999.13 7435.08,6999.15C7434.97,7001.38 7436.97,7001.51 7438.05,7002.55C7438.16,7003.94 7436.4,7003.45 7436.35,7004.68C7436.87,7007.82 7438.46,7007.7 7437.63,7011.48C7439.72,7010.09 7439.43,7013.21 7441.45,7011.9C7440.94,7013.87 7439.79,7012.7 7438.05,7013.6C7437.93,7014.29 7438.45,7014.33 7438.48,7014.88C7440.06,7015.33 7439.15,7013.28 7440.6,7013.6C7440.72,7014.71 7440.45,7015.43 7439.33,7015.3C7439.43,7016.05 7440.06,7016.27 7441.03,7016.15C7441.56,7014.86 7442.07,7014.72 7442.73,7016.15C7443.4,7013.86 7444.11,7014.06 7445.7,7012.75C7447.05,7012.83 7446.86,7014.43 7446.98,7015.73C7446.48,7015.66 7446.62,7014.95 7446.55,7014.45C7445.42,7014.46 7444.12,7014.29 7443.58,7014.88C7443.8,7015.22 7444.02,7015.57 7444,7016.15C7446.17,7014.08 7443.65,7017.36 7446.55,7017C7447.08,7018.38 7445.18,7017.33 7445.7,7018.7C7443.69,7018.07 7442.8,7017.44 7441.45,7018.7C7441.62,7019.95 7443.92,7019.07 7443.15,7021.25C7444.05,7021.74 7444.39,7021.42 7445.7,7022.1C7445.42,7022.67 7444.79,7022.89 7444,7022.95C7443.88,7022.27 7444.4,7022.22 7444.43,7021.68C7444.05,7022.01 7443.47,7022.13 7442.73,7022.1C7442.35,7021.21 7442.07,7020.21 7441.45,7019.55C7440.69,7019.5 7440.56,7020.07 7439.75,7019.98C7440.09,7021.45 7439.12,7021.61 7439.33,7022.95C7438.49,7021.62 7438,7020.87 7438.48,7019.13C7438.2,7018.56 7437.57,7018.34 7436.78,7018.28C7434.82,7019.7 7437.78,7021.21 7438.05,7022.95C7437.21,7022.95 7437.51,7021.79 7436.35,7022.1C7435.91,7024.1 7438.45,7023.12 7438.05,7025.08C7436.12,7025.17 7436.47,7022.97 7435.5,7022.1C7435.16,7022.47 7434.34,7022.36 7434.23,7022.95C7433.58,7022.19 7432.69,7021.65 7432.95,7019.98L7434.23,7019.98L7434.23,7017.43C7432.36,7018 7431.95,7017.39 7430.4,7018.28L7430.4,7016.58C7432.46,7017.44 7433.58,7016.82 7435.5,7017.43C7434.76,7016.47 7434.45,7015.08 7433.8,7014.03C7434.69,7013.85 7434.93,7014.32 7435.5,7014.45C7435.71,7013.12 7434.04,7013.33 7435.08,7012.33C7434.69,7011.17 7434.29,7013.46 7432.95,7012.75C7433.03,7010.56 7435.67,7010.93 7435.08,7008.08C7433.96,7008.38 7434.24,7010.07 7433.38,7010.63C7432.65,7010.35 7433.11,7009.65 7433.8,7009.78C7433.7,7009.31 7432.96,7009.49 7432.95,7008.93C7433,7007.85 7433.57,7007.28 7434.65,7007.23C7434.39,7006.07 7432.88,7006.17 7432.95,7004.68C7434.68,7004.56 7434.7,7002.75 7435.93,7002.13C7434.83,7002.48 7434.77,6998.93 7432.53,7000.43ZM7478.43,7023.38C7478.47,7022.3 7480.25,7022.14 7479.71,7023.8L7480.98,7023.8C7482.05,7023.72 7479.38,7024.54 7478.43,7023.38ZM7476.31,7021.25C7476.71,7021.81 7476.5,7022.65 7476.31,7023.8C7474.8,7023.33 7472.81,7023.34 7472.91,7021.25C7473.93,7021.43 7473.83,7020.48 7475.03,7020.83C7475.77,7021.69 7474.71,7021.66 7475.46,7022.53C7475.85,7022.22 7476.1,7021.76 7476.31,7021.25ZM7424.45,7018.28C7425.73,7018.56 7425.65,7020.2 7427,7020.4C7426.12,7021.36 7428.14,7023.14 7425.73,7022.95C7425.67,7022.19 7426.25,7022.06 7426.15,7021.25C7425.36,7021.31 7424.73,7021.53 7424.45,7022.1C7423.28,7021.89 7425.77,7019.39 7423.18,7019.98C7423.35,7019.16 7424.82,7019.64 7424.45,7018.28ZM7457.18,7018.28C7459.04,7019.01 7455.67,7022.8 7458.45,7021.68C7457.36,7021.37 7459.71,7018.75 7458.88,7018.7C7458.76,7019.71 7457.74,7018.22 7457.18,7018.28ZM7455.05,7020.83C7455.7,7020.49 7458,7018.21 7455.9,7017.85C7456.2,7019.18 7453.53,7019.68 7455.05,7020.83ZM7426.58,7016.58L7427.43,7016.58C7427.35,7016.94 7427.59,7016.98 7427.85,7017C7427.85,7017.85 7426.69,7017.54 7427,7018.7C7426.44,7018.55 7426.33,7017.95 7425.73,7017.85C7426,7017.42 7426.7,7017.41 7426.58,7016.58ZM7478.86,7016.15C7478.62,7017.19 7478.49,7018.34 7477.16,7018.28C7476.84,7016.68 7477.64,7016.21 7478.86,7016.15ZM7441.88,7018.28C7442.55,7017.64 7442.19,7016.54 7441.45,7016.15C7440.87,7016.69 7440.8,7018.23 7441.88,7018.28ZM7489.48,7017.85C7488.36,7015.16 7491.78,7013.98 7489.91,7013.18C7489.48,7013.74 7489.51,7014.76 7488.63,7014.88C7488.55,7014.07 7488.92,7010.68 7488.21,7011.9C7488.22,7013.76 7486.85,7014.23 7486.51,7015.73C7487.9,7016.03 7487.11,7018.53 7489.48,7017.85ZM7472.06,7012.33C7472.72,7012.48 7471.68,7013.07 7472.48,7013.18C7471.96,7014.46 7470.78,7012.95 7470.78,7012.33C7469.09,7013.82 7472.77,7016.65 7469.93,7017C7470.05,7015.89 7469.78,7015.17 7468.65,7015.3C7468.31,7012.66 7469.1,7013.02 7466.95,7012.75C7467.2,7011.72 7467.32,7010.57 7468.65,7010.63C7467.33,7007.05 7469.35,7006.89 7468.65,7003.4C7471.63,7003.78 7468.11,7001.1 7471.2,7000.43C7470.18,7001.08 7470.53,7002.46 7471.63,7001.28C7472.28,7002.61 7470.73,7004.25 7470.36,7005.1C7470.33,7006.55 7472.54,7005.75 7472.48,7007.23C7470.38,7005.54 7470.88,7009.4 7469.51,7009.78C7469.63,7010.79 7470.65,7009.31 7470.78,7008.93C7471.41,7009.29 7471.4,7010.3 7471.63,7011.05L7470.36,7011.05C7470.67,7011.5 7471.98,7013.05 7472.06,7012.33ZM7429.55,7005.95C7429.2,7008.98 7430.54,7012.58 7432.1,7014.88C7430.9,7015.4 7429.48,7015.4 7428.28,7014.88L7428.28,7012.75C7428.62,7012.98 7428.97,7013.19 7429.55,7013.18C7428.89,7012.14 7429.3,7010.03 7427.43,7010.2C7429.87,7007.78 7427.74,7008.42 7429.55,7005.95ZM7472.9,7012.33C7474.03,7012.1 7474.35,7014.79 7473.76,7014.88C7472.22,7015.28 7473.16,7013.2 7472.9,7012.33ZM7421.9,7012.33C7423.47,7012.38 7422.97,7012.95 7422.75,7014.03C7421.18,7013.98 7421.68,7013.41 7421.9,7012.33ZM7498.41,7007.65C7496.99,7008.65 7497.37,7009.51 7497.13,7011.05C7497.2,7011.84 7498.57,7011.31 7498.83,7011.9C7498.96,7012.88 7497.61,7012.38 7497.56,7013.18C7496.94,7012.51 7497.72,7010.89 7495.86,7010.63C7495.94,7008.86 7496.69,7007.77 7498.41,7007.65ZM7445.28,7008.5C7445.9,7008.87 7446.62,7009.14 7446.55,7010.2C7445.99,7010.71 7445.88,7010.37 7445.28,7010.2L7445.28,7011.05C7443.99,7010.53 7445.74,7009.59 7445.28,7008.5ZM7455.48,6997.03C7455.41,6995.84 7456.68,6995.64 7457.18,6996.18C7457.17,6996.59 7456.66,6996.51 7456.33,6996.6C7458.33,6997.88 7459.74,6994.92 7460.58,6993.62C7461.87,6995.79 7462.49,6997.75 7460.58,6999.58C7462.01,7000.66 7460.59,7002.06 7461.86,7002.98C7463.05,7002.56 7461.24,7001.84 7462.28,7001.28C7463,7001.45 7463.7,7003.77 7462.7,7004.25C7463.22,7004.87 7464.33,7004.9 7464.83,7005.53C7464.49,7007.02 7463.34,7006.02 7462.7,7005.53C7462.68,7008.2 7464.85,7007.54 7463.13,7009.35C7461.78,7007.08 7462.87,7011.37 7460.58,7010.63C7460.57,7009.5 7460.82,7008.12 7459.73,7008.08C7460.33,7006.98 7461.17,7006.12 7461.86,7005.1C7461.05,7003.68 7459.05,7002.51 7459.73,7000.85C7459.1,6999.69 7458.09,6998.93 7456.75,6999.58C7457.59,7001.18 7455.92,7001.38 7456.75,7002.98C7455.99,7003.03 7455.86,7002.46 7455.05,7002.55C7455.2,7003.54 7455.49,7004.38 7456.33,7004.68C7456.32,7005.87 7455.17,7003.66 7455.48,7005.53C7453.99,7005.22 7452.1,7003.5 7450.8,7005.1C7449.2,7004.25 7453.75,7002.13 7451.23,7001.7C7451.35,7000.21 7452.81,7002.77 7452.93,7001.28C7453.93,7001.4 7452.44,7002.41 7452.5,7002.98C7453.3,7003.38 7453.92,7001.7 7454.2,7002.98C7455.98,7001.53 7456.53,7000.34 7455.48,6997.88C7456.04,6998.39 7456.15,6998.04 7456.75,6997.88C7456.57,6997.35 7456.21,6997 7455.48,6997.03ZM7441.88,7006.8C7443.05,7006.62 7442.28,7008.39 7443.15,7008.5C7442.79,7009.13 7442.08,7009.42 7441.03,7009.35C7441.64,7007.74 7439.86,7008.54 7440.18,7007.23C7440.85,7007.19 7441.8,7007.43 7441.88,7006.8ZM7492.03,7008.5C7491.94,7007.7 7492.51,7007.56 7492.46,7006.8C7491.15,7007.1 7491.64,7007.1 7490.33,7006.8C7490.38,7007.88 7490.95,7008.45 7492.03,7008.5ZM7429.98,7003.4C7430.08,7004.5 7430.71,7002.82 7431.68,7003.4C7431.05,7004.4 7430.78,7004.19 7431.25,7005.53C7429.91,7004.86 7428.72,7006.04 7428.7,7004.68C7427.02,7004.84 7429.36,7006.94 7427,7006.8C7427.71,7005.96 7426.96,7006.26 7427,7005.1C7429,7004.92 7427.54,7003.75 7428.28,7002.13C7429.64,7002.03 7429.45,7002.69 7431.25,7001.7C7430.82,7002.27 7430.85,7003.28 7429.98,7003.4ZM7449.53,7003.83C7448.91,7004.63 7448.58,7005.71 7446.98,7005.53C7447.54,7004.67 7448.37,7004.09 7449.53,7003.83ZM7473.33,7002.13C7473.67,7002.42 7474.49,7002.79 7474.61,7002.13C7475.22,7002.22 7474.75,7003.4 7475.46,7003.4C7475.77,7004.71 7474.29,7004.22 7474.61,7005.53C7474.19,7005.52 7474.28,7005.01 7474.18,7004.68C7474.11,7004.18 7473.4,7004.32 7472.9,7004.25C7472.73,7003.23 7473.68,7003.33 7473.33,7002.13ZM7425.73,7002.13C7426.34,7002.65 7426.53,7003.59 7426.58,7004.68C7425.81,7004.73 7425.68,7004.16 7424.88,7004.25C7425.06,7003.44 7426.09,7003.48 7425.73,7002.13ZM7476.31,7000.43C7476.17,6999.68 7478.03,7003.35 7477.58,7004.68C7475.96,7004.45 7476.4,7002.17 7476.31,7000.43ZM7487.78,7002.13L7489.48,7002.13C7489.36,7002.99 7488.33,7002.96 7488.21,7003.83C7487.63,7003.69 7487.85,7002.76 7487.78,7002.13ZM7480.13,7001.28C7481.76,7001.07 7483.11,7002.42 7482.26,7003.4C7481.23,7003.01 7480.52,7002.3 7480.13,7001.28ZM7499.68,6997.88C7499.31,6996.51 7500.79,6996.99 7500.96,6996.18C7502.3,6996.86 7500.13,7001.71 7502.66,7000C7501.22,7001.07 7503.08,7002.91 7500.96,7002.98C7502.05,7001.02 7500.19,6998.44 7499.68,6997.88ZM7443.58,6996.18C7445.08,6998.45 7446.82,6995.53 7447.83,6998.3C7447.14,7000.43 7447.05,7000.83 7445.7,7002.55C7443.55,7001 7444.97,6998.64 7443.58,6996.18ZM7477.16,7001.7L7477.16,7000.43C7477.5,7000.06 7478.32,7000.17 7478.43,6999.58C7478.72,7000.28 7478.57,7001.48 7477.16,7001.7ZM7468.65,6999.58C7468.5,7000.06 7467.91,7000.65 7467.8,7000C7467.37,7000.28 7467.36,7000.98 7466.53,7000.85C7466.5,6999.58 7467.78,6998.69 7468.65,6999.58ZM7438.51,6998.29C7438.91,6998.15 7440.77,6997.41 7440.6,6999.15C7439.84,6999.1 7439.71,6999.67 7438.9,6999.58C7438.82,6999.94 7439.07,6999.98 7439.33,7000C7438.24,7001.33 7438.84,6998.27 7438.51,6998.29C7438.5,6998.29 7438.49,6998.3 7438.48,6998.3C7438.49,6998.29 7438.5,6998.29 7438.51,6998.29ZM7457.18,6998.73C7457.92,6998.69 7458.5,6998.82 7458.88,6999.15C7458.75,6997.41 7459.47,6999.22 7460.58,6998.73C7460.86,6997.03 7458.96,6997.51 7457.6,6997.45C7457.62,6998.04 7457.4,6998.38 7457.18,6998.73ZM7486.08,6996.6C7486.63,6995.54 7488.14,6997.05 7487.78,6998.3C7485.86,6999.09 7487.04,6996.77 7486.08,6996.6ZM7469.08,6995.33C7469.76,6995.92 7470.17,6996.79 7470.36,6997.88C7469.31,6997.93 7468.31,6997.94 7467.81,6997.45C7468.05,6996.57 7468.7,6996.08 7469.08,6995.33ZM7447.4,6996.6C7447.68,6996.03 7448.31,6995.81 7449.1,6995.75C7448.27,6997.2 7448.86,6996.76 7450.38,6996.6C7450.32,6998.54 7447.97,6996.83 7447.4,6996.6ZM7474.18,6995.75C7474.78,6994.89 7475.65,6996.17 7476.73,6995.33C7476.9,6996.35 7475.95,6996.25 7476.31,6997.45C7475.11,6997.37 7475.14,6996.06 7474.18,6995.75ZM7422.32,6995.33C7422.61,6993.68 7422.33,6993.81 7422.75,6992.78L7423.6,6992.78C7423.82,6993.12 7424.04,6993.47 7424.03,6994.05C7422.79,6993.43 7422.79,6995.95 7424.03,6995.33C7424.02,6996.17 7422.87,6995.87 7423.18,6997.03C7421.76,6996.89 7424.45,6995.01 7422.32,6995.33ZM7470.36,6993.62C7471.47,6995.19 7466.92,6994.71 7467.38,6997.03C7465.18,6995.63 7469.52,6994.68 7470.36,6993.62ZM7434.18,6989.59C7434.97,6990.22 7434.18,6991.4 7433.8,6992.35C7433.91,6993.23 7435.67,6992.47 7435.93,6993.2L7435.93,6995.33C7435.13,6995.66 7434.37,6996.03 7433.38,6996.18C7434.43,6994.76 7433.77,6992.8 7432.1,6991.93C7432.55,6991.53 7432.23,6990.36 7433.38,6990.65C7433.45,6989.72 7433.03,6989.3 7432.1,6989.38C7431.35,6989.76 7431.32,6990.86 7430.83,6991.5C7430.48,6991.14 7429.66,6991.25 7429.55,6990.65C7428.73,6990.69 7430.45,6992.47 7428.28,6991.93C7427.93,6992.93 7430.32,6993.96 7429.98,6992.35C7431.72,6992.86 7429.88,6994.77 7428.7,6994.9C7428.88,6994.08 7428.41,6993.36 7428.28,6994.05C7427.26,6993.28 7428.04,6990.72 7428.28,6989.8C7428.23,6988.49 7425.61,6989.28 7425.3,6990.23C7424.78,6990.22 7425.41,6987.82 7425.73,6987.25C7423.91,6987.9 7424.89,6985.7 7424.03,6983.42L7426.15,6983.42C7425.35,6985.55 7426.48,6986.65 7427.43,6988.1C7428.25,6987.23 7427.9,6985.18 7429.55,6985.12C7429.17,6986.02 7428.26,6986.38 7428.28,6987.67C7429.61,6987.68 7430.65,6986.27 7431.68,6987.25C7431.44,6988.14 7430.4,6986.62 7431.25,6988.1C7432.32,6988.17 7432.58,6987.45 7432.95,6986.82C7433.86,6987.46 7432.65,6987.86 7433.38,6988.95C7434.27,6987.49 7434.97,6989.15 7435.5,6988.53C7436.57,6989.38 7435.16,6989.95 7434.18,6989.59C7434.08,6989.51 7433.95,6989.44 7433.8,6989.38C7433.91,6989.47 7434.04,6989.54 7434.18,6989.59ZM7447.4,6993.2L7447.4,6995.33C7446.88,6995.14 7446.53,6994.78 7446.55,6994.05C7446.21,6994.28 7445.86,6994.49 7445.28,6994.47C7445.12,6993.19 7446.66,6993.59 7447.4,6993.2ZM7493.73,6994.47C7493.97,6993.24 7494.4,6995.13 7495.01,6994.9L7495.01,6992.78C7494.07,6992.6 7492.66,6994.05 7493.73,6994.47ZM7425.3,6990.65L7426.58,6990.65C7426.4,6992.05 7424.82,6993.02 7426.58,6993.62C7426.21,6994.25 7425.94,6994.97 7424.88,6994.9C7424.99,6993.46 7425.55,6992.46 7425.3,6990.65ZM7466.11,6991.93C7467.47,6991.81 7467.65,6993.79 7466.96,6994.48C7466.18,6993.58 7465.49,6993.24 7466.11,6991.93ZM7482.68,6992.78C7483.18,6992.84 7483.04,6993.55 7483.11,6994.05C7481.44,6993.88 7480.4,6995.15 7479.71,6993.62C7479.76,6992.41 7482.62,6993.99 7482.68,6992.78ZM7468.23,6992.35L7469.51,6992.35L7469.51,6994.05C7468.09,6994.48 7468.11,6993.46 7468.23,6992.35ZM7449.95,6991.93C7449.62,6992.3 7449.5,6992.89 7449.53,6993.62C7449.13,6993.17 7447.96,6993.49 7448.25,6992.35C7448.63,6992.02 7449.21,6991.89 7449.95,6991.93ZM7455.48,6990.65C7457.51,6989.28 7455.69,6994.24 7455.9,6992.78C7455.27,6991.78 7456.05,6990.94 7455.48,6990.65ZM7468.65,6989.8C7469.27,6989.9 7468.8,6991.07 7469.51,6991.07C7469.39,6991.95 7467.62,6991.18 7467.8,6992.35C7467.25,6991.38 7468.21,6991 7468.65,6989.8ZM7461.86,6985.55C7463.67,6986.85 7464.18,6989.46 7465.25,6991.5C7461.8,6991.77 7463.26,6987.52 7460.15,6988.95C7459.25,6987.23 7462.72,6988.77 7461.86,6985.55ZM7487.78,6991.5C7488.52,6991.11 7490.06,6991.51 7489.91,6990.22C7488.69,6990.14 7487.59,6990.17 7487.78,6991.5ZM7481.83,6988.53C7481.7,6989.53 7480.36,6989.32 7480.56,6990.65C7479.94,6990.55 7480.41,6989.38 7479.71,6989.38C7479.77,6988.44 7480.78,6988.46 7481.83,6988.53ZM7452.93,6978.75C7453.29,6978.67 7453.33,6978.91 7453.35,6979.17C7453.02,6980.93 7455.39,6979.97 7455.05,6981.72C7453.61,6982.18 7453.63,6984.96 7454.63,6985.55C7456.19,6984.56 7454.24,6981.82 7456.75,6981.3C7456.4,6982.5 7457.35,6982.4 7457.18,6983.42C7456.45,6983.27 7456.38,6983.76 7456.33,6984.27C7457.06,6984.96 7458.77,6984.67 7458.45,6986.4C7458.11,6986.18 7457.76,6985.96 7457.18,6985.98C7457.87,6987.23 7459.22,6989.03 7457.6,6990.23C7456.86,6989.84 7456.13,6989.44 7456.33,6988.1C7455.69,6989.02 7454.4,6989.28 7453.78,6990.23C7452.34,6988.9 7454.48,6987.55 7454.2,6985.98C7453.07,6984.18 7451.41,6985.44 7450.38,6985.12C7450.2,6984.1 7451.15,6984.2 7450.8,6983C7452.32,6984.78 7453.7,6981.12 7452.5,6979.6C7452.92,6979.59 7452.83,6979.08 7452.93,6978.75ZM7466.11,6985.98C7466.39,6985.41 7467.17,6988.83 7467.81,6985.98C7468.93,6986.13 7466.33,6989.58 7469.08,6988.95C7468,6990.93 7465.76,6988.1 7466.11,6985.98ZM7450.8,6985.98C7452.11,6985.66 7451.32,6987.44 7452.93,6986.82C7453.27,6988.3 7452.46,6988.62 7452.08,6989.38C7450.69,6988.89 7452.18,6987.95 7450.38,6987.67C7450.71,6987.3 7450.84,6986.72 7450.8,6985.98ZM7500.11,6985.98C7499.61,6985.91 7499.35,6986.07 7499.26,6986.4C7498.01,6986.04 7499.51,6985.03 7499.26,6984.28C7499.75,6985.34 7500.74,6985.91 7500.53,6987.67C7499.96,6987.54 7500.18,6986.61 7500.11,6985.98ZM7447.4,6984.7C7448.34,6984.89 7448.47,6986.92 7449.1,6985.12C7450.38,6985.4 7448.7,6986.03 7449.1,6986.82C7448.21,6985.9 7447.89,6987.04 7446.55,6986.82C7446.19,6985.47 7447.22,6985.51 7447.4,6984.7ZM7488.63,6962.17C7488.75,6961.06 7488.78,6960.05 7487.36,6960.47C7487.72,6959.66 7489.22,6959.32 7489.91,6960.05C7487.09,6961.98 7491.01,6964.64 7488.21,6966C7490.44,6967.95 7490.27,6973.17 7489.48,6976.2C7491.31,6975.83 7490.83,6975.9 7491.61,6977.05C7491.84,6975.78 7492.5,6973.38 7494.58,6972.8C7494.66,6973.73 7494.24,6974.15 7493.31,6974.07C7493.44,6975.07 7494.14,6975.83 7493.31,6976.62C7494.31,6977.66 7494.1,6975.99 7495.43,6976.2C7495.61,6977.09 7495.14,6977.32 7495.01,6977.9C7498.71,6975.6 7493.9,6970.94 7497.98,6968.12C7496.83,6970.51 7498.19,6971.45 7497.13,6973.65C7499.74,6973.99 7497.14,6969.12 7499.68,6969.4C7500.06,6968.03 7498.58,6968.52 7498.41,6967.7C7499.13,6965.91 7498.53,6965.09 7500.53,6964.3C7500.12,6967.15 7502.25,6964.82 7502.66,6965.57C7503.07,6967.11 7500.82,6966.33 7500.53,6966C7500.15,6969.26 7501.07,6974.58 7497.98,6976.62C7497.81,6977.65 7498.76,6977.55 7498.41,6978.75C7499.17,6978.8 7499.31,6978.23 7500.11,6978.32C7500.48,6975.77 7499.99,6974.79 7500.96,6973.22C7503.11,6975.52 7502.01,6980.21 7503.08,6982.15C7502.24,6981.72 7502.41,6980.27 7500.96,6980.45C7501.06,6979.99 7501.8,6980.16 7501.81,6979.6C7501.68,6978.7 7499.79,6979.51 7500.11,6980.45C7499.38,6979.25 7498.44,6980.61 7498.41,6979.17C7497.31,6979.5 7496.93,6980.53 7497.13,6982.15C7496.35,6981.51 7495.03,6980.13 7495.86,6979.17C7494.15,6979.01 7493.97,6979.97 7493.31,6978.75C7492.31,6979.87 7493.83,6980.41 7494.58,6980.45C7495.11,6981.82 7493.21,6980.77 7493.73,6982.15C7493.39,6981.92 7493.04,6981.71 7492.46,6981.72L7492.46,6979.6C7490.84,6979.25 7490.81,6980.5 7490.33,6981.3C7490.7,6982.53 7490.97,6981.78 7492.03,6981.72C7491.5,6983.74 7490.95,6985.75 7489.06,6986.4C7488.35,6985.07 7490.64,6984.66 7489.48,6984.28C7489.67,6983.64 7490.03,6984.44 7490.76,6984.28C7490.53,6982.86 7488.74,6981.5 7489.91,6980.02C7488.56,6981.4 7489.75,6978.76 7488.21,6979.17C7489.12,6976.87 7489.05,6974.85 7488.21,6973.65C7485.74,6973.82 7487.48,6977.1 7485.23,6976.62C7484.86,6975.26 7485.89,6975.29 7486.51,6974.92C7483.19,6973.7 7488.13,6970.97 7485.66,6969.82C7486.09,6968.63 7487.46,6969.94 7488.21,6969.82C7487.41,6968.03 7485.88,6968.86 7484.38,6969.4C7483.68,6968.02 7484.22,6966.77 7484.81,6965.57C7485.94,6966.44 7486.42,6965.98 7487.36,6966.42C7487.41,6967.19 7486.84,6967.32 7486.93,6968.12C7487.49,6967.97 7487.6,6967.37 7488.21,6967.27C7488.16,6966.19 7487.43,6965.78 7486.93,6965.15C7487.67,6964.33 7486.55,6961.65 7488.63,6962.17ZM7499.26,6981.72C7499.69,6982.46 7497.39,6984.09 7497.56,6985.98C7495.97,6984.09 7498.74,6982.92 7499.26,6981.72ZM7434.65,6982.15C7434.79,6983.71 7434.18,6984.51 7433.8,6985.55C7432.47,6985 7433.58,6984.67 7432.95,6983.42C7434.57,6984.05 7433.03,6981.52 7434.65,6982.15ZM7427.85,6984.7C7427.17,6982.44 7430.27,6981.76 7429.13,6980.45C7429.26,6979.87 7430.19,6980.1 7430.83,6980.02C7430.43,6982.17 7429.23,6983.53 7427.85,6984.7ZM7435.5,6978.32C7437.01,6978.37 7434.6,6979.73 7435.93,6979.6C7435.3,6980.24 7433.39,6979.56 7433.38,6981.72C7432.65,6981.88 7432.57,6981.39 7432.53,6980.87C7432.15,6981.06 7431.77,6981.25 7431.68,6981.72C7431.99,6982.12 7432.45,6982.37 7432.95,6982.57C7432.5,6982.97 7432.82,6984.14 7431.68,6983.85C7431.76,6983.51 7432.1,6983.43 7432.1,6983C7431.34,6982.94 7431.2,6983.52 7430.4,6983.42C7429.6,6981.99 7432.32,6982.03 7430.83,6981.3C7431.67,6980.44 7436.37,6979.39 7433.8,6977.9C7433.86,6976.84 7435.24,6977.77 7435.5,6977.9C7434.99,6978.39 7435.34,6978.98 7435.5,6978.32ZM7488.21,6980.45C7488.7,6980.7 7486.22,6981.55 7486.51,6983C7485.34,6982.99 7485.5,6980.99 7486.08,6980.45C7484.89,6980.39 7484.86,6981.49 7484.81,6982.57C7484.27,6980.86 7483.45,6980.1 7483.96,6978.32C7485.08,6978.43 7485.35,6979.2 7485.23,6977.47C7488.23,6977.4 7484.99,6981.14 7488.21,6980.45ZM7449.95,6979.17C7451.98,6980.3 7449.14,6982.53 7447.83,6983C7447.23,6980.42 7450.19,6981.39 7449.95,6979.17ZM7466.95,6981.72C7466.8,6980.38 7468.61,6979.72 7467.81,6977.9C7470.77,6979.28 7466.52,6981.01 7469.08,6982.15C7467.53,6982.43 7466.82,6981.86 7466.1,6981.3C7466.26,6980.7 7466.85,6981.26 7466.95,6981.72ZM7464.4,6976.62C7464.1,6977.92 7464.84,6978.17 7464.83,6979.17C7463.96,6979.29 7463.98,6980.31 7463.55,6980.87C7462.31,6980.51 7464.11,6979.81 7463.55,6978.75C7462.69,6978.87 7462.72,6979.9 7461.85,6980.02C7461.58,6978.76 7462.97,6978.16 7464.4,6976.62ZM7454.2,6978.32C7454.55,6978.62 7455.37,6978.99 7455.48,6978.32C7456.54,6978.39 7455.6,6979.76 7455.48,6980.02C7454.86,6979.65 7453.83,6979.69 7454.2,6978.32ZM7444.43,6976.62C7443.13,6977.14 7445.05,6978.25 7444,6978.75C7442.89,6978.18 7443.19,6976.86 7443.58,6975.77C7444.34,6975.72 7444.47,6976.29 7445.28,6976.2C7445.37,6976.93 7444.55,6977.3 7445.28,6977.47C7445.1,6978.65 7443.94,6977.5 7444.43,6976.62ZM7444.15,6960.07L7456.75,6958.35C7458.93,6957.87 7457.34,6959.65 7457.18,6960.47C7458.83,6961.65 7458.13,6962.82 7459.3,6964.72C7458.24,6964.54 7456.51,6963.88 7455.9,6965.15C7456.82,6966.3 7457.17,6966.38 7458.88,6966L7458.88,6968.12C7456.45,6968.53 7456.5,6971.41 7455.05,6972.8C7455.55,6972.87 7456.26,6972.73 7456.33,6973.22C7454.16,6973.78 7455.97,6974.24 7455.9,6975.77C7453,6975.38 7456.8,6977.13 7455.05,6977.9C7453.43,6977.11 7453.66,6974.47 7452.5,6973.22C7453.26,6972.7 7453.74,6971.9 7454.63,6971.52C7453.7,6971.6 7453.28,6971.18 7453.35,6970.25C7455.13,6970.75 7454.11,6968.46 7455.05,6968.12C7455.83,6969.59 7457.82,6968.7 7458.03,6967.27C7455.26,6967.94 7455.43,6964.79 7454.2,6967.27C7453.9,6965.97 7454.64,6965.72 7454.63,6964.72C7453.33,6964.18 7452.55,6963.12 7451.65,6962.17C7451.43,6962.8 7451.02,6963.24 7450.8,6963.87C7451.3,6963.94 7452.01,6963.8 7452.08,6964.3C7451.1,6964.17 7451.61,6965.53 7450.8,6965.57C7449.83,6965.69 7449.2,6965.47 7449.1,6964.72C7449.01,6963.92 7449.58,6963.79 7449.53,6963.02C7448.69,6963.15 7448.69,6962.45 7448.25,6962.17C7447.57,6963.85 7443.15,6961.94 7443.58,6965.15C7442.71,6964.45 7442,6963.61 7441.88,6962.17C7442.42,6962.2 7442.47,6962.72 7443.15,6962.6L7443.15,6960.47L7444,6960.13L7444,6960.05L7444.15,6960.07ZM7448.68,6975.77C7448.08,6976.45 7447.21,6976.86 7446.13,6977.05C7446.18,6976.29 7445.61,6976.15 7445.7,6975.35C7447.07,6976.45 7447.56,6974.09 7448.68,6975.77ZM7448.68,6974.07C7449.94,6973.98 7450.18,6975.59 7449.53,6976.2C7448.69,6975.86 7448,6974.71 7448.68,6974.07ZM7432.95,6971.95C7433.53,6972.49 7433.8,6973.24 7434.23,6971.95C7435.15,6971.88 7434.42,6973.46 7434.65,6974.07C7433.45,6973.72 7433.55,6974.67 7432.53,6974.5C7431.59,6973.6 7432.44,6972.61 7432.95,6971.95ZM7478.01,6971.52C7479.03,6971.91 7479.74,6972.62 7480.13,6973.65C7478.93,6973.3 7479.03,6974.25 7478.01,6974.07C7478.48,6972.73 7478.05,6973.11 7478.01,6971.52ZM7439.75,6972.37C7439.87,6973.48 7439.6,6974.2 7438.48,6974.07C7438.36,6972.96 7438.63,6972.24 7439.75,6972.37ZM7468.65,6974.07C7466.42,6974.24 7467.1,6970.18 7463.98,6970.25C7464.7,6968.78 7463.01,6967.11 7465.25,6966.85C7464.46,6968.08 7465.58,6969.19 7466.1,6967.7C7466.2,6968.86 7466.64,6969.66 7467.38,6971.1C7468.97,6971.52 7468.31,6969.01 7469.51,6970.25C7468.54,6971.05 7466.99,6973.08 7468.65,6974.07ZM7456.75,6970.67C7458.01,6970.15 7459.06,6973.55 7456.75,6974.07C7457.19,6972.87 7456.93,6971.26 7456.75,6970.67ZM7423.18,6968.55L7424.45,6968.55C7424.39,6971.73 7422.15,6970.18 7422.32,6971.95C7421,6972.14 7420.97,6971.04 7421.05,6969.82C7422.12,6969.02 7423.33,6970.78 7423.18,6968.55ZM7459.3,6970.25C7459.69,6969.36 7460.56,6968.95 7461.86,6968.97C7462.6,6973.15 7462.84,6969.97 7459.3,6970.25ZM7492.46,6967.27C7491.72,6966.63 7492.89,6965.44 7491.61,6964.72C7491.19,6964.73 7491.28,6965.24 7491.18,6965.57C7490.19,6965.01 7489.96,6963.67 7489.48,6962.6C7490.75,6963.27 7491.77,6964.66 7493.31,6963.87C7492.22,6964.95 7493.4,6965.93 7494.16,6966.42C7495.83,6966.37 7495.46,6964.57 7497.13,6965.57C7497.54,6966.36 7495.86,6966.99 7497.13,6967.27C7497.31,6967.98 7495.55,6967.23 7495.43,6966.85C7494.49,6967.61 7493.89,6968.7 7494.16,6970.67C7492.73,6970.83 7493.45,6968.83 7492.88,6968.12C7493.28,6967.67 7494.45,6967.99 7494.16,6966.85C7494.34,6966.14 7492.57,6966.88 7492.46,6967.27ZM7448.25,6966C7449.08,6968.77 7443.69,6967.13 7443.15,6969.82C7442.98,6968.8 7443.93,6968.9 7443.58,6967.7C7443.15,6967.97 7443.14,6968.68 7442.3,6968.55C7442.9,6965.57 7446.35,6965.47 7448.25,6966ZM7429.55,6966.85C7430.63,6966.9 7431.2,6967.47 7431.25,6968.55C7430.17,6968.5 7429.6,6967.93 7429.55,6966.85ZM7436.35,6963.02C7437.31,6963.2 7436.29,6965.35 7437.63,6965.15C7437.57,6966.5 7436.06,6966.41 7435.93,6967.7C7435.69,6966.49 7436.2,6964.85 7436.35,6963.02ZM7478.01,6963.87C7477.64,6965.21 7477.22,6966.48 7475.88,6966.85C7475.79,6965.05 7476.68,6964.24 7478.01,6963.87ZM7482.26,6962.6C7484.46,6959.84 7501.61,6962.43 7503.08,6964.3C7499.83,6964.41 7502.57,6959.79 7500.11,6960.9C7500.81,6960.72 7500.07,6962.48 7499.68,6962.6C7500.05,6961.24 7499.31,6960.98 7498.83,6960.47C7500.07,6959.72 7501.86,6957.23 7499.68,6956.65C7499.23,6957.04 7499.55,6958.22 7498.41,6957.92C7498.57,6957.27 7498.28,6957.07 7497.99,6956.86L7497.98,6956.86C7497.69,6956.65 7496.71,6955.96 7496.71,6957.5C7498.32,6957.3 7498.24,6958.8 7498.83,6959.62C7498.55,6961.15 7495.43,6962.53 7497.56,6963.87C7497,6963.88 7497.17,6964.62 7496.71,6964.72C7495.89,6962.46 7494.81,6964.92 7493.73,6963.87C7494.28,6962.58 7496.28,6962.74 7496.28,6960.9C7495.13,6960.37 7495.23,6959.26 7493.73,6960.05C7494.14,6959.09 7491.59,6956.88 7490.33,6957.5C7490.82,6956.34 7486.65,6953.45 7486.08,6956.65C7486.81,6956.91 7486.78,6957.93 7487.36,6958.35C7487.53,6957.81 7487.9,6957.48 7488.63,6957.5C7488.22,6958.5 7487.89,6959.59 7486.08,6959.2C7485.96,6961.25 7487.03,6961.82 7486.51,6963.02C7485.82,6961.62 7484.76,6962.32 7484.38,6963.45C7484.12,6962.71 7482.36,6963.48 7482.26,6962.6ZM7495.01,6962.17L7493.73,6962.17L7493.73,6960.47C7494.85,6960.34 7495.13,6961.06 7495.01,6962.17ZM7503.51,6958.77C7504.72,6958.7 7502.99,6961.55 7504.78,6960.9C7504.65,6961.48 7503.72,6961.25 7503.08,6961.32C7502.9,6959.68 7502.62,6959.81 7503.51,6958.77ZM7477.58,6957.5C7478.04,6957.6 7477.87,6958.34 7478.43,6958.35C7478.3,6959.35 7476.95,6959.14 7477.16,6960.47C7475.79,6960.85 7476.57,6959.07 7475.46,6959.2C7476.37,6958.8 7477.01,6958.98 7477.58,6957.5ZM7466.95,6956.65C7467.57,6956.74 7467.1,6957.92 7467.81,6957.92C7467.71,6958.53 7466.54,6958.07 7466.53,6958.77C7464.99,6958 7467.28,6957.6 7466.95,6956.65ZM7475.03,6957.07C7474.72,6955.77 7476.36,6956.17 7477.16,6956.65C7477.23,6957.57 7475.65,6956.84 7475.03,6957.07Z"
            fill="currentColor" />
    </g>
</svg>