<svg clip-rule="evenodd" fill-rule="evenodd" stroke-linejoin="round" stroke-miterlimit="2" viewBox="0 0 64 64"
  xmlns="http://www.w3.org/2000/svg">
  <path
    d="m302 36c17.661 0 32 14.339 32 32s-14.339 32-32 32-32-14.339-32-32 14.339-32 32-32zm0 4c15.454 0 28 12.546 28 28s-12.546 28-28 28-28-12.546-28-28 12.546-28 28-28zm0 8c11.038 0 20 8.962 20 20s-8.962 20-20 20-20-8.962-20-20 8.962-20 20-20zm0 4c8.831 0 16 7.169 16 16s-7.169 16-16 16-16-7.169-16-16 7.169-16 16-16zm0 7c4.967 0 9 4.033 9 9s-4.033 9-9 9-9-4.033-9-9 4.033-9 9-9z"
    fill="currentColor" transform="translate(-270 -36)" />
</svg>