<svg clip-rule="evenodd" fill-rule="evenodd" stroke-linejoin="round" stroke-miterlimit="1.41421" viewBox="0 0 32 32"
  xmlns="http://www.w3.org/2000/svg">
  <path
    d="m16 4.012v-4.012h1v4.012c.338.016.671.047 1 .095v-2.107h1v2.3c3.788.927 6.773 3.912 7.7 7.7h2.3v1h-2-.107c.048.329.079.662.095 1h5.012v1h-5.012c-.016.338-.047.671-.095 1h2.107v1h-2.3c-.927 3.788-3.912 6.773-7.7 7.7v2.3h-1v-2.107c-.329.048-.662.079-1 .095v5.012h-1v-5.012c-.338-.016-.671-.047-1-.095v2.107h-1v-2.3c-3.788-.927-6.773-3.912-7.7-7.7h-2.3v-1h2.107c-.048-.329-.079-.662-.095-1h-5.012v-1h5.012c.016-.338.047-.671.095-1h-2.107v-1h2.3c.927-3.788 3.912-6.773 7.7-7.7v-2.3h1v2.107c.329-.048.662-.079 1-.095zm9.987 10.988h-8.987v8.987c.338-.018.672-.053 1-.105v-7.882h7.882c.052-.328.087-.662.105-1zm-9.987 8.987v-8.987h-8.987c.018.338.053.672.105 1h7.882v7.882c.328.052.662.087 1 .105zm9.667-6.987h-6.667v6.667c3.235-.881 5.786-3.432 6.667-6.667zm-9.667-11.987c-.338.018-.672.053-1 .105v7.882h-7.882c-.052.328-.087.662-.105 1h8.987zm1 0v8.987h8.987c-.018-.338-.053-.672-.105-1h-7.882v-7.882c-.328-.052-.662-.087-1-.105zm-3 .32c-3.235.881-5.786 3.432-6.667 6.667h6.667z"
    fill="currentColor" transform="matrix(1.03226 0 0 1.06667 -1.03226 -0)" />
</svg>