<svg clip-rule="evenodd" fill-rule="evenodd" stroke-linejoin="round" stroke-miterlimit="2" viewBox="0 0 64 64"
  xmlns="http://www.w3.org/2000/svg">
  <path
    d="m783.773 634.067c0-.022-.001-.045-.001-.067 0-1.656 1.345-3 3-3 1.656 0 3 1.344 3 3v.067l13.484 7.785c.437-.248.942-.39 1.48-.39 1.655 0 3 1.344 3 3 0 1.04-.531 1.957-1.336 2.495v16.01c.805.538 1.336 1.455 1.336 2.495 0 1.656-1.345 3-3 3-.511 0-.992-.128-1.413-.353l-13.551 7.824v.067c0 1.656-1.344 3-3 3-1.655 0-3-1.344-3-3 0-.022.001-.045.001-.067l-13.587-7.845c-.43.239-.925.374-1.45.374-1.656 0-3-1.344-3-3 0-1.071.562-2.012 1.408-2.543v-15.914c-.846-.53-1.408-1.471-1.408-2.543 0-1.656 1.344-3 3-3 .553 0 1.071.15 1.516.411zm4.791 2.339c-.5.373-1.12.594-1.792.594-.671 0-1.291-.221-1.791-.594l-13.271 7.662c.017.129.026.261.026.394 0 1.291-.817 2.392-1.962 2.815v15.37c1.145.423 1.962 1.524 1.962 2.815 0 .158-.013.313-.036.464l13.281 7.668c.5-.373 1.12-.594 1.791-.594.672 0 1.292.221 1.792.594l13.214-7.629c-.028-.163-.042-.332-.042-.503 0-1.318.852-2.439 2.035-2.841v-15.318c-1.183-.402-2.035-1.523-2.035-2.841 0-.147.01-.292.031-.433zm-2.642 19.448-14.186-7.912v15.213l14.186 7.845zm1.709 0v15.146l14.186-7.845v-15.144zm-15.89-9.982 15.035-8.201 15.028 8.286-15.021 8.013z"
    fill="currentColor" fill-rule="nonzero" transform="matrix(1.33333 0 0 1.33333 -1016.981 -841.333)" />
</svg>