<svg clip-rule="evenodd" fill-rule="evenodd" stroke-linejoin="round" stroke-miterlimit="2" viewBox="0 0 64 64"
  xmlns="http://www.w3.org/2000/svg">
  <path
    d="m396 661 15.588 9v18l-15.588 9-15.588-9v-18zm34 0 15.588 9v18l-15.588 9-15.588-9v-18zm-34 7 9.526 5.5v11l-9.526 5.5-9.526-5.5v-11zm34 0 9.526 5.5v11l-9.526 5.5-9.526-5.5v-11zm-34 5 5.196 3v6l-5.196 3-5.196-3v-6zm34 0 5.196 3v6l-5.196 3-5.196-3v-6zm-17-41 15.588 9v18l-15.588 9-15.588-9v-18zm0 7 9.526 5.5v11l-9.526 5.5-9.526-5.5v-11zm0 5 5.196 3v6l-5.196 3-5.196-3v-6z"
    fill="currentColor" transform="matrix(.981943 0 0 .981943 -373.542 -620.501)" />
</svg>