<svg clip-rule="evenodd" fill-rule="evenodd" stroke-linejoin="round" stroke-miterlimit="2" viewBox="0 0 64 64"
  xmlns="http://www.w3.org/2000/svg">
  <path
    d="m775.681 544.871c-1.359-1.576-2.181-3.628-2.181-5.871 0-4.967 4.033-9 9-9s9 4.033 9 9c0 2.243-.822 4.295-2.181 5.871 15.225 1.836 26.681 9.693 26.681 19.095 0 3.491-1.58 6.77-4.344 9.604 1.194-1.594 1.844-3.312 1.844-5.104 0-8.279-13.891-15-31-15s-31 6.721-31 15c0 1.792.65 3.51 1.844 5.104-2.764-2.834-4.344-6.113-4.344-9.604 0-9.402 11.456-17.259 26.681-19.095z"
    fill="currentColor" transform="matrix(.955224 0 0 .955224 -715.463 -495.078)" />
</svg>