<svg viewBox="0 0 512 512" xmlns="http://www.w3.org/2000/svg">
  <g>
    <path d="m224 256c0-160-64-256-64-256h192s-64 96-64 256 64 256 64 256h-192s64-96 64-256z" fill="currentColor" />
    <path
      d="m374.291 29.428c-8.503 14.914-17.066 31.882-24.968 50.773 63.124 33.484 106.126 99.865 106.126 176.299 0 76.296-42.846 142.575-105.783 176.117 7.941 18.885 16.537 35.844 25.061 50.726 81.598-42.796 137.273-128.312 137.273-226.843 0-98.707-55.873-184.353-137.709-227.072z"
      fill="currentColor" />
    <path
      d="m162.334 432.617c-62.938-33.542-105.784-99.821-105.784-176.117 0-76.434 43.002-142.814 106.127-176.299-7.902-18.891-16.465-35.86-24.968-50.773-81.836 42.719-137.709 128.365-137.709 227.072 0 98.531 55.675 184.047 137.274 226.843 8.522-14.882 17.119-31.841 25.06-50.726z"
      fill="currentColor" />
  </g>
</svg>