<svg width="100%" height="100%" viewBox="0 0 8 8" version="1.1" xmlns="http://www.w3.org/2000/svg"
  xmlns:xlink="http://www.w3.org/1999/xlink" xml:space="preserve" xmlns:serif="http://www.serif.com/"
  style="fill-rule:evenodd;clip-rule:evenodd;stroke-linejoin:round;stroke-miterlimit:1.41421;">
  <path
    d="M1.858,5.038c-0.107,0.112 -0.162,0.245 -0.165,0.399c0,0.155 0.055,0.287 0.165,0.397c0.002,0.002 0.005,0.004 0.007,0.005c0.107,0.107 0.237,0.161 0.39,0.161c0.156,0 0.287,-0.056 0.395,-0.166l0.001,0c0.113,-0.11 0.167,-0.242 0.165,-0.397c0,-0.117 -0.03,-0.22 -0.091,-0.309c0.032,0.013 0.067,0.02 0.102,0.02c0.022,0 0.043,-0.002 0.062,-0.007c0.006,0 0.012,-0.003 0.017,-0.008l1.837,-0.389l0.393,-1.837l0.01,-0.079c0,-0.038 -0.007,-0.072 -0.019,-0.102c0.089,0.061 0.192,0.091 0.308,0.091c0.158,0.003 0.29,-0.052 0.396,-0.163l0,-0.003c0.112,-0.107 0.169,-0.238 0.169,-0.393c0,-0.154 -0.054,-0.284 -0.161,-0.391l0.003,0l-0.011,-0.008c-0.108,-0.111 -0.24,-0.166 -0.396,-0.166c-0.153,0.002 -0.284,0.058 -0.394,0.166c-0.109,0.112 -0.165,0.244 -0.168,0.395c0.003,0.121 0.036,0.227 0.099,0.318c-0.033,-0.013 -0.067,-0.019 -0.101,-0.016c-0.018,-0.003 -0.034,-0.001 -0.049,0.003l-0.017,0l-1.861,0.384l-0.384,1.863l0,0.009l-0.005,0.061c-0.003,0.033 0.003,0.065 0.018,0.098c-0.094,-0.065 -0.201,-0.098 -0.32,-0.098c-0.151,0 -0.283,0.054 -0.395,0.162m5.169,-4.36c0.435,0.443 0.653,0.975 0.653,1.598c0,0.615 -0.215,1.142 -0.644,1.58c-0.006,0.008 -0.013,0.017 -0.022,0.025c-0.31,0.311 -0.668,0.514 -1.071,0.611c-0.034,0.006 -0.071,0.013 -0.112,0.022l-1.088,0.23l-0.234,1.09c-0.003,0.036 -0.01,0.073 -0.02,0.111c-0.096,0.402 -0.3,0.759 -0.612,1.07c-0.008,0.008 -0.016,0.015 -0.024,0.021c-0.439,0.43 -0.965,0.644 -1.578,0.644c-0.623,0 -1.155,-0.218 -1.595,-0.653c-0.005,-0.006 -0.009,-0.009 -0.013,-0.009c-0.445,-0.447 -0.667,-0.983 -0.667,-1.609c-0.001,-0.616 0.213,-1.145 0.644,-1.585c0.007,-0.006 0.015,-0.013 0.023,-0.021c0.312,-0.314 0.67,-0.516 1.074,-0.607c0.039,-0.011 0.079,-0.02 0.12,-0.026l1.083,-0.227l0.227,-1.08c0.006,-0.042 0.014,-0.082 0.024,-0.121c0.091,-0.404 0.293,-0.763 0.607,-1.077c0.008,-0.006 0.017,-0.013 0.025,-0.021c0.438,-0.427 0.965,-0.642 1.582,-0.644c0.628,0.002 1.164,0.225 1.607,0.669c0.003,0.005 0.006,0.008 0.011,0.009"
    fill="currentColor" />
</svg>