<svg clip-rule="evenodd" fill-rule="evenodd" stroke-linejoin="bevel" viewBox="0 0 32 32"
  xmlns="http://www.w3.org/2000/svg">
  <g fill="currentColor" stroke="currentColor" transform="matrix(.0655315 0 0 .0655315 -.226744 .243607)">
    <path d="m246.286 474.529h2.664l13.683-429.222h-30.03z" fill-rule="nonzero" />
    <path
      d="m247.611 6.351c12.638 0 22.9 7.882 22.9 17.589s-10.262 17.579-22.9 17.579-22.887-7.872-22.887-17.579 10.249-17.589 22.887-17.589z"
      fill-rule="nonzero" stroke-linejoin="miter" />
    <path
      d="m147.279 74.653c3.67-1.901.61.43 16.544 1.337 2.065.115-.235 3.478-.969 4.988-7.289 8.149-19.728 15.621-30.214 19.509-5.075 1.892-11.917 2.876-16.968.889-.496-.191-.608-.879-.896-1.09-1.032-.802 6.804-5.187 14.044-10.232 6.867-4.797 16.42-12.842 18.459-15.401zm200.676 0c-3.668-1.901-.609.43-16.544 1.337-2.065.115.236 3.478.97 4.988 7.29 8.149 19.728 15.621 30.214 19.509 5.075 1.892 11.917 2.876 16.967.889.497-.191.609-.879.897-1.09 1.031-.802-6.806-5.187-14.044-10.232-6.866-4.797-16.419-12.842-18.46-15.401zm-133.208 26.455c-27.004 2.618-51.484-21.659-39.02-27.363 1.206-2.149.858-3.267-2.028-2.856-29.355 3.105-47.914-15.631-44.68-35.169.211-1.309-.959-1.577-1.903-1.624-1.095-.058-1.966.946-2.513 1.624-9.118 11.293-24.567 18.162-38.66 25.404-16.17 8.322-41.197 18.994-52.008 20.427-9.553 1.261-24.567 2.608-30.015-3.373-1.118-1.433-.012-1.586 1.331-2.149 17.912-6.908 19.79-5.379 52.616-21.335 28.809-14.006 56.61-32.407 83.341-42.802 11.754-4.567 48.2-8.742 60.913 4.682 21.656 22.872-8.744 32.837-9.614 36.878-1.68 7.806 8.32 22.309 34.331 17.016l3.42-.831.809 27.831-1.169.497c-5.075 1.919-10.186 2.904-15.151 3.143zm65.741 0c27.004 2.618 51.484-21.659 39.02-27.363-1.207-2.149-.858-3.267 2.028-2.856 29.356 3.105 47.914-15.631 44.68-35.169-.211-1.309.958-1.577 1.902-1.624 1.096-.058 1.965.946 2.514 1.624 9.118 11.293 24.567 18.162 38.66 25.404 16.17 8.322 41.197 18.994 52.007 20.427 9.554 1.261 24.566 2.608 30.014-3.373 1.12-1.433.014-1.586-1.329-2.149-17.912-6.908-19.79-5.379-52.616-21.335-28.809-14.006-56.611-32.407-83.341-42.802-11.754-4.567-48.2-8.742-60.914 4.682-21.656 22.872 8.745 32.837 9.615 36.878 1.68 7.806-8.321 22.309-34.332 17.016l-3.421-.831-.807 27.831 1.168.497c5.075 1.919 10.189 2.904 15.152 3.143zm-152.34-35.742c.771-.63 2.115-1.376 3.645-.888 3.583 3.2 5.561 4.719 9.765 6.143 1.344.449 3.048 1.873.808 3.344-23.535 15.325-41.359 28.366-64.718 23.455-.748-.153-.572-1.958.086-2.255 13.858-6.133 29.803-12.879 50.414-29.799zm238.939 0c20.61 16.92 36.558 23.666 50.413 29.799.659.297.834 2.102.087 2.255-23.36 4.911-41.185-8.13-64.719-23.455-2.239-1.471-.535-2.895.809-3.344 4.204-1.424 6.182-2.943 9.764-6.143 1.531-.487 2.874.258 3.646.888zm-249.562-16.969c.871-.755 4.752-2.188 4.976-.955.597 3.248 2.848 7.672 5.336 11.264.846 1.213-1.007 2.761-2.177 3.822-16.666 10.815-36.333 21.105-53.325 26.895-5.461 1.461-11.518 2.283-17.352 1.92-3.929-.239-9.391-.067-11.281-2.723-.436-.621.185-1.462.722-2.025 26.382-8.359 46.607-20.12 73.101-38.198zm260.185 0c-.871-.755-4.752-2.188-4.976-.955-.597 3.248-2.848 7.672-5.336 11.264-.847 1.213 1.007 2.761 2.177 3.822 16.666 10.815 36.334 21.105 53.324 26.895 5.462 1.461 11.519 2.283 17.352 1.92 3.931-.239 9.391-.067 11.282-2.723.435-.621-.187-1.462-.722-2.025-26.381-8.359-46.607-20.12-73.101-38.198z"
      stroke-width="1.47" />
    <g fill-rule="nonzero">
      <path
        d="m327.314 146.633c1.479-12.659-11.78-27.152-32.913-28.557-7.352-.487-18.397-.525-24.791 3.898-6.058 4.195 9.776 12.956 18.086 13.586 11.132.841 16.99-3.267 18.982-5.656.684-.802 1.915-.478 2.351.344 5.05 28.961-33.37 35.562-61.405 41.657 5.807 1.262 11.168 2.503 15.605 3.916 7.855 2.504 14.566 5.2 20.291 8.03 21.993-8.731 41.856-20.499 43.794-37.218z" />
      <path
        d="m224.009 400.247c-13.297 10.423-12.252 25.911 2.239 36.993-2.239-11.398-7.724-19.977 8.931-30.429 4.172-2.621 8.249-4.518 12.443-6.326-4.702-2.029-9.559-3.949-14.873-6.659-3.357 2.406-6.399 4.588-8.74 6.421z" />
      <path
        d="m274.573 262.409c-8.69-4.244-18.173-7.995-26.95-11.769-5.128-2.206-10.016-4.419-14.359-6.747-24.816-13.29-25.015-35.923 11.157-47.006 1.044-.319 2.115-.647 3.202-.978-10.824-3.3-23.685-7.212-35.896-12.06-43.89 21.686-29.171 51.247-15.879 62.986 6.523 5.75 15.388 10.801 24.824 15.574 8.978 4.541 18.467 8.831 26.951 13.231 6.44 3.34 12.302 6.742 16.912 10.368 16.282 12.812 2.861 27.181-3.869 31.06-4.179 2.407-8.587 4.566-13.043 6.682 9.384 4.453 18.973 8.711 27.13 14.606 10.88-6.491 20.715-14.764 26.153-25.816 12.541-25.494-4.353-39.396-26.333-50.131z" />
      <path
        d="m283.519 183.85c-5.727-2.829-12.436-5.526-20.291-8.03-4.437-1.413-9.798-2.653-15.605-3.916-28.033-6.095-66.453-12.696-61.403-41.657.435-.821 1.667-1.146 2.339-.344 1.99 2.389 7.848 6.497 18.994 5.656 8.31-.63 24.143-9.391 18.086-13.586-6.394-4.423-17.44-4.385-24.791-3.898-21.133 1.405-34.393 15.898-32.925 28.557 1.945 16.719 21.809 28.487 43.804 37.218 12.211 4.848 25.072 8.76 35.896 12.06 1.089.331 2.16.658 3.203.978 36.172 11.083 35.973 33.716 11.158 47.006-4.344 2.327-9.231 4.541-14.361 6.747 8.777 3.774 18.26 7.525 26.95 11.769 9.434-4.772 18.296-9.824 24.814-15.573 13.304-11.74 28.025-41.301-15.868-62.987z" />
      <path
        d="m271.238 400.247c-2.342-1.833-5.383-4.016-8.74-6.422-4.668-3.345-9.945-7.128-14.875-11.048-3.465-2.757-6.759-5.577-9.521-8.356-11.568-11.627-.31-19.098 8.546-22.71.322-.132.649-.266.976-.398-8.507-3.478-18.169-7.612-27.129-12.958-1.861 1.345-3.653 2.768-5.343 4.307-15.437 14.045-11.407 30.746 0 39.793 6.526 5.175 12.289 8.665 17.596 11.37 5.313 2.709 10.171 4.629 14.873 6.658 4.193 1.809 8.266 3.705 12.435 6.326 16.668 10.451 11.182 19.031 8.943 30.429 14.492-11.08 15.538-26.568 2.239-36.991z" />
      <path
        d="m280.096 342.663c-1.69-1.538-3.483-2.962-5.344-4.307-8.157-5.895-17.746-10.153-27.13-14.606-4.458-2.116-8.869-4.276-13.052-6.682-6.717-3.879-20.151-18.248-3.857-31.06 4.608-3.626 10.472-7.027 16.91-10.368-8.484-4.399-17.973-8.69-26.951-13.231-21.978 10.734-38.871 24.637-26.329 50.13 5.438 11.052 15.273 19.326 26.152 25.816 8.959 5.346 18.622 9.48 27.129 12.958.326.132.653.266.976.398 8.856 3.611 20.113 11.083 8.545 22.71-2.763 2.779-6.055 5.599-9.522 8.356 4.93 3.92 10.207 7.703 14.875 11.048 5.305-2.704 11.068-6.194 17.597-11.368 11.406-9.048 15.438-25.749.001-39.794z" />
    </g>
  </g>
</svg>