<svg width="100%" height="100%" viewBox="0 0 32 32" version="1.1" xmlns="http://www.w3.org/2000/svg"
    xmlns:xlink="http://www.w3.org/1999/xlink" xml:space="preserve" xmlns:serif="http://www.serif.com/"
    style="fill-rule:evenodd;clip-rule:evenodd;stroke-linejoin:round;stroke-miterlimit:1.41421;">
    <g transform="matrix(1,0,0,1,0,-0.5)">
        <path
            d="M25,29L26,29L26,30L25,30L25,29ZM14,29L15,29L15,30L14,30L14,29ZM17,29L18,29L18,30L17,30L17,29ZM27,28L28,28L28,29L27,29L27,28ZM23,28L24,28L24,29L23,29L23,28ZM19,28L20,28L20,29L19,29L19,28ZM9,27L10,27L10,28L9,28L9,27ZM29,27L29,28L28,28L28,27L29,27ZM23,26L24,26L24,27L23,27L23,26ZM15,26L16,26L16,27L15,27L15,26ZM17,26L18,26L18,27L17,27L17,26ZM21,26L22,26L22,27L21,27L21,26ZM25,26L26,26L26,27L25,27L25,26ZM11,26L11,27L10,27L10,26L11,26ZM19,25L20,25L20,26L19,26L19,25ZM28,25L29,25L29,26L28,26L28,25ZM7,25L8,25L8,26L7,26L7,25ZM15,24L16,24L16,25L15,25L15,24ZM3,24L4,24L4,25L3,25L3,24ZM13,24L14,24L14,25L13,25L13,24ZM8,23L9,23L9,24L8,24L8,23ZM11,23L12,23L12,24L11,24L11,23ZM19,22L20,22L20,23L19,23L19,22ZM6,22L7,22L7,23L6,23L6,22ZM22,22L23,22L23,23L22,23L22,22ZM17,22L18,22L18,23L17,23L17,22ZM14,21L15,21L15,22L14,22L14,21ZM9,21L10,21L10,22L9,22L9,21ZM26,21L26,22L25,22L25,21L26,21ZM12,20L13,20L13,21L12,21L12,20ZM22,20L23,20L23,21L22,21L22,20ZM26,20L27,20L27,21L26,21L26,20ZM9,19L10,19L10,20L9,20L9,19ZM6,19L7,19L7,20L6,20L6,19ZM29,19L30,19L30,20L29,20L29,19ZM19,19L20,19L20,20L19,20L19,19ZM22,19L22,20L21,20L21,19L22,19ZM4,18L5,18L5,19L4,19L4,18ZM2,18L3,18L3,19L2,19L2,18ZM15,18L16,18L16,19L15,19L15,18ZM12,18L13,18L13,19L12,19L12,18ZM26,18L27,18L27,19L26,19L26,18ZM19,17L20,17L20,18L19,18L19,17ZM17,17L18,17L18,18L17,18L17,17ZM10,17L11,17L11,18L10,18L10,17ZM14,16L15,16L15,17L14,17L14,16ZM28,16L29,16L29,17L28,17L28,16ZM23,16L24,16L24,17L23,17L23,16ZM21,16L22,16L22,17L21,17L21,16ZM5,15L6,15L6,16L5,16L5,15ZM26,15L27,15L27,16L26,16L26,15ZM19,15L20,15L20,16L19,16L19,15ZM16,15L17,15L17,16L16,16L16,15ZM12,15L13,15L13,16L12,16L12,15ZM3,15L4,15L4,16L3,16L3,15ZM28,14L29,14L29,15L28,15L28,14ZM21,14L22,14L22,15L21,15L21,14ZM9,14L10,14L10,15L9,15L9,14ZM16,13L17,13L17,14L16,14L16,13ZM6,13L7,13L7,14L6,14L6,13ZM25,12L26,12L26,13L25,13L25,12ZM19,12L20,12L20,13L19,13L19,12ZM2,12L3,12L3,13L2,13L2,12ZM11,12L12,12L12,13L11,13L11,12ZM16,11L17,11L17,12L16,12L16,11ZM14,11L15,11L15,12L14,12L14,11ZM21,11L22,11L22,12L21,12L21,11ZM23,10L24,10L24,11L23,11L23,10ZM4,10L5,10L5,11L4,11L4,10ZM6,10L7,10L7,11L6,11L6,10ZM12,10L13,10L13,11L12,11L12,10ZM18,9L19,9L19,10L18,10L18,9ZM9,9L10,9L10,10L9,10L9,9ZM21,9L22,9L22,10L21,10L21,9ZM5,8L6,8L6,9L5,9L5,8ZM12,8L13,8L13,9L12,9L12,8ZM27,8L28,8L28,9L27,9L27,8ZM8,8L8,9L7,9L7,8L8,8ZM8,7L9,7L9,8L8,8L8,7ZM24,7L25,7L25,8L24,8L24,7ZM12,6L13,6L13,7L12,7L12,6ZM21,6L22,6L22,7L21,7L21,6ZM4,6L5,6L5,7L4,7L4,6ZM19,5L20,5L20,6L19,6L19,5ZM25,5L26,5L26,6L25,6L25,5ZM7,4L8,4L8,5L7,5L7,4ZM15,4L16,4L16,5L15,5L15,4ZM10,3L11,3L11,4L10,4L10,3ZM15,3L15,4L14,4L14,3L15,3Z"
            fill="currentColor" />
    </g>
</svg>