<svg clip-rule="evenodd" fill-rule="evenodd" stroke-linejoin="round" stroke-miterlimit="1.41421" viewBox="0 0 32 32"
  xmlns="http://www.w3.org/2000/svg">
  <path
    d="m16.181 15.473.236.236v.458l-.307.307h-.344l.172.172-.522.522v7.784c.17.01.343.015.516.015.163 0 .324-.005.485-.013v-7.829l-.479-.479.172-.172h.307v-.307l.229-.229-.229-.229v-.236h-.236l-.243-.243.479-.48v-7.769c-.161-.009-.322-.013-.485-.013-.173 0-.346.005-.516.015v7.725l.522.522-.243.243h-.279v.279l-.186.186.186.186v.35h-.723l-5.466 5.466c.222.25.457.488.704.712l-1.948 1.948-.708-.708 1.952-1.952c-1.302-1.471-2.132-3.374-2.248-5.466h7.714l.537-.536-.465-.465h.651v-.765l-5.454-5.454c1.466-1.314 3.365-2.152 5.454-2.271v-2.973h1.001v2.971c2.104.113 4.016.955 5.491 2.279l-5.491 5.49v.723h.694l-.465.465.536.536h-.765v.651l5.522 5.522c-1.479 1.34-3.403 2.193-5.522 2.307v3.03h-1.001v-3.032c-2.104-.12-4.014-.969-5.485-2.3l5.485-5.484v-.694h.35l-.35-.35v-.372l.279-.279zm1.001 1.001h7.702c.01-.168.015-.337.015-.507 0-.166-.005-.331-.014-.494h-7.774l5.503-5.504c-.222-.249-.458-.486-.706-.709l2.319-2.32.708.708-2.321 2.321c1.318 1.478 2.157 3.395 2.271 5.504h2.994v1.001h-2.995c-.115 2.089-.943 3.989-2.242 5.46l2.018 2.018-.708.708-2.013-2.013c.247-.225.482-.463.703-.713zm-7.22-7.22c-.248.223-.484.46-.707.709l5.51 5.51h-7.787v.015c-.009.159-.013.319-.013.479 0 .17.005.339.014.507h-3.073v-1.001h3.072l.001-.014c.117-2.107.958-4.021 2.276-5.496l-2.255-2.255.708-.708z"
    fill="currentColor" transform="matrix(1.33482 0 0 1.3337 -5.30769 -5.33829)" />
</svg>