<svg clip-rule="evenodd" fill-rule="evenodd" stroke-linejoin="round" stroke-miterlimit="2" viewBox="0 0 64 64"
  xmlns="http://www.w3.org/2000/svg">
  <path
    d="m535.837 344.5c-.027-.701-.048-1.332-.056-1.777l-.013-.705.064-.03c.093-.044.141-.053 1.204-.227 2.438-.399 3.035-.512 4.107-.778 1.972-.489 4.158-1.346 6.657-2.611.953-.483.791-.472 1.515-.102 1.366.699 3.221 1.523 4.317 1.918 1.979.713 3.262 1.023 6.046 1.463.361.057.919.155 1.24.219l.583.115-.003.61c-.003.5-.02 1.167-.046 1.905h18.183v4h-18.382c-.052.8-.104 1.475-.151 1.88-.038.33-.096.711-.17 1.12h13.703v4h-14.694c-.03.089-.059.176-.088.259-.371 1.073-.729 1.962-1.105 2.741h9.887v4h-12.322c-.446.614-.886 1.153-1.327 1.628-.471.508-1.115 1.165-1.316 1.342-1.3 1.148-2.314 1.999-2.639 2.217-.046.03-.292.183-.546.339-.255.156-.538.334-.63.395-.21.141-.972.51-1.19.576-.119.036-.783-.278-1.318-.623-.163-.105-.465-.293-.671-.418-.561-.34-.79-.521-2.251-1.777-1.392-1.195-2.457-2.313-3.458-3.679h-12.332v-4h9.906c-.433-.902-.835-1.924-1.181-3h-14.725v-4h13.718c-.14-.71-.17-1.037-.282-2.527-.011-.139-.022-.298-.033-.473h-18.403v-4z"
    fill="currentColor" transform="matrix(1.03226 0 0 1.03226 -534.333 -332.903)" />
</svg>