<svg clip-rule="evenodd" fill-rule="evenodd" stroke-linejoin="round" stroke-miterlimit="2" viewBox="0 0 64 64"
  xmlns="http://www.w3.org/2000/svg">
  <path
    d="m188.868 36.714c-33.38 16.901-62.589 28.362-88.93 34.895-14.33 3.554-22.302 5.063-54.883 10.39-14.195 2.321-14.833 2.441-16.076 3.031l-.853.405.17 9.416c.347 19.224 2.448 64.566 3.869 83.504 1.715 22.851 2.005 25.219 4.694 38.38 2.79 13.647 3.378 16.164 6.96 29.771 7.06 26.82 17.097 52.596 28.031 71.985 22.575 40.034 41.362 63.474 71.924 89.739 19.523 16.778 22.587 19.196 30.075 23.733 2.76 1.672 6.794 4.185 8.965 5.585 7.151 4.613 16.027 8.812 17.607 8.331 2.915-.887 13.094-5.811 15.906-7.694 1.224-.821 5.009-3.196 8.41-5.28 3.402-2.083 6.685-4.123 7.298-4.533 4.343-2.909 17.887-14.282 35.261-29.613 2.689-2.373 11.288-11.14 17.586-17.93 14.189-15.297 28.333-35.592 43.788-62.833 7.521-13.254 14.196-28.65 21.238-48.979 6.887-19.88 14.45-52.46 16.682-71.862 2.113-18.357 5.148-78.054 5.289-104.013l.044-8.158-7.792-1.537c-4.286-.846-11.744-2.162-16.574-2.924-37.187-5.871-54.33-10.018-80.767-19.538-14.65-5.276-39.426-16.283-57.684-25.626-9.671-4.95-7.498-5.095-20.238 1.355"
    fill="currentColor" transform="matrix(.154527 0 0 .154527 1.091 -4.90614)" />
</svg>