<svg clip-rule="evenodd" fill-rule="evenodd" stroke-linejoin="round" stroke-miterlimit="2" viewBox="0 0 64 64"
  xmlns="http://www.w3.org/2000/svg">
  <path
    d="m454.269 486.531c-5.252 2.659-9.848 4.462-13.993 5.49-2.254.559-3.509.797-8.635 1.635-2.234.365-2.334.384-2.53.477l-.134.064.027 1.481c.054 3.025.385 10.159.609 13.139.269 3.596.315 3.968.738 6.039.439 2.147.532 2.543 1.095 4.684 1.111 4.22 2.69 8.276 4.411 11.327 3.552 6.299 6.508 9.987 11.317 14.12 3.072 2.64 3.554 3.02 4.732 3.734.434.263 1.069.659 1.411.879 1.125.726 2.521 1.386 2.77 1.311.459-.14 2.06-.915 2.503-1.211.192-.129.788-.503 1.323-.831.535-.327 1.052-.648 1.148-.713.684-.458 2.815-2.247 5.548-4.659.423-.374 1.776-1.753 2.767-2.822 2.233-2.406 4.458-5.6 6.89-9.886 1.184-2.085 2.234-4.508 3.342-7.707 1.084-3.128 2.274-8.254 2.625-11.307.332-2.888.81-12.281.832-16.366l.007-1.283-1.226-.242c-.675-.133-1.848-.34-2.608-.46-5.851-.924-8.549-1.577-12.708-3.074-2.305-.831-6.204-2.563-9.077-4.033-1.521-.778-1.179-.801-3.184.214zm1.756 21.802c3.587 0 6.5 4.481 6.5 10s-2.913 10-6.5 10c-3.588 0-6.5-4.481-6.5-10s2.912-10 6.5-10z"
    fill="currentColor" transform="matrix(.982088 0 0 .982088 -415.856 -477.049)" />
</svg>