<svg clip-rule="evenodd" fill-rule="evenodd" stroke-linejoin="round" stroke-miterlimit="2" viewBox="0 0 64 64"
  xmlns="http://www.w3.org/2000/svg">
  <path
    d="m878.342 741.285c-5.878 6.156-14.166 9.993-23.342 9.993-1.096 0-2.179-.055-3.247-.162l.505-1.367 15.5-26.847zm-30.977 9.083c-9.741-2.366-17.761-9.157-21.804-18.121l1.439-.247h31zm38.619-40.44c.842 2.877 1.294 5.922 1.294 9.072 0 7.04-2.259 13.557-6.091 18.866l-.929-1.117-15.5-26.847zm-57.171-9.794.929 1.117 15.5 26.847-21.226-.026c-.842-2.877-1.294-5.922-1.294-9.072 0-7.04 2.259-13.557 6.091-18.866zm2.845-3.419c5.878-6.156 14.166-9.993 23.342-9.993 1.096 0 2.179.055 3.247.162l-.505 1.367-15.5 26.847zm30.977-9.083c9.741 2.366 17.761 9.157 21.804 18.121l-1.439.247h-31z"
    fill="currentColor" transform="matrix(.991385 0 0 .991385 -815.635 -680.806)" />
</svg>