<svg width="100%" height="100%" viewBox="0 0 32 32" version="1.1" xmlns="http://www.w3.org/2000/svg"
    xmlns:xlink="http://www.w3.org/1999/xlink" xml:space="preserve" xmlns:serif="http://www.serif.com/"
    style="fill-rule:evenodd;clip-rule:evenodd;stroke-linejoin:round;stroke-miterlimit:1.41421;">
    <g transform="matrix(1.25,0,0,0.75,-5.25,4.25)">
        <circle cx="17" cy="15" r="2" fill="currentColor" />
    </g>
    <g transform="matrix(1,0,0,1,-0.5,0)">
        <path
            d="M16.5,11C21.191,11 25,13.016 25,15.5C25,17.984 21.191,20 16.5,20C11.809,20 8,17.984 8,15.5C8,13.016 11.809,11 16.5,11ZM16.5,12C20.087,12 23,13.568 23,15.5C23,17.432 20.087,19 16.5,19C12.913,19 10,17.432 10,15.5C10,13.568 12.913,12 16.5,12Z"
            fill="currentColor" />
    </g>
    <g transform="matrix(1,0,0,1,-0.5,0)">
        <path
            d="M16.536,13C19.555,13.009 22,14.126 22,15.5C22,16.88 19.536,18 16.5,18C13.464,18 11,16.88 11,15.5C11,14.12 13.464,13 16.5,13M16.5,13C18.984,13 21,14.12 21,15.5C21,16.88 18.984,18 16.5,18C14.016,18 12,16.88 12,15.5C12,14.12 14.016,13 16.5,13Z"
            fill="currentColor" />
    </g>
    <g transform="matrix(1,0,0,1,-0.5,0)">
        <path
            d="M16.5,10C22.847,10 28,12.464 28,15.5C28,18.536 22.847,21 16.5,21C10.153,21 5,18.536 5,15.5C5,12.464 10.153,10 16.5,10ZM16.5,10C21.743,10 26,13.016 26,15.5C26,17.984 21.743,21 16.5,21C11.257,21 7,17.984 7,15.5C7,13.016 11.257,10 16.5,10Z"
            fill="currentColor" />
    </g>
    <g transform="matrix(1,0,0,1,-0.5,0)">
        <path
            d="M16.5,8C24.503,8 31,11.361 31,15.5C31,19.639 24.503,23 16.5,23C8.497,23 2,19.639 2,15.5C2,11.361 8.497,8 16.5,8ZM16.5,9C23.399,9 29,11.913 29,15.5C29,19.087 23.399,22 16.5,22C9.601,22 4,19.087 4,15.5C4,11.913 9.601,9 16.5,9Z"
            fill="currentColor" />
    </g>
    <path
        d="M16,7C24.831,7 32,10.809 32,15.5C32,20.191 24.831,24 16,24C24.279,24 31,20.191 31,15.5C31,10.809 24.279,7 16,7ZM16,7C7.721,7 1,10.809 1,15.5C1,20.191 7.721,24 16,24C7.169,24 0,20.191 0,15.5C0,10.809 7.169,7 16,7Z"
        fill="currentColor" />
</svg>