<svg width="100%" height="100%" viewBox="0 0 32 32" version="1.1" xmlns="http://www.w3.org/2000/svg"
    xmlns:xlink="http://www.w3.org/1999/xlink" xml:space="preserve"
    style="fill-rule:evenodd;clip-rule:evenodd;stroke-linejoin:round;stroke-miterlimit:1.41421;">
    <g transform="matrix(0.0016013,-0.0016013,-0.0016013,-0.0016013,8.44179,24.401)">
        <path
            d="M5798.2,2441.8L3219.9,-138.4L2867.7,215.7L2517.4,569.8L2398.7,925.8C2333.6,1121 2266.6,1299 2251.3,1323.9C2213,1377.5 2113.5,1421.5 2031.2,1421.5C1962.3,1421.5 1832.1,1306.7 1814.9,1228.2C1809.2,1203.3 1784.3,899 1757.5,550.6L1709.7,-81L2224.6,-597.8L2741.4,-1114.6L1855.2,-2000.8L970.9,-2885.1L722.1,-2885.1C427.3,-2885.1 352.7,-2902.3 249.3,-2996.1C103.8,-3128.2 100,-3139.6 100,-3832.5C100,-4508.2 103.8,-4531.1 226.3,-4653.6C348.8,-4776.1 371.8,-4779.9 1047.4,-4779.9C1598.6,-4779.9 1667.6,-4776.1 1736.5,-4743.5C1834.1,-4699.5 1949,-4573.2 1973.8,-4479.4C1985.3,-4439.2 1994.9,-4268.9 1994.9,-4100.4L1994.9,-3794.1L3708,-2081L4226.7,-2599.7L4743.5,-3116.5L5363.7,-3011.2L5983.9,-2907.9L6058.5,-2827.5C6127.4,-2754.8 6133.1,-2739.5 6125.5,-2664.8C6114,-2574.8 6068.1,-2500.2 5995.3,-2458.1C5968.5,-2442.8 5817.3,-2398.8 5658.4,-2360.5L5369.4,-2287.8L5026.8,-1945.2L4684.2,-1602.6L5101.5,-1185.3C5329.3,-957.5 6502.6,204.3 7706.5,1392.9L9898.1,3555.8L9898.1,4288.9L9900,5020.1L9138.2,5020.1L8378.3,5020.1L5798.2,2441.8ZM6705.4,2122.1C4196.1,-387.2 4154,-431.3 4154,-504C4154,-599.7 4224.8,-664.8 4326.3,-664.8C4395.2,-664.8 4483.3,-578.7 6975.4,1913.4L9555.6,4493.6L9555.6,4099.3L9555.6,3705L7226.1,1400.5C5943.6,133.4 4793.3,-1003.6 4668.9,-1124.1L4443,-1342.4L3956.8,-856.2L3468.7,-368.1L8512.2,4675.4L9258.6,4675.4L6705.4,2122.1ZM2174.8,525.8L2224.6,378.4L3723.3,-1118.4C5155,-2548.2 5223.9,-2613.3 5302.4,-2626.7C5348.3,-2634.4 5379,-2645.8 5369.4,-2655.4C5361.8,-2663.1 5260.3,-2684.1 5143.5,-2701.3C5028.7,-2720.4 4917.6,-2739.6 4900.4,-2743.4C4875.5,-2751.1 4492.7,-2379.7 3466.8,-1353.8L2065.7,45.3L2079.1,259.7C2092.5,489.4 2111.6,675.1 2121.2,675.1C2123.2,675.1 2148,608.1 2174.8,525.8ZM2737.6,-2573.1L2004.5,-3306.2L1991.1,-3239.2C1970.1,-3143.5 1931.8,-3076.5 1857.1,-3005.7C1772.9,-2923.4 1673.4,-2885.1 1550.8,-2885.1L1449.4,-2885.1L2980.6,-1353.9L3223.7,-1597L3468.7,-1842L2737.6,-2573.1ZM1646.6,-3836.4L1650.4,-4435.5L1047.5,-4435.5L444.5,-4435.5L444.5,-3229.7L1043.6,-3233.5L1640.8,-3239.2L1646.6,-3836.4Z"
            fill="currentColor" />
    </g>
    <g transform="matrix(1.47662,0,0,1.47662,-7.62598,-7.62598)">
        <path
            d="M16.068,5.51C21.826,5.546 26.49,10.233 26.49,16C26.49,21.79 21.79,26.49 16,26.49C10.21,26.49 5.51,21.79 5.51,16C5.51,10.21 10.21,5.51 16,5.51M16,5.51C20.686,5.51 24.49,10.21 24.49,16C24.49,21.79 20.686,26.49 16,26.49C11.314,26.49 7.51,21.79 7.51,16C7.51,10.21 11.314,5.51 16,5.51Z"
            fill="currentColor" />
    </g>
</svg>