<svg clip-rule="evenodd" fill-rule="evenodd" stroke-linejoin="round" stroke-miterlimit="2" viewBox="0 0 64 64"
  xmlns="http://www.w3.org/2000/svg">
  <path
    d="m76.101 161.522c9.709 2.016 17.362 9.67 19.377 19.377h6.442v10.202h-6.442c-2.016 9.709-9.67 17.362-19.377 19.377v6.442h-10.202v-6.442c-9.709-2.016-17.362-9.67-19.377-19.377h-6.442v-10.202h6.442c2.016-9.709 9.67-17.362 19.377-19.377v-6.442h10.202zm-5.101 5.478c10.486 0 19 8.514 19 19s-8.514 19-19 19-19-8.514-19-19 8.514-19 19-19zm0 4c8.279 0 15 6.721 15 15s-6.721 15-15 15-15-6.721-15-15 6.721-15 15-15z"
    fill="currentColor" transform="matrix(1.03492 0 0 1.03492 -41.48 -160.495)" />
</svg>