<svg clip-rule="evenodd" fill-rule="evenodd" stroke-linejoin="round" stroke-miterlimit="2" viewBox="0 0 64 64"
  xmlns="http://www.w3.org/2000/svg">
  <path
    d="m789.744 75.258c11.908 1.654 21.343 11.088 22.998 22.998h5.881v7.488h-5.881c-1.654 11.908-11.088 21.343-22.998 22.998v5.881h-7.488v-5.881c-11.908-1.654-21.343-11.088-22.998-22.998h-5.881v-7.488h5.881c1.654-11.908 11.088-21.343 22.998-22.998v-5.881h7.488zm-3.744 5.742c11.59 0 21 9.41 21 21s-9.41 21-21 21-21-9.41-21-21 9.41-21 21-21zm0 9c6.623 0 12 5.377 12 12s-5.377 12-12 12-12-5.377-12-12 5.377-12 12-12z"
    fill="currentColor" transform="matrix(.98091 0 0 .98091 -738.996 -68.0529)" />
</svg>