<svg clip-rule="evenodd" fill-rule="evenodd" stroke-linejoin="round" stroke-miterlimit="2" viewBox="0 0 64 64"
  xmlns="http://www.w3.org/2000/svg">
  <g fill="currentColor">
    <path d="m447 246 40 40-40 40 40 40-40 40-40-40-40 40-40-40 40-40-40-40 40-40 40 40z"
      transform="matrix(.264093 -.264093 .264093 .264093 -227.58 53.3915)" />
    <path
      d="m95.6 686.159 16.421 4.399 4.4 16.421-12.021 12.021-16.421-4.4-4.4-16.421zm-23-23 16.421 4.399 4.4 16.421-12.021 12.021-16.421-4.4-4.4-16.421zm31-8 16.421 4.399 4.4 16.421-12.021 12.021-16.421-4.4-4.4-16.421z"
      transform="matrix(1.00248 0 0 1.00248 -60.73 -656.785)" />
  </g>
</svg>