<svg clip-rule="evenodd" fill-rule="evenodd" stroke-linejoin="round" stroke-miterlimit="2" viewBox="0 0 64 64"
  xmlns="http://www.w3.org/2000/svg">
  <path
    d="m630.315 571.367-12.769-7.121v13.693l12.769 7.061zm-28.615 0-12.77-7.121v13.693l12.77 7.061zm30.153 0v13.633l12.77-7.061v-13.632zm-28.615 0v13.633l12.769-7.061v-13.632zm14.313-8.985 13.533-7.382 13.526 7.458-13.52 7.213zm-28.616 0 13.534-7.382 13.526 7.458-13.52 7.213zm27.072-15.015-12.769-7.121v13.693l12.769 7.061zm1.539 0v13.633l12.769-7.061v-13.632zm-14.303-8.985 13.533-7.382 13.527 7.458-13.52 7.213z"
    fill="currentColor" fill-rule="nonzero" transform="matrix(1.14917 0 0 1.14917 -676.782 -609.238)" />
</svg>