<svg clip-rule="evenodd" fill-rule="evenodd" stroke-linejoin="round" stroke-miterlimit="2" viewBox="0 0 64 64"
  xmlns="http://www.w3.org/2000/svg">
  <path
    d="m733.062 223h.096c1.005 6.308 6.705 11.756 14.883 14.959 3.203 8.178 8.651 13.878 14.959 14.883v.096c-16.069-.992-28.946-13.869-29.938-29.938zm63.876 0c-.992 16.069-13.869 28.946-29.938 29.938v-.096c6.308-1.005 11.756-6.705 14.959-14.883 8.178-3.203 13.878-8.651 14.883-14.959zm-33.938 17.961c-3.709-.143-7.248-.682-10.509-1.549 2.683 4.663 6.37 7.824 10.509 8.601zm4 7.052c4.139-.777 7.826-3.938 10.509-8.601-3.261.867-6.8 1.406-10.509 1.549zm-10.747-25.013c-.456 1.459-.73 2.789-.73 3.872 0 4.545 3.205 8.346 7.477 9.266v1.817c-4.537-.207-8.767-1.11-12.415-2.54-1.43-3.648-2.333-7.878-2.54-12.415zm17.494 0h8.208c-.207 4.537-1.11 8.767-2.54 12.415-3.648 1.43-7.878 2.333-12.415 2.54v-1.817c4.272-.92 7.477-4.721 7.477-9.266 0-1.083-.274-2.413-.73-3.872zm18.266 0h-7.052c-.143 3.709-.682 7.248-1.549 10.509 4.663-2.683 7.824-6.37 8.601-10.509zm-54.026 0c.777 4.139 3.938 7.826 8.601 10.509-.867-3.261-1.406-6.8-1.549-10.509zm27.013-10.485s-6.481 10.159-6.481 14.513c0 3.577 2.904 6.481 6.481 6.481s6.481-2.904 6.481-6.481c0-4.354-6.481-14.513-6.481-14.513zm-2-23.453v.096c-6.308 1.005-11.756 6.705-14.959 14.883-8.178 3.203-13.878 8.651-14.883 14.959h-.096c.992-16.069 13.869-28.946 29.938-29.938zm-17.961 29.938c.143-3.709.682-7.248 1.549-10.509-4.663 2.683-7.824 6.37-8.601 10.509zm17.961-10.049c-1.528 2.61-3.635 6.411-5.223 10.049h-9.732c.207-4.537 1.11-8.767 2.54-12.415 3.648-1.43 7.878-2.333 12.415-2.54zm4-19.889c16.069.992 28.946 13.869 29.938 29.938h-.096c-1.005-6.308-6.705-11.756-14.883-14.959-3.203-8.178-8.651-13.878-14.959-14.883zm25.013 29.938c-.777-4.139-3.938-7.826-8.601-10.509.867 3.261 1.406 6.8 1.549 10.509zm-25.013-10.049v-4.906c4.537.207 8.767 1.11 12.415 2.54 1.43 3.648 2.333 7.878 2.54 12.415h-9.732c-1.588-3.638-3.695-7.438-5.223-10.049zm0-14.964v7.052c3.709.143 7.248.682 10.509 1.549-2.683-4.663-6.37-7.824-10.509-8.601zm-4 0c-4.139.777-7.826 3.938-10.509 8.601 3.261-.867 6.8-1.406 10.509-1.549z"
    fill="currentColor" transform="matrix(1.00193 0 0 1.00193 -734.479 -189.427)" />
</svg>