<svg width="100%" height="100%" viewBox="0 0 32 32" version="1.1" xmlns="http://www.w3.org/2000/svg"
    xmlns:xlink="http://www.w3.org/1999/xlink" xml:space="preserve" xmlns:serif="http://www.serif.com/"
    style="fill-rule:evenodd;clip-rule:evenodd;stroke-linejoin:round;stroke-miterlimit:1.41421;">
    <g transform="matrix(0.176523,0,0,0.176523,-1227.47,-1281.75)">
        <path
            d="M7152.57,7439.69C7152.56,7439.64 7152.54,7439.59 7152.53,7439.54C7152.55,7439.59 7152.56,7439.64 7152.57,7439.69C7153,7440.97 7155.37,7440.31 7154.99,7442.4C7153.19,7442.22 7153.31,7441.66 7152.12,7441.58C7151.97,7440.64 7152.79,7440.69 7152.57,7439.69ZM7158.26,7441.17C7157.11,7441.23 7157.08,7440.17 7157.03,7439.13C7158.18,7439.07 7158.21,7440.13 7158.26,7441.17ZM7110.91,7430.45C7109.86,7429.44 7109.4,7431.33 7108.05,7431.27C7107.96,7433 7110.4,7432.19 7109.69,7434.54C7112.51,7435.07 7112.2,7433.99 7114.6,7434.95C7115.08,7433.66 7115.45,7432.26 7116.64,7431.68C7116.05,7431.04 7114.55,7431.32 7113.37,7431.27C7114.1,7429.81 7112.74,7428.85 7111.32,7428.4C7111.49,7429.39 7110.58,7429.29 7110.91,7430.45ZM7124,7434.13C7125.1,7433.68 7126.54,7433.96 7127.27,7434.95L7127.27,7432.9C7125.51,7433.98 7126.55,7431.96 7125.23,7431.68C7124.83,7432.51 7124.39,7433.29 7124,7434.13ZM7020.14,7433.72C7022.08,7433.88 7023.09,7433.12 7023.01,7431.27C7020.8,7430.83 7020.68,7432.49 7020.14,7433.72ZM7005.83,7426.77C7004.87,7427.37 7005.07,7427.63 7003.79,7427.18C7003.15,7428.63 7005.18,7427.43 7005.02,7428.4C7004.18,7428.66 7004.9,7430.47 7003.38,7430.04C7003.14,7428.39 7001.1,7428.86 7000.52,7429.22C7001.14,7429.96 7001.99,7430.48 7001.74,7432.09C7000.48,7431.55 6999.42,7433.25 7000.52,7433.72C7000.56,7432.67 7002.04,7433.06 7002.56,7432.49C7002.38,7431.58 7001.62,7430.28 7002.97,7430.04C7003.31,7430.52 7003.51,7431.14 7003.38,7432.09C7004.66,7432.28 7004.98,7431.5 7005.83,7431.27C7005.24,7428.68 7006.03,7425.37 7007.47,7421.86C7005.65,7422.1 7004.7,7423.19 7002.56,7423.09C7004.1,7423.5 7003.31,7425.11 7003.38,7426.36C7003.48,7425.64 7004.08,7425.43 7005.02,7425.54C7004.89,7426.35 7005.57,7426.35 7005.83,7426.77ZM7014.83,7430.45C7014.59,7432.61 7016.51,7430.71 7016.87,7431.68C7016.87,7432.49 7015.76,7432.19 7016.05,7433.31C7017.64,7432.49 7017.67,7432.65 7018.92,7433.72C7018.72,7432.43 7019.65,7432.28 7019.32,7430.86C7017.43,7431.26 7016.86,7430.33 7015.65,7430.04C7015.56,7430.36 7015.3,7430.52 7014.83,7430.45ZM7033.23,7431.68L7033.23,7432.49C7033.64,7432.49 7033.71,7432.82 7034.04,7432.9C7033.87,7431.77 7035.57,7432.52 7035.68,7431.68C7034.27,7432.01 7033.95,7430.91 7033.23,7431.68ZM7002.56,7427.59L7000.93,7427.59C7001.04,7426.93 7000.54,7426.88 7000.52,7426.36C6998.24,7426.89 6998.56,7428.42 6997.65,7429.63C6997.18,7427.55 6995.94,7428.15 6997.24,7426.77C6996.98,7425.55 6996.37,7427.16 6995.61,7426.77C6996.75,7425.53 6998.2,7424.55 6998.06,7423.09C6999.15,7423.26 6999.44,7424.64 6999.7,7422.68C7000.72,7422.62 7000.96,7423.32 7001.74,7423.5C7001.94,7424.78 7001.23,7425.17 7000.52,7425.54C7000.82,7426.61 7002.46,7426.32 7002.56,7427.59ZM7023.42,7425.56C7023.82,7426.64 7023.84,7427.63 7023.01,7428.4C7022.08,7428.18 7021.34,7426 7020.55,7428C7019.88,7427.26 7023.22,7425.64 7024.64,7423.91C7025.06,7423.86 7025.47,7425.67 7025.87,7424.32C7026.45,7424.82 7026.8,7425.88 7026.28,7426.36C7028.27,7426.47 7030.09,7425.33 7031.18,7423.09C7032.44,7423.38 7031.97,7423.38 7033.23,7423.09C7032.29,7424.02 7033.82,7424.57 7034.86,7424.73C7033.88,7426.45 7032.95,7427.59 7032.82,7429.22C7030.35,7428.52 7030.35,7428.74 7027.91,7429.22C7027.96,7428.2 7028.68,7427.96 7027.91,7427.18C7026.53,7427.17 7026.09,7429.33 7024.64,7428C7024.34,7426.88 7025.45,7427.17 7025.46,7426.36C7025.35,7425.52 7023.69,7426.24 7023.42,7425.56C7023.42,7425.56 7023.42,7425.55 7023.41,7425.54C7023.42,7425.55 7023.42,7425.56 7023.42,7425.56ZM7127.27,7428.81C7127.44,7427.83 7126.52,7427.93 7126.86,7426.77C7129.8,7426.76 7130.08,7426.52 7131.77,7425.13C7129.25,7423.98 7129.05,7424.96 7125.63,7424.32C7126.13,7426.53 7125.09,7428.05 7127.27,7428.81ZM7153.44,7427.59C7153.11,7423.9 7148.43,7426.69 7147.71,7423.09C7146.45,7422.78 7146.93,7424.21 7145.67,7423.91C7145.43,7425.23 7145.95,7425.81 7146.08,7426.77C7147.86,7426.11 7149.99,7424.79 7151.39,7426.77C7150.81,7426.87 7150.7,7427.44 7150.17,7427.59C7149.22,7427.71 7149.71,7426.4 7148.94,7426.36C7148.92,7426.61 7148.88,7426.85 7148.53,7426.77C7148.47,7427.25 7147.8,7427.7 7148.53,7428C7149.67,7427.44 7151.62,7428.24 7153.44,7427.59ZM7020.96,7425.95C7021.13,7425.16 7022.55,7425.63 7022.19,7424.32C7021.71,7424.25 7021.03,7424.39 7020.96,7423.91C7021.26,7422.98 7022.19,7422.68 7023,7422.27C7022.59,7423.64 7023.57,7423.61 7024.64,7423.5C7024.24,7421.26 7022.85,7422.07 7021.78,7421.05C7021.44,7422.07 7020.68,7422.67 7020.14,7423.5C7019.34,7423.62 7019.33,7422.95 7018.92,7422.68C7018.99,7423.7 7018.29,7423.96 7017.69,7424.32C7016.73,7424.19 7016.93,7422.9 7015.65,7423.09C7015.64,7424.97 7014.91,7422.41 7014.01,7422.68C7013.77,7425.51 7017.65,7424.22 7016.87,7427.59C7017.89,7427.65 7018.57,7427.38 7018.92,7426.77C7017.77,7426.37 7019.51,7425.68 7018.51,7425.13C7020.03,7425.57 7019.67,7424.12 7020.96,7424.32C7021.52,7425.25 7019.91,7425.85 7020.96,7425.95ZM7009.81,7423.53C7007.93,7424.05 7008.84,7427.37 7006.65,7427.59C7007.54,7427.09 7008.11,7424.17 7007.47,7423.5C7008.04,7421.77 7008.37,7423.83 7009.81,7423.53C7009.85,7423.52 7009.88,7423.51 7009.92,7423.5C7009.88,7423.51 7009.85,7423.52 7009.81,7423.53ZM7124,7417.38C7123.81,7419.09 7122.06,7419.25 7121.55,7420.64C7121.66,7421.75 7121.7,7422.37 7121.74,7422.97L7121.76,7423.21C7121.8,7423.81 7121.84,7424.43 7121.95,7425.54C7120.44,7425.26 7120.93,7426.98 7120.32,7427.59C7118.14,7426.51 7121.64,7425.84 7120.73,7423.5C7118.94,7423.34 7118.62,7424.67 7117.05,7424.73C7117.11,7423.46 7116.08,7422.41 7117.05,7421.45C7116.27,7420.69 7116.31,7421.7 7115,7421.45C7115.28,7420.5 7116.36,7420.36 7116.64,7419.41C7120,7422.34 7121.49,7418.42 7124,7417.36L7124,7417.38ZM7109.69,7423.09C7109.17,7423.11 7109.12,7423.61 7108.46,7423.5C7107.92,7423.49 7108.09,7422.78 7107.65,7422.68C7107.97,7424.5 7105.45,7423.49 7105.6,7425.13C7106.34,7425.89 7107.58,7426.15 7108.05,7427.18C7108.54,7424.26 7113.72,7426.03 7115,7423.91C7115.38,7425.72 7115.92,7427.35 7118.27,7427.18C7118.49,7424.65 7114.54,7426.28 7115.41,7423.09C7113.87,7422.5 7114.63,7424.21 7113.37,7423.91C7113.61,7423.06 7114.23,7422.59 7114.6,7421.86L7113.78,7421.86C7113.69,7421.54 7113.44,7421.39 7112.96,7421.45C7113.29,7423.02 7112.09,7423.04 7111.32,7423.5C7109.82,7422.4 7111.88,7420.24 7109.69,7419.82C7109.81,7420.77 7110.56,7421.58 7109.28,7421.86C7109.35,7420.97 7108.94,7420.56 7108.05,7420.64C7107.4,7422.65 7110.17,7421.25 7109.69,7423.09ZM7099.06,7422.27C7099.1,7421.22 7100.65,7421.69 7100.69,7420.64C7101.65,7420.74 7100.93,7422.43 7100.69,7422.68C7099.84,7422.85 7099.61,7422.4 7099.06,7422.27L7099.06,7423.5C7096.08,7422.68 7093.91,7423.32 7092.52,7425.95C7091.17,7425.66 7089.44,7425.76 7089.24,7424.32C7090.55,7424.07 7090.51,7425.08 7091.29,7424.32C7090.3,7423.64 7090.35,7422.22 7088.84,7423.09L7088.84,7421.45C7090.13,7420.89 7091.3,7422.47 7091.7,7421.45C7091.19,7423.03 7095.44,7424.83 7096.19,7421.86C7097.28,7421.87 7098.53,7421.71 7099.06,7422.27ZM7039.77,7423.09C7041.64,7422.78 7042.41,7421.37 7043.45,7420.23C7043.1,7419.08 7041.32,7419.36 7040.59,7418.59C7040.45,7420.14 7038.62,7421.54 7039.77,7423.09ZM7137.08,7417.77C7137.15,7417.3 7137.73,7417.33 7138.31,7417.37C7138.08,7419.64 7140.95,7418.81 7141.17,7420.64C7140.36,7419.78 7139.43,7420.62 7139.13,7421.45C7145.26,7423.47 7142.98,7416.87 7142.4,7414.91C7140.68,7415.72 7142.8,7417.84 7141.58,7419C7140.47,7418.48 7138.44,7418.87 7138.72,7416.96C7137.79,7416.63 7135.98,7417.41 7137.08,7417.77ZM6991.64,7420.6C6994.23,7419.81 6991.13,7417.85 6993.97,7416.96C6993.73,7418.02 6994.14,7418.43 6995.2,7418.18C6996.17,7417.85 6991.52,7419.98 6993.97,7421.45C6992.74,7422.69 6993.26,7420.19 6991.64,7420.6C6991.6,7420.61 6991.56,7420.62 6991.52,7420.64C6991.56,7420.62 6991.6,7420.61 6991.64,7420.6ZM7016.37,7421.44C7014.6,7421.16 7010.88,7422.71 7010.74,7418.59C7011.78,7419.58 7016.27,7421.37 7016.87,7419C7018.46,7419.74 7015.7,7421.25 7016.37,7421.44C7016.4,7421.44 7016.43,7421.45 7016.46,7421.45C7016.43,7421.45 7016.4,7421.45 7016.37,7421.44ZM7018.1,7421.45C7018.87,7420.42 7019.53,7421.83 7020.55,7421.05C7020.68,7419.97 7019.7,7419.99 7018.91,7419.82C7019.12,7420.63 7016.66,7420.75 7018.1,7421.45ZM7115.41,7419C7113.38,7419.31 7113.23,7417.75 7111.73,7418.59C7112.23,7419.32 7111.81,7420.97 7112.55,7421.45C7112.36,7419.6 7114.46,7420.34 7115.41,7420.64L7115.41,7419ZM7106.83,7421.05C7107.44,7420.44 7106.86,7418.93 7105.6,7419C7105.52,7420.17 7105.55,7421.23 7106.83,7421.05ZM7097.01,7417.36C7097,7418.33 7097.72,7418.57 7097.42,7419.82C7099.32,7420.86 7100.95,7419.67 7102.74,7419.41C7102.62,7420.34 7102.84,7420.95 7103.56,7421.05C7105,7416.8 7099.89,7416.68 7097.01,7417.36ZM7036.5,7417.77C7037.1,7418.13 7037.79,7418.39 7037.73,7419.41C7038.74,7419.36 7038.99,7418.64 7039.77,7419.41C7039.98,7418.1 7042.57,7417.06 7041.81,7416.14C7040.65,7418.1 7037.56,7416.34 7036.5,7417.77ZM7024.64,7419C7025.36,7418.77 7027.04,7419.49 7027.09,7418.59C7026.08,7418.43 7026.78,7416.72 7027.91,7417.36C7027.12,7418.11 7028.26,7418.75 7028.73,7419.41C7029.27,7418.62 7028.43,7417.76 7029.14,7416.55C7028.5,7416.51 7027.72,7416.6 7027.91,7415.73C7028.14,7415.73 7028.38,7415.4 7027.91,7415.32C7026.53,7416.26 7025.67,7417.71 7024.64,7419ZM7086.38,7402.65C7086.02,7403.96 7087.44,7403.49 7087.61,7404.28C7086.49,7406.16 7085.14,7407.81 7083.93,7409.6C7082.91,7409.66 7081.94,7409.67 7081.88,7408.78C7083.26,7406.59 7079.25,7406.01 7081.48,7403.87C7081.12,7402.32 7078.92,7402.61 7078.61,7401.01C7076.96,7401.54 7075.42,7402.18 7074.52,7403.46C7074.46,7404.72 7075.96,7405.3 7074.93,7406.33C7075.65,7406.56 7077.34,7405.83 7077.39,7406.74C7076.64,7407.78 7076.64,7409.81 7074.93,7408.78C7073.68,7409.86 7076.59,7410.16 7075.34,7411.23C7074.82,7411.21 7074.78,7410.71 7074.11,7410.82C7074.23,7412.48 7073.97,7411.75 7072.89,7411.64C7072.72,7412.63 7073.64,7412.53 7073.3,7413.69C7075.1,7414.47 7077.49,7414.67 7078.61,7416.14C7077.72,7416.99 7078.82,7417.31 7078.61,7418.59C7080.26,7418.06 7079.62,7417.78 7081.07,7418.59C7081.67,7417.58 7080.28,7415.75 7079.02,7415.32C7080.1,7415.44 7079.34,7413.74 7080.66,7414.09C7081.64,7413.93 7080.43,7415.96 7081.88,7415.32C7081.46,7413.33 7081.81,7412.77 7081.07,7410.82C7082.89,7409.32 7086.2,7411.55 7087.2,7410.82C7086.72,7410.62 7086.27,7410.39 7085.97,7410.01C7088.25,7409.07 7088.83,7412.39 7089.65,7410.41C7088.67,7408.51 7089.89,7406.93 7089.24,7404.69C7090.14,7404.41 7093.52,7404.72 7092.52,7403.06C7091.27,7404.98 7088.51,7402.45 7086.38,7402.65ZM7006.24,7410.41C7007.71,7410.02 7006.97,7412.18 7006.65,7412.46C7006.9,7413.16 7008.59,7412.43 7008.69,7413.28C7009.01,7415.11 7006.56,7416.3 7007.47,7417.36C7008.57,7417.47 7011.65,7418.01 7012.37,7415.73C7011.33,7415.94 7010.79,7416.43 7010.74,7414.91C7013.24,7415.01 7015.08,7412.73 7013.6,7411.23C7015.1,7410.49 7015.25,7410.53 7017.28,7410.82C7016.25,7409.32 7014.86,7409.1 7013.6,7407.14C7012.61,7406.98 7012.71,7407.89 7011.56,7407.55C7011.22,7406.11 7009.74,7405.56 7010.74,7403.87C7008,7404.91 7008.74,7408.46 7006.24,7410.41ZM6987.43,7415.73C6987.91,7415.8 6987.88,7416.38 6987.84,7416.96C6989.36,7417.39 6988.64,7415.58 6989.48,7415.32C6989.89,7415.32 6989.96,7415.65 6990.29,7415.73C6990.76,7413.43 6987.6,7414.94 6987.43,7415.73ZM7104.37,7414.09L7102.74,7414.09C7102.78,7412.83 7102.55,7411.83 7101.92,7411.23C7101.38,7412 7101.57,7413.1 7101.92,7414.5C7099.73,7414.22 7100.13,7416.53 7098.24,7416.55C7097.73,7415.3 7097.93,7414.96 7098.65,7414.09C7097.78,7414.46 7097.44,7415.34 7096.19,7415.32C7093.25,7413.19 7094.9,7410.37 7093.33,7407.96C7095.24,7407.91 7097.09,7407.35 7098.24,7408.37C7098.99,7407.75 7099.2,7406.61 7099.87,7405.92C7100.34,7405.99 7100.1,7406.33 7099.87,7406.32C7099.68,7407.2 7100.46,7407.1 7101.1,7407.14C7101.02,7408.56 7099.65,7408.69 7099.47,7410.01C7100.86,7410.31 7099.99,7408.34 7101.51,7408.78C7101.56,7409.51 7101.01,7409.64 7101.1,7410.41C7102.44,7409.98 7102.55,7408.32 7103.15,7407.14C7105.95,7406.72 7108.8,7409.75 7110.1,7407.14C7112.65,7408.47 7109.78,7411.6 7112.14,7413.28C7113.97,7413.25 7112.66,7412.34 7113.37,7411.64L7115,7411.64C7114.01,7413.13 7113.39,7413.97 7115.41,7414.91C7114.47,7415.6 7112.43,7415.2 7112.14,7416.55C7111.39,7414.57 7110.16,7413.07 7110.1,7410.41C7109.98,7409.44 7108.99,7410.87 7108.87,7411.23C7107.85,7411.17 7108.75,7409.85 7108.87,7409.6C7108.5,7409.24 7107.66,7409.53 7106.42,7409.19C7105.56,7409.42 7105.91,7411.83 7106.82,7411.64C7106.07,7412.75 7103.3,7412.3 7104.37,7414.09ZM7040.59,7413.28C7040.92,7414.43 7040.01,7414.34 7040.18,7415.32C7041.13,7415.19 7041.75,7415.39 7042.22,7415.73C7042.8,7414.67 7042.73,7412.96 7044.68,7413.28C7044.1,7411.85 7045.82,7410.66 7044.68,7410.01C7044.61,7410.48 7044.03,7410.45 7043.45,7410.41C7043.12,7412.3 7043.9,7411.58 7044.27,7412.05C7043.9,7413.26 7041.4,7413.79 7040.59,7413.28ZM6994.38,7411.64C6993.66,7411.14 6992.23,7411.34 6991.93,7410.41C6991.93,7412.18 6989.92,7411.95 6989.48,7413.28C6991.25,7412.16 6991.08,7414.04 6991.93,7414.91C6992.66,7414.69 6993.63,7414.7 6993.97,7414.09C6993.66,7414 6993.17,7414.08 6993.15,7413.69C6993.14,7413.12 6993.35,7412.79 6993.57,7412.46C6992.63,7411.9 6992.03,7413.51 6991.93,7412.46C6992.62,7411.22 6993.77,7412.35 6994.38,7411.64ZM7052.44,7406.32C7052.93,7406.39 7053.6,7406.26 7053.67,7406.73C7052.91,7407.84 7051.57,7408.82 7049.99,7407.96C7049.43,7409.61 7050.72,7409.41 7051.22,7410.01C7050.98,7411.44 7048.84,7413 7049.58,7414.91C7049.84,7413.54 7051.54,7413.6 7053.26,7413.69C7053.5,7412.21 7053.95,7410.94 7053.26,7409.6C7054.28,7409.67 7054.54,7408.97 7054.9,7408.37C7052.41,7408.11 7055.22,7407.11 7054.49,7405.1C7053.16,7405.6 7054.18,7403.78 7052.85,7404.28C7052.51,7404.76 7052.31,7405.38 7052.44,7406.32ZM7033.23,7411.64C7033.83,7411.72 7033.6,7412.63 7033.64,7413.28C7034.16,7413.84 7035.57,7413.53 7036.09,7414.09C7035.32,7412.59 7036.36,7411.83 7035.68,7410.41C7034.43,7410.39 7033.6,7410.79 7033.23,7411.64ZM7087.61,7410.82C7088.18,7412 7086.49,7412.9 7087.61,7413.28C7087.84,7412.09 7088.25,7413.9 7088.84,7413.69C7088.72,7412.44 7088.9,7410.89 7087.61,7410.82ZM7024.64,7412.46C7025.19,7413.79 7028.41,7414.28 7028.73,7412.46C7027.97,7412.07 7027.36,7413.68 7027.09,7412.46C7027.21,7411.84 7028.85,7410.74 7027.91,7410.41C7027.04,7411.32 7024.44,7410.48 7024.64,7412.46ZM7029.14,7411.23C7029.32,7412.41 7030,7413.1 7031.18,7413.28C7031.4,7412.38 7032.17,7410.63 7030.77,7410.41C7031.19,7411.65 7029.86,7411.14 7029.14,7411.23ZM7068.39,7410.82C7069.2,7412.27 7068.92,7411.63 7068.39,7413.28C7070.22,7413.14 7071.92,7410.66 7069.21,7410.41C7069.12,7410.73 7068.87,7410.89 7068.39,7410.82ZM7063.89,7410.82C7066.47,7410.37 7065.96,7411.77 7065.12,7412.87C7067.47,7413.04 7066.49,7409.87 7068.39,7409.6C7066.53,7409.64 7064.83,7409.85 7063.89,7410.82ZM7055.72,7412.87C7056.68,7412.88 7056.92,7412.16 7058.17,7412.46C7057.94,7411.86 7058.65,7410.35 7057.76,7410.41C7057.03,7411.18 7056.3,7411.95 7055.72,7412.87ZM6996.02,7412.87C6995.97,7412.13 6996.42,7411.91 6997.24,7412.05C6997.31,7410.9 6996.09,7411.02 6995.61,7410.41C6995.05,7410.94 6994.9,7412.86 6996.02,7412.87ZM6987.02,7409.6C6987.01,7409.03 6987.22,7408.7 6987.43,7408.37C6984.34,7409.18 6988.43,7410.06 6988.25,7411.64C6989.25,7411.41 6990.35,7411.29 6990.29,7410.01C6987.65,7411.3 6989.83,7408.72 6988.25,7407.96C6988.36,7409.03 6988.1,7409.72 6987.02,7409.6ZM7117.46,7411.23C7117.74,7409.72 7116.02,7410.21 7115.41,7409.6C7115.49,7410.75 7116.12,7411.34 7117.46,7411.23ZM7062.67,7411.23C7062.99,7409.63 7064.79,7407.38 7064.3,7406.33C7062.84,7407.8 7061.38,7409.64 7062.67,7411.23ZM7042.63,7410.01L7041.4,7410.01C7041.31,7408.05 7039.95,7410.32 7038.95,7410.01C7039.25,7409.62 7039.69,7409.39 7040.18,7409.19C7040,7408.82 7039.82,7408.46 7039.36,7408.37C7037.81,7407.77 7039.28,7410.2 7037.73,7409.6C7037.5,7409 7038.2,7407.48 7037.32,7407.55C7038.88,7406.59 7038.25,7405.97 7038.54,7403.87C7039.83,7403.94 7039.65,7405.49 7039.77,7406.73L7043.45,7406.73C7041.95,7407.77 7040.64,7408.54 7042.63,7410.01ZM7028.73,7408.78C7030.03,7408.43 7029.99,7409.42 7030.77,7409.6C7031.24,7407.67 7029.21,7407.7 7028.73,7408.78ZM6981.3,7407.55C6982.33,7407.6 6983.62,7405.82 6984.16,7406.74C6983.84,7407.68 6984.3,7408.57 6982.93,7409.19C6984.74,7409.64 6984.97,7408.49 6986.2,7408.37C6986.1,7406.84 6985.56,7405.74 6984.57,7405.1C6983.24,7405.67 6981.86,7406.2 6981.3,7407.55ZM6968.21,7407.96C6968.82,7408.61 6970.33,7409.38 6970.26,7407.55C6969.3,7407.43 6968.5,7406.68 6968.21,7407.96ZM6974.76,7407.14C6976.95,7405.65 6976.18,7409.53 6978.03,7407.96C6977.71,7407.87 6977.22,7407.95 6977.21,7407.55C6977.71,7406.17 6976.55,7405.82 6977.62,7403.87C6976.56,7404.86 6974.6,7404.94 6974.76,7407.14ZM6967.4,7405.92C6968.05,7405.21 6968.93,7404.72 6969.85,7404.28C6969.98,7405.24 6971.12,7405.2 6971.49,7405.92C6971.48,7406.73 6970.37,7406.44 6970.67,7407.55C6971.78,7407.85 6971.49,7406.74 6972.3,7406.73C6972.52,7405.24 6970.51,7404.9 6971.49,7403.87C6972.3,7403.88 6972.01,7404.99 6973.12,7404.69C6972.8,7403.28 6973.58,7402.96 6973.94,7402.24C6971.78,7402.67 6970,7403.48 6968.22,7404.28C6967.66,7402.5 6969.8,7403.41 6969.44,7401.83C6967.88,7402.3 6965.68,7404.64 6967.4,7405.92ZM7002.56,7406.74C7003.48,7407.01 7004.61,7407.96 7005.42,7407.14C7005.53,7405.81 7004.15,7405.96 7003.79,7405.1C7004.15,7406.41 7002.44,7405.66 7002.56,7406.74ZM7064.3,7404.69C7063.1,7404.72 7062.78,7405.63 7062.26,7406.33C7063.22,7407.39 7065.2,7405.49 7064.3,7404.69ZM7106.83,7405.51C7107.45,7406.76 7104.16,7406.76 7104.78,7405.51L7106.83,7405.51ZM6980.48,7404.28L6980.48,7406.32C6981.76,7405.97 6982.74,7405.31 6983.34,7404.28C6981.65,7404.39 6981.75,7403.74 6980.48,7404.28ZM7105.19,7404.69C7106.55,7403.64 7106.96,7406.01 7107.64,7404.28C7106.83,7404.28 7107.12,7403.17 7106.01,7403.46C7105.91,7404.05 7105.34,7404.15 7105.19,7404.69ZM7038.13,7401.42C7039.62,7401.92 7041.36,7400.6 7041.81,7401.42C7042.28,7403.25 7039.67,7403.24 7040.99,7404.69C7042.88,7403.71 7043.07,7399.93 7040.99,7398.97C7040.71,7400.46 7038.5,7400.01 7038.13,7401.42ZM7009.51,7403.06C7008.52,7403.28 7007.41,7403.4 7007.47,7404.69C7008.46,7404.46 7009.57,7404.34 7009.51,7403.06ZM7062.67,7402.24C7062.43,7403.7 7063.88,7403.48 7065.12,7403.46C7063.9,7402.09 7066.47,7400.34 7064.71,7399.78C7063.67,7401.06 7064.96,7403.1 7062.67,7402.24ZM7039.77,7391.2C7042.2,7391.31 7042,7388.79 7043.45,7387.93C7042.49,7387.93 7042.24,7387.22 7041,7387.52C7040.7,7389.36 7037.09,7390.03 7039.36,7392.01C7037.83,7391.98 7038.12,7393.78 7036.09,7393.24C7037.73,7391.39 7034.26,7392.04 7034.04,7390.79C7032.54,7391.09 7031.91,7392.96 7031.18,7390.79C7030.65,7391.62 7029.2,7391.53 7029.55,7393.24C7030.48,7393.8 7031.08,7392.19 7031.18,7393.24C7030.28,7394.77 7030.52,7395.25 7031.18,7396.92C7030.21,7397.17 7030.51,7398.7 7028.73,7398.15C7028.88,7399.8 7029.61,7401.64 7028.32,7403.05C7029.31,7403.22 7029.21,7402.31 7030.36,7402.64C7029.74,7400.66 7031.55,7401.11 7031.59,7399.78C7030.53,7400.03 7030.12,7399.62 7030.36,7398.56C7032.31,7399.35 7031.95,7399.11 7034.04,7398.56C7033.94,7399.82 7032.57,7399.81 7032,7400.6C7033.79,7400.95 7034.78,7399.72 7035.27,7401.01C7035.5,7400.38 7037.54,7399.51 7036.09,7398.56C7035.82,7399.11 7035.22,7399.32 7034.45,7399.37L7034.45,7397.74C7037.35,7397.91 7039.76,7397.59 7042.22,7397.33C7042.25,7395.46 7041.02,7396.51 7040.18,7396.92C7037.99,7394.98 7042.26,7392.95 7039.77,7391.2ZM7061.44,7398.97C7064,7398.68 7061.36,7401.04 7063.07,7401.42C7063.32,7400.57 7063.94,7400.1 7064.3,7399.37C7061,7399.92 7064.9,7395.91 7062.26,7396.92C7063.22,7396.93 7062.11,7398.04 7061.44,7397.74C7061.35,7396.97 7061.9,7396.84 7061.85,7396.1C7059.95,7396.14 7061.76,7397.96 7061.44,7398.97ZM7111.32,7375.66C7111.12,7374.37 7113.35,7375.51 7112.96,7374.02C7111.2,7374.45 7111.38,7374.26 7110.1,7373.61C7110.07,7373.86 7110.03,7374.1 7109.69,7374.02L7109.69,7374.84C7109.81,7375.55 7111.11,7374.31 7110.91,7376.07C7107.94,7375.02 7107.11,7377.06 7103.96,7376.89C7103.32,7375.62 7102.75,7374.28 7101.92,7373.2C7102.73,7372.92 7103.01,7372.11 7103.15,7371.16C7102.77,7370.45 7103.16,7368.97 7101.92,7369.12C7101.76,7370.18 7101.71,7371.36 7101.1,7371.98C7099.97,7371.88 7100.17,7370.46 7099.47,7369.93C7098.1,7370.34 7097.69,7371.7 7096.19,7371.98C7095.73,7370.94 7095.51,7369.66 7094.56,7369.12C7093.47,7369.99 7091.54,7370.05 7090.88,7368.71C7091.18,7365.96 7090.19,7363.94 7088.84,7361.35C7088.77,7361.82 7088.19,7361.79 7087.61,7361.76C7087.44,7363.43 7088.95,7363.41 7088.43,7365.44C7087.41,7365.92 7086.02,7366.03 7084.75,7366.25C7084.3,7364.99 7085.21,7363.61 7083.11,7363.39C7082.3,7365.15 7082.33,7367.06 7080.25,7368.3C7079.95,7367.18 7081.06,7367.48 7081.07,7366.66C7079.61,7366.57 7078.93,7367.25 7079.02,7368.71C7080.11,7369.19 7081.43,7367.92 7081.47,7368.71C7080.28,7369.06 7081.01,7369.32 7081.07,7370.34C7079.48,7370.53 7078.58,7371.4 7078.61,7373.2C7078.74,7373.93 7080.78,7374.81 7079.43,7375.66C7078.79,7375.07 7078.62,7374.01 7076.98,7374.43C7076.72,7375.95 7075.05,7376.05 7074.93,7377.7C7076.81,7376.68 7077.18,7379.14 7079.84,7378.52C7079.89,7377.48 7080.43,7376.94 7081.47,7376.89C7082.55,7378.23 7083.81,7377.19 7085.97,7377.7C7086.04,7378.86 7086.72,7379.41 7086.79,7380.57C7086.03,7380.89 7085.29,7381.25 7084.34,7381.38C7083.61,7381.02 7083.14,7380.4 7082.29,7380.16C7081.95,7381.92 7080.61,7382.02 7079.43,7380.97C7079.25,7383.39 7077.3,7382.18 7075.75,7381.79C7074.03,7382.79 7076.59,7384 7075.34,7385.47C7076.59,7385.18 7076.83,7385.89 7077.8,7385.88C7078.56,7384.03 7076.17,7385.32 7076.57,7383.84L7079.43,7383.84C7079.79,7385.31 7081.37,7386.37 7079.84,7387.52C7080.77,7387.4 7081.38,7387.61 7081.47,7388.33C7081.99,7389.84 7078.39,7389.3 7079.84,7390.38C7082.14,7389.15 7082.7,7393.08 7082.7,7394.47C7084.75,7394.32 7085.27,7395.72 7085.97,7396.92C7086.86,7396.07 7085.77,7395.75 7085.97,7394.47L7087.61,7394.47C7087.82,7398.02 7091.64,7395.44 7093.74,7396.92C7093.78,7396.28 7093.69,7395.5 7094.56,7395.69C7093.85,7395.94 7094.59,7397.63 7093.74,7397.74C7092.66,7397.74 7091.33,7397.51 7091.29,7398.56C7093.32,7398.68 7095.18,7398.63 7095.78,7397.33C7096.73,7398.02 7097.53,7398.86 7099.06,7398.97C7099.42,7397.37 7099.04,7395.72 7100.28,7394.47C7099.55,7393.19 7098.68,7394.6 7097.83,7393.65C7098.1,7393.1 7098.7,7392.89 7099.47,7392.83C7100.78,7393.85 7101.21,7394.14 7100.28,7395.69C7101.52,7394.51 7103.31,7394.23 7104.78,7394.88C7104.37,7395.69 7104.07,7396.62 7103.15,7396.92C7102.24,7396.74 7100.93,7395.98 7100.69,7397.33C7101.71,7398.3 7103.1,7397.33 7104.37,7397.33C7103.28,7398.67 7105.34,7398.31 7104.37,7399.78C7105.64,7399.36 7106.25,7402.27 7107.23,7400.19C7107.11,7399.34 7106.13,7400.8 7106.01,7399.37C7106.75,7398.07 7108.72,7397.22 7107.64,7395.28C7108.19,7395.35 7109.16,7393.91 7109.28,7394.88C7109.34,7395.89 7108.64,7396.14 7108.46,7396.92C7109.06,7397.14 7110.57,7396.44 7110.51,7397.33C7110.07,7398.12 7108.62,7397.9 7108.05,7398.56C7108.9,7398.66 7108.16,7400.35 7108.87,7400.6C7111.32,7400.03 7110.1,7397.77 7111.32,7396.51C7112.34,7396.45 7112.59,7397.15 7113.37,7397.33C7114.45,7396.43 7113.06,7394.61 7113.78,7394.06C7111.56,7394.85 7111.36,7393.4 7109.28,7394.06C7109.4,7393.81 7110.3,7392.48 7109.28,7392.42C7109.16,7393.26 7108.19,7393.24 7107.64,7393.65C7104.96,7392.65 7105.02,7388.91 7102.74,7387.52C7101.62,7384.75 7106.1,7385.45 7104.78,7383.84C7103.15,7385.17 7102.2,7382.35 7101.1,7381.79C7102.25,7380.75 7104.11,7378.27 7106.01,7379.34C7104.68,7379.73 7105.67,7383.8 7107.23,7382.61C7106.66,7385.59 7108.06,7384.18 7108.87,7385.47C7108.49,7385.91 7107.36,7385.6 7107.64,7386.7C7107.97,7387.74 7110.15,7386.92 7110.1,7388.33C7112.38,7388.7 7111.03,7385.45 7112.55,7385.06C7113.7,7385.72 7116.74,7385.14 7116.23,7383.84C7115.88,7384.44 7114.91,7384.43 7114.19,7384.65C7112.74,7383.12 7110.8,7381.24 7109.28,7380.97C7109.4,7378.79 7111.14,7378.38 7112.96,7378.93C7113.01,7376.49 7114.54,7377.34 7115.41,7377.3C7114.44,7375.97 7112.59,7375.69 7111.73,7377.3C7111.57,7376.14 7113.59,7375.55 7111.32,7375.66ZM7054.49,7392.01C7052.77,7392.54 7054.12,7394 7052.85,7394.47C7051.89,7394.48 7051.65,7393.76 7050.4,7394.06C7050.22,7393.28 7050.96,7391.59 7049.58,7392.01C7050.36,7393.48 7049.47,7394.61 7047.95,7394.88C7046.14,7393.89 7047.31,7392.47 7045.49,7391.61C7045.86,7390.89 7047,7390.93 7047.13,7389.97C7045.6,7391.25 7043.79,7389.92 7042.22,7390.79C7042.99,7391.74 7043.73,7392.8 7044.27,7394.88C7045.53,7395.18 7045.05,7393.75 7046.31,7394.06C7047.06,7396.59 7044.83,7398.28 7045.49,7399.37C7045.08,7398.15 7046.4,7398.65 7047.13,7398.56C7045.97,7396.54 7048,7395.74 7049.58,7395.28C7049.74,7396.24 7048.97,7399.49 7049.58,7400.6C7049.93,7399.04 7051.13,7398.33 7052.44,7397.74C7052.96,7397.91 7053.28,7398.27 7053.26,7398.97C7054.59,7397.98 7056.99,7398.06 7057.76,7396.51C7055.78,7395.93 7054.79,7396.48 7052.85,7396.51C7053.37,7395.24 7054.96,7392.91 7054.49,7392.01ZM6998.47,7399.78C7001.07,7400.34 7001.91,7400.91 7001.33,7397.74C6999.75,7397.91 6999.88,7398.19 6998.88,7397.33C6998.34,7398.19 6999.08,7398.54 6998.47,7399.78ZM7024.23,7394.06C7025.28,7391.28 7024.69,7396.73 7025.87,7394.88C7025.55,7394.79 7025.39,7394.53 7025.46,7394.06L7026.28,7394.06C7026.47,7392.78 7025.77,7392.39 7025.05,7392.01C7024.73,7392.43 7023.09,7393.53 7024.23,7394.06ZM7057.76,7394.88C7058.86,7394.32 7059.35,7393.44 7060.62,7394.06C7060.44,7393.15 7059.9,7392.6 7058.99,7392.42C7059.56,7393.98 7056.01,7393.49 7057.76,7394.88ZM7061.03,7394.06C7062.32,7394.26 7061.96,7392.8 7063.49,7393.24C7063.13,7393.96 7062.11,7394.51 7063.49,7394.88C7064.07,7394.24 7064.34,7393.28 7064.71,7392.42C7063.08,7391.58 7061.86,7392.94 7061.03,7394.06ZM7015.24,7392.01C7016.76,7391.86 7015.99,7393.98 7017.28,7394.06C7017.41,7393.51 7017.86,7393.28 7017.69,7392.42C7016.09,7392.94 7016.32,7391.31 7016.87,7390.79C7015.85,7390.72 7015.59,7391.42 7015.24,7392.01ZM7010.33,7392.83C7011.59,7393.14 7011.11,7391.71 7012.37,7392.01C7011.98,7393.64 7013.56,7393.28 7014.42,7393.65C7012.45,7392.12 7013.64,7392.14 7013.19,7389.56C7011.44,7389.85 7010.31,7390.77 7010.33,7392.83ZM7064.3,7387.93C7062.54,7387.68 7062.67,7386.86 7063.49,7385.47C7062.23,7385.18 7062.28,7386.18 7061.03,7385.88C7061.6,7385.63 7061.09,7384.31 7061.85,7384.24C7062.55,7384.99 7063.46,7384.12 7063.49,7383.02C7063.12,7382.3 7061.82,7382.5 7062.26,7380.98C7060.21,7380.86 7059.22,7385.16 7057.35,7382.61C7058.13,7382.44 7058.09,7381.44 7059.4,7381.79C7059.83,7380 7058.01,7380.45 7058.17,7378.93C7058.64,7377.77 7060.1,7377.59 7060.62,7376.48C7062.93,7376.6 7063.08,7377.11 7065.53,7376.89C7064.3,7375.44 7066.75,7374.52 7067.16,7376.07C7066.27,7376.13 7066.29,7377.1 7066.35,7378.11C7068.09,7377.13 7067.87,7377.54 7069.21,7378.52C7069.76,7378.12 7070.03,7377.43 7070.44,7376.89C7069.05,7376.41 7069.79,7376.07 7067.98,7376.48C7068.42,7374.95 7066.97,7375.31 7067.16,7374.02C7063.58,7374.23 7062.08,7375.21 7059.4,7374.02C7059.65,7371.91 7057.12,7372.12 7058.58,7369.94C7056.53,7370.07 7057.56,7373.28 7056.12,7374.02C7057.52,7374.4 7057.02,7376.68 7058.17,7377.3C7057.61,7377.31 7057.27,7377.1 7056.94,7376.89C7057.37,7377.82 7057.2,7379.35 7057.76,7380.16C7054.79,7380.95 7056.16,7383.56 7054.49,7385.47C7054.76,7388.04 7059.08,7389.6 7061.03,7387.93C7059.9,7389.05 7061.4,7389.63 7061.44,7390.79C7060.72,7390.9 7059.4,7389.64 7058.99,7390.79C7059.99,7391.15 7061.21,7391.29 7061.44,7392.42C7063.78,7392.09 7064.39,7389.54 7064.3,7387.93ZM7038.95,7388.33C7038.36,7388.56 7036.84,7387.86 7036.91,7388.74C7037.62,7389.25 7035.86,7390.42 7036.91,7391.61C7038.57,7390.4 7038.77,7387.74 7040.99,7387.11C7041.08,7385.66 7039.08,7386.3 7039.36,7384.65C7039.74,7384.9 7040.87,7385.61 7040.59,7384.24C7039.21,7384.2 7038.42,7383.43 7037.72,7384.65C7038.36,7384.76 7038.01,7385.55 7037.72,7385.88C7038.91,7385.37 7039.59,7385.67 7039.77,7387.11C7037.57,7386.69 7038.78,7386.46 7038.95,7388.33ZM7016.46,7389.97C7016.51,7390.87 7018.2,7390.14 7018.92,7390.38C7019.56,7388.97 7016.18,7388.44 7016.46,7389.97ZM7043.86,7389.56C7044.67,7390.24 7044.38,7389.53 7045.49,7389.56C7045.82,7387.99 7043.54,7387.99 7043.86,7389.56ZM7072.07,7388.33C7071.61,7388.25 7071.43,7387.88 7071.25,7387.52C7070.23,7387.72 7069.57,7388.29 7068.8,7388.74C7069.38,7388.84 7069.49,7389.42 7070.03,7389.56C7070.64,7388.56 7071.73,7388.67 7072.07,7388.33ZM7032.41,7382.2C7032.4,7383.85 7033.05,7384.83 7034.05,7385.47C7033.46,7385.7 7033.05,7386.11 7032.82,7386.7C7035.74,7388.32 7035.12,7383.03 7037.32,7383.84C7036.8,7383.26 7035.16,7383.81 7035.68,7382.2C7036.7,7382.25 7036.96,7382.98 7037.32,7381.79C7035.79,7381.52 7033.63,7381.1 7032.41,7382.2ZM7044.27,7384.24C7044.74,7383.5 7045.34,7382.86 7045.9,7382.2C7047.84,7382.99 7047.73,7385.83 7049.58,7386.7C7050.96,7386.04 7048.3,7385.4 7049.58,7384.65C7050.36,7384.56 7050.49,7385.11 7051.22,7385.06C7050.89,7383.1 7053.44,7384.02 7053.67,7382.61C7052.43,7382.35 7050.15,7383.13 7049.58,7382.2C7051.12,7380.97 7049.39,7379.66 7049.99,7378.52C7051.56,7380.08 7053.13,7379.83 7054.9,7380.57C7054.47,7379.41 7054.47,7378.86 7054.9,7377.7C7053.22,7377.29 7055.07,7375.71 7053.67,7374.84C7053.36,7373.8 7056.47,7374.15 7054.9,7373.2C7054.55,7374.4 7053.58,7372.96 7052.85,7373.2C7051.95,7373.8 7053.09,7376.44 7051.63,7376.48C7049.24,7375.45 7045.99,7378.12 7044.27,7376.48C7044.97,7378.43 7042.63,7379.44 7043.86,7380.57C7044.15,7378.52 7047.23,7376.71 7048.36,7378.93C7047.13,7379.86 7046.12,7380.39 7044.27,7379.75C7046,7381.3 7043.66,7383.09 7044.27,7384.24ZM6998.88,7385.88C6999.78,7386.25 7002.21,7387.64 7002.15,7385.47C7001.67,7385.41 7000.99,7385.54 7000.93,7385.06C7001.4,7384.99 7001.37,7384.42 7001.33,7383.84C7000.01,7384.01 6999.71,7385.21 6998.88,7385.88ZM7070.03,7384.24C7069.9,7385.19 7070.09,7385.81 7070.44,7386.29C7071.44,7385.56 7073.21,7387.22 7073.3,7385.06C7071.52,7385.62 7071.82,7384.09 7070.84,7383.84C7070.75,7384.15 7070.5,7384.31 7070.03,7384.24ZM7119.09,7384.24C7119.6,7386.4 7120.38,7384.53 7121.95,7384.65L7121.95,7383.84C7121.54,7383.84 7121.47,7383.51 7121.14,7383.43C7121.08,7384.32 7120.11,7384.31 7119.09,7384.24ZM6953.9,7383.84C6954.96,7383.93 6955.87,7385.95 6956.36,7384.24C6953.9,7384.36 6956.82,7381.62 6954.72,7381.38C6954.92,7382.67 6953.47,7382.31 6953.9,7383.84ZM7042.63,7384.24C7041.78,7383.17 7040.16,7380.73 7038.95,7381.38C7040.2,7381.78 7038.48,7382.47 7038.54,7383.02C7040.51,7383.47 7041.16,7383.03 7042.63,7384.24ZM6975.17,7380.57C6975.36,7380.08 6975.6,7379.64 6975.98,7379.34C6976.06,7380.63 6978.19,7379.86 6978.03,7381.38C6976.78,7381.68 6976.82,7380.68 6975.57,7380.98C6975.36,7381.99 6974.58,7382.43 6973.94,7383.02C6976.39,7383.2 6977.18,7382.03 6977.21,7383.84C6977.28,7383.36 6977.86,7383.39 6978.44,7383.43C6977.94,7380.8 6980.28,7378.36 6978.44,7376.89C6978.37,7377.36 6977.79,7377.33 6977.21,7377.3C6977.26,7376.28 6977.98,7376.03 6977.21,7375.25C6975.36,7375.03 6974.54,7375.85 6974.76,7377.7C6975.35,7377.93 6976.87,7377.23 6976.8,7378.11C6976.48,7378.91 6973.74,7379.38 6975.17,7380.57ZM7007.06,7378.93C7006.82,7378.08 7006.05,7377.76 7006.24,7376.48C7004.36,7376.3 7003.09,7376.17 7001.33,7376.89C7002.01,7378.61 7000.61,7381.4 7002.97,7383.84C7003.05,7383.23 7003.96,7383.46 7004.61,7383.43C7004.73,7382.62 7004.05,7382.62 7003.79,7382.2C7003.89,7381.48 7004.49,7381.27 7005.42,7381.38C7004.67,7382.86 7006.45,7383.4 7007.88,7383.84C7006.04,7381.56 7009.87,7380.34 7006.65,7380.16C7007.47,7379.39 7007.3,7378.67 7008.69,7379.34C7008.67,7377.61 7007.76,7378.37 7007.06,7378.93ZM6942.05,7383.43C6939.96,7382.89 6941.97,7382.18 6941.23,7381.38C6940.62,7382 6939.4,7382 6939.59,7383.43C6940.25,7384.08 6943.06,7383.53 6942.05,7383.43ZM7126.45,7383.02C7128.03,7381.83 7128.07,7384.48 7129.32,7383.43C7129.71,7382.18 7126.31,7381.42 7126.45,7383.02ZM7018.1,7379.34C7018.06,7380.39 7016.57,7380 7016.05,7380.57C7016.45,7381.8 7017.27,7382.62 7018.51,7383.02C7018.59,7382.5 7019.69,7381.02 7018.91,7380.98C7016.59,7382.3 7019.21,7379.91 7018.1,7379.34ZM6989.48,7382.2C6989.75,7381.22 6991.92,7380.05 6992.75,7380.97C6993.69,7381.25 6990.37,7380.7 6990.7,7382.61C6990.36,7382.69 6990.32,7382.45 6990.29,7382.2L6989.48,7382.2ZM7124.41,7382.61C7125.56,7382.67 7125.59,7381.61 7125.63,7380.57C7125.03,7379.67 7124.39,7378.81 7124.41,7377.3C7122.92,7377.05 7122.79,7380.28 7123.59,7380.98C7123.52,7380.08 7123.92,7379.67 7124.82,7379.75C7125.61,7381.21 7124.66,7381.25 7124.41,7382.61ZM6937.14,7379.75C6937.12,7379.5 6937.08,7379.26 6936.73,7379.34C6936.6,7380.7 6938.74,7379.78 6937.96,7381.79C6939.49,7381.82 6940.3,7381.14 6940.82,7380.16C6938.76,7379.89 6939.75,7377.36 6940.82,7376.89C6938.59,7376.84 6938.93,7379.36 6937.14,7379.75ZM6933.46,7379.34C6934.99,7379.03 6934.35,7380.9 6935.5,7380.98C6935.39,7379.28 6936.04,7379.38 6935.5,7378.11C6934.59,7378.28 6934.2,7378.99 6933.46,7379.34ZM7022.19,7380.98C7022.95,7380.92 7023.55,7380.7 7023.82,7380.16C7023.19,7380.05 7023.54,7379.26 7023.82,7378.93C7022.67,7379.01 7022.08,7379.64 7022.19,7380.98ZM7037.72,7373.61C7036.34,7375.84 7038.16,7378.34 7038.95,7379.75C7036.82,7379.53 7035.26,7379.87 7034.04,7380.57C7034.23,7378.5 7034.39,7377.39 7034.04,7376.07C7033.06,7377.4 7029.72,7376.38 7030.36,7379.34C7029.76,7378.99 7029.49,7378.31 7029.55,7377.3C7030.21,7377.41 7030.25,7376.91 7030.77,7376.89C7030.52,7375.52 7029.57,7375.49 7030.36,7374.02C7029.21,7373.95 7029.41,7375.56 7028.32,7374.43C7027.67,7375.01 7027.28,7375.84 7027.09,7376.89C7025.23,7376.3 7023.79,7375.29 7021.78,7374.84C7021.44,7373.69 7022.35,7373.78 7022.19,7372.8C7022.8,7373.41 7023.91,7373.53 7024.23,7374.43C7025.32,7374.16 7025.73,7373.2 7026.28,7372.39C7028.35,7372.56 7028.68,7373.64 7030.77,7372.39C7030.44,7373.54 7031.35,7373.45 7031.18,7374.43C7032.38,7374.4 7032.7,7373.5 7033.23,7372.8C7033,7371.66 7031.65,7371.65 7030.77,7371.16C7030.93,7369.91 7029.7,7369.08 7031.18,7368.71C7031.09,7368.19 7029.96,7368.17 7029.95,7368.71C7028.73,7368.44 7030.35,7367.83 7029.95,7367.07C7031.38,7367.57 7031.51,7368.06 7032.82,7367.07C7031.89,7365.22 7032.71,7363.44 7030.36,7362.57C7029.89,7362.64 7030.02,7363.32 7029.95,7363.8C7029.27,7362.53 7028.26,7360.97 7026.28,7362.17C7026.42,7360.13 7028.64,7360.16 7028.73,7358.08C7028.66,7357.6 7027.98,7357.73 7027.5,7357.67C7026.4,7359.02 7026.46,7361.53 7024.64,7362.17C7024.4,7361.45 7025.13,7359.76 7024.23,7359.71C7024.51,7358.9 7025.48,7358.78 7025.87,7358.08C7025.39,7357.82 7024.8,7357.87 7024.23,7356.85C7023.28,7356.99 7022.32,7357.11 7022.6,7358.49C7022.74,7359.06 7023.32,7358.52 7023.41,7358.08C7024.22,7359.99 7021.94,7362.97 7020.55,7365.03C7019.44,7364.6 7017.64,7364.83 7017.69,7366.66C7016.37,7366.75 7015.96,7365.94 7014.42,7366.25C7015.1,7367.58 7015.46,7367.57 7014.01,7368.3C7014.09,7368.63 7014.42,7368.71 7014.42,7369.12C7015.09,7367.74 7017.49,7368.1 7018.91,7367.48C7017.47,7366.73 7018.9,7366.46 7019.32,7365.44C7021.22,7366.22 7022.34,7366.22 7024.23,7365.44C7022.4,7364.25 7023.93,7363.82 7023.41,7362.17C7024.63,7363.4 7025.92,7364.57 7025.87,7367.07C7024.33,7366.21 7024.42,7367.28 7023.41,7367.89C7023.59,7368.69 7024.58,7367.22 7024.23,7369.12C7022.94,7369.31 7022.63,7368.53 7021.78,7368.3C7020.49,7368.1 7020.85,7369.55 7019.32,7369.12C7019.95,7370.1 7021.72,7369.32 7021.78,7369.94C7018.54,7371.88 7015.27,7369.37 7012.37,7372.8C7011.68,7371.27 7012.61,7372.15 7012.78,7370.75C7011.55,7371.29 7010.26,7371.77 7009.92,7373.2C7008.02,7371.5 7008.56,7373.79 7008.28,7376.07C7006.52,7375.93 7005.42,7375.11 7005.42,7373.2C7006.44,7373.16 7006.69,7372.44 7007.47,7373.2C7008.35,7373.28 7007.65,7371.76 7007.88,7371.16C7006.23,7371.45 7006.05,7368.53 7003.38,7367.89C7002.45,7368.12 7003.87,7368.53 7002.97,7369.12C7001.69,7368.9 7002.28,7366.81 7000.93,7366.66C7002.31,7365.15 7000.84,7365.18 7000.93,7362.98C6999.77,7362.65 6999.86,7363.56 6998.88,7363.39C6999.48,7364.63 6999.75,7364.54 6998.88,7365.85C6997.8,7364.69 6996.98,7365.4 6996.43,7364.21C6995.35,7364.5 6995.62,7366.13 6994.79,7366.66C6992.45,7365.72 6992.51,7367.32 6989.88,7366.66C6991.95,7364.5 6995.59,7366.18 6996.43,7362.57C6996.14,7361.55 6995.34,7363.33 6994.38,7362.98C6994.87,7362.52 6994.54,7361.95 6994.38,7362.57C6993.22,7362.03 6994.7,7360.76 6994.79,7360.12C6997.46,7359.87 6997.96,7361.81 6998.88,7359.3C7000.08,7359.65 6998.64,7360.62 6998.88,7361.35C7002.89,7362.61 7004.35,7368.71 7009.51,7365.44C7009.24,7367.07 7008.14,7367.89 7007.47,7369.12C7007.54,7369.45 7007.88,7369.53 7007.88,7369.94C7008.53,7370.05 7008.58,7369.55 7009.1,7369.53C7007.88,7367.88 7009.19,7368.89 7009.51,7367.07C7010.35,7367.19 7010.33,7368.16 7010.74,7368.71C7011.47,7368.76 7011.6,7368.21 7012.37,7368.3C7011.23,7366.73 7012.21,7367.41 7012.78,7365.85C7012.91,7365.02 7011.6,7365.93 7011.56,7366.25C7009.5,7365.53 7011.79,7363.62 7010.33,7363.39C7010.61,7361.9 7011.96,7363.48 7013.6,7362.98C7012.96,7360.88 7011.8,7360.69 7012.37,7358.49C7011.96,7358.75 7011.95,7359.43 7011.15,7359.3C7010.74,7356.75 7014.1,7355.84 7012.37,7354.4C7011.65,7354.76 7011.85,7356.06 7010.33,7355.62C7011.06,7354.58 7009.88,7353.63 7011.15,7352.76C7010.44,7352.1 7008.8,7352.38 7009.1,7350.72C7011.62,7352.73 7010.03,7345.47 7007.47,7346.22C7007.77,7345.84 7008.21,7345.6 7008.69,7345.4C7008.56,7343.95 7007.57,7344.4 7008.28,7342.95C7007.3,7343.32 7007.2,7344.59 7007.06,7345.81C7005.52,7343.24 7004.75,7346.5 7001.74,7345.81C7001.29,7347.13 7000.89,7348.5 7000.52,7349.9C6999.19,7349.66 6998.61,7350.18 6997.65,7350.31C6997.45,7348.33 6999.64,7348.75 7000.52,7347.86C7000.38,7345.89 7001.65,7344.35 6999.7,7343.77C6998.65,7344.08 6997.97,7344.76 6997.65,7345.81C6996.65,7345.55 6997.59,7343.9 6998.06,7343.77C6996.94,7341.62 6991.65,7342.48 6990.29,7343.77C6990.77,7345.36 6990.53,7348.6 6989.48,7349.9C6989.46,7350.6 6989.78,7350.96 6990.29,7351.13C6991.18,7351.2 6990.48,7349.68 6990.7,7349.08C6991.44,7349.13 6991.57,7348.58 6992.34,7348.67C6992.18,7350.59 6992.09,7350.03 6991.93,7351.94C6992.18,7353.79 6994.54,7351.15 6994.38,7353.58C6992.77,7353.69 6991.54,7353.42 6991.11,7352.35C6990.08,7354.91 6987.86,7351.46 6987.02,7353.99C6987.4,7352.2 6987.1,7348.68 6989.88,7347.86C6989.94,7346.85 6989.95,7345.89 6989.48,7345.4C6987.47,7345.34 6987.06,7347.52 6987.84,7349.08C6986.82,7349.01 6986.56,7349.71 6986.2,7350.31C6985.95,7350.08 6984.97,7348.65 6984.57,7349.9C6983.9,7349.85 6985.62,7347.17 6984.16,7348.26C6984.47,7346.93 6985.36,7342.66 6988.66,7342.95C6988.33,7340.61 6986.31,7343.72 6985.8,7342.54C6986.12,7341.64 6987.72,7342.01 6987.84,7340.9C6988.87,7342.34 6991.17,7341.61 6991.93,7340.5C6991.5,7338.95 6990.87,7338.51 6991.93,7337.22C6991.19,7336.6 6990.68,7335.75 6989.07,7336C6990.27,7333.93 6991.36,7331.75 6993.15,7330.27C6992.18,7328.93 6991.95,7331.76 6990.29,7331.09C6989.96,7329.53 6991.16,7329.51 6991.93,7329.05C6991.72,7327.3 6987.57,7327.27 6987.84,7329.45C6987.55,7330.12 6989.77,7330.12 6989.48,7329.45C6990.82,7330.56 6988.78,7331.05 6988.66,7331.09C6988.25,7332.32 6989.57,7331.82 6990.29,7331.91C6988.53,7332.91 6989.12,7336.09 6987.43,7336C6985.71,7336.07 6987.44,7335.37 6987.43,7334.77C6987.35,7334.44 6987.02,7334.36 6987.02,7333.95C6985.47,7334.17 6984.76,7335.23 6982.93,7335.18C6983.21,7334.23 6984.29,7334.09 6984.57,7333.14C6983.5,7330.7 6980.14,7332.99 6979.25,7330.27C6979.73,7328.27 6981.99,7327.85 6981.71,7326.18C6982.32,7326.8 6982.94,7327.41 6983.75,7327.82C6983.17,7329.09 6983.82,7330.46 6985.39,7330.68C6986.85,7330.34 6985.22,7329.25 6986.61,7328.64C6986.56,7327.74 6984.88,7328.46 6984.16,7328.23C6985.31,7326.92 6987.37,7326.53 6988.66,7325.37C6988.78,7324.29 6987.07,7325.05 6987.43,7323.73C6989.38,7323.9 6990.38,7323.14 6991.93,7322.91C6991.19,7322.03 6990.77,7321.47 6992.75,7321.69C6993.15,7320.2 6990.76,7321.5 6991.52,7319.64C6993,7320.47 6993.5,7319.6 6994.79,7319.23C6994.51,7320.49 6994.51,7320.02 6994.79,7321.28C6994.03,7321.33 6993.43,7321.55 6993.15,7322.1C6994.9,7321.83 6994.35,7323.95 6993.57,7325.37C6995.12,7325.95 6995.98,7325.22 6994.79,7327.41C6996.75,7327.59 6996.58,7325.66 6998.06,7325.37C6998.98,7325.05 6999.37,7327.25 7000.11,7325.78C7000.65,7325.47 6999.62,7328.57 7000.93,7327C7001.32,7327.01 7001.24,7327.5 7001.33,7327.82L7001.33,7328.64C7000.02,7327.28 6998.27,7328.32 6998.47,7330.68C6996.94,7330.72 6995.16,7330.99 6995.61,7329.05C6996.77,7328.98 6998.41,7329.4 6998.47,7328.23C6998.39,7327.9 6998.06,7327.82 6998.06,7327.41C6996.16,7328.12 6995.59,7329.06 6994.38,7329.86C6994.6,7330.47 6994.99,7330.9 6995.2,7331.5C6996.49,7330.87 6997.48,7331.24 6998.47,7331.91C6998.52,7332.64 6997.97,7332.77 6998.06,7333.54C6998.44,7334.66 6998.82,7332.45 7000.11,7333.14C6999.12,7334.24 7001.37,7334.59 7000.93,7336.41C7000.07,7334.74 6998,7336.52 6998.06,7334.36C6997.11,7334.23 6996.49,7334.43 6996.02,7334.77C6996.39,7335.76 6997.66,7335.85 6998.88,7336C6998.98,7337.73 6997.15,7337.54 6997.24,7339.27C6996.19,7338.41 6997.18,7335.51 6994.79,7336C6994.92,7335.03 6996.21,7335.24 6996.02,7333.95C6995.09,7334.93 6992.53,7334.28 6991.93,7335.59C6991.99,7336.76 6993.63,7336.34 6994.79,7336.41C6994.98,7337.68 6993.76,7337.87 6993.15,7337.22C6993.27,7338.75 6994.4,7339.26 6994.38,7340.9C6998.1,7341.5 7001.81,7341.4 7003.79,7337.63C7002.8,7337.82 7001.47,7338.62 6998.88,7338.45C6998.83,7336.49 7001.75,7337.5 7001.74,7335.59C7002.56,7335.59 7002.26,7336.7 7003.38,7336.41C7004.92,7335.57 7003.31,7333.97 7004.6,7332.73C7003.41,7333.03 7002.6,7333.72 7001.74,7334.36C7001.33,7334.1 7001.32,7333.42 7000.52,7333.54C7000.53,7332.31 7002.25,7331.18 7000.11,7331.09C7000.68,7329.58 7001.52,7329.93 7002.15,7331.09C7004.56,7331.46 7003.89,7328.74 7005.83,7328.64C7006.7,7329.47 7005.72,7330.26 7005.42,7331.09C7006.53,7332.2 7006.44,7330.03 7007.88,7330.27C7006.75,7331.37 7008.36,7331.16 7008.28,7332.32C7007.43,7332.49 7007.2,7332.04 7006.65,7331.91C7005.76,7331.84 7006.46,7333.36 7006.24,7333.95C7007.83,7334.04 7008.81,7333.52 7009.1,7332.32C7009.83,7333.25 7009.97,7334.48 7009.51,7335.59C7011.23,7335.26 7011.93,7333.91 7012.78,7332.73C7013.98,7332.62 7014.19,7333.5 7014.83,7333.95C7016.18,7333.32 7013.34,7332.86 7014.83,7331.91C7014.76,7331.43 7014.08,7331.56 7013.6,7331.5C7013.64,7329.36 7014.09,7327.63 7016.05,7327.41C7015.31,7328.85 7016.24,7330.69 7017.28,7329.86C7018.26,7330.48 7016.63,7331.91 7015.64,7331.91C7015.29,7333.22 7016.7,7332.76 7016.87,7333.54C7016.6,7335.07 7015.36,7336.07 7014.42,7334.77C7013.48,7336.94 7015.2,7336.04 7015.24,7338.04C7017.05,7337.95 7017.94,7336.93 7018.51,7335.59C7020.4,7335.33 7021.04,7336.33 7021.78,7337.22C7023.92,7336.35 7020.37,7334.45 7023,7334.36C7020.64,7333.13 7018.52,7329.65 7018.91,7327C7020.31,7327.12 7021.65,7329.43 7020.55,7330.68C7020.96,7331.23 7021.66,7331.49 7021.78,7332.32C7023.21,7331.99 7023.12,7331.17 7024.23,7332.32C7023.62,7333.68 7023.18,7334.32 7024.23,7335.59C7024.56,7335.51 7024.64,7335.18 7025.05,7335.18C7025.91,7335.07 7024.46,7334.09 7025.46,7333.54C7026.62,7333.97 7027.16,7333.97 7028.32,7333.54L7028.32,7334.77C7029.77,7333.98 7030.21,7334.31 7031.59,7333.95C7031.21,7332.09 7029.03,7334.16 7028.32,7333.14C7027.85,7331.85 7028.96,7332.14 7029.14,7331.5C7028.5,7332.14 7026.63,7330.65 7027.5,7329.05C7027.17,7328.02 7025.35,7328.48 7024.64,7327.82C7024.95,7325.95 7028.44,7327.25 7027.91,7324.55C7026.46,7324.46 7027.1,7326.47 7025.46,7326.18C7023.93,7324.3 7021.76,7325.44 7019.32,7326.18C7018.32,7325.36 7018.53,7324.28 7020.14,7324.14C7019.82,7324.5 7019.7,7325.06 7019.73,7325.78C7020.6,7325.41 7020.94,7324.53 7022.19,7324.55C7022.39,7323.26 7021.3,7322.95 7022.19,7322.1C7020.89,7320.86 7019.74,7321.74 7018.1,7321.28C7018.32,7320.55 7018.31,7319.58 7018.91,7319.23C7018.55,7318.45 7015.25,7319.47 7017.28,7320.46C7013.17,7322.52 7011.31,7325.96 7010.33,7330.27C7009.05,7330.05 7009.7,7327.9 7009.1,7327C7012.08,7326.76 7010.76,7323.84 7011.97,7322.5C7011.62,7321.62 7010.17,7321.84 7009.51,7321.28C7010.23,7320.41 7010.43,7320.07 7009.92,7318.82C7011.26,7318.16 7011.48,7318.92 7013.19,7318.82C7013.52,7318.75 7013.6,7318.41 7014.01,7318.41C7014.13,7316.44 7013.06,7315.65 7014.83,7315.15C7013.9,7313.98 7013.25,7316.54 7011.56,7315.96C7012.13,7313.94 7014.79,7314.02 7016.87,7313.51C7017.03,7315.17 7015.13,7314.77 7014.83,7315.96C7017.7,7316.45 7018.48,7317.11 7020.96,7315.55C7021.15,7316.34 7019.7,7317.31 7021.37,7317.19C7021.25,7318.02 7020.26,7317.99 7020.14,7318.82C7021.38,7320.13 7022.69,7320.41 7024.23,7322.1C7025.09,7320.91 7027.05,7320.82 7027.91,7319.64C7027.56,7318.44 7026.88,7320.17 7025.87,7319.64C7025.53,7318.49 7026.44,7318.58 7026.28,7317.6C7027.22,7318.58 7027.59,7318.22 7029.14,7318.01L7029.14,7315.15C7029.57,7315.67 7032.23,7317.68 7029.95,7317.19C7029.84,7317.85 7030.34,7317.89 7030.36,7318.41C7032.04,7317.85 7031.22,7316.91 7031.18,7315.15C7031.72,7315 7031.82,7314.42 7032.41,7314.33C7034.09,7315.88 7033.3,7313.65 7035.27,7313.51C7035.53,7315.54 7035.47,7315.25 7034.86,7316.78C7033.64,7316.51 7035.25,7315.91 7034.86,7315.15C7030.76,7316.22 7031.11,7321.75 7028.73,7324.55C7030.64,7324.55 7029.81,7321.82 7032,7322.1C7031.46,7320.83 7032.11,7320.93 7032,7319.23C7033.85,7319.86 7032.88,7317.66 7033.64,7317.19C7034.63,7317.42 7035.74,7317.54 7035.68,7318.82C7036.41,7319.07 7037.38,7317.62 7037.72,7318.82C7038.53,7318.54 7038.81,7317.73 7038.95,7316.78C7039.81,7316.61 7040.03,7317.06 7040.59,7317.19C7041.88,7315.97 7039.8,7314.54 7042.63,7313.92C7042.25,7312.75 7042.04,7309.96 7044.27,7310.24C7043.75,7312.8 7048.66,7311.65 7046.72,7314.33C7048.14,7314.65 7048.29,7313.72 7049.58,7313.92C7049.88,7315.17 7048.88,7315.12 7049.17,7316.37C7049.69,7315.66 7050.56,7315.3 7050.4,7313.92C7051.7,7314.16 7051.66,7313.15 7052.44,7313.92C7052.03,7314.73 7051.42,7315.35 7050.81,7315.96C7050.87,7316.72 7052.19,7316.21 7052.44,7316.78C7052.14,7317.51 7051.7,7316.84 7051.22,7316.78C7050.09,7317.41 7051.18,7319.24 7051.63,7319.64C7053.15,7319.24 7052.69,7318.77 7054.49,7319.23C7054.33,7321.26 7052.16,7321.27 7052.03,7323.32C7053.8,7321.89 7055.32,7323.26 7057.76,7323.32C7057.65,7324.72 7056.88,7325.45 7055.31,7325.37C7055.13,7324.51 7055.59,7324.28 7055.72,7323.73C7054.67,7323.77 7053.77,7323.96 7053.26,7324.55C7053.49,7325.47 7053.9,7324.05 7054.49,7324.96C7054.23,7326.47 7053.22,7327.24 7051.22,7327C7051.53,7326.64 7051.66,7326.08 7051.63,7325.37C7050.43,7325.26 7050.37,7326.29 7049.17,7326.18C7050.8,7327.44 7050.6,7327.3 7052.85,7328.23C7050.82,7329.52 7051.77,7331.68 7050.81,7333.54C7051.09,7334.9 7053.62,7334 7054.08,7335.18C7054.41,7335.1 7054.49,7334.77 7054.9,7334.77C7055.15,7334.12 7054.83,7334.03 7054.5,7333.96L7054.47,7333.95C7054.15,7333.87 7053.83,7333.79 7054.08,7333.14C7056.39,7331.08 7056.66,7334.1 7057.35,7332.73C7058.46,7333.1 7056.93,7334.16 7056.94,7334.77C7058.23,7337.16 7058.17,7332.93 7060.21,7333.54L7060.21,7335.59C7058.76,7335.5 7057.76,7335.86 7057.35,7336.82C7057.75,7337.96 7058.44,7336.22 7058.99,7337.22C7058.97,7339 7059.6,7339.1 7058.58,7340.09C7057.79,7340.05 7059.28,7338.49 7057.76,7338.45C7056.26,7339.98 7055.26,7338.59 7054.08,7337.63C7052.85,7338.04 7051.24,7338.06 7051.63,7340.09C7050.34,7340.28 7050.55,7338.99 7049.58,7338.86C7048.12,7338.62 7048.34,7340.07 7048.36,7341.31C7049.47,7342.79 7052.33,7342.51 7053.67,7343.77C7053.33,7345 7052.71,7347.41 7051.22,7346.22C7051.95,7348.4 7053.25,7347.19 7055.72,7347.45C7055.54,7348.3 7055.99,7348.53 7056.12,7349.08C7057.14,7349.15 7057.39,7348.44 7058.17,7348.26C7057.8,7347.55 7057.41,7346.84 7056.12,7347.04C7057.12,7345.72 7058.17,7344.45 7059.8,7343.77C7060.83,7343.7 7061.08,7344.4 7061.44,7344.99C7062.75,7344.8 7062.88,7343.44 7064.3,7343.36C7064.37,7346.97 7060.9,7347.05 7059.4,7349.08C7062.24,7349.27 7066.88,7349.65 7068.39,7353.17C7066.8,7353.23 7065.92,7356.25 7068.39,7356.03C7068.38,7355.64 7067.89,7355.72 7067.57,7355.62C7067.86,7354.34 7068.66,7355.09 7069.62,7355.22C7069.35,7354.8 7068.68,7354.79 7068.8,7353.99C7069.39,7353.08 7069.8,7354.5 7070.03,7353.58C7071.04,7353.64 7070.15,7354.96 7070.03,7355.22C7070.64,7355.36 7070.94,7355.19 7071.24,7355.02L7071.27,7355C7071.56,7354.83 7071.86,7354.66 7072.48,7354.81C7072.36,7353.74 7072.34,7352.76 7073.71,7353.17C7074.71,7354.14 7073.1,7353.93 7073.3,7355.22C7074.55,7353.8 7075.37,7354.36 7077.8,7353.99C7078.1,7352.73 7076.67,7353.2 7076.98,7351.94C7078.29,7351.59 7077.82,7353 7078.61,7353.17C7077.48,7354.62 7075.91,7355.64 7074.11,7356.44C7074,7357.1 7074.5,7357.15 7074.52,7357.67C7076.32,7358.1 7075.87,7356.29 7077.39,7356.44C7075.65,7357.96 7077.93,7358.51 7076.98,7360.53C7078.54,7360.59 7078.31,7358.86 7079.02,7358.08C7080.05,7358.68 7080.71,7359.66 7081.07,7360.94C7082.1,7360.61 7082.69,7359.84 7083.52,7359.3C7082.04,7358.62 7080.74,7358.39 7079.84,7358.08C7081.2,7356.76 7082.89,7358.23 7083.93,7356.85C7083.56,7355.73 7082.27,7357.8 7082.7,7355.62C7081.75,7356.17 7079.65,7355.57 7079.84,7357.26C7079.53,7356.62 7078.54,7356.65 7078.61,7355.62C7080.14,7355.1 7082.18,7355.1 7081.88,7352.76C7084.14,7353.39 7083.34,7350.95 7085.15,7351.13C7084.27,7352.63 7084.46,7353.16 7085.97,7353.99C7085.35,7355.07 7084.51,7357.67 7085.97,7358.49C7083.91,7359.59 7081.99,7361.03 7082.29,7363.39C7081.61,7362.36 7081.66,7361.87 7081.07,7363.39C7080.51,7363.27 7080.73,7362.37 7080.66,7361.76C7080.33,7361.97 7079.99,7362.18 7079.43,7362.17C7081.02,7364.24 7078.3,7364.65 7079.43,7367.07C7077.72,7366.61 7078.54,7363.6 7075.34,7364.62C7075.36,7360.26 7072.97,7362.88 7070.03,7362.17C7069.72,7360.5 7071.34,7360.76 7070.84,7358.9C7070.01,7358.54 7069.24,7360.54 7068.8,7358.08C7067.95,7358.18 7068.69,7359.87 7067.98,7360.12C7067.3,7358.75 7066.91,7360.06 7065.53,7360.12L7065.53,7358.08C7063.87,7358.49 7062.68,7356.84 7062.67,7358.9C7062.79,7359.45 7063.69,7359.24 7064.3,7359.3C7064.12,7359.81 7063.78,7360.14 7063.07,7360.12C7063.78,7360.82 7064.15,7360.06 7065.53,7360.53C7065.38,7361.07 7064.81,7361.17 7064.71,7361.76C7065.87,7362.09 7065.77,7361.18 7066.76,7361.35C7067.83,7362.81 7067.22,7364.32 7066.76,7366.25C7064.18,7366.44 7064.94,7363.25 7062.26,7364.62C7061.9,7363.31 7063.61,7364.06 7063.48,7362.98C7063.39,7361.36 7061.81,7361.23 7060.62,7361.76C7060.6,7362.46 7060.93,7362.82 7061.44,7362.98C7060.55,7365.1 7058.82,7361.73 7058.17,7363.8C7057.56,7363.62 7058.33,7363.28 7058.17,7362.57C7055.9,7363.04 7055.88,7365.74 7055.31,7367.89C7055.97,7366.91 7058.91,7368.22 7058.99,7366.66C7060.98,7368.05 7058.2,7369.01 7057.35,7369.94C7056.56,7368.05 7052.34,7369.86 7051.22,7367.48C7050,7367.49 7049.83,7368.54 7048.76,7368.71C7049.56,7370.23 7050.8,7371.31 7052.03,7372.39C7050.84,7374.89 7046.36,7375.88 7044.68,7374.84C7042.74,7375.77 7041.76,7377.65 7040.59,7379.34C7037.89,7378.46 7041.26,7375.39 7041.4,7376.07C7041.12,7374.75 7038.08,7375.98 7038.95,7373.61L7037.72,7373.61ZM7025.46,7378.93C7026.26,7379.05 7026.27,7378.38 7026.69,7378.11C7026.78,7378.43 7026.7,7378.92 7027.09,7378.93C7028.28,7376.7 7025.59,7377.99 7024.64,7376.89C7024.33,7378.15 7026.05,7377.39 7025.46,7378.93ZM7018.51,7378.93C7019.06,7378.41 7019.14,7376.93 7018.1,7376.89C7017.45,7377.5 7017.8,7378.56 7018.51,7378.93ZM7079.43,7369.53C7077.63,7368.35 7075.35,7371.87 7074.11,7369.12C7073.16,7371.43 7070.04,7371.59 7069.21,7374.02C7071.86,7374.49 7073,7371.29 7074.93,7372.39C7075.06,7373.47 7072.64,7372.01 7073.3,7373.61C7074.55,7373.32 7074.79,7374.03 7075.75,7374.02C7075.99,7371.53 7079.54,7372.36 7079.43,7369.53ZM6978.44,7374.02C6980.33,7374.23 6980.69,7371.36 6982.12,7372.39L6982.12,7370.75C6979.81,7370.76 6979.94,7373.21 6978.44,7374.02ZM7018.1,7373.2C7018.93,7374.22 7019.77,7373.78 7020.96,7373.2C7020.9,7372.73 7021.03,7372.05 7020.55,7371.98C7020.18,7372.84 7018.24,7372.12 7018.1,7373.2ZM7069.62,7372.39C7069.62,7371.57 7070.73,7371.87 7070.44,7370.75C7070.19,7370.63 7068.86,7369.74 7068.8,7370.75C7069.31,7370.92 7069.64,7371.28 7069.62,7371.98C7069.39,7371.98 7069.15,7372.31 7069.62,7372.39ZM6977.21,7370.75C6978.25,7370.7 6979.31,7370.68 6979.25,7369.53C6977.97,7369.33 6977.58,7370.03 6977.21,7370.75ZM6958.81,7368.71C6958.35,7368.8 6958.17,7369.16 6957.99,7369.53C6959.08,7369.25 6960.07,7368.88 6960.85,7368.3C6959.81,7367.87 6960.16,7366.45 6960.45,7365.44C6958.93,7365.78 6958.12,7367.28 6958.81,7368.71ZM7076.98,7368.3C7076.37,7367.65 7075.15,7367.84 7075.34,7369.12C7076.89,7369.55 7078.46,7367.91 7077.8,7367.48C7077.71,7367.94 7077.34,7368.12 7076.98,7368.3ZM7113.78,7368.71C7114.25,7369.05 7114.87,7369.25 7115.82,7369.12C7115.98,7367.85 7113.85,7367.45 7113.78,7368.71ZM7119.09,7364.21C7119.19,7364.94 7118.68,7366.26 7119.91,7365.85C7121.02,7366.14 7119.62,7363.92 7120.73,7364.21C7121.24,7364.3 7121.56,7364.85 7121.55,7363.8C7120.54,7363.75 7119.57,7363.74 7119.09,7364.21ZM7131.36,7363.39C7132.23,7363.79 7133.18,7363.27 7134.22,7364.21C7134.13,7362.81 7133,7362.43 7131.77,7362.17C7131.79,7362.73 7131.57,7363.06 7131.36,7363.39ZM7104.37,7362.57C7105.9,7362.14 7105.02,7364.11 7106.42,7363.8C7107.3,7362.87 7106.57,7361.25 7105.19,7361.35C7105.09,7361.93 7104.52,7362.04 7104.37,7362.57ZM7005.42,7358.9C7005.38,7360.57 7007.87,7359.72 7007.47,7361.76C7008.6,7361.52 7009.76,7361.32 7009.51,7359.71C7008.17,7359.78 7006.6,7360.92 7007.06,7358.49C7006.35,7358.46 7005.79,7358.58 7005.42,7358.9ZM6942.45,7358.49C6942.31,7357.4 6941.38,7357.11 6940.41,7356.85C6938.99,7358.17 6941.42,7359.62 6942.45,7358.49ZM6989.89,7357.67C6989.79,7356.9 6990.35,7356.77 6990.29,7356.03C6987.59,7357.4 6986.22,7355 6984.16,7357.26C6984.14,7356.7 6984.35,7356.36 6984.57,7356.03C6983.41,7356.37 6983.51,7355.46 6982.53,7355.62C6983.22,7361.43 6985.53,7357.42 6989.89,7357.67ZM6973.94,7356.44C6975.22,7356.63 6975.24,7355.57 6975.16,7354.4C6974.68,7354.46 6974,7354.33 6973.94,7354.81C6975.16,7355.07 6973.55,7355.68 6973.94,7356.44ZM6971.08,7355.22L6969.44,7355.22C6969.12,7353.64 6971.4,7353.64 6971.08,7355.22ZM6985.8,7354.4C6986.33,7353.18 6986.16,7352.38 6984.98,7351.94C6984.35,7352.57 6984.25,7354.75 6985.8,7354.4ZM7079.02,7354.4C7080.36,7354.5 7080.99,7353.91 7081.07,7352.76C7079.87,7352.79 7079.55,7353.7 7079.02,7354.4ZM7098.65,7352.76C7097.19,7351.82 7096.18,7352.03 7094.15,7352.35C7094.06,7353.13 7094.61,7353.25 7094.56,7353.99C7096.78,7354.02 7096.99,7352.92 7098.65,7352.76ZM7001.74,7351.53C7002.94,7352.25 7004.87,7352.35 7004.2,7351.13C7004.09,7351.95 7002.03,7349.52 7001.74,7351.53ZM7094.15,7351.94L7092.52,7351.94L7092.52,7350.31C7093.2,7350.31 7093.88,7350.31 7094.56,7350.31C7094.24,7350.67 7094.12,7351.23 7094.15,7351.94ZM7008.69,7349.08C7007.4,7349.54 7007.77,7349.12 7006.24,7349.08C7005.65,7350.36 7009.28,7350.36 7008.69,7349.08ZM7091.7,7349.08C7093.37,7348.63 7094.18,7349 7095.38,7349.9C7095.42,7347.94 7094.27,7347.19 7092.92,7346.63C7093.48,7348.41 7091.95,7348.11 7091.7,7349.08ZM6930.19,7347.45C6930.96,7347.35 6931.09,7347.91 6931.82,7347.86C6931.73,7346.72 6930.53,7346.7 6930.19,7345.81L6930.19,7347.45ZM6957.58,7342.95C6957.41,7343.73 6956.7,7343.98 6956.77,7344.99C6958.41,7344.46 6957.77,7344.18 6959.22,7344.99C6959.31,7344.36 6960.79,7343.08 6959.63,7342.54C6959.7,7343.43 6958.18,7342.72 6957.58,7342.95ZM6938.77,7344.99C6940.04,7344.62 6940.13,7343.08 6940.41,7341.72C6939.6,7341.72 6939.89,7340.61 6938.77,7340.9C6940.27,7342.43 6938.74,7342.85 6938.77,7344.99ZM7054.08,7342.13C7054.06,7342.65 7053.56,7342.7 7053.67,7343.36C7055.28,7343.88 7054.73,7342.24 7055.31,7341.72C7054.53,7341.55 7054.28,7340.84 7053.26,7340.9C7053.14,7341.71 7053.81,7341.72 7054.08,7342.13ZM6973.53,7342.13C6974.4,7343.01 6975.76,7342.28 6975.98,7341.31C6975.27,7341.69 6973.94,7341.45 6973.53,7342.13ZM7059.4,7337.63C7060.45,7337.53 7060.45,7340.18 7059.4,7340.09C7059.57,7340.87 7059.54,7341.85 7060.62,7341.72C7060.36,7339.01 7062.7,7338.9 7064.3,7338.04C7064.3,7338.45 7064.63,7338.53 7064.71,7338.86C7064.61,7339.44 7064.04,7339.55 7063.89,7340.09C7065.09,7340.06 7065.41,7339.15 7065.94,7338.45C7063.85,7338.74 7066.63,7336.7 7065.12,7336.41C7064.35,7339.51 7060.5,7335.24 7059.4,7337.63ZM6943.68,7340.49C6944.67,7340.12 6945.35,7339.44 6945.73,7338.45C6944.71,7338.81 6942.77,7339.46 6943.68,7340.49ZM7076.16,7339.68C7077.18,7339.75 7077.44,7339.05 7077.8,7338.45C7077.24,7338.32 7077.01,7337.87 7076.16,7338.04L7076.16,7339.68ZM6974.76,7335.59C6975.05,7336.7 6973.94,7336.41 6973.94,7337.22C6973.49,7337.12 6973.66,7336.41 6973.12,7336.41C6973.22,7335.69 6973.82,7335.47 6974.76,7335.59ZM7077.8,7334.36C7078.35,7336.14 7076.82,7335.84 7076.57,7336.82C7075.45,7336.81 7075.6,7334.89 7076.16,7334.36L7077.8,7334.36ZM7015.65,7336.82C7017.12,7335.97 7019.15,7335.68 7019.73,7333.95C7018.52,7334.36 7017.72,7334.53 7017.28,7334.77C7018.34,7335.47 7015.54,7335.73 7015.65,7336.82ZM6977.62,7336.41C6976.67,7336.54 6976.05,7336.34 6975.57,7336C6975.79,7334.67 6978.03,7334.19 6977.62,7336.41ZM6967.4,7333.95C6967.34,7335.26 6966.47,7335.75 6964.94,7335.59C6965.04,7334.32 6966.39,7334.31 6967.4,7333.95ZM6942.86,7334.77C6943.93,7334.89 6944.62,7334.62 6944.5,7333.54C6943.8,7332.81 6942.89,7333.67 6942.86,7334.77ZM6942.86,7332.32C6944.05,7331.79 6945.75,7331.8 6946.54,7332.73C6946.44,7333.31 6945.87,7333.42 6945.73,7333.95C6947.69,7333.68 6947.03,7332.9 6946.95,7331.09C6945.17,7331.61 6945.13,7331.21 6943.68,7330.68C6943.98,7331.8 6942.87,7331.51 6942.86,7332.32ZM6953.09,7332.73C6954.36,7332.94 6954.91,7331.61 6954.72,7333.54C6956.08,7333.78 6957.68,7332.18 6956.77,7331.5C6955.96,7332.41 6954.87,7330.15 6953.49,7330.27C6953.02,7330.76 6953.03,7331.72 6953.09,7332.73ZM6962.9,7329.05C6963.47,7329.83 6963.12,7331.55 6964.94,7331.09C6964.59,7331.69 6964.33,7332.39 6963.31,7332.32C6964.12,7331.3 6962.02,7330.57 6961.26,7329.86C6961.53,7329.32 6962.14,7329.1 6962.9,7329.05ZM6969.03,7329.05C6968.49,7329.46 6967.52,7329.45 6966.99,7329.86C6966.78,7331.15 6968.4,7330.94 6967.4,7331.91C6965.54,7331.66 6967.19,7330.03 6964.94,7329.86C6964.68,7328.37 6965.22,7327.69 6965.76,7327C6966.47,7327.37 6967.34,7327.92 6966.58,7328.64C6967.3,7328.75 6968.62,7327.49 6969.03,7328.64C6969.53,7328.46 6969.87,7328.11 6969.85,7327.41C6971.88,7326.88 6971.86,7328.4 6973.53,7328.23C6973.56,7329.76 6973.84,7331.54 6971.89,7331.09C6972.92,7330.1 6971.07,7330.18 6970.26,7329.86C6969.24,7330.16 6971.61,7331.09 6970.26,7331.91C6969.23,7330.84 6969.84,7330.5 6969.03,7329.05ZM6976.8,7328.64C6976.16,7329.22 6976.48,7330.77 6975.17,7330.68C6975.27,7329.17 6975.97,7328.88 6973.94,7329.05C6974.74,7328.07 6975.87,7327.42 6976.8,7328.64ZM6963.72,7325.78L6965.35,7325.78C6964.98,7326.91 6964.28,7327.7 6963.31,7328.23C6963.92,7326.98 6963.17,7326.64 6963.72,7325.78ZM7014.83,7324.96C7015.33,7327.78 7012.5,7325.42 7012.37,7327C7011.26,7326.63 7012.79,7325.57 7012.78,7324.96L7014.83,7324.96ZM6944.5,7326.18C6945.41,7326.11 6947.36,7325 6946.13,7324.14C6945.75,7325.52 6944.47,7322.36 6943.68,7324.14C6944.29,7324.49 6944.27,7325.46 6944.5,7326.18ZM6971.49,7320.87C6972.47,7320.71 6971.26,7322.73 6972.71,7322.1C6972.79,7323.27 6972.76,7324.33 6971.49,7324.14C6972.49,7323.14 6971.18,7322.37 6971.49,7320.87ZM6978.85,7322.1C6978.5,7322.98 6977.84,7323.54 6976.39,7323.32C6976.24,7321.95 6978.16,7322.64 6978.85,7322.1ZM6974.76,7320.46C6974.95,7321.74 6974.4,7322.28 6973.12,7322.1C6973.17,7321.06 6973.72,7320.51 6974.76,7320.46ZM6943.78,7316.64C6944.24,7317.57 6945.68,7316.81 6944.5,7315.96C6946.26,7315.95 6947.52,7315.14 6948.59,7313.51C6947.54,7313.26 6946.36,7314.05 6944.91,7312.69C6945.61,7310.41 6949.73,7310.72 6948.59,7307.78C6949.96,7307.36 6949.22,7309.06 6949.4,7309.83C6950,7309.47 6950.7,7309.22 6950.63,7308.19C6952.67,7309.37 6953.93,7307.71 6955.95,7307.78C6957.03,7309.23 6954.01,7310.28 6955.13,7311.87C6953.88,7311.58 6953.64,7312.29 6952.68,7312.28C6952.68,7311.47 6953.79,7311.76 6953.49,7310.65C6952.31,7310.9 6951.38,7312.2 6950.63,7310.65C6949.83,7310.96 6951.74,7311.95 6951.04,7313.51C6948.65,7313.69 6948.71,7317.63 6946.13,7316.37C6945.54,7317.92 6947.26,7317.16 6946.95,7318.42C6947.53,7318.45 6948.11,7318.48 6948.18,7318.01C6949.56,7318.76 6945.24,7319.37 6947.36,7320.87C6946.66,7321.53 6945.87,7322.11 6944.5,7322.1C6945.14,7320.83 6946.53,7320.31 6946.95,7318.82C6946.69,7318.41 6946.01,7318.4 6946.13,7317.6C6944.84,7318.7 6944.08,7318.75 6942.45,7318.82C6942.33,7317.53 6944.26,7318.3 6943.78,7316.64C6943.74,7316.56 6943.7,7316.47 6943.68,7316.37C6943.72,7316.47 6943.75,7316.56 6943.78,7316.64ZM6979.25,7320.46C6978.65,7322 6978.17,7321.28 6976.39,7321.28C6976.27,7320.78 6977.57,7319.87 6977.62,7320.87C6978.16,7320.35 6978.42,7319.64 6979.25,7320.46ZM7060.62,7320.87C7060.65,7320.62 7060.68,7320.39 7061.03,7320.46C7062.29,7320.15 7061.82,7321.58 7063.08,7321.28C7063.81,7319.27 7059.21,7320.06 7060.62,7320.87ZM6972.3,7317.19C6971.64,7318.16 6971.65,7319.81 6971.08,7320.87C6969.31,7321.14 6968.78,7320.16 6967.81,7319.64C6968.24,7317.75 6969.78,7316.98 6972.3,7317.19ZM7067.78,7320.35C7066.88,7318.34 7064.94,7318.15 7063.89,7315.55C7065.65,7316.12 7065.26,7316.97 7067.57,7316.37C7067.67,7317.1 7067.16,7318.42 7068.39,7318.01C7067.69,7318.68 7067.49,7319.4 7067.78,7320.35C7067.86,7320.51 7067.92,7320.68 7067.98,7320.87C7067.9,7320.69 7067.84,7320.52 7067.78,7320.35ZM6973.53,7317.19C6973.89,7317.51 6974.45,7317.63 6975.17,7317.6C6974.93,7318.73 6974.73,7319.89 6973.12,7319.64C6972.45,7319.01 6973.26,7318.05 6973.53,7317.19ZM7060.62,7317.19C7061.75,7318.32 7062.33,7316.82 7063.49,7316.78C7063.56,7315.89 7063.15,7315.48 7062.26,7315.55C7062.26,7316.64 7061.12,7316.6 7060.62,7317.19ZM6951.04,7317.19C6951.62,7315.97 6950.82,7315.7 6952.27,7315.15C6951.4,7314.6 6951.06,7315.35 6949.81,7314.74C6950.02,7315.76 6950.59,7316.42 6951.04,7317.19ZM7021.37,7316.78C7022.76,7316.81 7022.89,7315.58 7023.41,7314.74C7022.19,7314.88 7021.78,7315.83 7021.37,7316.78ZM6952.27,7313.92C6952.74,7314.94 6953.16,7316.02 6954.31,7316.37C6954.49,7314.54 6956.45,7315.38 6957.99,7315.55C6957.18,7312.31 6954.3,7315.96 6953.09,7313.51C6953,7313.83 6952.74,7313.98 6952.27,7313.92ZM6974.76,7314.33C6974.35,7314.87 6974.08,7315.56 6973.53,7315.96C6972.62,7315.78 6972.07,7315.24 6971.89,7314.33C6973.08,7313.67 6972.95,7315.08 6974.76,7314.33ZM7036.09,7312.69L7034.45,7312.69C7034.17,7311.05 7036.18,7311.69 7036.09,7310.24C7035.74,7309.04 7035.06,7310.77 7034.04,7310.24C7034.48,7308.08 7033.44,7308.07 7034.86,7306.15C7034.58,7304.87 7033.77,7305.61 7032.82,7305.74C7032.81,7304.78 7033.52,7304.53 7033.23,7303.29C7035.13,7303.69 7035.7,7302.76 7036.91,7302.47C7036.73,7302.97 7036.38,7303.31 7035.68,7303.29C7036.19,7303.83 7036.91,7304.09 7036.09,7304.92C7038.13,7304.86 7036.34,7303.09 7037.72,7302.06C7038.58,7302.96 7039.54,7302.15 7040.18,7301.65C7039.95,7301.06 7039.54,7300.65 7038.95,7300.42C7038.32,7302.2 7037.48,7299.4 7036.91,7301.24C7036.61,7300.11 7038.13,7299.57 7039.77,7298.79L7039.77,7300.42C7040.91,7299.79 7041.47,7298.58 7042.63,7297.97C7043.88,7298.37 7042.45,7299.35 7042.22,7299.61C7042.59,7301.2 7043.73,7298.25 7043.86,7299.61C7042.88,7300.81 7041.47,7301.59 7040.18,7302.47C7041.1,7303.21 7041.14,7304.53 7040.59,7305.74C7040.26,7305.66 7040.18,7305.33 7039.77,7305.33C7038.52,7306.22 7040.16,7307.63 7039.77,7309.01C7041.44,7308.2 7042.01,7306.09 7043.86,7306.56C7044.25,7306.98 7043.61,7309.84 7042.22,7309.83L7042.22,7308.19C7041.89,7308.41 7041.56,7308.62 7040.99,7308.6C7041.67,7310.89 7040.78,7313.39 7039.36,7314.74C7038.14,7314.26 7036.81,7312.37 7037.72,7311.06C7037.71,7310.66 7037.22,7310.74 7036.91,7310.65C7036.06,7310.75 7036.79,7312.44 7036.09,7312.69ZM6960.04,7314.33C6960.9,7314.08 6962.55,7312.51 6961.67,7311.87C6960.99,7312.55 6960.02,7312.94 6960.04,7314.33ZM7056.12,7313.92L7054.49,7313.92C7054.11,7312.3 7054.19,7310.53 7056.12,7310.24C7055.76,7310.96 7055.14,7311.43 7054.9,7312.28C7055.26,7312.85 7056.54,7311.2 7057.76,7312.28C7056.96,7310.85 7057.86,7309.84 7056.12,7309.83C7056,7308.89 7057.31,7309.37 7057.35,7308.6C7056.64,7307.28 7056.28,7309.66 7054.9,7309.01C7054.89,7308.05 7055.6,7307.81 7055.31,7306.56C7056.57,7306.84 7056.09,7306.84 7057.35,7306.56C7057.71,7307.15 7057.68,7308.14 7058.99,7307.78C7058.81,7308.56 7058.11,7308.81 7058.17,7309.83C7059.26,7310.72 7060.03,7310.38 7061.44,7310.24C7061.6,7308.85 7059.63,7309.59 7060.21,7307.78C7061.43,7308.61 7063.12,7308.97 7063.89,7310.24C7063.96,7311.26 7063.27,7311.52 7062.67,7311.87C7062.79,7312.84 7064.09,7312.63 7063.89,7313.92C7062.65,7313.25 7061.55,7312.44 7061.03,7311.06C7059.73,7310.81 7059.77,7311.82 7058.99,7311.06C7057.94,7311.1 7058.33,7312.58 7057.76,7313.1C7056.81,7312.98 7055.84,7312.07 7056.12,7313.92ZM6964.94,7312.28C6964.99,7311.38 6966.68,7312.11 6967.4,7311.87L6967.4,7313.51C6965.81,7313.86 6965.94,7312.51 6964.94,7312.28ZM6968.62,7311.46C6968.69,7310.99 6969.37,7311.12 6969.85,7311.06C6970.02,7312.45 6969.73,7313.39 6968.21,7313.1C6968.15,7312.56 6969.88,7311.86 6968.62,7311.46ZM6980.07,7301.24C6979.18,7301.17 6978.77,7301.58 6978.85,7302.47C6979.3,7302.7 6981.59,7303.13 6982.93,7302.47C6982.72,7304.76 6984.31,7302.7 6985.39,7303.69C6985.75,7305.02 6984.05,7304.27 6983.75,7304.92L6983.75,7307.38C6983.87,7308.22 6984.84,7308.19 6985.39,7308.6C6985.11,7310.64 6982.58,7310.43 6982.93,7313.1C6981.99,7313.23 6981.36,7313.03 6980.89,7312.69C6981.04,7311.2 6982.64,7311.17 6982.93,7309.83C6981.76,7309.23 6979.73,7309.49 6979.66,7307.78C6978.93,7309.28 6977.53,7308.36 6975.98,7310.24C6975.5,7309.09 6976.13,7307.1 6976.39,7305.33C6976.33,7304.85 6975.65,7304.99 6975.17,7304.92C6975.11,7303.91 6975.09,7302.94 6975.98,7302.88C6975.86,7301.92 6974.05,7302.64 6974.35,7301.24C6975.82,7301.35 6976.32,7300.49 6977.62,7300.42C6978.03,7301.65 6976.71,7301.15 6975.98,7301.24C6975.63,7302.79 6977.81,7302.69 6978.44,7302.06C6978.73,7300.81 6978.02,7300.57 6978.03,7299.61C6976.4,7299.24 6973.93,7301.41 6975.17,7299.2C6973.08,7298.75 6973.91,7301.22 6973.12,7302.06C6971.96,7302.13 6972.32,7300.68 6970.67,7301.24C6972.88,7299.64 6973.33,7296.27 6975.57,7294.7C6977.79,7294.6 6978.35,7295.97 6979.66,7294.7C6980.36,7295.22 6979.67,7297.14 6980.89,7297.15C6979.79,7298.62 6979.3,7296.05 6978.03,7296.34C6977.96,7297.49 6979.26,7297.29 6979.25,7298.38C6981.16,7298.57 6981.88,7297.57 6983.34,7298.38C6982.97,7299.09 6982.07,7299.28 6980.89,7299.2C6981.12,7300.05 6981.9,7300.36 6981.71,7301.65C6981.01,7301.63 6980.65,7301.95 6980.48,7302.47C6980,7302.4 6980.14,7301.72 6980.07,7301.24ZM6989.48,7310.65C6989.44,7311.89 6986.8,7311.61 6986.2,7311.06C6986.79,7309.85 6988.74,7309.56 6989.48,7310.65ZM6963.72,7306.56L6964.94,7306.56C6965.71,7307.29 6964.61,7307.6 6964.94,7309.01C6963.87,7309.27 6963.69,7309.1 6962.49,7309.83C6962.17,7309.47 6962.05,7308.91 6962.08,7308.19C6962.6,7307.62 6964.24,7308.17 6963.72,7306.56ZM7048.76,7309.83L7047.13,7309.83C7048,7308.46 7047.48,7307.83 7047.95,7306.56C7049.63,7307.11 7048.01,7308.85 7048.76,7309.83ZM7027.91,7309.42C7029.86,7309.66 7031.59,7309.92 7032,7307.78C7029.74,7309.17 7029.17,7307.7 7027.91,7309.42ZM6970.67,7308.19C6971.74,7308.08 6972.43,7308.34 6972.3,7309.42C6971.23,7309.54 6970.54,7309.27 6970.67,7308.19ZM7051.55,7306.83C7051.09,7306.27 7049.9,7307.16 7050.81,7307.38C7050.54,7308.6 7049.93,7306.99 7049.17,7307.38C7049.83,7305.21 7050.21,7305.21 7049.99,7303.7C7051.76,7303.49 7051.02,7305.79 7051.55,7306.83C7051.58,7306.87 7051.6,7306.91 7051.63,7306.97C7051.6,7306.92 7051.57,7306.88 7051.55,7306.83ZM7000.11,7306.97C7001.35,7306.98 7001.13,7305.53 7001.33,7304.51C7000.81,7304.49 7000.77,7303.99 7000.11,7304.11C7000.2,7305.6 7000.67,7305.67 7000.11,7306.97ZM6943.68,7306.15C6945.03,7307.5 6944.66,7305.05 6946.13,7305.33C6946.16,7304.63 6945.82,7304.28 6945.32,7304.11C6945.49,7305.5 6944.09,7305.33 6943.68,7306.15ZM7023.82,7306.56C7024.94,7306.18 7025.53,7305.27 7025.87,7304.11C7025.37,7303.64 7025.13,7302.94 7023.82,7303.29C7023.39,7304.82 7024.84,7304.45 7024.64,7305.74C7024.14,7305.79 7023.67,7305.86 7023.82,7306.56ZM7029.14,7305.74C7030.52,7306 7032.72,7305 7031.59,7304.1C7030.95,7304.7 7029.39,7303.95 7029.14,7305.74ZM6963.31,7302.47C6964.86,7302.27 6963.69,7305.27 6962.49,7304.92C6962.82,7304.16 6963.17,7303.42 6963.31,7302.47ZM7045.46,7274.82C7046.42,7273.95 7046.35,7272.04 7047.13,7270.99C7047.82,7270.83 7047.9,7271.3 7047.95,7271.8C7049.09,7271.03 7047.17,7269.89 7047.13,7268.94C7045.34,7269.42 7045.03,7268.83 7043.45,7269.35C7043.08,7267.26 7046.51,7268.98 7045.08,7266.9C7048.18,7266.86 7052.29,7264.66 7053.26,7261.17C7055.05,7260.89 7055.57,7261.87 7057.35,7261.58C7057.3,7263.12 7058.15,7263.78 7059.4,7264.03C7058.88,7267.51 7057.95,7275.69 7058.99,7279.16C7058.03,7280.12 7058.42,7282.41 7057.35,7283.25C7056.97,7282.95 7056.73,7282.51 7056.53,7282.03C7055.1,7282.51 7055.39,7283.43 7056.12,7284.48C7057.41,7283.99 7058.29,7283.1 7059.8,7282.84L7059.8,7284.07C7061.29,7284.05 7061.12,7282.39 7062.26,7282.03C7062.98,7282.12 7063.19,7282.73 7063.07,7283.66C7064.52,7283.88 7065.18,7283.31 7065.53,7282.43C7063.71,7281.24 7065.34,7279.62 7063.48,7277.53C7062.33,7277.19 7062.43,7278.1 7061.44,7277.94C7063.6,7276.21 7060.35,7276.59 7059.4,7276.3C7059.3,7274.36 7063.84,7274.27 7063.89,7276.71C7065.26,7277.12 7065.23,7276.14 7065.12,7275.07C7065.05,7274.59 7064.37,7274.73 7063.89,7274.66C7064.29,7272.5 7066.95,7273.08 7067.98,7273.85C7067,7279.16 7068.99,7281.52 7066.76,7286.52C7062.58,7285.75 7064.89,7291.47 7062.26,7292.25C7062.87,7294.25 7063.81,7293.4 7064.71,7295.11C7062.23,7295.48 7059.94,7298.33 7063.48,7300.42C7063.55,7301.75 7061.02,7302.56 7063.48,7302.88C7062.55,7304.36 7061.94,7303.15 7060.21,7303.29C7060.58,7302.43 7060.85,7301.47 7061.44,7300.83C7061.37,7300.35 7060.69,7300.49 7060.21,7300.42C7059.92,7300.86 7060.06,7303.32 7058.99,7304.11C7058.05,7303.78 7056.5,7301.72 7058.17,7301.24C7057.39,7300.53 7056.04,7300.38 7054.9,7300.02C7054.74,7298.49 7056.87,7299.26 7056.94,7297.97C7056.84,7297.26 7055.42,7298.58 7054.9,7298.79C7054.36,7298.99 7054.72,7296.76 7055.72,7297.15C7055.01,7296.15 7053.79,7296.9 7052.85,7295.52C7051.36,7297 7054.54,7298.45 7052.44,7299.61C7053.71,7299.2 7055.87,7299.86 7055.72,7302.06C7054.39,7302.02 7054.84,7300.21 7052.85,7300.83C7051.05,7301.56 7052.82,7303.61 7050.81,7303.69C7050.61,7302.14 7050.98,7301.14 7052.03,7300.83C7051.69,7299.95 7051.03,7299.39 7049.58,7299.61C7049.67,7298.61 7051.24,7298.11 7049.58,7297.56C7049.85,7296.34 7050.46,7297.95 7051.22,7297.56C7051.77,7297.44 7051.56,7296.54 7051.63,7295.93C7050.26,7295.5 7048.9,7297.39 7049.17,7295.11C7048.39,7295.28 7048.15,7295.99 7047.13,7295.93C7048.39,7293.93 7046.23,7293.79 7046.31,7291.84C7047.04,7291.78 7047.17,7292.34 7047.95,7292.25C7048.24,7291.13 7047.13,7291.42 7047.13,7290.61C7045.87,7290.31 7046.34,7291.73 7045.08,7291.43C7044.98,7290.1 7046.36,7290.25 7046.72,7289.39C7046.09,7289.16 7044.32,7288.02 7044.27,7288.57C7043.16,7288.19 7044.68,7287.13 7044.68,7286.52C7046.45,7287.1 7047.79,7289.24 7047.54,7290.61C7048.57,7290.15 7049.86,7289.93 7050.4,7288.98C7049.55,7288.19 7049.18,7286.92 7047.95,7286.52C7049.26,7283.53 7045.62,7285.12 7046.31,7282.84C7045.45,7283.74 7044.72,7283.74 7043.86,7282.84C7044.36,7281.59 7045.05,7281.54 7045.9,7282.43C7046.21,7280.08 7044.67,7279.58 7043.45,7278.75C7042.56,7278.68 7042.15,7279.09 7042.22,7279.98C7042.92,7281.21 7043.71,7280.43 7045.08,7280.39C7044.14,7282.23 7042.72,7281.38 7040.59,7281.21C7040.15,7282.74 7041.6,7282.37 7041.4,7283.66C7037.74,7281.47 7035.75,7277.59 7032.82,7274.66C7032.52,7273.55 7033.63,7273.84 7033.64,7273.03C7033.28,7271.82 7033.02,7273.98 7032,7273.44C7031.53,7272.95 7031.54,7271.99 7031.59,7270.99C7031.98,7271.68 7032.88,7271.88 7033.64,7272.21C7033.97,7272.13 7034.04,7271.8 7034.45,7271.8C7034.29,7270.4 7033.35,7271.28 7034.04,7269.76C7034.94,7269.68 7035.35,7270.09 7035.27,7270.99C7035.79,7270.41 7037.27,7270.81 7037.32,7269.76C7037.74,7268.24 7035.94,7268.96 7035.68,7268.12C7035.81,7266.34 7037.05,7268.88 7038.13,7267.71C7037.84,7268.96 7038.55,7269.2 7038.54,7270.17C7037,7270.12 7036.34,7270.97 7036.09,7272.21C7036.21,7273.18 7037.19,7271.76 7037.32,7271.39C7038.32,7272.96 7036.09,7274.79 7035.27,7275.89C7035.93,7277.27 7036.57,7274.61 7037.32,7275.89C7038.08,7276.67 7037.36,7276.92 7037.32,7277.94C7037.61,7278.95 7038.55,7276.59 7039.36,7277.94C7039.81,7276.35 7037.91,7276.48 7038.95,7275.48C7039.76,7276.53 7040.06,7275.63 7041.81,7276.3C7040.21,7274.77 7039.62,7272.22 7038.13,7270.58C7039.11,7269.59 7039.22,7271.57 7040.99,7270.99C7040.19,7272.89 7042.44,7274.46 7043.86,7274.26C7043.76,7274.7 7043.05,7274.53 7043.04,7275.07C7043.63,7275.89 7044.69,7274.43 7044.27,7276.71C7044.99,7275.67 7045.45,7276.36 7047.13,7275.89C7047.47,7276.37 7047.67,7276.99 7047.54,7277.94C7045.82,7278.43 7045.74,7277.28 7044.68,7277.12C7044.86,7278.98 7048.08,7277.81 7047.95,7279.98C7050.06,7279.78 7049.68,7277.08 7051.22,7276.3C7049.5,7275.61 7050.3,7275.26 7051.22,7274.26C7050.62,7273.62 7049.62,7273.4 7048.36,7273.44C7048.48,7272.6 7049.46,7272.64 7049.58,7271.8C7048.19,7271.5 7049.06,7273.46 7047.54,7273.03C7047.74,7274.05 7048.31,7274.71 7048.76,7275.48C7047.7,7276.56 7046.83,7274.14 7045.46,7274.82C7045.35,7274.92 7045.22,7275 7045.08,7275.07C7045.21,7274.96 7045.34,7274.88 7045.46,7274.82ZM6968.21,7302.06C6968.95,7302.76 6968.09,7303.67 6966.99,7303.7C6966.87,7302.63 6967.14,7301.94 6968.21,7302.06ZM7027.91,7303.29C7027.95,7302.07 7030.35,7302.19 7029.95,7303.69C7031.19,7303.43 7032.32,7303.06 7032.41,7301.65C7031.05,7301.93 7026.8,7300.47 7027.91,7303.29ZM6971.89,7302.06C6972.1,7304.25 6970.86,7303.43 6969.44,7303.29C6969.79,7302.41 6970.45,7301.84 6971.89,7302.06ZM7030.36,7299.2C7031.82,7299.24 7033.17,7299.39 7033.64,7300.42C7033.51,7300.98 7033.05,7301.2 7033.23,7302.06C7033.99,7301.67 7034.59,7303.28 7034.86,7302.06C7033.43,7301.55 7034.5,7300.48 7035.68,7301.24C7034.59,7299.99 7035.67,7299.09 7034.04,7298.38C7033.14,7299.89 7030.56,7297.29 7030.36,7299.2ZM6951.45,7295.52C6950.49,7295.65 6949.76,7296.32 6949,7295.52C6949.03,7297.12 6950.4,7297.39 6951.45,7297.97C6951.5,7300.12 6950.62,7300.14 6949.82,7302.06C6951.19,7302.78 6951.91,7301.79 6953.9,7302.06C6955.14,7299.88 6953.61,7296.95 6955.54,7295.11C6954.15,7294.34 6953.83,7293.13 6953.09,7292.66C6953.02,7295.19 6950.14,7292.32 6951.45,7295.52ZM6948.18,7298.79C6947.81,7299.65 6948.17,7301.23 6946.54,7300.83C6946.38,7299.85 6947.29,7299.94 6946.95,7298.79L6948.18,7298.79ZM7021.37,7300.02C7022.63,7299.73 7022.15,7299.73 7023.41,7300.02C7023.46,7298.99 7024.19,7298.74 7023,7298.38C7022.64,7299.1 7021.5,7299.06 7021.37,7300.02ZM7026.69,7298.38L7026.69,7300.02C7025.49,7299.99 7024.38,7299.87 7024.64,7298.38L7026.69,7298.38ZM6986.2,7294.7C6986.79,7296.21 6987,7297.19 6989.07,7296.34C6988.95,7297 6989.45,7297.04 6989.48,7297.56C6989.18,7298.9 6988.01,7299.36 6987.02,7300.02C6985.4,7297.82 6981.54,7297.87 6980.89,7294.7C6982.43,7293.56 6984.39,7296.26 6986.2,7294.7ZM7044.27,7298.79C7045.21,7298.02 7047.38,7299.72 7047.95,7297.97C7046.42,7298.79 7045,7297.18 7044.27,7298.79ZM6972.71,7295.93C6973.76,7296.47 6971.68,7298.56 6971.08,7297.56C6970.68,7296.08 6972.91,7297.22 6972.71,7295.93ZM7034.04,7295.52C7033.52,7295.5 7033.48,7294.99 7032.82,7295.11C7032.51,7296.37 7034.23,7295.61 7033.64,7297.15C7034.97,7297.37 7035.66,7294.85 7034.86,7294.29C7034.66,7294.78 7034.43,7295.22 7034.04,7295.52ZM7030.77,7291.43C7032.3,7291.59 7033.17,7291.1 7033.23,7289.79C7032.22,7290.15 7030.87,7290.16 7030.77,7291.43Z"
            fill="currentColor" />
    </g>
</svg>