<svg width="100%" height="100%" viewBox="0 0 33 32" version="1.1" xmlns="http://www.w3.org/2000/svg"
    xmlns:xlink="http://www.w3.org/1999/xlink" xml:space="preserve" xmlns:serif="http://www.serif.com/"
    style="fill-rule:evenodd;clip-rule:evenodd;stroke-linejoin:round;stroke-miterlimit:2;">
    <g transform="matrix(1.76699,0,0,1.76699,-8.94005,-27.1094)">
        <path
            d="M13.411,17.15C14.435,17.427 15.137,17.325 15.427,17.425C19.279,18.759 19.1,19.734 19.727,20.132C20.745,20.78 20.734,20.78 21.496,21.708C22.271,22.651 23.347,22.368 22.789,24.572C22.175,26.996 22.339,27.018 22.259,27.219C22.155,27.48 20.862,28.235 20.733,28.31C18.866,29.401 19.156,30.644 18.125,31.024C15.994,31.81 14.082,31.608 13.586,29.423C13.21,27.767 11.525,29.649 10.141,30.479C8.611,31.397 7.101,31.052 7.099,31.05C5.817,29.854 5.895,25.319 5.904,24.81C5.932,23.178 6.585,23.437 6.844,22.786C7.649,20.761 7.511,20.604 8.747,19.801C12.902,17.099 12.984,17.108 13.411,17.15ZM13.773,26.041C13.774,25.916 13.773,25.759 13.722,25.637C13.698,25.582 13.685,25.591 13.27,25.039C13.248,25.01 12.948,24.728 12.812,24.689C12.675,24.65 12.536,24.674 12.398,24.648C11.545,24.485 11.219,24.757 11.047,24.772C10.744,24.797 10.578,25.064 10.553,25.105C10.505,25.182 9.912,25.787 9.905,26.02C9.892,26.422 10.011,26.4 10.072,26.8C10.18,27.513 10.767,27.397 10.895,27.422C11.034,27.449 11.102,27.508 11.227,27.441C11.609,27.235 11.635,27.273 11.949,26.976C12.777,26.192 13.042,26.662 13.62,26.602C13.684,26.515 13.799,26.428 13.843,26.337C13.89,26.239 13.806,26.13 13.773,26.041ZM15.687,22.157C15.751,22.181 15.917,22.331 16.021,22.257C16.235,22.102 16.211,22.069 16.462,21.985C16.814,21.867 17.297,21.326 17.404,21.243C18.425,20.449 17.051,20.447 16.577,19.826C16.381,19.569 16.338,19.609 15.973,19.528C15.478,19.418 15.489,18.84 14.164,19.381C13.552,19.631 13.197,20.471 13.49,20.891C14.252,21.98 15,21.018 15.687,22.157ZM16.952,26.406C17.07,26.533 17.639,27.146 18.969,27.186C19.155,27.191 21.16,25.323 20.672,24.447C19.972,23.19 19.082,22.892 18.9,22.831C18.717,22.769 18.695,22.437 17.696,22.699C16.893,22.909 15.322,24.259 15.46,24.858C15.524,25.137 16.812,26.363 16.952,26.406ZM17.016,28.198C16.916,28.212 16.301,27.689 16.119,27.68C15.333,27.64 15.018,27.498 14.998,28.29C14.972,29.329 15.102,29.644 16.856,29.809C17.307,29.852 17.29,29.77 17.692,29.558C17.706,29.551 18.798,27.128 17.016,28.198Z"
            fill="currentColor" />
    </g>
</svg>