<svg width="100%" height="100%" viewBox="0 0 32 32" version="1.1" xmlns="http://www.w3.org/2000/svg"
    xmlns:xlink="http://www.w3.org/1999/xlink" xml:space="preserve" xmlns:serif="http://www.serif.com/"
    style="fill-rule:evenodd;clip-rule:evenodd;stroke-linejoin:round;stroke-miterlimit:1.41421;">
    <path
        d="M11,15L5,15L4,14L4,7L6,5L8,2L10,3L14,6L14,10L13,14L11,15ZM9,14L9,12L7,12L7,14L9,14ZM11,14L12,13L12,10L10,10L10,14L11,14ZM11,6L9,5L9,8L10,9L13,9L13,6L11,6Z"
        fill="currentColor" />
    <path
        d="M25,6L27,6L31,11L32,11L32,14L31,15L28,15L26,16L23,16.5L19,13L19,11L20,9L22,6L24,7L25,6ZM28.575,13.141L25,13L24,14L24,15L27,15L28,14L30,14L28.575,13.141ZM31,13L31,12L30,12L30.271,13.238L31,13ZM28,9L27,9L26,11L28,12L30.182,11.796L30,11.25L28,9ZM26,8L23,8L22,9L22,11L24,11.25L26,9L26,8Z"
        fill="currentColor" />
    <path
        d="M18,18L19,20L21,21L22,23L24,24L24,27L23,28L21,29L21,31L10,31L9,29L8,26L9,25L11,21L13,20L14,18L18,18ZM20,29L18,28L16,29L14,29L13,30L18,30L20,29ZM12,25L15,25L16,26L15,27L13,28L12,26L12,25ZM17,25L17,26L19,27L20,28L23,26.5L22,25L21,23L17,25ZM15,20L16.5,19L18,20L20,22L18,23L16,22L15,21L15,20Z"
        fill="currentColor" />
</svg>