<svg width="100%" height="100%" viewBox="0 0 33 32" version="1.1" xmlns="http://www.w3.org/2000/svg"
    xmlns:xlink="http://www.w3.org/1999/xlink" xml:space="preserve" xmlns:serif="http://www.serif.com/"
    style="fill-rule:evenodd;clip-rule:evenodd;stroke-linejoin:round;stroke-miterlimit:2;">
    <path
        d="M6.692,18.075C5.921,13.135 3.414,7.069 5.73,5C9.97,1.21 11.3,1.906 14.064,2.103C16.524,2.278 17.965,1.795 19.403,3.861C22.678,4.225 22.781,4.187 25.254,6.392C27.998,8.84 27.241,14.476 27.279,17.438C27.299,19.025 25.566,21.323 25.287,22.068C24.283,24.757 22.821,24.014 22.382,26.829C22.126,28.465 16.692,30.266 16.368,30.18C16.01,30.085 16.062,29.976 12.277,28.019C11.682,27.711 11.764,27.617 10.469,26.189C7.984,25.338 7.479,23.623 6.692,18.075Z"
        fill="currentColor" />
</svg>