<svg width="100%" height="100%" viewBox="0 0 33 32" version="1.1" xmlns="http://www.w3.org/2000/svg"
    xmlns:xlink="http://www.w3.org/1999/xlink" xml:space="preserve" xmlns:serif="http://www.serif.com/"
    style="fill-rule:evenodd;clip-rule:evenodd;stroke-linejoin:round;stroke-miterlimit:2;">
    <path
        d="M16.525,22.318C15.455,18.142 15.481,15.632 10.82,15.045C8.287,14.725 7.561,12.477 5.23,10.141C4.338,9.247 4.616,8.135 4.855,6.777C5.125,5.24 10.769,5.046 12.899,4.5C17.772,3.251 16.968,5.943 21.163,9.622C23.713,11.858 23.37,12.136 24.131,15.097C24.64,17.072 26.074,16.927 26.337,19.979C26.369,20.349 26.556,20.273 26.583,20.634C26.907,24.899 26.574,25.276 26.312,25.573C17.81,35.228 16.784,23.828 16.525,22.318Z"
        fill="currentColor" />
</svg>