<svg width="100%" height="100%" viewBox="0 0 33 32" version="1.1" xmlns="http://www.w3.org/2000/svg"
    xmlns:xlink="http://www.w3.org/1999/xlink" xml:space="preserve" xmlns:serif="http://www.serif.com/"
    style="fill-rule:evenodd;clip-rule:evenodd;stroke-linejoin:round;stroke-miterlimit:2;">
    <g transform="matrix(2.13672,0,0,2.13672,0.682162,-0.881517)">
        <path
            d="M7.145,1.022L8,1C11.755,1.063 11.236,4.04 11.337,4.365C11.968,6.399 12.976,6.618 11.626,9.234C10.74,10.949 11.476,11.952 10.192,13.64C8.92,15.312 4.92,14.522 3.898,14.223C2.327,13.763 2.236,12.914 1.989,11.768C1.917,11.433 2.002,8.229 2.695,6.997C3.555,5.466 3.044,5.709 3.494,4C3.929,2.352 6.419,0.992 7.145,1.022ZM9.705,8.238C9.871,8.218 9.676,8.092 10.175,7.802C10.561,7.578 10.637,7.548 10.619,6.723C10.614,6.449 10.009,6.127 9.098,5.326C8.712,4.987 8.161,5.323 8.091,5.554C8.081,5.589 8.192,6.362 8.415,6.619C8.944,7.226 8.829,7.488 9.183,7.921C9.535,8.353 9.54,8.258 9.705,8.238ZM6.651,11.826C6.651,11.826 5.27,11.52 5.151,12.486C5.016,13.572 6.005,13.866 6.658,13.468C7.209,13.133 7.57,12.035 6.651,11.826ZM9.278,9.695C8.459,9.734 8.574,10.735 8.574,12.639C8.574,12.776 8.518,12.867 8.658,12.896C9.564,13.084 9.277,12.425 9.658,11.835C9.78,11.647 9.732,11.63 9.837,10.728C9.886,10.309 10.041,10.168 9.637,10.046C9.462,9.993 9.426,9.795 9.306,9.699L9.278,9.695Z"
            fill="currentColor" />
    </g>
</svg>