<svg width="100%" height="100%" viewBox="0 0 32 32" version="1.1" xmlns="http://www.w3.org/2000/svg"
    xmlns:xlink="http://www.w3.org/1999/xlink" xml:space="preserve" xmlns:serif="http://www.serif.com/"
    style="fill-rule:evenodd;clip-rule:evenodd;stroke-linejoin:round;stroke-miterlimit:2;">
    <g transform="matrix(2.7166,0,0,2.7166,-28.3328,-25.7586)">
        <path
            d="M18.778,10.582C19.324,10.623 19.798,10.619 20.544,11.179C20.977,11.504 20.682,12.056 21.046,12.549C21.342,12.993 21.165,13.846 21.165,13.846C21.491,13.898 21.504,13.932 21.618,14.012C22.038,14.307 21.896,14.828 22.097,15.396C22.329,16.127 21.827,16.845 21.761,17.032C21.42,18.088 20.619,18.099 19.898,18.757C18.978,19.542 17.705,19.421 16.279,19.425C15.713,19.427 15.189,19.012 15.047,18.355C15.047,18.355 13.286,18.519 12.038,17.672C11.584,17.468 11.054,16.845 10.884,16.528C10.763,16.302 11.032,16.036 11.02,15.772C11.007,15.231 11.487,14.462 11.487,14.462C11.722,14.037 12.227,13.898 12.819,13.289C13.219,12.91 13.521,12.896 14.186,12.471C14.86,12.064 16.096,12.143 16.144,12.114C16.99,11.554 17.753,10.561 18.778,10.582ZM16.916,18.231C17.026,18.099 17.185,17.736 17.246,17.605C17.27,17.554 17.332,17.475 17.286,17.443C17.12,17.325 16.492,16.866 16.247,16.897C16.003,16.928 15.761,17.381 15.818,17.631C15.875,17.88 16.406,18.295 16.59,18.395C16.697,18.454 16.838,18.324 16.916,18.231ZM20.753,15.809C20.623,15.988 20.012,16.676 20.003,16.871C19.994,17.065 20.499,17.101 20.698,16.977C20.898,16.852 21.188,16.32 21.203,16.124C21.217,15.949 20.863,15.854 20.788,15.802C20.778,15.795 20.76,15.8 20.753,15.809ZM13.834,13.886C13.6,13.936 12.783,14.488 12.485,14.872C12.201,15.237 12.046,16.188 12.046,16.188C13.206,16.293 13.591,14.956 13.889,14.572C14.03,14.391 14.058,13.838 13.834,13.886ZM19.126,11.776C18.998,11.793 18.81,11.929 18.762,12.074C18.713,12.219 18.705,12.517 18.836,12.647C18.968,12.778 19.403,12.862 19.55,12.855C19.649,12.851 19.661,12.663 19.718,12.609C19.765,12.565 19.958,12.339 19.94,12.278C19.908,12.172 19.656,12.1 19.528,11.975C19.421,11.87 19.253,11.76 19.126,11.776Z"
            fill="currentColor" />
    </g>
</svg>