<svg width="100%" height="100%" viewBox="0 0 33 32" version="1.1" xmlns="http://www.w3.org/2000/svg"
    xmlns:xlink="http://www.w3.org/1999/xlink" xml:space="preserve" xmlns:serif="http://www.serif.com/"
    style="fill-rule:evenodd;clip-rule:evenodd;stroke-linejoin:round;stroke-miterlimit:2;">
    <g transform="matrix(1.95352,0,0,1.95352,-1.98836,-0.978936)">
        <path
            d="M6.93,1.027C4.452,1.18 5.31,2.34 3.964,5.064C2.746,7.529 1.818,7.282 2.155,8.872C2.226,9.204 3.27,11.401 3.373,11.618C3.667,12.237 4.7,12.083 4.66,12.114C4.568,12.184 4.935,12.118 5.195,13.464C5.384,14.444 6.033,13.921 7.181,15.305C7.891,16.16 9.144,16.105 9.327,16.097C12.08,15.975 12.316,15.858 13.555,13.389C14.239,12.026 13.884,11.839 14.88,10.688C16.549,8.759 15.736,5.227 13.814,4.941C13.371,4.875 10.938,3.918 10.678,3.593C9.974,2.711 7.131,1.173 6.902,1.104L6.93,1.027Z"
            fill="currentColor" />
    </g>
</svg>