<svg width="100%" height="100%" viewBox="0 0 33 32" version="1.1" xmlns="http://www.w3.org/2000/svg"
    xmlns:xlink="http://www.w3.org/1999/xlink" xml:space="preserve" xmlns:serif="http://www.serif.com/"
    style="fill-rule:evenodd;clip-rule:evenodd;stroke-linejoin:round;stroke-miterlimit:2;">
    <g transform="matrix(1.72091,0,0,1.72091,-29.2256,-11.1903)">
        <path
            d="M26.219,6.972C24.491,7.48 24.392,7.479 23.518,9.059C23.346,9.369 23.289,9.326 20.864,12.612C19.981,13.808 19.177,13.796 20.036,15.886C20.36,16.674 23.529,24.385 26.289,24.507C27.533,24.562 27.642,24.788 28.58,23.947C31.177,21.618 32.108,21.916 32.125,18.411C32.13,17.266 32.47,17.237 32.087,16.439C31.135,14.46 31.878,12.166 31.254,10.974C31.171,10.814 31.132,10.635 31.063,10.469C31.047,10.431 28.773,8.323 28.244,8.156C27.214,7.831 28.053,7.129 27,7C26.545,6.944 26.219,6.972 26.219,6.972Z"
            fill="currentColor" />
    </g>
</svg>