<svg width="100%" height="100%" viewBox="0 0 33 32" version="1.1" xmlns="http://www.w3.org/2000/svg"
    xmlns:xlink="http://www.w3.org/1999/xlink" xml:space="preserve" xmlns:serif="http://www.serif.com/"
    style="fill-rule:evenodd;clip-rule:evenodd;stroke-linejoin:round;stroke-miterlimit:2;">
    <g transform="matrix(1.23193,0,0,1.23193,-4.77412,-3.55714)">
        <path
            d="M11.635,7.151C7.072,10.675 6.368,10.496 5.233,16.154C4.583,19.395 5.197,19.462 9.185,24.753C9.76,25.517 13.297,26.583 15.426,25.429C17.019,24.565 17.036,24.668 18.713,24C19.988,23.493 27.176,19.103 27.308,18.443C27.624,16.871 28.806,16.387 28.868,13.824C28.962,10.013 30.345,8.443 26.586,7.928C22.728,7.399 21.741,7.941 18.034,6.994C15.362,6.311 13.637,6.21 12.57,6.236C12.134,6.247 12.086,6.676 11.635,7.151Z"
            fill="currentColor" />
    </g>
</svg>