<svg width="100%" height="100%" viewBox="0 0 33 32" version="1.1" xmlns="http://www.w3.org/2000/svg"
    xmlns:xlink="http://www.w3.org/1999/xlink" xml:space="preserve" xmlns:serif="http://www.serif.com/"
    style="fill-rule:evenodd;clip-rule:evenodd;stroke-linejoin:round;stroke-miterlimit:2;">
    <g transform="matrix(2.06287,0,0,2.06287,-32.7738,-6.16305)">
        <path
            d="M21.939,17.217C20.339,16.817 19.631,15.53 17.177,13.018C16.066,11.881 16.807,10.392 16.877,9.991C17.11,8.667 17.911,8.735 19.268,5.975C19.773,4.949 22.17,5.027 22.309,5.003C24.265,4.674 24.31,4.731 26.118,5.54C26.93,5.904 27.429,7.186 27.495,7.356C29.407,7.899 29.94,8.559 30.712,9.783C31.026,10.282 30.792,10.517 30.505,11.242C30.344,11.649 30.252,11.985 30.417,13.798C28.964,14.963 29.102,15.137 27.474,16.018C27.092,16.225 23.8,16.914 21.939,17.217ZM24.002,8.432C24.474,8.319 25.647,8.141 24.282,6.715C23.56,5.961 21.839,7.344 21.67,7.48C21.137,7.909 19.921,8.341 20.546,10.285C20.686,10.72 21.882,10.219 21.915,10.199C22.457,9.865 21.955,9.212 24.002,8.432ZM25.291,8.711C24.155,8.73 23.726,8.967 24.272,9.959C25.526,12.241 29.123,12.678 27.964,10.743C27.743,10.375 27.802,9.78 26.814,9.114C26.141,8.661 26.108,8.737 25.291,8.711ZM28.009,12.677C26.251,12.64 25.376,11.945 23.551,12.57C23.223,12.682 22.23,13.651 22.186,13.714C22.053,13.908 22.223,15.683 23.155,15.438C25.148,14.914 25.798,13.841 27.05,13.703C27.736,13.627 28.336,13.06 28.009,12.677Z"
            fill="currentColor" />
    </g>
</svg>