<svg width="100%" height="100%" viewBox="0 0 33 32" version="1.1" xmlns="http://www.w3.org/2000/svg"
    xmlns:xlink="http://www.w3.org/1999/xlink" xml:space="preserve" xmlns:serif="http://www.serif.com/"
    style="fill-rule:evenodd;clip-rule:evenodd;stroke-linejoin:round;stroke-miterlimit:2;">
    <g transform="matrix(1,0,0,1,-2.87099,-0.737362)">
        <path
            d="M25.3,8.158C24.884,8.246 25.368,7.478 21.285,4.67C20.432,4.084 20.599,3.761 18.192,2.459C17.522,2.098 11.716,0.783 9.169,6.15C7.4,9.877 5.105,8.733 4.869,12.844C4.662,16.456 6.176,16.119 7.228,20.778C8.013,24.254 8.111,24.215 8.42,27.745C8.661,30.509 10.724,33.595 12.326,31.314C16.049,26.013 21.137,31.243 23.069,31.689C25.244,32.191 27.904,28.76 27.354,27.356C26.787,25.911 25.596,25.436 25.565,24.307C25.43,19.419 30.381,23.39 30.527,22.417C30.683,21.376 33.981,15.341 31.72,12.284C30.532,10.677 30.364,10.879 28.646,9.898C28.164,9.623 27.777,9.855 27.075,9.268C26.246,8.575 26.204,8.7 25.3,8.158Z"
            fill="currentColor" />
    </g>
</svg>