<svg width="100%" height="100%" viewBox="0 0 32 32" version="1.1" xmlns="http://www.w3.org/2000/svg"
    xmlns:xlink="http://www.w3.org/1999/xlink" xml:space="preserve" xmlns:serif="http://www.serif.com/"
    style="fill-rule:evenodd;clip-rule:evenodd;stroke-linejoin:round;stroke-miterlimit:1.41421;">
    <path
        d="M20.393,24.636C20.673,24.56 20.695,24.583 20.804,24.605C21.335,24.715 21.38,25.441 21.918,25.853L22.552,25.951C23.423,25.584 22.961,25.789 23.544,25.988C24.129,26.187 24.201,26.758 24.478,27.273C24.927,28.109 23.418,29.105 22.494,28.618C22.494,28.618 21.26,30.14 20.047,29.231C19.918,29.134 19.161,29.119 18.59,28.534C17.358,28.342 17.541,26.636 18.053,25.923C18.891,24.755 19.448,24.697 20.26,24.636C20.305,24.635 20.348,24.632 20.393,24.636ZM6.716,28.347C6.794,27.259 7.601,27.571 7.601,27.571C7.904,27.577 7.94,27.072 8.361,26.928C9.707,26.468 11.639,27.104 10.138,28.349C9.697,28.714 9.582,28.31 8.979,28.82C8.512,29.215 7.853,29.192 7.49,29.223C7.095,29.257 6.687,29.043 6.716,28.362C6.716,28.359 6.715,28.402 6.716,28.347ZM3.714,25.896C4.204,25.946 4.36,26.728 3.954,27.094C3.877,27.163 3.076,27.475 2.969,27.626C2.826,27.828 2.773,27.866 2.647,27.945C1.335,28.77 -0.644,26.369 1.64,25.888C2.304,25.748 2.985,25.854 3.714,25.896ZM28.453,18.469C29.663,18.511 30.939,19.441 31.025,19.932C31.416,22.174 31.317,23.047 29.984,23.195C29.984,23.195 30.464,24.959 29.024,24.929C28.977,24.94 28.93,24.947 28.882,24.953C28.17,25.017 27.583,24.055 27.453,23.994C26.727,23.693 26.708,22.354 26.708,22.354C26.259,22.201 25.754,22.037 25.782,21.536C25.852,20.857 26.187,20.941 26.335,19.988C26.47,19.114 27.329,18.452 28.453,18.469ZM4.899,17.082C5.677,17.086 6.492,16.982 7.144,17.48C7.556,17.795 7.56,18.173 7.857,18.323C9.065,19.011 9.46,20.918 8.832,21.769C8.308,22.436 7.706,23.414 7.706,23.414C7.204,23.794 6.035,23.812 6.035,23.812C5.988,23.834 5.94,23.854 5.891,23.873C5.185,24.136 4.565,23.758 4.001,23.004C3.738,22.669 3.41,23.248 2.715,22.014C2.255,21.196 2.796,20.333 2.783,20.01C2.74,19.429 2.582,19.23 2.633,18.395C2.689,17.466 3.801,17.081 4.899,17.082ZM23.626,20.693C24.396,20.767 24.672,22.118 23.375,22.052C22.812,22.052 23.799,23.157 22.349,23.2C20.963,23.205 21.268,20.819 23.469,20.693C23.522,20.691 23.574,20.691 23.626,20.693ZM15.182,20.578C15.762,20.609 16.544,21.007 16.594,21.009C16.647,21.01 16.701,21.011 16.754,21.012C17.076,21.022 17.645,21.411 17.596,21.93C17.504,22.904 16.332,23.351 15.004,23.032C14.389,22.906 13.503,23.016 13.503,23.016C13.042,23.091 12.464,22.716 12.618,22.268C12.941,21.327 14.099,20.575 15.182,20.578ZM18.668,16.064C18.996,16.081 19.08,16.26 19.351,16.436C20.413,17.165 20.454,17.846 19.161,18.433C19.352,18.841 18.731,19.318 18.241,19.006C17.174,18.327 17.376,16.245 18.369,16.149C18.459,16.092 18.561,16.062 18.668,16.064ZM14.473,16.925C15.037,16.937 15.428,17.916 14.711,18.075C13.895,18.255 13.712,16.92 14.473,16.925ZM27.908,12.477C28.543,12.508 28.331,13.887 28.331,13.887C29.362,13.809 29.134,15.684 27.566,15.33C26.311,15.047 26.502,12.462 27.908,12.477ZM22.283,6.832C23.078,6.877 24.013,7.588 24.013,7.588C24.58,7.772 24.567,8.815 24.567,8.815C24.757,9.043 24.734,9.085 24.769,9.197C25.159,10.426 24.295,11.595 23.189,12.151C23.189,12.151 23.218,13.668 22.139,13.886C21.576,14 21.201,13.536 21.051,14.249C20.798,15.212 19.388,15.194 18.819,15.125C17.72,14.993 17.713,14.034 17.65,13.285C17.554,12.16 17.578,11.093 18.615,10.233C19.292,9.644 19.173,8.63 20.293,7.699C20.861,7.226 21.394,6.816 22.283,6.832ZM10.233,12.895C10.769,12.926 11.285,13.453 10.899,13.865C10.628,14.154 10.334,13.988 10.278,14.369C10.116,15.294 8.051,14.756 9.172,13.29C9.422,12.964 9.71,12.881 10.233,12.895ZM3.488,11.415C4.512,11.456 4.782,13.333 4.04,14.028C3.448,14.582 2.706,13.443 2.848,11.951C2.89,11.632 3.209,11.415 3.488,11.415ZM15.317,9.768C15.744,9.784 16.176,9.916 16.293,10.422C16.573,11.635 16.486,13.512 14.522,11.98C14.022,11.59 13.761,10.789 14.539,10.467C14.539,10.467 14.787,9.762 15.317,9.768ZM11.046,2.391C12.737,2.572 13.601,4.538 13.437,5.494C13.315,6.204 12.917,6.632 12.816,7.607C12.695,8.497 11.331,8.861 11.176,8.924C10.442,9.264 10.022,9.754 9.461,9.725C7.946,9.625 6.695,8.661 6.869,6.59C6.917,6.012 7.666,5.51 7.708,5.463C8.63,4.153 9.513,2.319 11.046,2.391ZM30.248,2.303C30.804,2.368 30.852,3.412 30.852,3.412C30.886,3.464 30.918,3.516 30.949,3.57C30.979,3.625 31.007,3.68 31.033,3.736C31.297,4.351 30.663,5.258 30.663,5.258C30.951,6.22 30.631,7.143 29.758,7.076C29.233,7.035 28.652,6.457 28.652,6.457C28.002,6.717 27.361,6.816 27.125,6.246C27.125,6.246 26.601,5.392 27.279,5.012C27.279,5.012 27.669,4.876 27.693,4.511C27.766,3.954 28.379,3.71 28.613,2.919C28.773,2.432 29.248,2.066 29.782,2.376C29.782,2.376 29.87,2.291 30.248,2.303ZM18.689,3.731C19.798,3.823 19.21,6.579 18.271,5.632C17.434,5.685 17.409,3.679 18.689,3.731ZM2.545,1.847C3.25,1.898 2.588,1.895 3.245,1.668C4.204,1.336 4.591,4.178 3.623,4.158C3.276,4.268 2.87,4.201 2.457,4.222C1.991,4.238 1.418,4.078 1.313,3.509C1.164,2.708 1.872,1.821 2.545,1.847ZM15.141,1.992C15.722,2.019 15.386,1.628 15.728,1.104C16.45,-0.002 18.599,0.86 18.082,2.157C17.887,2.646 17.335,2.935 17.335,2.935C16.747,3.74 15.153,2.993 15.153,2.993C14.551,2.965 14.395,1.966 15.141,1.992ZM25.027,0.555C25.635,0.624 25.84,1.573 25.135,2.069C24.294,2.66 24.144,2.25 23.874,2.582C23.192,3.354 21.875,1.338 22.892,0.695C23.036,0.302 23.729,0.534 23.729,0.534C24.161,0.554 24.263,0.504 25.027,0.555ZM6.74,0.61C6.815,0.615 6.889,0.63 6.959,0.656C8.088,1.067 7.677,3.36 5.954,2.379C5.201,1.95 5.572,0.552 6.74,0.61Z"
        fill="currentColor" style="fill-rule:nonzero;" />
</svg>