<svg width="100%" height="100%" viewBox="0 0 33 32" version="1.1" xmlns="http://www.w3.org/2000/svg"
    xmlns:xlink="http://www.w3.org/1999/xlink" xml:space="preserve" xmlns:serif="http://www.serif.com/"
    style="fill-rule:evenodd;clip-rule:evenodd;stroke-linejoin:round;stroke-miterlimit:2;">
    <g transform="matrix(1.44591,0,0,1.44591,-0.411313,-20.4983)">
        <path
            d="M13,22C7.907,21.816 9.011,22.368 7.315,20.937C5.898,19.741 5.219,20.376 3.797,20.985C-0.403,22.783 0.872,26.901 2.141,27.934C3.371,28.935 4.107,29.728 6.741,30.024C7.069,30.06 7.014,30.305 10.793,30.754C14.462,31.19 14.408,30.451 18.063,30.058C19.218,29.934 20.373,29.072 20.547,28.941C21.3,28.38 23.251,26.421 21.221,25.133C19.431,23.998 18.067,23.524 17.777,23.423C16.05,22.822 16.109,22.666 13.42,22.066L13,22Z"
            fill="currentColor" />
    </g>
</svg>